G04*
G04 #@! TF.GenerationSoftware,Altium Limited,Altium Designer,20.0.7 (75)*
G04*
G04 Layer_Color=32896*
%FSLAX44Y44*%
%MOMM*%
G71*
G01*
G75*
%ADD11C,0.2540*%
%ADD13C,0.1270*%
%ADD14C,0.2000*%
%ADD15C,0.1000*%
%ADD16C,0.1524*%
%ADD17C,0.0762*%
%ADD18C,0.1530*%
G36*
X-173054Y35595D02*
X-175594D01*
Y39405D01*
X-173054D01*
Y35595D01*
D02*
G37*
G36*
X-112595Y71054D02*
X-116405D01*
Y73594D01*
X-112595D01*
Y71054D01*
D02*
G37*
G36*
X-107595Y-31054D02*
X-111405D01*
Y-33594D01*
X-107595D01*
Y-31054D01*
D02*
G37*
G36*
X-70946Y20595D02*
X-68406D01*
Y24405D01*
X-70946D01*
Y20595D01*
D02*
G37*
D11*
X97460Y125618D02*
X87303D01*
X92382Y130697D02*
Y120540D01*
D13*
X92300Y20100D02*
X105600D01*
Y-8200D02*
Y20100D01*
X92300Y-8200D02*
X105600D01*
X92300D02*
Y20100D01*
X141000Y10000D02*
Y47000D01*
X159000D01*
Y10000D02*
Y47000D01*
X141000Y10000D02*
X159000D01*
X123300Y40800D02*
Y69100D01*
Y40800D02*
X136600D01*
Y69100D01*
X123300D02*
X136600D01*
X123300Y11800D02*
Y40100D01*
Y11800D02*
X136600D01*
Y40100D01*
X123300D02*
X136600D01*
X137303Y-97637D02*
X146708Y-88232D01*
X117292Y-77626D02*
X137303Y-97637D01*
X117292Y-77626D02*
X126697Y-68222D01*
X146708Y-88232D01*
X137697Y-57221D02*
X157708Y-77232D01*
X128292Y-66626D02*
X137697Y-57221D01*
X128292Y-66626D02*
X148303Y-86637D01*
X157708Y-77232D01*
X120900Y-38400D02*
X120900Y-51700D01*
X120900Y-38400D02*
X149200Y-38400D01*
X149200Y-51700D02*
X149200Y-38400D01*
X120900Y-51700D02*
X149200Y-51700D01*
X143343Y105475D02*
X159576Y82293D01*
X132449Y97846D02*
X143343Y105475D01*
X132449Y97846D02*
X148681Y74664D01*
X159576Y82293D01*
X-41199Y8700D02*
X-12899D01*
X-41199Y-4600D02*
Y8700D01*
Y-4600D02*
X-12899D01*
Y8700D01*
X141943Y113935D02*
X165981Y79604D01*
X185747Y93444D01*
X161709Y127775D02*
X185747Y93444D01*
X141943Y113935D02*
X161709Y127775D01*
X-191700Y76100D02*
X-178400D01*
Y47800D02*
Y76100D01*
X-191700Y47800D02*
X-178400D01*
X-191700D02*
Y76100D01*
X-109900Y-100600D02*
Y-87300D01*
X-138200Y-100600D02*
X-109900D01*
X-138200D02*
Y-87300D01*
X-109900D01*
X-100000Y-117300D02*
Y-104000D01*
X-128300Y-117300D02*
X-100000D01*
X-128300D02*
Y-104000D01*
X-100000D01*
X-81900Y-134600D02*
Y-121300D01*
X-110200Y-134600D02*
X-81900D01*
X-110200D02*
Y-121300D01*
X-81900D01*
X-128300Y-81100D02*
Y-52800D01*
X-141600D02*
X-128300D01*
X-141600Y-81100D02*
Y-52800D01*
Y-81100D02*
X-128300D01*
X59300Y-16200D02*
Y12100D01*
Y-16200D02*
X72600D01*
Y12100D01*
X59300D02*
X72600D01*
X-41199Y-6300D02*
X-12899D01*
X-41199Y-19600D02*
Y-6300D01*
Y-19600D02*
X-12899D01*
Y-6300D01*
X-41100Y-49700D02*
X-12800D01*
Y-36400D01*
X-41100D02*
X-12800D01*
X-41100Y-49700D02*
Y-36400D01*
X175700Y-19100D02*
Y9200D01*
X162400D02*
X175700D01*
X162400Y-19100D02*
Y9200D01*
Y-19100D02*
X175700D01*
X162300Y15800D02*
Y44100D01*
Y15800D02*
X175600D01*
Y44100D01*
X162300D02*
X175600D01*
X-71300Y-70100D02*
Y-41800D01*
X-84600D02*
X-71300D01*
X-84600Y-70100D02*
Y-41800D01*
Y-70100D02*
X-71300D01*
X-158400Y-74800D02*
Y-46500D01*
X-171700D02*
X-158400D01*
X-171700Y-74800D02*
Y-46500D01*
Y-74800D02*
X-158400D01*
X-142900D02*
Y-46500D01*
X-156200D02*
X-142900D01*
X-156200Y-74800D02*
Y-46500D01*
Y-74800D02*
X-142900D01*
X-113300Y-81100D02*
Y-52800D01*
X-126600D02*
X-113300D01*
X-126600Y-81100D02*
Y-52800D01*
Y-81100D02*
X-113300D01*
X-90100Y-36700D02*
X-61800D01*
Y-23400D01*
X-90100D02*
X-61800D01*
X-90100Y-36700D02*
Y-23400D01*
X-41099Y-34700D02*
X-12799D01*
Y-21400D01*
X-41099D02*
X-12799D01*
X-41099Y-34700D02*
Y-21400D01*
X-100700Y-70200D02*
Y-41900D01*
Y-70200D02*
X-87400D01*
Y-41900D01*
X-100700D02*
X-87400D01*
X148900Y50300D02*
X177200D01*
Y63600D01*
X148900D02*
X177200D01*
X148900Y50300D02*
Y63600D01*
X41899Y31300D02*
X70199D01*
Y44600D01*
X41899D02*
X70199D01*
X41899Y31300D02*
Y44600D01*
X59800Y28700D02*
X88100D01*
X59800Y15400D02*
Y28700D01*
Y15400D02*
X88100D01*
Y28700D01*
X7900Y31300D02*
X36200D01*
Y44600D01*
X7900D02*
X36200D01*
X7900Y31300D02*
Y44600D01*
X-55300Y-70100D02*
Y-41800D01*
X-68600D02*
X-55300D01*
X-68600Y-70100D02*
Y-41800D01*
Y-70100D02*
X-55300D01*
D14*
X-128849Y90866D02*
G03*
X-130264Y92281I-707J707D01*
G01*
D02*
G03*
X-128849Y90866I707J-707D01*
G01*
X149073Y122571D02*
G03*
X148500Y123391I-287J410D01*
G01*
D02*
G03*
X149073Y122571I287J-410D01*
G01*
X96700Y133900D02*
Y184700D01*
X71300Y133900D02*
X96700D01*
X71300D02*
Y184700D01*
X96700D01*
X-63500Y120000D02*
Y212000D01*
X-39000D01*
X60500D01*
Y96500D02*
Y212000D01*
X-63500Y96500D02*
X60500D01*
X-63500D02*
Y120000D01*
X91039Y-147000D02*
X109000Y-164960D01*
X180842Y-93118D01*
X91039Y-147000D02*
X162882Y-75158D01*
X180842Y-93118D01*
X52480Y5250D02*
Y10750D01*
X23520D02*
X52480D01*
X23520Y5250D02*
Y10750D01*
Y5250D02*
X52480D01*
X53140Y-10750D02*
Y1750D01*
D15*
X-135920Y147435D02*
X-127435Y155920D01*
X-100565Y112080D02*
X-92080Y120565D01*
X-62500Y-185000D02*
X86500D01*
Y-71000D01*
X-62500D02*
X86500D01*
X-62500Y-185000D02*
Y-71000D01*
D16*
X7055Y53600D02*
G03*
X7055Y53600I-1270J0D01*
G01*
X-66605Y66300D02*
G03*
X-60942Y49651I27305J0D01*
G01*
X-16923Y50653D02*
G03*
X-66605Y66300I-22377J15647D01*
G01*
X-43404Y49155D02*
X-36277D01*
X-158322Y-16322D02*
X-153970D01*
X-158322Y56322D02*
X-153970D01*
X-85678Y51971D02*
Y56322D01*
X-90030Y-16322D02*
X-85678D01*
X-158322D02*
Y-11970D01*
Y51971D02*
Y56322D01*
X-90030D02*
X-85678D01*
Y-16322D02*
Y-11970D01*
D17*
X-180039Y-18040D02*
X-171575Y-9576D01*
X-180039D02*
X-171575Y-18040D01*
X-180039Y-13808D02*
X-171575D01*
X-175807Y-9576D02*
Y-18040D01*
D18*
X182806Y-93870D02*
X180874D01*
X178942Y-95802D01*
Y-97734D01*
X179908Y-98700D01*
X181840D01*
X182806Y-97734D01*
X181840Y-98700D01*
Y-100632D01*
X182806Y-101598D01*
X184738Y-101598D01*
X186670Y-99666D01*
Y-97734D01*
X181840Y-104496D02*
X180874Y-103530D01*
X179908Y-104496D01*
X180874Y-105463D01*
X181840Y-104496D01*
X172179D02*
X170247D01*
X168315Y-106428D01*
Y-108361D01*
X169281Y-109327D01*
X171213D01*
X172179Y-108361D01*
X171213Y-109327D01*
Y-111259D01*
X172179Y-112225D01*
X174111Y-112225D01*
X176043Y-110293D01*
Y-108361D01*
X140342Y-136834D02*
Y-134902D01*
X142274Y-132970D01*
X144206D01*
X145172Y-133936D01*
X145172Y-135868D01*
X143240Y-137800D01*
Y-139732D01*
X144206Y-140698D01*
X146138Y-140698D01*
X148070Y-138766D01*
Y-136834D01*
X137443Y-137800D02*
X143240Y-143596D01*
X139376D01*
Y-147461D01*
X133579Y-141664D01*
X128749Y-148427D02*
Y-146495D01*
X130681Y-144563D01*
X132613Y-144563D01*
X136477Y-148427D01*
Y-150359D01*
X134545Y-152291D01*
X132613Y-152291D01*
X125851Y-149393D02*
X131647Y-155189D01*
X127783Y-159053D01*
X120054Y-155189D02*
X125851Y-160986D01*
X123918Y-159053D01*
X116190D01*
X121986D01*
X121986Y-164850D01*
X161942Y-114334D02*
Y-112402D01*
X163874Y-110470D01*
X165806D01*
X166772Y-111436D01*
X166772Y-113368D01*
X164840Y-115300D01*
Y-117232D01*
X165806Y-118198D01*
X167738Y-118198D01*
X169670Y-116266D01*
Y-114334D01*
X159043Y-115300D02*
X164840Y-121096D01*
X160976D01*
Y-124961D01*
X155179Y-119164D01*
X153247Y-121096D02*
X151315Y-123029D01*
X152281Y-122063D01*
X158077Y-127859D01*
X159043Y-126893D01*
X157111Y-128825D01*
X145519Y-128825D02*
X147451Y-126893D01*
X149383Y-126893D01*
X153247Y-130757D01*
Y-132689D01*
X151315Y-134621D01*
X149383D01*
X145519Y-130757D01*
Y-128825D01*
X158018Y-48072D02*
X155419Y-47228D01*
X156718Y-47650D01*
X159251Y-39854D01*
X160129Y-41575D01*
X186072Y-70419D02*
X191270Y-72108D01*
X189515Y-68665D02*
X187827Y-73862D01*
X190339Y-55421D02*
X192060Y-54544D01*
X194659Y-55388D01*
X195536Y-57110D01*
X193848Y-62307D01*
X192126Y-63184D01*
X189527Y-62340D01*
X188650Y-60618D01*
X190339Y-55421D01*
X103101Y-8755D02*
X94904D01*
Y-12853D01*
X96270Y-14219D01*
X99002D01*
X100369Y-12853D01*
Y-8755D01*
Y-11487D02*
X103101Y-14219D01*
Y-16952D02*
Y-19684D01*
Y-18318D01*
X94904D01*
X96270Y-16952D01*
X101735Y-23783D02*
X103101Y-25149D01*
Y-27882D01*
X101735Y-29248D01*
X96270D01*
X94904Y-27882D01*
Y-25149D01*
X96270Y-23783D01*
X97636D01*
X99002Y-25149D01*
Y-29248D01*
X124901Y-7247D02*
X133099D01*
Y-3148D01*
X131733Y-1782D01*
X129000D01*
X127634Y-3148D01*
Y-7247D01*
Y-4514D02*
X124901Y-1782D01*
Y951D02*
Y3683D01*
Y2317D01*
X133099D01*
X131733Y951D01*
X133099Y7782D02*
Y13247D01*
X131733D01*
X126267Y7782D01*
X124901D01*
X126501Y70653D02*
X134699D01*
Y74752D01*
X133332Y76118D01*
X130600D01*
X129234Y74752D01*
Y70653D01*
Y73386D02*
X126501Y76118D01*
Y78851D02*
Y81583D01*
Y80217D01*
X134699D01*
X133332Y78851D01*
X134699Y91147D02*
X133332Y88414D01*
X130600Y85682D01*
X127867D01*
X126501Y87048D01*
Y89781D01*
X127867Y91147D01*
X129234D01*
X130600Y89781D01*
Y85682D01*
X105469Y-41001D02*
Y-49199D01*
X109567D01*
X110934Y-47832D01*
Y-45100D01*
X109567Y-43734D01*
X105469D01*
X108201D02*
X110934Y-41001D01*
X113666Y-47832D02*
X115033Y-49199D01*
X117765D01*
X119131Y-47832D01*
Y-46466D01*
X117765Y-45100D01*
X116399D01*
X117765D01*
X119131Y-43734D01*
Y-42368D01*
X117765Y-41001D01*
X115033D01*
X113666Y-42368D01*
X135838Y108867D02*
X137741Y108532D01*
X139308Y106293D01*
X138973Y104391D01*
X134496Y101256D01*
X132593Y101592D01*
X131026Y103830D01*
X131362Y105733D01*
X128675Y107187D02*
X127108Y109426D01*
X127892Y108307D01*
X134607Y113008D01*
X134271Y111105D01*
X-188799Y78453D02*
X-180601D01*
Y82552D01*
X-181968Y83918D01*
X-184700D01*
X-186066Y82552D01*
Y78453D01*
Y81186D02*
X-188799Y83918D01*
Y86651D02*
Y89383D01*
Y88017D01*
X-180601D01*
X-181968Y86651D01*
X-180601Y98947D02*
Y93482D01*
X-184700D01*
X-183334Y96214D01*
Y97580D01*
X-184700Y98947D01*
X-187432D01*
X-188799Y97580D01*
Y94848D01*
X-187432Y93482D01*
X-138899Y-50647D02*
X-130701D01*
Y-46548D01*
X-132068Y-45182D01*
X-134800D01*
X-136166Y-46548D01*
Y-50647D01*
Y-47914D02*
X-138899Y-45182D01*
Y-42449D02*
Y-39717D01*
Y-41083D01*
X-130701D01*
X-132068Y-42449D01*
X-138899Y-31519D02*
X-130701D01*
X-134800Y-35618D01*
Y-30153D01*
X61801Y-37147D02*
X69999D01*
Y-33048D01*
X68632Y-31682D01*
X65900D01*
X64534Y-33048D01*
Y-37147D01*
Y-34414D02*
X61801Y-31682D01*
Y-28949D02*
Y-26217D01*
Y-27583D01*
X69999D01*
X68632Y-28949D01*
Y-22118D02*
X69999Y-20752D01*
Y-18019D01*
X68632Y-16653D01*
X67266D01*
X65900Y-18019D01*
Y-19386D01*
Y-18019D01*
X64534Y-16653D01*
X63168D01*
X61801Y-18019D01*
Y-20752D01*
X63168Y-22118D01*
X145501Y-12430D02*
X153699D01*
Y-8331D01*
X152332Y-6965D01*
X149600D01*
X148234Y-8331D01*
Y-12430D01*
Y-9697D02*
X145501Y-6965D01*
X152332Y1232D02*
X153699Y-134D01*
Y-2866D01*
X152332Y-4232D01*
X150966D01*
X149600Y-2866D01*
Y-134D01*
X148234Y1232D01*
X146868D01*
X145501Y-134D01*
Y-2866D01*
X146868Y-4232D01*
X153699Y3965D02*
Y9430D01*
Y6697D01*
X145501D01*
X-11098Y-10754D02*
Y-18951D01*
X-7000D01*
X-5633Y-17585D01*
Y-14853D01*
X-7000Y-13486D01*
X-11098D01*
X-8366D02*
X-5633Y-10754D01*
X-2901D02*
X-169D01*
X-1535D01*
Y-18951D01*
X-2901Y-17585D01*
X9395Y-10754D02*
X3930D01*
X9395Y-16219D01*
Y-17585D01*
X8029Y-18951D01*
X5296D01*
X3930Y-17585D01*
X21169Y-23099D02*
Y-16267D01*
X22535Y-14901D01*
X25268D01*
X26634Y-16267D01*
Y-23099D01*
X33465Y-14901D02*
Y-23099D01*
X29366Y-19000D01*
X34831D01*
X-61366Y87901D02*
X-64099D01*
X-62733D01*
Y94732D01*
X-64099Y96099D01*
X-65465D01*
X-66831Y94732D01*
X-53169Y87901D02*
X-55901Y89268D01*
X-58634Y92000D01*
Y94732D01*
X-57268Y96099D01*
X-54535D01*
X-53169Y94732D01*
Y93366D01*
X-54535Y92000D01*
X-58634D01*
X80634Y-70099D02*
X77901D01*
X79268D01*
Y-63267D01*
X77901Y-61901D01*
X76535D01*
X75169Y-63267D01*
X88831Y-61901D02*
X83366D01*
X88831Y-67366D01*
Y-68733D01*
X87465Y-70099D01*
X84732D01*
X83366Y-68733D01*
X-60831Y41901D02*
Y48733D01*
X-59465Y50099D01*
X-56732D01*
X-55366Y48733D01*
Y41901D01*
X-47169D02*
X-49901Y43268D01*
X-52634Y46000D01*
Y48733D01*
X-51267Y50099D01*
X-48535D01*
X-47169Y48733D01*
Y47366D01*
X-48535Y46000D01*
X-52634D01*
X147276Y117755D02*
X141680Y113837D01*
X139777Y114172D01*
X138210Y116411D01*
X138545Y118314D01*
X144141Y122232D01*
X139439Y128947D02*
X142574Y124470D01*
X139216Y122119D01*
X138768Y125141D01*
X137985Y126260D01*
X136082Y126596D01*
X133843Y125028D01*
X133508Y123126D01*
X135075Y120887D01*
X136978Y120552D01*
X-90831Y58901D02*
Y65732D01*
X-89465Y67099D01*
X-86733D01*
X-85366Y65732D01*
Y58901D01*
X-77169Y67099D02*
X-82634D01*
X-77169Y61634D01*
Y60268D01*
X-78535Y58901D01*
X-81268D01*
X-82634Y60268D01*
X-11480Y-39401D02*
Y-47599D01*
X-7382D01*
X-6016Y-46232D01*
Y-43500D01*
X-7382Y-42134D01*
X-11480D01*
X-8748D02*
X-6016Y-39401D01*
X-3283D02*
X-551D01*
X-1917D01*
Y-47599D01*
X-3283Y-46232D01*
X3548Y-39401D02*
X6280D01*
X4914D01*
Y-47599D01*
X3548Y-46232D01*
X127732Y-64429D02*
X133528Y-58632D01*
X130630Y-55734D01*
X128698D01*
X126766Y-57666D01*
X126766Y-59598D01*
X129664Y-62496D01*
X127732Y-60564D02*
X123868D01*
X122902Y-57666D02*
X120970D01*
X119038Y-55734D01*
Y-53802D01*
X122902Y-49938D01*
X124834D01*
X126766Y-51870D01*
X126766Y-53802D01*
X125800Y-54768D01*
X123868Y-54768D01*
X120970Y-51870D01*
X-98131Y-105801D02*
Y-113999D01*
X-94032D01*
X-92666Y-112633D01*
Y-109900D01*
X-94032Y-108534D01*
X-98131D01*
X-95399D02*
X-92666Y-105801D01*
X-89934Y-112633D02*
X-88567Y-113999D01*
X-85835D01*
X-84469Y-112633D01*
Y-111266D01*
X-85835Y-109900D01*
X-84469Y-108534D01*
Y-107168D01*
X-85835Y-105801D01*
X-88567D01*
X-89934Y-107168D01*
Y-108534D01*
X-88567Y-109900D01*
X-89934Y-111266D01*
Y-112633D01*
X-88567Y-109900D02*
X-85835D01*
X117332Y-74529D02*
X123128Y-68732D01*
X120230Y-65834D01*
X118298D01*
X116366Y-67766D01*
X116366Y-69698D01*
X119264Y-72596D01*
X117332Y-70664D02*
X113468D01*
X108638Y-65834D02*
X114434Y-60037D01*
X114434Y-65834D01*
X110570Y-61970D01*
X-12831Y6099D02*
Y-2099D01*
X-8732D01*
X-7366Y-733D01*
Y2000D01*
X-8732Y3366D01*
X-12831D01*
X-10099D02*
X-7366Y6099D01*
X831D02*
X-4634D01*
X831Y634D01*
Y-733D01*
X-535Y-2099D01*
X-3268D01*
X-4634Y-733D01*
X165601Y-31565D02*
X173799D01*
Y-27466D01*
X172432Y-26100D01*
X169700D01*
X168334Y-27466D01*
Y-31565D01*
Y-28832D02*
X165601Y-26100D01*
Y-23368D02*
Y-20635D01*
Y-22001D01*
X173799D01*
X172432Y-23368D01*
X199484Y-49086D02*
X198550Y-51653D01*
X199017Y-50370D01*
X192598Y-48033D01*
X190847Y-48850D01*
X190379Y-50134D01*
X191196Y-51885D01*
X202288Y-41383D02*
X200419Y-46518D01*
X196567Y-45116D01*
X198786Y-43016D01*
X199253Y-41732D01*
X198436Y-39981D01*
X195869Y-39046D01*
X194118Y-39863D01*
X193183Y-42431D01*
X194000Y-44182D01*
X78366Y133099D02*
X81099D01*
X79732D01*
Y126267D01*
X81099Y124901D01*
X82465D01*
X83831Y126267D01*
X71535Y124901D02*
Y133099D01*
X75634Y129000D01*
X70169D01*
X93498Y-142098D02*
X91566Y-144030D01*
X92532Y-143064D01*
X87702Y-138234D01*
X85770D01*
X84804Y-139200D01*
Y-141132D01*
X89634Y-134370D02*
X91566Y-132437D01*
X90600Y-133404D01*
X96396Y-139200D01*
X94464Y-139200D01*
X-114966Y84811D02*
X-120763Y90608D01*
X-117864Y93506D01*
X-115932Y93506D01*
X-112068Y89642D01*
Y87709D01*
X-114966Y84811D01*
Y96404D02*
X-113034Y98336D01*
X-114000Y97370D01*
X-108204Y91574D01*
X-110136Y91574D01*
X183732Y22535D02*
X185099Y21169D01*
Y18436D01*
X183732Y17070D01*
X178267D01*
X176901Y18436D01*
Y21169D01*
X178267Y22535D01*
X176901Y30733D02*
Y25268D01*
X182366Y30733D01*
X183732D01*
X185099Y29366D01*
Y26634D01*
X183732Y25268D01*
Y33465D02*
X185099Y34831D01*
Y37564D01*
X183732Y38930D01*
X178267D01*
X176901Y37564D01*
Y34831D01*
X178267Y33465D01*
X183732D01*
X-75167Y-85782D02*
X-73801Y-87148D01*
Y-89881D01*
X-75167Y-91247D01*
X-80632D01*
X-81999Y-89881D01*
Y-87148D01*
X-80632Y-85782D01*
X-81999Y-83049D02*
Y-80317D01*
Y-81683D01*
X-73801D01*
X-75167Y-83049D01*
X-80632Y-76218D02*
X-81999Y-74852D01*
Y-72119D01*
X-80632Y-70753D01*
X-75167D01*
X-73801Y-72119D01*
Y-74852D01*
X-75167Y-76218D01*
X-76534D01*
X-77900Y-74852D01*
Y-70753D01*
X-162367Y-39682D02*
X-161001Y-41048D01*
Y-43780D01*
X-162367Y-45147D01*
X-167832D01*
X-169199Y-43780D01*
Y-41048D01*
X-167832Y-39682D01*
X-169199Y-36949D02*
Y-34217D01*
Y-35583D01*
X-161001D01*
X-162367Y-36949D01*
Y-30118D02*
X-161001Y-28752D01*
Y-26020D01*
X-162367Y-24653D01*
X-163734D01*
X-165100Y-26020D01*
X-166466Y-24653D01*
X-167832D01*
X-169199Y-26020D01*
Y-28752D01*
X-167832Y-30118D01*
X-166466D01*
X-165100Y-28752D01*
X-163734Y-30118D01*
X-162367D01*
X-165100Y-28752D02*
Y-26020D01*
X-146868Y-39182D02*
X-145501Y-40548D01*
Y-43281D01*
X-146868Y-44647D01*
X-152332D01*
X-153699Y-43281D01*
Y-40548D01*
X-152332Y-39182D01*
X-153699Y-36449D02*
Y-33717D01*
Y-35083D01*
X-145501D01*
X-146868Y-36449D01*
X-145501Y-29618D02*
Y-24153D01*
X-146868D01*
X-152332Y-29618D01*
X-153699D01*
X-116868Y-45682D02*
X-115501Y-47048D01*
Y-49781D01*
X-116868Y-51147D01*
X-122332D01*
X-123699Y-49781D01*
Y-47048D01*
X-122332Y-45682D01*
X-123699Y-42949D02*
Y-40217D01*
Y-41583D01*
X-115501D01*
X-116868Y-42949D01*
X-115501Y-30653D02*
X-116868Y-33386D01*
X-119600Y-36118D01*
X-122332D01*
X-123699Y-34752D01*
Y-32020D01*
X-122332Y-30653D01*
X-120966D01*
X-119600Y-32020D01*
Y-36118D01*
X-55082Y-32632D02*
X-56448Y-33999D01*
X-59180D01*
X-60547Y-32632D01*
Y-27167D01*
X-59180Y-25801D01*
X-56448D01*
X-55082Y-27167D01*
X-52349Y-25801D02*
X-49617D01*
X-50983D01*
Y-33999D01*
X-52349Y-32632D01*
X-40053Y-33999D02*
X-45518D01*
Y-29900D01*
X-42786Y-31266D01*
X-41420D01*
X-40053Y-29900D01*
Y-27167D01*
X-41420Y-25801D01*
X-44152D01*
X-45518Y-27167D01*
X-5782Y-31332D02*
X-7148Y-32699D01*
X-9880D01*
X-11247Y-31332D01*
Y-25868D01*
X-9880Y-24501D01*
X-7148D01*
X-5782Y-25868D01*
X-3049Y-24501D02*
X-317D01*
X-1683D01*
Y-32699D01*
X-3049Y-31332D01*
X7880Y-24501D02*
Y-32699D01*
X3782Y-28600D01*
X9247D01*
X-91167Y-86082D02*
X-89801Y-87448D01*
Y-90181D01*
X-91167Y-91547D01*
X-96632D01*
X-97999Y-90181D01*
Y-87448D01*
X-96632Y-86082D01*
X-97999Y-83349D02*
Y-80617D01*
Y-81983D01*
X-89801D01*
X-91167Y-83349D01*
Y-76518D02*
X-89801Y-75152D01*
Y-72420D01*
X-91167Y-71053D01*
X-92534D01*
X-93900Y-72420D01*
Y-73786D01*
Y-72420D01*
X-95266Y-71053D01*
X-96632D01*
X-97999Y-72420D01*
Y-75152D01*
X-96632Y-76518D01*
X-103382Y-99532D02*
X-104748Y-100899D01*
X-107480D01*
X-108847Y-99532D01*
Y-94068D01*
X-107480Y-92701D01*
X-104748D01*
X-103382Y-94068D01*
X-100649Y-92701D02*
X-97917D01*
X-99283D01*
Y-100899D01*
X-100649Y-99532D01*
X-88353Y-92701D02*
X-93818D01*
X-88353Y-98166D01*
Y-99532D01*
X-89719Y-100899D01*
X-92452D01*
X-93818Y-99532D01*
X-74716Y-130732D02*
X-76082Y-132099D01*
X-78814D01*
X-80181Y-130732D01*
Y-125267D01*
X-78814Y-123901D01*
X-76082D01*
X-74716Y-125267D01*
X-71983Y-123901D02*
X-69251D01*
X-70617D01*
Y-132099D01*
X-71983Y-130732D01*
X-65152Y-123901D02*
X-62420D01*
X-63786D01*
Y-132099D01*
X-65152Y-130732D01*
X158218Y66267D02*
X156852Y64901D01*
X154120D01*
X152753Y66267D01*
Y71732D01*
X154120Y73099D01*
X156852D01*
X158218Y71732D01*
X160951Y73099D02*
X163683D01*
X162317D01*
Y64901D01*
X160951Y66267D01*
X167782D02*
X169148Y64901D01*
X171880D01*
X173247Y66267D01*
Y71732D01*
X171880Y73099D01*
X169148D01*
X167782Y71732D01*
Y66267D01*
X77134Y35068D02*
X75767Y33701D01*
X73035D01*
X71669Y35068D01*
Y40532D01*
X73035Y41899D01*
X75767D01*
X77134Y40532D01*
X79866D02*
X81233Y41899D01*
X83965D01*
X85331Y40532D01*
Y35068D01*
X83965Y33701D01*
X81233D01*
X79866Y35068D01*
Y36434D01*
X81233Y37800D01*
X85331D01*
X95734Y19268D02*
X94368Y17901D01*
X91635D01*
X90269Y19268D01*
Y24732D01*
X91635Y26099D01*
X94368D01*
X95734Y24732D01*
X98466Y19268D02*
X99832Y17901D01*
X102565D01*
X103931Y19268D01*
Y20634D01*
X102565Y22000D01*
X103931Y23366D01*
Y24732D01*
X102565Y26099D01*
X99832D01*
X98466Y24732D01*
Y23366D01*
X99832Y22000D01*
X98466Y20634D01*
Y19268D01*
X99832Y22000D02*
X102565D01*
X-1566Y35568D02*
X-2932Y34201D01*
X-5665D01*
X-7031Y35568D01*
Y41033D01*
X-5665Y42399D01*
X-2932D01*
X-1566Y41033D01*
X1166Y34201D02*
X6631D01*
Y35568D01*
X1166Y41033D01*
Y42399D01*
X-59167Y-79566D02*
X-57801Y-80933D01*
Y-83665D01*
X-59167Y-85031D01*
X-64633D01*
X-65999Y-83665D01*
Y-80933D01*
X-64633Y-79566D01*
X-57801Y-71369D02*
Y-76834D01*
X-61900D01*
X-60534Y-74101D01*
Y-72735D01*
X-61900Y-71369D01*
X-64633D01*
X-65999Y-72735D01*
Y-75468D01*
X-64633Y-76834D01*
M02*
