G04*
G04 #@! TF.GenerationSoftware,Altium Limited,Altium Designer,20.0.7 (75)*
G04*
G04 Layer_Physical_Order=2*
G04 Layer_Color=16711680*
%FSLAX44Y44*%
%MOMM*%
G71*
G01*
G75*
%ADD10C,0.2000*%
%ADD21C,1.5240*%
%ADD27R,1.7000X1.1000*%
%ADD31C,0.8000*%
%ADD32R,1.5240X1.5240*%
%ADD33C,1.5000*%
%ADD34R,1.5000X1.5000*%
%ADD35C,1.3208*%
%ADD36R,2.5400X2.5400*%
%ADD37C,2.5400*%
%ADD38R,1.3208X1.3208*%
%ADD39C,4.4450*%
%ADD40C,1.0000*%
%ADD41C,0.3810*%
G36*
X751689Y683743D02*
X761644Y682166D01*
X771445Y679813D01*
X781032Y676698D01*
X790344Y672841D01*
X799326Y668265D01*
X807920Y662998D01*
X816075Y657073D01*
X823739Y650527D01*
X830867Y643400D01*
X837413Y635735D01*
X843338Y627580D01*
X848605Y618986D01*
X853181Y610005D01*
X857038Y600692D01*
X860153Y591105D01*
X862506Y581304D01*
X864083Y571349D01*
X864874Y561300D01*
Y556260D01*
Y127000D01*
Y121960D01*
X864083Y111911D01*
X862506Y101956D01*
X860153Y92154D01*
X857038Y82568D01*
X853181Y73256D01*
X848605Y64274D01*
X843338Y55680D01*
X837413Y47525D01*
X830867Y39860D01*
X823739Y32733D01*
X816075Y26187D01*
X807920Y20262D01*
X799326Y14995D01*
X790344Y10419D01*
X781032Y6562D01*
X771445Y3447D01*
X761644Y1094D01*
X751689Y-483D01*
X741640Y-1274D01*
X62016D01*
X58232Y-1274D01*
X50718Y-372D01*
X43365Y1418D01*
X36278Y4072D01*
X29557Y7552D01*
X23299Y11808D01*
X17592Y16779D01*
X12519Y22394D01*
X8150Y28574D01*
X4549Y35230D01*
X1767Y42268D01*
X-157Y49588D01*
X-720Y53654D01*
X-801Y54290D01*
X-839Y54614D01*
X-391Y55352D01*
X183Y55854D01*
X300Y55884D01*
X128266Y55884D01*
Y144776D01*
X-253D01*
X-722Y144970D01*
X-1080Y145328D01*
X-1274Y145797D01*
Y216153D01*
X-1080Y216621D01*
X-722Y216980D01*
X-253Y217174D01*
X184146D01*
Y379726D01*
X-253D01*
X-722Y379920D01*
X-1080Y380278D01*
X-1274Y380747D01*
Y381000D01*
Y619760D01*
Y622942D01*
X-650Y629276D01*
X592Y635518D01*
X2439Y641608D01*
X4875Y647488D01*
X7875Y653101D01*
X11410Y658392D01*
X15448Y663312D01*
X19948Y667812D01*
X24868Y671850D01*
X30159Y675385D01*
X35772Y678385D01*
X41652Y680821D01*
X47742Y682668D01*
X53984Y683910D01*
X60318Y684534D01*
X741640D01*
X751689Y683743D01*
D02*
G37*
%LPC*%
G36*
X421640Y671629D02*
X240030D01*
X238649Y671355D01*
X237478Y670572D01*
X232738Y665832D01*
X231955Y664661D01*
X231681Y663280D01*
Y657213D01*
X229887Y656470D01*
X227789Y654861D01*
X226180Y652763D01*
X225168Y650321D01*
X224823Y647700D01*
X225168Y645079D01*
X226180Y642637D01*
X227789Y640539D01*
X229887Y638930D01*
X232329Y637918D01*
X234950Y637573D01*
X237571Y637918D01*
X240013Y638930D01*
X242111Y640539D01*
X243720Y642637D01*
X244732Y645079D01*
X245077Y647700D01*
X244732Y650321D01*
X243720Y652763D01*
X242111Y654861D01*
X240013Y656470D01*
X238899Y656931D01*
Y661785D01*
X241525Y664411D01*
X349037D01*
X349523Y663237D01*
X346698Y660412D01*
X345915Y659241D01*
X345641Y657860D01*
Y654432D01*
X344371Y654000D01*
X343711Y654861D01*
X341613Y656470D01*
X339171Y657482D01*
X336550Y657827D01*
X333929Y657482D01*
X331487Y656470D01*
X329389Y654861D01*
X327780Y652763D01*
X326768Y650321D01*
X326423Y647700D01*
X326768Y645079D01*
X327780Y642637D01*
X329389Y640539D01*
X331487Y638930D01*
X333929Y637918D01*
X336550Y637573D01*
X339171Y637918D01*
X341613Y638930D01*
X343711Y640539D01*
X344371Y641400D01*
X345641Y640968D01*
Y629031D01*
X344371Y628600D01*
X343711Y629461D01*
X341613Y631070D01*
X339171Y632082D01*
X336550Y632427D01*
X333929Y632082D01*
X331487Y631070D01*
X329389Y629461D01*
X327780Y627363D01*
X326768Y624921D01*
X326423Y622300D01*
X326768Y619679D01*
X327780Y617237D01*
X329389Y615139D01*
X331487Y613530D01*
X333929Y612518D01*
X336550Y612173D01*
X339171Y612518D01*
X341613Y613530D01*
X343711Y615139D01*
X344371Y616000D01*
X345641Y615569D01*
Y604520D01*
X345915Y603139D01*
X346698Y601968D01*
X352442Y596224D01*
X351722Y595147D01*
X351218Y595356D01*
X350520Y595448D01*
Y589280D01*
X356688D01*
X356596Y589978D01*
X356387Y590482D01*
X357464Y591202D01*
X358341Y590325D01*
Y533979D01*
X357071Y533548D01*
X356496Y534296D01*
X354374Y535925D01*
X351902Y536949D01*
X349250Y537298D01*
X346598Y536949D01*
X344126Y535925D01*
X342004Y534296D01*
X340375Y532174D01*
X339352Y529702D01*
X339002Y527050D01*
X339352Y524398D01*
X340375Y521926D01*
X342004Y519804D01*
X344126Y518175D01*
X346598Y517151D01*
X349250Y516802D01*
X351902Y517151D01*
X354374Y518175D01*
X356496Y519804D01*
X357071Y520552D01*
X358341Y520121D01*
Y508579D01*
X357071Y508148D01*
X356496Y508896D01*
X354374Y510525D01*
X351902Y511549D01*
X349250Y511898D01*
X346598Y511549D01*
X344126Y510525D01*
X342004Y508896D01*
X340375Y506774D01*
X339352Y504302D01*
X339002Y501650D01*
X339352Y498998D01*
X340375Y496526D01*
X342004Y494404D01*
X344126Y492775D01*
X346598Y491752D01*
X349250Y491402D01*
X351902Y491752D01*
X354374Y492775D01*
X356496Y494404D01*
X357071Y495152D01*
X358341Y494721D01*
Y466090D01*
X358615Y464709D01*
X359398Y463538D01*
X367668Y455268D01*
X368839Y454485D01*
X370220Y454211D01*
X513420D01*
Y451919D01*
X293595D01*
X289359Y456155D01*
Y494721D01*
X290629Y495152D01*
X291204Y494404D01*
X293326Y492775D01*
X295798Y491752D01*
X298450Y491402D01*
X301102Y491752D01*
X303574Y492775D01*
X305696Y494404D01*
X307325Y496526D01*
X308349Y498998D01*
X308698Y501650D01*
X308349Y504302D01*
X307325Y506774D01*
X305696Y508896D01*
X303574Y510525D01*
X301102Y511549D01*
X298450Y511898D01*
X295798Y511549D01*
X293326Y510525D01*
X291204Y508896D01*
X290629Y508148D01*
X289359Y508579D01*
Y520121D01*
X290629Y520552D01*
X291204Y519804D01*
X293326Y518175D01*
X295798Y517151D01*
X298450Y516802D01*
X301102Y517151D01*
X303574Y518175D01*
X305696Y519804D01*
X307325Y521926D01*
X308349Y524398D01*
X308698Y527050D01*
X308349Y529702D01*
X307325Y532174D01*
X305696Y534296D01*
X303574Y535925D01*
X301102Y536949D01*
X298450Y537298D01*
X295798Y536949D01*
X293326Y535925D01*
X291204Y534296D01*
X290629Y533548D01*
X289359Y533979D01*
Y539750D01*
X289085Y541131D01*
X288302Y542302D01*
X276659Y553945D01*
Y615569D01*
X277929Y616000D01*
X278589Y615139D01*
X280687Y613530D01*
X283129Y612518D01*
X284480Y612341D01*
Y622300D01*
Y632259D01*
X283129Y632082D01*
X280687Y631070D01*
X278589Y629461D01*
X277929Y628600D01*
X276659Y629031D01*
Y637540D01*
X276385Y638921D01*
X275602Y640092D01*
X270188Y645507D01*
X270477Y647700D01*
X270132Y650321D01*
X269120Y652763D01*
X267511Y654861D01*
X265413Y656470D01*
X262971Y657482D01*
X260350Y657827D01*
X257729Y657482D01*
X255287Y656470D01*
X253189Y654861D01*
X251580Y652763D01*
X250568Y650321D01*
X250223Y647700D01*
X250568Y645079D01*
X251580Y642637D01*
X253189Y640539D01*
X255287Y638930D01*
X257729Y637918D01*
X260350Y637573D01*
X262971Y637918D01*
X265413Y638930D01*
X266060Y639426D01*
X269441Y636045D01*
Y629031D01*
X268171Y628600D01*
X267511Y629461D01*
X265413Y631070D01*
X262971Y632082D01*
X260350Y632427D01*
X257729Y632082D01*
X255287Y631070D01*
X253189Y629461D01*
X251580Y627363D01*
X250568Y624921D01*
X250223Y622300D01*
X250568Y619679D01*
X251580Y617237D01*
X253189Y615139D01*
X255287Y613530D01*
X256741Y612928D01*
Y533979D01*
X255471Y533548D01*
X254896Y534296D01*
X252774Y535925D01*
X250302Y536949D01*
X247650Y537298D01*
X244998Y536949D01*
X242526Y535925D01*
X240404Y534296D01*
X238775Y532174D01*
X237752Y529702D01*
X237402Y527050D01*
X237752Y524398D01*
X238775Y521926D01*
X240404Y519804D01*
X242526Y518175D01*
X244998Y517151D01*
X247650Y516802D01*
X250302Y517151D01*
X252774Y518175D01*
X254896Y519804D01*
X255471Y520552D01*
X256741Y520121D01*
Y508579D01*
X255471Y508148D01*
X254896Y508896D01*
X252774Y510525D01*
X250302Y511549D01*
X247650Y511898D01*
X244998Y511549D01*
X242526Y510525D01*
X240404Y508896D01*
X238775Y506774D01*
X237752Y504302D01*
X237402Y501650D01*
X237752Y498998D01*
X238775Y496526D01*
X240404Y494404D01*
X242526Y492775D01*
X244998Y491752D01*
X247650Y491402D01*
X250302Y491752D01*
X252774Y492775D01*
X254896Y494404D01*
X255471Y495152D01*
X256741Y494721D01*
Y443230D01*
X257015Y441849D01*
X257798Y440678D01*
X266688Y431788D01*
X267859Y431005D01*
X269240Y430731D01*
X547370D01*
X548751Y431005D01*
X549922Y431788D01*
X555002Y436868D01*
X555785Y438039D01*
X555807Y438150D01*
X563490D01*
X564481Y438347D01*
X565321Y438909D01*
X565883Y439749D01*
X566080Y440740D01*
Y454211D01*
X584285D01*
X592268Y446228D01*
X593439Y445445D01*
X594820Y445171D01*
X640420D01*
Y440690D01*
X640617Y439699D01*
X641179Y438859D01*
X642019Y438297D01*
X643010Y438100D01*
X701241D01*
Y434150D01*
X701515Y432769D01*
X702298Y431598D01*
X705918Y427978D01*
X707089Y427195D01*
X708470Y426921D01*
X770890D01*
X772271Y427195D01*
X773442Y427978D01*
X782332Y436868D01*
X783115Y438039D01*
X783389Y439420D01*
Y470514D01*
X784659Y470832D01*
X785759Y468775D01*
X788854Y465004D01*
X792625Y461909D01*
X796927Y459609D01*
X801595Y458193D01*
X806450Y457715D01*
X811305Y458193D01*
X815973Y459609D01*
X820275Y461909D01*
X824046Y465004D01*
X827141Y468775D01*
X827821Y470046D01*
X829053Y469738D01*
Y338543D01*
X820097Y329587D01*
X779101D01*
X778956Y329776D01*
X776594Y331589D01*
X773842Y332729D01*
X770890Y333118D01*
X767937Y332729D01*
X765186Y331589D01*
X762824Y329776D01*
X761011Y327414D01*
X759871Y324663D01*
X759482Y321710D01*
X759871Y318757D01*
X761011Y316006D01*
X762824Y313644D01*
X765186Y311831D01*
X767937Y310691D01*
X770890Y310302D01*
X773842Y310691D01*
X776594Y311831D01*
X778956Y313644D01*
X779101Y313833D01*
X823360D01*
X825399Y314101D01*
X827299Y314888D01*
X828930Y316140D01*
X842500Y329710D01*
X843752Y331341D01*
X844539Y333241D01*
X844807Y335280D01*
Y591820D01*
X844539Y593859D01*
X843752Y595759D01*
X842500Y597390D01*
X812020Y627870D01*
X810389Y629122D01*
X808489Y629909D01*
X806450Y630177D01*
X725761D01*
X725616Y630366D01*
X723254Y632179D01*
X720502Y633319D01*
X717550Y633708D01*
X714597Y633319D01*
X711846Y632179D01*
X709484Y630366D01*
X707671Y628004D01*
X706531Y625252D01*
X706142Y622300D01*
X706531Y619347D01*
X707671Y616596D01*
X709295Y614479D01*
X708911Y613209D01*
X698882D01*
X698450Y614479D01*
X699311Y615139D01*
X700920Y617237D01*
X701932Y619679D01*
X702277Y622300D01*
X701932Y624921D01*
X700920Y627363D01*
X699311Y629461D01*
X697213Y631070D01*
X694771Y632082D01*
X692150Y632427D01*
X689529Y632082D01*
X687087Y631070D01*
X684989Y629461D01*
X683380Y627363D01*
X682368Y624921D01*
X682023Y622300D01*
X682368Y619679D01*
X683380Y617237D01*
X684989Y615139D01*
X685850Y614479D01*
X685418Y613209D01*
X673482D01*
X673050Y614479D01*
X673911Y615139D01*
X675520Y617237D01*
X676532Y619679D01*
X676877Y622300D01*
X676532Y624921D01*
X675520Y627363D01*
X673911Y629461D01*
X671813Y631070D01*
X669371Y632082D01*
X666750Y632427D01*
X664129Y632082D01*
X661687Y631070D01*
X659589Y629461D01*
X657980Y627363D01*
X656968Y624921D01*
X656623Y622300D01*
X656968Y619679D01*
X657980Y617237D01*
X659589Y615139D01*
X660450Y614479D01*
X660018Y613209D01*
X648082D01*
X647650Y614479D01*
X648511Y615139D01*
X650120Y617237D01*
X651132Y619679D01*
X651477Y622300D01*
X651132Y624921D01*
X650120Y627363D01*
X648511Y629461D01*
X646413Y631070D01*
X643971Y632082D01*
X641350Y632427D01*
X638729Y632082D01*
X636287Y631070D01*
X634189Y629461D01*
X632580Y627363D01*
X631568Y624921D01*
X631223Y622300D01*
X631568Y619679D01*
X632580Y617237D01*
X634189Y615139D01*
X635050Y614479D01*
X634618Y613209D01*
X622682D01*
X622250Y614479D01*
X623111Y615139D01*
X624720Y617237D01*
X625732Y619679D01*
X626077Y622300D01*
X625732Y624921D01*
X624720Y627363D01*
X623111Y629461D01*
X621013Y631070D01*
X618571Y632082D01*
X615950Y632427D01*
X613329Y632082D01*
X610887Y631070D01*
X608789Y629461D01*
X607180Y627363D01*
X606168Y624921D01*
X605823Y622300D01*
X606168Y619679D01*
X607180Y617237D01*
X608789Y615139D01*
X609650Y614479D01*
X609218Y613209D01*
X597281D01*
X596850Y614479D01*
X597711Y615139D01*
X599320Y617237D01*
X600332Y619679D01*
X600677Y622300D01*
X600332Y624921D01*
X599320Y627363D01*
X597711Y629461D01*
X595613Y631070D01*
X593171Y632082D01*
X590550Y632427D01*
X587929Y632082D01*
X585487Y631070D01*
X583389Y629461D01*
X581780Y627363D01*
X580768Y624921D01*
X580423Y622300D01*
X580768Y619679D01*
X581780Y617237D01*
X583389Y615139D01*
X584250Y614479D01*
X583819Y613209D01*
X571881D01*
X571450Y614479D01*
X572311Y615139D01*
X573920Y617237D01*
X574932Y619679D01*
X575277Y622300D01*
X574932Y624921D01*
X573920Y627363D01*
X572311Y629461D01*
X570213Y631070D01*
X567771Y632082D01*
X565150Y632427D01*
X562529Y632082D01*
X560087Y631070D01*
X557989Y629461D01*
X556380Y627363D01*
X555368Y624921D01*
X555023Y622300D01*
X555368Y619679D01*
X556380Y617237D01*
X557989Y615139D01*
X558850Y614479D01*
X558419Y613209D01*
X553945D01*
X548929Y618225D01*
X549532Y619679D01*
X549877Y622300D01*
X549532Y624921D01*
X548520Y627363D01*
X546911Y629461D01*
X544813Y631070D01*
X542371Y632082D01*
X539750Y632427D01*
X537129Y632082D01*
X534687Y631070D01*
X532589Y629461D01*
X530980Y627363D01*
X529968Y624921D01*
X529623Y622300D01*
X529968Y619679D01*
X530980Y617237D01*
X532589Y615139D01*
X534687Y613530D01*
X537129Y612518D01*
X539750Y612173D01*
X542371Y612518D01*
X543825Y613121D01*
X547643Y609303D01*
X547157Y608129D01*
X533625D01*
X523529Y618225D01*
X524132Y619679D01*
X524477Y622300D01*
X524132Y624921D01*
X523120Y627363D01*
X521511Y629461D01*
X519413Y631070D01*
X516971Y632082D01*
X514350Y632427D01*
X511729Y632082D01*
X509287Y631070D01*
X507189Y629461D01*
X505580Y627363D01*
X504568Y624921D01*
X504223Y622300D01*
X504568Y619679D01*
X505580Y617237D01*
X507189Y615139D01*
X509287Y613530D01*
X511729Y612518D01*
X514350Y612173D01*
X516971Y612518D01*
X518425Y613121D01*
X526783Y604763D01*
X526297Y603589D01*
X512765D01*
X498129Y618225D01*
X498732Y619679D01*
X499077Y622300D01*
X498732Y624921D01*
X497720Y627363D01*
X496111Y629461D01*
X494013Y631070D01*
X491571Y632082D01*
X488950Y632427D01*
X486329Y632082D01*
X483887Y631070D01*
X481789Y629461D01*
X480180Y627363D01*
X479168Y624921D01*
X478823Y622300D01*
X479168Y619679D01*
X480180Y617237D01*
X481789Y615139D01*
X483887Y613530D01*
X486329Y612518D01*
X488950Y612173D01*
X491571Y612518D01*
X493025Y613121D01*
X508718Y597428D01*
X509808Y596699D01*
X509821Y596606D01*
X509117Y595429D01*
X443455D01*
X441759Y597125D01*
Y612928D01*
X443213Y613530D01*
X445311Y615139D01*
X446697Y616945D01*
X447743Y617078D01*
X448193Y616992D01*
X448298Y616835D01*
X459355Y605778D01*
X460526Y604995D01*
X461907Y604721D01*
X467044D01*
X467124Y604528D01*
X468332Y602952D01*
X469907Y601744D01*
X471742Y600984D01*
X473710Y600725D01*
X475678Y600984D01*
X477513Y601744D01*
X479088Y602952D01*
X480296Y604528D01*
X481056Y606362D01*
X481315Y608330D01*
X481056Y610298D01*
X480296Y612132D01*
X479088Y613708D01*
X477513Y614916D01*
X475678Y615676D01*
X473710Y615935D01*
X472833Y615820D01*
X472146Y617010D01*
X472320Y617237D01*
X473332Y619679D01*
X473509Y621030D01*
X463550D01*
Y622300D01*
X462280D01*
Y632259D01*
X460929Y632082D01*
X458487Y631070D01*
X456389Y629461D01*
X455729Y628600D01*
X454459Y629031D01*
Y635000D01*
X454185Y636381D01*
X453402Y637552D01*
X447329Y643625D01*
X447932Y645079D01*
X448277Y647700D01*
X447932Y650321D01*
X446920Y652763D01*
X445311Y654861D01*
X443213Y656470D01*
X440771Y657482D01*
X438150Y657827D01*
X435529Y657482D01*
X433087Y656470D01*
X431989Y655628D01*
X430719Y656254D01*
Y662550D01*
X430445Y663931D01*
X429662Y665102D01*
X424192Y670572D01*
X423021Y671355D01*
X421640Y671629D01*
D02*
G37*
G36*
X541020Y657659D02*
Y648970D01*
X549709D01*
X549532Y650321D01*
X548520Y652763D01*
X546911Y654861D01*
X544813Y656470D01*
X542371Y657482D01*
X541020Y657659D01*
D02*
G37*
G36*
X538480D02*
X537129Y657482D01*
X534687Y656470D01*
X532589Y654861D01*
X530980Y652763D01*
X529968Y650321D01*
X529791Y648970D01*
X538480D01*
Y657659D01*
D02*
G37*
G36*
X549709Y646430D02*
X541020D01*
Y637741D01*
X542371Y637918D01*
X544813Y638930D01*
X546911Y640539D01*
X548520Y642637D01*
X549532Y645079D01*
X549709Y646430D01*
D02*
G37*
G36*
X538480D02*
X529791D01*
X529968Y645079D01*
X530980Y642637D01*
X532589Y640539D01*
X534687Y638930D01*
X537129Y637918D01*
X538480Y637741D01*
Y646430D01*
D02*
G37*
G36*
X717550Y657827D02*
X714929Y657482D01*
X712487Y656470D01*
X710389Y654861D01*
X708780Y652763D01*
X707768Y650321D01*
X707423Y647700D01*
X707768Y645079D01*
X708780Y642637D01*
X710389Y640539D01*
X712487Y638930D01*
X714929Y637918D01*
X717550Y637573D01*
X720171Y637918D01*
X722613Y638930D01*
X724711Y640539D01*
X726320Y642637D01*
X727332Y645079D01*
X727677Y647700D01*
X727332Y650321D01*
X726320Y652763D01*
X724711Y654861D01*
X722613Y656470D01*
X720171Y657482D01*
X717550Y657827D01*
D02*
G37*
G36*
X692150D02*
X689529Y657482D01*
X687087Y656470D01*
X684989Y654861D01*
X683380Y652763D01*
X682368Y650321D01*
X682023Y647700D01*
X682368Y645079D01*
X683380Y642637D01*
X684989Y640539D01*
X687087Y638930D01*
X689529Y637918D01*
X692150Y637573D01*
X694771Y637918D01*
X697213Y638930D01*
X699311Y640539D01*
X700920Y642637D01*
X701932Y645079D01*
X702277Y647700D01*
X701932Y650321D01*
X700920Y652763D01*
X699311Y654861D01*
X697213Y656470D01*
X694771Y657482D01*
X692150Y657827D01*
D02*
G37*
G36*
X666750D02*
X664129Y657482D01*
X661687Y656470D01*
X659589Y654861D01*
X657980Y652763D01*
X656968Y650321D01*
X656623Y647700D01*
X656968Y645079D01*
X657980Y642637D01*
X659589Y640539D01*
X661687Y638930D01*
X664129Y637918D01*
X666750Y637573D01*
X669371Y637918D01*
X671813Y638930D01*
X673911Y640539D01*
X675520Y642637D01*
X676532Y645079D01*
X676877Y647700D01*
X676532Y650321D01*
X675520Y652763D01*
X673911Y654861D01*
X671813Y656470D01*
X669371Y657482D01*
X666750Y657827D01*
D02*
G37*
G36*
X641350D02*
X638729Y657482D01*
X636287Y656470D01*
X634189Y654861D01*
X632580Y652763D01*
X631568Y650321D01*
X631223Y647700D01*
X631568Y645079D01*
X632580Y642637D01*
X634189Y640539D01*
X636287Y638930D01*
X638729Y637918D01*
X641350Y637573D01*
X643971Y637918D01*
X646413Y638930D01*
X648511Y640539D01*
X650120Y642637D01*
X651132Y645079D01*
X651477Y647700D01*
X651132Y650321D01*
X650120Y652763D01*
X648511Y654861D01*
X646413Y656470D01*
X643971Y657482D01*
X641350Y657827D01*
D02*
G37*
G36*
X615950D02*
X613329Y657482D01*
X610887Y656470D01*
X608789Y654861D01*
X607180Y652763D01*
X606168Y650321D01*
X605823Y647700D01*
X606168Y645079D01*
X607180Y642637D01*
X608789Y640539D01*
X610887Y638930D01*
X613329Y637918D01*
X615950Y637573D01*
X618571Y637918D01*
X621013Y638930D01*
X623111Y640539D01*
X624720Y642637D01*
X625732Y645079D01*
X626077Y647700D01*
X625732Y650321D01*
X624720Y652763D01*
X623111Y654861D01*
X621013Y656470D01*
X618571Y657482D01*
X615950Y657827D01*
D02*
G37*
G36*
X590550D02*
X587929Y657482D01*
X585487Y656470D01*
X583389Y654861D01*
X581780Y652763D01*
X580768Y650321D01*
X580423Y647700D01*
X580768Y645079D01*
X581780Y642637D01*
X583389Y640539D01*
X585487Y638930D01*
X587929Y637918D01*
X590550Y637573D01*
X593171Y637918D01*
X595613Y638930D01*
X597711Y640539D01*
X599320Y642637D01*
X600332Y645079D01*
X600677Y647700D01*
X600332Y650321D01*
X599320Y652763D01*
X597711Y654861D01*
X595613Y656470D01*
X593171Y657482D01*
X590550Y657827D01*
D02*
G37*
G36*
X565150D02*
X562529Y657482D01*
X560087Y656470D01*
X557989Y654861D01*
X556380Y652763D01*
X555368Y650321D01*
X555023Y647700D01*
X555368Y645079D01*
X556380Y642637D01*
X557989Y640539D01*
X560087Y638930D01*
X562529Y637918D01*
X565150Y637573D01*
X567771Y637918D01*
X570213Y638930D01*
X572311Y640539D01*
X573920Y642637D01*
X574932Y645079D01*
X575277Y647700D01*
X574932Y650321D01*
X573920Y652763D01*
X572311Y654861D01*
X570213Y656470D01*
X567771Y657482D01*
X565150Y657827D01*
D02*
G37*
G36*
X514350D02*
X511729Y657482D01*
X509287Y656470D01*
X507189Y654861D01*
X505580Y652763D01*
X504568Y650321D01*
X504223Y647700D01*
X504568Y645079D01*
X505580Y642637D01*
X507189Y640539D01*
X509287Y638930D01*
X511729Y637918D01*
X514350Y637573D01*
X516971Y637918D01*
X519413Y638930D01*
X521511Y640539D01*
X523120Y642637D01*
X524132Y645079D01*
X524477Y647700D01*
X524132Y650321D01*
X523120Y652763D01*
X521511Y654861D01*
X519413Y656470D01*
X516971Y657482D01*
X514350Y657827D01*
D02*
G37*
G36*
X488950D02*
X486329Y657482D01*
X483887Y656470D01*
X481789Y654861D01*
X480180Y652763D01*
X479168Y650321D01*
X478823Y647700D01*
X479168Y645079D01*
X480180Y642637D01*
X481789Y640539D01*
X483887Y638930D01*
X486329Y637918D01*
X488950Y637573D01*
X491571Y637918D01*
X494013Y638930D01*
X496111Y640539D01*
X497720Y642637D01*
X498732Y645079D01*
X499077Y647700D01*
X498732Y650321D01*
X497720Y652763D01*
X496111Y654861D01*
X494013Y656470D01*
X491571Y657482D01*
X488950Y657827D01*
D02*
G37*
G36*
X463550D02*
X460929Y657482D01*
X458487Y656470D01*
X456389Y654861D01*
X454780Y652763D01*
X453768Y650321D01*
X453423Y647700D01*
X453768Y645079D01*
X454780Y642637D01*
X456389Y640539D01*
X458487Y638930D01*
X460929Y637918D01*
X463550Y637573D01*
X466171Y637918D01*
X468613Y638930D01*
X470711Y640539D01*
X472320Y642637D01*
X473332Y645079D01*
X473677Y647700D01*
X473332Y650321D01*
X472320Y652763D01*
X470711Y654861D01*
X468613Y656470D01*
X466171Y657482D01*
X463550Y657827D01*
D02*
G37*
G36*
X311150D02*
X308529Y657482D01*
X306087Y656470D01*
X303989Y654861D01*
X302380Y652763D01*
X301368Y650321D01*
X301023Y647700D01*
X301368Y645079D01*
X302380Y642637D01*
X303989Y640539D01*
X306087Y638930D01*
X308529Y637918D01*
X311150Y637573D01*
X313771Y637918D01*
X316213Y638930D01*
X318311Y640539D01*
X319920Y642637D01*
X320932Y645079D01*
X321277Y647700D01*
X320932Y650321D01*
X319920Y652763D01*
X318311Y654861D01*
X316213Y656470D01*
X313771Y657482D01*
X311150Y657827D01*
D02*
G37*
G36*
X285750D02*
X283129Y657482D01*
X280687Y656470D01*
X278589Y654861D01*
X276980Y652763D01*
X275968Y650321D01*
X275623Y647700D01*
X275968Y645079D01*
X276980Y642637D01*
X278589Y640539D01*
X280687Y638930D01*
X283129Y637918D01*
X285750Y637573D01*
X288371Y637918D01*
X290813Y638930D01*
X292911Y640539D01*
X294520Y642637D01*
X295532Y645079D01*
X295877Y647700D01*
X295532Y650321D01*
X294520Y652763D01*
X292911Y654861D01*
X290813Y656470D01*
X288371Y657482D01*
X285750Y657827D01*
D02*
G37*
G36*
X464820Y632259D02*
Y623570D01*
X473509D01*
X473332Y624921D01*
X472320Y627363D01*
X470711Y629461D01*
X468613Y631070D01*
X466171Y632082D01*
X464820Y632259D01*
D02*
G37*
G36*
X287020D02*
Y623570D01*
X295709D01*
X295532Y624921D01*
X294520Y627363D01*
X292911Y629461D01*
X290813Y631070D01*
X288371Y632082D01*
X287020Y632259D01*
D02*
G37*
G36*
X244990Y632340D02*
X236220D01*
Y623570D01*
X244990D01*
Y632340D01*
D02*
G37*
G36*
X233680D02*
X224910D01*
Y623570D01*
X233680D01*
Y632340D01*
D02*
G37*
G36*
X295709Y621030D02*
X287020D01*
Y612341D01*
X288371Y612518D01*
X290813Y613530D01*
X292911Y615139D01*
X294520Y617237D01*
X295532Y619679D01*
X295709Y621030D01*
D02*
G37*
G36*
X244990D02*
X236220D01*
Y612260D01*
X244990D01*
Y621030D01*
D02*
G37*
G36*
X233680D02*
X224910D01*
Y612260D01*
X233680D01*
Y621030D01*
D02*
G37*
G36*
X311150Y632427D02*
X308529Y632082D01*
X306087Y631070D01*
X303989Y629461D01*
X302380Y627363D01*
X301368Y624921D01*
X301023Y622300D01*
X301368Y619679D01*
X302380Y617237D01*
X303989Y615139D01*
X306087Y613530D01*
X308529Y612518D01*
X311150Y612173D01*
X313771Y612518D01*
X316213Y613530D01*
X318311Y615139D01*
X319920Y617237D01*
X320932Y619679D01*
X321277Y622300D01*
X320932Y624921D01*
X319920Y627363D01*
X318311Y629461D01*
X316213Y631070D01*
X313771Y632082D01*
X311150Y632427D01*
D02*
G37*
G36*
X347980Y595448D02*
X347282Y595356D01*
X345448Y594596D01*
X343872Y593388D01*
X342664Y591813D01*
X341904Y589978D01*
X341812Y589280D01*
X347980D01*
Y595448D01*
D02*
G37*
G36*
X356688Y586740D02*
X350520D01*
Y580572D01*
X351218Y580664D01*
X353052Y581424D01*
X354628Y582632D01*
X355836Y584207D01*
X356596Y586042D01*
X356688Y586740D01*
D02*
G37*
G36*
X347980D02*
X341812D01*
X341904Y586042D01*
X342664Y584207D01*
X343872Y582632D01*
X345448Y581424D01*
X347282Y580664D01*
X347980Y580572D01*
Y586740D01*
D02*
G37*
G36*
X198120Y537131D02*
Y528320D01*
X206931D01*
X206749Y529702D01*
X205725Y532174D01*
X204096Y534296D01*
X201974Y535925D01*
X199502Y536949D01*
X198120Y537131D01*
D02*
G37*
G36*
X195580D02*
X194198Y536949D01*
X191726Y535925D01*
X189604Y534296D01*
X187975Y532174D01*
X186952Y529702D01*
X186770Y528320D01*
X195580D01*
Y537131D01*
D02*
G37*
G36*
X206931Y525780D02*
X198120D01*
Y516969D01*
X199502Y517151D01*
X201974Y518175D01*
X204096Y519804D01*
X205725Y521926D01*
X206749Y524398D01*
X206931Y525780D01*
D02*
G37*
G36*
X195580D02*
X186770D01*
X186952Y524398D01*
X187975Y521926D01*
X189604Y519804D01*
X191726Y518175D01*
X194198Y517151D01*
X195580Y516969D01*
Y525780D01*
D02*
G37*
G36*
X323850Y537298D02*
X321198Y536949D01*
X318726Y535925D01*
X316604Y534296D01*
X314975Y532174D01*
X313951Y529702D01*
X313602Y527050D01*
X313951Y524398D01*
X314975Y521926D01*
X316604Y519804D01*
X318726Y518175D01*
X321198Y517151D01*
X323850Y516802D01*
X326502Y517151D01*
X328974Y518175D01*
X331096Y519804D01*
X332725Y521926D01*
X333749Y524398D01*
X334098Y527050D01*
X333749Y529702D01*
X332725Y532174D01*
X331096Y534296D01*
X328974Y535925D01*
X326502Y536949D01*
X323850Y537298D01*
D02*
G37*
G36*
X222250D02*
X219598Y536949D01*
X217126Y535925D01*
X215004Y534296D01*
X213375Y532174D01*
X212351Y529702D01*
X212002Y527050D01*
X212351Y524398D01*
X213375Y521926D01*
X215004Y519804D01*
X217126Y518175D01*
X219598Y517151D01*
X222250Y516802D01*
X224902Y517151D01*
X227374Y518175D01*
X229496Y519804D01*
X231125Y521926D01*
X232148Y524398D01*
X232498Y527050D01*
X232148Y529702D01*
X231125Y532174D01*
X229496Y534296D01*
X227374Y535925D01*
X224902Y536949D01*
X222250Y537298D01*
D02*
G37*
G36*
X207010Y511810D02*
X198120D01*
Y502920D01*
X207010D01*
Y511810D01*
D02*
G37*
G36*
X195580D02*
X186690D01*
Y502920D01*
X195580D01*
Y511810D01*
D02*
G37*
G36*
X207010Y500380D02*
X198120D01*
Y491490D01*
X207010D01*
Y500380D01*
D02*
G37*
G36*
X195580D02*
X186690D01*
Y491490D01*
X195580D01*
Y500380D01*
D02*
G37*
G36*
X323850Y511898D02*
X321198Y511549D01*
X318726Y510525D01*
X316604Y508896D01*
X314975Y506774D01*
X313951Y504302D01*
X313602Y501650D01*
X313951Y498998D01*
X314975Y496526D01*
X316604Y494404D01*
X318726Y492775D01*
X321198Y491752D01*
X323850Y491402D01*
X326502Y491752D01*
X328974Y492775D01*
X331096Y494404D01*
X332725Y496526D01*
X333749Y498998D01*
X334098Y501650D01*
X333749Y504302D01*
X332725Y506774D01*
X331096Y508896D01*
X328974Y510525D01*
X326502Y511549D01*
X323850Y511898D01*
D02*
G37*
G36*
X222250D02*
X219598Y511549D01*
X217126Y510525D01*
X215004Y508896D01*
X213375Y506774D01*
X212351Y504302D01*
X212002Y501650D01*
X212351Y498998D01*
X213375Y496526D01*
X215004Y494404D01*
X217126Y492775D01*
X219598Y491752D01*
X222250Y491402D01*
X224902Y491752D01*
X227374Y492775D01*
X229496Y494404D01*
X231125Y496526D01*
X232148Y498998D01*
X232498Y501650D01*
X232148Y504302D01*
X231125Y506774D01*
X229496Y508896D01*
X227374Y510525D01*
X224902Y511549D01*
X222250Y511898D01*
D02*
G37*
G36*
X146050Y539235D02*
X141195Y538757D01*
X136527Y537341D01*
X132225Y535041D01*
X128454Y531946D01*
X125359Y528175D01*
X123059Y523873D01*
X121643Y519205D01*
X121165Y514350D01*
X121643Y509495D01*
X123059Y504827D01*
X125359Y500525D01*
X128454Y496754D01*
X132225Y493659D01*
X136527Y491359D01*
X141195Y489943D01*
X146050Y489465D01*
X150905Y489943D01*
X155573Y491359D01*
X159875Y493659D01*
X163646Y496754D01*
X166741Y500525D01*
X169041Y504827D01*
X170457Y509495D01*
X170935Y514350D01*
X170457Y519205D01*
X169041Y523873D01*
X166741Y528175D01*
X163646Y531946D01*
X159875Y535041D01*
X155573Y537341D01*
X150905Y538757D01*
X146050Y539235D01*
D02*
G37*
G36*
X772795Y406586D02*
Y398615D01*
X780766D01*
X780672Y399331D01*
X779660Y401773D01*
X778051Y403871D01*
X775953Y405480D01*
X773511Y406492D01*
X772795Y406586D01*
D02*
G37*
G36*
X768985D02*
X768269Y406492D01*
X765827Y405480D01*
X763729Y403871D01*
X762120Y401773D01*
X761108Y399331D01*
X761014Y398615D01*
X768985D01*
Y406586D01*
D02*
G37*
G36*
X780766Y394805D02*
X772795D01*
Y386834D01*
X773511Y386928D01*
X775953Y387940D01*
X778051Y389549D01*
X779660Y391647D01*
X780672Y394089D01*
X780766Y394805D01*
D02*
G37*
G36*
X768985D02*
X761014D01*
X761108Y394089D01*
X762120Y391647D01*
X763729Y389549D01*
X765827Y387940D01*
X768269Y386928D01*
X768985Y386834D01*
Y394805D01*
D02*
G37*
G36*
X742560Y382270D02*
X720480D01*
X719489Y382073D01*
X718649Y381511D01*
X718087Y380671D01*
X717890Y379680D01*
Y366917D01*
X595063D01*
X593329Y366572D01*
X591858Y365590D01*
X591858Y365590D01*
X466060Y239792D01*
X465078Y238321D01*
X464733Y236587D01*
Y235264D01*
X463463Y234415D01*
X462127Y234969D01*
X459740Y235283D01*
X457353Y234969D01*
X455129Y234047D01*
X453218Y232582D01*
X451753Y230671D01*
X450831Y228447D01*
X450517Y226060D01*
X450831Y223673D01*
X451753Y221449D01*
X453218Y219538D01*
X455129Y218073D01*
X457353Y217151D01*
X459740Y216837D01*
X462127Y217151D01*
X464351Y218073D01*
X466262Y219538D01*
X467727Y221449D01*
X468649Y223673D01*
X468705Y224104D01*
X469528Y224654D01*
X472440Y227566D01*
X475352Y224654D01*
X475353Y224654D01*
X476175Y224104D01*
X476231Y223673D01*
X477153Y221449D01*
X478618Y219538D01*
X480529Y218073D01*
X482753Y217151D01*
X485140Y216837D01*
X487527Y217151D01*
X489751Y218073D01*
X491662Y219538D01*
X493127Y221449D01*
X494049Y223673D01*
X494363Y226060D01*
X494049Y228447D01*
X493127Y230671D01*
X491662Y232582D01*
X489751Y234047D01*
X487527Y234969D01*
X485140Y235283D01*
X485038Y235269D01*
X484476Y236409D01*
X599571Y351503D01*
X717890D01*
Y336600D01*
X718087Y335609D01*
X718649Y334769D01*
X719489Y334207D01*
X720480Y334010D01*
X742560D01*
X743551Y334207D01*
X744391Y334769D01*
X744953Y335609D01*
X745150Y336600D01*
Y351503D01*
X759688D01*
X761329Y349862D01*
X761108Y349331D01*
X760763Y346710D01*
X761108Y344089D01*
X762120Y341647D01*
X763729Y339549D01*
X765827Y337940D01*
X768269Y336928D01*
X770890Y336583D01*
X773511Y336928D01*
X775953Y337940D01*
X778051Y339549D01*
X779660Y341647D01*
X780672Y344089D01*
X781017Y346710D01*
X780672Y349331D01*
X779660Y351773D01*
X778051Y353871D01*
X775953Y355480D01*
X773511Y356492D01*
X770890Y356837D01*
X768269Y356492D01*
X767738Y356272D01*
X764799Y359210D01*
X767738Y362149D01*
X768269Y361928D01*
X770890Y361583D01*
X773511Y361928D01*
X775953Y362940D01*
X778051Y364549D01*
X779660Y366647D01*
X780672Y369089D01*
X781017Y371710D01*
X780672Y374331D01*
X779660Y376773D01*
X778051Y378871D01*
X775953Y380480D01*
X773511Y381492D01*
X770890Y381837D01*
X768269Y381492D01*
X765827Y380480D01*
X763729Y378871D01*
X762120Y376773D01*
X761108Y374331D01*
X760763Y371710D01*
X761108Y369089D01*
X761329Y368558D01*
X759688Y366917D01*
X745150D01*
Y379680D01*
X744953Y380671D01*
X744391Y381511D01*
X743551Y382073D01*
X742560Y382270D01*
D02*
G37*
G36*
X770890Y308118D02*
X767937Y307729D01*
X765186Y306589D01*
X762824Y304776D01*
X761011Y302414D01*
X759871Y299662D01*
X759482Y296710D01*
X759871Y293757D01*
X761011Y291006D01*
X762824Y288644D01*
X765186Y286831D01*
X767937Y285691D01*
X770890Y285302D01*
X773842Y285691D01*
X776594Y286831D01*
X778956Y288644D01*
X780769Y291006D01*
X781909Y293757D01*
X782298Y296710D01*
X781909Y299662D01*
X780769Y302414D01*
X778956Y304776D01*
X776594Y306589D01*
X773842Y307729D01*
X770890Y308118D01*
D02*
G37*
G36*
X511810Y235116D02*
Y227330D01*
X519596D01*
X519449Y228447D01*
X518527Y230671D01*
X517062Y232582D01*
X515151Y234047D01*
X512927Y234969D01*
X511810Y235116D01*
D02*
G37*
G36*
X509270D02*
X508153Y234969D01*
X505929Y234047D01*
X504018Y232582D01*
X502553Y230671D01*
X501631Y228447D01*
X501484Y227330D01*
X509270D01*
Y235116D01*
D02*
G37*
G36*
X519596Y224790D02*
X511810D01*
Y217004D01*
X512927Y217151D01*
X515151Y218073D01*
X517062Y219538D01*
X518527Y221449D01*
X519449Y223673D01*
X519596Y224790D01*
D02*
G37*
G36*
X509270D02*
X501484D01*
X501631Y223673D01*
X502553Y221449D01*
X504018Y219538D01*
X505929Y218073D01*
X508153Y217151D01*
X509270Y217004D01*
Y224790D01*
D02*
G37*
G36*
X434340Y236564D02*
X431621Y236206D01*
X429088Y235157D01*
X426913Y233487D01*
X425243Y231312D01*
X424194Y228779D01*
X423836Y226060D01*
X424194Y223341D01*
X425243Y220808D01*
X426463Y219219D01*
Y198120D01*
X426731Y196081D01*
X427518Y194181D01*
X428770Y192550D01*
X445280Y176040D01*
X446911Y174788D01*
X448811Y174001D01*
X450850Y173733D01*
X790670D01*
X791386Y172393D01*
X793449Y169879D01*
X795963Y167816D01*
X798831Y166283D01*
X801944Y165339D01*
X805180Y165020D01*
X808417Y165339D01*
X811529Y166283D01*
X814397Y167816D01*
X816911Y169879D01*
X818974Y172393D01*
X820507Y175261D01*
X821451Y178374D01*
X821770Y181610D01*
X821451Y184846D01*
X820507Y187959D01*
X818974Y190827D01*
X816911Y193341D01*
X814397Y195404D01*
X811529Y196937D01*
X808417Y197881D01*
X805180Y198200D01*
X801944Y197881D01*
X798831Y196937D01*
X795963Y195404D01*
X793449Y193341D01*
X791386Y190827D01*
X790670Y189487D01*
X454113D01*
X442217Y201383D01*
Y219219D01*
X443437Y220808D01*
X444486Y223341D01*
X444844Y226060D01*
X444486Y228779D01*
X443437Y231312D01*
X441767Y233487D01*
X439592Y235157D01*
X437059Y236206D01*
X434340Y236564D01*
D02*
G37*
G36*
X443484Y159004D02*
X425196D01*
Y140716D01*
X443484D01*
Y159004D01*
D02*
G37*
G36*
X510540Y159083D02*
X508153Y158769D01*
X505929Y157847D01*
X504018Y156382D01*
X502553Y154471D01*
X501631Y152247D01*
X501317Y149860D01*
X501631Y147473D01*
X502553Y145249D01*
X504018Y143338D01*
X505929Y141873D01*
X508153Y140951D01*
X510540Y140637D01*
X512927Y140951D01*
X515151Y141873D01*
X517062Y143338D01*
X518527Y145249D01*
X519449Y147473D01*
X519763Y149860D01*
X519449Y152247D01*
X518527Y154471D01*
X517062Y156382D01*
X515151Y157847D01*
X512927Y158769D01*
X510540Y159083D01*
D02*
G37*
G36*
X485140D02*
X482753Y158769D01*
X480529Y157847D01*
X478618Y156382D01*
X477153Y154471D01*
X476231Y152247D01*
X475917Y149860D01*
X476231Y147473D01*
X477153Y145249D01*
X478618Y143338D01*
X480529Y141873D01*
X482753Y140951D01*
X485140Y140637D01*
X487527Y140951D01*
X489751Y141873D01*
X491662Y143338D01*
X493127Y145249D01*
X494049Y147473D01*
X494363Y149860D01*
X494049Y152247D01*
X493127Y154471D01*
X491662Y156382D01*
X489751Y157847D01*
X487527Y158769D01*
X485140Y159083D01*
D02*
G37*
G36*
X459740D02*
X457353Y158769D01*
X455129Y157847D01*
X453218Y156382D01*
X451753Y154471D01*
X450831Y152247D01*
X450517Y149860D01*
X450831Y147473D01*
X451753Y145249D01*
X453218Y143338D01*
X455129Y141873D01*
X457353Y140951D01*
X459740Y140637D01*
X462127Y140951D01*
X464351Y141873D01*
X466262Y143338D01*
X467727Y145249D01*
X468649Y147473D01*
X468963Y149860D01*
X468649Y152247D01*
X467727Y154471D01*
X466262Y156382D01*
X464351Y157847D01*
X462127Y158769D01*
X459740Y159083D01*
D02*
G37*
G36*
X821690Y147320D02*
X788670D01*
Y114300D01*
X821690D01*
Y147320D01*
D02*
G37*
G36*
X756920Y54531D02*
Y45720D01*
X765731D01*
X765548Y47102D01*
X764525Y49574D01*
X762896Y51696D01*
X760774Y53325D01*
X758302Y54349D01*
X756920Y54531D01*
D02*
G37*
G36*
X754380D02*
X752998Y54349D01*
X750526Y53325D01*
X748404Y51696D01*
X746775Y49574D01*
X745751Y47102D01*
X745570Y45720D01*
X754380D01*
Y54531D01*
D02*
G37*
G36*
X731520D02*
Y45720D01*
X740331D01*
X740148Y47102D01*
X739125Y49574D01*
X737496Y51696D01*
X735374Y53325D01*
X732902Y54349D01*
X731520Y54531D01*
D02*
G37*
G36*
X728980D02*
X727598Y54349D01*
X725126Y53325D01*
X723004Y51696D01*
X721375Y49574D01*
X720351Y47102D01*
X720170Y45720D01*
X728980D01*
Y54531D01*
D02*
G37*
G36*
X198120D02*
Y45720D01*
X206931D01*
X206749Y47102D01*
X205725Y49574D01*
X204096Y51696D01*
X201974Y53325D01*
X199502Y54349D01*
X198120Y54531D01*
D02*
G37*
G36*
X195580D02*
X194198Y54349D01*
X191726Y53325D01*
X189604Y51696D01*
X187975Y49574D01*
X186952Y47102D01*
X186770Y45720D01*
X195580D01*
Y54531D01*
D02*
G37*
G36*
X806450Y88385D02*
X801595Y87907D01*
X796927Y86491D01*
X792625Y84191D01*
X788854Y81096D01*
X785759Y77325D01*
X783459Y73023D01*
X782043Y68355D01*
X781565Y63500D01*
X782043Y58645D01*
X783459Y53977D01*
X785759Y49675D01*
X788854Y45904D01*
X792625Y42809D01*
X796927Y40509D01*
X801595Y39093D01*
X806450Y38615D01*
X811305Y39093D01*
X815973Y40509D01*
X820275Y42809D01*
X824046Y45904D01*
X827141Y49675D01*
X829441Y53977D01*
X830857Y58645D01*
X831335Y63500D01*
X830857Y68355D01*
X829441Y73023D01*
X827141Y77325D01*
X824046Y81096D01*
X820275Y84191D01*
X815973Y86491D01*
X811305Y87907D01*
X806450Y88385D01*
D02*
G37*
G36*
X765731Y43180D02*
X756920D01*
Y34369D01*
X758302Y34551D01*
X760774Y35575D01*
X762896Y37204D01*
X764525Y39326D01*
X765548Y41798D01*
X765731Y43180D01*
D02*
G37*
G36*
X754380D02*
X745570D01*
X745751Y41798D01*
X746775Y39326D01*
X748404Y37204D01*
X750526Y35575D01*
X752998Y34551D01*
X754380Y34369D01*
Y43180D01*
D02*
G37*
G36*
X740331D02*
X731520D01*
Y34369D01*
X732902Y34551D01*
X735374Y35575D01*
X737496Y37204D01*
X739125Y39326D01*
X740148Y41798D01*
X740331Y43180D01*
D02*
G37*
G36*
X728980D02*
X720170D01*
X720351Y41798D01*
X721375Y39326D01*
X723004Y37204D01*
X725126Y35575D01*
X727598Y34551D01*
X728980Y34369D01*
Y43180D01*
D02*
G37*
G36*
X206931D02*
X198120D01*
Y34369D01*
X199502Y34551D01*
X201974Y35575D01*
X204096Y37204D01*
X205725Y39326D01*
X206749Y41798D01*
X206931Y43180D01*
D02*
G37*
G36*
X195580D02*
X186770D01*
X186952Y41798D01*
X187975Y39326D01*
X189604Y37204D01*
X191726Y35575D01*
X194198Y34551D01*
X195580Y34369D01*
Y43180D01*
D02*
G37*
G36*
X704850Y54698D02*
X702198Y54349D01*
X699726Y53325D01*
X697604Y51696D01*
X695975Y49574D01*
X694951Y47102D01*
X694602Y44450D01*
X694951Y41798D01*
X695975Y39326D01*
X697604Y37204D01*
X699726Y35575D01*
X702198Y34551D01*
X704850Y34202D01*
X707502Y34551D01*
X709974Y35575D01*
X712096Y37204D01*
X713725Y39326D01*
X714749Y41798D01*
X715098Y44450D01*
X714749Y47102D01*
X713725Y49574D01*
X712096Y51696D01*
X709974Y53325D01*
X707502Y54349D01*
X704850Y54698D01*
D02*
G37*
G36*
X679450D02*
X676798Y54349D01*
X674326Y53325D01*
X672204Y51696D01*
X670575Y49574D01*
X669551Y47102D01*
X669202Y44450D01*
X669551Y41798D01*
X670575Y39326D01*
X672204Y37204D01*
X674326Y35575D01*
X676798Y34551D01*
X679450Y34202D01*
X682102Y34551D01*
X684574Y35575D01*
X686696Y37204D01*
X688325Y39326D01*
X689349Y41798D01*
X689698Y44450D01*
X689349Y47102D01*
X688325Y49574D01*
X686696Y51696D01*
X684574Y53325D01*
X682102Y54349D01*
X679450Y54698D01*
D02*
G37*
G36*
X654050D02*
X651398Y54349D01*
X648926Y53325D01*
X646804Y51696D01*
X645175Y49574D01*
X644152Y47102D01*
X643802Y44450D01*
X644152Y41798D01*
X645175Y39326D01*
X646804Y37204D01*
X648926Y35575D01*
X651398Y34551D01*
X654050Y34202D01*
X656702Y34551D01*
X659174Y35575D01*
X661296Y37204D01*
X662925Y39326D01*
X663949Y41798D01*
X664298Y44450D01*
X663949Y47102D01*
X662925Y49574D01*
X661296Y51696D01*
X659174Y53325D01*
X656702Y54349D01*
X654050Y54698D01*
D02*
G37*
G36*
X628650D02*
X625998Y54349D01*
X623526Y53325D01*
X621404Y51696D01*
X619775Y49574D01*
X618751Y47102D01*
X618402Y44450D01*
X618751Y41798D01*
X619775Y39326D01*
X621404Y37204D01*
X623526Y35575D01*
X625998Y34551D01*
X628650Y34202D01*
X631302Y34551D01*
X633774Y35575D01*
X635896Y37204D01*
X637525Y39326D01*
X638549Y41798D01*
X638898Y44450D01*
X638549Y47102D01*
X637525Y49574D01*
X635896Y51696D01*
X633774Y53325D01*
X631302Y54349D01*
X628650Y54698D01*
D02*
G37*
G36*
X603250D02*
X600598Y54349D01*
X598126Y53325D01*
X596004Y51696D01*
X594375Y49574D01*
X593352Y47102D01*
X593002Y44450D01*
X593352Y41798D01*
X594375Y39326D01*
X596004Y37204D01*
X598126Y35575D01*
X600598Y34551D01*
X603250Y34202D01*
X605902Y34551D01*
X608374Y35575D01*
X610496Y37204D01*
X612125Y39326D01*
X613148Y41798D01*
X613498Y44450D01*
X613148Y47102D01*
X612125Y49574D01*
X610496Y51696D01*
X608374Y53325D01*
X605902Y54349D01*
X603250Y54698D01*
D02*
G37*
G36*
X577850D02*
X575198Y54349D01*
X572726Y53325D01*
X570604Y51696D01*
X568975Y49574D01*
X567952Y47102D01*
X567602Y44450D01*
X567952Y41798D01*
X568975Y39326D01*
X570604Y37204D01*
X572726Y35575D01*
X575198Y34551D01*
X577850Y34202D01*
X580502Y34551D01*
X582974Y35575D01*
X585096Y37204D01*
X586725Y39326D01*
X587748Y41798D01*
X588098Y44450D01*
X587748Y47102D01*
X586725Y49574D01*
X585096Y51696D01*
X582974Y53325D01*
X580502Y54349D01*
X577850Y54698D01*
D02*
G37*
G36*
X552450D02*
X549798Y54349D01*
X547326Y53325D01*
X545204Y51696D01*
X543575Y49574D01*
X542551Y47102D01*
X542202Y44450D01*
X542551Y41798D01*
X543575Y39326D01*
X545204Y37204D01*
X547326Y35575D01*
X549798Y34551D01*
X552450Y34202D01*
X555102Y34551D01*
X557574Y35575D01*
X559696Y37204D01*
X561325Y39326D01*
X562349Y41798D01*
X562698Y44450D01*
X562349Y47102D01*
X561325Y49574D01*
X559696Y51696D01*
X557574Y53325D01*
X555102Y54349D01*
X552450Y54698D01*
D02*
G37*
G36*
X527050D02*
X524398Y54349D01*
X521926Y53325D01*
X519804Y51696D01*
X518175Y49574D01*
X517151Y47102D01*
X516802Y44450D01*
X517151Y41798D01*
X518175Y39326D01*
X519804Y37204D01*
X521926Y35575D01*
X524398Y34551D01*
X527050Y34202D01*
X529702Y34551D01*
X532174Y35575D01*
X534296Y37204D01*
X535925Y39326D01*
X536949Y41798D01*
X537298Y44450D01*
X536949Y47102D01*
X535925Y49574D01*
X534296Y51696D01*
X532174Y53325D01*
X529702Y54349D01*
X527050Y54698D01*
D02*
G37*
G36*
X501650D02*
X498998Y54349D01*
X496526Y53325D01*
X494404Y51696D01*
X492775Y49574D01*
X491752Y47102D01*
X491402Y44450D01*
X491752Y41798D01*
X492775Y39326D01*
X494404Y37204D01*
X496526Y35575D01*
X498998Y34551D01*
X501650Y34202D01*
X504302Y34551D01*
X506774Y35575D01*
X508896Y37204D01*
X510525Y39326D01*
X511549Y41798D01*
X511898Y44450D01*
X511549Y47102D01*
X510525Y49574D01*
X508896Y51696D01*
X506774Y53325D01*
X504302Y54349D01*
X501650Y54698D01*
D02*
G37*
G36*
X476250D02*
X473598Y54349D01*
X471126Y53325D01*
X469004Y51696D01*
X467375Y49574D01*
X466352Y47102D01*
X466002Y44450D01*
X466352Y41798D01*
X467375Y39326D01*
X469004Y37204D01*
X471126Y35575D01*
X473598Y34551D01*
X476250Y34202D01*
X478902Y34551D01*
X481374Y35575D01*
X483496Y37204D01*
X485125Y39326D01*
X486148Y41798D01*
X486498Y44450D01*
X486148Y47102D01*
X485125Y49574D01*
X483496Y51696D01*
X481374Y53325D01*
X478902Y54349D01*
X476250Y54698D01*
D02*
G37*
G36*
X450850D02*
X448198Y54349D01*
X445726Y53325D01*
X443604Y51696D01*
X441975Y49574D01*
X440951Y47102D01*
X440602Y44450D01*
X440951Y41798D01*
X441975Y39326D01*
X443604Y37204D01*
X445726Y35575D01*
X448198Y34551D01*
X450850Y34202D01*
X453502Y34551D01*
X455974Y35575D01*
X458096Y37204D01*
X459725Y39326D01*
X460748Y41798D01*
X461098Y44450D01*
X460748Y47102D01*
X459725Y49574D01*
X458096Y51696D01*
X455974Y53325D01*
X453502Y54349D01*
X450850Y54698D01*
D02*
G37*
G36*
X425450D02*
X422798Y54349D01*
X420326Y53325D01*
X418204Y51696D01*
X416575Y49574D01*
X415551Y47102D01*
X415202Y44450D01*
X415551Y41798D01*
X416575Y39326D01*
X418204Y37204D01*
X420326Y35575D01*
X422798Y34551D01*
X425450Y34202D01*
X428102Y34551D01*
X430574Y35575D01*
X432696Y37204D01*
X434325Y39326D01*
X435349Y41798D01*
X435698Y44450D01*
X435349Y47102D01*
X434325Y49574D01*
X432696Y51696D01*
X430574Y53325D01*
X428102Y54349D01*
X425450Y54698D01*
D02*
G37*
G36*
X400050D02*
X397398Y54349D01*
X394926Y53325D01*
X392804Y51696D01*
X391175Y49574D01*
X390151Y47102D01*
X389802Y44450D01*
X390151Y41798D01*
X391175Y39326D01*
X392804Y37204D01*
X394926Y35575D01*
X397398Y34551D01*
X400050Y34202D01*
X402702Y34551D01*
X405174Y35575D01*
X407296Y37204D01*
X408925Y39326D01*
X409949Y41798D01*
X410298Y44450D01*
X409949Y47102D01*
X408925Y49574D01*
X407296Y51696D01*
X405174Y53325D01*
X402702Y54349D01*
X400050Y54698D01*
D02*
G37*
G36*
X374650D02*
X371998Y54349D01*
X369526Y53325D01*
X367404Y51696D01*
X365775Y49574D01*
X364752Y47102D01*
X364402Y44450D01*
X364752Y41798D01*
X365775Y39326D01*
X367404Y37204D01*
X369526Y35575D01*
X371998Y34551D01*
X374650Y34202D01*
X377302Y34551D01*
X379774Y35575D01*
X381896Y37204D01*
X383525Y39326D01*
X384548Y41798D01*
X384898Y44450D01*
X384548Y47102D01*
X383525Y49574D01*
X381896Y51696D01*
X379774Y53325D01*
X377302Y54349D01*
X374650Y54698D01*
D02*
G37*
G36*
X349250D02*
X346598Y54349D01*
X344126Y53325D01*
X342004Y51696D01*
X340375Y49574D01*
X339352Y47102D01*
X339002Y44450D01*
X339352Y41798D01*
X340375Y39326D01*
X342004Y37204D01*
X344126Y35575D01*
X346598Y34551D01*
X349250Y34202D01*
X351902Y34551D01*
X354374Y35575D01*
X356496Y37204D01*
X358125Y39326D01*
X359148Y41798D01*
X359498Y44450D01*
X359148Y47102D01*
X358125Y49574D01*
X356496Y51696D01*
X354374Y53325D01*
X351902Y54349D01*
X349250Y54698D01*
D02*
G37*
G36*
X323850D02*
X321198Y54349D01*
X318726Y53325D01*
X316604Y51696D01*
X314975Y49574D01*
X313951Y47102D01*
X313602Y44450D01*
X313951Y41798D01*
X314975Y39326D01*
X316604Y37204D01*
X318726Y35575D01*
X321198Y34551D01*
X323850Y34202D01*
X326502Y34551D01*
X328974Y35575D01*
X331096Y37204D01*
X332725Y39326D01*
X333749Y41798D01*
X334098Y44450D01*
X333749Y47102D01*
X332725Y49574D01*
X331096Y51696D01*
X328974Y53325D01*
X326502Y54349D01*
X323850Y54698D01*
D02*
G37*
G36*
X298450D02*
X295798Y54349D01*
X293326Y53325D01*
X291204Y51696D01*
X289575Y49574D01*
X288552Y47102D01*
X288202Y44450D01*
X288552Y41798D01*
X289575Y39326D01*
X291204Y37204D01*
X293326Y35575D01*
X295798Y34551D01*
X298450Y34202D01*
X301102Y34551D01*
X303574Y35575D01*
X305696Y37204D01*
X307325Y39326D01*
X308349Y41798D01*
X308698Y44450D01*
X308349Y47102D01*
X307325Y49574D01*
X305696Y51696D01*
X303574Y53325D01*
X301102Y54349D01*
X298450Y54698D01*
D02*
G37*
G36*
X273050D02*
X270398Y54349D01*
X267926Y53325D01*
X265804Y51696D01*
X264175Y49574D01*
X263151Y47102D01*
X262802Y44450D01*
X263151Y41798D01*
X264175Y39326D01*
X265804Y37204D01*
X267926Y35575D01*
X270398Y34551D01*
X273050Y34202D01*
X275702Y34551D01*
X278174Y35575D01*
X280296Y37204D01*
X281925Y39326D01*
X282948Y41798D01*
X283298Y44450D01*
X282948Y47102D01*
X281925Y49574D01*
X280296Y51696D01*
X278174Y53325D01*
X275702Y54349D01*
X273050Y54698D01*
D02*
G37*
G36*
X222250D02*
X219598Y54349D01*
X217126Y53325D01*
X215004Y51696D01*
X213375Y49574D01*
X212351Y47102D01*
X212002Y44450D01*
X212351Y41798D01*
X213375Y39326D01*
X215004Y37204D01*
X217126Y35575D01*
X219598Y34551D01*
X222250Y34202D01*
X224902Y34551D01*
X227374Y35575D01*
X229496Y37204D01*
X231125Y39326D01*
X232148Y41798D01*
X232498Y44450D01*
X232148Y47102D01*
X231125Y49574D01*
X229496Y51696D01*
X227374Y53325D01*
X224902Y54349D01*
X222250Y54698D01*
D02*
G37*
G36*
X247650Y55979D02*
X244666Y55586D01*
X241886Y54434D01*
X239498Y52602D01*
X237666Y50214D01*
X236514Y47434D01*
X236121Y44450D01*
X236514Y41466D01*
X237666Y38686D01*
X239498Y36298D01*
X241886Y34466D01*
X244666Y33314D01*
X247650Y32921D01*
X250634Y33314D01*
X253414Y34466D01*
X255802Y36298D01*
X257634Y38686D01*
X258786Y41466D01*
X259179Y44450D01*
X258786Y47434D01*
X257634Y50214D01*
X255802Y52602D01*
X253414Y54434D01*
X250634Y55586D01*
X247650Y55979D01*
D02*
G37*
G36*
X756920Y29130D02*
Y20320D01*
X765731D01*
X765548Y21702D01*
X764525Y24174D01*
X762896Y26296D01*
X760774Y27925D01*
X758302Y28949D01*
X756920Y29130D01*
D02*
G37*
G36*
X754380D02*
X752998Y28949D01*
X750526Y27925D01*
X748404Y26296D01*
X746775Y24174D01*
X745751Y21702D01*
X745570Y20320D01*
X754380D01*
Y29130D01*
D02*
G37*
G36*
X731520D02*
Y20320D01*
X740331D01*
X740148Y21702D01*
X739125Y24174D01*
X737496Y26296D01*
X735374Y27925D01*
X732902Y28949D01*
X731520Y29130D01*
D02*
G37*
G36*
X728980D02*
X727598Y28949D01*
X725126Y27925D01*
X723004Y26296D01*
X721375Y24174D01*
X720351Y21702D01*
X720170Y20320D01*
X728980D01*
Y29130D01*
D02*
G37*
G36*
X207010Y29210D02*
X198120D01*
Y20320D01*
X207010D01*
Y29210D01*
D02*
G37*
G36*
X195580D02*
X186690D01*
Y20320D01*
X195580D01*
Y29210D01*
D02*
G37*
G36*
X765731Y17780D02*
X756920D01*
Y8970D01*
X758302Y9151D01*
X760774Y10175D01*
X762896Y11804D01*
X764525Y13926D01*
X765548Y16398D01*
X765731Y17780D01*
D02*
G37*
G36*
X754380D02*
X745570D01*
X745751Y16398D01*
X746775Y13926D01*
X748404Y11804D01*
X750526Y10175D01*
X752998Y9151D01*
X754380Y8970D01*
Y17780D01*
D02*
G37*
G36*
X740331D02*
X731520D01*
Y8970D01*
X732902Y9151D01*
X735374Y10175D01*
X737496Y11804D01*
X739125Y13926D01*
X740148Y16398D01*
X740331Y17780D01*
D02*
G37*
G36*
X728980D02*
X720170D01*
X720351Y16398D01*
X721375Y13926D01*
X723004Y11804D01*
X725126Y10175D01*
X727598Y9151D01*
X728980Y8970D01*
Y17780D01*
D02*
G37*
G36*
X207010D02*
X198120D01*
Y8890D01*
X207010D01*
Y17780D01*
D02*
G37*
G36*
X195580D02*
X186690D01*
Y8890D01*
X195580D01*
Y17780D01*
D02*
G37*
G36*
X704850Y29298D02*
X702198Y28949D01*
X699726Y27925D01*
X697604Y26296D01*
X695975Y24174D01*
X694951Y21702D01*
X694602Y19050D01*
X694951Y16398D01*
X695975Y13926D01*
X697604Y11804D01*
X699726Y10175D01*
X702198Y9151D01*
X704850Y8802D01*
X707502Y9151D01*
X709974Y10175D01*
X712096Y11804D01*
X713725Y13926D01*
X714749Y16398D01*
X715098Y19050D01*
X714749Y21702D01*
X713725Y24174D01*
X712096Y26296D01*
X709974Y27925D01*
X707502Y28949D01*
X704850Y29298D01*
D02*
G37*
G36*
X679450D02*
X676798Y28949D01*
X674326Y27925D01*
X672204Y26296D01*
X670575Y24174D01*
X669551Y21702D01*
X669202Y19050D01*
X669551Y16398D01*
X670575Y13926D01*
X672204Y11804D01*
X674326Y10175D01*
X676798Y9151D01*
X679450Y8802D01*
X682102Y9151D01*
X684574Y10175D01*
X686696Y11804D01*
X688325Y13926D01*
X689349Y16398D01*
X689698Y19050D01*
X689349Y21702D01*
X688325Y24174D01*
X686696Y26296D01*
X684574Y27925D01*
X682102Y28949D01*
X679450Y29298D01*
D02*
G37*
G36*
X654050D02*
X651398Y28949D01*
X648926Y27925D01*
X646804Y26296D01*
X645175Y24174D01*
X644152Y21702D01*
X643802Y19050D01*
X644152Y16398D01*
X645175Y13926D01*
X646804Y11804D01*
X648926Y10175D01*
X651398Y9151D01*
X654050Y8802D01*
X656702Y9151D01*
X659174Y10175D01*
X661296Y11804D01*
X662925Y13926D01*
X663949Y16398D01*
X664298Y19050D01*
X663949Y21702D01*
X662925Y24174D01*
X661296Y26296D01*
X659174Y27925D01*
X656702Y28949D01*
X654050Y29298D01*
D02*
G37*
G36*
X628650D02*
X625998Y28949D01*
X623526Y27925D01*
X621404Y26296D01*
X619775Y24174D01*
X618751Y21702D01*
X618402Y19050D01*
X618751Y16398D01*
X619775Y13926D01*
X621404Y11804D01*
X623526Y10175D01*
X625998Y9151D01*
X628650Y8802D01*
X631302Y9151D01*
X633774Y10175D01*
X635896Y11804D01*
X637525Y13926D01*
X638549Y16398D01*
X638898Y19050D01*
X638549Y21702D01*
X637525Y24174D01*
X635896Y26296D01*
X633774Y27925D01*
X631302Y28949D01*
X628650Y29298D01*
D02*
G37*
G36*
X603250D02*
X600598Y28949D01*
X598126Y27925D01*
X596004Y26296D01*
X594375Y24174D01*
X593352Y21702D01*
X593002Y19050D01*
X593352Y16398D01*
X594375Y13926D01*
X596004Y11804D01*
X598126Y10175D01*
X600598Y9151D01*
X603250Y8802D01*
X605902Y9151D01*
X608374Y10175D01*
X610496Y11804D01*
X612125Y13926D01*
X613148Y16398D01*
X613498Y19050D01*
X613148Y21702D01*
X612125Y24174D01*
X610496Y26296D01*
X608374Y27925D01*
X605902Y28949D01*
X603250Y29298D01*
D02*
G37*
G36*
X577850D02*
X575198Y28949D01*
X572726Y27925D01*
X570604Y26296D01*
X568975Y24174D01*
X567952Y21702D01*
X567602Y19050D01*
X567952Y16398D01*
X568975Y13926D01*
X570604Y11804D01*
X572726Y10175D01*
X575198Y9151D01*
X577850Y8802D01*
X580502Y9151D01*
X582974Y10175D01*
X585096Y11804D01*
X586725Y13926D01*
X587748Y16398D01*
X588098Y19050D01*
X587748Y21702D01*
X586725Y24174D01*
X585096Y26296D01*
X582974Y27925D01*
X580502Y28949D01*
X577850Y29298D01*
D02*
G37*
G36*
X552450D02*
X549798Y28949D01*
X547326Y27925D01*
X545204Y26296D01*
X543575Y24174D01*
X542551Y21702D01*
X542202Y19050D01*
X542551Y16398D01*
X543575Y13926D01*
X545204Y11804D01*
X547326Y10175D01*
X549798Y9151D01*
X552450Y8802D01*
X555102Y9151D01*
X557574Y10175D01*
X559696Y11804D01*
X561325Y13926D01*
X562349Y16398D01*
X562698Y19050D01*
X562349Y21702D01*
X561325Y24174D01*
X559696Y26296D01*
X557574Y27925D01*
X555102Y28949D01*
X552450Y29298D01*
D02*
G37*
G36*
X527050D02*
X524398Y28949D01*
X521926Y27925D01*
X519804Y26296D01*
X518175Y24174D01*
X517151Y21702D01*
X516802Y19050D01*
X517151Y16398D01*
X518175Y13926D01*
X519804Y11804D01*
X521926Y10175D01*
X524398Y9151D01*
X527050Y8802D01*
X529702Y9151D01*
X532174Y10175D01*
X534296Y11804D01*
X535925Y13926D01*
X536949Y16398D01*
X537298Y19050D01*
X536949Y21702D01*
X535925Y24174D01*
X534296Y26296D01*
X532174Y27925D01*
X529702Y28949D01*
X527050Y29298D01*
D02*
G37*
G36*
X501650D02*
X498998Y28949D01*
X496526Y27925D01*
X494404Y26296D01*
X492775Y24174D01*
X491752Y21702D01*
X491402Y19050D01*
X491752Y16398D01*
X492775Y13926D01*
X494404Y11804D01*
X496526Y10175D01*
X498998Y9151D01*
X501650Y8802D01*
X504302Y9151D01*
X506774Y10175D01*
X508896Y11804D01*
X510525Y13926D01*
X511549Y16398D01*
X511898Y19050D01*
X511549Y21702D01*
X510525Y24174D01*
X508896Y26296D01*
X506774Y27925D01*
X504302Y28949D01*
X501650Y29298D01*
D02*
G37*
G36*
X476250D02*
X473598Y28949D01*
X471126Y27925D01*
X469004Y26296D01*
X467375Y24174D01*
X466352Y21702D01*
X466002Y19050D01*
X466352Y16398D01*
X467375Y13926D01*
X469004Y11804D01*
X471126Y10175D01*
X473598Y9151D01*
X476250Y8802D01*
X478902Y9151D01*
X481374Y10175D01*
X483496Y11804D01*
X485125Y13926D01*
X486148Y16398D01*
X486498Y19050D01*
X486148Y21702D01*
X485125Y24174D01*
X483496Y26296D01*
X481374Y27925D01*
X478902Y28949D01*
X476250Y29298D01*
D02*
G37*
G36*
X450850D02*
X448198Y28949D01*
X445726Y27925D01*
X443604Y26296D01*
X441975Y24174D01*
X440951Y21702D01*
X440602Y19050D01*
X440951Y16398D01*
X441975Y13926D01*
X443604Y11804D01*
X445726Y10175D01*
X448198Y9151D01*
X450850Y8802D01*
X453502Y9151D01*
X455974Y10175D01*
X458096Y11804D01*
X459725Y13926D01*
X460748Y16398D01*
X461098Y19050D01*
X460748Y21702D01*
X459725Y24174D01*
X458096Y26296D01*
X455974Y27925D01*
X453502Y28949D01*
X450850Y29298D01*
D02*
G37*
G36*
X425450D02*
X422798Y28949D01*
X420326Y27925D01*
X418204Y26296D01*
X416575Y24174D01*
X415551Y21702D01*
X415202Y19050D01*
X415551Y16398D01*
X416575Y13926D01*
X418204Y11804D01*
X420326Y10175D01*
X422798Y9151D01*
X425450Y8802D01*
X428102Y9151D01*
X430574Y10175D01*
X432696Y11804D01*
X434325Y13926D01*
X435349Y16398D01*
X435698Y19050D01*
X435349Y21702D01*
X434325Y24174D01*
X432696Y26296D01*
X430574Y27925D01*
X428102Y28949D01*
X425450Y29298D01*
D02*
G37*
G36*
X400050D02*
X397398Y28949D01*
X394926Y27925D01*
X392804Y26296D01*
X391175Y24174D01*
X390151Y21702D01*
X389802Y19050D01*
X390151Y16398D01*
X391175Y13926D01*
X392804Y11804D01*
X394926Y10175D01*
X397398Y9151D01*
X400050Y8802D01*
X402702Y9151D01*
X405174Y10175D01*
X407296Y11804D01*
X408925Y13926D01*
X409949Y16398D01*
X410298Y19050D01*
X409949Y21702D01*
X408925Y24174D01*
X407296Y26296D01*
X405174Y27925D01*
X402702Y28949D01*
X400050Y29298D01*
D02*
G37*
G36*
X374650D02*
X371998Y28949D01*
X369526Y27925D01*
X367404Y26296D01*
X365775Y24174D01*
X364752Y21702D01*
X364402Y19050D01*
X364752Y16398D01*
X365775Y13926D01*
X367404Y11804D01*
X369526Y10175D01*
X371998Y9151D01*
X374650Y8802D01*
X377302Y9151D01*
X379774Y10175D01*
X381896Y11804D01*
X383525Y13926D01*
X384548Y16398D01*
X384898Y19050D01*
X384548Y21702D01*
X383525Y24174D01*
X381896Y26296D01*
X379774Y27925D01*
X377302Y28949D01*
X374650Y29298D01*
D02*
G37*
G36*
X349250D02*
X346598Y28949D01*
X344126Y27925D01*
X342004Y26296D01*
X340375Y24174D01*
X339352Y21702D01*
X339002Y19050D01*
X339352Y16398D01*
X340375Y13926D01*
X342004Y11804D01*
X344126Y10175D01*
X346598Y9151D01*
X349250Y8802D01*
X351902Y9151D01*
X354374Y10175D01*
X356496Y11804D01*
X358125Y13926D01*
X359148Y16398D01*
X359498Y19050D01*
X359148Y21702D01*
X358125Y24174D01*
X356496Y26296D01*
X354374Y27925D01*
X351902Y28949D01*
X349250Y29298D01*
D02*
G37*
G36*
X323850D02*
X321198Y28949D01*
X318726Y27925D01*
X316604Y26296D01*
X314975Y24174D01*
X313951Y21702D01*
X313602Y19050D01*
X313951Y16398D01*
X314975Y13926D01*
X316604Y11804D01*
X318726Y10175D01*
X321198Y9151D01*
X323850Y8802D01*
X326502Y9151D01*
X328974Y10175D01*
X331096Y11804D01*
X332725Y13926D01*
X333749Y16398D01*
X334098Y19050D01*
X333749Y21702D01*
X332725Y24174D01*
X331096Y26296D01*
X328974Y27925D01*
X326502Y28949D01*
X323850Y29298D01*
D02*
G37*
G36*
X298450D02*
X295798Y28949D01*
X293326Y27925D01*
X291204Y26296D01*
X289575Y24174D01*
X288552Y21702D01*
X288202Y19050D01*
X288552Y16398D01*
X289575Y13926D01*
X291204Y11804D01*
X293326Y10175D01*
X295798Y9151D01*
X298450Y8802D01*
X301102Y9151D01*
X303574Y10175D01*
X305696Y11804D01*
X307325Y13926D01*
X308349Y16398D01*
X308698Y19050D01*
X308349Y21702D01*
X307325Y24174D01*
X305696Y26296D01*
X303574Y27925D01*
X301102Y28949D01*
X298450Y29298D01*
D02*
G37*
G36*
X273050D02*
X270398Y28949D01*
X267926Y27925D01*
X265804Y26296D01*
X264175Y24174D01*
X263151Y21702D01*
X262802Y19050D01*
X263151Y16398D01*
X264175Y13926D01*
X265804Y11804D01*
X267926Y10175D01*
X270398Y9151D01*
X273050Y8802D01*
X275702Y9151D01*
X278174Y10175D01*
X280296Y11804D01*
X281925Y13926D01*
X282948Y16398D01*
X283298Y19050D01*
X282948Y21702D01*
X281925Y24174D01*
X280296Y26296D01*
X278174Y27925D01*
X275702Y28949D01*
X273050Y29298D01*
D02*
G37*
G36*
X222250D02*
X219598Y28949D01*
X217126Y27925D01*
X215004Y26296D01*
X213375Y24174D01*
X212351Y21702D01*
X212002Y19050D01*
X212351Y16398D01*
X213375Y13926D01*
X215004Y11804D01*
X217126Y10175D01*
X219598Y9151D01*
X222250Y8802D01*
X224902Y9151D01*
X227374Y10175D01*
X229496Y11804D01*
X231125Y13926D01*
X232148Y16398D01*
X232498Y19050D01*
X232148Y21702D01*
X231125Y24174D01*
X229496Y26296D01*
X227374Y27925D01*
X224902Y28949D01*
X222250Y29298D01*
D02*
G37*
G36*
X247650Y30579D02*
X244666Y30186D01*
X241886Y29034D01*
X239498Y27202D01*
X237666Y24814D01*
X236514Y22034D01*
X236121Y19050D01*
X236514Y16066D01*
X237666Y13286D01*
X239498Y10898D01*
X241886Y9066D01*
X244666Y7914D01*
X247650Y7521D01*
X250634Y7914D01*
X253414Y9066D01*
X255802Y10898D01*
X257634Y13286D01*
X258786Y16066D01*
X259179Y19050D01*
X258786Y22034D01*
X257634Y24814D01*
X255802Y27202D01*
X253414Y29034D01*
X250634Y30186D01*
X247650Y30579D01*
D02*
G37*
G36*
X146050Y56635D02*
X141195Y56157D01*
X136527Y54741D01*
X132225Y52441D01*
X128454Y49346D01*
X125359Y45575D01*
X123059Y41273D01*
X121643Y36605D01*
X121165Y31750D01*
X121643Y26895D01*
X123059Y22227D01*
X125359Y17925D01*
X128454Y14154D01*
X132225Y11059D01*
X136527Y8759D01*
X141195Y7343D01*
X146050Y6865D01*
X150905Y7343D01*
X155573Y8759D01*
X159875Y11059D01*
X163646Y14154D01*
X166741Y17925D01*
X169041Y22227D01*
X170457Y26895D01*
X170935Y31750D01*
X170457Y36605D01*
X169041Y41273D01*
X166741Y45575D01*
X163646Y49346D01*
X159875Y52441D01*
X155573Y54741D01*
X150905Y56157D01*
X146050Y56635D01*
D02*
G37*
%LPD*%
G36*
X408567Y658209D02*
X408287Y656719D01*
X407687Y656470D01*
X405589Y654861D01*
X403980Y652763D01*
X402968Y650321D01*
X402623Y647700D01*
X402968Y645079D01*
X403980Y642637D01*
X405589Y640539D01*
X407687Y638930D01*
X410129Y637918D01*
X412750Y637573D01*
X415371Y637918D01*
X417813Y638930D01*
X419911Y640539D01*
X421520Y642637D01*
X422231Y644352D01*
X423501Y644100D01*
Y625900D01*
X422231Y625648D01*
X421520Y627363D01*
X419911Y629461D01*
X417813Y631070D01*
X415371Y632082D01*
X412750Y632427D01*
X410129Y632082D01*
X407687Y631070D01*
X405589Y629461D01*
X403980Y627363D01*
X402968Y624921D01*
X402623Y622300D01*
X402968Y619679D01*
X403980Y617237D01*
X405589Y615139D01*
X407687Y613530D01*
X409141Y612928D01*
Y572230D01*
X409415Y570849D01*
X410198Y569678D01*
X412483Y567393D01*
X411997Y566219D01*
X393925D01*
X390959Y569185D01*
Y612928D01*
X392413Y613530D01*
X394511Y615139D01*
X396120Y617237D01*
X397132Y619679D01*
X397477Y622300D01*
X397132Y624921D01*
X396120Y627363D01*
X394511Y629461D01*
X392413Y631070D01*
X389971Y632082D01*
X387350Y632427D01*
X384729Y632082D01*
X382287Y631070D01*
X380189Y629461D01*
X379529Y628600D01*
X378259Y629031D01*
Y633505D01*
X383275Y638521D01*
X384729Y637918D01*
X387350Y637573D01*
X389971Y637918D01*
X392413Y638930D01*
X394511Y640539D01*
X396120Y642637D01*
X397132Y645079D01*
X397477Y647700D01*
X397132Y650321D01*
X396120Y652763D01*
X394511Y654861D01*
X392413Y656470D01*
X389971Y657482D01*
X387350Y657827D01*
X384729Y657482D01*
X382287Y656470D01*
X380189Y654861D01*
X378580Y652763D01*
X377568Y650321D01*
X377223Y647700D01*
X377568Y645079D01*
X378171Y643625D01*
X372098Y637552D01*
X371315Y636381D01*
X371041Y635000D01*
Y629031D01*
X369771Y628600D01*
X369111Y629461D01*
X367013Y631070D01*
X364571Y632082D01*
X361950Y632427D01*
X359329Y632082D01*
X356887Y631070D01*
X354789Y629461D01*
X354129Y628600D01*
X352859Y629031D01*
Y640968D01*
X354129Y641400D01*
X354789Y640539D01*
X356887Y638930D01*
X359329Y637918D01*
X360680Y637741D01*
Y647700D01*
Y657659D01*
X359329Y657482D01*
X356887Y656470D01*
X354789Y654861D01*
X354129Y654000D01*
X352859Y654432D01*
Y656365D01*
X356365Y659871D01*
X406905D01*
X408567Y658209D01*
D02*
G37*
%LPC*%
G36*
X363220Y657659D02*
Y648970D01*
X371909D01*
X371732Y650321D01*
X370720Y652763D01*
X369111Y654861D01*
X367013Y656470D01*
X364571Y657482D01*
X363220Y657659D01*
D02*
G37*
G36*
X371909Y646430D02*
X363220D01*
Y637741D01*
X364571Y637918D01*
X367013Y638930D01*
X369111Y640539D01*
X370720Y642637D01*
X371732Y645079D01*
X371909Y646430D01*
D02*
G37*
%LPD*%
D10*
X354870Y663480D02*
X408400D01*
X349250Y657860D02*
X354870Y663480D01*
X349250Y604520D02*
Y657860D01*
X412750Y647700D02*
Y659130D01*
X408400Y663480D02*
X412750Y659130D01*
X764540Y609600D02*
X779780Y594360D01*
Y439420D02*
Y594360D01*
X770890Y430530D02*
X779780Y439420D01*
X760730Y604520D02*
X774700Y590550D01*
Y443230D02*
Y590550D01*
X767080Y435610D02*
X774700Y443230D01*
X758190Y599980D02*
X769620Y588550D01*
Y459750D02*
Y588550D01*
X758650Y448780D02*
X769620Y459750D01*
X708470Y430530D02*
X770890D01*
X704850Y434150D02*
X708470Y430530D01*
X292100Y448310D02*
X526580D01*
X285750Y454660D02*
X292100Y448310D01*
X285750Y454660D02*
Y539750D01*
X552450Y609600D02*
X764540D01*
X511270Y599980D02*
X758190D01*
X532130Y604520D02*
X760730D01*
X755650Y475780D02*
Y501650D01*
X730250Y475780D02*
Y501650D01*
X679450Y475780D02*
Y501650D01*
X654050Y475780D02*
Y501650D01*
X526580Y448310D02*
X527050Y448780D01*
X273050Y552450D02*
Y637540D01*
Y552450D02*
X285750Y539750D01*
X260350Y647700D02*
X262890D01*
X273050Y637540D01*
X260350Y443230D02*
Y622300D01*
X269240Y434340D02*
X547370D01*
X260350Y443230D02*
X269240Y434340D01*
X552450Y439420D02*
Y448780D01*
X547370Y434340D02*
X552450Y439420D01*
X374650Y570230D02*
X387350Y557530D01*
X374650Y570230D02*
Y635000D01*
X387350Y469900D02*
Y557530D01*
X374650Y635000D02*
X387350Y647700D01*
X393700Y463550D02*
X673198D01*
X387350Y469900D02*
X393700Y463550D01*
X361950Y466090D02*
X370220Y457820D01*
X349250Y604520D02*
X361950Y591820D01*
Y466090D02*
Y591820D01*
X678180Y450050D02*
Y458568D01*
X673198Y463550D02*
X678180Y458568D01*
X370220Y457820D02*
X585780D01*
X594820Y448780D01*
X654050D01*
X678180Y450050D02*
X679450Y448780D01*
X240030Y668020D02*
X421640D01*
X235290Y663280D02*
X240030Y668020D01*
X235290Y648040D02*
Y663280D01*
X427110Y586350D02*
Y662550D01*
X421640Y668020D02*
X427110Y662550D01*
X461907Y608330D02*
X473710D01*
X450850Y619387D02*
X461907Y608330D01*
X450850Y619387D02*
Y635000D01*
X438150Y647700D02*
X450850Y635000D01*
X654050Y527050D02*
Y552920D01*
X651050Y579920D02*
X654050D01*
X639150Y591820D02*
X651050Y579920D01*
X441960Y591820D02*
X639150D01*
X438150Y595630D02*
Y622300D01*
Y595630D02*
X441960Y591820D01*
X679450Y527050D02*
Y552920D01*
X704850Y527050D02*
Y552920D01*
X427110Y586350D02*
X433540Y579920D01*
X672680Y567150D02*
X679450Y573920D01*
X417830Y567150D02*
X672680D01*
X412750Y572230D02*
X417830Y567150D01*
X695960Y562610D02*
X703580Y570230D01*
X392430Y562610D02*
X695960D01*
X387350Y567690D02*
X392430Y562610D01*
X703580Y570230D02*
Y578650D01*
X679450Y573920D02*
Y579920D01*
X704850D02*
X707850D01*
X412750Y572230D02*
Y622300D01*
X703580Y578650D02*
X704850Y579920D01*
X387350Y567690D02*
Y622300D01*
X704850Y434150D02*
Y448780D01*
X730250Y439960D02*
X734600Y435610D01*
X730250Y439960D02*
Y448780D01*
X734600Y435610D02*
X767080D01*
X755650Y448780D02*
X758650D01*
X488950Y622300D02*
X511270Y599980D01*
X514350Y622300D02*
X532130Y604520D01*
X539750Y622300D02*
X552450Y609600D01*
X704850Y475780D02*
Y501650D01*
X552450Y475780D02*
Y501650D01*
X527050Y475780D02*
Y501650D01*
Y527050D02*
Y552920D01*
X433540Y579920D02*
X527050D01*
X234950Y647700D02*
X235290Y648040D01*
D21*
X755650Y44450D02*
D03*
Y19050D02*
D03*
X730250Y44450D02*
D03*
Y19050D02*
D03*
X704850Y44450D02*
D03*
Y19050D02*
D03*
X679450Y44450D02*
D03*
Y19050D02*
D03*
X654050Y44450D02*
D03*
Y19050D02*
D03*
X628650Y44450D02*
D03*
Y19050D02*
D03*
X603250Y44450D02*
D03*
Y19050D02*
D03*
X577850Y44450D02*
D03*
Y19050D02*
D03*
X552450Y44450D02*
D03*
Y19050D02*
D03*
X527050Y44450D02*
D03*
Y19050D02*
D03*
X501650Y44450D02*
D03*
Y19050D02*
D03*
X476250Y44450D02*
D03*
Y19050D02*
D03*
X450850Y44450D02*
D03*
Y19050D02*
D03*
X425450Y44450D02*
D03*
Y19050D02*
D03*
X400050Y44450D02*
D03*
Y19050D02*
D03*
X374650Y44450D02*
D03*
Y19050D02*
D03*
X349250Y44450D02*
D03*
Y19050D02*
D03*
X323850Y44450D02*
D03*
Y19050D02*
D03*
X298450Y44450D02*
D03*
Y19050D02*
D03*
X273050Y44450D02*
D03*
Y19050D02*
D03*
X247650Y44450D02*
D03*
Y19050D02*
D03*
X222250Y44450D02*
D03*
Y19050D02*
D03*
X196850Y44450D02*
D03*
Y527050D02*
D03*
X222250Y501650D02*
D03*
Y527050D02*
D03*
X247650Y501650D02*
D03*
Y527050D02*
D03*
X273050Y501650D02*
D03*
Y527050D02*
D03*
X298450Y501650D02*
D03*
Y527050D02*
D03*
X323850Y501650D02*
D03*
Y527050D02*
D03*
X349250Y501650D02*
D03*
Y527050D02*
D03*
X374650Y501650D02*
D03*
Y527050D02*
D03*
X400050Y501650D02*
D03*
Y527050D02*
D03*
X425450Y501650D02*
D03*
Y527050D02*
D03*
X450850Y501650D02*
D03*
Y527050D02*
D03*
X476250Y501650D02*
D03*
Y527050D02*
D03*
X501650Y501650D02*
D03*
Y527050D02*
D03*
X527050Y501650D02*
D03*
Y527050D02*
D03*
X552450Y501650D02*
D03*
Y527050D02*
D03*
X577850Y501650D02*
D03*
Y527050D02*
D03*
X603250Y501650D02*
D03*
Y527050D02*
D03*
X628650Y501650D02*
D03*
Y527050D02*
D03*
X654050Y501650D02*
D03*
Y527050D02*
D03*
X679450Y501650D02*
D03*
Y527050D02*
D03*
X704850Y501650D02*
D03*
Y527050D02*
D03*
X730250Y501650D02*
D03*
Y527050D02*
D03*
X755650Y501650D02*
D03*
Y527050D02*
D03*
D27*
X731520Y371640D02*
D03*
Y344640D02*
D03*
X679450Y475780D02*
D03*
Y448780D02*
D03*
X654050Y475780D02*
D03*
Y448780D02*
D03*
Y579920D02*
D03*
Y552920D02*
D03*
X679450Y579920D02*
D03*
Y552920D02*
D03*
X704850Y579920D02*
D03*
Y552920D02*
D03*
X755650Y448780D02*
D03*
Y475780D02*
D03*
X730250Y448780D02*
D03*
Y475780D02*
D03*
X704850Y448780D02*
D03*
Y475780D02*
D03*
X527050Y552920D02*
D03*
Y579920D02*
D03*
X552450Y448780D02*
D03*
Y475780D02*
D03*
X527050D02*
D03*
Y448780D02*
D03*
D31*
X806450Y622300D02*
X836930Y591820D01*
Y335280D02*
Y591820D01*
X823360Y321710D02*
X836930Y335280D01*
X450850Y181610D02*
X805180D01*
X434340Y198120D02*
X450850Y181610D01*
X434340Y198120D02*
Y226060D01*
X717550Y622300D02*
X806450D01*
X770890Y321710D02*
X823360D01*
D32*
X196850Y19050D02*
D03*
Y501650D02*
D03*
D33*
X717550Y647700D02*
D03*
Y622300D02*
D03*
X692150Y647700D02*
D03*
Y622300D02*
D03*
X666750Y647700D02*
D03*
Y622300D02*
D03*
X641350Y647700D02*
D03*
Y622300D02*
D03*
X615950Y647700D02*
D03*
Y622300D02*
D03*
X590550Y647700D02*
D03*
Y622300D02*
D03*
X565150Y647700D02*
D03*
Y622300D02*
D03*
X539750Y647700D02*
D03*
Y622300D02*
D03*
X514350Y647700D02*
D03*
Y622300D02*
D03*
X488950Y647700D02*
D03*
Y622300D02*
D03*
X463550Y647700D02*
D03*
Y622300D02*
D03*
X438150Y647700D02*
D03*
Y622300D02*
D03*
X412750Y647700D02*
D03*
Y622300D02*
D03*
X387350Y647700D02*
D03*
Y622300D02*
D03*
X361950Y647700D02*
D03*
Y622300D02*
D03*
X336550Y647700D02*
D03*
Y622300D02*
D03*
X311150Y647700D02*
D03*
Y622300D02*
D03*
X285750Y647700D02*
D03*
Y622300D02*
D03*
X260350Y647700D02*
D03*
Y622300D02*
D03*
X234950Y647700D02*
D03*
X770890Y371710D02*
D03*
Y346710D02*
D03*
Y296710D02*
D03*
Y321710D02*
D03*
Y396710D02*
D03*
D34*
X234950Y622300D02*
D03*
D35*
X459740Y226060D02*
D03*
X485140D02*
D03*
X459740Y149860D02*
D03*
X485140D02*
D03*
X510540D02*
D03*
Y226060D02*
D03*
X434340D02*
D03*
D36*
X805180Y130810D02*
D03*
D37*
Y181610D02*
D03*
Y232410D02*
D03*
D38*
X434340Y149860D02*
D03*
D39*
X146050Y514350D02*
D03*
X806450Y482600D02*
D03*
Y63500D02*
D03*
X146050Y31750D02*
D03*
D40*
X349250Y588010D02*
D03*
X473710Y608330D02*
D03*
D41*
X475615Y233957D02*
X597693Y356035D01*
X475615Y230800D02*
Y233957D01*
Y230800D02*
X478557Y227858D01*
X483342D01*
X485140Y226060D01*
X761565Y356035D02*
X770890Y346710D01*
X731520Y344640D02*
X733178D01*
X731520D02*
Y353060D01*
X734495Y356035D01*
X761565D01*
X597693D02*
X734495D01*
X459740Y226060D02*
X461538Y227858D01*
X466323D02*
X469265Y230800D01*
Y236587D01*
X761565Y362385D02*
X770890Y371710D01*
X461538Y227858D02*
X466323D01*
X731520Y365760D02*
Y371640D01*
Y365760D02*
X734895Y362385D01*
X761565D01*
X469265Y236587D02*
X595063Y362385D01*
X734895D01*
M02*
