M48
;Layer_Color=9474304
;FILE_FORMAT=4:4
METRIC,TZ
;TYPE=PLATED
T1F00S00C0.6000
T2F00S00C0.7620
T3F00S00C0.8128
T4F00S00C0.9000
T5F00S00C1.0000
T6F00S00C1.1000
T7F00S00C3.1750
%
T01
X349250Y588010
X473710Y608330
T02
X196850Y19050
X222250
X247650
X273050
X298450
X323850
X349250
X374650
X400050
X425450
X450850
X476250
Y44450
X450850
X425450
X400050
X374650
X349250
X323850
X298450
X273050
X247650
X222250
X196850
X501650
X527050
X552450
X577850
X603250
X628650
X654050
X679450
X704850
X730250
X755650
Y19050
X730250
X704850
X679450
X654050
X628650
X603250
X577850
X552450
X527050
X501650
X476250Y501650
X450850
X425450
X400050
X374650
X349250
X323850
X298450
X273050
X247650
X222250
X196850
Y527050
X222250
X247650
X273050
X298450
X323850
X349250
X374650
X400050
X425450
X450850
X476250
X501650
Y501650
X527050
Y527050
X552450
Y501650
X577850
Y527050
X603250
Y501650
X628650
Y527050
X654050
Y501650
X679450
Y527050
X704850
Y501650
X730250
Y527050
X755650
Y501650
T03
X510540Y149860
Y226060
X485140
X459740
X434340
Y149860
X459740
X485140
T04
X234950Y622300
X260350
X285750
X311150
X336550
X361950
X387350
X412750
X438150
X463550
X488950
Y647700
X463550
X438150
X412750
X387350
X361950
X336550
X311150
X285750
X260350
X234950
X514350
X539750
X565150
X590550
X615950
X641350
X666750
X692150
X717550
Y622300
X692150
X666750
X641350
X615950
X590550
X565150
X539750
X514350
T05
X770890Y296710
Y321710
Y346710
Y371710
Y396710
T06
X805180Y130810
Y181610
Y232410
T07
X146050Y31750
X806450Y63500
Y482600
X146050Y514350
M30
