G04*
G04 #@! TF.GenerationSoftware,Altium Limited,Altium Designer,20.0.7 (75)*
G04*
G04 Layer_Physical_Order=1*
G04 Layer_Color=255*
%FSLAX44Y44*%
%MOMM*%
G71*
G01*
G75*
%ADD10C,0.2000*%
%ADD15R,1.7000X1.1000*%
%ADD16R,1.1000X1.7000*%
%ADD23C,1.5240*%
%ADD29C,0.3000*%
%ADD30C,0.8000*%
%ADD31C,1.2000*%
%ADD32R,1.5240X1.5240*%
%ADD33C,1.5000*%
%ADD34R,1.5000X1.5000*%
%ADD35C,1.3208*%
%ADD36R,2.5400X2.5400*%
%ADD37C,2.5400*%
%ADD38R,1.3208X1.3208*%
%ADD39C,4.4450*%
%ADD40C,1.0000*%
G36*
X751689Y683743D02*
X761644Y682166D01*
X771445Y679813D01*
X781032Y676698D01*
X790344Y672841D01*
X799326Y668265D01*
X807920Y662998D01*
X816075Y657073D01*
X823739Y650527D01*
X830867Y643400D01*
X837413Y635735D01*
X843338Y627580D01*
X848605Y618986D01*
X853181Y610005D01*
X857038Y600692D01*
X860153Y591105D01*
X862506Y581304D01*
X864083Y571349D01*
X864874Y561300D01*
Y556260D01*
Y127000D01*
Y121960D01*
X864083Y111911D01*
X862506Y101956D01*
X860153Y92154D01*
X857038Y82568D01*
X853181Y73256D01*
X848605Y64274D01*
X843338Y55680D01*
X837413Y47525D01*
X830867Y39860D01*
X823739Y32733D01*
X816075Y26187D01*
X807920Y20262D01*
X799326Y14995D01*
X790344Y10419D01*
X781032Y6562D01*
X771445Y3447D01*
X761644Y1094D01*
X751689Y-483D01*
X741640Y-1274D01*
X62016D01*
X58232Y-1274D01*
X50718Y-372D01*
X43365Y1418D01*
X36278Y4072D01*
X29557Y7552D01*
X23299Y11808D01*
X17592Y16779D01*
X12519Y22394D01*
X8150Y28574D01*
X4549Y35230D01*
X1767Y42268D01*
X-157Y49588D01*
X-720Y53654D01*
X-801Y54290D01*
X-839Y54614D01*
X-391Y55352D01*
X183Y55854D01*
X300Y55884D01*
X128266Y55884D01*
Y144776D01*
X-253D01*
X-722Y144970D01*
X-1080Y145328D01*
X-1274Y145797D01*
Y216153D01*
X-1080Y216621D01*
X-722Y216980D01*
X-253Y217174D01*
X184146D01*
Y379726D01*
X-253D01*
X-722Y379920D01*
X-1080Y380278D01*
X-1274Y380747D01*
Y381000D01*
Y619760D01*
Y622942D01*
X-650Y629276D01*
X592Y635518D01*
X2439Y641608D01*
X4875Y647488D01*
X7875Y653101D01*
X11410Y658392D01*
X15448Y663312D01*
X19948Y667812D01*
X24868Y671850D01*
X30159Y675385D01*
X35772Y678385D01*
X41652Y680821D01*
X47742Y682668D01*
X53984Y683910D01*
X60318Y684534D01*
X741640D01*
X751689Y683743D01*
D02*
G37*
%LPC*%
G36*
X234950Y657827D02*
X232329Y657482D01*
X229887Y656470D01*
X227789Y654861D01*
X226180Y652763D01*
X225168Y650321D01*
X224823Y647700D01*
X225168Y645079D01*
X226180Y642637D01*
X227789Y640539D01*
X229887Y638930D01*
X232329Y637918D01*
X234950Y637573D01*
X237571Y637918D01*
X240013Y638930D01*
X242111Y640539D01*
X243720Y642637D01*
X244732Y645079D01*
X245077Y647700D01*
X244732Y650321D01*
X243720Y652763D01*
X242111Y654861D01*
X240013Y656470D01*
X237571Y657482D01*
X234950Y657827D01*
D02*
G37*
G36*
X244990Y632340D02*
X236220D01*
Y623570D01*
X244990D01*
Y632340D01*
D02*
G37*
G36*
X233680D02*
X224910D01*
Y623570D01*
X233680D01*
Y632340D01*
D02*
G37*
G36*
X244990Y621030D02*
X236220D01*
Y612260D01*
X244990D01*
Y621030D01*
D02*
G37*
G36*
X233680D02*
X224910D01*
Y612260D01*
X233680D01*
Y621030D01*
D02*
G37*
G36*
X467360Y679759D02*
X280670D01*
X279094Y679446D01*
X277757Y678553D01*
X270137Y670933D01*
X269244Y669596D01*
X268931Y668020D01*
Y654985D01*
X267728Y654577D01*
X267511Y654861D01*
X265413Y656470D01*
X262971Y657482D01*
X260350Y657827D01*
X257729Y657482D01*
X255287Y656470D01*
X253189Y654861D01*
X251580Y652763D01*
X250568Y650321D01*
X250223Y647700D01*
X250568Y645079D01*
X251580Y642637D01*
X253189Y640539D01*
X255287Y638930D01*
X257729Y637918D01*
X260350Y637573D01*
X262971Y637918D01*
X265413Y638930D01*
X267511Y640539D01*
X267728Y640823D01*
X268931Y640415D01*
Y629585D01*
X267728Y629177D01*
X267511Y629461D01*
X265413Y631070D01*
X262971Y632082D01*
X260350Y632427D01*
X257729Y632082D01*
X255287Y631070D01*
X253189Y629461D01*
X251580Y627363D01*
X250568Y624921D01*
X250223Y622300D01*
X250568Y619679D01*
X251580Y617237D01*
X253189Y615139D01*
X255287Y613530D01*
X257729Y612518D01*
X260350Y612173D01*
X262971Y612518D01*
X265413Y613530D01*
X267511Y615139D01*
X267728Y615423D01*
X268931Y615015D01*
Y582096D01*
X257437Y570603D01*
X256544Y569266D01*
X256231Y567690D01*
Y534532D01*
X255028Y534124D01*
X254896Y534296D01*
X252774Y535925D01*
X250302Y536949D01*
X247650Y537298D01*
X244998Y536949D01*
X242526Y535925D01*
X240404Y534296D01*
X238775Y532174D01*
X237752Y529702D01*
X237402Y527050D01*
X237752Y524398D01*
X238775Y521926D01*
X240404Y519804D01*
X242526Y518175D01*
X244998Y517151D01*
X247650Y516802D01*
X250302Y517151D01*
X252774Y518175D01*
X254896Y519804D01*
X255028Y519976D01*
X256231Y519568D01*
Y509132D01*
X255028Y508724D01*
X254896Y508896D01*
X252774Y510525D01*
X250302Y511549D01*
X247650Y511898D01*
X244998Y511549D01*
X242526Y510525D01*
X240404Y508896D01*
X238775Y506774D01*
X237752Y504302D01*
X237402Y501650D01*
X237752Y498998D01*
X238775Y496526D01*
X240404Y494404D01*
X242526Y492775D01*
X244998Y491752D01*
X247650Y491402D01*
X250302Y491752D01*
X252774Y492775D01*
X254896Y494404D01*
X255028Y494576D01*
X256231Y494168D01*
X256231Y104576D01*
X219337Y67683D01*
X218444Y66346D01*
X218131Y64770D01*
Y53741D01*
X217126Y53325D01*
X215004Y51696D01*
X213375Y49574D01*
X212351Y47102D01*
X212002Y44450D01*
X212351Y41798D01*
X213375Y39326D01*
X215004Y37204D01*
X217126Y35575D01*
X218131Y35159D01*
Y28341D01*
X217126Y27925D01*
X215004Y26296D01*
X213375Y24174D01*
X212351Y21702D01*
X212002Y19050D01*
X212351Y16398D01*
X213375Y13926D01*
X215004Y11804D01*
X217126Y10175D01*
X219598Y9151D01*
X222250Y8802D01*
X224902Y9151D01*
X227374Y10175D01*
X229496Y11804D01*
X231125Y13926D01*
X232148Y16398D01*
X232498Y19050D01*
X232148Y21702D01*
X231125Y24174D01*
X229496Y26296D01*
X227374Y27925D01*
X226369Y28341D01*
Y35159D01*
X227374Y35575D01*
X229496Y37204D01*
X231125Y39326D01*
X232148Y41798D01*
X232498Y44450D01*
X232148Y47102D01*
X231125Y49574D01*
X229496Y51696D01*
X227374Y53325D01*
X226369Y53741D01*
Y63064D01*
X263263Y99957D01*
X264156Y101294D01*
X264469Y102870D01*
X264469Y494168D01*
X265672Y494576D01*
X265804Y494404D01*
X267926Y492775D01*
X270398Y491752D01*
X273050Y491402D01*
X275702Y491752D01*
X278174Y492775D01*
X280296Y494404D01*
X281925Y496526D01*
X282948Y498998D01*
X283298Y501650D01*
X282948Y504302D01*
X281925Y506774D01*
X280296Y508896D01*
X278174Y510525D01*
X275702Y511549D01*
X273050Y511898D01*
X270398Y511549D01*
X267926Y510525D01*
X265804Y508896D01*
X265672Y508724D01*
X264469Y509132D01*
Y519568D01*
X265672Y519976D01*
X265804Y519804D01*
X267926Y518175D01*
X270398Y517151D01*
X273050Y516802D01*
X275702Y517151D01*
X278174Y518175D01*
X280296Y519804D01*
X281925Y521926D01*
X282948Y524398D01*
X283298Y527050D01*
X282948Y529702D01*
X281925Y532174D01*
X280296Y534296D01*
X278174Y535925D01*
X275702Y536949D01*
X273050Y537298D01*
X270398Y536949D01*
X267926Y535925D01*
X265804Y534296D01*
X265672Y534124D01*
X264469Y534532D01*
Y565984D01*
X275963Y577477D01*
X276856Y578814D01*
X277169Y580390D01*
Y615015D01*
X278372Y615423D01*
X278589Y615139D01*
X280687Y613530D01*
X283129Y612518D01*
X284480Y612341D01*
Y622300D01*
Y632259D01*
X283129Y632082D01*
X280687Y631070D01*
X278589Y629461D01*
X278372Y629177D01*
X277169Y629585D01*
Y640415D01*
X278372Y640823D01*
X278589Y640539D01*
X280687Y638930D01*
X283129Y637918D01*
X285750Y637573D01*
X288371Y637918D01*
X290813Y638930D01*
X292911Y640539D01*
X294520Y642637D01*
X295532Y645079D01*
X295877Y647700D01*
X295532Y650321D01*
X294520Y652763D01*
X292911Y654861D01*
X290813Y656470D01*
X288371Y657482D01*
X285750Y657827D01*
X283129Y657482D01*
X280687Y656470D01*
X278589Y654861D01*
X278372Y654577D01*
X277169Y654985D01*
Y666314D01*
X282376Y671521D01*
X348527D01*
X349013Y670348D01*
X336483Y657818D01*
X333929Y657482D01*
X331487Y656470D01*
X329389Y654861D01*
X327780Y652763D01*
X326768Y650321D01*
X326423Y647700D01*
X326768Y645079D01*
X327780Y642637D01*
X329389Y640539D01*
X331487Y638930D01*
X332261Y638609D01*
X332008Y637339D01*
X322580D01*
X321199Y637065D01*
X320028Y636282D01*
X315225Y631479D01*
X313771Y632082D01*
X311150Y632427D01*
X308529Y632082D01*
X306087Y631070D01*
X303989Y629461D01*
X303329Y628600D01*
X302059Y629031D01*
Y633505D01*
X307075Y638521D01*
X308529Y637918D01*
X311150Y637573D01*
X313771Y637918D01*
X316213Y638930D01*
X318311Y640539D01*
X319920Y642637D01*
X320932Y645079D01*
X321277Y647700D01*
X320932Y650321D01*
X319920Y652763D01*
X318311Y654861D01*
X316213Y656470D01*
X313771Y657482D01*
X311150Y657827D01*
X308529Y657482D01*
X306087Y656470D01*
X303989Y654861D01*
X302380Y652763D01*
X301368Y650321D01*
X301023Y647700D01*
X301368Y645079D01*
X301971Y643625D01*
X295898Y637552D01*
X295115Y636381D01*
X294841Y635000D01*
Y629031D01*
X293571Y628600D01*
X292911Y629461D01*
X290813Y631070D01*
X288371Y632082D01*
X287020Y632259D01*
Y622300D01*
Y612341D01*
X288371Y612518D01*
X290813Y613530D01*
X292911Y615139D01*
X293571Y616000D01*
X294841Y615569D01*
Y610870D01*
X295115Y609489D01*
X295898Y608318D01*
X307541Y596675D01*
Y533979D01*
X306271Y533548D01*
X305696Y534296D01*
X303574Y535925D01*
X301102Y536949D01*
X298450Y537298D01*
X295798Y536949D01*
X293326Y535925D01*
X291204Y534296D01*
X289575Y532174D01*
X288552Y529702D01*
X288202Y527050D01*
X288552Y524398D01*
X289575Y521926D01*
X291204Y519804D01*
X293326Y518175D01*
X295798Y517151D01*
X298450Y516802D01*
X301102Y517151D01*
X303574Y518175D01*
X305696Y519804D01*
X306271Y520552D01*
X307541Y520121D01*
Y508579D01*
X306271Y508148D01*
X305696Y508896D01*
X303574Y510525D01*
X301102Y511549D01*
X298450Y511898D01*
X295798Y511549D01*
X293326Y510525D01*
X291204Y508896D01*
X289575Y506774D01*
X288552Y504302D01*
X288202Y501650D01*
X288552Y498998D01*
X289575Y496526D01*
X291204Y494404D01*
X293326Y492775D01*
X295798Y491752D01*
X298450Y491402D01*
X301102Y491752D01*
X303574Y492775D01*
X305696Y494404D01*
X306271Y495152D01*
X307541Y494721D01*
Y427990D01*
X307815Y426609D01*
X308598Y425438D01*
X317488Y416548D01*
X318659Y415765D01*
X320040Y415491D01*
X624840D01*
X626221Y415765D01*
X627392Y416548D01*
X631202Y420358D01*
X631985Y421529D01*
X632259Y422910D01*
Y440740D01*
X639011D01*
Y49305D01*
X637741Y49053D01*
X637525Y49574D01*
X635896Y51696D01*
X633774Y53325D01*
X631302Y54349D01*
X628650Y54698D01*
X625998Y54349D01*
X623526Y53325D01*
X621404Y51696D01*
X619775Y49574D01*
X618751Y47102D01*
X618402Y44450D01*
X618751Y41798D01*
X619775Y39326D01*
X621404Y37204D01*
X623526Y35575D01*
X625998Y34551D01*
X628650Y34202D01*
X631302Y34551D01*
X633774Y35575D01*
X635896Y37204D01*
X637525Y39326D01*
X637741Y39847D01*
X639011Y39595D01*
Y30480D01*
X639285Y29099D01*
X640068Y27928D01*
X644779Y23217D01*
X644152Y21702D01*
X643802Y19050D01*
X644152Y16398D01*
X645175Y13926D01*
X646804Y11804D01*
X648926Y10175D01*
X651398Y9151D01*
X654050Y8802D01*
X656702Y9151D01*
X659174Y10175D01*
X661296Y11804D01*
X661871Y12552D01*
X663141Y12121D01*
Y8890D01*
X663415Y7509D01*
X664198Y6338D01*
X666738Y3798D01*
X667909Y3015D01*
X669290Y2741D01*
X689610D01*
X690991Y3015D01*
X692162Y3798D01*
X694702Y6338D01*
X695485Y7509D01*
X695759Y8890D01*
Y12121D01*
X697029Y12552D01*
X697604Y11804D01*
X699726Y10175D01*
X702198Y9151D01*
X704850Y8802D01*
X707502Y9151D01*
X709974Y10175D01*
X712096Y11804D01*
X713725Y13926D01*
X714749Y16398D01*
X715098Y19050D01*
X714749Y21702D01*
X713725Y24174D01*
X712096Y26296D01*
X709974Y27925D01*
X707502Y28949D01*
X704850Y29298D01*
X702198Y28949D01*
X699726Y27925D01*
X697604Y26296D01*
X697029Y25548D01*
X695759Y25979D01*
Y37521D01*
X697029Y37952D01*
X697604Y37204D01*
X699726Y35575D01*
X702198Y34551D01*
X704850Y34202D01*
X707502Y34551D01*
X709974Y35575D01*
X712096Y37204D01*
X713725Y39326D01*
X714749Y41798D01*
X715098Y44450D01*
X714749Y47102D01*
X713725Y49574D01*
X712096Y51696D01*
X709974Y53325D01*
X707502Y54349D01*
X704850Y54698D01*
X702198Y54349D01*
X699726Y53325D01*
X697858Y51891D01*
X696913Y52056D01*
X696460Y52292D01*
X696413Y52498D01*
X720102Y76188D01*
X720885Y77359D01*
X721159Y78740D01*
Y494721D01*
X722429Y495152D01*
X723004Y494404D01*
X725126Y492775D01*
X727598Y491752D01*
X730250Y491402D01*
X732902Y491752D01*
X735374Y492775D01*
X737496Y494404D01*
X739125Y496526D01*
X740148Y498998D01*
X740498Y501650D01*
X740148Y504302D01*
X739125Y506774D01*
X737496Y508896D01*
X735374Y510525D01*
X732902Y511549D01*
X730250Y511898D01*
X727598Y511549D01*
X725126Y510525D01*
X723004Y508896D01*
X722429Y508148D01*
X721159Y508579D01*
Y520121D01*
X722429Y520552D01*
X723004Y519804D01*
X725126Y518175D01*
X727598Y517151D01*
X730250Y516802D01*
X732902Y517151D01*
X735374Y518175D01*
X737496Y519804D01*
X739125Y521926D01*
X740148Y524398D01*
X740498Y527050D01*
X740148Y529702D01*
X739125Y532174D01*
X737496Y534296D01*
X735374Y535925D01*
X733859Y536552D01*
Y544880D01*
X741290D01*
Y560960D01*
X721159D01*
Y571880D01*
X741290D01*
Y587960D01*
X733859D01*
Y662940D01*
X733585Y664321D01*
X732802Y665492D01*
X728707Y669587D01*
X729193Y670761D01*
X746535D01*
X752041Y665255D01*
Y587960D01*
X744610D01*
Y571880D01*
X766690D01*
Y587960D01*
X759259D01*
Y666750D01*
X758985Y668131D01*
X758202Y669302D01*
X750582Y676922D01*
X749411Y677705D01*
X748030Y677979D01*
X496570D01*
X495189Y677705D01*
X494018Y676922D01*
X486398Y669302D01*
X485615Y668131D01*
X485341Y666750D01*
Y657072D01*
X483887Y656470D01*
X481789Y654861D01*
X481572Y654577D01*
X480369Y654985D01*
Y666750D01*
X480056Y668326D01*
X479163Y669663D01*
X470273Y678553D01*
X468936Y679446D01*
X467360Y679759D01*
D02*
G37*
G36*
X198120Y537131D02*
Y528320D01*
X206931D01*
X206749Y529702D01*
X205725Y532174D01*
X204096Y534296D01*
X201974Y535925D01*
X199502Y536949D01*
X198120Y537131D01*
D02*
G37*
G36*
X195580D02*
X194198Y536949D01*
X191726Y535925D01*
X189604Y534296D01*
X187975Y532174D01*
X186952Y529702D01*
X186770Y528320D01*
X195580D01*
Y537131D01*
D02*
G37*
G36*
X206931Y525780D02*
X198120D01*
Y516969D01*
X199502Y517151D01*
X201974Y518175D01*
X204096Y519804D01*
X205725Y521926D01*
X206749Y524398D01*
X206931Y525780D01*
D02*
G37*
G36*
X195580D02*
X186770D01*
X186952Y524398D01*
X187975Y521926D01*
X189604Y519804D01*
X191726Y518175D01*
X194198Y517151D01*
X195580Y516969D01*
Y525780D01*
D02*
G37*
G36*
X766690Y560960D02*
X744610D01*
Y544880D01*
X752041D01*
Y536552D01*
X750526Y535925D01*
X748404Y534296D01*
X746775Y532174D01*
X745751Y529702D01*
X745402Y527050D01*
X745751Y524398D01*
X746775Y521926D01*
X748404Y519804D01*
X750526Y518175D01*
X752998Y517151D01*
X755650Y516802D01*
X758302Y517151D01*
X760774Y518175D01*
X762896Y519804D01*
X764525Y521926D01*
X765548Y524398D01*
X765898Y527050D01*
X765548Y529702D01*
X764525Y532174D01*
X762896Y534296D01*
X760774Y535925D01*
X759259Y536552D01*
Y544880D01*
X766690D01*
Y560960D01*
D02*
G37*
G36*
X222250Y537298D02*
X219598Y536949D01*
X217126Y535925D01*
X215004Y534296D01*
X213375Y532174D01*
X212351Y529702D01*
X212002Y527050D01*
X212351Y524398D01*
X213375Y521926D01*
X215004Y519804D01*
X217126Y518175D01*
X219598Y517151D01*
X222250Y516802D01*
X224902Y517151D01*
X227374Y518175D01*
X229496Y519804D01*
X231125Y521926D01*
X232148Y524398D01*
X232498Y527050D01*
X232148Y529702D01*
X231125Y532174D01*
X229496Y534296D01*
X227374Y535925D01*
X224902Y536949D01*
X222250Y537298D01*
D02*
G37*
G36*
X207010Y511810D02*
X198120D01*
Y502920D01*
X207010D01*
Y511810D01*
D02*
G37*
G36*
X195580D02*
X186690D01*
Y502920D01*
X195580D01*
Y511810D01*
D02*
G37*
G36*
X207010Y500380D02*
X198120D01*
Y491490D01*
X207010D01*
Y500380D01*
D02*
G37*
G36*
X195580D02*
X186690D01*
Y491490D01*
X195580D01*
Y500380D01*
D02*
G37*
G36*
X755650Y511898D02*
X752998Y511549D01*
X750526Y510525D01*
X748404Y508896D01*
X746775Y506774D01*
X745751Y504302D01*
X745402Y501650D01*
X745751Y498998D01*
X746775Y496526D01*
X748404Y494404D01*
X750526Y492775D01*
X752998Y491752D01*
X755650Y491402D01*
X758302Y491752D01*
X760774Y492775D01*
X762896Y494404D01*
X764525Y496526D01*
X765548Y498998D01*
X765898Y501650D01*
X765548Y504302D01*
X764525Y506774D01*
X762896Y508896D01*
X760774Y510525D01*
X758302Y511549D01*
X755650Y511898D01*
D02*
G37*
G36*
X222250D02*
X219598Y511549D01*
X217126Y510525D01*
X215004Y508896D01*
X213375Y506774D01*
X212351Y504302D01*
X212002Y501650D01*
X212351Y498998D01*
X213375Y496526D01*
X215004Y494404D01*
X217126Y492775D01*
X219598Y491752D01*
X222250Y491402D01*
X224902Y491752D01*
X227374Y492775D01*
X229496Y494404D01*
X231125Y496526D01*
X232148Y498998D01*
X232498Y501650D01*
X232148Y504302D01*
X231125Y506774D01*
X229496Y508896D01*
X227374Y510525D01*
X224902Y511549D01*
X222250Y511898D01*
D02*
G37*
G36*
X146050Y539235D02*
X141195Y538757D01*
X136527Y537341D01*
X132225Y535041D01*
X128454Y531946D01*
X125359Y528175D01*
X123059Y523873D01*
X121643Y519205D01*
X121165Y514350D01*
X121643Y509495D01*
X123059Y504827D01*
X125359Y500525D01*
X128454Y496754D01*
X132225Y493659D01*
X136527Y491359D01*
X141195Y489943D01*
X146050Y489465D01*
X150905Y489943D01*
X155573Y491359D01*
X159875Y493659D01*
X163646Y496754D01*
X166741Y500525D01*
X169041Y504827D01*
X170457Y509495D01*
X170935Y514350D01*
X170457Y519205D01*
X169041Y523873D01*
X166741Y528175D01*
X163646Y531946D01*
X159875Y535041D01*
X155573Y537341D01*
X150905Y538757D01*
X146050Y539235D01*
D02*
G37*
G36*
X806450Y507485D02*
X801595Y507007D01*
X796927Y505591D01*
X792625Y503291D01*
X788854Y500196D01*
X785759Y496425D01*
X783459Y492123D01*
X782043Y487455D01*
X781565Y482600D01*
X782043Y477745D01*
X783459Y473077D01*
X785759Y468775D01*
X788854Y465004D01*
X792625Y461909D01*
X796927Y459609D01*
X801595Y458193D01*
X806450Y457715D01*
X811305Y458193D01*
X815973Y459609D01*
X820275Y461909D01*
X824046Y465004D01*
X827141Y468775D01*
X829441Y473077D01*
X830857Y477745D01*
X831335Y482600D01*
X830857Y487455D01*
X829441Y492123D01*
X827141Y496425D01*
X824046Y500196D01*
X820275Y503291D01*
X815973Y505591D01*
X811305Y507007D01*
X806450Y507485D01*
D02*
G37*
G36*
X772160Y406669D02*
Y397980D01*
X780849D01*
X780672Y399331D01*
X779660Y401773D01*
X778051Y403871D01*
X775953Y405480D01*
X773511Y406492D01*
X772160Y406669D01*
D02*
G37*
G36*
X769620D02*
X768269Y406492D01*
X765827Y405480D01*
X763729Y403871D01*
X762120Y401773D01*
X761108Y399331D01*
X760931Y397980D01*
X769620D01*
Y406669D01*
D02*
G37*
G36*
X780849Y395440D02*
X772160D01*
Y386751D01*
X773511Y386928D01*
X775953Y387940D01*
X778051Y389549D01*
X779660Y391647D01*
X780672Y394089D01*
X780849Y395440D01*
D02*
G37*
G36*
X769620D02*
X760931D01*
X761108Y394089D01*
X762120Y391647D01*
X763729Y389549D01*
X765827Y387940D01*
X768269Y386928D01*
X769620Y386751D01*
Y395440D01*
D02*
G37*
G36*
X770890Y381837D02*
X768269Y381492D01*
X765827Y380480D01*
X763729Y378871D01*
X762120Y376773D01*
X761108Y374331D01*
X760763Y371710D01*
X761108Y369089D01*
X762120Y366647D01*
X763729Y364549D01*
X765827Y362940D01*
X768269Y361928D01*
X770890Y361583D01*
X773511Y361928D01*
X775953Y362940D01*
X778051Y364549D01*
X779660Y366647D01*
X780672Y369089D01*
X781017Y371710D01*
X780672Y374331D01*
X779660Y376773D01*
X778051Y378871D01*
X775953Y380480D01*
X773511Y381492D01*
X770890Y381837D01*
D02*
G37*
G36*
Y356837D02*
X768269Y356492D01*
X765827Y355480D01*
X763729Y353871D01*
X762120Y351773D01*
X761108Y349331D01*
X760763Y346710D01*
X761108Y344089D01*
X762120Y341647D01*
X763729Y339549D01*
X765827Y337940D01*
X768269Y336928D01*
X770890Y336583D01*
X773511Y336928D01*
X775953Y337940D01*
X778051Y339549D01*
X779660Y341647D01*
X780672Y344089D01*
X781017Y346710D01*
X780672Y349331D01*
X779660Y351773D01*
X778051Y353871D01*
X775953Y355480D01*
X773511Y356492D01*
X770890Y356837D01*
D02*
G37*
G36*
Y331837D02*
X768269Y331492D01*
X765827Y330480D01*
X763877Y328984D01*
X752171D01*
X752171Y328984D01*
X751056Y328838D01*
X749941Y328691D01*
X747864Y327830D01*
X746080Y326461D01*
X746080Y326461D01*
X740669Y321051D01*
X739300Y319267D01*
X738796Y318050D01*
X738440Y317189D01*
X738146Y314960D01*
Y187960D01*
X738440Y185731D01*
X738796Y184870D01*
X739300Y183653D01*
X740669Y181869D01*
X745749Y176789D01*
X747533Y175420D01*
X749611Y174560D01*
X751840Y174266D01*
X751840Y174266D01*
X791825D01*
X792447Y173102D01*
X794352Y170781D01*
X796672Y168877D01*
X799320Y167462D01*
X802192Y166590D01*
X805180Y166296D01*
X808168Y166590D01*
X811040Y167462D01*
X813688Y168877D01*
X816009Y170781D01*
X817913Y173102D01*
X819328Y175750D01*
X820200Y178622D01*
X820494Y181610D01*
X820200Y184598D01*
X819328Y187470D01*
X817913Y190118D01*
X816009Y192439D01*
X813688Y194343D01*
X811040Y195758D01*
X808168Y196630D01*
X805180Y196924D01*
X802192Y196630D01*
X799320Y195758D01*
X796672Y194343D01*
X794352Y192439D01*
X793576Y191494D01*
X755408D01*
X755374Y191528D01*
Y311392D01*
X755739Y311757D01*
X769551D01*
X769561Y311758D01*
X770890Y311583D01*
X773511Y311928D01*
X775953Y312940D01*
X778051Y314549D01*
X779660Y316647D01*
X780672Y319089D01*
X781017Y321710D01*
X780672Y324331D01*
X779660Y326773D01*
X778051Y328871D01*
X775953Y330480D01*
X773511Y331492D01*
X770890Y331837D01*
D02*
G37*
G36*
X806450Y247599D02*
Y233680D01*
X820369D01*
X820200Y235398D01*
X819328Y238270D01*
X817913Y240918D01*
X816009Y243239D01*
X813688Y245143D01*
X811040Y246558D01*
X808168Y247430D01*
X806450Y247599D01*
D02*
G37*
G36*
X803910D02*
X802192Y247430D01*
X799320Y246558D01*
X796672Y245143D01*
X794352Y243239D01*
X792447Y240918D01*
X791032Y238270D01*
X790161Y235398D01*
X789991Y233680D01*
X803910D01*
Y247599D01*
D02*
G37*
G36*
X434340Y235283D02*
X431953Y234969D01*
X429729Y234047D01*
X427818Y232582D01*
X427208Y231786D01*
X417440D01*
Y232360D01*
X395360D01*
Y225609D01*
X242986Y73234D01*
X241937Y71868D01*
X241278Y70277D01*
X241054Y68570D01*
Y52195D01*
X240404Y51696D01*
X238775Y49574D01*
X237752Y47102D01*
X237402Y44450D01*
X237752Y41798D01*
X238775Y39326D01*
X240404Y37204D01*
X241054Y36705D01*
Y26795D01*
X240404Y26296D01*
X238775Y24174D01*
X237752Y21702D01*
X237402Y19050D01*
X237752Y16398D01*
X238775Y13926D01*
X240404Y11804D01*
X242526Y10175D01*
X244998Y9151D01*
X247650Y8802D01*
X250302Y9151D01*
X252774Y10175D01*
X254896Y11804D01*
X256525Y13926D01*
X257549Y16398D01*
X257898Y19050D01*
X257549Y21702D01*
X256525Y24174D01*
X254896Y26296D01*
X254246Y26795D01*
Y36705D01*
X254896Y37204D01*
X256525Y39326D01*
X257549Y41798D01*
X257898Y44450D01*
X257549Y47102D01*
X256525Y49574D01*
X254896Y51696D01*
X254246Y52195D01*
Y65838D01*
X394317Y205908D01*
X395360Y205155D01*
X395360Y204175D01*
Y198590D01*
X405130D01*
Y205360D01*
X396612D01*
X395565Y205360D01*
X394812Y206403D01*
X404689Y216280D01*
X417440D01*
Y218594D01*
X429050D01*
X429729Y218073D01*
X431953Y217151D01*
X434340Y216837D01*
X436727Y217151D01*
X438951Y218073D01*
X440862Y219538D01*
X442327Y221449D01*
X443249Y223673D01*
X443563Y226060D01*
X443249Y228447D01*
X442327Y230671D01*
X440862Y232582D01*
X438951Y234047D01*
X436727Y234969D01*
X434340Y235283D01*
D02*
G37*
G36*
X511810Y235116D02*
Y227330D01*
X519596D01*
X519449Y228447D01*
X518527Y230671D01*
X517062Y232582D01*
X515151Y234047D01*
X512927Y234969D01*
X511810Y235116D01*
D02*
G37*
G36*
X509270D02*
X508153Y234969D01*
X505929Y234047D01*
X504018Y232582D01*
X502553Y230671D01*
X501631Y228447D01*
X501484Y227330D01*
X509270D01*
Y235116D01*
D02*
G37*
G36*
X820369Y231140D02*
X806450D01*
Y217221D01*
X808168Y217390D01*
X811040Y218262D01*
X813688Y219677D01*
X816009Y221581D01*
X817913Y223902D01*
X819328Y226550D01*
X820200Y229422D01*
X820369Y231140D01*
D02*
G37*
G36*
X803910D02*
X789991D01*
X790161Y229422D01*
X791032Y226550D01*
X792447Y223902D01*
X794352Y221581D01*
X796672Y219677D01*
X799320Y218262D01*
X802192Y217390D01*
X803910Y217221D01*
Y231140D01*
D02*
G37*
G36*
X519596Y224790D02*
X511810D01*
Y217004D01*
X512927Y217151D01*
X515151Y218073D01*
X517062Y219538D01*
X518527Y221449D01*
X519449Y223673D01*
X519596Y224790D01*
D02*
G37*
G36*
X509270D02*
X501484D01*
X501631Y223673D01*
X502553Y221449D01*
X504018Y219538D01*
X505929Y218073D01*
X508153Y217151D01*
X509270Y217004D01*
Y224790D01*
D02*
G37*
G36*
X485140Y235283D02*
X482753Y234969D01*
X480529Y234047D01*
X478618Y232582D01*
X477153Y230671D01*
X476231Y228447D01*
X475917Y226060D01*
X476231Y223673D01*
X477153Y221449D01*
X478618Y219538D01*
X480529Y218073D01*
X482753Y217151D01*
X485140Y216837D01*
X487527Y217151D01*
X489751Y218073D01*
X491662Y219538D01*
X493127Y221449D01*
X494049Y223673D01*
X494363Y226060D01*
X494049Y228447D01*
X493127Y230671D01*
X491662Y232582D01*
X489751Y234047D01*
X487527Y234969D01*
X485140Y235283D01*
D02*
G37*
G36*
X459740D02*
X457353Y234969D01*
X455129Y234047D01*
X453218Y232582D01*
X451753Y230671D01*
X450831Y228447D01*
X450517Y226060D01*
X450831Y223673D01*
X451753Y221449D01*
X453218Y219538D01*
X455129Y218073D01*
X457353Y217151D01*
X459740Y216837D01*
X462127Y217151D01*
X464351Y218073D01*
X466262Y219538D01*
X467727Y221449D01*
X468649Y223673D01*
X468963Y226060D01*
X468649Y228447D01*
X467727Y230671D01*
X466262Y232582D01*
X464351Y234047D01*
X462127Y234969D01*
X459740Y235283D01*
D02*
G37*
G36*
X407670Y205360D02*
Y198590D01*
X417440D01*
Y205360D01*
X407670D01*
D02*
G37*
G36*
X417440Y196050D02*
X407670D01*
Y189280D01*
X417440D01*
Y196050D01*
D02*
G37*
G36*
X405130D02*
X395360D01*
Y189280D01*
X405130D01*
Y196050D01*
D02*
G37*
G36*
X540640Y188840D02*
X533870D01*
Y179070D01*
X540640D01*
Y188840D01*
D02*
G37*
G36*
X531330D02*
X524560D01*
Y179070D01*
X531330D01*
Y188840D01*
D02*
G37*
G36*
X567640D02*
X551560D01*
Y166760D01*
X551560D01*
Y165980D01*
X551560D01*
Y149004D01*
X517925Y115369D01*
X516500D01*
Y118060D01*
X494910D01*
X493640Y118060D01*
X493150Y118060D01*
X486209D01*
Y120425D01*
X507151Y141367D01*
X508153Y140951D01*
X510540Y140637D01*
X512927Y140951D01*
X515151Y141873D01*
X517062Y143338D01*
X518527Y145249D01*
X519449Y147473D01*
X519763Y149860D01*
X519449Y152247D01*
X518527Y154471D01*
X518014Y155141D01*
X518640Y156411D01*
X524560D01*
Y143900D01*
X540640D01*
Y165490D01*
X540640Y166760D01*
X540640Y167250D01*
Y176530D01*
X532600D01*
X524560D01*
Y167250D01*
X524560Y165980D01*
X524560Y165490D01*
Y163629D01*
X444500D01*
X443119Y163355D01*
X441948Y162572D01*
X438380Y159004D01*
X425196D01*
Y140716D01*
X443484D01*
Y153900D01*
X445995Y156411D01*
X451640D01*
X452266Y155141D01*
X451753Y154471D01*
X450831Y152247D01*
X450517Y149860D01*
X450831Y147473D01*
X451753Y145249D01*
X453218Y143338D01*
X455129Y141873D01*
X456131Y141458D01*
Y118060D01*
X448700D01*
Y101980D01*
X470780D01*
Y101980D01*
X471560D01*
Y101980D01*
X493150D01*
X494420Y101980D01*
X494910Y101980D01*
X516500D01*
Y108151D01*
X519420D01*
X520801Y108425D01*
X521972Y109208D01*
X556664Y143900D01*
X567640D01*
Y165980D01*
X567640D01*
Y166760D01*
X567640D01*
Y188840D01*
D02*
G37*
G36*
X770890Y306837D02*
X768269Y306492D01*
X765827Y305480D01*
X763729Y303871D01*
X762120Y301773D01*
X761108Y299331D01*
X760763Y296710D01*
X761108Y294089D01*
X762120Y291647D01*
X763729Y289549D01*
X765827Y287940D01*
X768269Y286928D01*
X770890Y286583D01*
X773511Y286928D01*
X775953Y287940D01*
X776157Y288096D01*
X837206D01*
Y139424D01*
X820420D01*
Y146050D01*
X789940D01*
Y115570D01*
X820420D01*
Y122196D01*
X842010D01*
X844239Y122490D01*
X845100Y122846D01*
X846317Y123350D01*
X848101Y124719D01*
X851911Y128529D01*
X853280Y130313D01*
X853784Y131530D01*
X854140Y132391D01*
X854434Y134620D01*
Y292024D01*
X854140Y294253D01*
X853280Y296331D01*
X851911Y298114D01*
X851911Y298115D01*
X847225Y302801D01*
X845441Y304170D01*
X844224Y304674D01*
X843363Y305030D01*
X841134Y305324D01*
X776157D01*
X775953Y305480D01*
X773511Y306492D01*
X770890Y306837D01*
D02*
G37*
G36*
X756920Y54531D02*
Y45720D01*
X765731D01*
X765548Y47102D01*
X764525Y49574D01*
X762896Y51696D01*
X760774Y53325D01*
X758302Y54349D01*
X756920Y54531D01*
D02*
G37*
G36*
X754380D02*
X752998Y54349D01*
X750526Y53325D01*
X748404Y51696D01*
X746775Y49574D01*
X745751Y47102D01*
X745570Y45720D01*
X754380D01*
Y54531D01*
D02*
G37*
G36*
X731520D02*
Y45720D01*
X740331D01*
X740148Y47102D01*
X739125Y49574D01*
X737496Y51696D01*
X735374Y53325D01*
X732902Y54349D01*
X731520Y54531D01*
D02*
G37*
G36*
X728980D02*
X727598Y54349D01*
X725126Y53325D01*
X723004Y51696D01*
X721375Y49574D01*
X720351Y47102D01*
X720170Y45720D01*
X728980D01*
Y54531D01*
D02*
G37*
G36*
X198120D02*
Y45720D01*
X206931D01*
X206749Y47102D01*
X205725Y49574D01*
X204096Y51696D01*
X201974Y53325D01*
X199502Y54349D01*
X198120Y54531D01*
D02*
G37*
G36*
X195580D02*
X194198Y54349D01*
X191726Y53325D01*
X189604Y51696D01*
X187975Y49574D01*
X186952Y47102D01*
X186770Y45720D01*
X195580D01*
Y54531D01*
D02*
G37*
G36*
X806450Y88385D02*
X801595Y87907D01*
X796927Y86491D01*
X792625Y84191D01*
X788854Y81096D01*
X785759Y77325D01*
X783459Y73023D01*
X782043Y68355D01*
X781565Y63500D01*
X782043Y58645D01*
X783459Y53977D01*
X785759Y49675D01*
X788854Y45904D01*
X792625Y42809D01*
X796927Y40509D01*
X801595Y39093D01*
X806450Y38615D01*
X811305Y39093D01*
X815973Y40509D01*
X820275Y42809D01*
X824046Y45904D01*
X827141Y49675D01*
X829441Y53977D01*
X830857Y58645D01*
X831335Y63500D01*
X830857Y68355D01*
X829441Y73023D01*
X827141Y77325D01*
X824046Y81096D01*
X820275Y84191D01*
X815973Y86491D01*
X811305Y87907D01*
X806450Y88385D01*
D02*
G37*
G36*
X765731Y43180D02*
X756920D01*
Y34369D01*
X758302Y34551D01*
X760774Y35575D01*
X762896Y37204D01*
X764525Y39326D01*
X765548Y41798D01*
X765731Y43180D01*
D02*
G37*
G36*
X754380D02*
X745570D01*
X745751Y41798D01*
X746775Y39326D01*
X748404Y37204D01*
X750526Y35575D01*
X752998Y34551D01*
X754380Y34369D01*
Y43180D01*
D02*
G37*
G36*
X740331D02*
X731520D01*
Y34369D01*
X732902Y34551D01*
X735374Y35575D01*
X737496Y37204D01*
X739125Y39326D01*
X740148Y41798D01*
X740331Y43180D01*
D02*
G37*
G36*
X728980D02*
X720170D01*
X720351Y41798D01*
X721375Y39326D01*
X723004Y37204D01*
X725126Y35575D01*
X727598Y34551D01*
X728980Y34369D01*
Y43180D01*
D02*
G37*
G36*
X206931D02*
X198120D01*
Y34369D01*
X199502Y34551D01*
X201974Y35575D01*
X204096Y37204D01*
X205725Y39326D01*
X206749Y41798D01*
X206931Y43180D01*
D02*
G37*
G36*
X195580D02*
X186770D01*
X186952Y41798D01*
X187975Y39326D01*
X189604Y37204D01*
X191726Y35575D01*
X194198Y34551D01*
X195580Y34369D01*
Y43180D01*
D02*
G37*
G36*
X603250Y54698D02*
X600598Y54349D01*
X598126Y53325D01*
X596004Y51696D01*
X594375Y49574D01*
X593352Y47102D01*
X593002Y44450D01*
X593352Y41798D01*
X594375Y39326D01*
X596004Y37204D01*
X598126Y35575D01*
X600598Y34551D01*
X603250Y34202D01*
X605902Y34551D01*
X608374Y35575D01*
X610496Y37204D01*
X612125Y39326D01*
X613148Y41798D01*
X613498Y44450D01*
X613148Y47102D01*
X612125Y49574D01*
X610496Y51696D01*
X608374Y53325D01*
X605902Y54349D01*
X603250Y54698D01*
D02*
G37*
G36*
X577850D02*
X575198Y54349D01*
X572726Y53325D01*
X570604Y51696D01*
X568975Y49574D01*
X567952Y47102D01*
X567602Y44450D01*
X567952Y41798D01*
X568975Y39326D01*
X570604Y37204D01*
X572726Y35575D01*
X575198Y34551D01*
X577850Y34202D01*
X580502Y34551D01*
X582974Y35575D01*
X585096Y37204D01*
X586725Y39326D01*
X587748Y41798D01*
X588098Y44450D01*
X587748Y47102D01*
X586725Y49574D01*
X585096Y51696D01*
X582974Y53325D01*
X580502Y54349D01*
X577850Y54698D01*
D02*
G37*
G36*
X552450D02*
X549798Y54349D01*
X547326Y53325D01*
X545204Y51696D01*
X543575Y49574D01*
X542551Y47102D01*
X542202Y44450D01*
X542551Y41798D01*
X543575Y39326D01*
X545204Y37204D01*
X547326Y35575D01*
X549798Y34551D01*
X552450Y34202D01*
X555102Y34551D01*
X557574Y35575D01*
X559696Y37204D01*
X561325Y39326D01*
X562349Y41798D01*
X562698Y44450D01*
X562349Y47102D01*
X561325Y49574D01*
X559696Y51696D01*
X557574Y53325D01*
X555102Y54349D01*
X552450Y54698D01*
D02*
G37*
G36*
X527050D02*
X524398Y54349D01*
X521926Y53325D01*
X519804Y51696D01*
X518175Y49574D01*
X517151Y47102D01*
X516802Y44450D01*
X517151Y41798D01*
X518175Y39326D01*
X519804Y37204D01*
X521926Y35575D01*
X524398Y34551D01*
X527050Y34202D01*
X529702Y34551D01*
X532174Y35575D01*
X534296Y37204D01*
X535925Y39326D01*
X536949Y41798D01*
X537298Y44450D01*
X536949Y47102D01*
X535925Y49574D01*
X534296Y51696D01*
X532174Y53325D01*
X529702Y54349D01*
X527050Y54698D01*
D02*
G37*
G36*
X470780Y91060D02*
Y91060D01*
X448700D01*
Y74980D01*
X459941D01*
Y51379D01*
X458671Y50948D01*
X458096Y51696D01*
X455974Y53325D01*
X453502Y54349D01*
X450850Y54698D01*
X448198Y54349D01*
X445726Y53325D01*
X443604Y51696D01*
X441975Y49574D01*
X440951Y47102D01*
X440602Y44450D01*
X440951Y41798D01*
X441975Y39326D01*
X443604Y37204D01*
X445726Y35575D01*
X448198Y34551D01*
X450850Y34202D01*
X453502Y34551D01*
X455974Y35575D01*
X458096Y37204D01*
X458671Y37952D01*
X459941Y37521D01*
Y31750D01*
X460215Y30369D01*
X460998Y29198D01*
X466979Y23217D01*
X466352Y21702D01*
X466002Y19050D01*
X466352Y16398D01*
X467375Y13926D01*
X469004Y11804D01*
X471126Y10175D01*
X473598Y9151D01*
X476250Y8802D01*
X478902Y9151D01*
X481374Y10175D01*
X483496Y11804D01*
X485125Y13926D01*
X486148Y16398D01*
X486498Y19050D01*
X486148Y21702D01*
X485125Y24174D01*
X483496Y26296D01*
X481374Y27925D01*
X478902Y28949D01*
X476250Y29298D01*
X473598Y28949D01*
X472083Y28321D01*
X467159Y33245D01*
Y37521D01*
X468429Y37952D01*
X469004Y37204D01*
X471126Y35575D01*
X473598Y34551D01*
X476250Y34202D01*
X478902Y34551D01*
X481374Y35575D01*
X483496Y37204D01*
X485125Y39326D01*
X486148Y41798D01*
X486498Y44450D01*
X486148Y47102D01*
X485125Y49574D01*
X484706Y50120D01*
X485152Y50567D01*
X485935Y51738D01*
X486209Y53119D01*
Y74980D01*
X493150D01*
X494420Y74980D01*
X494910Y74980D01*
X501851D01*
Y54874D01*
X501650Y54698D01*
X498998Y54349D01*
X496526Y53325D01*
X494404Y51696D01*
X492775Y49574D01*
X491752Y47102D01*
X491402Y44450D01*
X491752Y41798D01*
X492775Y39326D01*
X494404Y37204D01*
X496526Y35575D01*
X498998Y34551D01*
X501650Y34202D01*
X504302Y34551D01*
X506774Y35575D01*
X508896Y37204D01*
X510525Y39326D01*
X511549Y41798D01*
X511898Y44450D01*
X511549Y47102D01*
X510525Y49574D01*
X509069Y51471D01*
Y74980D01*
X516500D01*
Y91060D01*
X494910D01*
X493640Y91060D01*
X493150Y91060D01*
X471560D01*
Y91060D01*
X470780D01*
D02*
G37*
G36*
X425450Y54698D02*
X422798Y54349D01*
X420326Y53325D01*
X418204Y51696D01*
X416575Y49574D01*
X415551Y47102D01*
X415202Y44450D01*
X415551Y41798D01*
X416575Y39326D01*
X418204Y37204D01*
X420326Y35575D01*
X422798Y34551D01*
X425450Y34202D01*
X428102Y34551D01*
X430574Y35575D01*
X432696Y37204D01*
X434325Y39326D01*
X435349Y41798D01*
X435698Y44450D01*
X435349Y47102D01*
X434325Y49574D01*
X432696Y51696D01*
X430574Y53325D01*
X428102Y54349D01*
X425450Y54698D01*
D02*
G37*
G36*
X400050D02*
X397398Y54349D01*
X394926Y53325D01*
X392804Y51696D01*
X391175Y49574D01*
X390151Y47102D01*
X389802Y44450D01*
X390151Y41798D01*
X391175Y39326D01*
X392804Y37204D01*
X394926Y35575D01*
X397398Y34551D01*
X400050Y34202D01*
X402702Y34551D01*
X405174Y35575D01*
X407296Y37204D01*
X408925Y39326D01*
X409949Y41798D01*
X410298Y44450D01*
X409949Y47102D01*
X408925Y49574D01*
X407296Y51696D01*
X405174Y53325D01*
X402702Y54349D01*
X400050Y54698D01*
D02*
G37*
G36*
X374650D02*
X371998Y54349D01*
X369526Y53325D01*
X367404Y51696D01*
X365775Y49574D01*
X364752Y47102D01*
X364402Y44450D01*
X364752Y41798D01*
X365775Y39326D01*
X367404Y37204D01*
X369526Y35575D01*
X371998Y34551D01*
X374650Y34202D01*
X377302Y34551D01*
X379774Y35575D01*
X381896Y37204D01*
X383525Y39326D01*
X384548Y41798D01*
X384898Y44450D01*
X384548Y47102D01*
X383525Y49574D01*
X381896Y51696D01*
X379774Y53325D01*
X377302Y54349D01*
X374650Y54698D01*
D02*
G37*
G36*
X349250D02*
X346598Y54349D01*
X344126Y53325D01*
X342004Y51696D01*
X340375Y49574D01*
X339352Y47102D01*
X339002Y44450D01*
X339352Y41798D01*
X340375Y39326D01*
X342004Y37204D01*
X344126Y35575D01*
X346598Y34551D01*
X349250Y34202D01*
X351902Y34551D01*
X354374Y35575D01*
X356496Y37204D01*
X358125Y39326D01*
X359148Y41798D01*
X359498Y44450D01*
X359148Y47102D01*
X358125Y49574D01*
X356496Y51696D01*
X354374Y53325D01*
X351902Y54349D01*
X349250Y54698D01*
D02*
G37*
G36*
X323850D02*
X321198Y54349D01*
X318726Y53325D01*
X316604Y51696D01*
X314975Y49574D01*
X313951Y47102D01*
X313602Y44450D01*
X313951Y41798D01*
X314975Y39326D01*
X316604Y37204D01*
X318726Y35575D01*
X321198Y34551D01*
X323850Y34202D01*
X326502Y34551D01*
X328974Y35575D01*
X331096Y37204D01*
X332725Y39326D01*
X333749Y41798D01*
X334098Y44450D01*
X333749Y47102D01*
X332725Y49574D01*
X331096Y51696D01*
X328974Y53325D01*
X326502Y54349D01*
X323850Y54698D01*
D02*
G37*
G36*
X298450D02*
X295798Y54349D01*
X293326Y53325D01*
X291204Y51696D01*
X289575Y49574D01*
X288552Y47102D01*
X288202Y44450D01*
X288552Y41798D01*
X289575Y39326D01*
X291204Y37204D01*
X293326Y35575D01*
X295798Y34551D01*
X298450Y34202D01*
X301102Y34551D01*
X303574Y35575D01*
X305696Y37204D01*
X307325Y39326D01*
X308349Y41798D01*
X308698Y44450D01*
X308349Y47102D01*
X307325Y49574D01*
X305696Y51696D01*
X303574Y53325D01*
X301102Y54349D01*
X298450Y54698D01*
D02*
G37*
G36*
X273050D02*
X270398Y54349D01*
X267926Y53325D01*
X265804Y51696D01*
X264175Y49574D01*
X263151Y47102D01*
X262802Y44450D01*
X263151Y41798D01*
X264175Y39326D01*
X265804Y37204D01*
X267926Y35575D01*
X270398Y34551D01*
X273050Y34202D01*
X275702Y34551D01*
X278174Y35575D01*
X280296Y37204D01*
X281925Y39326D01*
X282948Y41798D01*
X283298Y44450D01*
X282948Y47102D01*
X281925Y49574D01*
X280296Y51696D01*
X278174Y53325D01*
X275702Y54349D01*
X273050Y54698D01*
D02*
G37*
G36*
X756920Y29130D02*
Y20320D01*
X765731D01*
X765548Y21702D01*
X764525Y24174D01*
X762896Y26296D01*
X760774Y27925D01*
X758302Y28949D01*
X756920Y29130D01*
D02*
G37*
G36*
X754380D02*
X752998Y28949D01*
X750526Y27925D01*
X748404Y26296D01*
X746775Y24174D01*
X745751Y21702D01*
X745570Y20320D01*
X754380D01*
Y29130D01*
D02*
G37*
G36*
X731520D02*
Y20320D01*
X740331D01*
X740148Y21702D01*
X739125Y24174D01*
X737496Y26296D01*
X735374Y27925D01*
X732902Y28949D01*
X731520Y29130D01*
D02*
G37*
G36*
X728980D02*
X727598Y28949D01*
X725126Y27925D01*
X723004Y26296D01*
X721375Y24174D01*
X720351Y21702D01*
X720170Y20320D01*
X728980D01*
Y29130D01*
D02*
G37*
G36*
X207010Y29210D02*
X198120D01*
Y20320D01*
X207010D01*
Y29210D01*
D02*
G37*
G36*
X195580D02*
X186690D01*
Y20320D01*
X195580D01*
Y29210D01*
D02*
G37*
G36*
X765731Y17780D02*
X756920D01*
Y8970D01*
X758302Y9151D01*
X760774Y10175D01*
X762896Y11804D01*
X764525Y13926D01*
X765548Y16398D01*
X765731Y17780D01*
D02*
G37*
G36*
X754380D02*
X745570D01*
X745751Y16398D01*
X746775Y13926D01*
X748404Y11804D01*
X750526Y10175D01*
X752998Y9151D01*
X754380Y8970D01*
Y17780D01*
D02*
G37*
G36*
X740331D02*
X731520D01*
Y8970D01*
X732902Y9151D01*
X735374Y10175D01*
X737496Y11804D01*
X739125Y13926D01*
X740148Y16398D01*
X740331Y17780D01*
D02*
G37*
G36*
X728980D02*
X720170D01*
X720351Y16398D01*
X721375Y13926D01*
X723004Y11804D01*
X725126Y10175D01*
X727598Y9151D01*
X728980Y8970D01*
Y17780D01*
D02*
G37*
G36*
X207010D02*
X198120D01*
Y8890D01*
X207010D01*
Y17780D01*
D02*
G37*
G36*
X195580D02*
X186690D01*
Y8890D01*
X195580D01*
Y17780D01*
D02*
G37*
G36*
X628650Y29298D02*
X625998Y28949D01*
X623526Y27925D01*
X621404Y26296D01*
X619775Y24174D01*
X618751Y21702D01*
X618402Y19050D01*
X618751Y16398D01*
X619775Y13926D01*
X621404Y11804D01*
X623526Y10175D01*
X625998Y9151D01*
X628650Y8802D01*
X631302Y9151D01*
X633774Y10175D01*
X635896Y11804D01*
X637525Y13926D01*
X638549Y16398D01*
X638898Y19050D01*
X638549Y21702D01*
X637525Y24174D01*
X635896Y26296D01*
X633774Y27925D01*
X631302Y28949D01*
X628650Y29298D01*
D02*
G37*
G36*
X603250D02*
X600598Y28949D01*
X598126Y27925D01*
X596004Y26296D01*
X594375Y24174D01*
X593352Y21702D01*
X593002Y19050D01*
X593352Y16398D01*
X594375Y13926D01*
X596004Y11804D01*
X598126Y10175D01*
X600598Y9151D01*
X603250Y8802D01*
X605902Y9151D01*
X608374Y10175D01*
X610496Y11804D01*
X612125Y13926D01*
X613148Y16398D01*
X613498Y19050D01*
X613148Y21702D01*
X612125Y24174D01*
X610496Y26296D01*
X608374Y27925D01*
X605902Y28949D01*
X603250Y29298D01*
D02*
G37*
G36*
X577850D02*
X575198Y28949D01*
X572726Y27925D01*
X570604Y26296D01*
X568975Y24174D01*
X567952Y21702D01*
X567602Y19050D01*
X567952Y16398D01*
X568975Y13926D01*
X570604Y11804D01*
X572726Y10175D01*
X575198Y9151D01*
X577850Y8802D01*
X580502Y9151D01*
X582974Y10175D01*
X585096Y11804D01*
X586725Y13926D01*
X587748Y16398D01*
X588098Y19050D01*
X587748Y21702D01*
X586725Y24174D01*
X585096Y26296D01*
X582974Y27925D01*
X580502Y28949D01*
X577850Y29298D01*
D02*
G37*
G36*
X552450D02*
X549798Y28949D01*
X547326Y27925D01*
X545204Y26296D01*
X543575Y24174D01*
X542551Y21702D01*
X542202Y19050D01*
X542551Y16398D01*
X543575Y13926D01*
X545204Y11804D01*
X547326Y10175D01*
X549798Y9151D01*
X552450Y8802D01*
X555102Y9151D01*
X557574Y10175D01*
X559696Y11804D01*
X561325Y13926D01*
X562349Y16398D01*
X562698Y19050D01*
X562349Y21702D01*
X561325Y24174D01*
X559696Y26296D01*
X557574Y27925D01*
X555102Y28949D01*
X552450Y29298D01*
D02*
G37*
G36*
X527050D02*
X524398Y28949D01*
X521926Y27925D01*
X519804Y26296D01*
X518175Y24174D01*
X517151Y21702D01*
X516802Y19050D01*
X517151Y16398D01*
X518175Y13926D01*
X519804Y11804D01*
X521926Y10175D01*
X524398Y9151D01*
X527050Y8802D01*
X529702Y9151D01*
X532174Y10175D01*
X534296Y11804D01*
X535925Y13926D01*
X536949Y16398D01*
X537298Y19050D01*
X536949Y21702D01*
X535925Y24174D01*
X534296Y26296D01*
X532174Y27925D01*
X529702Y28949D01*
X527050Y29298D01*
D02*
G37*
G36*
X501650D02*
X498998Y28949D01*
X496526Y27925D01*
X494404Y26296D01*
X492775Y24174D01*
X491752Y21702D01*
X491402Y19050D01*
X491752Y16398D01*
X492775Y13926D01*
X494404Y11804D01*
X496526Y10175D01*
X498998Y9151D01*
X501650Y8802D01*
X504302Y9151D01*
X506774Y10175D01*
X508896Y11804D01*
X510525Y13926D01*
X511549Y16398D01*
X511898Y19050D01*
X511549Y21702D01*
X510525Y24174D01*
X508896Y26296D01*
X506774Y27925D01*
X504302Y28949D01*
X501650Y29298D01*
D02*
G37*
G36*
X450850D02*
X448198Y28949D01*
X445726Y27925D01*
X443604Y26296D01*
X441975Y24174D01*
X440951Y21702D01*
X440602Y19050D01*
X440951Y16398D01*
X441975Y13926D01*
X443604Y11804D01*
X445726Y10175D01*
X448198Y9151D01*
X450850Y8802D01*
X453502Y9151D01*
X455974Y10175D01*
X458096Y11804D01*
X459725Y13926D01*
X460748Y16398D01*
X461098Y19050D01*
X460748Y21702D01*
X459725Y24174D01*
X458096Y26296D01*
X455974Y27925D01*
X453502Y28949D01*
X450850Y29298D01*
D02*
G37*
G36*
X425450D02*
X422798Y28949D01*
X420326Y27925D01*
X418204Y26296D01*
X416575Y24174D01*
X415551Y21702D01*
X415202Y19050D01*
X415551Y16398D01*
X416575Y13926D01*
X418204Y11804D01*
X420326Y10175D01*
X422798Y9151D01*
X425450Y8802D01*
X428102Y9151D01*
X430574Y10175D01*
X432696Y11804D01*
X434325Y13926D01*
X435349Y16398D01*
X435698Y19050D01*
X435349Y21702D01*
X434325Y24174D01*
X432696Y26296D01*
X430574Y27925D01*
X428102Y28949D01*
X425450Y29298D01*
D02*
G37*
G36*
X400050D02*
X397398Y28949D01*
X394926Y27925D01*
X392804Y26296D01*
X391175Y24174D01*
X390151Y21702D01*
X389802Y19050D01*
X390151Y16398D01*
X391175Y13926D01*
X392804Y11804D01*
X394926Y10175D01*
X397398Y9151D01*
X400050Y8802D01*
X402702Y9151D01*
X405174Y10175D01*
X407296Y11804D01*
X408925Y13926D01*
X409949Y16398D01*
X410298Y19050D01*
X409949Y21702D01*
X408925Y24174D01*
X407296Y26296D01*
X405174Y27925D01*
X402702Y28949D01*
X400050Y29298D01*
D02*
G37*
G36*
X374650D02*
X371998Y28949D01*
X369526Y27925D01*
X367404Y26296D01*
X365775Y24174D01*
X364752Y21702D01*
X364402Y19050D01*
X364752Y16398D01*
X365775Y13926D01*
X367404Y11804D01*
X369526Y10175D01*
X371998Y9151D01*
X374650Y8802D01*
X377302Y9151D01*
X379774Y10175D01*
X381896Y11804D01*
X383525Y13926D01*
X384548Y16398D01*
X384898Y19050D01*
X384548Y21702D01*
X383525Y24174D01*
X381896Y26296D01*
X379774Y27925D01*
X377302Y28949D01*
X374650Y29298D01*
D02*
G37*
G36*
X349250D02*
X346598Y28949D01*
X344126Y27925D01*
X342004Y26296D01*
X340375Y24174D01*
X339352Y21702D01*
X339002Y19050D01*
X339352Y16398D01*
X340375Y13926D01*
X342004Y11804D01*
X344126Y10175D01*
X346598Y9151D01*
X349250Y8802D01*
X351902Y9151D01*
X354374Y10175D01*
X356496Y11804D01*
X358125Y13926D01*
X359148Y16398D01*
X359498Y19050D01*
X359148Y21702D01*
X358125Y24174D01*
X356496Y26296D01*
X354374Y27925D01*
X351902Y28949D01*
X349250Y29298D01*
D02*
G37*
G36*
X323850D02*
X321198Y28949D01*
X318726Y27925D01*
X316604Y26296D01*
X314975Y24174D01*
X313951Y21702D01*
X313602Y19050D01*
X313951Y16398D01*
X314975Y13926D01*
X316604Y11804D01*
X318726Y10175D01*
X321198Y9151D01*
X323850Y8802D01*
X326502Y9151D01*
X328974Y10175D01*
X331096Y11804D01*
X332725Y13926D01*
X333749Y16398D01*
X334098Y19050D01*
X333749Y21702D01*
X332725Y24174D01*
X331096Y26296D01*
X328974Y27925D01*
X326502Y28949D01*
X323850Y29298D01*
D02*
G37*
G36*
X298450D02*
X295798Y28949D01*
X293326Y27925D01*
X291204Y26296D01*
X289575Y24174D01*
X288552Y21702D01*
X288202Y19050D01*
X288552Y16398D01*
X289575Y13926D01*
X291204Y11804D01*
X293326Y10175D01*
X295798Y9151D01*
X298450Y8802D01*
X301102Y9151D01*
X303574Y10175D01*
X305696Y11804D01*
X307325Y13926D01*
X308349Y16398D01*
X308698Y19050D01*
X308349Y21702D01*
X307325Y24174D01*
X305696Y26296D01*
X303574Y27925D01*
X301102Y28949D01*
X298450Y29298D01*
D02*
G37*
G36*
X273050D02*
X270398Y28949D01*
X267926Y27925D01*
X265804Y26296D01*
X264175Y24174D01*
X263151Y21702D01*
X262802Y19050D01*
X263151Y16398D01*
X264175Y13926D01*
X265804Y11804D01*
X267926Y10175D01*
X270398Y9151D01*
X273050Y8802D01*
X275702Y9151D01*
X278174Y10175D01*
X280296Y11804D01*
X281925Y13926D01*
X282948Y16398D01*
X283298Y19050D01*
X282948Y21702D01*
X281925Y24174D01*
X280296Y26296D01*
X278174Y27925D01*
X275702Y28949D01*
X273050Y29298D01*
D02*
G37*
G36*
X146050Y56635D02*
X141195Y56157D01*
X136527Y54741D01*
X132225Y52441D01*
X128454Y49346D01*
X125359Y45575D01*
X123059Y41273D01*
X121643Y36605D01*
X121165Y31750D01*
X121643Y26895D01*
X123059Y22227D01*
X125359Y17925D01*
X128454Y14154D01*
X132225Y11059D01*
X136527Y8759D01*
X141195Y7343D01*
X146050Y6865D01*
X150905Y7343D01*
X155573Y8759D01*
X159875Y11059D01*
X163646Y14154D01*
X166741Y17925D01*
X169041Y22227D01*
X170457Y26895D01*
X170935Y31750D01*
X170457Y36605D01*
X169041Y41273D01*
X166741Y45575D01*
X163646Y49346D01*
X159875Y52441D01*
X155573Y54741D01*
X150905Y56157D01*
X146050Y56635D01*
D02*
G37*
%LPD*%
G36*
X472131Y665044D02*
Y654985D01*
X470928Y654577D01*
X470711Y654861D01*
X468613Y656470D01*
X466171Y657482D01*
X463550Y657827D01*
X460929Y657482D01*
X458487Y656470D01*
X457389Y655628D01*
X456119Y656254D01*
Y665090D01*
X455845Y666471D01*
X455062Y667642D01*
X452357Y670348D01*
X452843Y671521D01*
X465654D01*
X472131Y665044D01*
D02*
G37*
G36*
X421841Y658905D02*
Y654432D01*
X420571Y654000D01*
X419911Y654861D01*
X417813Y656470D01*
X415371Y657482D01*
X412750Y657827D01*
X410129Y657482D01*
X407687Y656470D01*
X405589Y654861D01*
X403980Y652763D01*
X402968Y650321D01*
X402623Y647700D01*
X402968Y645079D01*
X403980Y642637D01*
X405589Y640539D01*
X407687Y638930D01*
X410129Y637918D01*
X412750Y637573D01*
X415371Y637918D01*
X417813Y638930D01*
X419911Y640539D01*
X420571Y641400D01*
X421841Y640968D01*
Y629031D01*
X420571Y628600D01*
X419911Y629461D01*
X417813Y631070D01*
X415371Y632082D01*
X412750Y632427D01*
X410129Y632082D01*
X407687Y631070D01*
X405589Y629461D01*
X403980Y627363D01*
X402968Y624921D01*
X402623Y622300D01*
X402968Y619679D01*
X403980Y617237D01*
X405589Y615139D01*
X407687Y613530D01*
X410129Y612518D01*
X412750Y612173D01*
X415371Y612518D01*
X417813Y613530D01*
X419911Y615139D01*
X420571Y616000D01*
X421841Y615569D01*
Y588010D01*
X422115Y586629D01*
X422898Y585458D01*
X447028Y561328D01*
X448199Y560545D01*
X449580Y560271D01*
X541410D01*
Y544880D01*
X548841D01*
Y536552D01*
X547326Y535925D01*
X545204Y534296D01*
X543575Y532174D01*
X542551Y529702D01*
X542202Y527050D01*
X542551Y524398D01*
X543575Y521926D01*
X545204Y519804D01*
X547326Y518175D01*
X549798Y517151D01*
X552450Y516802D01*
X555102Y517151D01*
X557574Y518175D01*
X559696Y519804D01*
X561325Y521926D01*
X562349Y524398D01*
X562698Y527050D01*
X562349Y529702D01*
X561325Y532174D01*
X559696Y534296D01*
X557574Y535925D01*
X556059Y536552D01*
Y544880D01*
X563490D01*
Y560271D01*
X566810D01*
Y544880D01*
X574241D01*
Y536552D01*
X572726Y535925D01*
X570604Y534296D01*
X568975Y532174D01*
X567952Y529702D01*
X567602Y527050D01*
X567952Y524398D01*
X568975Y521926D01*
X570604Y519804D01*
X572726Y518175D01*
X575198Y517151D01*
X577850Y516802D01*
X580502Y517151D01*
X582974Y518175D01*
X585096Y519804D01*
X586725Y521926D01*
X587748Y524398D01*
X588098Y527050D01*
X587748Y529702D01*
X586725Y532174D01*
X585096Y534296D01*
X582974Y535925D01*
X581459Y536552D01*
Y544880D01*
X588890D01*
Y560271D01*
X592210D01*
Y544880D01*
X599641D01*
Y536552D01*
X598126Y535925D01*
X596004Y534296D01*
X594375Y532174D01*
X593352Y529702D01*
X593002Y527050D01*
X593352Y524398D01*
X594375Y521926D01*
X596004Y519804D01*
X598126Y518175D01*
X600598Y517151D01*
X603250Y516802D01*
X605902Y517151D01*
X608374Y518175D01*
X610496Y519804D01*
X612125Y521926D01*
X613148Y524398D01*
X613498Y527050D01*
X613148Y529702D01*
X612125Y532174D01*
X610496Y534296D01*
X608374Y535925D01*
X606859Y536552D01*
Y544880D01*
X614290D01*
Y560960D01*
X599610D01*
X599084Y562230D01*
X605802Y568948D01*
X606585Y570119D01*
X606859Y571500D01*
Y571880D01*
X613001D01*
Y570840D01*
X613275Y569459D01*
X614058Y568288D01*
X617208Y565138D01*
X618379Y564355D01*
X619760Y564081D01*
X640080D01*
X641461Y564355D01*
X642632Y565138D01*
X645172Y567678D01*
X645955Y568849D01*
X646229Y570230D01*
Y594010D01*
X647499Y594536D01*
X650441Y591595D01*
Y552675D01*
X640068Y542302D01*
X639285Y541131D01*
X639011Y539750D01*
Y531905D01*
X637741Y531653D01*
X637525Y532174D01*
X635896Y534296D01*
X633774Y535925D01*
X632259Y536552D01*
Y544880D01*
X639690D01*
Y560960D01*
X617610D01*
Y544880D01*
X625041D01*
Y536552D01*
X623526Y535925D01*
X621404Y534296D01*
X619775Y532174D01*
X618751Y529702D01*
X618402Y527050D01*
X618751Y524398D01*
X619775Y521926D01*
X621404Y519804D01*
X623526Y518175D01*
X625998Y517151D01*
X628650Y516802D01*
X631302Y517151D01*
X633774Y518175D01*
X635896Y519804D01*
X637525Y521926D01*
X637741Y522447D01*
X639011Y522195D01*
Y506505D01*
X637741Y506253D01*
X637525Y506774D01*
X635896Y508896D01*
X633774Y510525D01*
X631302Y511549D01*
X628650Y511898D01*
X625998Y511549D01*
X623526Y510525D01*
X621404Y508896D01*
X619775Y506774D01*
X618751Y504302D01*
X618402Y501650D01*
X618751Y498998D01*
X619775Y496526D01*
X621404Y494404D01*
X623526Y492775D01*
X625041Y492148D01*
Y483820D01*
X617610D01*
Y467740D01*
X639011D01*
Y456820D01*
X617610D01*
Y440740D01*
X625041D01*
Y424405D01*
X623345Y422709D01*
X601060D01*
X600534Y423979D01*
X605802Y429248D01*
X606585Y430419D01*
X606859Y431800D01*
Y440740D01*
X614290D01*
Y456820D01*
X592210D01*
Y440740D01*
X599641D01*
Y433295D01*
X595405Y429059D01*
X573120D01*
X572594Y430329D01*
X580402Y438138D01*
X581185Y439309D01*
X581459Y440690D01*
Y440740D01*
X588890D01*
Y456820D01*
X566810D01*
Y440740D01*
X571136D01*
X571622Y439567D01*
X567465Y435409D01*
X367255D01*
X365559Y437105D01*
Y494721D01*
X366829Y495152D01*
X367404Y494404D01*
X369526Y492775D01*
X371998Y491752D01*
X374650Y491402D01*
X377302Y491752D01*
X379774Y492775D01*
X381896Y494404D01*
X383525Y496526D01*
X384548Y498998D01*
X384898Y501650D01*
X384548Y504302D01*
X383525Y506774D01*
X381896Y508896D01*
X379774Y510525D01*
X377302Y511549D01*
X374650Y511898D01*
X371998Y511549D01*
X369526Y510525D01*
X367404Y508896D01*
X366829Y508148D01*
X365559Y508579D01*
Y520121D01*
X366829Y520552D01*
X367404Y519804D01*
X369526Y518175D01*
X371998Y517151D01*
X374650Y516802D01*
X377302Y517151D01*
X379774Y518175D01*
X381896Y519804D01*
X383525Y521926D01*
X384548Y524398D01*
X384898Y527050D01*
X384548Y529702D01*
X383525Y532174D01*
X381896Y534296D01*
X379774Y535925D01*
X377302Y536949D01*
X374650Y537298D01*
X371998Y536949D01*
X369526Y535925D01*
X367404Y534296D01*
X366829Y533548D01*
X365559Y533979D01*
Y612928D01*
X367013Y613530D01*
X369111Y615139D01*
X370720Y617237D01*
X371732Y619679D01*
X372077Y622300D01*
X371732Y624921D01*
X370720Y627363D01*
X369111Y629461D01*
X367013Y631070D01*
X364571Y632082D01*
X361950Y632427D01*
X359329Y632082D01*
X356887Y631070D01*
X354789Y629461D01*
X353180Y627363D01*
X352168Y624921D01*
X351823Y622300D01*
X352168Y619679D01*
X353180Y617237D01*
X354789Y615139D01*
X356887Y613530D01*
X358341Y612928D01*
Y533979D01*
X357071Y533548D01*
X356496Y534296D01*
X354374Y535925D01*
X351902Y536949D01*
X349250Y537298D01*
X346598Y536949D01*
X344126Y535925D01*
X342004Y534296D01*
X341429Y533548D01*
X340159Y533979D01*
Y612928D01*
X341613Y613530D01*
X343711Y615139D01*
X345320Y617237D01*
X346332Y619679D01*
X346677Y622300D01*
X346332Y624921D01*
X345320Y627363D01*
X344026Y629050D01*
X344238Y630167D01*
X344286Y630281D01*
X344440Y630502D01*
X345452Y631178D01*
X351802Y637528D01*
X352585Y638699D01*
X352859Y640080D01*
Y640968D01*
X354129Y641400D01*
X354789Y640539D01*
X356887Y638930D01*
X359329Y637918D01*
X360680Y637741D01*
Y647700D01*
Y657659D01*
X359620Y657520D01*
X359066Y658318D01*
X358959Y658655D01*
X360905Y660601D01*
X420145D01*
X421841Y658905D01*
D02*
G37*
G36*
X448901Y663595D02*
Y651300D01*
X447631Y651048D01*
X446920Y652763D01*
X445311Y654861D01*
X443213Y656470D01*
X440771Y657482D01*
X438150Y657827D01*
X435529Y657482D01*
X433087Y656470D01*
X430989Y654861D01*
X430329Y654000D01*
X429059Y654432D01*
Y660400D01*
X428785Y661781D01*
X428002Y662952D01*
X426447Y664507D01*
X426933Y665681D01*
X446815D01*
X448901Y663595D01*
D02*
G37*
G36*
X567136Y664951D02*
X563868Y661682D01*
X563085Y660511D01*
X562811Y659130D01*
Y657519D01*
X562529Y657482D01*
X560087Y656470D01*
X557989Y654861D01*
X556380Y652763D01*
X555368Y650321D01*
X555023Y647700D01*
X555368Y645079D01*
X556380Y642637D01*
X557989Y640539D01*
X558273Y640322D01*
X557865Y639119D01*
X547035D01*
X546627Y640322D01*
X546911Y640539D01*
X548520Y642637D01*
X549532Y645079D01*
X549709Y646430D01*
X529791D01*
X529968Y645079D01*
X530980Y642637D01*
X532589Y640539D01*
X532873Y640322D01*
X532465Y639119D01*
X521635D01*
X521227Y640322D01*
X521511Y640539D01*
X523120Y642637D01*
X524132Y645079D01*
X524477Y647700D01*
X524132Y650321D01*
X523120Y652763D01*
X521511Y654861D01*
X519413Y656470D01*
X518201Y656972D01*
Y661686D01*
X522735Y666221D01*
X566610D01*
X567136Y664951D01*
D02*
G37*
G36*
X515893Y669587D02*
X512039Y665734D01*
X511257Y664563D01*
X510982Y663182D01*
Y657172D01*
X509287Y656470D01*
X507189Y654861D01*
X505580Y652763D01*
X504568Y650321D01*
X504223Y647700D01*
X504568Y645079D01*
X505580Y642637D01*
X507189Y640539D01*
X507473Y640322D01*
X507065Y639119D01*
X496235D01*
X495827Y640322D01*
X496111Y640539D01*
X497720Y642637D01*
X498732Y645079D01*
X499077Y647700D01*
X498732Y650321D01*
X497720Y652763D01*
X496111Y654861D01*
X494013Y656470D01*
X492559Y657072D01*
Y665255D01*
X498065Y670761D01*
X515407D01*
X515893Y669587D01*
D02*
G37*
G36*
X726641Y661445D02*
Y654432D01*
X725371Y654000D01*
X724711Y654861D01*
X722613Y656470D01*
X720171Y657482D01*
X717550Y657827D01*
X714929Y657482D01*
X712487Y656470D01*
X710389Y654861D01*
X708780Y652763D01*
X707768Y650321D01*
X707423Y647700D01*
X707768Y645079D01*
X708780Y642637D01*
X710389Y640539D01*
X712487Y638930D01*
X714929Y637918D01*
X717550Y637573D01*
X720171Y637918D01*
X722613Y638930D01*
X724711Y640539D01*
X725371Y641400D01*
X726641Y640968D01*
Y629031D01*
X725371Y628600D01*
X724711Y629461D01*
X722613Y631070D01*
X720171Y632082D01*
X717550Y632427D01*
X714929Y632082D01*
X712487Y631070D01*
X710389Y629461D01*
X708780Y627363D01*
X707768Y624921D01*
X707423Y622300D01*
X707768Y619679D01*
X708780Y617237D01*
X710389Y615139D01*
X712487Y613530D01*
X714929Y612518D01*
X717550Y612173D01*
X720171Y612518D01*
X722613Y613530D01*
X724711Y615139D01*
X725371Y616000D01*
X726641Y615569D01*
Y587960D01*
X719210D01*
Y582954D01*
X718037Y582468D01*
X689159Y611345D01*
X689266Y611682D01*
X689820Y612480D01*
X692150Y612173D01*
X694771Y612518D01*
X697213Y613530D01*
X699311Y615139D01*
X700920Y617237D01*
X701932Y619679D01*
X702277Y622300D01*
X701932Y624921D01*
X700920Y627363D01*
X699311Y629461D01*
X697213Y631070D01*
X694771Y632082D01*
X692150Y632427D01*
X689529Y632082D01*
X687087Y631070D01*
X685400Y629776D01*
X684283Y629988D01*
X684169Y630036D01*
X683948Y630190D01*
X683272Y631202D01*
X676922Y637552D01*
X675751Y638335D01*
X674370Y638609D01*
X673482D01*
X673050Y639879D01*
X673911Y640539D01*
X675520Y642637D01*
X676532Y645079D01*
X676877Y647700D01*
X676532Y650321D01*
X675520Y652763D01*
X673911Y654861D01*
X671813Y656470D01*
X669371Y657482D01*
X666750Y657827D01*
X664129Y657482D01*
X661687Y656470D01*
X659589Y654861D01*
X657980Y652763D01*
X656968Y650321D01*
X656623Y647700D01*
X656968Y645079D01*
X657980Y642637D01*
X659589Y640539D01*
X660450Y639879D01*
X660018Y638609D01*
X658085D01*
X651188Y645507D01*
X651477Y647700D01*
X651132Y650321D01*
X650120Y652763D01*
X648511Y654861D01*
X646413Y656470D01*
X643971Y657482D01*
X641350Y657827D01*
X638729Y657482D01*
X636287Y656470D01*
X634189Y654861D01*
X632580Y652763D01*
X631568Y650321D01*
X631223Y647700D01*
X631568Y645079D01*
X632580Y642637D01*
X634189Y640539D01*
X636287Y638930D01*
X638729Y637918D01*
X641350Y637573D01*
X643971Y637918D01*
X646413Y638930D01*
X647060Y639426D01*
X654038Y632448D01*
X655209Y631665D01*
X656590Y631391D01*
X660018D01*
X660450Y630121D01*
X659589Y629461D01*
X657980Y627363D01*
X656968Y624921D01*
X656623Y622300D01*
X656968Y619679D01*
X657980Y617237D01*
X659589Y615139D01*
X661687Y613530D01*
X664129Y612518D01*
X664751Y612437D01*
Y611800D01*
X665025Y610419D01*
X665808Y609248D01*
X688541Y586515D01*
Y533979D01*
X687271Y533548D01*
X686696Y534296D01*
X684574Y535925D01*
X682102Y536949D01*
X679450Y537298D01*
X676798Y536949D01*
X674326Y535925D01*
X672899Y534830D01*
X671629Y535456D01*
Y595630D01*
X671355Y597011D01*
X670572Y598182D01*
X650529Y618225D01*
X651132Y619679D01*
X651477Y622300D01*
X651132Y624921D01*
X650120Y627363D01*
X648511Y629461D01*
X646413Y631070D01*
X643971Y632082D01*
X641350Y632427D01*
X638729Y632082D01*
X636287Y631070D01*
X634189Y629461D01*
X633529Y628600D01*
X632259Y629031D01*
Y638810D01*
X631985Y640191D01*
X631202Y641362D01*
X625936Y646629D01*
X626077Y647700D01*
X625732Y650321D01*
X624720Y652763D01*
X623111Y654861D01*
X621013Y656470D01*
X618571Y657482D01*
X615950Y657827D01*
X613329Y657482D01*
X610887Y656470D01*
X608789Y654861D01*
X607180Y652763D01*
X606168Y650321D01*
X605823Y647700D01*
X606168Y645079D01*
X607180Y642637D01*
X608789Y640539D01*
X610887Y638930D01*
X613329Y637918D01*
X615950Y637573D01*
X618571Y637918D01*
X621013Y638930D01*
X622378Y639977D01*
X625041Y637315D01*
Y629031D01*
X623771Y628600D01*
X623111Y629461D01*
X621013Y631070D01*
X618571Y632082D01*
X615950Y632427D01*
X613329Y632082D01*
X610887Y631070D01*
X608789Y629461D01*
X607180Y627363D01*
X606168Y624921D01*
X605823Y622300D01*
X606168Y619679D01*
X607180Y617237D01*
X608789Y615139D01*
X610353Y613939D01*
X609922Y612669D01*
X596578D01*
X596147Y613939D01*
X597711Y615139D01*
X599320Y617237D01*
X600332Y619679D01*
X600677Y622300D01*
X600332Y624921D01*
X599320Y627363D01*
X597711Y629461D01*
X595613Y631070D01*
X593171Y632082D01*
X590550Y632427D01*
X587929Y632082D01*
X586985Y631690D01*
X580763Y637913D01*
X574540Y644135D01*
X574932Y645079D01*
X575277Y647700D01*
X574932Y650321D01*
X573920Y652763D01*
X572311Y654861D01*
X570238Y656451D01*
X570138Y657419D01*
X570114Y657719D01*
X571725Y659331D01*
X684305D01*
X686053Y657582D01*
Y655677D01*
X684989Y654861D01*
X683380Y652763D01*
X682368Y650321D01*
X682023Y647700D01*
X682368Y645079D01*
X683380Y642637D01*
X684989Y640539D01*
X687087Y638930D01*
X689529Y637918D01*
X692150Y637573D01*
X694771Y637918D01*
X697213Y638930D01*
X699311Y640539D01*
X700920Y642637D01*
X701932Y645079D01*
X702277Y647700D01*
X701932Y650321D01*
X700920Y652763D01*
X699311Y654861D01*
X697213Y656470D01*
X694771Y657482D01*
X693272Y657679D01*
Y659077D01*
X692997Y660459D01*
X692215Y661630D01*
X688894Y664951D01*
X689420Y666221D01*
X721865D01*
X726641Y661445D01*
D02*
G37*
G36*
X472131Y640415D02*
Y640080D01*
X472444Y638504D01*
X473337Y637167D01*
X478417Y632087D01*
X479754Y631194D01*
X481330Y630881D01*
X481665D01*
X482073Y629678D01*
X481789Y629461D01*
X480180Y627363D01*
X479168Y624921D01*
X478823Y622300D01*
X479168Y619679D01*
X480180Y617237D01*
X481789Y615139D01*
X483887Y613530D01*
X486329Y612518D01*
X488950Y612173D01*
X491571Y612518D01*
X494013Y613530D01*
X496111Y615139D01*
X497720Y617237D01*
X498732Y619679D01*
X499077Y622300D01*
X498732Y624921D01*
X497720Y627363D01*
X496111Y629461D01*
X495827Y629678D01*
X496235Y630881D01*
X507065D01*
X507473Y629678D01*
X507189Y629461D01*
X505580Y627363D01*
X504568Y624921D01*
X504223Y622300D01*
X504568Y619679D01*
X505580Y617237D01*
X507189Y615139D01*
X509287Y613530D01*
X511729Y612518D01*
X514350Y612173D01*
X516971Y612518D01*
X519413Y613530D01*
X521511Y615139D01*
X523120Y617237D01*
X524132Y619679D01*
X524477Y622300D01*
X524132Y624921D01*
X523120Y627363D01*
X521511Y629461D01*
X521227Y629678D01*
X521635Y630881D01*
X532465D01*
X532873Y629678D01*
X532589Y629461D01*
X530980Y627363D01*
X529968Y624921D01*
X529623Y622300D01*
X529968Y619679D01*
X530980Y617237D01*
X532589Y615139D01*
X534687Y613530D01*
X537129Y612518D01*
X539750Y612173D01*
X542371Y612518D01*
X544813Y613530D01*
X546911Y615139D01*
X548520Y617237D01*
X549532Y619679D01*
X549877Y622300D01*
X549532Y624921D01*
X548520Y627363D01*
X546911Y629461D01*
X546627Y629678D01*
X547035Y630881D01*
X557865D01*
X558273Y629678D01*
X557989Y629461D01*
X556380Y627363D01*
X555368Y624921D01*
X555023Y622300D01*
X555368Y619679D01*
X556380Y617237D01*
X557989Y615139D01*
X560087Y613530D01*
X562529Y612518D01*
X565150Y612173D01*
X567771Y612518D01*
X569225Y613121D01*
X573043Y609303D01*
X572557Y608129D01*
X481491D01*
X481315Y608330D01*
X481056Y610298D01*
X480296Y612132D01*
X479088Y613708D01*
X477513Y614916D01*
X475678Y615676D01*
X473710Y615935D01*
X472833Y615820D01*
X472146Y617010D01*
X472320Y617237D01*
X473332Y619679D01*
X473509Y621030D01*
X463550D01*
Y622300D01*
X462280D01*
Y632259D01*
X460929Y632082D01*
X458487Y631070D01*
X457389Y630228D01*
X456119Y630854D01*
Y639146D01*
X457389Y639772D01*
X458487Y638930D01*
X460929Y637918D01*
X463550Y637573D01*
X466171Y637918D01*
X468613Y638930D01*
X470711Y640539D01*
X470928Y640823D01*
X472131Y640415D01*
D02*
G37*
G36*
X448901Y644100D02*
Y625900D01*
X447631Y625648D01*
X446920Y627363D01*
X445311Y629461D01*
X443213Y631070D01*
X440771Y632082D01*
X438150Y632427D01*
X435529Y632082D01*
X433087Y631070D01*
X430989Y629461D01*
X430329Y628600D01*
X429059Y629031D01*
Y640968D01*
X430329Y641400D01*
X430989Y640539D01*
X433087Y638930D01*
X435529Y637918D01*
X438150Y637573D01*
X440771Y637918D01*
X443213Y638930D01*
X445311Y640539D01*
X446920Y642637D01*
X447631Y644352D01*
X448901Y644100D01*
D02*
G37*
G36*
Y618700D02*
Y604130D01*
X449175Y602749D01*
X449958Y601578D01*
X455038Y596498D01*
X456209Y595715D01*
X457590Y595441D01*
X491100D01*
X572935Y595441D01*
X574241Y594135D01*
Y587960D01*
X566810D01*
Y575324D01*
X565637Y574838D01*
X563490Y576984D01*
Y587960D01*
X541410D01*
Y571880D01*
X558386D01*
X561603Y568663D01*
X561117Y567489D01*
X451075D01*
X429059Y589505D01*
Y615569D01*
X430329Y616000D01*
X430989Y615139D01*
X433087Y613530D01*
X435529Y612518D01*
X438150Y612173D01*
X440771Y612518D01*
X443213Y613530D01*
X445311Y615139D01*
X446920Y617237D01*
X447631Y618952D01*
X448901Y618700D01*
D02*
G37*
G36*
X328921Y628851D02*
X327780Y627363D01*
X326768Y624921D01*
X326423Y622300D01*
X326768Y619679D01*
X327780Y617237D01*
X329389Y615139D01*
X331487Y613530D01*
X332941Y612928D01*
Y533979D01*
X331671Y533548D01*
X331096Y534296D01*
X328974Y535925D01*
X326502Y536949D01*
X323850Y537298D01*
X321198Y536949D01*
X318726Y535925D01*
X316604Y534296D01*
X316029Y533548D01*
X314759Y533979D01*
Y598170D01*
X314485Y599551D01*
X313702Y600722D01*
X302059Y612365D01*
Y615569D01*
X303329Y616000D01*
X303989Y615139D01*
X306087Y613530D01*
X308529Y612518D01*
X311150Y612173D01*
X313771Y612518D01*
X316213Y613530D01*
X318311Y615139D01*
X319920Y617237D01*
X320932Y619679D01*
X321277Y622300D01*
X320932Y624921D01*
X320329Y626375D01*
X324075Y630121D01*
X328295D01*
X328921Y628851D01*
D02*
G37*
G36*
X625041Y592865D02*
Y587960D01*
X620219D01*
Y589890D01*
X619945Y591271D01*
X619162Y592442D01*
X615962Y595642D01*
X614791Y596425D01*
X613410Y596699D01*
X593090D01*
X591709Y596425D01*
X590538Y595642D01*
X587998Y593102D01*
X587215Y591931D01*
X586941Y590550D01*
Y587960D01*
X581459D01*
Y595630D01*
X581185Y597011D01*
X580402Y598182D01*
X578847Y599737D01*
X579333Y600911D01*
X616995D01*
X625041Y592865D01*
D02*
G37*
G36*
X677111Y617758D02*
Y614680D01*
X677385Y613299D01*
X678168Y612128D01*
X713941Y576355D01*
Y533979D01*
X712671Y533548D01*
X712096Y534296D01*
X709974Y535925D01*
X707502Y536949D01*
X704850Y537298D01*
X702198Y536949D01*
X699726Y535925D01*
X697604Y534296D01*
X697029Y533548D01*
X695759Y533979D01*
Y588010D01*
X695485Y589391D01*
X694702Y590562D01*
X672648Y612617D01*
X672744Y614244D01*
X673911Y615139D01*
X675520Y617237D01*
X675841Y618011D01*
X677111Y617758D01*
D02*
G37*
G36*
X664411Y594135D02*
Y531905D01*
X663141Y531653D01*
X662925Y532174D01*
X661296Y534296D01*
X659174Y535925D01*
X656702Y536949D01*
X654050Y537298D01*
X651398Y536949D01*
X648926Y535925D01*
X647499Y534830D01*
X646229Y535456D01*
Y538255D01*
X656602Y548628D01*
X657385Y549799D01*
X657659Y551180D01*
Y593090D01*
X657385Y594471D01*
X656602Y595642D01*
X641262Y610982D01*
X641807Y612234D01*
X643971Y612518D01*
X645425Y613121D01*
X664411Y594135D01*
D02*
G37*
G36*
X688541Y494721D02*
Y82775D01*
X676898Y71132D01*
X676115Y69961D01*
X675841Y68580D01*
Y53952D01*
X674326Y53325D01*
X672899Y52230D01*
X671629Y52856D01*
Y493244D01*
X672899Y493870D01*
X674326Y492775D01*
X676798Y491752D01*
X679450Y491402D01*
X682102Y491752D01*
X684574Y492775D01*
X686696Y494404D01*
X687271Y495152D01*
X688541Y494721D01*
D02*
G37*
G36*
X664411Y496795D02*
Y49305D01*
X663141Y49053D01*
X662925Y49574D01*
X661296Y51696D01*
X659174Y53325D01*
X656702Y54349D01*
X654050Y54698D01*
X651398Y54349D01*
X648926Y53325D01*
X647499Y52230D01*
X646229Y52856D01*
Y493244D01*
X647499Y493870D01*
X648926Y492775D01*
X651398Y491752D01*
X654050Y491402D01*
X656702Y491752D01*
X659174Y492775D01*
X661296Y494404D01*
X662925Y496526D01*
X663141Y497047D01*
X664411Y496795D01*
D02*
G37*
G36*
X342004Y494404D02*
X344126Y492775D01*
X346598Y491752D01*
X349250Y491402D01*
X351902Y491752D01*
X354374Y492775D01*
X356496Y494404D01*
X357071Y495152D01*
X358341Y494721D01*
Y435610D01*
X358615Y434229D01*
X359398Y433058D01*
X362126Y430329D01*
X361600Y429059D01*
X341855D01*
X340159Y430755D01*
Y494721D01*
X341429Y495152D01*
X342004Y494404D01*
D02*
G37*
G36*
X316604D02*
X318726Y492775D01*
X321198Y491752D01*
X323850Y491402D01*
X326502Y491752D01*
X328974Y492775D01*
X331096Y494404D01*
X331671Y495152D01*
X332941Y494721D01*
Y429260D01*
X333215Y427879D01*
X333998Y426708D01*
X336726Y423979D01*
X336200Y422709D01*
X321535D01*
X314759Y429485D01*
Y494721D01*
X316029Y495152D01*
X316604Y494404D01*
D02*
G37*
G36*
X697604D02*
X699726Y492775D01*
X702198Y491752D01*
X704850Y491402D01*
X707502Y491752D01*
X709974Y492775D01*
X712096Y494404D01*
X712671Y495152D01*
X713941Y494721D01*
Y80235D01*
X689598Y55892D01*
X688815Y54721D01*
X688541Y53340D01*
Y51379D01*
X687271Y50948D01*
X686696Y51696D01*
X684574Y53325D01*
X683059Y53952D01*
Y67085D01*
X694702Y78728D01*
X695485Y79899D01*
X695759Y81280D01*
Y494721D01*
X697029Y495152D01*
X697604Y494404D01*
D02*
G37*
%LPC*%
G36*
X363220Y657659D02*
Y648970D01*
X371909D01*
X371732Y650321D01*
X370720Y652763D01*
X369111Y654861D01*
X367013Y656470D01*
X364571Y657482D01*
X363220Y657659D01*
D02*
G37*
G36*
X371909Y646430D02*
X363220D01*
Y637741D01*
X364571Y637918D01*
X367013Y638930D01*
X369111Y640539D01*
X370720Y642637D01*
X371732Y645079D01*
X371909Y646430D01*
D02*
G37*
G36*
X387350Y657827D02*
X384729Y657482D01*
X382287Y656470D01*
X380189Y654861D01*
X378580Y652763D01*
X377568Y650321D01*
X377223Y647700D01*
X377568Y645079D01*
X378580Y642637D01*
X380189Y640539D01*
X382287Y638930D01*
X384729Y637918D01*
X387350Y637573D01*
X389971Y637918D01*
X392413Y638930D01*
X394511Y640539D01*
X396120Y642637D01*
X397132Y645079D01*
X397477Y647700D01*
X397132Y650321D01*
X396120Y652763D01*
X394511Y654861D01*
X392413Y656470D01*
X389971Y657482D01*
X387350Y657827D01*
D02*
G37*
G36*
Y632427D02*
X384729Y632082D01*
X382287Y631070D01*
X380189Y629461D01*
X378580Y627363D01*
X377568Y624921D01*
X377223Y622300D01*
X377568Y619679D01*
X378580Y617237D01*
X380189Y615139D01*
X382287Y613530D01*
X384729Y612518D01*
X387350Y612173D01*
X389971Y612518D01*
X392413Y613530D01*
X394511Y615139D01*
X396120Y617237D01*
X397132Y619679D01*
X397477Y622300D01*
X397132Y624921D01*
X396120Y627363D01*
X394511Y629461D01*
X392413Y631070D01*
X389971Y632082D01*
X387350Y632427D01*
D02*
G37*
G36*
X350520Y595448D02*
Y589280D01*
X356688D01*
X356596Y589978D01*
X355836Y591813D01*
X354628Y593388D01*
X353052Y594596D01*
X351218Y595356D01*
X350520Y595448D01*
D02*
G37*
G36*
X347980D02*
X347282Y595356D01*
X345448Y594596D01*
X343872Y593388D01*
X342664Y591813D01*
X341904Y589978D01*
X341812Y589280D01*
X347980D01*
Y595448D01*
D02*
G37*
G36*
X356688Y586740D02*
X350520D01*
Y580572D01*
X351218Y580664D01*
X353052Y581424D01*
X354628Y582632D01*
X355836Y584207D01*
X356596Y586042D01*
X356688Y586740D01*
D02*
G37*
G36*
X347980D02*
X341812D01*
X341904Y586042D01*
X342664Y584207D01*
X343872Y582632D01*
X345448Y581424D01*
X347282Y580664D01*
X347980Y580572D01*
Y586740D01*
D02*
G37*
G36*
X527050Y537298D02*
X524398Y536949D01*
X521926Y535925D01*
X519804Y534296D01*
X518175Y532174D01*
X517151Y529702D01*
X516802Y527050D01*
X517151Y524398D01*
X518175Y521926D01*
X519804Y519804D01*
X521926Y518175D01*
X524398Y517151D01*
X527050Y516802D01*
X529702Y517151D01*
X532174Y518175D01*
X534296Y519804D01*
X535925Y521926D01*
X536949Y524398D01*
X537298Y527050D01*
X536949Y529702D01*
X535925Y532174D01*
X534296Y534296D01*
X532174Y535925D01*
X529702Y536949D01*
X527050Y537298D01*
D02*
G37*
G36*
X501650D02*
X498998Y536949D01*
X496526Y535925D01*
X494404Y534296D01*
X492775Y532174D01*
X491752Y529702D01*
X491402Y527050D01*
X491752Y524398D01*
X492775Y521926D01*
X494404Y519804D01*
X496526Y518175D01*
X498998Y517151D01*
X501650Y516802D01*
X504302Y517151D01*
X506774Y518175D01*
X508896Y519804D01*
X510525Y521926D01*
X511549Y524398D01*
X511898Y527050D01*
X511549Y529702D01*
X510525Y532174D01*
X508896Y534296D01*
X506774Y535925D01*
X504302Y536949D01*
X501650Y537298D01*
D02*
G37*
G36*
X476250D02*
X473598Y536949D01*
X471126Y535925D01*
X469004Y534296D01*
X467375Y532174D01*
X466352Y529702D01*
X466002Y527050D01*
X466352Y524398D01*
X467375Y521926D01*
X469004Y519804D01*
X471126Y518175D01*
X473598Y517151D01*
X476250Y516802D01*
X478902Y517151D01*
X481374Y518175D01*
X483496Y519804D01*
X485125Y521926D01*
X486148Y524398D01*
X486498Y527050D01*
X486148Y529702D01*
X485125Y532174D01*
X483496Y534296D01*
X481374Y535925D01*
X478902Y536949D01*
X476250Y537298D01*
D02*
G37*
G36*
X450850D02*
X448198Y536949D01*
X445726Y535925D01*
X443604Y534296D01*
X441975Y532174D01*
X440951Y529702D01*
X440602Y527050D01*
X440951Y524398D01*
X441975Y521926D01*
X443604Y519804D01*
X445726Y518175D01*
X448198Y517151D01*
X450850Y516802D01*
X453502Y517151D01*
X455974Y518175D01*
X458096Y519804D01*
X459725Y521926D01*
X460748Y524398D01*
X461098Y527050D01*
X460748Y529702D01*
X459725Y532174D01*
X458096Y534296D01*
X455974Y535925D01*
X453502Y536949D01*
X450850Y537298D01*
D02*
G37*
G36*
X425450D02*
X422798Y536949D01*
X420326Y535925D01*
X418204Y534296D01*
X416575Y532174D01*
X415551Y529702D01*
X415202Y527050D01*
X415551Y524398D01*
X416575Y521926D01*
X418204Y519804D01*
X420326Y518175D01*
X422798Y517151D01*
X425450Y516802D01*
X428102Y517151D01*
X430574Y518175D01*
X432696Y519804D01*
X434325Y521926D01*
X435349Y524398D01*
X435698Y527050D01*
X435349Y529702D01*
X434325Y532174D01*
X432696Y534296D01*
X430574Y535925D01*
X428102Y536949D01*
X425450Y537298D01*
D02*
G37*
G36*
X400050D02*
X397398Y536949D01*
X394926Y535925D01*
X392804Y534296D01*
X391175Y532174D01*
X390151Y529702D01*
X389802Y527050D01*
X390151Y524398D01*
X391175Y521926D01*
X392804Y519804D01*
X394926Y518175D01*
X397398Y517151D01*
X400050Y516802D01*
X402702Y517151D01*
X405174Y518175D01*
X407296Y519804D01*
X408925Y521926D01*
X409949Y524398D01*
X410298Y527050D01*
X409949Y529702D01*
X408925Y532174D01*
X407296Y534296D01*
X405174Y535925D01*
X402702Y536949D01*
X400050Y537298D01*
D02*
G37*
G36*
X552450Y511898D02*
X549798Y511549D01*
X547326Y510525D01*
X545204Y508896D01*
X543575Y506774D01*
X542551Y504302D01*
X542202Y501650D01*
X542551Y498998D01*
X543575Y496526D01*
X545204Y494404D01*
X547326Y492775D01*
X549798Y491752D01*
X552450Y491402D01*
X555102Y491752D01*
X557574Y492775D01*
X559696Y494404D01*
X561325Y496526D01*
X562349Y498998D01*
X562698Y501650D01*
X562349Y504302D01*
X561325Y506774D01*
X559696Y508896D01*
X557574Y510525D01*
X555102Y511549D01*
X552450Y511898D01*
D02*
G37*
G36*
X527050D02*
X524398Y511549D01*
X521926Y510525D01*
X519804Y508896D01*
X518175Y506774D01*
X517151Y504302D01*
X516802Y501650D01*
X517151Y498998D01*
X518175Y496526D01*
X519804Y494404D01*
X521926Y492775D01*
X524398Y491752D01*
X527050Y491402D01*
X529702Y491752D01*
X532174Y492775D01*
X534296Y494404D01*
X535925Y496526D01*
X536949Y498998D01*
X537298Y501650D01*
X536949Y504302D01*
X535925Y506774D01*
X534296Y508896D01*
X532174Y510525D01*
X529702Y511549D01*
X527050Y511898D01*
D02*
G37*
G36*
X501650D02*
X498998Y511549D01*
X496526Y510525D01*
X494404Y508896D01*
X492775Y506774D01*
X491752Y504302D01*
X491402Y501650D01*
X491752Y498998D01*
X492775Y496526D01*
X494404Y494404D01*
X496526Y492775D01*
X498998Y491752D01*
X501650Y491402D01*
X504302Y491752D01*
X506774Y492775D01*
X508896Y494404D01*
X510525Y496526D01*
X511549Y498998D01*
X511898Y501650D01*
X511549Y504302D01*
X510525Y506774D01*
X508896Y508896D01*
X506774Y510525D01*
X504302Y511549D01*
X501650Y511898D01*
D02*
G37*
G36*
X476250D02*
X473598Y511549D01*
X471126Y510525D01*
X469004Y508896D01*
X467375Y506774D01*
X466352Y504302D01*
X466002Y501650D01*
X466352Y498998D01*
X467375Y496526D01*
X469004Y494404D01*
X471126Y492775D01*
X473598Y491752D01*
X476250Y491402D01*
X478902Y491752D01*
X481374Y492775D01*
X483496Y494404D01*
X485125Y496526D01*
X486148Y498998D01*
X486498Y501650D01*
X486148Y504302D01*
X485125Y506774D01*
X483496Y508896D01*
X481374Y510525D01*
X478902Y511549D01*
X476250Y511898D01*
D02*
G37*
G36*
X450850D02*
X448198Y511549D01*
X445726Y510525D01*
X443604Y508896D01*
X441975Y506774D01*
X440951Y504302D01*
X440602Y501650D01*
X440951Y498998D01*
X441975Y496526D01*
X443604Y494404D01*
X445726Y492775D01*
X448198Y491752D01*
X450850Y491402D01*
X453502Y491752D01*
X455974Y492775D01*
X458096Y494404D01*
X459725Y496526D01*
X460748Y498998D01*
X461098Y501650D01*
X460748Y504302D01*
X459725Y506774D01*
X458096Y508896D01*
X455974Y510525D01*
X453502Y511549D01*
X450850Y511898D01*
D02*
G37*
G36*
X425450D02*
X422798Y511549D01*
X420326Y510525D01*
X418204Y508896D01*
X416575Y506774D01*
X415551Y504302D01*
X415202Y501650D01*
X415551Y498998D01*
X416575Y496526D01*
X418204Y494404D01*
X420326Y492775D01*
X422798Y491752D01*
X425450Y491402D01*
X428102Y491752D01*
X430574Y492775D01*
X432696Y494404D01*
X434325Y496526D01*
X435349Y498998D01*
X435698Y501650D01*
X435349Y504302D01*
X434325Y506774D01*
X432696Y508896D01*
X430574Y510525D01*
X428102Y511549D01*
X425450Y511898D01*
D02*
G37*
G36*
X400050D02*
X397398Y511549D01*
X394926Y510525D01*
X392804Y508896D01*
X391175Y506774D01*
X390151Y504302D01*
X389802Y501650D01*
X390151Y498998D01*
X391175Y496526D01*
X392804Y494404D01*
X394926Y492775D01*
X397398Y491752D01*
X400050Y491402D01*
X402702Y491752D01*
X405174Y492775D01*
X407296Y494404D01*
X408925Y496526D01*
X409949Y498998D01*
X410298Y501650D01*
X409949Y504302D01*
X408925Y506774D01*
X407296Y508896D01*
X405174Y510525D01*
X402702Y511549D01*
X400050Y511898D01*
D02*
G37*
G36*
X603250D02*
X600598Y511549D01*
X598126Y510525D01*
X596004Y508896D01*
X594375Y506774D01*
X593352Y504302D01*
X593002Y501650D01*
X593352Y498998D01*
X594375Y496526D01*
X596004Y494404D01*
X598126Y492775D01*
X599641Y492148D01*
Y483820D01*
X592210D01*
Y467740D01*
X614290D01*
Y483820D01*
X606859D01*
Y492148D01*
X608374Y492775D01*
X610496Y494404D01*
X612125Y496526D01*
X613148Y498998D01*
X613498Y501650D01*
X613148Y504302D01*
X612125Y506774D01*
X610496Y508896D01*
X608374Y510525D01*
X605902Y511549D01*
X603250Y511898D01*
D02*
G37*
G36*
X577850D02*
X575198Y511549D01*
X572726Y510525D01*
X570604Y508896D01*
X568975Y506774D01*
X567952Y504302D01*
X567602Y501650D01*
X567952Y498998D01*
X568975Y496526D01*
X570604Y494404D01*
X572726Y492775D01*
X574241Y492148D01*
Y483820D01*
X566810D01*
Y467740D01*
X588890D01*
Y483820D01*
X581459D01*
Y492148D01*
X582974Y492775D01*
X585096Y494404D01*
X586725Y496526D01*
X587748Y498998D01*
X588098Y501650D01*
X587748Y504302D01*
X586725Y506774D01*
X585096Y508896D01*
X582974Y510525D01*
X580502Y511549D01*
X577850Y511898D01*
D02*
G37*
G36*
X541020Y657659D02*
Y648970D01*
X549709D01*
X549532Y650321D01*
X548520Y652763D01*
X546911Y654861D01*
X544813Y656470D01*
X542371Y657482D01*
X541020Y657659D01*
D02*
G37*
G36*
X538480D02*
X537129Y657482D01*
X534687Y656470D01*
X532589Y654861D01*
X530980Y652763D01*
X529968Y650321D01*
X529791Y648970D01*
X538480D01*
Y657659D01*
D02*
G37*
G36*
X590550Y657827D02*
X587929Y657482D01*
X585487Y656470D01*
X583389Y654861D01*
X581780Y652763D01*
X580768Y650321D01*
X580423Y647700D01*
X580768Y645079D01*
X581780Y642637D01*
X583389Y640539D01*
X585487Y638930D01*
X587929Y637918D01*
X590550Y637573D01*
X593171Y637918D01*
X595613Y638930D01*
X597711Y640539D01*
X599320Y642637D01*
X600332Y645079D01*
X600677Y647700D01*
X600332Y650321D01*
X599320Y652763D01*
X597711Y654861D01*
X595613Y656470D01*
X593171Y657482D01*
X590550Y657827D01*
D02*
G37*
G36*
X464820Y632259D02*
Y623570D01*
X473509D01*
X473332Y624921D01*
X472320Y627363D01*
X470711Y629461D01*
X468613Y631070D01*
X466171Y632082D01*
X464820Y632259D01*
D02*
G37*
%LPD*%
G36*
X503066Y155141D02*
X502553Y154471D01*
X501631Y152247D01*
X501317Y149860D01*
X501631Y147473D01*
X502047Y146471D01*
X480048Y124472D01*
X479265Y123301D01*
X478991Y121920D01*
Y118060D01*
X471560D01*
Y118060D01*
X470780D01*
Y118060D01*
X463349D01*
Y141458D01*
X464351Y141873D01*
X466262Y143338D01*
X467727Y145249D01*
X468142Y146251D01*
X476738D01*
X477153Y145249D01*
X478618Y143338D01*
X480529Y141873D01*
X482753Y140951D01*
X485140Y140637D01*
X487527Y140951D01*
X489751Y141873D01*
X491662Y143338D01*
X493127Y145249D01*
X494049Y147473D01*
X494363Y149860D01*
X494049Y152247D01*
X493127Y154471D01*
X492614Y155141D01*
X493240Y156411D01*
X502440D01*
X503066Y155141D01*
D02*
G37*
G36*
X478991Y55583D02*
X477769Y54498D01*
X476250Y54698D01*
X473598Y54349D01*
X471126Y53325D01*
X469004Y51696D01*
X468429Y50948D01*
X467159Y51379D01*
Y74980D01*
X470780D01*
Y74980D01*
X471560D01*
Y74980D01*
X478991D01*
Y55583D01*
D02*
G37*
D10*
X298450Y610870D02*
Y635000D01*
Y610870D02*
X311150Y598170D01*
X298450Y635000D02*
X311150Y647700D01*
X552450Y527050D02*
Y552920D01*
X613410Y593090D02*
X616610Y589890D01*
X593090Y593090D02*
X613410D01*
X590550Y590550D02*
X593090Y593090D01*
X590550Y572672D02*
Y590550D01*
X616610Y570840D02*
Y589890D01*
X680720Y614680D02*
Y628650D01*
X674370Y635000D02*
X680720Y628650D01*
X656590Y635000D02*
X674370D01*
X680720Y614680D02*
X717550Y577850D01*
X666750Y8890D02*
Y27940D01*
X654050Y40640D02*
X666750Y27940D01*
X654050Y40640D02*
Y44450D01*
X692150Y53340D02*
X717550Y78740D01*
X692150Y8890D02*
Y53340D01*
X689610Y6350D02*
X692150Y8890D01*
X669290Y6350D02*
X689610D01*
X666750Y8890D02*
X669290Y6350D01*
X717550Y78740D02*
Y577850D01*
X641350Y647700D02*
X643890D01*
X656590Y635000D01*
X668020Y39370D02*
Y595630D01*
X641350Y622300D02*
X668020Y595630D01*
X677720Y20780D02*
Y29670D01*
X668020Y39370D02*
X677720Y29670D01*
Y20780D02*
X679450Y19050D01*
Y44450D02*
Y68580D01*
X692150Y81280D02*
Y588010D01*
X679450Y68580D02*
X692150Y81280D01*
X668360Y611800D02*
X692150Y588010D01*
X666750Y622300D02*
X668360Y620690D01*
Y611800D02*
Y620690D01*
X628650Y618490D02*
X654050Y593090D01*
X628650Y618490D02*
Y638810D01*
X654050Y551180D02*
Y593090D01*
X477520Y604520D02*
X618490D01*
X628650Y594360D01*
Y579920D02*
Y594360D01*
X642620Y570230D02*
Y595630D01*
X578390Y609060D02*
X629190D01*
X642620Y595630D01*
Y30480D02*
X654050Y19050D01*
X642620Y30480D02*
Y539750D01*
X654050Y551180D01*
X620473Y646987D02*
X628650Y638810D01*
X616663Y646987D02*
X620473D01*
X615950Y647700D02*
X616663Y646987D01*
X619760Y567690D02*
X640080D01*
X642620Y570230D01*
X689663Y650187D02*
Y659077D01*
X685800Y662940D02*
X689663Y659077D01*
X570230Y662940D02*
X685800D01*
X566420Y659130D02*
X570230Y662940D01*
X566420Y648970D02*
Y659130D01*
X565150Y647700D02*
X566420Y648970D01*
X689663Y650187D02*
X692150Y647700D01*
X755650Y527050D02*
Y552920D01*
X730250Y527050D02*
Y552920D01*
X628650Y527050D02*
Y552920D01*
X603250Y527050D02*
Y552920D01*
X577850Y527050D02*
Y552920D01*
X586838Y568960D02*
X590550Y572672D01*
X616610Y570840D02*
X619760Y567690D01*
X565150Y622300D02*
X578390Y609060D01*
X473710Y608330D02*
X477520Y604520D01*
X566410Y568960D02*
X586838D01*
X552450Y579920D02*
X555450D01*
X566410Y568960D01*
X595630Y563880D02*
X603250Y571500D01*
X449580Y563880D02*
X595630D01*
X425450Y588010D02*
X449580Y563880D01*
X577850Y579920D02*
Y595630D01*
X574430Y599050D02*
X577850Y595630D01*
X491100Y599050D02*
X574430Y599050D01*
X457590Y599050D02*
X491100D01*
X452510Y604130D02*
X457590Y599050D01*
X452510Y604130D02*
Y665090D01*
X448310Y669290D02*
X452510Y665090D01*
X353060Y669290D02*
X448310D01*
X425450Y588010D02*
Y660400D01*
X755650Y579920D02*
Y666750D01*
X748030Y674370D02*
X755650Y666750D01*
X496570Y674370D02*
X748030D01*
X730250Y579920D02*
Y662940D01*
X723360Y669830D02*
X730250Y662940D01*
X521240Y669830D02*
X723360D01*
X514592Y663182D02*
X521240Y669830D01*
X514592Y647942D02*
Y663182D01*
X488950Y666750D02*
X496570Y674370D01*
X488950Y647700D02*
Y666750D01*
X628650Y475780D02*
Y501650D01*
X603250Y475780D02*
Y501650D01*
X577850Y475780D02*
Y501650D01*
X421640Y664210D02*
X425450Y660400D01*
X359410Y664210D02*
X421640D01*
X349250Y654050D02*
X359410Y664210D01*
X336550Y652780D02*
X353060Y669290D01*
X340360Y425450D02*
X596900D01*
X365760Y431800D02*
X568960D01*
X311150Y427990D02*
X320040Y419100D01*
X568960Y431800D02*
X577850Y440690D01*
X596900Y425450D02*
X603250Y431800D01*
X624840Y419100D02*
X628650Y422910D01*
X336550Y429260D02*
X340360Y425450D01*
X320040Y419100D02*
X624840D01*
X361950Y435610D02*
X365760Y431800D01*
X349250Y640080D02*
Y654050D01*
X342900Y633730D02*
X349250Y640080D01*
X322580Y633730D02*
X342900D01*
X336550Y647700D02*
Y652780D01*
X603250Y571500D02*
Y579920D01*
X311150Y622300D02*
X322580Y633730D01*
X361950Y435610D02*
Y622300D01*
X234950Y647700D02*
X236560Y649310D01*
X311150Y427990D02*
Y598170D01*
X628650Y422910D02*
Y448780D01*
X336550Y429260D02*
Y622300D01*
X603250Y431800D02*
Y448780D01*
X577850Y440690D02*
Y448780D01*
X234950Y647700D02*
X237437Y645213D01*
X514350Y647700D02*
X514592Y647942D01*
X505460Y48260D02*
Y83020D01*
X501650Y44450D02*
X505460Y48260D01*
X459740Y83020D02*
X463550Y79210D01*
Y31750D02*
Y79210D01*
Y31750D02*
X476250Y19050D01*
X482600Y53119D02*
Y83020D01*
X476250Y46769D02*
X482600Y53119D01*
X476250Y44450D02*
Y46769D01*
X505460Y110020D02*
X507200Y111760D01*
X559600Y151940D02*
Y154940D01*
X519420Y111760D02*
X559600Y151940D01*
X507200Y111760D02*
X519420D01*
X559600Y154940D02*
Y177800D01*
X482600Y121920D02*
X510540Y149860D01*
X482600Y110020D02*
Y121920D01*
X459740Y110020D02*
Y149860D01*
X485140D01*
X532600Y154940D02*
Y155520D01*
X528100Y160020D02*
X532600Y155520D01*
X444500Y160020D02*
X528100D01*
X434340Y149860D02*
X444500Y160020D01*
D15*
X552450Y579920D02*
D03*
Y552920D02*
D03*
X577850D02*
D03*
Y579920D02*
D03*
X755650D02*
D03*
Y552920D02*
D03*
X730250Y579920D02*
D03*
Y552920D02*
D03*
X628650Y579920D02*
D03*
Y552920D02*
D03*
X603250D02*
D03*
Y579920D02*
D03*
X628650Y448780D02*
D03*
Y475780D02*
D03*
X603250D02*
D03*
Y448780D02*
D03*
X577850Y475780D02*
D03*
Y448780D02*
D03*
X505460Y83020D02*
D03*
Y110020D02*
D03*
X459740D02*
D03*
Y83020D02*
D03*
X482600D02*
D03*
Y110020D02*
D03*
X406400Y224320D02*
D03*
Y197320D02*
D03*
D16*
X559600Y177800D02*
D03*
X532600D02*
D03*
Y154940D02*
D03*
X559600D02*
D03*
D23*
X755650Y44450D02*
D03*
Y19050D02*
D03*
X730250Y44450D02*
D03*
Y19050D02*
D03*
X704850Y44450D02*
D03*
Y19050D02*
D03*
X679450Y44450D02*
D03*
Y19050D02*
D03*
X654050Y44450D02*
D03*
Y19050D02*
D03*
X628650Y44450D02*
D03*
Y19050D02*
D03*
X603250Y44450D02*
D03*
Y19050D02*
D03*
X577850Y44450D02*
D03*
Y19050D02*
D03*
X552450Y44450D02*
D03*
Y19050D02*
D03*
X527050Y44450D02*
D03*
Y19050D02*
D03*
X501650Y44450D02*
D03*
Y19050D02*
D03*
X476250Y44450D02*
D03*
Y19050D02*
D03*
X450850Y44450D02*
D03*
Y19050D02*
D03*
X425450Y44450D02*
D03*
Y19050D02*
D03*
X400050Y44450D02*
D03*
Y19050D02*
D03*
X374650Y44450D02*
D03*
Y19050D02*
D03*
X349250Y44450D02*
D03*
Y19050D02*
D03*
X323850Y44450D02*
D03*
Y19050D02*
D03*
X298450Y44450D02*
D03*
Y19050D02*
D03*
X273050Y44450D02*
D03*
Y19050D02*
D03*
X247650Y44450D02*
D03*
Y19050D02*
D03*
X222250Y44450D02*
D03*
Y19050D02*
D03*
X196850Y44450D02*
D03*
Y527050D02*
D03*
X222250Y501650D02*
D03*
Y527050D02*
D03*
X247650Y501650D02*
D03*
Y527050D02*
D03*
X273050Y501650D02*
D03*
Y527050D02*
D03*
X298450Y501650D02*
D03*
Y527050D02*
D03*
X323850Y501650D02*
D03*
Y527050D02*
D03*
X349250Y501650D02*
D03*
Y527050D02*
D03*
X374650Y501650D02*
D03*
Y527050D02*
D03*
X400050Y501650D02*
D03*
Y527050D02*
D03*
X425450Y501650D02*
D03*
Y527050D02*
D03*
X450850Y501650D02*
D03*
Y527050D02*
D03*
X476250Y501650D02*
D03*
Y527050D02*
D03*
X501650Y501650D02*
D03*
Y527050D02*
D03*
X527050Y501650D02*
D03*
Y527050D02*
D03*
X552450Y501650D02*
D03*
Y527050D02*
D03*
X577850Y501650D02*
D03*
Y527050D02*
D03*
X603250Y501650D02*
D03*
Y527050D02*
D03*
X628650Y501650D02*
D03*
Y527050D02*
D03*
X654050Y501650D02*
D03*
Y527050D02*
D03*
X679450Y501650D02*
D03*
Y527050D02*
D03*
X704850Y501650D02*
D03*
Y527050D02*
D03*
X730250Y501650D02*
D03*
Y527050D02*
D03*
X755650Y501650D02*
D03*
Y527050D02*
D03*
D29*
X273050Y580390D02*
Y668020D01*
X260350Y567690D02*
X273050Y580390D01*
Y668020D02*
X280670Y675640D01*
X467360D01*
X476250Y640080D02*
Y666750D01*
X467360Y675640D02*
X476250Y666750D01*
Y640080D02*
X481330Y635000D01*
X260350Y567690D02*
X260350Y102870D01*
X222250Y64770D02*
X260350Y102870D01*
X222250Y19050D02*
Y44450D01*
X577850Y635000D02*
X590550Y622300D01*
X565150Y647700D02*
X577850Y635000D01*
X222250Y44450D02*
Y64770D01*
X481330Y635000D02*
X577850D01*
D30*
X247650Y44450D02*
Y68570D01*
X403400Y224320D01*
X406400D01*
X247650Y19050D02*
Y44450D01*
X433470Y225190D02*
X434340Y226060D01*
X407270Y225190D02*
X433470D01*
X406400Y224320D02*
X407270Y225190D01*
X803910Y182880D02*
X805180Y181610D01*
X769551Y320371D02*
X770890Y321710D01*
D31*
X751840Y182880D02*
X803910D01*
X746760Y187960D02*
Y314960D01*
Y187960D02*
X751840Y182880D01*
X752171Y320371D02*
X769551D01*
X746760Y314960D02*
X752171Y320371D01*
X845820Y134620D02*
Y292024D01*
X842010Y130810D02*
X845820Y134620D01*
X805180Y130810D02*
X842010D01*
X770890Y296710D02*
X841134D01*
X845820Y292024D01*
D32*
X196850Y19050D02*
D03*
Y501650D02*
D03*
D33*
X717550Y647700D02*
D03*
Y622300D02*
D03*
X692150Y647700D02*
D03*
Y622300D02*
D03*
X666750Y647700D02*
D03*
Y622300D02*
D03*
X641350Y647700D02*
D03*
Y622300D02*
D03*
X615950Y647700D02*
D03*
Y622300D02*
D03*
X590550Y647700D02*
D03*
Y622300D02*
D03*
X565150Y647700D02*
D03*
Y622300D02*
D03*
X539750Y647700D02*
D03*
Y622300D02*
D03*
X514350Y647700D02*
D03*
Y622300D02*
D03*
X488950Y647700D02*
D03*
Y622300D02*
D03*
X463550Y647700D02*
D03*
Y622300D02*
D03*
X438150Y647700D02*
D03*
Y622300D02*
D03*
X412750Y647700D02*
D03*
Y622300D02*
D03*
X387350Y647700D02*
D03*
Y622300D02*
D03*
X361950Y647700D02*
D03*
Y622300D02*
D03*
X336550Y647700D02*
D03*
Y622300D02*
D03*
X311150Y647700D02*
D03*
Y622300D02*
D03*
X285750Y647700D02*
D03*
Y622300D02*
D03*
X260350Y647700D02*
D03*
Y622300D02*
D03*
X234950Y647700D02*
D03*
X770890Y371710D02*
D03*
Y346710D02*
D03*
Y296710D02*
D03*
Y321710D02*
D03*
Y396710D02*
D03*
D34*
X234950Y622300D02*
D03*
D35*
X459740Y226060D02*
D03*
X485140D02*
D03*
X459740Y149860D02*
D03*
X485140D02*
D03*
X510540D02*
D03*
Y226060D02*
D03*
X434340D02*
D03*
D36*
X805180Y130810D02*
D03*
D37*
Y181610D02*
D03*
Y232410D02*
D03*
D38*
X434340Y149860D02*
D03*
D39*
X146050Y514350D02*
D03*
X806450Y482600D02*
D03*
Y63500D02*
D03*
X146050Y31750D02*
D03*
D40*
X349250Y588010D02*
D03*
X473710Y608330D02*
D03*
M02*
