G04*
G04 #@! TF.GenerationSoftware,Altium Limited,Altium Designer,20.0.7 (75)*
G04*
G04 Layer_Color=65535*
%FSLAX44Y44*%
%MOMM*%
G71*
G01*
G75*
%ADD10C,0.2000*%
%ADD11C,0.2540*%
%ADD12C,0.1000*%
%ADD13C,0.1524*%
%ADD14C,0.0762*%
D10*
X559950Y562420D02*
Y570420D01*
X544950Y562420D02*
Y570420D01*
X570350Y562420D02*
Y570420D01*
X585350Y562420D02*
Y570420D01*
X763150Y562420D02*
Y570420D01*
X748150Y562420D02*
Y570420D01*
X737750Y562420D02*
Y570420D01*
X722750Y562420D02*
Y570420D01*
X636150Y562420D02*
Y570420D01*
X621150Y562420D02*
Y570420D01*
X595750Y562420D02*
Y570420D01*
X610750Y562420D02*
Y570420D01*
X621150Y458280D02*
Y466280D01*
X636150Y458280D02*
Y466280D01*
X610750Y458280D02*
Y466280D01*
X595750Y458280D02*
Y466280D01*
X585350Y458280D02*
Y466280D01*
X570350Y458280D02*
Y466280D01*
X542100Y170300D02*
X550100D01*
X542100Y185300D02*
X550100D01*
X542100Y162440D02*
X550100D01*
X542100Y147440D02*
X550100D01*
X497960Y92520D02*
Y100520D01*
X512960Y92520D02*
Y100520D01*
X467240Y92520D02*
Y100520D01*
X452240Y92520D02*
Y100520D01*
X475100Y92520D02*
Y100520D01*
X490100Y92520D02*
Y100520D01*
X413900Y206820D02*
Y214820D01*
X398900Y206820D02*
Y214820D01*
D11*
X765180Y257810D02*
X845180D01*
X765180Y106210D02*
Y257810D01*
Y106210D02*
X845180D01*
Y156210D02*
Y257810D01*
Y106210D02*
Y156210D01*
X191770Y292095D02*
Y276860D01*
X201927D01*
X217162Y289556D02*
X214623Y292095D01*
X209544D01*
X207005Y289556D01*
Y279399D01*
X209544Y276860D01*
X214623D01*
X217162Y279399D01*
X222240Y292095D02*
Y276860D01*
X229858D01*
X232397Y279399D01*
Y289556D01*
X229858Y292095D01*
X222240D01*
X262867Y289556D02*
X260328Y292095D01*
X255250D01*
X252710Y289556D01*
Y279399D01*
X255250Y276860D01*
X260328D01*
X262867Y279399D01*
X270485Y287017D02*
X275563D01*
X278102Y284478D01*
Y276860D01*
X270485D01*
X267945Y279399D01*
X270485Y281938D01*
X278102D01*
X283180Y271782D02*
Y287017D01*
X290798D01*
X293337Y284478D01*
Y279399D01*
X290798Y276860D01*
X283180D01*
X306033D02*
X300955D01*
X298416Y279399D01*
Y284478D01*
X300955Y287017D01*
X306033D01*
X308572Y284478D01*
Y281938D01*
X298416D01*
X328886Y292095D02*
Y276860D01*
X336503D01*
X339042Y279399D01*
Y281938D01*
X336503Y284478D01*
X328886D01*
X336503D01*
X339042Y287017D01*
Y289556D01*
X336503Y292095D01*
X328886D01*
X344121D02*
Y276860D01*
X351738D01*
X354277Y279399D01*
Y281938D01*
X351738Y284478D01*
X344121D01*
X351738D01*
X354277Y287017D01*
Y289556D01*
X351738Y292095D01*
X344121D01*
X359356D02*
Y276860D01*
X366973D01*
X369512Y279399D01*
Y281938D01*
X366973Y284478D01*
X359356D01*
X366973D01*
X369512Y287017D01*
Y289556D01*
X366973Y292095D01*
X359356D01*
X389826Y276860D02*
Y292095D01*
X397444D01*
X399983Y289556D01*
Y284478D01*
X397444Y281938D01*
X389826D01*
X394904D02*
X399983Y276860D01*
X412678D02*
X407600D01*
X405061Y279399D01*
Y284478D01*
X407600Y287017D01*
X412678D01*
X415218Y284478D01*
Y281938D01*
X405061D01*
X420296Y287017D02*
X425374Y276860D01*
X430453Y287017D01*
X435531Y276860D02*
Y279399D01*
X438070D01*
Y276860D01*
X435531D01*
X448227D02*
Y287017D01*
X453305Y292095D01*
X458384Y287017D01*
Y276860D01*
Y284478D01*
X448227D01*
X264160Y317495D02*
X274317D01*
X269238D01*
Y302260D01*
X289552Y314956D02*
X287013Y317495D01*
X281934D01*
X279395Y314956D01*
Y312417D01*
X281934Y309877D01*
X287013D01*
X289552Y307338D01*
Y304799D01*
X287013Y302260D01*
X281934D01*
X279395Y304799D01*
X302248Y317495D02*
X297169D01*
X294630Y314956D01*
Y304799D01*
X297169Y302260D01*
X302248D01*
X304787Y304799D01*
Y314956D01*
X302248Y317495D01*
X335257Y302260D02*
X325100D01*
X335257Y312417D01*
Y314956D01*
X332718Y317495D01*
X327640D01*
X325100Y314956D01*
X340335D02*
X342874Y317495D01*
X347953D01*
X350492Y314956D01*
Y304799D01*
X347953Y302260D01*
X342874D01*
X340335Y304799D01*
Y314956D01*
X365727Y302260D02*
X355570D01*
X365727Y312417D01*
Y314956D01*
X363188Y317495D01*
X358110D01*
X355570Y314956D01*
X370806D02*
X373345Y317495D01*
X378423D01*
X380962Y314956D01*
Y304799D01*
X378423Y302260D01*
X373345D01*
X370806Y304799D01*
Y314956D01*
X250187Y341625D02*
X240030D01*
Y326390D01*
X250187D01*
X240030Y334007D02*
X245108D01*
X255265Y326390D02*
Y336547D01*
X257804D01*
X260343Y334007D01*
Y326390D01*
Y334007D01*
X262883Y336547D01*
X265422Y334007D01*
Y326390D01*
X270500D02*
X275578D01*
X273039D01*
Y336547D01*
X270500D01*
X283196Y326390D02*
X288274D01*
X285735D01*
Y341625D01*
X283196D01*
X303510Y326390D02*
X298431D01*
X295892Y328929D01*
Y334007D01*
X298431Y336547D01*
X303510D01*
X306049Y334007D01*
Y331468D01*
X295892D01*
X326362Y326390D02*
Y341625D01*
X333980D01*
X336519Y339086D01*
Y334007D01*
X333980Y331468D01*
X326362D01*
X331440D02*
X336519Y326390D01*
X349215D02*
X344136D01*
X341597Y328929D01*
Y334007D01*
X344136Y336547D01*
X349215D01*
X351754Y334007D01*
Y331468D01*
X341597D01*
X356832Y326390D02*
Y336547D01*
X364450D01*
X366989Y334007D01*
Y326390D01*
X374607Y336547D02*
X379685D01*
X382224Y334007D01*
Y326390D01*
X374607D01*
X372067Y328929D01*
X374607Y331468D01*
X382224D01*
X387302Y336547D02*
Y328929D01*
X389841Y326390D01*
X397459D01*
Y336547D01*
X412694Y341625D02*
Y326390D01*
X405077D01*
X402537Y328929D01*
Y334007D01*
X405077Y336547D01*
X412694D01*
X481333Y588004D02*
X496568D01*
Y580386D01*
X494028Y577847D01*
X488950D01*
X486411Y580386D01*
Y588004D01*
Y582925D02*
X481333Y577847D01*
Y572769D02*
Y567690D01*
Y570229D01*
X496568D01*
X494028Y572769D01*
Y560073D02*
X496568Y557534D01*
Y552455D01*
X494028Y549916D01*
X491489D01*
X488950Y552455D01*
Y554995D01*
Y552455D01*
X486411Y549916D01*
X483872D01*
X481333Y552455D01*
Y557534D01*
X483872Y560073D01*
X394973Y160018D02*
Y147322D01*
X397513Y144782D01*
X402591D01*
X405130Y147322D01*
Y160018D01*
X410208Y144782D02*
X415287D01*
X412748D01*
Y160018D01*
X410208Y157478D01*
X459743Y588003D02*
X474977D01*
Y580386D01*
X472438Y577847D01*
X467360D01*
X464821Y580386D01*
Y588003D01*
Y582925D02*
X459743Y577847D01*
Y562612D02*
Y572768D01*
X469899Y562612D01*
X472438D01*
X474977Y565151D01*
Y570229D01*
X472438Y572768D01*
X474977Y547377D02*
X472438Y552455D01*
X467360Y557533D01*
X462282D01*
X459743Y554994D01*
Y549916D01*
X462282Y547377D01*
X464821D01*
X467360Y549916D01*
Y557533D01*
X702312Y588003D02*
X717548D01*
Y580386D01*
X715008Y577847D01*
X709930D01*
X707391Y580386D01*
Y588003D01*
Y582925D02*
X702312Y577847D01*
Y562612D02*
Y572768D01*
X712469Y562612D01*
X715008D01*
X717548Y565151D01*
Y570229D01*
X715008Y572768D01*
X702312Y549916D02*
X717548D01*
X709930Y557533D01*
Y547377D01*
X768353Y586733D02*
X783587D01*
Y579116D01*
X781048Y576577D01*
X775970D01*
X773431Y579116D01*
Y586733D01*
Y581655D02*
X768353Y576577D01*
Y561342D02*
Y571498D01*
X778509Y561342D01*
X781048D01*
X783587Y563881D01*
Y568959D01*
X781048Y571498D01*
X768353Y546107D02*
Y556263D01*
X778509Y546107D01*
X781048D01*
X783587Y548646D01*
Y553724D01*
X781048Y556263D01*
X523242Y588003D02*
X538478D01*
Y580386D01*
X535938Y577847D01*
X530860D01*
X528321Y580386D01*
Y588003D01*
Y582925D02*
X523242Y577847D01*
Y562612D02*
Y572768D01*
X533399Y562612D01*
X535938D01*
X538478Y565151D01*
Y570229D01*
X535938Y572768D01*
Y557533D02*
X538478Y554994D01*
Y549916D01*
X535938Y547377D01*
X525782D01*
X523242Y549916D01*
Y554994D01*
X525782Y557533D01*
X535938D01*
X570233Y439414D02*
X585467D01*
Y431796D01*
X582928Y429257D01*
X577850D01*
X575311Y431796D01*
Y439414D01*
Y434336D02*
X570233Y429257D01*
Y424179D02*
Y419100D01*
Y421640D01*
X585467D01*
X582928Y424179D01*
X570233Y403865D02*
X585467D01*
X577850Y411483D01*
Y401326D01*
X595633Y439414D02*
X610868D01*
Y431796D01*
X608328Y429257D01*
X603250D01*
X600711Y431796D01*
Y439414D01*
Y434336D02*
X595633Y429257D01*
Y424179D02*
Y419100D01*
Y421640D01*
X610868D01*
X608328Y424179D01*
X595633Y401326D02*
Y411483D01*
X605789Y401326D01*
X608328D01*
X610868Y403865D01*
Y408944D01*
X608328Y411483D01*
X621032Y439415D02*
X636268D01*
Y431797D01*
X633728Y429258D01*
X628650D01*
X626111Y431797D01*
Y439415D01*
Y434336D02*
X621032Y429258D01*
Y424179D02*
Y419101D01*
Y421640D01*
X636268D01*
X633728Y424179D01*
X621032Y411484D02*
Y406405D01*
Y408945D01*
X636268D01*
X633728Y411484D01*
X502923Y588004D02*
X518158D01*
Y580386D01*
X515618Y577847D01*
X510540D01*
X508001Y580386D01*
Y588004D01*
Y582925D02*
X502923Y577847D01*
Y572769D02*
Y567690D01*
Y570230D01*
X518158D01*
X515618Y572769D01*
Y560073D02*
X518158Y557534D01*
Y552455D01*
X515618Y549916D01*
X505462D01*
X502923Y552455D01*
Y557534D01*
X505462Y560073D01*
X515618D01*
X570234Y170182D02*
Y185417D01*
X577852D01*
X580391Y182878D01*
Y177800D01*
X577852Y175261D01*
X570234D01*
X575312D02*
X580391Y170182D01*
X595626Y185417D02*
X590547Y182878D01*
X585469Y177800D01*
Y172722D01*
X588008Y170182D01*
X593087D01*
X595626Y172722D01*
Y175261D01*
X593087Y177800D01*
X585469D01*
X570234Y147323D02*
Y162558D01*
X577852D01*
X580391Y160018D01*
Y154940D01*
X577852Y152401D01*
X570234D01*
X575312D02*
X580391Y147323D01*
X595626Y162558D02*
X585469D01*
Y154940D01*
X590547Y157479D01*
X593087D01*
X595626Y154940D01*
Y149862D01*
X593087Y147323D01*
X588008D01*
X585469Y149862D01*
X499114Y120653D02*
Y135887D01*
X506732D01*
X509271Y133348D01*
Y128270D01*
X506732Y125731D01*
X499114D01*
X504193D02*
X509271Y120653D01*
X514349Y133348D02*
X516888Y135887D01*
X521967D01*
X524506Y133348D01*
Y130809D01*
X521967Y128270D01*
X519427D01*
X521967D01*
X524506Y125731D01*
Y123192D01*
X521967Y120653D01*
X516888D01*
X514349Y123192D01*
X470082Y120602D02*
Y135837D01*
X477700D01*
X480239Y133298D01*
Y128219D01*
X477700Y125680D01*
X470082D01*
X475160D02*
X480239Y120602D01*
X495474D02*
X485317D01*
X495474Y130758D01*
Y133298D01*
X492934Y135837D01*
X487856D01*
X485317Y133298D01*
X444503Y120653D02*
Y135887D01*
X452121D01*
X454660Y133348D01*
Y128270D01*
X452121Y125731D01*
X444503D01*
X449582D02*
X454660Y120653D01*
X459738D02*
X464817D01*
X462278D01*
Y135887D01*
X459738Y133348D01*
X736604Y242572D02*
Y257808D01*
X744222D01*
X746761Y255268D01*
Y250190D01*
X744222Y247651D01*
X736604D01*
X759457Y242572D02*
Y257808D01*
X751839Y250190D01*
X761996D01*
X731520Y288288D02*
X726442D01*
X728981D01*
Y275592D01*
X726442Y273053D01*
X723903D01*
X721363Y275592D01*
X736598Y273053D02*
X741677D01*
X739138D01*
Y288288D01*
X736598Y285748D01*
X406400Y246378D02*
X403861Y248918D01*
X398783D01*
X396243Y246378D01*
Y236222D01*
X398783Y233682D01*
X403861D01*
X406400Y236222D01*
X411478Y233682D02*
X416557D01*
X414018D01*
Y248918D01*
X411478Y246378D01*
D12*
X859890Y272210D02*
Y421210D01*
X745890Y272210D02*
X859890D01*
X745890D02*
Y421210D01*
X859890D01*
D13*
X523240Y147320D02*
Y228600D01*
X520141D02*
X523240D01*
X421640Y147320D02*
Y228600D01*
Y147320D02*
X424409D01*
X444271D02*
X450139D01*
X469341D02*
X475539D01*
X494741D02*
X500939D01*
X520141D02*
X523240D01*
X494741Y228600D02*
X500939D01*
X469341D02*
X475539D01*
X443941D02*
X450139D01*
X421640D02*
X424739D01*
D14*
X415886Y146685D02*
X424350Y155149D01*
Y146685D02*
X415886Y155149D01*
X420118Y146685D02*
Y155149D01*
X424350Y150917D02*
X415886D01*
M02*
