G04*
G04 #@! TF.GenerationSoftware,Altium Limited,Altium Designer,20.0.7 (75)*
G04*
G04 Layer_Physical_Order=2*
G04 Layer_Color=32768*
%FSLAX44Y44*%
%MOMM*%
G71*
G01*
G75*
%ADD58C,1.3208*%
%ADD71C,1.0160*%
%ADD72C,1.1080*%
G04:AMPARAMS|DCode=73|XSize=2.124mm|YSize=2.124mm|CornerRadius=0mm|HoleSize=0mm|Usage=FLASHONLY|Rotation=0.000|XOffset=0mm|YOffset=0mm|HoleType=Round|Shape=Relief|Width=0.254mm|Gap=0.254mm|Entries=4|*
%AMTHD73*
7,0,0,2.1240,1.6160,0.2540,45*
%
%ADD73THD73*%
G04:AMPARAMS|DCode=74|XSize=2.3368mm|YSize=2.3368mm|CornerRadius=0mm|HoleSize=0mm|Usage=FLASHONLY|Rotation=0.000|XOffset=0mm|YOffset=0mm|HoleType=Round|Shape=Relief|Width=0.254mm|Gap=0.254mm|Entries=4|*
%AMTHD74*
7,0,0,2.3368,1.8288,0.2540,45*
%
%ADD74THD74*%
%ADD75C,1.5080*%
%ADD76C,2.0160*%
G04:AMPARAMS|DCode=77|XSize=2.524mm|YSize=2.524mm|CornerRadius=0mm|HoleSize=0mm|Usage=FLASHONLY|Rotation=0.000|XOffset=0mm|YOffset=0mm|HoleType=Round|Shape=Relief|Width=0.254mm|Gap=0.254mm|Entries=4|*
%AMTHD77*
7,0,0,2.5240,2.0160,0.2540,45*
%
%ADD77THD77*%
G04:AMPARAMS|DCode=78|XSize=3.774mm|YSize=3.774mm|CornerRadius=0mm|HoleSize=0mm|Usage=FLASHONLY|Rotation=0.000|XOffset=0mm|YOffset=0mm|HoleType=Round|Shape=Relief|Width=0.254mm|Gap=0.254mm|Entries=4|*
%AMTHD78*
7,0,0,3.7740,3.2660,0.2540,45*
%
%ADD78THD78*%
%ADD79C,0.7080*%
%ADD80C,1.6160*%
D58*
X191000Y62200D02*
D03*
Y36800D02*
D03*
Y11400D02*
D03*
X114800Y-14000D02*
D03*
Y11400D02*
D03*
Y36800D02*
D03*
Y62200D02*
D03*
D71*
X-211729Y0D02*
G03*
X0Y-211729I211729J0D01*
G01*
D02*
G03*
X211729Y0I0J211729D01*
G01*
D02*
G03*
X0Y211729I-211729J0D01*
G01*
D02*
G03*
X-211729Y0I0J-211729D01*
G01*
D72*
X-26600Y66300D02*
D03*
X-39300D02*
D03*
X-161489Y-85849D02*
D03*
X-132100Y-126300D02*
D03*
X175313Y-65868D02*
D03*
X163379Y-61525D02*
D03*
X179656Y-53934D02*
D03*
X167722Y-49591D02*
D03*
X-131000Y152000D02*
D03*
X-20000Y-198000D02*
D03*
X86000Y-20000D02*
D03*
D73*
X-52000Y66300D02*
D03*
X184000Y-42000D02*
D03*
X172066Y-37656D02*
D03*
D74*
X191000Y-14000D02*
D03*
D75*
X84000Y172000D02*
D03*
X29000Y-121000D02*
D03*
X4000D02*
D03*
X-21000D02*
D03*
X162882Y-93118D02*
D03*
X144921Y-111079D02*
D03*
X126960Y-129039D02*
D03*
X37000Y-96000D02*
D03*
X12000D02*
D03*
X-13000D02*
D03*
X155000Y113000D02*
D03*
X169569Y92193D02*
D03*
X-196000Y34000D02*
D03*
D76*
X84000Y146600D02*
D03*
X-39000Y120000D02*
D03*
X-14000D02*
D03*
X11000D02*
D03*
X36000D02*
D03*
X-46000Y-121000D02*
D03*
X62000Y-96000D02*
D03*
X-93620Y81870D02*
D03*
D77*
X54000Y-121000D02*
D03*
X109000Y-147000D02*
D03*
X-38000Y-96000D02*
D03*
X168018Y106612D02*
D03*
D78*
X-91700Y-162200D02*
D03*
X123000Y141700D02*
D03*
D79*
X-79200Y90900D02*
D03*
X-75100Y97300D02*
D03*
X-69400Y103600D02*
D03*
X-163300Y-18100D02*
D03*
X-180900Y-20000D02*
D03*
X-173200Y-19578D02*
D03*
X-200800Y-19900D02*
D03*
X-194000Y-20100D02*
D03*
X-187500Y-20300D02*
D03*
X109400Y101400D02*
D03*
X129500Y105600D02*
D03*
X103000Y115300D02*
D03*
X114600Y113400D02*
D03*
X119000Y48500D02*
D03*
X97700Y44300D02*
D03*
X93100Y35900D02*
D03*
X99000Y53000D02*
D03*
X-64000Y31000D02*
D03*
X-63000Y53000D02*
D03*
X-62000Y61000D02*
D03*
X81750Y67500D02*
D03*
X60000Y53000D02*
D03*
X82000Y74000D02*
D03*
X83000Y82000D02*
D03*
X83000Y89000D02*
D03*
X83000Y96000D02*
D03*
X82000Y57000D02*
D03*
X116000Y23000D02*
D03*
X112725Y74000D02*
D03*
X130000Y115000D02*
D03*
X126000Y-22000D02*
D03*
X55000Y114000D02*
D03*
X98000Y-83000D02*
D03*
X-52000Y35000D02*
D03*
X10000Y80000D02*
D03*
X22000Y-138000D02*
D03*
X84000Y-85000D02*
D03*
X82000Y-95000D02*
D03*
X43000Y-62000D02*
D03*
X82000Y-69000D02*
D03*
X55000Y-50000D02*
D03*
X50000Y-40000D02*
D03*
X26000Y52000D02*
D03*
X39000Y45000D02*
D03*
X-16000Y54000D02*
D03*
X13000Y48000D02*
D03*
X-35000Y26000D02*
D03*
X-13000Y-61000D02*
D03*
X-6000Y-32000D02*
D03*
X0Y-42000D02*
D03*
X-2000Y-65000D02*
D03*
X-16000Y20000D02*
D03*
X-27000Y17000D02*
D03*
X-49000D02*
D03*
X-62000Y20000D02*
D03*
X60000Y-61000D02*
D03*
X51000Y90000D02*
D03*
X19000Y-50336D02*
D03*
X34000Y-44000D02*
D03*
X20000Y-34000D02*
D03*
X-132130Y89000D02*
D03*
X-146000Y102000D02*
D03*
X-160000Y114870D02*
D03*
X-98000Y177000D02*
D03*
X-84000Y164000D02*
D03*
X-70000Y150000D02*
D03*
X64000Y122000D02*
D03*
D80*
X-191600Y-51700D02*
D03*
X-119850Y-37000D02*
D03*
X-108000Y-48000D02*
D03*
X-139000Y-36000D02*
D03*
M02*
