G04*
G04 #@! TF.GenerationSoftware,Altium Limited,Altium Designer,20.0.7 (75)*
G04*
G04 Layer_Physical_Order=4*
G04 Layer_Color=16711680*
%FSLAX44Y44*%
%MOMM*%
G71*
G01*
G75*
%ADD15C,0.2000*%
%ADD21R,0.8636X0.9652*%
%ADD23R,0.9652X0.8636*%
%ADD35C,1.5240*%
%ADD49C,0.4000*%
%ADD50C,0.2290*%
%ADD51C,0.8000*%
%ADD56R,1.0000X1.2700*%
%ADD57O,1.0000X1.2700*%
%ADD58C,1.3208*%
%ADD59R,1.3208X1.3208*%
%ADD60C,1.5000*%
%ADD61R,1.5000X1.5000*%
%ADD62R,1.6500X1.6500*%
%ADD63C,1.6500*%
%ADD64P,1.4142X4X385.0*%
%ADD65C,1.0000*%
%ADD66C,4.0000*%
%ADD67P,2.1213X4X90.0*%
%ADD68C,1.2700*%
%ADD69C,0.4500*%
%ADD70C,0.6000*%
%ADD85R,1.4732X0.2286*%
%ADD86R,0.2286X1.4732*%
%ADD87R,5.0038X5.0038*%
G04:AMPARAMS|DCode=88|XSize=0.8636mm|YSize=0.9652mm|CornerRadius=0mm|HoleSize=0mm|Usage=FLASHONLY|Rotation=135.000|XOffset=0mm|YOffset=0mm|HoleType=Round|Shape=Rectangle|*
%AMROTATEDRECTD88*
4,1,4,0.6466,0.0359,-0.0359,-0.6466,-0.6466,-0.0359,0.0359,0.6466,0.6466,0.0359,0.0*
%
%ADD88ROTATEDRECTD88*%

G04:AMPARAMS|DCode=89|XSize=0.8636mm|YSize=0.9652mm|CornerRadius=0mm|HoleSize=0mm|Usage=FLASHONLY|Rotation=125.000|XOffset=0mm|YOffset=0mm|HoleType=Round|Shape=Rectangle|*
%AMROTATEDRECTD89*
4,1,4,0.6430,-0.0769,-0.1477,-0.6305,-0.6430,0.0769,0.1477,0.6305,0.6430,-0.0769,0.0*
%
%ADD89ROTATEDRECTD89*%

G04:AMPARAMS|DCode=90|XSize=2.8mm|YSize=1mm|CornerRadius=0mm|HoleSize=0mm|Usage=FLASHONLY|Rotation=42.000|XOffset=0mm|YOffset=0mm|HoleType=Round|Shape=Rectangle|*
%AMROTATEDRECTD90*
4,1,4,-0.7058,-1.3084,-1.3750,-0.5652,0.7058,1.3084,1.3750,0.5652,-0.7058,-1.3084,0.0*
%
%ADD90ROTATEDRECTD90*%

%ADD91R,0.6500X1.2500*%
%ADD92C,0.3000*%
G36*
X20804Y211224D02*
X34574Y209411D01*
X48196Y206701D01*
X61612Y203106D01*
X74763Y198642D01*
X87595Y193327D01*
X100052Y187184D01*
X112080Y180240D01*
X123628Y172523D01*
X134647Y164068D01*
X145090Y154910D01*
X154910Y145090D01*
X164068Y134647D01*
X172523Y123628D01*
X180240Y112080D01*
X187184Y100052D01*
X193327Y87595D01*
X198642Y74763D01*
X203106Y61612D01*
X206701Y48196D01*
X209411Y34574D01*
X211224Y20804D01*
X212132Y6945D01*
Y-0D01*
Y-6945D01*
X211224Y-20804D01*
X209411Y-34574D01*
X206701Y-48196D01*
X203106Y-61612D01*
X198642Y-74764D01*
X193327Y-87595D01*
X187184Y-100052D01*
X180240Y-112080D01*
X172523Y-123628D01*
X164068Y-134647D01*
X154910Y-145090D01*
X145090Y-154910D01*
X134647Y-164068D01*
X123628Y-172523D01*
X112080Y-180240D01*
X100052Y-187184D01*
X87595Y-193327D01*
X74763Y-198642D01*
X61612Y-203106D01*
X48196Y-206701D01*
X34574Y-209411D01*
X20804Y-211224D01*
X6945Y-212132D01*
X-6945D01*
X-20804Y-211224D01*
X-34574Y-209411D01*
X-48196Y-206701D01*
X-61612Y-203106D01*
X-74764Y-198642D01*
X-87595Y-193327D01*
X-100052Y-187184D01*
X-112080Y-180240D01*
X-123628Y-172523D01*
X-134647Y-164068D01*
X-145090Y-154910D01*
X-154910Y-145090D01*
X-164068Y-134647D01*
X-172523Y-123628D01*
X-180240Y-112080D01*
X-187184Y-100052D01*
X-193327Y-87595D01*
X-198642Y-74764D01*
X-203106Y-61612D01*
X-206701Y-48196D01*
X-209411Y-34574D01*
X-211224Y-20804D01*
X-212132Y-6945D01*
Y0D01*
Y6945D01*
X-211224Y20804D01*
X-209411Y34574D01*
X-206701Y48196D01*
X-203106Y61612D01*
X-198642Y74763D01*
X-193327Y87595D01*
X-187184Y100052D01*
X-180240Y112080D01*
X-172523Y123628D01*
X-164068Y134647D01*
X-154910Y145090D01*
X-145090Y154910D01*
X-134647Y164068D01*
X-123628Y172523D01*
X-112080Y180240D01*
X-100052Y187184D01*
X-87595Y193327D01*
X-74764Y198642D01*
X-61612Y203106D01*
X-48196Y206701D01*
X-34574Y209411D01*
X-20804Y211224D01*
X-6945Y212132D01*
X6945D01*
X20804Y211224D01*
D02*
G37*
%LPC*%
G36*
X-98000Y181333D02*
X-99658Y181003D01*
X-101064Y180064D01*
X-101067Y180060D01*
X-101078Y180059D01*
X-102036D01*
X-102036Y180059D01*
X-103206Y179826D01*
X-104199Y179163D01*
X-105289Y179695D01*
X-106594Y181144D01*
X-130374Y159732D01*
X-130374Y159732D01*
X-131364Y159012D01*
X-132827Y158820D01*
X-134530Y158114D01*
X-135992Y156992D01*
X-137114Y155530D01*
X-137819Y153827D01*
X-138034Y152202D01*
X-138175Y152119D01*
X-139292Y151702D01*
X-139292D01*
X-139292Y151702D01*
X-163073Y130290D01*
X-159877Y126741D01*
X-162163Y124455D01*
X-162826Y123463D01*
X-163059Y122292D01*
X-163059Y122292D01*
Y117948D01*
X-163060Y117937D01*
X-163064Y117934D01*
X-164003Y116528D01*
X-164333Y114870D01*
X-164003Y113212D01*
X-163064Y111806D01*
X-161658Y110867D01*
X-160000Y110537D01*
X-158342Y110867D01*
X-156936Y111806D01*
X-155997Y113212D01*
X-155667Y114870D01*
X-155997Y116528D01*
X-156936Y117934D01*
X-156940Y117937D01*
X-156941Y117948D01*
Y120479D01*
X-156274Y121132D01*
X-154787Y121087D01*
X-153705Y119886D01*
X-129924Y141298D01*
X-132191Y143815D01*
X-131560Y145013D01*
X-131000Y144939D01*
X-129172Y145180D01*
X-127470Y145885D01*
X-126007Y147007D01*
X-124885Y148469D01*
X-124180Y150172D01*
X-124090Y150854D01*
X-122755Y151269D01*
X-121006Y149327D01*
X-97226Y170740D01*
X-97859Y171442D01*
X-97366Y172793D01*
X-96342Y172997D01*
X-94936Y173936D01*
X-93997Y175342D01*
X-93667Y177000D01*
X-93997Y178658D01*
X-94936Y180064D01*
X-96342Y181003D01*
X-98000Y181333D01*
D02*
G37*
G36*
X-84000Y168333D02*
X-85658Y168003D01*
X-87064Y167064D01*
X-87066Y167060D01*
X-87078Y167059D01*
X-88202D01*
X-88202Y167059D01*
X-89373Y166826D01*
X-90365Y166163D01*
X-91155Y165374D01*
X-92424Y165407D01*
X-93880Y167024D01*
X-117661Y145612D01*
X-108293Y135208D01*
X-84512Y156620D01*
X-86962Y159340D01*
X-86124Y160308D01*
X-85658Y159997D01*
X-84000Y159667D01*
X-82342Y159997D01*
X-80936Y160936D01*
X-79997Y162342D01*
X-79667Y164000D01*
X-79997Y165658D01*
X-80936Y167064D01*
X-82342Y168003D01*
X-84000Y168333D01*
D02*
G37*
G36*
X84000Y181582D02*
X81520Y181255D01*
X79209Y180298D01*
X77225Y178776D01*
X75702Y176791D01*
X74745Y174480D01*
X74418Y172000D01*
X74745Y169520D01*
X75702Y167209D01*
X77225Y165225D01*
X79209Y163702D01*
X81520Y162745D01*
X84000Y162418D01*
X86480Y162745D01*
X88791Y163702D01*
X90775Y165225D01*
X92298Y167209D01*
X93256Y169520D01*
X93582Y172000D01*
X93256Y174480D01*
X92298Y176791D01*
X90775Y178776D01*
X88791Y180298D01*
X86480Y181255D01*
X84000Y181582D01*
D02*
G37*
G36*
X-70000Y154333D02*
X-71658Y154003D01*
X-73064Y153064D01*
X-73067Y153060D01*
X-73078Y153059D01*
X-75369D01*
X-76540Y152826D01*
X-77532Y152163D01*
X-77532Y152163D01*
X-78441Y151254D01*
X-79711Y151287D01*
X-81167Y152904D01*
X-104947Y131492D01*
X-95870Y121411D01*
X-103506Y113775D01*
X-105218Y113859D01*
X-113865Y123462D01*
X-137646Y102050D01*
X-134161Y98180D01*
X-134293Y98048D01*
X-134956Y97056D01*
X-135189Y95885D01*
X-135189Y95885D01*
Y92078D01*
X-135191Y92066D01*
X-135194Y92064D01*
X-136134Y90658D01*
X-136463Y89000D01*
X-136134Y87342D01*
X-135194Y85936D01*
X-133964Y85114D01*
X-133510Y83772D01*
X-134658Y82624D01*
X-135984Y80639D01*
X-136449Y78298D01*
Y78268D01*
X-136356Y77797D01*
X-142023Y72130D01*
X-142797Y70972D01*
X-142888Y70514D01*
X-145817D01*
Y71054D01*
X-148230D01*
Y61148D01*
X-149500D01*
Y59878D01*
X-153183D01*
Y56039D01*
X-154610D01*
X-154733Y56163D01*
X-155726Y56826D01*
X-156896Y57059D01*
X-156896Y57059D01*
X-157454D01*
X-158080Y58329D01*
X-157414Y59198D01*
X-156654Y61032D01*
X-156562Y61730D01*
X-167571D01*
Y59500D01*
X-168029Y59948D01*
X-168927Y60701D01*
X-169366Y61007D01*
X-169799Y61266D01*
X-170225Y61478D01*
X-170646Y61643D01*
X-170951Y61730D01*
X-171438D01*
X-171346Y61032D01*
X-170586Y59198D01*
X-169920Y58329D01*
X-170546Y57059D01*
X-176135D01*
Y76859D01*
X-176290Y77639D01*
X-176732Y78301D01*
X-177394Y78743D01*
X-178174Y78898D01*
X-192366D01*
X-193146Y78743D01*
X-193808Y78301D01*
X-194250Y77639D01*
X-194405Y76859D01*
Y47681D01*
X-194250Y46901D01*
X-193808Y46239D01*
X-193146Y45797D01*
X-192366Y45642D01*
X-178174D01*
X-177394Y45797D01*
X-176732Y46239D01*
X-176290Y46901D01*
X-176135Y47681D01*
Y50941D01*
X-173661D01*
X-172514Y50643D01*
Y40559D01*
X-189604D01*
X-189604Y40559D01*
X-190579Y40365D01*
X-191789Y41294D01*
X-193820Y42135D01*
X-196000Y42422D01*
X-198180Y42135D01*
X-200211Y41294D01*
X-201955Y39955D01*
X-203294Y38211D01*
X-204135Y36180D01*
X-204422Y34000D01*
X-204135Y31820D01*
X-203294Y29789D01*
X-201955Y28045D01*
X-200211Y26706D01*
X-198180Y25865D01*
X-196000Y25578D01*
X-193820Y25865D01*
X-191789Y26706D01*
X-190045Y28045D01*
X-188706Y29789D01*
X-187865Y31820D01*
X-187578Y34000D01*
X-187191Y34441D01*
X-182544D01*
X-182058Y33268D01*
X-202963Y12363D01*
X-203626Y11371D01*
X-203859Y10200D01*
X-203859Y10200D01*
Y-16822D01*
X-203860Y-16833D01*
X-203864Y-16836D01*
X-204803Y-18242D01*
X-205133Y-19900D01*
X-204803Y-21558D01*
X-203864Y-22964D01*
X-202458Y-23903D01*
X-200800Y-24233D01*
X-199142Y-23903D01*
X-197736Y-22964D01*
X-196565Y-23497D01*
X-195658Y-24103D01*
X-194000Y-24433D01*
X-192341Y-24103D01*
X-191827Y-23760D01*
X-190564Y-23364D01*
X-189158Y-24303D01*
X-187500Y-24633D01*
X-185841Y-24303D01*
X-184436Y-23364D01*
X-183095Y-23644D01*
X-182558Y-24003D01*
X-180900Y-24333D01*
X-179241Y-24003D01*
X-177836Y-23064D01*
X-177544Y-22628D01*
X-176274D01*
X-176264Y-22642D01*
X-174858Y-23582D01*
X-173200Y-23911D01*
X-171542Y-23582D01*
X-170136Y-22642D01*
X-169197Y-21237D01*
X-169045Y-20476D01*
X-168609Y-20203D01*
X-167651Y-19978D01*
X-166949Y-20448D01*
X-166827Y-20472D01*
X-166364Y-21164D01*
X-164958Y-22103D01*
X-163300Y-22433D01*
X-161642Y-22103D01*
X-160236Y-21164D01*
X-159297Y-19758D01*
X-158967Y-18100D01*
X-159297Y-16442D01*
X-160236Y-15036D01*
X-161642Y-14097D01*
X-163300Y-13767D01*
X-164958Y-14097D01*
X-164970Y-14104D01*
X-166718Y-12356D01*
X-166232Y-11183D01*
X-164418D01*
Y-7500D01*
X-161878D01*
Y-11183D01*
X-158935D01*
Y-12706D01*
X-158780Y-13486D01*
X-158338Y-14148D01*
X-157677Y-14590D01*
X-156896Y-14745D01*
X-153183D01*
Y-19878D01*
X-149500D01*
Y-21148D01*
X-148230D01*
Y-31054D01*
X-145817D01*
X-145817Y-31054D01*
X-145661Y-31096D01*
X-145126Y-32440D01*
X-145147Y-32548D01*
X-145820Y-34173D01*
X-146060Y-36000D01*
X-145820Y-37827D01*
X-145114Y-39530D01*
X-143992Y-40992D01*
X-142530Y-42115D01*
X-140827Y-42820D01*
X-139000Y-43060D01*
X-137173Y-42820D01*
X-135470Y-42115D01*
X-134008Y-40992D01*
X-133829Y-40760D01*
X-132559Y-41191D01*
Y-50642D01*
X-141504D01*
X-142774Y-49713D01*
Y-46381D01*
X-143489D01*
X-143687Y-46085D01*
X-144348Y-45643D01*
X-145128Y-45487D01*
X-171926D01*
X-172706Y-45643D01*
X-173368Y-46085D01*
X-173810Y-46746D01*
X-173965Y-47527D01*
Y-47622D01*
X-184675D01*
X-184729Y-47617D01*
X-185039Y-47565D01*
X-185321Y-47497D01*
X-185576Y-47414D01*
X-185807Y-47316D01*
X-186018Y-47204D01*
X-186214Y-47077D01*
X-186397Y-46934D01*
X-186526Y-46814D01*
X-186608Y-46708D01*
X-188070Y-45585D01*
X-189773Y-44880D01*
X-191600Y-44640D01*
X-193427Y-44880D01*
X-195130Y-45585D01*
X-196592Y-46708D01*
X-197715Y-48170D01*
X-198420Y-49873D01*
X-198660Y-51700D01*
X-198420Y-53527D01*
X-197715Y-55230D01*
X-196592Y-56692D01*
X-195130Y-57814D01*
X-193427Y-58520D01*
X-191600Y-58760D01*
X-189773Y-58520D01*
X-188070Y-57814D01*
X-186608Y-56692D01*
X-186526Y-56586D01*
X-186398Y-56466D01*
X-186214Y-56322D01*
X-186018Y-56196D01*
X-185807Y-56084D01*
X-185575Y-55986D01*
X-185321Y-55903D01*
X-185039Y-55835D01*
X-184729Y-55784D01*
X-184675Y-55778D01*
X-173965D01*
Y-73172D01*
X-173810Y-73953D01*
X-173368Y-74614D01*
X-172706Y-75056D01*
X-172466Y-75104D01*
Y-75559D01*
X-165268D01*
X-164967Y-76791D01*
X-167192Y-77999D01*
X-169030Y-79743D01*
X-170353Y-81903D01*
X-171073Y-84331D01*
X-171139Y-86863D01*
X-170548Y-89326D01*
X-169339Y-91552D01*
X-167596Y-93390D01*
X-165436Y-94713D01*
X-163007Y-95433D01*
X-160475Y-95499D01*
X-158012Y-94908D01*
X-155786Y-93699D01*
X-154774Y-92739D01*
X-154613Y-92632D01*
X-153819Y-91846D01*
X-152355Y-90540D01*
X-151729Y-90052D01*
X-151145Y-89646D01*
X-150624Y-89334D01*
X-150176Y-89113D01*
X-149812Y-88976D01*
X-149541Y-88911D01*
X-149504Y-88908D01*
X-141419D01*
X-140029Y-90298D01*
Y-117150D01*
X-139874Y-117931D01*
X-139431Y-118592D01*
X-139508Y-120068D01*
X-139641Y-120194D01*
X-140964Y-122353D01*
X-141684Y-124782D01*
X-141750Y-127314D01*
X-141159Y-129777D01*
X-139950Y-132003D01*
X-138206Y-133841D01*
X-136047Y-135164D01*
X-133618Y-135884D01*
X-131086Y-135950D01*
X-128623Y-135358D01*
X-126397Y-134150D01*
X-125385Y-133190D01*
X-125223Y-133083D01*
X-124430Y-132297D01*
X-122965Y-130990D01*
X-122340Y-130503D01*
X-121756Y-130097D01*
X-121235Y-129785D01*
X-120787Y-129564D01*
X-120422Y-129427D01*
X-120152Y-129362D01*
X-120115Y-129359D01*
X-114059D01*
Y-135366D01*
X-113904Y-136146D01*
X-113462Y-136808D01*
X-112800Y-137250D01*
X-112020Y-137405D01*
X-81141D01*
X-80361Y-137250D01*
X-79699Y-136808D01*
X-79257Y-136146D01*
X-79102Y-135366D01*
Y-117580D01*
X-79257Y-116800D01*
X-79699Y-116138D01*
X-80361Y-115696D01*
X-81141Y-115541D01*
X-86065D01*
X-86551Y-114368D01*
X-60742Y-88559D01*
X-46546D01*
X-45920Y-89829D01*
X-46770Y-90937D01*
X-47782Y-93379D01*
X-47959Y-94730D01*
X-46681D01*
X-46368Y-94500D01*
X-45853Y-94031D01*
X-45363Y-93489D01*
X-44898Y-92875D01*
X-44460Y-92189D01*
X-43831Y-94730D01*
X-28041D01*
X-28218Y-93379D01*
X-29230Y-90937D01*
X-30080Y-89829D01*
X-29454Y-88559D01*
X-20865D01*
X-20239Y-89829D01*
X-21298Y-91209D01*
X-22255Y-93520D01*
X-22582Y-96000D01*
X-22255Y-98480D01*
X-21298Y-100791D01*
X-19775Y-102775D01*
X-17791Y-104298D01*
X-15480Y-105255D01*
X-13000Y-105582D01*
X-10520Y-105255D01*
X-8209Y-104298D01*
X-6224Y-102775D01*
X-4702Y-100791D01*
X-3744Y-98480D01*
X-3418Y-96000D01*
X-3744Y-93520D01*
X-4702Y-91209D01*
X-5761Y-89829D01*
X-5135Y-88559D01*
X4135D01*
X4761Y-89829D01*
X3702Y-91209D01*
X2745Y-93520D01*
X2418Y-96000D01*
X2745Y-98480D01*
X3702Y-100791D01*
X4765Y-102176D01*
X4806Y-102259D01*
X4831Y-102280D01*
X4846Y-102309D01*
X5110Y-102627D01*
X5225Y-102775D01*
X5250Y-102795D01*
X5321Y-102880D01*
X5636Y-103336D01*
X5846Y-103722D01*
X5964Y-104028D01*
X6012Y-104250D01*
X6017Y-104403D01*
X5997Y-104522D01*
X5948Y-104650D01*
X5844Y-104821D01*
X5786Y-104889D01*
X1837Y-108837D01*
X1174Y-109830D01*
X941Y-111000D01*
X941Y-111000D01*
Y-111303D01*
X919Y-111464D01*
X878Y-111624D01*
X833Y-111745D01*
X785Y-111835D01*
X732Y-111909D01*
X666Y-111979D01*
X578Y-112051D01*
X455Y-112129D01*
X194Y-112255D01*
X82Y-112340D01*
X-791Y-112702D01*
X-2776Y-114225D01*
X-4298Y-116209D01*
X-5256Y-118520D01*
X-5582Y-121000D01*
X-5256Y-123480D01*
X-4298Y-125791D01*
X-2776Y-127775D01*
X-2272Y-128161D01*
X-2704Y-129431D01*
X-7522D01*
X-12251Y-124702D01*
X-11745Y-123480D01*
X-11418Y-121000D01*
X-11745Y-118520D01*
X-12702Y-116209D01*
X-14225Y-114225D01*
X-16209Y-112702D01*
X-18520Y-111744D01*
X-21000Y-111418D01*
X-23480Y-111744D01*
X-25791Y-112702D01*
X-27775Y-114225D01*
X-29298Y-116209D01*
X-30255Y-118520D01*
X-30582Y-121000D01*
X-30255Y-123480D01*
X-29298Y-125791D01*
X-27775Y-127775D01*
X-25791Y-129298D01*
X-23569Y-130219D01*
Y-191915D01*
X-24992Y-193008D01*
X-26114Y-194470D01*
X-26820Y-196173D01*
X-27060Y-198000D01*
X-26820Y-199827D01*
X-26114Y-201530D01*
X-24992Y-202992D01*
X-23530Y-204114D01*
X-21827Y-204820D01*
X-20000Y-205060D01*
X-18173Y-204820D01*
X-16470Y-204114D01*
X-15008Y-202992D01*
X-13886Y-201530D01*
X-13180Y-199827D01*
X-12940Y-198000D01*
X-13180Y-196173D01*
X-13886Y-194470D01*
X-15008Y-193008D01*
X-16431Y-191915D01*
Y-132275D01*
X-15258Y-131789D01*
X-11523Y-135523D01*
X-10366Y-136297D01*
X-9000Y-136569D01*
X12000D01*
X13366Y-136297D01*
X14523Y-135523D01*
X18523Y-131523D01*
X19297Y-130366D01*
X19569Y-129000D01*
Y-126317D01*
X20176Y-126035D01*
X20839Y-125969D01*
X22225Y-127775D01*
X24209Y-129298D01*
X26520Y-130255D01*
X29000Y-130582D01*
X31480Y-130255D01*
X33791Y-129298D01*
X35775Y-127775D01*
X37298Y-125791D01*
X38255Y-123480D01*
X38582Y-121000D01*
X38540Y-120682D01*
X38544Y-119841D01*
X38655Y-117922D01*
X38751Y-117153D01*
X38875Y-116467D01*
X39021Y-115891D01*
X39178Y-115429D01*
X39336Y-115083D01*
X39479Y-114851D01*
X39499Y-114827D01*
X51163Y-103163D01*
X51163Y-103163D01*
X51826Y-102170D01*
X52059Y-101000D01*
X52286Y-100692D01*
X53702Y-100791D01*
X55225Y-102775D01*
X57209Y-104298D01*
X59520Y-105255D01*
X62000Y-105582D01*
X64480Y-105255D01*
X66791Y-104298D01*
X68776Y-102775D01*
X70298Y-100791D01*
X71255Y-98480D01*
X71582Y-96000D01*
X71255Y-93520D01*
X70298Y-91209D01*
X68776Y-89225D01*
X66791Y-87702D01*
X64480Y-86744D01*
X62000Y-86418D01*
X59520Y-86744D01*
X57569Y-87553D01*
X56850Y-86476D01*
X77446Y-65880D01*
X78433Y-66689D01*
X77997Y-67342D01*
X77667Y-69000D01*
X77997Y-70658D01*
X78936Y-72064D01*
X80342Y-73003D01*
X82000Y-73333D01*
X82004Y-73332D01*
X82014Y-73339D01*
X85837Y-77163D01*
X86830Y-77826D01*
X88000Y-78059D01*
X88000Y-78059D01*
X94109D01*
X94495Y-79329D01*
X94395Y-79395D01*
X93290Y-81049D01*
X92902Y-83000D01*
X93290Y-84951D01*
X94395Y-86605D01*
X96049Y-87710D01*
X98000Y-88098D01*
X98253Y-88048D01*
X98359Y-88057D01*
X98486Y-88079D01*
X98598Y-88107D01*
X98698Y-88141D01*
X98788Y-88180D01*
X98873Y-88226D01*
X98952Y-88278D01*
X105837Y-95163D01*
X106830Y-95826D01*
X108000Y-96059D01*
X108000Y-96059D01*
X121034D01*
X121034Y-96059D01*
X122205Y-95826D01*
X123197Y-95163D01*
X127411Y-90949D01*
X135856Y-99394D01*
X136518Y-99836D01*
X137298Y-99991D01*
X138079Y-99836D01*
X138740Y-99394D01*
X138740Y-99394D01*
X141404Y-96730D01*
X144969Y-100295D01*
X144439Y-101561D01*
X142441Y-101824D01*
X140130Y-102781D01*
X138146Y-104304D01*
X136623Y-106288D01*
X135666Y-108599D01*
X135339Y-111079D01*
X135666Y-113559D01*
X136623Y-115870D01*
X138146Y-117854D01*
X138400Y-118050D01*
X138992Y-118647D01*
X140271Y-120082D01*
X140747Y-120694D01*
X141143Y-121267D01*
X141448Y-121777D01*
X141664Y-122216D01*
X141797Y-122572D01*
X141860Y-122837D01*
X141862Y-122868D01*
Y-124661D01*
X137784Y-128740D01*
X136443Y-128284D01*
X136216Y-126559D01*
X135259Y-124249D01*
X133736Y-122264D01*
X131751Y-120741D01*
X129440Y-119784D01*
X127401Y-119515D01*
X127377Y-119510D01*
X127371Y-119509D01*
X127371Y-119509D01*
X127371Y-119509D01*
X127340Y-119508D01*
X126960Y-119458D01*
X126802Y-119478D01*
X126234Y-119448D01*
X125234Y-119363D01*
X123459Y-119116D01*
X122773Y-118970D01*
X122177Y-118805D01*
X121700Y-118634D01*
X121344Y-118467D01*
X121113Y-118324D01*
X121099Y-118313D01*
X89099Y-86313D01*
X89064Y-86257D01*
X89036Y-86200D01*
X89014Y-86144D01*
X88998Y-86083D01*
X88985Y-86012D01*
X88979Y-85925D01*
X88981Y-85818D01*
X89001Y-85611D01*
X88993Y-85528D01*
X89098Y-85000D01*
X88710Y-83049D01*
X87605Y-81395D01*
X85951Y-80290D01*
X84000Y-79902D01*
X82049Y-80290D01*
X80395Y-81395D01*
X79290Y-83049D01*
X78902Y-85000D01*
X79290Y-86951D01*
X80395Y-88605D01*
X80766Y-88853D01*
X80498Y-90201D01*
X80049Y-90290D01*
X78395Y-91395D01*
X77290Y-93049D01*
X76902Y-95000D01*
X77290Y-96951D01*
X78395Y-98605D01*
X78610Y-98748D01*
X78678Y-98830D01*
X78753Y-98935D01*
X78812Y-99034D01*
X78858Y-99129D01*
X78894Y-99220D01*
X78922Y-99312D01*
X78941Y-99405D01*
Y-101000D01*
X78941Y-101000D01*
X79174Y-102170D01*
X79837Y-103163D01*
X108438Y-131764D01*
X108340Y-133462D01*
X102799Y-139003D01*
X109898Y-146102D01*
X109000Y-147000D01*
X109898Y-147898D01*
X102799Y-154997D01*
X105569Y-157768D01*
X105083Y-158941D01*
X47267D01*
X26339Y-138013D01*
X26332Y-138004D01*
X26333Y-138000D01*
X26003Y-136342D01*
X25064Y-134936D01*
X23658Y-133997D01*
X22000Y-133667D01*
X20342Y-133997D01*
X18936Y-134936D01*
X17997Y-136342D01*
X17667Y-138000D01*
X17997Y-139658D01*
X18936Y-141064D01*
X20342Y-142003D01*
X22000Y-142333D01*
X22004Y-142332D01*
X22013Y-142339D01*
X43837Y-164163D01*
X44830Y-164826D01*
X46000Y-165059D01*
X46000Y-165059D01*
X114000D01*
X114000Y-165059D01*
X115170Y-164826D01*
X116163Y-164163D01*
X132663Y-147662D01*
X132884Y-147619D01*
X133876Y-146955D01*
X183163Y-97669D01*
X183826Y-96677D01*
X184059Y-95506D01*
Y-80744D01*
X191163Y-73640D01*
X191826Y-72648D01*
X192059Y-71477D01*
Y-51267D01*
X197163Y-46163D01*
X197163Y-46163D01*
X197826Y-45170D01*
X198059Y-44000D01*
X198059Y-44000D01*
Y-28267D01*
X205163Y-21163D01*
X205826Y-20171D01*
X206059Y-19000D01*
Y24800D01*
X205826Y25970D01*
X205163Y26963D01*
X205163Y26963D01*
X200469Y31657D01*
X200349Y31846D01*
X200212Y32133D01*
X200075Y32516D01*
X199947Y32995D01*
X199836Y33567D01*
X199750Y34205D01*
X199648Y35825D01*
X199644Y36541D01*
X199678Y36800D01*
X199382Y39046D01*
X198515Y41139D01*
X197136Y42937D01*
X195339Y44316D01*
X193246Y45183D01*
X191000Y45478D01*
X188754Y45183D01*
X186661Y44316D01*
X184863Y42937D01*
X183484Y41139D01*
X182617Y39046D01*
X182322Y36800D01*
X182617Y34554D01*
X183484Y32461D01*
X184863Y30664D01*
X185040Y30528D01*
X185269Y30287D01*
X185588Y29908D01*
X185860Y29538D01*
X186087Y29179D01*
X186272Y28831D01*
X186417Y28493D01*
X186481Y28300D01*
X179039Y20857D01*
X177865Y21343D01*
Y44859D01*
X177710Y45639D01*
X177268Y46301D01*
X176607Y46743D01*
X175994Y46865D01*
X176119Y48135D01*
X177319D01*
X178099Y48290D01*
X178761Y48732D01*
X179203Y49394D01*
X179358Y50174D01*
Y53941D01*
X186800D01*
X186800Y53941D01*
X187918Y54164D01*
X188754Y53818D01*
X191000Y53522D01*
X193246Y53818D01*
X195339Y54685D01*
X197136Y56064D01*
X198515Y57861D01*
X199382Y59954D01*
X199678Y62200D01*
X199382Y64446D01*
X198515Y66539D01*
X197136Y68337D01*
X195339Y69716D01*
X193246Y70583D01*
X191000Y70878D01*
X188754Y70583D01*
X186661Y69716D01*
X184863Y68337D01*
X183484Y66539D01*
X182617Y64446D01*
X182322Y62200D01*
X182478Y61014D01*
X181640Y60059D01*
X179358D01*
Y64366D01*
X179203Y65146D01*
X178761Y65808D01*
X178099Y66250D01*
X177319Y66405D01*
X148141D01*
X147361Y66250D01*
X146699Y65808D01*
X146257Y65146D01*
X146102Y64366D01*
Y50174D01*
X146257Y49394D01*
X146557Y48945D01*
X146458Y47955D01*
X146306Y47467D01*
X144876Y46875D01*
X143329Y45687D01*
X142059Y46314D01*
Y70000D01*
X141855Y71023D01*
X142213Y71426D01*
X142837Y71837D01*
X143829Y71174D01*
X145000Y70941D01*
X145000Y70941D01*
X156000D01*
X156000Y70941D01*
X157171Y71174D01*
X158163Y71837D01*
X167886Y81560D01*
X173513Y84791D01*
X173633Y84896D01*
X174400Y85295D01*
X176021Y86780D01*
X177202Y88634D01*
X177863Y90731D01*
X177959Y92928D01*
X177483Y95074D01*
X176468Y97024D01*
X174982Y98645D01*
X174388Y99024D01*
X174277Y100289D01*
X174887Y100848D01*
X176145Y102822D01*
X176849Y105055D01*
X176951Y107393D01*
X176444Y109679D01*
X175955Y110619D01*
X168747Y105571D01*
X167290Y107652D01*
X174498Y112699D01*
X173782Y113481D01*
X171808Y114738D01*
X169576Y115442D01*
X167237Y115544D01*
X164952Y115038D01*
X164218Y114656D01*
X163067Y115192D01*
X162914Y115880D01*
X161899Y117831D01*
X160414Y119452D01*
X158559Y120633D01*
X156462Y121294D01*
X154266Y121390D01*
X152120Y120914D01*
X150169Y119899D01*
X148548Y118414D01*
X147367Y116559D01*
X146706Y114462D01*
X146610Y112266D01*
X147086Y110119D01*
X147159Y109979D01*
X147281Y109593D01*
X147429Y108996D01*
X147519Y108470D01*
X147558Y108015D01*
X147552Y107634D01*
X147512Y107327D01*
X147448Y107086D01*
X147368Y106897D01*
X147271Y106740D01*
X147267Y106736D01*
X145229Y104698D01*
X143964Y104809D01*
X143378Y105645D01*
X132195Y97814D01*
X134728Y94197D01*
X129590Y89059D01*
X121044D01*
X120558Y90232D01*
X131663Y101337D01*
X131663Y101337D01*
X132326Y102330D01*
X132337Y102384D01*
X132564Y102536D01*
X133503Y103942D01*
X133833Y105600D01*
X133503Y107258D01*
X132564Y108664D01*
X131160Y109602D01*
X131158Y109609D01*
X131161Y110898D01*
X131658Y110997D01*
X133064Y111936D01*
X134003Y113342D01*
X134333Y115000D01*
X134003Y116658D01*
X133064Y118064D01*
X131658Y119003D01*
X130779Y119178D01*
X130715Y120486D01*
X131667Y120775D01*
X135583Y122868D01*
X139015Y125685D01*
X141832Y129117D01*
X143925Y133033D01*
X145214Y137281D01*
X145524Y140430D01*
X124270D01*
Y119176D01*
X126668Y119412D01*
X127109Y118180D01*
X126936Y118064D01*
X125997Y116658D01*
X125667Y115000D01*
X125738Y114640D01*
X114526Y103427D01*
X112986Y103683D01*
X112464Y104464D01*
X111058Y105403D01*
X109400Y105733D01*
X108720Y105598D01*
X108094Y106768D01*
X111611Y110286D01*
X112942Y109397D01*
X114600Y109067D01*
X116258Y109397D01*
X117664Y110336D01*
X118603Y111742D01*
X118933Y113400D01*
X118603Y115058D01*
X117664Y116464D01*
X116258Y117403D01*
X114600Y117733D01*
X112942Y117403D01*
X111536Y116464D01*
X111533Y116460D01*
X111522Y116459D01*
X110400D01*
X110400Y116459D01*
X109229Y116226D01*
X108536Y115763D01*
X107560Y115996D01*
X107142Y116263D01*
X107003Y116958D01*
X106064Y118364D01*
X104658Y119303D01*
X103000Y119633D01*
X101342Y119303D01*
X99936Y118364D01*
X98997Y116958D01*
X98667Y115300D01*
X98668Y115296D01*
X98661Y115287D01*
X83590Y100216D01*
X83000Y100333D01*
X81342Y100003D01*
X79936Y99064D01*
X78997Y97658D01*
X78667Y96000D01*
X78997Y94342D01*
X79936Y92936D01*
X79633Y91611D01*
X78996Y90658D01*
X78666Y89000D01*
X78996Y87342D01*
X79633Y86389D01*
X79936Y85064D01*
X78997Y83658D01*
X78667Y82000D01*
X78997Y80342D01*
X79840Y79079D01*
X79928Y78891D01*
X79694Y77570D01*
X78936Y77064D01*
X77997Y75658D01*
X77667Y74000D01*
X77997Y72342D01*
X78325Y71850D01*
X78686Y70564D01*
X77747Y69158D01*
X77596Y68401D01*
X76185Y67816D01*
X76171Y67826D01*
X75000Y68059D01*
X75000Y68059D01*
X59000D01*
X57829Y67826D01*
X56837Y67163D01*
X39006Y49332D01*
X39000Y49333D01*
X37342Y49003D01*
X35936Y48064D01*
X35496Y47405D01*
X29059D01*
X28674Y48675D01*
X29064Y48936D01*
X30003Y50342D01*
X30333Y52000D01*
X30003Y53658D01*
X29064Y55064D01*
X27658Y56003D01*
X26000Y56333D01*
X24342Y56003D01*
X22936Y55064D01*
X21997Y53658D01*
X21667Y52000D01*
X21997Y50342D01*
X22936Y48936D01*
X23326Y48675D01*
X22941Y47405D01*
X17821D01*
X17333Y48000D01*
X17003Y49658D01*
X16064Y51064D01*
X16060Y51066D01*
X16059Y51078D01*
Y64733D01*
X57163Y105837D01*
X57163Y105837D01*
X57826Y106830D01*
X58059Y108000D01*
Y110922D01*
X58060Y110934D01*
X58064Y110936D01*
X59003Y112342D01*
X59333Y114000D01*
X59003Y115658D01*
X58064Y117064D01*
X56658Y118003D01*
X55000Y118333D01*
X53342Y118003D01*
X51936Y117064D01*
X50997Y115658D01*
X50667Y114000D01*
X50997Y112342D01*
X51936Y110936D01*
X51940Y110934D01*
X51941Y110922D01*
Y109267D01*
X40767Y98092D01*
X39564Y98686D01*
X39605Y99000D01*
X39346Y100968D01*
X38586Y102802D01*
X37378Y104378D01*
X35803Y105586D01*
X33968Y106346D01*
X32808Y106499D01*
X32353Y107840D01*
X32773Y108259D01*
X33196Y108593D01*
X33682Y108933D01*
X34133Y109205D01*
X34545Y109411D01*
X34915Y109558D01*
X35242Y109651D01*
X35527Y109699D01*
X35673Y109705D01*
X36000Y109662D01*
X38676Y110014D01*
X41169Y111047D01*
X43310Y112690D01*
X44953Y114831D01*
X45986Y117325D01*
X46338Y120000D01*
X45986Y122676D01*
X44953Y125169D01*
X43310Y127311D01*
X41169Y128954D01*
X38676Y129986D01*
X36000Y130339D01*
X33324Y129986D01*
X30831Y128954D01*
X28690Y127311D01*
X27047Y125169D01*
X26014Y122676D01*
X25661Y120000D01*
X25691Y119778D01*
X25690Y119769D01*
X25636Y119481D01*
X25536Y119150D01*
X25382Y118776D01*
X25167Y118359D01*
X24889Y117906D01*
X24558Y117438D01*
X24090Y116880D01*
X19947Y112737D01*
X18990Y113576D01*
X19953Y114831D01*
X20986Y117325D01*
X21338Y120000D01*
X20986Y122676D01*
X19953Y125169D01*
X18310Y127311D01*
X16169Y128954D01*
X13676Y129986D01*
X11000Y130339D01*
X10725Y130303D01*
X10647Y130307D01*
X10361Y130358D01*
X10032Y130454D01*
X9660Y130605D01*
X9245Y130815D01*
X8793Y131090D01*
X8327Y131418D01*
X7760Y131891D01*
X-1674Y141326D01*
X-3659Y142652D01*
X-6000Y143118D01*
X-71630D01*
X-72245Y142995D01*
X-74697Y145719D01*
X-74194Y146515D01*
X-72813Y146768D01*
X-71658Y145997D01*
X-70000Y145667D01*
X-68342Y145997D01*
X-66936Y146936D01*
X-65997Y148342D01*
X-65667Y150000D01*
X-65997Y151658D01*
X-66936Y153064D01*
X-68342Y154003D01*
X-70000Y154333D01*
D02*
G37*
G36*
X124270Y164224D02*
Y142970D01*
X145524D01*
X145214Y146119D01*
X143925Y150367D01*
X141832Y154283D01*
X139015Y157715D01*
X135583Y160532D01*
X131667Y162625D01*
X127419Y163914D01*
X124270Y164224D01*
D02*
G37*
G36*
X121730D02*
X118581Y163914D01*
X114333Y162625D01*
X110417Y160532D01*
X106985Y157715D01*
X104168Y154283D01*
X102075Y150367D01*
X100786Y146119D01*
X100476Y142970D01*
X121730D01*
Y164224D01*
D02*
G37*
G36*
X93500Y156100D02*
X74500D01*
Y137100D01*
X93500D01*
Y156100D01*
D02*
G37*
G36*
X121730Y140430D02*
X100476D01*
X100786Y137281D01*
X102075Y133033D01*
X104168Y129117D01*
X106985Y125685D01*
X110417Y122868D01*
X114333Y120775D01*
X118581Y119486D01*
X121730Y119176D01*
Y140430D01*
D02*
G37*
G36*
X-126579Y137582D02*
X-150359Y116170D01*
X-147164Y112621D01*
X-148163Y111622D01*
X-148826Y110630D01*
X-149059Y109459D01*
X-149059Y109459D01*
Y105078D01*
X-149060Y105066D01*
X-149064Y105064D01*
X-150003Y103658D01*
X-150333Y102000D01*
X-150003Y100342D01*
X-149064Y98936D01*
X-147658Y97997D01*
X-146000Y97667D01*
X-144342Y97997D01*
X-142936Y98936D01*
X-141996Y100342D01*
X-141667Y102000D01*
X-141996Y103658D01*
X-142882Y104984D01*
X-142722Y105829D01*
X-141435Y106259D01*
X-140991Y105766D01*
X-117211Y127178D01*
X-126579Y137582D01*
D02*
G37*
G36*
X64000Y126333D02*
X62342Y126003D01*
X60936Y125064D01*
X59997Y123658D01*
X59667Y122000D01*
X59997Y120342D01*
X60936Y118936D01*
X60940Y118933D01*
X60941Y118922D01*
Y104267D01*
X51013Y94339D01*
X51004Y94332D01*
X51000Y94333D01*
X49342Y94003D01*
X47936Y93064D01*
X46997Y91658D01*
X46667Y90000D01*
X46997Y88342D01*
X47936Y86936D01*
X49342Y85997D01*
X51000Y85667D01*
X52658Y85997D01*
X54064Y86936D01*
X55003Y88342D01*
X55333Y90000D01*
X55332Y90004D01*
X55339Y90014D01*
X66163Y100837D01*
X66826Y101830D01*
X67059Y103000D01*
Y118922D01*
X67060Y118933D01*
X67064Y118936D01*
X68003Y120342D01*
X68333Y122000D01*
X68003Y123658D01*
X67064Y125064D01*
X65658Y126003D01*
X64000Y126333D01*
D02*
G37*
G36*
X183270Y87438D02*
Y81270D01*
X189438D01*
X189346Y81968D01*
X188586Y83802D01*
X187378Y85378D01*
X185802Y86586D01*
X183968Y87346D01*
X183270Y87438D01*
D02*
G37*
G36*
X180730D02*
X180032Y87346D01*
X178197Y86586D01*
X176622Y85378D01*
X175414Y83802D01*
X174670Y82008D01*
X174915Y82015D01*
X175391Y82060D01*
X175846Y82135D01*
X176279Y82240D01*
X176691Y82375D01*
X177082Y82540D01*
X177451Y82735D01*
X177798Y82960D01*
X178125Y83215D01*
X178429Y83500D01*
Y81270D01*
X180730D01*
Y87438D01*
D02*
G37*
G36*
Y78730D02*
X178429D01*
Y76500D01*
X178125Y76785D01*
X177798Y77040D01*
X177451Y77265D01*
X177082Y77460D01*
X176691Y77625D01*
X176279Y77760D01*
X175846Y77865D01*
X175391Y77940D01*
X174915Y77985D01*
X174670Y77992D01*
X175414Y76198D01*
X176622Y74622D01*
X178197Y73414D01*
X180032Y72654D01*
X180730Y72562D01*
Y78730D01*
D02*
G37*
G36*
X189438D02*
X183270D01*
Y72562D01*
X183968Y72654D01*
X185802Y73414D01*
X187378Y74622D01*
X188586Y76198D01*
X189346Y78032D01*
X189438Y78730D01*
D02*
G37*
G36*
X-162318Y70384D02*
X-161931Y70304D01*
X-162032Y70346D01*
X-162318Y70384D01*
D02*
G37*
G36*
X-161219Y70009D02*
X-161210Y69793D01*
X-161161Y69401D01*
X-161080Y68984D01*
X-160966Y68543D01*
X-160641Y67586D01*
X-160429Y67071D01*
X-159600Y65376D01*
X-162730Y66454D01*
Y64270D01*
X-156562D01*
X-156654Y64968D01*
X-157414Y66803D01*
X-158622Y68378D01*
X-160198Y69586D01*
X-161219Y70009D01*
D02*
G37*
G36*
X-165270Y70438D02*
X-165968Y70346D01*
X-167803Y69586D01*
X-169378Y68378D01*
X-170586Y66803D01*
X-171346Y64968D01*
X-171438Y64270D01*
X-170951D01*
X-170646Y64357D01*
X-170225Y64522D01*
X-169799Y64734D01*
X-169366Y64993D01*
X-168927Y65299D01*
X-168481Y65652D01*
X-168029Y66052D01*
X-167571Y66500D01*
Y64270D01*
X-165270D01*
Y67330D01*
X-166002Y67582D01*
X-165530Y67808D01*
X-165270Y67957D01*
Y70438D01*
D02*
G37*
G36*
X-150770Y71054D02*
X-153183D01*
Y62418D01*
X-150770D01*
Y71054D01*
D02*
G37*
G36*
Y-22418D02*
X-153183D01*
Y-31054D01*
X-150770D01*
Y-22418D01*
D02*
G37*
G36*
X-182730Y-69201D02*
Y-71609D01*
X-182554Y-71595D01*
X-181939Y-71503D01*
X-181351Y-71368D01*
X-180791Y-71191D01*
X-180257Y-70971D01*
X-179750Y-70708D01*
X-179285Y-70412D01*
X-179517Y-70235D01*
X-181679Y-69339D01*
X-182730Y-69201D01*
D02*
G37*
G36*
X-176329Y-73393D02*
X-176335Y-73400D01*
X-176642Y-73879D01*
X-176909Y-74386D01*
X-177135Y-74920D01*
X-177320Y-75482D01*
X-177464Y-76072D01*
X-177567Y-76690D01*
X-177570Y-76730D01*
X-175201D01*
X-175339Y-75679D01*
X-176235Y-73517D01*
X-176329Y-73393D01*
D02*
G37*
G36*
X-182730Y-72813D02*
Y-76730D01*
X-178899D01*
X-182730Y-72813D01*
D02*
G37*
G36*
X-185270Y-69201D02*
X-186321Y-69339D01*
X-188483Y-70235D01*
X-190340Y-71660D01*
X-191765Y-73517D01*
X-192661Y-75679D01*
X-192799Y-76730D01*
X-185270D01*
Y-69201D01*
D02*
G37*
G36*
X-175201Y-79270D02*
X-182730D01*
Y-86799D01*
X-181679Y-86661D01*
X-179517Y-85765D01*
X-177660Y-84340D01*
X-176235Y-82483D01*
X-175339Y-80321D01*
X-175201Y-79270D01*
D02*
G37*
G36*
X-185270D02*
X-192799D01*
X-192661Y-80321D01*
X-191765Y-82483D01*
X-190340Y-84340D01*
X-188483Y-85765D01*
X-186321Y-86661D01*
X-185270Y-86799D01*
Y-79270D01*
D02*
G37*
G36*
X-39270Y-97270D02*
X-43203D01*
X-41940Y-102382D01*
X-42763Y-101891D01*
X-45072Y-100730D01*
X-45788Y-100445D01*
X-46477Y-100213D01*
X-47139Y-100032D01*
X-47202Y-100020D01*
X-46770Y-101063D01*
X-45161Y-103161D01*
X-43063Y-104770D01*
X-40621Y-105782D01*
X-39270Y-105959D01*
Y-97270D01*
D02*
G37*
G36*
X-28041D02*
X-36730D01*
Y-105959D01*
X-35379Y-105782D01*
X-32937Y-104770D01*
X-30839Y-103161D01*
X-29230Y-101063D01*
X-28218Y-98621D01*
X-28041Y-97270D01*
D02*
G37*
G36*
X55270Y-111041D02*
Y-119730D01*
X63959D01*
X63782Y-118379D01*
X62770Y-115937D01*
X61161Y-113839D01*
X59063Y-112230D01*
X56621Y-111218D01*
X55270Y-111041D01*
D02*
G37*
G36*
X52730D02*
X51379Y-111218D01*
X48937Y-112230D01*
X46839Y-113839D01*
X45230Y-115937D01*
X44218Y-118379D01*
X44041Y-119730D01*
X52730D01*
Y-111041D01*
D02*
G37*
G36*
X-46000Y-111418D02*
X-48480Y-111744D01*
X-50791Y-112702D01*
X-52776Y-114225D01*
X-54298Y-116209D01*
X-55255Y-118520D01*
X-55582Y-121000D01*
X-55255Y-123480D01*
X-54298Y-125791D01*
X-52776Y-127775D01*
X-50791Y-129298D01*
X-48480Y-130255D01*
X-46000Y-130582D01*
X-43520Y-130255D01*
X-41209Y-129298D01*
X-39225Y-127775D01*
X-37702Y-125791D01*
X-36745Y-123480D01*
X-36418Y-121000D01*
X-36745Y-118520D01*
X-37702Y-116209D01*
X-39225Y-114225D01*
X-41209Y-112702D01*
X-43520Y-111744D01*
X-46000Y-111418D01*
D02*
G37*
G36*
X63959Y-122270D02*
X55270D01*
Y-130959D01*
X56621Y-130782D01*
X59063Y-129770D01*
X61161Y-128161D01*
X62770Y-126063D01*
X63782Y-123621D01*
X63959Y-122270D01*
D02*
G37*
G36*
X52730D02*
X44041D01*
X44218Y-123621D01*
X45230Y-126063D01*
X46839Y-128161D01*
X48937Y-129770D01*
X51379Y-130782D01*
X52730Y-130959D01*
Y-122270D01*
D02*
G37*
G36*
X101003Y-140799D02*
X94801Y-147000D01*
X101003Y-153201D01*
X107204Y-147000D01*
X101003Y-140799D01*
D02*
G37*
G36*
X-90430Y-139676D02*
Y-160930D01*
X-69176D01*
X-69486Y-157781D01*
X-70775Y-153533D01*
X-72868Y-149617D01*
X-75685Y-146185D01*
X-79117Y-143368D01*
X-83033Y-141275D01*
X-87281Y-139986D01*
X-90430Y-139676D01*
D02*
G37*
G36*
X-92970D02*
X-96119Y-139986D01*
X-100367Y-141275D01*
X-104283Y-143368D01*
X-107715Y-146185D01*
X-110532Y-149617D01*
X-112625Y-153533D01*
X-113914Y-157781D01*
X-114224Y-160930D01*
X-92970D01*
Y-139676D01*
D02*
G37*
G36*
X-69176Y-163470D02*
X-90430D01*
Y-184724D01*
X-87281Y-184414D01*
X-83033Y-183125D01*
X-79117Y-181032D01*
X-75685Y-178215D01*
X-72868Y-174783D01*
X-70775Y-170867D01*
X-69486Y-166619D01*
X-69176Y-163470D01*
D02*
G37*
G36*
X-92970D02*
X-114224D01*
X-113914Y-166619D01*
X-112625Y-170867D01*
X-110532Y-174783D01*
X-107715Y-178215D01*
X-104283Y-181032D01*
X-100367Y-183125D01*
X-96119Y-184414D01*
X-92970Y-184724D01*
Y-163470D01*
D02*
G37*
%LPD*%
G36*
X-101824Y175797D02*
X-102091Y175517D01*
X-102315Y175251D01*
X-102496Y174998D01*
X-102636Y174759D01*
X-102734Y174535D01*
X-102790Y174324D01*
X-102803Y174126D01*
X-102775Y173943D01*
X-102704Y173774D01*
X-102591Y173618D01*
X-105271Y176595D01*
X-105129Y176468D01*
X-104972Y176384D01*
X-104800Y176344D01*
X-104612Y176348D01*
X-104409Y176395D01*
X-104191Y176486D01*
X-103957Y176620D01*
X-103708Y176798D01*
X-103444Y177020D01*
X-103165Y177285D01*
X-101824Y175797D01*
D02*
G37*
G36*
X-99607Y175425D02*
X-99726Y175534D01*
X-99858Y175632D01*
X-100002Y175718D01*
X-100159Y175793D01*
X-100328Y175856D01*
X-100511Y175908D01*
X-100705Y175948D01*
X-100913Y175977D01*
X-101133Y175994D01*
X-101366Y176000D01*
Y178000D01*
X-101133Y178006D01*
X-100913Y178023D01*
X-100705Y178052D01*
X-100511Y178092D01*
X-100328Y178144D01*
X-100159Y178207D01*
X-100002Y178282D01*
X-99858Y178368D01*
X-99726Y178466D01*
X-99607Y178575D01*
Y175425D01*
D02*
G37*
G36*
X-155027Y124434D02*
X-155169Y124562D01*
X-155326Y124645D01*
X-155499Y124685D01*
X-155687Y124682D01*
X-155890Y124635D01*
X-156108Y124544D01*
X-156341Y124409D01*
X-156590Y124231D01*
X-156855Y124009D01*
X-157134Y123744D01*
X-158474Y125232D01*
X-158208Y125513D01*
X-157984Y125779D01*
X-157802Y126031D01*
X-157662Y126270D01*
X-157565Y126495D01*
X-157509Y126706D01*
X-157495Y126903D01*
X-157524Y127086D01*
X-157595Y127256D01*
X-157708Y127411D01*
X-155027Y124434D01*
D02*
G37*
G36*
X-158994Y118003D02*
X-158977Y117783D01*
X-158948Y117575D01*
X-158908Y117381D01*
X-158856Y117198D01*
X-158793Y117029D01*
X-158718Y116872D01*
X-158632Y116728D01*
X-158534Y116596D01*
X-158425Y116477D01*
X-161575D01*
X-161466Y116596D01*
X-161368Y116728D01*
X-161282Y116872D01*
X-161207Y117029D01*
X-161144Y117198D01*
X-161092Y117381D01*
X-161052Y117575D01*
X-161023Y117783D01*
X-161006Y118003D01*
X-161000Y118236D01*
X-159000D01*
X-158994Y118003D01*
D02*
G37*
G36*
X-85607Y162425D02*
X-85726Y162534D01*
X-85857Y162632D01*
X-86002Y162718D01*
X-86159Y162793D01*
X-86328Y162856D01*
X-86510Y162908D01*
X-86705Y162948D01*
X-86913Y162977D01*
X-87133Y162994D01*
X-87366Y163000D01*
Y165000D01*
X-87133Y165006D01*
X-86913Y165023D01*
X-86705Y165052D01*
X-86510Y165092D01*
X-86328Y165144D01*
X-86159Y165207D01*
X-86002Y165282D01*
X-85857Y165368D01*
X-85726Y165466D01*
X-85607Y165575D01*
Y162425D01*
D02*
G37*
G36*
X-89111Y161677D02*
X-89377Y161397D01*
X-89601Y161131D01*
X-89783Y160878D01*
X-89923Y160640D01*
X-90021Y160415D01*
X-90076Y160204D01*
X-90090Y160007D01*
X-90061Y159824D01*
X-89990Y159654D01*
X-89878Y159499D01*
X-92558Y162475D01*
X-92416Y162348D01*
X-92259Y162264D01*
X-92086Y162224D01*
X-91899Y162228D01*
X-91696Y162275D01*
X-91477Y162366D01*
X-91244Y162501D01*
X-90995Y162679D01*
X-90730Y162900D01*
X-90451Y163166D01*
X-89111Y161677D01*
D02*
G37*
G36*
X-71607Y148425D02*
X-71726Y148534D01*
X-71858Y148632D01*
X-72002Y148718D01*
X-72159Y148793D01*
X-72328Y148856D01*
X-72510Y148908D01*
X-72705Y148948D01*
X-72913Y148977D01*
X-73133Y148994D01*
X-73366Y149000D01*
Y151000D01*
X-73133Y151006D01*
X-72913Y151023D01*
X-72705Y151052D01*
X-72510Y151092D01*
X-72328Y151144D01*
X-72159Y151207D01*
X-72002Y151282D01*
X-71858Y151368D01*
X-71726Y151466D01*
X-71607Y151575D01*
Y148425D01*
D02*
G37*
G36*
X-76397Y147558D02*
X-76663Y147277D01*
X-76888Y147011D01*
X-77070Y146759D01*
X-77209Y146520D01*
X-77307Y146295D01*
X-77363Y146084D01*
X-77376Y145887D01*
X-77348Y145704D01*
X-77277Y145534D01*
X-77164Y145379D01*
X-79844Y148356D01*
X-79703Y148228D01*
X-79545Y148145D01*
X-79373Y148105D01*
X-79185Y148108D01*
X-78982Y148155D01*
X-78764Y148246D01*
X-78530Y148381D01*
X-78281Y148559D01*
X-78017Y148781D01*
X-77737Y149046D01*
X-76397Y147558D01*
D02*
G37*
G36*
X5860Y130822D02*
X7085Y129798D01*
X7676Y129383D01*
X8252Y129033D01*
X8814Y128747D01*
X9361Y128526D01*
X9894Y128369D01*
X10413Y128277D01*
X10917Y128250D01*
X2750Y120083D01*
X2723Y120587D01*
X2631Y121106D01*
X2474Y121639D01*
X2253Y122186D01*
X1968Y122748D01*
X1617Y123325D01*
X1202Y123915D01*
X722Y124521D01*
X-431Y125774D01*
X5226Y131431D01*
X5860Y130822D01*
D02*
G37*
G36*
X102978Y113050D02*
X102816Y113043D01*
X102654Y113019D01*
X102491Y112978D01*
X102327Y112920D01*
X102162Y112845D01*
X101997Y112753D01*
X101831Y112643D01*
X101664Y112517D01*
X101496Y112374D01*
X101327Y112213D01*
X99913Y113627D01*
X100074Y113796D01*
X100217Y113964D01*
X100343Y114131D01*
X100453Y114297D01*
X100545Y114462D01*
X100620Y114627D01*
X100678Y114791D01*
X100719Y114954D01*
X100743Y115116D01*
X100750Y115278D01*
X102978Y113050D01*
D02*
G37*
G36*
X130278Y112767D02*
X130124Y112741D01*
X129968Y112699D01*
X129811Y112642D01*
X129652Y112571D01*
X129491Y112485D01*
X129329Y112383D01*
X129166Y112267D01*
X129001Y112135D01*
X128666Y111828D01*
X127038Y113028D01*
X127199Y113198D01*
X127340Y113366D01*
X127462Y113534D01*
X127564Y113700D01*
X127647Y113866D01*
X127711Y114030D01*
X127756Y114193D01*
X127781Y114356D01*
X127787Y114517D01*
X127773Y114677D01*
X130278Y112767D01*
D02*
G37*
G36*
X112993Y111825D02*
X112874Y111934D01*
X112743Y112032D01*
X112598Y112118D01*
X112441Y112193D01*
X112272Y112256D01*
X112090Y112308D01*
X111895Y112348D01*
X111687Y112377D01*
X111467Y112394D01*
X111234Y112400D01*
Y114400D01*
X111467Y114406D01*
X111687Y114423D01*
X111895Y114452D01*
X112090Y114492D01*
X112272Y114544D01*
X112441Y114607D01*
X112598Y114682D01*
X112743Y114768D01*
X112874Y114866D01*
X112993Y114975D01*
Y111825D01*
D02*
G37*
G36*
X56466Y112274D02*
X56368Y112142D01*
X56282Y111998D01*
X56207Y111841D01*
X56144Y111672D01*
X56092Y111489D01*
X56052Y111295D01*
X56023Y111087D01*
X56006Y110867D01*
X56000Y110634D01*
X54000D01*
X53994Y110867D01*
X53977Y111087D01*
X53948Y111295D01*
X53908Y111489D01*
X53856Y111672D01*
X53793Y111841D01*
X53718Y111998D01*
X53632Y112142D01*
X53534Y112274D01*
X53425Y112393D01*
X56575D01*
X56466Y112274D01*
D02*
G37*
G36*
X35820Y111752D02*
X35314Y111731D01*
X34794Y111644D01*
X34259Y111491D01*
X33710Y111274D01*
X33148Y110992D01*
X32570Y110644D01*
X31979Y110231D01*
X31374Y109753D01*
X30120Y108601D01*
X24539Y114334D01*
X25148Y114968D01*
X26175Y116192D01*
X26592Y116782D01*
X26945Y117358D01*
X27234Y117918D01*
X27459Y118465D01*
X27620Y118996D01*
X27717Y119513D01*
X27750Y120015D01*
X35820Y111752D01*
D02*
G37*
G36*
X156960Y106960D02*
X155901Y106610D01*
X151472Y104866D01*
X151054Y104634D01*
X150727Y104419D01*
X150492Y104221D01*
X148595Y105153D01*
X148921Y105532D01*
X149183Y105955D01*
X149382Y106422D01*
X149517Y106933D01*
X149589Y107487D01*
X149598Y108086D01*
X149544Y108729D01*
X149426Y109415D01*
X149245Y110145D01*
X149000Y110920D01*
X156960Y106960D01*
D02*
G37*
G36*
X-67674Y105066D02*
X-67543Y104968D01*
X-67398Y104882D01*
X-67241Y104807D01*
X-67072Y104744D01*
X-66890Y104692D01*
X-66695Y104652D01*
X-66487Y104623D01*
X-66267Y104606D01*
X-66034Y104600D01*
Y102600D01*
X-66267Y102594D01*
X-66487Y102577D01*
X-66695Y102548D01*
X-66890Y102508D01*
X-67072Y102456D01*
X-67241Y102393D01*
X-67398Y102318D01*
X-67543Y102232D01*
X-67674Y102134D01*
X-67793Y102025D01*
Y105175D01*
X-67674Y105066D01*
D02*
G37*
G36*
X130756Y103733D02*
X129107Y101693D01*
X127335Y102749D01*
X127501Y102924D01*
X127641Y103090D01*
X127755Y103247D01*
X127843Y103395D01*
X127905Y103534D01*
X127941Y103665D01*
X127951Y103786D01*
X127935Y103899D01*
X127893Y104003D01*
X127824Y104098D01*
X130756Y103733D01*
D02*
G37*
G36*
X-73167Y105612D02*
X-73403Y105258D01*
X-73733Y103600D01*
X-73538Y102617D01*
X-74533Y101521D01*
X-75100Y101633D01*
X-76758Y101303D01*
X-78164Y100364D01*
X-79103Y98958D01*
X-79433Y97300D01*
X-79258Y96418D01*
X-79217Y95578D01*
X-80180Y95038D01*
X-80858Y94903D01*
X-82264Y93964D01*
X-83203Y92558D01*
X-83533Y90900D01*
X-83203Y89242D01*
X-82264Y87836D01*
X-80858Y86897D01*
X-79200Y86567D01*
X-77542Y86897D01*
X-76495Y87596D01*
X-76420Y87635D01*
X-76393Y87657D01*
X-76378Y87662D01*
X-76331Y87674D01*
X-76289Y87682D01*
X-76193Y87692D01*
X-35017D01*
X-23149Y75823D01*
X-23635Y74650D01*
X-33600D01*
Y73700D01*
X-34870Y73074D01*
X-35770Y73765D01*
X-37473Y74470D01*
X-39300Y74710D01*
X-41127Y74470D01*
X-42830Y73765D01*
X-44292Y72642D01*
X-44509Y72360D01*
X-46110D01*
X-46622Y73028D01*
X-48197Y74236D01*
X-50032Y74996D01*
X-50730Y75088D01*
Y66300D01*
X-53270D01*
Y75088D01*
X-53968Y74996D01*
X-55802Y74236D01*
X-57378Y73028D01*
X-58586Y71452D01*
X-59346Y69618D01*
X-59605Y67650D01*
Y66039D01*
X-59757Y65825D01*
X-60875Y65110D01*
X-62000Y65333D01*
X-62004Y65332D01*
X-62014Y65339D01*
X-70837Y74163D01*
X-71830Y74826D01*
X-73000Y75059D01*
X-73000Y75059D01*
X-86801D01*
X-87347Y76329D01*
X-86326Y77659D01*
X-85485Y79690D01*
X-85198Y81870D01*
X-85485Y84050D01*
X-86326Y86081D01*
X-87665Y87825D01*
X-89409Y89164D01*
X-91440Y90005D01*
X-92949Y90204D01*
X-93404Y91545D01*
X-78066Y106882D01*
X-73846D01*
X-73167Y105612D01*
D02*
G37*
G36*
X146851Y100580D02*
X146584Y100299D01*
X146357Y100030D01*
X146171Y99773D01*
X146024Y99528D01*
X145919Y99296D01*
X145853Y99075D01*
X145828Y98867D01*
X145843Y98672D01*
X145898Y98488D01*
X145994Y98316D01*
X143664Y101643D01*
X143790Y101499D01*
X143933Y101400D01*
X144092Y101346D01*
X144269Y101338D01*
X144462Y101375D01*
X144673Y101458D01*
X144901Y101586D01*
X145146Y101760D01*
X145407Y101979D01*
X145686Y102243D01*
X146851Y100580D01*
D02*
G37*
G36*
X107793Y99825D02*
X107674Y99934D01*
X107542Y100032D01*
X107398Y100118D01*
X107241Y100193D01*
X107072Y100256D01*
X106889Y100308D01*
X106695Y100348D01*
X106487Y100377D01*
X106267Y100394D01*
X106034Y100400D01*
Y102400D01*
X106267Y102406D01*
X106487Y102423D01*
X106695Y102452D01*
X106889Y102492D01*
X107072Y102544D01*
X107241Y102607D01*
X107398Y102682D01*
X107542Y102768D01*
X107674Y102866D01*
X107793Y102975D01*
Y99825D01*
D02*
G37*
G36*
X86201Y97086D02*
X86038Y96918D01*
X85754Y96590D01*
X85633Y96430D01*
X85433Y96118D01*
X85354Y95966D01*
X85289Y95817D01*
X85237Y95671D01*
X85200Y95527D01*
X83517Y98190D01*
X83673Y98164D01*
X83830Y98158D01*
X83989Y98173D01*
X84150Y98209D01*
X84312Y98266D01*
X84476Y98344D01*
X84642Y98442D01*
X84809Y98561D01*
X84978Y98701D01*
X85148Y98862D01*
X86201Y97086D01*
D02*
G37*
G36*
X-129311Y95874D02*
X-129453Y96001D01*
X-129610Y96085D01*
X-129783Y96125D01*
X-129970Y96121D01*
X-130173Y96074D01*
X-130392Y95983D01*
X-130625Y95849D01*
X-130874Y95670D01*
X-131138Y95449D01*
X-131418Y95183D01*
X-132758Y96672D01*
X-132492Y96952D01*
X-132268Y97218D01*
X-132086Y97471D01*
X-131946Y97709D01*
X-131848Y97934D01*
X-131793Y98145D01*
X-131779Y98342D01*
X-131808Y98525D01*
X-131878Y98695D01*
X-131991Y98850D01*
X-129311Y95874D01*
D02*
G37*
G36*
X-73374Y98766D02*
X-73243Y98668D01*
X-73098Y98582D01*
X-72941Y98507D01*
X-72772Y98444D01*
X-72590Y98392D01*
X-72395Y98352D01*
X-72187Y98323D01*
X-71967Y98306D01*
X-71734Y98300D01*
Y96300D01*
X-71967Y96294D01*
X-72187Y96277D01*
X-72395Y96248D01*
X-72590Y96208D01*
X-72772Y96156D01*
X-72941Y96093D01*
X-73098Y96018D01*
X-73243Y95932D01*
X-73374Y95834D01*
X-73493Y95725D01*
Y98875D01*
X-73374Y98766D01*
D02*
G37*
G36*
X139157Y91465D02*
X139032Y91609D01*
X138889Y91708D01*
X138729Y91762D01*
X138553Y91770D01*
X138359Y91733D01*
X138149Y91650D01*
X137921Y91522D01*
X137676Y91348D01*
X137415Y91129D01*
X137136Y90865D01*
X135971Y92528D01*
X136238Y92809D01*
X136465Y93078D01*
X136651Y93335D01*
X136797Y93580D01*
X136903Y93812D01*
X136969Y94032D01*
X136994Y94241D01*
X136979Y94437D01*
X136923Y94620D01*
X136828Y94792D01*
X139157Y91465D01*
D02*
G37*
G36*
X-131124Y92133D02*
X-131107Y91913D01*
X-131079Y91705D01*
X-131038Y91510D01*
X-130986Y91328D01*
X-130923Y91159D01*
X-130849Y91002D01*
X-130762Y90858D01*
X-130664Y90726D01*
X-130555Y90607D01*
X-133705D01*
X-133596Y90726D01*
X-133498Y90858D01*
X-133412Y91002D01*
X-133337Y91159D01*
X-133274Y91328D01*
X-133222Y91510D01*
X-133182Y91705D01*
X-133153Y91913D01*
X-133136Y92133D01*
X-133130Y92366D01*
X-131130D01*
X-131124Y92133D01*
D02*
G37*
G36*
X-77380Y92248D02*
X-77254Y92143D01*
X-77116Y92051D01*
X-76963Y91972D01*
X-76797Y91904D01*
X-76618Y91849D01*
X-76425Y91806D01*
X-76219Y91775D01*
X-76000Y91756D01*
X-75767Y91750D01*
X-75916Y89750D01*
X-76149Y89745D01*
X-76578Y89703D01*
X-76774Y89666D01*
X-76959Y89618D01*
X-77132Y89560D01*
X-77292Y89491D01*
X-77441Y89412D01*
X-77577Y89322D01*
X-77702Y89222D01*
X-77492Y92365D01*
X-77380Y92248D01*
D02*
G37*
G36*
X86848Y82777D02*
X84992Y80954D01*
X84191Y83909D01*
X84312Y83848D01*
X84439Y83811D01*
X84572Y83800D01*
X84710Y83814D01*
X84854Y83852D01*
X85005Y83916D01*
X85160Y84004D01*
X85322Y84118D01*
X85489Y84256D01*
X85662Y84420D01*
X86848Y82777D01*
D02*
G37*
G36*
X172498Y86560D02*
X166571Y83157D01*
X164287Y83701D01*
X164625Y84092D01*
X164886Y84512D01*
X165068Y84959D01*
X165172Y85434D01*
X165198Y85937D01*
X165147Y86468D01*
X165017Y87026D01*
X164809Y87613D01*
X164523Y88227D01*
X164159Y88869D01*
X172498Y86560D01*
D02*
G37*
G36*
X83851Y75300D02*
X83939Y75237D01*
X84046Y75181D01*
X84174Y75133D01*
X84322Y75093D01*
X84490Y75059D01*
X84679Y75033D01*
X85116Y75004D01*
X85365Y75000D01*
Y73000D01*
X85116Y72996D01*
X84679Y72967D01*
X84490Y72941D01*
X84322Y72907D01*
X84174Y72867D01*
X84046Y72818D01*
X83939Y72763D01*
X83851Y72700D01*
X83784Y72629D01*
Y75370D01*
X83851Y75300D01*
D02*
G37*
G36*
X114451Y75466D02*
X114583Y75368D01*
X114727Y75282D01*
X114884Y75207D01*
X115053Y75144D01*
X115236Y75092D01*
X115430Y75052D01*
X115638Y75023D01*
X115858Y75006D01*
X116091Y75000D01*
Y73000D01*
X115858Y72994D01*
X115638Y72977D01*
X115430Y72948D01*
X115236Y72908D01*
X115053Y72856D01*
X114884Y72793D01*
X114727Y72718D01*
X114583Y72632D01*
X114451Y72534D01*
X114332Y72425D01*
Y75575D01*
X114451Y75466D01*
D02*
G37*
G36*
X-98499Y70104D02*
X-98409Y68503D01*
X-98388Y68484D01*
X-100613D01*
X-100591Y68503D01*
X-100572Y68564D01*
X-100555Y68664D01*
X-100541Y68804D01*
X-100510Y69464D01*
X-100500Y70484D01*
X-98500D01*
X-98499Y70104D01*
D02*
G37*
G36*
X85553Y67058D02*
X83271Y65842D01*
X83762Y68506D01*
X84838Y69170D01*
X85553Y67058D01*
D02*
G37*
G36*
X125204Y61001D02*
X125184Y61191D01*
X125125Y61361D01*
X125024Y61511D01*
X124885Y61641D01*
X124705Y61751D01*
X124485Y61841D01*
X124225Y61911D01*
X123925Y61961D01*
X123584Y61991D01*
X123288Y61999D01*
X122987Y61991D01*
X122642Y61961D01*
X122338Y61911D01*
X122074Y61841D01*
X121851Y61751D01*
X121668Y61641D01*
X121526Y61511D01*
X121424Y61361D01*
X121363Y61191D01*
X121343Y61001D01*
Y65001D01*
X121363Y64811D01*
X121424Y64641D01*
X121526Y64491D01*
X121668Y64361D01*
X121851Y64251D01*
X122074Y64161D01*
X122338Y64091D01*
X122642Y64041D01*
X122987Y64011D01*
X123288Y64003D01*
X123584Y64011D01*
X123925Y64041D01*
X124225Y64091D01*
X124485Y64161D01*
X124705Y64251D01*
X124885Y64361D01*
X125024Y64491D01*
X125125Y64641D01*
X125184Y64811D01*
X125204Y65001D01*
Y61001D01*
D02*
G37*
G36*
X-63504Y63926D02*
X-63336Y63783D01*
X-63169Y63657D01*
X-63003Y63547D01*
X-62838Y63455D01*
X-62673Y63380D01*
X-62509Y63322D01*
X-62346Y63281D01*
X-62184Y63257D01*
X-62023Y63250D01*
X-64250Y61023D01*
X-64257Y61184D01*
X-64281Y61346D01*
X-64322Y61509D01*
X-64380Y61673D01*
X-64455Y61838D01*
X-64547Y62003D01*
X-64657Y62169D01*
X-64783Y62336D01*
X-64926Y62504D01*
X-65087Y62673D01*
X-63673Y64087D01*
X-63504Y63926D01*
D02*
G37*
G36*
X-39996Y60060D02*
X-40187Y60160D01*
X-40357Y60199D01*
X-40508Y60175D01*
X-40639Y60090D01*
X-40749Y59942D01*
X-40839Y59733D01*
X-40910Y59461D01*
X-40960Y59128D01*
X-40990Y58733D01*
X-41000Y58275D01*
X-43000Y59609D01*
X-43006Y59997D01*
X-43058Y60704D01*
X-43102Y61022D01*
X-43160Y61317D01*
X-43231Y61589D01*
X-43314Y61838D01*
X-43410Y62063D01*
X-43519Y62265D01*
X-43641Y62444D01*
X-39996Y60060D01*
D02*
G37*
G36*
X100006Y56133D02*
X100023Y55913D01*
X100052Y55705D01*
X100092Y55511D01*
X100144Y55328D01*
X100207Y55159D01*
X100282Y55002D01*
X100368Y54858D01*
X100466Y54726D01*
X100575Y54607D01*
X97425D01*
X97534Y54726D01*
X97632Y54858D01*
X97718Y55002D01*
X97793Y55159D01*
X97856Y55328D01*
X97908Y55511D01*
X97948Y55705D01*
X97977Y55913D01*
X97994Y56133D01*
X98000Y56365D01*
X100000D01*
X100006Y56133D01*
D02*
G37*
G36*
X61726Y54466D02*
X61858Y54368D01*
X62002Y54282D01*
X62159Y54207D01*
X62328Y54144D01*
X62510Y54092D01*
X62705Y54052D01*
X62913Y54023D01*
X63133Y54006D01*
X63366Y54000D01*
Y52000D01*
X63133Y51994D01*
X62913Y51977D01*
X62705Y51948D01*
X62510Y51908D01*
X62328Y51856D01*
X62159Y51793D01*
X62002Y51718D01*
X61858Y51632D01*
X61726Y51534D01*
X61607Y51425D01*
Y54575D01*
X61726Y54466D01*
D02*
G37*
G36*
X-64607Y51425D02*
X-64726Y51534D01*
X-64858Y51632D01*
X-65002Y51718D01*
X-65159Y51793D01*
X-65328Y51856D01*
X-65511Y51908D01*
X-65705Y51948D01*
X-65913Y51977D01*
X-66133Y51994D01*
X-66366Y52000D01*
Y54000D01*
X-66133Y54006D01*
X-65913Y54023D01*
X-65705Y54052D01*
X-65511Y54092D01*
X-65328Y54144D01*
X-65159Y54207D01*
X-65002Y54282D01*
X-64858Y54368D01*
X-64726Y54466D01*
X-64607Y54575D01*
Y51425D01*
D02*
G37*
G36*
X-14534Y52274D02*
X-14632Y52143D01*
X-14718Y51998D01*
X-14793Y51841D01*
X-14856Y51672D01*
X-14908Y51490D01*
X-14948Y51295D01*
X-14977Y51087D01*
X-14994Y50867D01*
X-15000Y50634D01*
X-17000D01*
X-17006Y50867D01*
X-17023Y51087D01*
X-17052Y51295D01*
X-17092Y51490D01*
X-17144Y51672D01*
X-17207Y51841D01*
X-17282Y51998D01*
X-17368Y52143D01*
X-17466Y52274D01*
X-17575Y52393D01*
X-14425D01*
X-14534Y52274D01*
D02*
G37*
G36*
X14006Y51133D02*
X14023Y50913D01*
X14052Y50705D01*
X14092Y50510D01*
X14144Y50328D01*
X14207Y50159D01*
X14282Y50002D01*
X14368Y49857D01*
X14466Y49726D01*
X14575Y49607D01*
X11425D01*
X11534Y49726D01*
X11632Y49857D01*
X11718Y50002D01*
X11793Y50159D01*
X11856Y50328D01*
X11908Y50510D01*
X11948Y50705D01*
X11977Y50913D01*
X11994Y51133D01*
X12000Y51365D01*
X14000D01*
X14006Y51133D01*
D02*
G37*
G36*
X-73497Y48591D02*
X-73436Y48572D01*
X-73337Y48555D01*
X-73197Y48541D01*
X-72537Y48510D01*
X-71516Y48500D01*
Y46500D01*
X-71897Y46499D01*
X-73497Y46409D01*
X-73517Y46388D01*
Y48613D01*
X-73497Y48591D01*
D02*
G37*
G36*
X121982Y49009D02*
X122082Y48797D01*
X122207Y48610D01*
X122356Y48448D01*
X122529Y48311D01*
X122726Y48199D01*
X122948Y48111D01*
X123193Y48049D01*
X123463Y48011D01*
X123546Y48008D01*
X123584Y48009D01*
X123925Y48039D01*
X124225Y48089D01*
X124485Y48159D01*
X124705Y48249D01*
X124885Y48359D01*
X125024Y48489D01*
X125125Y48639D01*
X125184Y48809D01*
X125204Y48999D01*
Y44999D01*
X125184Y45189D01*
X125125Y45359D01*
X125024Y45509D01*
X124885Y45639D01*
X124705Y45749D01*
X124485Y45839D01*
X124225Y45909D01*
X123925Y45959D01*
X123584Y45989D01*
X123204Y45999D01*
Y47149D01*
X122457Y45999D01*
X122170Y45995D01*
X121099Y45911D01*
X120850Y45873D01*
X120151Y45715D01*
X119934Y45649D01*
X121905Y49246D01*
X121982Y49009D01*
D02*
G37*
G36*
X-73497Y43591D02*
X-73436Y43572D01*
X-73337Y43555D01*
X-73197Y43540D01*
X-72537Y43510D01*
X-71516Y43500D01*
Y41500D01*
X-71897Y41499D01*
X-73497Y41409D01*
X-73517Y41387D01*
Y43612D01*
X-73497Y43591D01*
D02*
G37*
G36*
X99886Y43723D02*
X99904Y43664D01*
X99940Y43591D01*
X99995Y43506D01*
X100068Y43406D01*
X100269Y43167D01*
X100543Y42874D01*
X100707Y42707D01*
X99293Y41293D01*
X99126Y41457D01*
X98494Y42005D01*
X98408Y42060D01*
X98336Y42096D01*
X98277Y42114D01*
X98232Y42114D01*
X99886Y43768D01*
X99886Y43723D01*
D02*
G37*
G36*
X131810Y42722D02*
X131640Y42661D01*
X131490Y42559D01*
X131360Y42417D01*
X131250Y42234D01*
X131160Y42011D01*
X131090Y41747D01*
X131040Y41442D01*
X131010Y41097D01*
X131000Y40711D01*
X129000D01*
X128990Y41097D01*
X128960Y41442D01*
X128910Y41747D01*
X128840Y42011D01*
X128750Y42234D01*
X128640Y42417D01*
X128510Y42559D01*
X128360Y42661D01*
X128190Y42722D01*
X128000Y42742D01*
X132000D01*
X131810Y42722D01*
D02*
G37*
G36*
X131010Y39903D02*
X131040Y39558D01*
X131090Y39253D01*
X131160Y38989D01*
X131250Y38766D01*
X131360Y38583D01*
X131490Y38441D01*
X131640Y38339D01*
X131810Y38278D01*
X132000Y38258D01*
X128000D01*
X128190Y38278D01*
X128360Y38339D01*
X128510Y38441D01*
X128640Y38583D01*
X128750Y38766D01*
X128840Y38989D01*
X128910Y39253D01*
X128960Y39558D01*
X128990Y39903D01*
X129000Y40289D01*
X131000D01*
X131010Y39903D01*
D02*
G37*
G36*
X92387Y38034D02*
X90966Y36613D01*
X90958Y36622D01*
X90897Y36685D01*
X90193Y37393D01*
X91607Y38807D01*
X92387Y38034D01*
D02*
G37*
G36*
X-170484Y36388D02*
X-170504Y36409D01*
X-170564Y36428D01*
X-170664Y36445D01*
X-170804Y36460D01*
X-171464Y36490D01*
X-172484Y36500D01*
Y38500D01*
X-172104Y38501D01*
X-170504Y38591D01*
X-170484Y38613D01*
Y36388D01*
D02*
G37*
G36*
X-73497Y38564D02*
X-73436Y38521D01*
X-73337Y38482D01*
X-73197Y38449D01*
X-73017Y38421D01*
X-72537Y38380D01*
X-71897Y38360D01*
X-71516Y38357D01*
Y36357D01*
X-73517Y36388D01*
Y38613D01*
X-73497Y38564D01*
D02*
G37*
G36*
X-188897Y36793D02*
X-189888Y35724D01*
X-190904Y37789D01*
X-190312Y38207D01*
X-188897Y36793D01*
D02*
G37*
G36*
X-54637Y37060D02*
X-54471Y36920D01*
X-54313Y36807D01*
X-54162Y36719D01*
X-54020Y36657D01*
X-53886Y36621D01*
X-53761Y36611D01*
X-53643Y36627D01*
X-53533Y36668D01*
X-53432Y36736D01*
X-53899Y33793D01*
X-55899Y35485D01*
X-54811Y37225D01*
X-54637Y37060D01*
D02*
G37*
G36*
X-170484Y31387D02*
X-170504Y31409D01*
X-170564Y31428D01*
X-170664Y31445D01*
X-170804Y31459D01*
X-171464Y31490D01*
X-172484Y31500D01*
Y33500D01*
X-172104Y33501D01*
X-170504Y33591D01*
X-170484Y33612D01*
Y31387D01*
D02*
G37*
G36*
X-65504Y33926D02*
X-65336Y33783D01*
X-65169Y33657D01*
X-65003Y33547D01*
X-64838Y33455D01*
X-64673Y33380D01*
X-64509Y33322D01*
X-64346Y33281D01*
X-64184Y33257D01*
X-64022Y33250D01*
X-66250Y31023D01*
X-66257Y31184D01*
X-66281Y31346D01*
X-66322Y31509D01*
X-66380Y31673D01*
X-66455Y31838D01*
X-66547Y32003D01*
X-66657Y32169D01*
X-66783Y32336D01*
X-66926Y32504D01*
X-67087Y32673D01*
X-65673Y34087D01*
X-65504Y33926D01*
D02*
G37*
G36*
X197610Y35754D02*
X197719Y34005D01*
X197822Y33236D01*
X197958Y32537D01*
X198127Y31907D01*
X198328Y31348D01*
X198561Y30858D01*
X198827Y30439D01*
X199125Y30089D01*
X197710Y28675D01*
X197361Y28973D01*
X196942Y29239D01*
X196452Y29472D01*
X195893Y29673D01*
X195263Y29841D01*
X194564Y29977D01*
X193794Y30081D01*
X192466Y30164D01*
X192073Y29893D01*
X191709Y29580D01*
X191402Y29243D01*
X191150Y28882D01*
X190955Y28497D01*
X190815Y28087D01*
X190731Y27654D01*
X190703Y27196D01*
X188703D01*
X188680Y27708D01*
X188609Y28216D01*
X188491Y28719D01*
X188325Y29218D01*
X188112Y29713D01*
X187852Y30203D01*
X187545Y30689D01*
X187191Y31170D01*
X186789Y31648D01*
X186340Y32120D01*
X191880Y31011D01*
X197603Y36734D01*
X197610Y35754D01*
D02*
G37*
G36*
X29610Y28334D02*
X29640Y27989D01*
X29690Y27684D01*
X29760Y27420D01*
X29850Y27197D01*
X29960Y27014D01*
X30090Y26872D01*
X30240Y26770D01*
X30410Y26709D01*
X30600Y26689D01*
X26600D01*
X26790Y26709D01*
X26960Y26770D01*
X27110Y26872D01*
X27240Y27014D01*
X27350Y27197D01*
X27440Y27420D01*
X27510Y27684D01*
X27560Y27989D01*
X27590Y28334D01*
X27600Y28719D01*
X29600D01*
X29610Y28334D01*
D02*
G37*
G36*
X-170484Y26388D02*
X-170504Y26409D01*
X-170564Y26428D01*
X-170664Y26445D01*
X-170804Y26460D01*
X-171464Y26490D01*
X-172484Y26500D01*
Y28500D01*
X-172104Y28501D01*
X-170504Y28591D01*
X-170484Y28613D01*
Y26388D01*
D02*
G37*
G36*
X-73498Y28564D02*
X-73444Y28521D01*
X-73353Y28482D01*
X-73226Y28449D01*
X-73063Y28421D01*
X-72863Y28398D01*
X-72354Y28367D01*
X-71700Y28357D01*
Y26357D01*
X-73517Y26388D01*
Y28613D01*
X-73498Y28564D01*
D02*
G37*
G36*
X-31913Y27673D02*
X-32074Y27504D01*
X-32217Y27336D01*
X-32343Y27169D01*
X-32453Y27003D01*
X-32545Y26838D01*
X-32620Y26673D01*
X-32678Y26509D01*
X-32719Y26346D01*
X-32743Y26184D01*
X-32750Y26023D01*
X-34978Y28250D01*
X-34816Y28257D01*
X-34654Y28281D01*
X-34491Y28322D01*
X-34327Y28380D01*
X-34162Y28455D01*
X-33997Y28547D01*
X-33831Y28657D01*
X-33664Y28783D01*
X-33496Y28926D01*
X-33327Y29087D01*
X-31913Y27673D01*
D02*
G37*
G36*
X50634Y26676D02*
X50675Y26637D01*
X50744Y26603D01*
X50841Y26574D01*
X50965Y26549D01*
X51117Y26528D01*
X51503Y26501D01*
X52000Y26492D01*
Y24492D01*
X51738Y24488D01*
X51296Y24458D01*
X51117Y24431D01*
X50965Y24397D01*
X50841Y24355D01*
X50744Y24306D01*
X50675Y24248D01*
X50634Y24184D01*
X50620Y24112D01*
Y26719D01*
X50634Y26676D01*
D02*
G37*
G36*
X78183Y27961D02*
X79025Y27249D01*
X79398Y26990D01*
X79738Y26796D01*
X80045Y26666D01*
X80321Y26601D01*
X80563D01*
X80774Y26666D01*
X80952Y26796D01*
X80195Y26038D01*
X81902Y24536D01*
X82002Y24508D01*
X80001Y22507D01*
X79973Y22607D01*
X79889Y22756D01*
X79749Y22954D01*
X79553Y23199D01*
X78630Y24225D01*
X78507Y24351D01*
X77713Y23557D01*
X77843Y23735D01*
X77908Y23946D01*
Y24188D01*
X77843Y24464D01*
X77713Y24771D01*
X77519Y25111D01*
X77260Y25484D01*
X76936Y25889D01*
X76094Y26796D01*
X77713Y28415D01*
X78183Y27961D01*
D02*
G37*
G36*
X114393Y21425D02*
X114274Y21534D01*
X114142Y21632D01*
X113998Y21718D01*
X113841Y21793D01*
X113672Y21856D01*
X113489Y21908D01*
X113294Y21948D01*
X113087Y21977D01*
X112867Y21994D01*
X112634Y22000D01*
Y24000D01*
X112867Y24006D01*
X113087Y24023D01*
X113294Y24052D01*
X113489Y24092D01*
X113672Y24144D01*
X113841Y24207D01*
X113998Y24282D01*
X114142Y24368D01*
X114274Y24466D01*
X114393Y24575D01*
Y21425D01*
D02*
G37*
G36*
X-73505Y23486D02*
X-73470Y23459D01*
X-73412Y23435D01*
X-73331Y23414D01*
X-73227Y23397D01*
X-73099Y23382D01*
X-72774Y23363D01*
X-72357Y23357D01*
Y21357D01*
X-73517Y21387D01*
Y23516D01*
X-73505Y23486D01*
D02*
G37*
G36*
X50640Y22310D02*
X50700Y22140D01*
X50800Y21990D01*
X50940Y21860D01*
X51120Y21750D01*
X51340Y21660D01*
X51600Y21590D01*
X51900Y21540D01*
X52240Y21510D01*
X52620Y21500D01*
Y19500D01*
X52240Y19490D01*
X51900Y19460D01*
X51600Y19410D01*
X51340Y19340D01*
X51120Y19250D01*
X50940Y19140D01*
X50800Y19010D01*
X50700Y18860D01*
X50640Y18690D01*
X50620Y18500D01*
Y22500D01*
X50640Y22310D01*
D02*
G37*
G36*
X-13743Y19816D02*
X-13719Y19654D01*
X-13678Y19491D01*
X-13620Y19327D01*
X-13545Y19162D01*
X-13453Y18997D01*
X-13343Y18831D01*
X-13217Y18664D01*
X-13074Y18496D01*
X-12913Y18327D01*
X-14327Y16913D01*
X-14496Y17074D01*
X-14664Y17217D01*
X-14831Y17343D01*
X-14997Y17453D01*
X-15162Y17545D01*
X-15327Y17620D01*
X-15491Y17678D01*
X-15654Y17719D01*
X-15816Y17743D01*
X-15977Y17750D01*
X-13750Y19978D01*
X-13743Y19816D01*
D02*
G37*
G36*
X157424Y19810D02*
X157528Y19640D01*
X157665Y19490D01*
X157836Y19360D01*
X158039Y19250D01*
X158276Y19160D01*
X158546Y19090D01*
X158849Y19040D01*
X159185Y19010D01*
X159554Y19000D01*
Y17000D01*
X159185Y16990D01*
X158849Y16960D01*
X158546Y16910D01*
X158276Y16840D01*
X158039Y16750D01*
X157836Y16640D01*
X157665Y16510D01*
X157528Y16360D01*
X157424Y16190D01*
X157353Y16000D01*
Y20000D01*
X157424Y19810D01*
D02*
G37*
G36*
X-25534Y15274D02*
X-25632Y15143D01*
X-25718Y14998D01*
X-25793Y14841D01*
X-25856Y14672D01*
X-25908Y14490D01*
X-25948Y14295D01*
X-25977Y14087D01*
X-25994Y13867D01*
X-26000Y13634D01*
X-28000D01*
X-28006Y13867D01*
X-28023Y14087D01*
X-28052Y14295D01*
X-28092Y14490D01*
X-28144Y14672D01*
X-28207Y14841D01*
X-28282Y14998D01*
X-28368Y15143D01*
X-28466Y15274D01*
X-28575Y15393D01*
X-25425D01*
X-25534Y15274D01*
D02*
G37*
G36*
X132072Y13719D02*
X131878Y13649D01*
X131706Y13533D01*
X131557Y13371D01*
X131431Y13162D01*
X131328Y12907D01*
X131248Y12605D01*
X131191Y12257D01*
X131156Y11862D01*
X131145Y11422D01*
X128855D01*
X128844Y11862D01*
X128809Y12257D01*
X128752Y12605D01*
X128672Y12907D01*
X128569Y13162D01*
X128443Y13371D01*
X128294Y13533D01*
X128122Y13649D01*
X127928Y13719D01*
X127710Y13742D01*
X132290D01*
X132072Y13719D01*
D02*
G37*
G36*
X-170484Y11387D02*
X-170504Y11409D01*
X-170564Y11428D01*
X-170664Y11445D01*
X-170804Y11459D01*
X-171464Y11490D01*
X-172484Y11500D01*
Y13500D01*
X-172104Y13501D01*
X-170504Y13591D01*
X-170484Y13612D01*
Y11387D01*
D02*
G37*
G36*
X151810Y10576D02*
X151640Y10472D01*
X151490Y10335D01*
X151360Y10164D01*
X151250Y9961D01*
X151160Y9724D01*
X151090Y9454D01*
X151040Y9151D01*
X151010Y8815D01*
X151000Y8446D01*
X149000D01*
X148990Y8815D01*
X148960Y9151D01*
X148910Y9454D01*
X148840Y9724D01*
X148750Y9961D01*
X148640Y10164D01*
X148510Y10335D01*
X148360Y10472D01*
X148190Y10576D01*
X148000Y10647D01*
X152000D01*
X151810Y10576D01*
D02*
G37*
G36*
X100578Y9726D02*
X100457Y9674D01*
X100350Y9587D01*
X100257Y9465D01*
X100178Y9308D01*
X100114Y9116D01*
X100064Y8889D01*
X100029Y8628D01*
X100007Y8331D01*
X100000Y8000D01*
X98000D01*
X97993Y8331D01*
X97936Y8889D01*
X97886Y9116D01*
X97822Y9308D01*
X97743Y9465D01*
X97650Y9587D01*
X97543Y9674D01*
X97422Y9726D01*
X97287Y9744D01*
X100714D01*
X100578Y9726D01*
D02*
G37*
G36*
X-73497Y8591D02*
X-73439Y8572D01*
X-73341Y8555D01*
X-73205Y8540D01*
X-72563Y8510D01*
X-71571Y8500D01*
Y6500D01*
X-71940Y6499D01*
X-73497Y6409D01*
X-73517Y6387D01*
Y8612D01*
X-73497Y8591D01*
D02*
G37*
G36*
X-170484Y6387D02*
X-170504Y6409D01*
X-170564Y6428D01*
X-170664Y6445D01*
X-170804Y6459D01*
X-171464Y6489D01*
X-172484Y6500D01*
Y8500D01*
X-172104Y8501D01*
X-170504Y8591D01*
X-170484Y8612D01*
Y6387D01*
D02*
G37*
G36*
X193860Y5447D02*
X187451Y2037D01*
X185266Y2681D01*
X185612Y3082D01*
X185879Y3518D01*
X186069Y3988D01*
X186180Y4492D01*
X186213Y5030D01*
X186168Y5602D01*
X186045Y6208D01*
X185843Y6848D01*
X185564Y7522D01*
X185206Y8231D01*
X193860Y5447D01*
D02*
G37*
G36*
X128990Y2912D02*
X128822Y2737D01*
X128547Y2403D01*
X128439Y2244D01*
X128351Y2090D01*
X128283Y1942D01*
X128236Y1800D01*
X128208Y1663D01*
X128201Y1531D01*
X128213Y1405D01*
X125639Y3221D01*
X125744Y3245D01*
X125856Y3286D01*
X125977Y3344D01*
X126105Y3417D01*
X126242Y3507D01*
X126538Y3736D01*
X126698Y3875D01*
X127042Y4203D01*
X128990Y2912D01*
D02*
G37*
G36*
X-73502Y3564D02*
X-73459Y3521D01*
X-73388Y3482D01*
X-73288Y3449D01*
X-73159Y3421D01*
X-73001Y3398D01*
X-72600Y3367D01*
X-72085Y3357D01*
Y1357D01*
X-73517Y1387D01*
Y3613D01*
X-73502Y3564D01*
D02*
G37*
G36*
X101843Y-6277D02*
X101697Y-6334D01*
X101568Y-6428D01*
X101457Y-6560D01*
X101362Y-6730D01*
X101285Y-6938D01*
X101225Y-7184D01*
X101182Y-7467D01*
X101156Y-7789D01*
X101147Y-8147D01*
X99147D01*
X99139Y-7789D01*
X99113Y-7467D01*
X99070Y-7184D01*
X99010Y-6938D01*
X98933Y-6730D01*
X98838Y-6560D01*
X98727Y-6428D01*
X98598Y-6334D01*
X98452Y-6277D01*
X98288Y-6258D01*
X102006D01*
X101843Y-6277D01*
D02*
G37*
G36*
X199941Y7185D02*
Y-8546D01*
X198671Y-8977D01*
X197521Y-7478D01*
X195611Y-6013D01*
X193387Y-5091D01*
X192270Y-4944D01*
Y-14000D01*
Y-23056D01*
X192906Y-22972D01*
X193500Y-24175D01*
X192837Y-24837D01*
X192174Y-25830D01*
X191941Y-27000D01*
X191941Y-27000D01*
Y-38068D01*
X190671Y-38439D01*
X189826Y-37112D01*
X188362Y-35770D01*
X187737Y-35445D01*
X185193Y-42434D01*
X182807Y-41566D01*
X185350Y-34576D01*
X184663Y-34424D01*
X182679Y-34511D01*
X180786Y-35108D01*
X180319Y-35405D01*
X179125Y-34971D01*
X178958Y-34442D01*
X177892Y-32768D01*
X176428Y-31427D01*
X175803Y-31101D01*
X173259Y-38091D01*
X172066Y-37656D01*
X171632Y-38850D01*
X164642Y-36306D01*
X164490Y-36994D01*
X164576Y-38977D01*
X165173Y-40870D01*
X164490Y-42161D01*
X164032Y-42312D01*
X163826Y-42174D01*
X162656Y-41941D01*
X162656Y-41941D01*
X151732D01*
Y-37059D01*
X156000D01*
X156000Y-37059D01*
X157170Y-36826D01*
X158163Y-36163D01*
X167163Y-27163D01*
X167163Y-27163D01*
X167826Y-26170D01*
X168059Y-25000D01*
X168059Y-25000D01*
Y-21358D01*
X175826D01*
X176607Y-21203D01*
X177268Y-20761D01*
X177710Y-20099D01*
X177865Y-19319D01*
Y-10460D01*
X188737Y411D01*
X194818Y3647D01*
X194871Y3690D01*
X195339Y3884D01*
X197136Y5264D01*
X198515Y7061D01*
X198671Y7437D01*
X199941Y7185D01*
D02*
G37*
G36*
X24388Y99005D02*
X24397Y98984D01*
X24654Y97032D01*
X25414Y95197D01*
X26622Y93622D01*
X28198Y92414D01*
X30032Y91654D01*
X32000Y91395D01*
X32315Y91436D01*
X32908Y90233D01*
X10837Y68163D01*
X10174Y67171D01*
X9941Y66000D01*
X9941Y66000D01*
Y51078D01*
X9940Y51066D01*
X9936Y51064D01*
X8997Y49658D01*
X8667Y48000D01*
X8179Y47405D01*
X7141D01*
X6361Y47250D01*
X5699Y46808D01*
X5257Y46146D01*
X5102Y45366D01*
Y31174D01*
X5257Y30394D01*
X5699Y29732D01*
X6361Y29290D01*
X7141Y29135D01*
X7908Y28261D01*
X7895Y28164D01*
X8154Y26196D01*
X8914Y24362D01*
X10123Y22786D01*
X11698Y21578D01*
X13532Y20818D01*
X14230Y20726D01*
Y28164D01*
X16770D01*
Y20726D01*
X17469Y20818D01*
X19303Y21578D01*
X20878Y22786D01*
X22086Y24361D01*
X23350Y24094D01*
Y12250D01*
X33850D01*
Y28750D01*
X34961Y29135D01*
X36319D01*
X37099Y29290D01*
X37660Y29664D01*
X38220Y29290D01*
X39000Y29135D01*
X41040D01*
X42150Y28750D01*
Y12250D01*
X52650D01*
Y17441D01*
X57135D01*
Y-16319D01*
X57290Y-17099D01*
X57305Y-17121D01*
X56626Y-18391D01*
X31648D01*
X31569Y-18312D01*
Y-14294D01*
X32210Y-13290D01*
X36730D01*
Y-12345D01*
X34932Y-10762D01*
X34781Y-10719D01*
X36730D01*
Y-4500D01*
X39270D01*
Y-10719D01*
X41220D01*
X41244Y-10783D01*
X41316Y-10890D01*
X41437Y-11042D01*
X41822Y-11477D01*
X43584Y-13290D01*
X43790D01*
Y-12750D01*
X52650D01*
Y3750D01*
X50126D01*
Y3862D01*
X49882Y5089D01*
X49187Y6129D01*
X46135Y9180D01*
X45095Y9876D01*
X43868Y10120D01*
X31345D01*
X30117Y9876D01*
X29077Y9180D01*
X26420Y6523D01*
X25725Y5483D01*
X25481Y4256D01*
Y3750D01*
X23350D01*
Y3643D01*
X22431Y3248D01*
X22080Y3216D01*
X1146Y24151D01*
Y70913D01*
X1146Y70913D01*
X913Y72084D01*
X250Y73076D01*
X-25134Y98460D01*
X-24648Y99633D01*
X21612D01*
X23240Y99957D01*
X24388Y99005D01*
D02*
G37*
G36*
X108713Y-16562D02*
X108567Y-16265D01*
X108394Y-15999D01*
X108193Y-15765D01*
X107963Y-15562D01*
X107706Y-15390D01*
X107421Y-15250D01*
X107107Y-15141D01*
X106766Y-15062D01*
X106397Y-15015D01*
X106000Y-15000D01*
Y-13000D01*
X106397Y-12984D01*
X106766Y-12937D01*
X107107Y-12859D01*
X107421Y-12750D01*
X107706Y-12609D01*
X107963Y-12438D01*
X108193Y-12234D01*
X108394Y-12000D01*
X108567Y-11735D01*
X108713Y-11438D01*
Y-16562D01*
D02*
G37*
G36*
X-172194Y-16445D02*
X-172177Y-16666D01*
X-172148Y-16873D01*
X-172108Y-17068D01*
X-172056Y-17250D01*
X-171993Y-17420D01*
X-171918Y-17576D01*
X-171832Y-17721D01*
X-171734Y-17852D01*
X-171625Y-17971D01*
X-174775D01*
X-174666Y-17852D01*
X-174568Y-17721D01*
X-174482Y-17576D01*
X-174407Y-17420D01*
X-174344Y-17250D01*
X-174292Y-17068D01*
X-174252Y-16873D01*
X-174223Y-16666D01*
X-174206Y-16445D01*
X-174200Y-16213D01*
X-172200D01*
X-172194Y-16445D01*
D02*
G37*
G36*
X-199794Y-16767D02*
X-199777Y-16987D01*
X-199748Y-17195D01*
X-199708Y-17390D01*
X-199656Y-17572D01*
X-199593Y-17741D01*
X-199518Y-17898D01*
X-199432Y-18043D01*
X-199334Y-18174D01*
X-199225Y-18293D01*
X-202375D01*
X-202266Y-18174D01*
X-202168Y-18043D01*
X-202082Y-17898D01*
X-202007Y-17741D01*
X-201944Y-17572D01*
X-201892Y-17390D01*
X-201852Y-17195D01*
X-201823Y-16987D01*
X-201806Y-16767D01*
X-201800Y-16535D01*
X-199800D01*
X-199794Y-16767D01*
D02*
G37*
G36*
X-192994Y-16967D02*
X-192977Y-17187D01*
X-192948Y-17395D01*
X-192908Y-17589D01*
X-192856Y-17772D01*
X-192793Y-17941D01*
X-192718Y-18098D01*
X-192632Y-18242D01*
X-192534Y-18374D01*
X-192425Y-18493D01*
X-195575D01*
X-195465Y-18374D01*
X-195368Y-18242D01*
X-195281Y-18098D01*
X-195207Y-17941D01*
X-195143Y-17772D01*
X-195092Y-17589D01*
X-195051Y-17395D01*
X-195023Y-17187D01*
X-195005Y-16967D01*
X-195000Y-16734D01*
X-193000D01*
X-192994Y-16967D01*
D02*
G37*
G36*
X-186494Y-17167D02*
X-186477Y-17387D01*
X-186448Y-17595D01*
X-186408Y-17789D01*
X-186356Y-17972D01*
X-186293Y-18141D01*
X-186218Y-18298D01*
X-186132Y-18442D01*
X-186034Y-18574D01*
X-185925Y-18693D01*
X-189075D01*
X-188965Y-18574D01*
X-188868Y-18442D01*
X-188781Y-18298D01*
X-188707Y-18141D01*
X-188643Y-17972D01*
X-188592Y-17789D01*
X-188551Y-17595D01*
X-188523Y-17387D01*
X-188505Y-17167D01*
X-188500Y-16934D01*
X-186500D01*
X-186494Y-17167D01*
D02*
G37*
G36*
X-180507Y-16668D02*
X-180486Y-16885D01*
X-180452Y-17087D01*
X-180403Y-17271D01*
X-180341Y-17438D01*
X-180265Y-17589D01*
X-180176Y-17723D01*
X-180072Y-17840D01*
X-179954Y-17940D01*
X-179823Y-18024D01*
X-182854Y-18884D01*
X-182789Y-18759D01*
X-182731Y-18622D01*
X-182680Y-18472D01*
X-182636Y-18311D01*
X-182599Y-18137D01*
X-182545Y-17752D01*
X-182528Y-17541D01*
X-182514Y-17083D01*
X-180514Y-16433D01*
X-180507Y-16668D01*
D02*
G37*
G36*
X127726Y-20534D02*
X127858Y-20632D01*
X128002Y-20718D01*
X128159Y-20793D01*
X128328Y-20856D01*
X128511Y-20908D01*
X128705Y-20948D01*
X128913Y-20977D01*
X129133Y-20994D01*
X129366Y-21000D01*
Y-23000D01*
X129133Y-23006D01*
X128913Y-23023D01*
X128705Y-23052D01*
X128511Y-23092D01*
X128328Y-23144D01*
X128159Y-23207D01*
X128002Y-23282D01*
X127858Y-23368D01*
X127726Y-23466D01*
X127607Y-23575D01*
Y-20425D01*
X127726Y-20534D01*
D02*
G37*
G36*
X83201Y-24143D02*
X82582Y-23736D01*
X80913Y-22772D01*
X80419Y-22536D01*
X79524Y-22193D01*
X79124Y-22086D01*
X78755Y-22021D01*
X78417Y-22000D01*
X78000Y-20000D01*
X78406Y-19973D01*
X78807Y-19891D01*
X79201Y-19756D01*
X79590Y-19566D01*
X79973Y-19321D01*
X80350Y-19023D01*
X80722Y-18670D01*
X81088Y-18262D01*
X81447Y-17801D01*
X81801Y-17285D01*
X83201Y-24143D01*
D02*
G37*
G36*
X-4994Y-28867D02*
X-4977Y-29087D01*
X-4948Y-29295D01*
X-4908Y-29490D01*
X-4856Y-29672D01*
X-4793Y-29841D01*
X-4718Y-29998D01*
X-4632Y-30143D01*
X-4534Y-30274D01*
X-4425Y-30393D01*
X-7575D01*
X-7466Y-30274D01*
X-7368Y-30143D01*
X-7282Y-29998D01*
X-7207Y-29841D01*
X-7144Y-29672D01*
X-7092Y-29490D01*
X-7052Y-29295D01*
X-7023Y-29087D01*
X-7006Y-28867D01*
X-7000Y-28635D01*
X-5000D01*
X-4994Y-28867D01*
D02*
G37*
G36*
X-98409Y-28503D02*
X-98428Y-28563D01*
X-98445Y-28663D01*
X-98460Y-28804D01*
X-98490Y-29464D01*
X-98500Y-30484D01*
X-100500D01*
X-100501Y-30103D01*
X-100591Y-28503D01*
X-100613Y-28484D01*
X-98388D01*
X-98409Y-28503D01*
D02*
G37*
G36*
X-128409D02*
X-128428Y-28563D01*
X-128445Y-28663D01*
X-128460Y-28804D01*
X-128490Y-29464D01*
X-128500Y-30484D01*
X-130500D01*
X-130501Y-30103D01*
X-130591Y-28503D01*
X-130613Y-28484D01*
X-128388D01*
X-128409Y-28503D01*
D02*
G37*
G36*
X-45782Y-29754D02*
X-45622Y-30162D01*
X-45538Y-30338D01*
X-45449Y-30496D01*
X-45358Y-30635D01*
X-45263Y-30755D01*
X-45165Y-30857D01*
X-45063Y-30941D01*
X-44958Y-31006D01*
X-47973Y-31918D01*
X-47922Y-31806D01*
X-47883Y-31680D01*
X-47858Y-31541D01*
X-47846Y-31388D01*
X-47847Y-31221D01*
X-47861Y-31041D01*
X-47888Y-30848D01*
X-47928Y-30641D01*
X-48048Y-30186D01*
X-45856Y-29522D01*
X-45782Y-29754D01*
D02*
G37*
G36*
X21006Y-30867D02*
X21023Y-31087D01*
X21052Y-31295D01*
X21092Y-31490D01*
X21144Y-31672D01*
X21207Y-31841D01*
X21282Y-31998D01*
X21368Y-32143D01*
X21466Y-32274D01*
X21575Y-32393D01*
X18425D01*
X18534Y-32274D01*
X18632Y-32143D01*
X18718Y-31998D01*
X18793Y-31841D01*
X18856Y-31672D01*
X18908Y-31490D01*
X18948Y-31295D01*
X18977Y-31087D01*
X18994Y-30867D01*
X19000Y-30635D01*
X21000D01*
X21006Y-30867D01*
D02*
G37*
G36*
X-118355Y-29229D02*
X-118333Y-29619D01*
X-118265Y-30022D01*
X-118153Y-30436D01*
X-117996Y-30863D01*
X-117794Y-31303D01*
X-117547Y-31754D01*
X-117254Y-32218D01*
X-116917Y-32694D01*
X-116109Y-33683D01*
X-118230Y-33534D01*
X-118136Y-34996D01*
X-118085Y-35087D01*
X-120915D01*
X-120864Y-34996D01*
X-120818Y-34831D01*
X-120778Y-34592D01*
X-120742Y-34280D01*
X-120694Y-33361D01*
X-123092Y-33193D01*
X-122627Y-32777D01*
X-122211Y-32361D01*
X-121844Y-31946D01*
X-121526Y-31532D01*
X-121257Y-31119D01*
X-121037Y-30707D01*
X-120865Y-30295D01*
X-120743Y-29884D01*
X-120670Y-29473D01*
X-120645Y-29064D01*
X-118355Y-29229D01*
D02*
G37*
G36*
X-138330Y-28455D02*
X-138256Y-28866D01*
X-138132Y-29276D01*
X-137958Y-29684D01*
X-137735Y-30090D01*
X-137462Y-30495D01*
X-137140Y-30898D01*
X-136768Y-31299D01*
X-136346Y-31699D01*
X-135875Y-32097D01*
X-138243Y-32335D01*
X-138136Y-33996D01*
X-138085Y-34086D01*
X-140915D01*
X-140864Y-33996D01*
X-140818Y-33831D01*
X-140778Y-33593D01*
X-140742Y-33280D01*
X-140705Y-32583D01*
X-142840Y-32797D01*
X-142423Y-32278D01*
X-141720Y-31286D01*
X-141435Y-30811D01*
X-141194Y-30352D01*
X-140996Y-29908D01*
X-140843Y-29478D01*
X-140733Y-29063D01*
X-140667Y-28663D01*
X-140645Y-28278D01*
X-138355Y-28042D01*
X-138330Y-28455D01*
D02*
G37*
G36*
X1006Y-38867D02*
X1023Y-39087D01*
X1052Y-39295D01*
X1092Y-39490D01*
X1144Y-39672D01*
X1207Y-39841D01*
X1282Y-39998D01*
X1368Y-40142D01*
X1466Y-40274D01*
X1575Y-40393D01*
X-1575D01*
X-1466Y-40274D01*
X-1368Y-40142D01*
X-1282Y-39998D01*
X-1207Y-39841D01*
X-1144Y-39672D01*
X-1092Y-39490D01*
X-1052Y-39295D01*
X-1023Y-39087D01*
X-1006Y-38867D01*
X-1000Y-38634D01*
X1000D01*
X1006Y-38867D01*
D02*
G37*
G36*
X48393Y-41575D02*
X48274Y-41466D01*
X48142Y-41368D01*
X47998Y-41282D01*
X47841Y-41207D01*
X47672Y-41144D01*
X47490Y-41092D01*
X47295Y-41052D01*
X47087Y-41023D01*
X46867Y-41006D01*
X46634Y-41000D01*
Y-39000D01*
X46867Y-38994D01*
X47087Y-38977D01*
X47295Y-38948D01*
X47490Y-38908D01*
X47672Y-38856D01*
X47841Y-38793D01*
X47998Y-38718D01*
X48142Y-38632D01*
X48274Y-38534D01*
X48393Y-38425D01*
Y-41575D01*
D02*
G37*
G36*
X-108329Y-40443D02*
X-108250Y-40857D01*
X-108119Y-41253D01*
X-107936Y-41632D01*
X-107700Y-41994D01*
X-107411Y-42338D01*
X-107070Y-42665D01*
X-106981Y-42736D01*
X-106819Y-42638D01*
X-106576Y-42470D01*
X-106318Y-42270D01*
X-105826Y-41836D01*
X-105453Y-41479D01*
X-103834Y-43099D01*
X-104011Y-43289D01*
X-104158Y-43472D01*
X-104275Y-43649D01*
X-104361Y-43820D01*
X-104416Y-43985D01*
X-104441Y-44143D01*
X-104435Y-44295D01*
X-104398Y-44440D01*
X-104331Y-44579D01*
X-104233Y-44712D01*
X-104980Y-44355D01*
X-105633Y-45099D01*
X-105789Y-45328D01*
X-105903Y-45526D01*
X-105977Y-45694D01*
X-106009Y-45833D01*
X-107684Y-44158D01*
X-108180Y-44313D01*
X-108136Y-44995D01*
X-108085Y-45086D01*
X-110638D01*
X-112410Y-45644D01*
X-112075Y-45000D01*
X-111086Y-42770D01*
X-110928Y-42299D01*
X-110716Y-41459D01*
X-110663Y-41091D01*
X-110645Y-40757D01*
X-108355Y-40013D01*
X-108329Y-40443D01*
D02*
G37*
G36*
X32393Y-45575D02*
X32274Y-45466D01*
X32143Y-45368D01*
X31998Y-45282D01*
X31841Y-45207D01*
X31672Y-45144D01*
X31490Y-45092D01*
X31295Y-45052D01*
X31087Y-45023D01*
X30867Y-45006D01*
X30635Y-45000D01*
Y-43000D01*
X30867Y-42994D01*
X31087Y-42977D01*
X31295Y-42948D01*
X31490Y-42908D01*
X31672Y-42856D01*
X31841Y-42793D01*
X31998Y-42718D01*
X32143Y-42632D01*
X32274Y-42534D01*
X32393Y-42425D01*
Y-45575D01*
D02*
G37*
G36*
X163605Y-44518D02*
X163846Y-44709D01*
X164085Y-44866D01*
X164324Y-44988D01*
X164562Y-45077D01*
X164798Y-45130D01*
X165034Y-45150D01*
X165268Y-45135D01*
X165501Y-45086D01*
X165733Y-45003D01*
X162909Y-48236D01*
X162962Y-47990D01*
X162981Y-47743D01*
X162967Y-47494D01*
X162921Y-47244D01*
X162841Y-46992D01*
X162729Y-46738D01*
X162583Y-46483D01*
X162405Y-46226D01*
X162193Y-45967D01*
X161949Y-45707D01*
X163363Y-44293D01*
X163605Y-44518D01*
D02*
G37*
G36*
X17496Y-47410D02*
X17664Y-47553D01*
X17831Y-47680D01*
X17997Y-47789D01*
X18162Y-47881D01*
X18327Y-47956D01*
X18491Y-48014D01*
X18654Y-48056D01*
X18816Y-48080D01*
X18978Y-48086D01*
X16750Y-50314D01*
X16743Y-50152D01*
X16719Y-49990D01*
X16678Y-49827D01*
X16620Y-49663D01*
X16545Y-49499D01*
X16453Y-49333D01*
X16343Y-49167D01*
X16217Y-49000D01*
X16074Y-48832D01*
X15913Y-48664D01*
X17327Y-47249D01*
X17496Y-47410D01*
D02*
G37*
G36*
X53393Y-51575D02*
X53274Y-51466D01*
X53142Y-51368D01*
X52998Y-51282D01*
X52841Y-51207D01*
X52672Y-51144D01*
X52490Y-51092D01*
X52295Y-51052D01*
X52087Y-51023D01*
X51867Y-51006D01*
X51634Y-51000D01*
Y-49000D01*
X51867Y-48994D01*
X52087Y-48977D01*
X52295Y-48948D01*
X52490Y-48908D01*
X52672Y-48856D01*
X52841Y-48793D01*
X52998Y-48718D01*
X53142Y-48632D01*
X53274Y-48534D01*
X53393Y-48425D01*
Y-51575D01*
D02*
G37*
G36*
X-187724Y-48485D02*
X-187398Y-48740D01*
X-187051Y-48965D01*
X-186682Y-49160D01*
X-186291Y-49325D01*
X-185879Y-49460D01*
X-185446Y-49565D01*
X-184991Y-49640D01*
X-184515Y-49685D01*
X-184017Y-49700D01*
Y-53700D01*
X-184515Y-53715D01*
X-184991Y-53760D01*
X-185446Y-53835D01*
X-185879Y-53940D01*
X-186291Y-54075D01*
X-186682Y-54240D01*
X-187051Y-54435D01*
X-187398Y-54660D01*
X-187724Y-54915D01*
X-188029Y-55200D01*
Y-48200D01*
X-187724Y-48485D01*
D02*
G37*
G36*
X184481Y-55447D02*
X184425Y-56038D01*
X184410Y-56593D01*
X184434Y-57112D01*
X184499Y-57596D01*
X184604Y-58043D01*
X184749Y-58455D01*
X184935Y-58830D01*
X185161Y-59170D01*
X185426Y-59474D01*
X183767Y-60643D01*
X183506Y-60413D01*
X183194Y-60195D01*
X182831Y-59989D01*
X182418Y-59794D01*
X181954Y-59611D01*
X181438Y-59440D01*
X180255Y-59132D01*
X179587Y-58996D01*
X178869Y-58872D01*
X184577Y-54821D01*
X184481Y-55447D01*
D02*
G37*
G36*
X-30163Y-63163D02*
X-30163Y-63163D01*
X-29170Y-63826D01*
X-28000Y-64059D01*
X-28000Y-64059D01*
X-16078D01*
X-16066Y-64060D01*
X-16064Y-64064D01*
X-14658Y-65003D01*
X-13000Y-65333D01*
X-11342Y-65003D01*
X-9936Y-64064D01*
X-8997Y-62658D01*
X-8667Y-61000D01*
X-8883Y-59915D01*
X-8051Y-58645D01*
X29233D01*
X29759Y-59915D01*
X27733Y-61941D01*
X1078D01*
X1067Y-61940D01*
X1064Y-61936D01*
X-342Y-60997D01*
X-2000Y-60667D01*
X-3658Y-60997D01*
X-5064Y-61936D01*
X-6003Y-63342D01*
X-6333Y-65000D01*
X-6003Y-66658D01*
X-5064Y-68064D01*
X-3658Y-69003D01*
X-2000Y-69333D01*
X-342Y-69003D01*
X1064Y-68064D01*
X1067Y-68060D01*
X1078Y-68059D01*
X28819D01*
X29141Y-68487D01*
X29400Y-69274D01*
X23733Y-74941D01*
X-66000D01*
X-67171Y-75174D01*
X-68163Y-75837D01*
X-68163Y-75837D01*
X-89117Y-96791D01*
X-97742D01*
Y-88012D01*
X-97897Y-87231D01*
X-98339Y-86570D01*
X-99001Y-86128D01*
X-99781Y-85972D01*
X-135703D01*
X-136604Y-85071D01*
X-136118Y-83898D01*
X-112634D01*
X-111854Y-83743D01*
X-111192Y-83301D01*
X-110750Y-82639D01*
X-110595Y-81859D01*
Y-63077D01*
X-101539D01*
Y-70859D01*
X-101384Y-71639D01*
X-100942Y-72301D01*
X-100281Y-72743D01*
X-99500Y-72898D01*
X-54634D01*
X-53854Y-72743D01*
X-53192Y-72301D01*
X-52750Y-71639D01*
X-52595Y-70859D01*
Y-68571D01*
X-51325Y-68143D01*
X-50378Y-69378D01*
X-48802Y-70586D01*
X-46968Y-71346D01*
X-46270Y-71438D01*
Y-64000D01*
Y-56562D01*
X-46968Y-56654D01*
X-48802Y-57414D01*
X-50378Y-58622D01*
X-51325Y-59857D01*
X-52595Y-59429D01*
Y-55059D01*
X-38267D01*
X-30163Y-63163D01*
D02*
G37*
G36*
X58393Y-62575D02*
X58274Y-62466D01*
X58142Y-62368D01*
X57998Y-62282D01*
X57841Y-62207D01*
X57672Y-62144D01*
X57490Y-62092D01*
X57295Y-62052D01*
X57087Y-62023D01*
X56867Y-62006D01*
X56634Y-62000D01*
Y-60000D01*
X56867Y-59994D01*
X57087Y-59977D01*
X57295Y-59948D01*
X57490Y-59908D01*
X57672Y-59856D01*
X57841Y-59793D01*
X57998Y-59718D01*
X58142Y-59632D01*
X58274Y-59534D01*
X58393Y-59425D01*
Y-62575D01*
D02*
G37*
G36*
X-14607D02*
X-14726Y-62466D01*
X-14857Y-62368D01*
X-15002Y-62282D01*
X-15159Y-62207D01*
X-15328Y-62144D01*
X-15510Y-62092D01*
X-15705Y-62052D01*
X-15913Y-62023D01*
X-16133Y-62006D01*
X-16366Y-62000D01*
Y-60000D01*
X-16133Y-59994D01*
X-15913Y-59977D01*
X-15705Y-59948D01*
X-15510Y-59908D01*
X-15328Y-59856D01*
X-15159Y-59793D01*
X-15002Y-59718D01*
X-14857Y-59632D01*
X-14726Y-59534D01*
X-14607Y-59425D01*
Y-62575D01*
D02*
G37*
G36*
X160689Y-48975D02*
X160769Y-50816D01*
X161323Y-52574D01*
X161827Y-53365D01*
X161289Y-54844D01*
X160395Y-55126D01*
X158840Y-56116D01*
X157595Y-57475D01*
X156744Y-59110D01*
X156687Y-59368D01*
X156667Y-59404D01*
X156207Y-60800D01*
X155789Y-61906D01*
X155405Y-62762D01*
X155318Y-62924D01*
X146462D01*
X139501Y-55964D01*
X138839Y-55521D01*
X138059Y-55366D01*
X137278Y-55521D01*
X136617Y-55964D01*
X136617Y-55964D01*
X120639Y-71941D01*
X98476D01*
X98393Y-70671D01*
X100116Y-70444D01*
X101951Y-69685D01*
X103526Y-68476D01*
X104734Y-66901D01*
X105494Y-65067D01*
X105586Y-64369D01*
X98148D01*
Y-61828D01*
X105586D01*
X105494Y-61130D01*
X104734Y-59296D01*
X103992Y-58329D01*
X104618Y-57059D01*
X132000D01*
X132000Y-57059D01*
X133170Y-56826D01*
X134163Y-56163D01*
X137163Y-53163D01*
X137285Y-52980D01*
X149693D01*
X150473Y-52825D01*
X151135Y-52383D01*
X151577Y-51722D01*
X151732Y-50941D01*
Y-48059D01*
X159953D01*
X160689Y-48975D01*
D02*
G37*
G36*
X41568Y-63736D02*
X41467Y-63668D01*
X41357Y-63627D01*
X41239Y-63611D01*
X41114Y-63621D01*
X40980Y-63657D01*
X40838Y-63719D01*
X40687Y-63807D01*
X40529Y-63920D01*
X40363Y-64060D01*
X40189Y-64226D01*
X39101Y-62485D01*
X41101Y-60792D01*
X41568Y-63736D01*
D02*
G37*
G36*
X161800Y-66269D02*
X161228Y-66097D01*
X160686Y-65973D01*
X160175Y-65896D01*
X159696Y-65867D01*
X159246Y-65885D01*
X158828Y-65951D01*
X158440Y-66065D01*
X158083Y-66226D01*
X157757Y-66434D01*
X157462Y-66690D01*
X156419Y-64906D01*
X156616Y-64681D01*
X156819Y-64398D01*
X157026Y-64057D01*
X157238Y-63658D01*
X157675Y-62685D01*
X158130Y-61480D01*
X158604Y-60041D01*
X161800Y-66269D01*
D02*
G37*
G36*
X-274Y-63534D02*
X-143Y-63632D01*
X2Y-63718D01*
X159Y-63793D01*
X328Y-63856D01*
X510Y-63908D01*
X705Y-63948D01*
X913Y-63977D01*
X1133Y-63994D01*
X1366Y-64000D01*
Y-66000D01*
X1133Y-66006D01*
X913Y-66023D01*
X705Y-66052D01*
X510Y-66092D01*
X328Y-66144D01*
X159Y-66207D01*
X2Y-66282D01*
X-143Y-66368D01*
X-274Y-66466D01*
X-393Y-66575D01*
Y-63425D01*
X-274Y-63534D01*
D02*
G37*
G36*
X-48570Y-67500D02*
X-48875Y-67215D01*
X-49201Y-66960D01*
X-49549Y-66735D01*
X-49918Y-66540D01*
X-50309Y-66375D01*
X-50721Y-66240D01*
X-51154Y-66135D01*
X-51609Y-66060D01*
X-52085Y-66015D01*
X-52582Y-66000D01*
X-52583Y-62000D01*
X-52085Y-61985D01*
X-51609Y-61940D01*
X-51154Y-61865D01*
X-50721Y-61760D01*
X-50309Y-61625D01*
X-49919Y-61460D01*
X-49549Y-61265D01*
X-49202Y-61040D01*
X-48876Y-60785D01*
X-48571Y-60500D01*
X-48570Y-67500D01*
D02*
G37*
G36*
X84257Y-69184D02*
X84281Y-69346D01*
X84322Y-69509D01*
X84380Y-69673D01*
X84455Y-69838D01*
X84547Y-70003D01*
X84657Y-70169D01*
X84783Y-70336D01*
X84926Y-70504D01*
X85087Y-70673D01*
X83673Y-72087D01*
X83504Y-71926D01*
X83336Y-71783D01*
X83169Y-71657D01*
X83003Y-71547D01*
X82838Y-71455D01*
X82673Y-71380D01*
X82509Y-71322D01*
X82346Y-71281D01*
X82184Y-71257D01*
X82022Y-71250D01*
X84250Y-69022D01*
X84257Y-69184D01*
D02*
G37*
G36*
X101007Y-83333D02*
X101034Y-83624D01*
X101082Y-83905D01*
X101149Y-84175D01*
X101237Y-84434D01*
X101345Y-84682D01*
X101474Y-84919D01*
X101622Y-85146D01*
X101791Y-85361D01*
X101980Y-85566D01*
X100566Y-86980D01*
X100361Y-86791D01*
X100146Y-86622D01*
X99919Y-86474D01*
X99682Y-86345D01*
X99434Y-86237D01*
X99175Y-86149D01*
X98905Y-86082D01*
X98624Y-86034D01*
X98333Y-86007D01*
X98030Y-86000D01*
X101000Y-83030D01*
X101007Y-83333D01*
D02*
G37*
G36*
X86943Y-85703D02*
X86939Y-85985D01*
X86959Y-86258D01*
X87004Y-86522D01*
X87073Y-86777D01*
X87166Y-87022D01*
X87285Y-87258D01*
X87427Y-87485D01*
X87594Y-87703D01*
X87786Y-87911D01*
X86179Y-89133D01*
X85979Y-88947D01*
X85768Y-88777D01*
X85544Y-88622D01*
X85309Y-88483D01*
X85062Y-88360D01*
X84803Y-88252D01*
X84532Y-88161D01*
X84249Y-88084D01*
X83955Y-88024D01*
X83648Y-87979D01*
X86972Y-85411D01*
X86943Y-85703D01*
D02*
G37*
G36*
X-155216Y-81339D02*
X-152939Y-83289D01*
X-152252Y-83766D01*
X-151602Y-84156D01*
X-150988Y-84459D01*
X-150410Y-84676D01*
X-149868Y-84806D01*
X-149363Y-84849D01*
Y-86849D01*
X-149868Y-86892D01*
X-150410Y-87022D01*
X-150988Y-87239D01*
X-151602Y-87542D01*
X-152252Y-87933D01*
X-152939Y-88409D01*
X-153662Y-88973D01*
X-155216Y-90360D01*
X-156047Y-91183D01*
Y-80515D01*
X-155216Y-81339D01*
D02*
G37*
G36*
X155534Y-84297D02*
X156003Y-84585D01*
X156556Y-84838D01*
X157194Y-85055D01*
X157917Y-85237D01*
X158725Y-85384D01*
X159618Y-85496D01*
X161659Y-85613D01*
X162806Y-85619D01*
X155382Y-93043D01*
X155376Y-91896D01*
X155259Y-89855D01*
X155147Y-88962D01*
X155000Y-88154D01*
X154818Y-87431D01*
X154601Y-86793D01*
X154348Y-86240D01*
X154060Y-85771D01*
X153736Y-85388D01*
X155151Y-83973D01*
X155534Y-84297D01*
D02*
G37*
G36*
X83891Y-97361D02*
X83704Y-97587D01*
X83539Y-97819D01*
X83396Y-98058D01*
X83275Y-98303D01*
X83176Y-98555D01*
X83099Y-98813D01*
X83044Y-99079D01*
X83011Y-99350D01*
X83000Y-99628D01*
X81000D01*
X80989Y-99350D01*
X80956Y-99079D01*
X80901Y-98813D01*
X80824Y-98555D01*
X80725Y-98303D01*
X80604Y-98058D01*
X80461Y-97819D01*
X80296Y-97587D01*
X80109Y-97361D01*
X79900Y-97142D01*
X84100D01*
X83891Y-97361D01*
D02*
G37*
G36*
X16187Y-102223D02*
X9041Y-107373D01*
X7103Y-106483D01*
X7497Y-106028D01*
X7788Y-105552D01*
X7976Y-105055D01*
X8061Y-104538D01*
X8044Y-104001D01*
X7924Y-103443D01*
X7701Y-102864D01*
X7375Y-102265D01*
X6946Y-101646D01*
X6415Y-101006D01*
X16187Y-102223D01*
D02*
G37*
G36*
X5019Y-111441D02*
X5077Y-111854D01*
X5173Y-112236D01*
X5307Y-112590D01*
X5479Y-112913D01*
X5690Y-113208D01*
X5939Y-113472D01*
X6227Y-113708D01*
X6553Y-113914D01*
X6917Y-114090D01*
X1083D01*
X1447Y-113914D01*
X1773Y-113708D01*
X2061Y-113472D01*
X2310Y-113208D01*
X2521Y-112913D01*
X2693Y-112590D01*
X2828Y-112236D01*
X2923Y-111854D01*
X2981Y-111441D01*
X3000Y-111000D01*
X5000D01*
X5019Y-111441D01*
D02*
G37*
G36*
X38145Y-113269D02*
X37822Y-113653D01*
X37534Y-114121D01*
X37281Y-114674D01*
X37063Y-115312D01*
X36881Y-116036D01*
X36734Y-116844D01*
X36623Y-117737D01*
X36505Y-119777D01*
X36500Y-120925D01*
X29075Y-113500D01*
X30223Y-113495D01*
X32263Y-113377D01*
X33156Y-113266D01*
X33964Y-113119D01*
X34688Y-112937D01*
X35326Y-112719D01*
X35879Y-112466D01*
X36347Y-112178D01*
X36731Y-111855D01*
X38145Y-113269D01*
D02*
G37*
G36*
X149363Y-117251D02*
X148004Y-118777D01*
X147451Y-119487D01*
X146983Y-120162D01*
X146601Y-120802D01*
X146304Y-121407D01*
X146091Y-121977D01*
X145963Y-122512D01*
X145921Y-123012D01*
X143921D01*
X143878Y-122512D01*
X143751Y-121977D01*
X143539Y-121407D01*
X143241Y-120802D01*
X142858Y-120162D01*
X142391Y-119487D01*
X141839Y-118777D01*
X140478Y-117251D01*
X139671Y-116435D01*
X150171D01*
X149363Y-117251D01*
D02*
G37*
G36*
X119913Y-119980D02*
X120373Y-120264D01*
X120922Y-120521D01*
X121560Y-120750D01*
X122288Y-120952D01*
X123105Y-121126D01*
X125007Y-121391D01*
X126093Y-121482D01*
X127267Y-121546D01*
X119474Y-128583D01*
X119524Y-127463D01*
X119495Y-125465D01*
X119417Y-124587D01*
X119297Y-123789D01*
X119134Y-123072D01*
X118928Y-122436D01*
X118680Y-121880D01*
X118389Y-121404D01*
X118056Y-121010D01*
X119543Y-119668D01*
X119913Y-119980D01*
D02*
G37*
G36*
X-125827Y-121790D02*
X-123550Y-123740D01*
X-122863Y-124216D01*
X-122213Y-124607D01*
X-121599Y-124910D01*
X-121021Y-125127D01*
X-120479Y-125257D01*
X-119974Y-125300D01*
Y-127300D01*
X-120479Y-127343D01*
X-121021Y-127473D01*
X-121599Y-127690D01*
X-122213Y-127993D01*
X-122863Y-128384D01*
X-123550Y-128860D01*
X-124272Y-129424D01*
X-125827Y-130810D01*
X-126658Y-131634D01*
Y-120966D01*
X-125827Y-121790D01*
D02*
G37*
G36*
X24257Y-138184D02*
X24281Y-138346D01*
X24322Y-138509D01*
X24380Y-138673D01*
X24455Y-138838D01*
X24547Y-139003D01*
X24657Y-139169D01*
X24783Y-139336D01*
X24926Y-139504D01*
X25087Y-139673D01*
X23673Y-141087D01*
X23504Y-140926D01*
X23336Y-140783D01*
X23169Y-140657D01*
X23003Y-140547D01*
X22838Y-140455D01*
X22673Y-140380D01*
X22509Y-140322D01*
X22346Y-140281D01*
X22184Y-140257D01*
X22023Y-140250D01*
X24250Y-138022D01*
X24257Y-138184D01*
D02*
G37*
%LPC*%
G36*
X189730Y-4944D02*
X188613Y-5091D01*
X186388Y-6013D01*
X184478Y-7478D01*
X183013Y-9388D01*
X182091Y-11613D01*
X181944Y-12730D01*
X189730D01*
Y-4944D01*
D02*
G37*
G36*
Y-15270D02*
X181944D01*
X182091Y-16387D01*
X183013Y-18611D01*
X184478Y-20522D01*
X186388Y-21987D01*
X188613Y-22908D01*
X189730Y-23056D01*
Y-15270D01*
D02*
G37*
G36*
X172729Y-30080D02*
X170745Y-30167D01*
X168852Y-30764D01*
X167177Y-31830D01*
X165836Y-33294D01*
X165511Y-33919D01*
X171307Y-36029D01*
X173416Y-30233D01*
X172729Y-30080D01*
D02*
G37*
G36*
X10000Y84333D02*
X8342Y84003D01*
X6936Y83064D01*
X5997Y81658D01*
X5667Y80000D01*
X5997Y78342D01*
X6936Y76936D01*
X8342Y75997D01*
X10000Y75667D01*
X11658Y75997D01*
X13064Y76936D01*
X14003Y78342D01*
X14333Y80000D01*
X14003Y81658D01*
X13064Y83064D01*
X11658Y84003D01*
X10000Y84333D01*
D02*
G37*
G36*
X-43730Y-56562D02*
Y-62730D01*
X-37562D01*
X-37654Y-62032D01*
X-38414Y-60198D01*
X-39622Y-58622D01*
X-41198Y-57414D01*
X-43032Y-56654D01*
X-43730Y-56562D01*
D02*
G37*
G36*
X-37562Y-65270D02*
X-43730D01*
Y-71438D01*
X-43032Y-71346D01*
X-41198Y-70586D01*
X-39622Y-69378D01*
X-38414Y-67803D01*
X-37654Y-65968D01*
X-37562Y-65270D01*
D02*
G37*
%LPD*%
G36*
X-142314Y110315D02*
X-142456Y110442D01*
X-142613Y110526D01*
X-142785Y110566D01*
X-142973Y110562D01*
X-143176Y110515D01*
X-143394Y110424D01*
X-143628Y110289D01*
X-143877Y110111D01*
X-144141Y109890D01*
X-144421Y109624D01*
X-145761Y111113D01*
X-145495Y111393D01*
X-145271Y111659D01*
X-145089Y111912D01*
X-144949Y112150D01*
X-144851Y112375D01*
X-144796Y112586D01*
X-144782Y112783D01*
X-144811Y112966D01*
X-144881Y113136D01*
X-144994Y113291D01*
X-142314Y110315D01*
D02*
G37*
G36*
X-144994Y105133D02*
X-144977Y104913D01*
X-144948Y104705D01*
X-144908Y104510D01*
X-144856Y104328D01*
X-144793Y104159D01*
X-144718Y104002D01*
X-144632Y103858D01*
X-144534Y103726D01*
X-144425Y103607D01*
X-147575D01*
X-147466Y103726D01*
X-147368Y103858D01*
X-147282Y104002D01*
X-147207Y104159D01*
X-147144Y104328D01*
X-147092Y104510D01*
X-147052Y104705D01*
X-147023Y104913D01*
X-147006Y105133D01*
X-147000Y105366D01*
X-145000D01*
X-144994Y105133D01*
D02*
G37*
G36*
X65466Y120274D02*
X65368Y120142D01*
X65282Y119998D01*
X65207Y119841D01*
X65144Y119672D01*
X65092Y119489D01*
X65052Y119295D01*
X65023Y119087D01*
X65006Y118867D01*
X65000Y118635D01*
X63000D01*
X62994Y118867D01*
X62977Y119087D01*
X62948Y119295D01*
X62908Y119489D01*
X62856Y119672D01*
X62793Y119841D01*
X62718Y119998D01*
X62632Y120142D01*
X62534Y120274D01*
X62425Y120393D01*
X65575D01*
X65466Y120274D01*
D02*
G37*
G36*
X54087Y91673D02*
X53926Y91504D01*
X53783Y91336D01*
X53657Y91169D01*
X53547Y91003D01*
X53455Y90838D01*
X53380Y90673D01*
X53322Y90509D01*
X53281Y90346D01*
X53257Y90184D01*
X53250Y90022D01*
X51023Y92250D01*
X51184Y92257D01*
X51346Y92281D01*
X51509Y92322D01*
X51673Y92380D01*
X51838Y92455D01*
X52003Y92547D01*
X52169Y92657D01*
X52336Y92783D01*
X52504Y92926D01*
X52673Y93087D01*
X54087Y91673D01*
D02*
G37*
D15*
X-88373Y136996D02*
X-75369Y150000D01*
X-70000D01*
X-101087Y151116D02*
X-88202Y164000D01*
X-84000D01*
X-113800Y165236D02*
X-102036Y177000D01*
X-98000D01*
X-121072Y106944D02*
Y107554D01*
X-132130Y95885D02*
X-121072Y106944D01*
X-132130Y89000D02*
Y95885D01*
X-146000Y102000D02*
Y109459D01*
X-133785Y121674D01*
X-160000Y122292D02*
X-146498Y135794D01*
X-160000Y114870D02*
Y122292D01*
X-56841Y97300D02*
X-54292Y94750D01*
X-32094D01*
X-75100Y97300D02*
X-56841D01*
X-9913Y19570D02*
Y66913D01*
X-33750Y90750D02*
X-9913Y66913D01*
X-5913Y21227D02*
Y68570D01*
X-32094Y94750D02*
X-5913Y68570D01*
X-1913Y22884D02*
Y70913D01*
X-29750Y98750D02*
X-1913Y70913D01*
X-79050Y90750D02*
X-33750D01*
X-79200Y90900D02*
X-79050Y90750D01*
X-1913Y22884D02*
X20000Y971D01*
X-52635Y98750D02*
X-29750D01*
X-57484Y103600D02*
X-52635Y98750D01*
X-5913Y21227D02*
X14750Y564D01*
X-9913Y19570D02*
X10750Y-1093D01*
X-69400Y103600D02*
X-57484D01*
X-132001Y-94000D02*
Y-93492D01*
Y-107499D02*
Y-94000D01*
X-122401Y-110400D02*
X-122101Y-110700D01*
X-129100Y-110400D02*
X-122401D01*
X-132001Y-107499D02*
X-129100Y-110400D01*
X-122101Y-110700D02*
X-121656Y-110255D01*
X-115955D01*
X-113900Y-108200D01*
X-111660Y-102874D02*
X-111474D01*
X-113900Y-105114D02*
X-111660Y-102874D01*
X-113900Y-108200D02*
Y-105114D01*
X-108450Y-99850D02*
X-87850D01*
X-111474Y-102874D02*
X-108450Y-99850D01*
X-105701Y-126300D02*
X-104001Y-128000D01*
X-106099Y-125902D02*
X-105701Y-126300D01*
X-106099Y-125902D02*
Y-110700D01*
X-132100Y-126300D02*
X-105701D01*
X-161489Y-85849D02*
X-140152D01*
X-135827Y-90174D01*
X-135319D01*
X-132001Y-93492D01*
X-163778Y-17622D02*
X-163300Y-18100D01*
X-165778Y-17622D02*
X-163778D01*
X-173514Y-9886D02*
X-165778Y-17622D01*
X-181514Y-19386D02*
X-180900Y-20000D01*
X-181514Y-19386D02*
Y4143D01*
X-177514Y-11543D02*
X-173200Y-15856D01*
Y-19578D02*
Y-15856D01*
X-200800Y-19900D02*
Y10200D01*
X-178500Y32500D01*
X-163148D01*
X-194000Y-20100D02*
Y6572D01*
X-173071Y27500D01*
X-187500Y5900D02*
X-171757Y21643D01*
X-187500Y-20300D02*
Y5900D01*
X-181514Y4143D02*
X-173157Y12500D01*
X-177514Y-11543D02*
Y2486D01*
X-173514Y-9886D02*
Y-115D01*
X-177514Y2486D02*
X-172500Y7500D01*
X129500Y103500D02*
Y105600D01*
X116300Y90300D02*
X129500Y103500D01*
X110400Y113400D02*
X114600D01*
X86000Y89000D02*
X110400Y113400D01*
X104057Y101400D02*
X109400D01*
X84657Y82000D02*
X104057Y101400D01*
X111125Y95700D02*
X130000Y114575D01*
X107125Y95700D02*
X111125D01*
X130000Y114575D02*
Y115000D01*
X85425Y74000D02*
X107125Y95700D01*
X107381Y90300D02*
X116300D01*
X96000Y78918D02*
X107381Y90300D01*
X83000Y82000D02*
X84657D01*
X96000Y78918D02*
Y78918D01*
X83848Y66766D02*
X96000Y78918D01*
X83700Y96000D02*
X103000Y115300D01*
X83000Y96000D02*
X83700D01*
X119000Y48000D02*
Y48500D01*
Y48000D02*
X120001Y46999D01*
X130000D01*
X100000Y34000D02*
Y42000D01*
X97700Y44300D02*
X100000Y42000D01*
X90900Y54532D02*
X93100Y56732D01*
X90900Y38100D02*
Y54532D01*
Y38100D02*
X93100Y35900D01*
Y56732D02*
Y63676D01*
X93000Y63776D02*
X93100Y63676D01*
X93000Y63776D02*
X93000Y63776D01*
Y69776D01*
X93000Y69776D02*
X93000Y69776D01*
X93000Y69776D02*
X109224Y86000D01*
X99000Y53000D02*
Y69000D01*
X100000Y34000D02*
X111000Y23000D01*
X-70357Y37357D02*
X-64000Y31000D01*
X-80709Y37357D02*
X-70357D01*
X-80852Y42500D02*
X-68075D01*
X-58750Y33175D01*
X-59000Y28000D02*
Y28575D01*
X-58750Y28825D01*
Y33175D01*
X-94357Y54357D02*
X-93000Y53000D01*
X-66500Y47500D02*
X-54000Y35000D01*
X-80852Y47500D02*
X-66500D01*
X-73000Y72000D02*
X-62000Y61000D01*
X99000Y69000D02*
X105000Y75000D01*
X81750Y66782D02*
Y67500D01*
Y66782D02*
X81766Y66766D01*
X60000Y53000D02*
X70000D01*
X76463Y42537D02*
Y46537D01*
X70000Y53000D02*
X76463Y46537D01*
X82000Y74000D02*
X85425D01*
X83000Y89000D02*
X86000D01*
X81766Y66766D02*
X83848D01*
X105000Y75000D02*
X105000Y75000D01*
X105000Y75000D02*
X109250Y79250D01*
X82000Y57000D02*
Y57677D01*
X80788Y58889D02*
X82000Y57677D01*
X80788Y58889D02*
Y59212D01*
X75000Y65000D02*
X80788Y59212D01*
X99000Y-2001D02*
X100147Y-3148D01*
X106000Y-14000D02*
X114800D01*
X100147Y-8147D02*
X106000Y-14000D01*
X100147Y-8147D02*
Y-3148D01*
X99000Y8000D02*
Y14001D01*
X105069Y5317D02*
X114636Y-4250D01*
X101683Y5317D02*
X105069D01*
X99000Y8000D02*
X101683Y5317D01*
X128750Y-4250D02*
X139000Y6000D01*
X114636Y-4250D02*
X128750D01*
X111000Y23000D02*
X116000D01*
X89500Y-9500D02*
X94000Y-14000D01*
Y-29870D02*
Y-14000D01*
X89500Y-9500D02*
Y29500D01*
X64000Y103000D02*
Y122000D01*
X51000Y90000D02*
X64000Y103000D01*
X112725Y74000D02*
X135000D01*
X109250Y79250D02*
X139750D01*
X115601Y63001D02*
X130000D01*
Y34001D02*
Y46999D01*
X139000Y6000D02*
Y70000D01*
X150000Y-4000D02*
Y18000D01*
X132000Y-22000D02*
X150000Y-4000D01*
X126000Y-22000D02*
X132000D01*
X135000Y74000D02*
X139000Y70000D01*
X145000Y74000D02*
X156000D01*
X139750Y79250D02*
X145000Y74000D01*
X156000D02*
X169569Y87569D01*
X165001Y18000D02*
X169000Y21999D01*
X150000Y18000D02*
X165001D01*
X189909Y5909D02*
Y11400D01*
X170999Y-13001D02*
X189909Y5909D01*
X169000Y-13001D02*
X170999D01*
X165000D02*
X169000D01*
X165000Y3001D02*
X167000Y5001D01*
X167508D01*
X189703Y27196D01*
X55000Y108000D02*
Y114000D01*
X13000Y66000D02*
X55000Y108000D01*
X189000Y-71477D02*
Y-50000D01*
X181000Y-79477D02*
X189000Y-71477D01*
X98000Y-83000D02*
X108000Y-93000D01*
X136983Y-66702D02*
X137343Y-66342D01*
X136983Y-77051D02*
Y-66702D01*
X121034Y-93000D02*
X136983Y-77051D01*
X108000Y-93000D02*
X121034D01*
X-59000Y28000D02*
X-50212Y19212D01*
X-54000Y35000D02*
X-52000D01*
X94000Y-29870D02*
X109130Y-45000D01*
X76463Y42537D02*
X89500Y29500D01*
X0Y-42000D02*
Y4000D01*
X-16000Y20000D02*
X0Y4000D01*
X10750Y-42086D02*
Y-1093D01*
X14750Y-36175D02*
Y564D01*
X20000Y-34000D02*
Y971D01*
X4000Y-121000D02*
Y-111000D01*
X12000Y-103000D01*
Y-96000D01*
X77507Y-21000D02*
X82078D01*
X66508Y-10001D02*
X77507Y-21000D01*
X59000Y65000D02*
X75000D01*
X39000Y45000D02*
X59000Y65000D01*
X13000Y48000D02*
Y66000D01*
X10750Y-42086D02*
X19000Y-50336D01*
X-22414Y-55586D02*
X30414D01*
X-27000Y-51000D02*
X-22414Y-55586D01*
X-27000Y-51000D02*
Y17000D01*
X-42000Y61993D02*
X-39300Y64693D01*
X-42000Y21000D02*
Y61993D01*
Y21000D02*
X-35000Y14000D01*
X-184999Y54000D02*
X-156896D01*
X-153396Y50500D01*
X-54000Y-52000D02*
X-37000D01*
X-58000Y-48000D02*
X-54000Y-52000D01*
X-61999Y-48000D02*
X-58000D01*
X169569Y87569D02*
Y92193D01*
X191000Y36800D02*
X203000Y24800D01*
Y-19000D02*
Y24800D01*
X195000Y-44000D02*
Y-27000D01*
X203000Y-19000D01*
X189000Y-50000D02*
X195000Y-44000D01*
X177000Y-77820D02*
X184721Y-70099D01*
Y-60183D01*
X181000Y-95506D02*
Y-79477D01*
X177000Y-93849D02*
Y-77820D01*
X114000Y-162000D02*
X131208Y-144792D01*
X131714D01*
X181000Y-95506D01*
X167231Y-103618D02*
X177000Y-93849D01*
X152618Y-103618D02*
X167231D01*
X22000Y-138000D02*
X46000Y-162000D01*
X114000D01*
X126960Y-129039D02*
Y-128500D01*
X84000Y-85540D02*
X126960Y-128500D01*
X84000Y-85540D02*
Y-85000D01*
X82000Y-101000D02*
Y-95000D01*
Y-101000D02*
X121172Y-140172D01*
X144921Y-125928D02*
Y-111079D01*
X130678Y-140172D02*
X144921Y-125928D01*
X121172Y-140172D02*
X130678D01*
X155000Y110143D02*
Y113000D01*
X141411Y96554D02*
X155000Y110143D01*
X130857Y86000D02*
X141411Y96554D01*
X109224Y86000D02*
X130857D01*
X88000Y-75000D02*
X121000D01*
X123342Y-77342D02*
X126343D01*
X121000Y-75000D02*
X123342Y-77342D01*
X82000Y-69000D02*
X88000Y-75000D01*
X137658Y-88658D02*
X137658D01*
X152618Y-103618D01*
X179656Y-55118D02*
Y-53934D01*
Y-55118D02*
X184721Y-60183D01*
X148657Y-78894D02*
Y-77658D01*
Y-78894D02*
X162882Y-93118D01*
X137343Y-66342D02*
X137702Y-65983D01*
X156755D01*
X161214Y-61525D01*
X163379D01*
X125334Y-78435D02*
X125480Y-78289D01*
X145854Y-80146D02*
X146000Y-80000D01*
X147997Y-78275D02*
X148143Y-78129D01*
X44000Y-50000D02*
X55000D01*
X29000Y-65000D02*
X44000Y-50000D01*
X30414Y-55586D02*
X46000Y-40000D01*
X50000D01*
X12522Y48478D02*
X13000Y48000D01*
X-35000Y26000D02*
X-16000Y45000D01*
Y54000D01*
X-62000Y-47999D02*
X-60000Y-45999D01*
X-62000Y-47999D02*
X-61999Y-48000D01*
X-37000Y-52000D02*
X-28000Y-61000D01*
X-13000D01*
X-6000Y-32000D02*
Y-16000D01*
X-9000Y-13000D02*
X-6000Y-16000D01*
X-18998Y-13000D02*
X-9000D01*
X15000Y-37000D02*
X22000Y-44000D01*
X15000Y-37000D02*
Y-36425D01*
X14750Y-36175D02*
X15000Y-36425D01*
X-2000Y-65000D02*
X29000D01*
X41000Y-62000D02*
X43000D01*
X25000Y-78000D02*
X41000Y-62000D01*
X28500Y-85500D02*
X53000Y-61000D01*
X-62009Y-85500D02*
X28500D01*
X-35000Y2000D02*
Y14000D01*
X-39300Y64693D02*
Y66300D01*
X85000Y-54000D02*
X132000D01*
X167246Y-49591D02*
X167722D01*
X162656Y-45000D02*
X167246Y-49591D01*
X143001Y-45000D02*
X162656D01*
X165000Y-13001D02*
X165000Y-13001D01*
X165000Y-25000D02*
Y-13001D01*
X156000Y-34000D02*
X165000Y-25000D01*
X138000Y-34000D02*
X156000D01*
X135000Y-51000D02*
Y-37000D01*
X138000Y-34000D01*
X132000Y-54000D02*
X135000Y-51000D01*
X49000Y-90000D02*
X85000Y-54000D01*
X49000Y-101000D02*
Y-90000D01*
X29000Y-121000D02*
X49000Y-101000D01*
X-50212Y18889D02*
Y19212D01*
Y18889D02*
X-49000Y17677D01*
Y17000D02*
Y17677D01*
X-71700Y27357D02*
X-64884Y20541D01*
X-80709Y27357D02*
X-71700D01*
X-72357Y22357D02*
X-46000Y-4000D01*
X-80709Y22357D02*
X-72357D01*
X-62478Y20478D02*
X-62000Y20000D01*
X-64822Y20478D02*
X-62478D01*
X-64884Y20541D02*
X-64822Y20478D01*
X-64884Y20541D02*
X-64884D01*
X-80852Y27500D02*
X-80709Y27357D01*
X-80852Y37500D02*
X-80709Y37357D01*
X-99500Y61148D02*
Y70500D01*
X-98000Y72000D01*
X-73000D01*
X-93000Y53000D02*
X-63000D01*
X-94500Y61148D02*
X-94357Y61005D01*
Y54357D02*
Y61005D01*
X-37000Y-15000D02*
X-35000Y-13000D01*
X-43000Y-15000D02*
X-37000D01*
X-46000Y-12000D02*
X-43000Y-15000D01*
X-46000Y-12000D02*
Y-4000D01*
X-18998Y-13000D02*
Y2000D01*
X-18998Y-13000D02*
X-18998Y-13000D01*
X-18998Y-42999D02*
Y-28000D01*
X-18999Y-43000D02*
X-18998Y-42999D01*
X-35001Y-43000D02*
X-35001Y-43000D01*
X-49000Y-43000D02*
X-35001D01*
X-55000Y-37000D02*
X-49000Y-43000D01*
X-55000Y-37000D02*
Y-9071D01*
X-71571Y7500D02*
X-55000Y-9071D01*
X-129500Y-54007D02*
Y-21148D01*
X-134492Y-58999D02*
X-129500Y-54007D01*
X-80852Y22500D02*
X-80709Y22357D01*
X-80852Y7500D02*
X-71571D01*
X-60000Y-45999D02*
Y-9728D01*
X-72085Y2357D02*
X-60000Y-9728D01*
X-80709Y2357D02*
X-72085D01*
X-80852Y2500D02*
X-80709Y2357D01*
X-66000Y-78000D02*
X25000D01*
X-87850Y-99850D02*
X-66000Y-78000D01*
X-104001Y-127492D02*
X-62009Y-85500D01*
X53000Y-61000D02*
X60000D01*
X-104001Y-128000D02*
Y-127492D01*
X-21000Y-121000D02*
X-20000Y-122000D01*
X186800Y57000D02*
X188000Y58200D01*
X171001Y57000D02*
X186800D01*
X22000Y-44000D02*
X34000D01*
X109130Y-45000D02*
X126999D01*
X189909Y11400D02*
X191000D01*
X189703Y35503D02*
X191000Y36800D01*
X189703Y27196D02*
Y35503D01*
X-98000Y177000D02*
X-98000Y176000D01*
X-173071Y27500D02*
X-163148D01*
X-173514Y-115D02*
X-171042Y2357D01*
X-171700Y21643D02*
X-170843Y22500D01*
X-171757Y21643D02*
X-171700D01*
X-170843Y22500D02*
X-163148D01*
X-173157Y12500D02*
X-163148D01*
X-172500Y7500D02*
X-163148D01*
X-171042Y2357D02*
X-163291D01*
X-163148Y2500D01*
X171001Y57000D02*
Y57508D01*
X167683Y60826D02*
X171001Y57508D01*
X-185000Y53999D02*
X-184999Y54000D01*
X-189604Y37500D02*
X-163148D01*
X-193105Y34000D02*
X-189604Y37500D01*
X-196000Y34000D02*
X-193105D01*
X-196000D02*
Y37777D01*
X-194777Y39000D01*
X-67999Y-30000D02*
Y-7601D01*
X-72957Y-2643D02*
X-67999Y-7601D01*
X-80852Y-2500D02*
X-80709Y-2643D01*
X-72957D01*
X-78000Y-47999D02*
X-62000D01*
X-93185Y-30000D02*
X-84001D01*
X-94357Y-28828D02*
Y-21291D01*
Y-28828D02*
X-93185Y-30000D01*
X-94500Y-21148D02*
X-94357Y-21291D01*
X-99500Y-43007D02*
X-94508Y-47999D01*
X-99500Y-43007D02*
Y-21148D01*
X-94508Y-47999D02*
X-94000D01*
X-135000Y-58999D02*
X-134492D01*
X47400Y20500D02*
Y23242D01*
X49650Y25492D01*
X52000D01*
X64000Y37492D02*
Y38000D01*
X52000Y25492D02*
X64000Y37492D01*
X-129500Y51671D02*
Y61148D01*
X-130672Y50500D02*
X-129500Y51671D01*
X-153396Y50500D02*
X-130672D01*
X66000Y-10001D02*
X66508D01*
X66000Y6001D02*
Y21999D01*
X65999Y22000D02*
X66000Y21999D01*
X47400Y20500D02*
X64499D01*
X65999Y22000D01*
X28600Y20500D02*
Y36599D01*
X30001Y38000D01*
D21*
X30001D02*
D03*
X13999D02*
D03*
X82001Y22000D02*
D03*
X65999D02*
D03*
X64000Y38000D02*
D03*
X47998D02*
D03*
X154999Y57000D02*
D03*
X171001D02*
D03*
X-104001Y-128000D02*
D03*
X-87999D02*
D03*
X-115999Y-94000D02*
D03*
X-132001D02*
D03*
X-35000Y-28000D02*
D03*
X-18998D02*
D03*
X-67999Y-30000D02*
D03*
X-84001D02*
D03*
X-18998Y2000D02*
D03*
X-35000D02*
D03*
X-122101Y-110700D02*
D03*
X-106099D02*
D03*
X-35001Y-43000D02*
D03*
X-18999D02*
D03*
X-35000Y-13000D02*
D03*
X-18998D02*
D03*
X143001Y-45000D02*
D03*
X126999D02*
D03*
D23*
X-62000Y-47999D02*
D03*
Y-64001D02*
D03*
X-94000D02*
D03*
Y-47999D02*
D03*
X-120000Y-75001D02*
D03*
Y-58999D02*
D03*
X-149600Y-52699D02*
D03*
Y-68701D02*
D03*
X-165100D02*
D03*
Y-52699D02*
D03*
X-78000Y-47999D02*
D03*
Y-64001D02*
D03*
X169000Y38001D02*
D03*
Y21999D02*
D03*
Y3001D02*
D03*
Y-13001D02*
D03*
X66000Y6001D02*
D03*
Y-10001D02*
D03*
X-135000Y-58999D02*
D03*
Y-75001D02*
D03*
X-185000Y70001D02*
D03*
Y53999D02*
D03*
X130000Y63001D02*
D03*
Y46999D02*
D03*
Y17999D02*
D03*
Y34001D02*
D03*
X99000Y-2001D02*
D03*
Y14001D02*
D03*
D35*
X150000Y38000D02*
D03*
Y18000D02*
D03*
X-161489Y-85849D02*
D03*
X-132100Y-126300D02*
D03*
D49*
X38000Y12058D02*
Y27494D01*
X47807Y10250D02*
X54650Y3407D01*
X16000Y16000D02*
X21750Y10250D01*
X16000Y16000D02*
Y35999D01*
X-135183Y-74818D02*
X-135000Y-75001D01*
X-184000Y-78000D02*
X-183900D01*
X-174601Y-68701D01*
X-165100D01*
X-149600D01*
X-143483Y-74818D02*
X-135183D01*
X-146774Y-71527D02*
X-143483Y-74818D01*
X-146774Y-71527D02*
Y-71019D01*
X-149092Y-68701D02*
X-146774Y-71019D01*
X-149600Y-68701D02*
X-149092D01*
X-165100Y-52699D02*
X-149600D01*
X-191600Y-51700D02*
X-166099D01*
X-165100Y-52699D01*
X-42600Y-97800D02*
X-40800Y-96000D01*
X-58307Y-97800D02*
X-42600D01*
X-87999Y-127492D02*
X-58307Y-97800D01*
X-40800Y-96000D02*
X-38000D01*
X-87999Y-128000D02*
Y-127492D01*
X162999Y38000D02*
X163000Y38001D01*
X145000Y38000D02*
X162999D01*
X157317Y63317D02*
X174000Y80000D01*
X182000D01*
X47998Y38000D02*
Y38508D01*
Y37492D02*
Y38000D01*
X82001Y22000D02*
Y22508D01*
X38000Y-10535D02*
Y-4500D01*
Y-10535D02*
X42215Y-14750D01*
X54650Y-12407D02*
Y3407D01*
X52307Y-14750D02*
X54650Y-12407D01*
X42215Y-14750D02*
X52307D01*
X-35000Y-28508D02*
Y-28000D01*
X-37318Y-30826D02*
X-35000Y-28508D01*
X-119850Y-37000D02*
X-119500Y-36650D01*
Y-36500D01*
X-108000Y-48000D02*
Y-45646D01*
Y-48000D02*
X-107000Y-49000D01*
X-109500Y-46500D02*
X-108000Y-48000D01*
X151237Y89831D02*
X168018Y106612D01*
X151237Y84094D02*
Y89831D01*
X150589Y83446D02*
X151237Y84094D01*
X154999Y56492D02*
X157317Y58810D01*
Y63317D01*
X145000Y38000D02*
X154999Y47999D01*
Y56492D01*
X-139500Y-35500D02*
X-139000Y-36000D01*
X-45000Y-64000D02*
X-45000Y-64000D01*
X-62000Y-64001D02*
X-62000Y-64000D01*
X-45000D01*
X-120000Y-89999D02*
X-115999Y-94000D01*
X191000Y-14947D02*
Y-14000D01*
X167612Y106612D02*
X168018D01*
X191000Y-14000D02*
X192657D01*
X62000Y-96843D02*
Y-96000D01*
X-107000Y-58999D02*
X-99510D01*
X-120000D02*
X-107000D01*
Y-49000D01*
X-99510Y-58999D02*
X-94508Y-64001D01*
X-94000D01*
X-120000Y-89999D02*
Y-75001D01*
X-135000D02*
X-120000D01*
X-135000Y-75001D02*
X-135000Y-75001D01*
X38000Y27494D02*
X47998Y37492D01*
X13999Y38000D02*
X16000Y35999D01*
X-78000Y-64001D02*
X-62000D01*
D50*
X46275Y-3375D02*
X46919Y-2731D01*
Y3862D01*
X43868Y6913D02*
X46919Y3862D01*
X31345Y6913D02*
X43868D01*
X28687Y4256D02*
X31345Y6913D01*
X28000Y-5100D02*
X28600Y-4500D01*
X28687Y-4413D02*
Y4256D01*
X-95612Y79878D02*
X-93620Y81870D01*
X-100572Y79878D02*
X-95612D01*
X-109500Y70950D02*
X-100572Y79878D01*
X-109500Y61148D02*
Y70950D01*
X-104502Y-21150D02*
X-104500Y-21148D01*
X-104502Y-28040D02*
Y-21150D01*
X-104643Y-28181D02*
X-104502Y-28040D01*
X-104643Y-42289D02*
Y-28181D01*
X-149500Y-21148D02*
Y-17914D01*
X-149502Y-17911D02*
X-149500Y-17914D01*
X-163148Y-7500D02*
Y-2500D01*
X56316Y46826D02*
X69975D01*
X72318Y44483D01*
X126000Y1000D02*
Y1541D01*
X130000Y5541D01*
Y17999D01*
X72318Y32191D02*
X82001Y22508D01*
X47998Y38508D02*
X56316Y46826D01*
X72318Y32191D02*
Y44483D01*
X-47513Y-28000D02*
X-46000Y-33000D01*
X-109500Y-46500D02*
Y-21148D01*
X-119500Y-36500D02*
Y-21148D01*
X-47855Y-28000D02*
X-35000D01*
X-50855Y-25000D02*
X-47855Y-28000D01*
X-50855Y-25000D02*
Y-6145D01*
X-69500Y12500D02*
X-50855Y-6145D01*
X-139500Y-35500D02*
Y-21148D01*
X-80852Y12500D02*
X-69500D01*
X-177999Y63000D02*
X-164000D01*
X-185000Y70001D02*
X-184492D01*
X-181319Y66828D01*
Y66320D02*
Y66828D01*
Y66320D02*
X-177999Y63000D01*
X-149500Y61148D02*
Y70500D01*
X-152000Y73000D02*
X-149500Y70500D01*
X-160000Y73000D02*
X-152000D01*
X-164000Y63000D02*
X-162371Y64629D01*
Y70629D01*
X-160000Y73000D01*
X-108000Y-45646D02*
X-104643Y-42289D01*
X-149648Y-21000D02*
X-149500Y-21148D01*
D51*
X-117093Y76507D02*
X-80600Y113000D01*
X-130332Y78268D02*
Y78298D01*
X-71630Y137000D01*
X-56985Y113000D02*
X-49735Y105750D01*
X21612D01*
X35862Y120000D01*
X36000D01*
X-80600Y113000D02*
X-56985D01*
X-71630Y137000D02*
X-6000D01*
X11000Y120000D01*
D56*
X-26600Y66300D02*
D03*
D57*
X-39300D02*
D03*
X-52000D02*
D03*
D58*
X191000Y62200D02*
D03*
Y36800D02*
D03*
Y11400D02*
D03*
Y-14000D02*
D03*
X114800D02*
D03*
Y11400D02*
D03*
Y36800D02*
D03*
D59*
Y62200D02*
D03*
D60*
X84000Y172000D02*
D03*
X54000Y-121000D02*
D03*
X29000D02*
D03*
X4000D02*
D03*
X-21000D02*
D03*
X-46000D02*
D03*
X162882Y-93118D02*
D03*
X144921Y-111079D02*
D03*
X126960Y-129039D02*
D03*
X62000Y-96000D02*
D03*
X37000D02*
D03*
X12000D02*
D03*
X-13000D02*
D03*
X-38000D02*
D03*
D61*
X84000Y146600D02*
D03*
D62*
X-39000Y120000D02*
D03*
D63*
X-14000D02*
D03*
X11000D02*
D03*
X36000D02*
D03*
D64*
X175313Y-65868D02*
D03*
D65*
X163379Y-61525D02*
D03*
X179656Y-53934D02*
D03*
X184000Y-42000D02*
D03*
X172066Y-37656D02*
D03*
X167722Y-49591D02*
D03*
X98148Y-63099D02*
D03*
X-191600Y-51700D02*
D03*
X-121700Y38500D02*
D03*
X-122200Y1200D02*
D03*
X-122100Y19800D02*
D03*
X-131000Y152000D02*
D03*
X182000Y80000D02*
D03*
X-103000Y39000D02*
D03*
X-141000D02*
D03*
Y20000D02*
D03*
X-103000D02*
D03*
Y1000D02*
D03*
X-141000D02*
D03*
X-119850Y-37000D02*
D03*
X-108000Y-48000D02*
D03*
X-139000Y-36000D02*
D03*
X-45000Y-64000D02*
D03*
X-20000Y-198000D02*
D03*
X32000Y99000D02*
D03*
X86000Y-20000D02*
D03*
X-164000Y63000D02*
D03*
X15500Y28164D02*
D03*
D66*
X-91700Y-162200D02*
D03*
X123000Y141700D02*
D03*
D67*
X109000Y-147000D02*
D03*
D68*
X155000Y113000D02*
D03*
X168018Y106612D02*
D03*
X169569Y92193D02*
D03*
X-93620Y81870D02*
D03*
X-184000Y-78000D02*
D03*
X-196000Y34000D02*
D03*
D69*
X-79200Y90900D02*
D03*
X-75100Y97300D02*
D03*
X-69400Y103600D02*
D03*
X-163300Y-18100D02*
D03*
X-180900Y-20000D02*
D03*
X-173200Y-19578D02*
D03*
X-200800Y-19900D02*
D03*
X-194000Y-20100D02*
D03*
X-187500Y-20300D02*
D03*
X109400Y101400D02*
D03*
X129500Y105600D02*
D03*
X103000Y115300D02*
D03*
X114600Y113400D02*
D03*
X97700Y44300D02*
D03*
X93100Y35900D02*
D03*
X99000Y53000D02*
D03*
X-64000Y31000D02*
D03*
X-63000Y53000D02*
D03*
X-62000Y61000D02*
D03*
X81750Y67500D02*
D03*
X60000Y53000D02*
D03*
X82000Y74000D02*
D03*
X83000Y82000D02*
D03*
X83000Y89000D02*
D03*
X83000Y96000D02*
D03*
X82000Y57000D02*
D03*
X116000Y23000D02*
D03*
X126000Y1000D02*
D03*
X112725Y74000D02*
D03*
X130000Y115000D02*
D03*
X126000Y-22000D02*
D03*
X55000Y114000D02*
D03*
X-52000Y35000D02*
D03*
X10000Y80000D02*
D03*
X-46000Y-33000D02*
D03*
X22000Y-138000D02*
D03*
X43000Y-62000D02*
D03*
X82000Y-69000D02*
D03*
X55000Y-50000D02*
D03*
X50000Y-40000D02*
D03*
X26000Y52000D02*
D03*
X39000Y45000D02*
D03*
X-16000Y54000D02*
D03*
X13000Y48000D02*
D03*
X-35000Y26000D02*
D03*
X-13000Y-61000D02*
D03*
X-6000Y-32000D02*
D03*
X0Y-42000D02*
D03*
X-2000Y-65000D02*
D03*
X-16000Y20000D02*
D03*
X-27000Y17000D02*
D03*
X-49000D02*
D03*
X-62000Y20000D02*
D03*
X60000Y-61000D02*
D03*
X51000Y90000D02*
D03*
X19000Y-50336D02*
D03*
X34000Y-44000D02*
D03*
X20000Y-34000D02*
D03*
X-132130Y89000D02*
D03*
X-146000Y102000D02*
D03*
X-160000Y114870D02*
D03*
X-98000Y177000D02*
D03*
X-84000Y164000D02*
D03*
X-70000Y150000D02*
D03*
X64000Y122000D02*
D03*
D70*
X119000Y48500D02*
D03*
X98000Y-83000D02*
D03*
X84000Y-85000D02*
D03*
X82000Y-95000D02*
D03*
D85*
X-163148Y-7500D02*
D03*
Y-2500D02*
D03*
Y2500D02*
D03*
Y7500D02*
D03*
Y12500D02*
D03*
Y17500D02*
D03*
Y22500D02*
D03*
Y27500D02*
D03*
Y32500D02*
D03*
Y37500D02*
D03*
Y42500D02*
D03*
Y47500D02*
D03*
X-80852D02*
D03*
Y42500D02*
D03*
Y37500D02*
D03*
Y32500D02*
D03*
Y27500D02*
D03*
Y22500D02*
D03*
Y17500D02*
D03*
Y12500D02*
D03*
Y7500D02*
D03*
Y2500D02*
D03*
Y-2500D02*
D03*
Y-7500D02*
D03*
D86*
X-149500Y61148D02*
D03*
X-144500D02*
D03*
X-139500D02*
D03*
X-134500D02*
D03*
X-129500D02*
D03*
X-124500D02*
D03*
X-119500D02*
D03*
X-114500D02*
D03*
X-109500D02*
D03*
X-104500D02*
D03*
X-99500D02*
D03*
X-94500D02*
D03*
Y-21148D02*
D03*
X-99500D02*
D03*
X-104500D02*
D03*
X-109500D02*
D03*
X-114500D02*
D03*
X-119500D02*
D03*
X-124500D02*
D03*
X-129500D02*
D03*
X-134500D02*
D03*
X-139500D02*
D03*
X-144500D02*
D03*
X-149500D02*
D03*
D87*
X-122000Y20000D02*
D03*
D88*
X126342Y-77342D02*
D03*
X137658Y-88658D02*
D03*
X148658Y-77658D02*
D03*
X137342Y-66342D02*
D03*
D89*
X150589Y83446D02*
D03*
X141411Y96554D02*
D03*
D90*
X-113800Y165236D02*
D03*
X-146498Y135794D02*
D03*
X-101087Y151116D02*
D03*
X-133785Y121674D02*
D03*
X-88373Y136996D02*
D03*
X-121072Y107554D02*
D03*
D91*
X47400Y-4500D02*
D03*
X38000D02*
D03*
X28600D02*
D03*
Y20500D02*
D03*
X47400D02*
D03*
D92*
X28600Y-4500D02*
X28687Y-4413D01*
X76000Y-54000D02*
Y-32000D01*
X16000Y-114000D02*
X76000Y-54000D01*
X30170Y-21960D02*
X65960D01*
X28000Y-19790D02*
X30170Y-21960D01*
X28000Y-19790D02*
Y-5100D01*
X65960Y-21960D02*
X76000Y-32000D01*
X-119500Y74100D02*
X-117093Y76507D01*
X-119500Y61148D02*
Y74100D01*
X-139500Y69606D02*
X-130839Y78268D01*
X-130332D01*
X-139500Y61148D02*
Y69606D01*
X-20000Y-198000D02*
Y-122000D01*
X-9000Y-133000D01*
X12000D01*
X16000Y-129000D01*
Y-114000D01*
M02*
