G04*
G04 #@! TF.GenerationSoftware,Altium Limited,Altium Designer,20.0.7 (75)*
G04*
G04 Layer_Physical_Order=3*
G04 Layer_Color=128*
%FSLAX44Y44*%
%MOMM*%
G71*
G01*
G75*
%ADD11C,0.2540*%
%ADD49C,0.4000*%
%ADD58C,1.3208*%
%ADD71C,1.0160*%
%ADD72C,1.1080*%
G04:AMPARAMS|DCode=74|XSize=2.3368mm|YSize=2.3368mm|CornerRadius=0mm|HoleSize=0mm|Usage=FLASHONLY|Rotation=0.000|XOffset=0mm|YOffset=0mm|HoleType=Round|Shape=Relief|Width=0.254mm|Gap=0.254mm|Entries=4|*
%AMTHD74*
7,0,0,2.3368,1.8288,0.2540,45*
%
%ADD74THD74*%
%ADD75C,1.5080*%
%ADD76C,2.0160*%
G04:AMPARAMS|DCode=77|XSize=2.524mm|YSize=2.524mm|CornerRadius=0mm|HoleSize=0mm|Usage=FLASHONLY|Rotation=0.000|XOffset=0mm|YOffset=0mm|HoleType=Round|Shape=Relief|Width=0.254mm|Gap=0.254mm|Entries=4|*
%AMTHD77*
7,0,0,2.5240,2.0160,0.2540,45*
%
%ADD77THD77*%
%ADD79C,0.7080*%
%ADD80C,1.6160*%
%ADD81C,0.5000*%
%ADD82C,1.8288*%
%ADD83C,3.2660*%
%ADD84C,1.2160*%
D11*
X-90248Y-12050D02*
X-89050Y-10852D01*
X-202600Y-51400D02*
X-201600Y-52400D01*
D49*
X-89050Y55750D02*
Y57510D01*
D58*
X191000Y36800D02*
D03*
Y11400D02*
D03*
X114800Y-14000D02*
D03*
Y11400D02*
D03*
Y36800D02*
D03*
Y62200D02*
D03*
D71*
X-211729Y0D02*
G03*
X0Y-211729I211729J0D01*
G01*
D02*
G03*
X211729Y0I0J211729D01*
G01*
D02*
G03*
X0Y211729I-211729J0D01*
G01*
D02*
G03*
X-211729Y0I0J-211729D01*
G01*
D72*
X-26600Y66300D02*
D03*
X-39300D02*
D03*
X-161489Y-85849D02*
D03*
X-132100Y-126300D02*
D03*
X175313Y-65868D02*
D03*
X163379Y-61525D02*
D03*
X179656Y-53934D02*
D03*
X167722Y-49591D02*
D03*
D74*
X191000Y62200D02*
D03*
D75*
X84000Y172000D02*
D03*
X29000Y-121000D02*
D03*
X4000D02*
D03*
X-21000D02*
D03*
X162882Y-93118D02*
D03*
X144921Y-111079D02*
D03*
X126960Y-129039D02*
D03*
X37000Y-96000D02*
D03*
X12000D02*
D03*
X-13000D02*
D03*
X169569Y92193D02*
D03*
D76*
X-39000Y120000D02*
D03*
X-14000D02*
D03*
X11000D02*
D03*
X36000D02*
D03*
X54000Y-121000D02*
D03*
X109000Y-147000D02*
D03*
X-38000Y-96000D02*
D03*
X168018Y106612D02*
D03*
X-184000Y-78000D02*
D03*
D77*
X84000Y146600D02*
D03*
X-46000Y-121000D02*
D03*
X62000Y-96000D02*
D03*
X155000Y113000D02*
D03*
D79*
X-79200Y90900D02*
D03*
X-75100Y97300D02*
D03*
X-69400Y103600D02*
D03*
X-163300Y-18100D02*
D03*
X-180900Y-20000D02*
D03*
X-173200Y-19578D02*
D03*
X-200800Y-19900D02*
D03*
X-194000Y-20100D02*
D03*
X-187500Y-20300D02*
D03*
X109400Y101400D02*
D03*
X129500Y105600D02*
D03*
X103000Y115300D02*
D03*
X114600Y113400D02*
D03*
X119000Y48500D02*
D03*
X97700Y44300D02*
D03*
X99000Y53000D02*
D03*
X-64000Y31000D02*
D03*
X-63000Y53000D02*
D03*
X-62000Y61000D02*
D03*
X81750Y67500D02*
D03*
X60000Y53000D02*
D03*
X82000Y74000D02*
D03*
X83000Y82000D02*
D03*
X83000Y89000D02*
D03*
X83000Y96000D02*
D03*
X82000Y57000D02*
D03*
X116000Y23000D02*
D03*
X112725Y74000D02*
D03*
X130000Y115000D02*
D03*
X126000Y-22000D02*
D03*
X55000Y114000D02*
D03*
X-52000Y35000D02*
D03*
X22000Y-138000D02*
D03*
X84000Y-85000D02*
D03*
X82000Y-95000D02*
D03*
X43000Y-62000D02*
D03*
X82000Y-69000D02*
D03*
X55000Y-50000D02*
D03*
X50000Y-40000D02*
D03*
X39000Y45000D02*
D03*
X-16000Y54000D02*
D03*
X13000Y48000D02*
D03*
X-35000Y26000D02*
D03*
X-13000Y-61000D02*
D03*
X-6000Y-32000D02*
D03*
X0Y-42000D02*
D03*
X-2000Y-65000D02*
D03*
X-16000Y20000D02*
D03*
X-27000Y17000D02*
D03*
X-49000D02*
D03*
X-62000Y20000D02*
D03*
X60000Y-61000D02*
D03*
X51000Y90000D02*
D03*
X19000Y-50336D02*
D03*
X34000Y-44000D02*
D03*
X20000Y-34000D02*
D03*
X-132130Y89000D02*
D03*
X-146000Y102000D02*
D03*
X-160000Y114870D02*
D03*
X-98000Y177000D02*
D03*
X-84000Y164000D02*
D03*
X-70000Y150000D02*
D03*
X64000Y122000D02*
D03*
D80*
X-52000Y66300D02*
D03*
X184000Y-42000D02*
D03*
X172066Y-37656D02*
D03*
X98148Y-63099D02*
D03*
X-121700Y38500D02*
D03*
X-122200Y1200D02*
D03*
X-122100Y19800D02*
D03*
X182000Y80000D02*
D03*
X-103000Y39000D02*
D03*
X-141000D02*
D03*
Y20000D02*
D03*
X-103000D02*
D03*
Y1000D02*
D03*
X-141000D02*
D03*
X-119850Y-37000D02*
D03*
X-139000Y-36000D02*
D03*
X-45000Y-64000D02*
D03*
X32000Y99000D02*
D03*
X-164000Y63000D02*
D03*
X15500Y28164D02*
D03*
D81*
X-44966Y-186263D02*
G03*
X171212Y76560I-23034J239263D01*
G01*
X-89050Y-10852D02*
Y55750D01*
X-103599Y-25401D02*
X-90248Y-12050D01*
X91579Y163731D02*
X100660Y154650D01*
X89382Y163731D02*
X91579D01*
X71732D02*
X89382D01*
X63000Y155000D02*
X71732Y163731D01*
X100660Y134310D02*
Y154650D01*
X78000Y111650D02*
X100660Y134310D01*
X-76290Y-52710D02*
X-50000Y-79000D01*
X-76290Y-52710D02*
Y80140D01*
X-91830Y95680D02*
X-76290Y80140D01*
X-102510Y95680D02*
X-91830D01*
X-107790Y90400D02*
X-102510Y95680D01*
X-107790Y76250D02*
Y90400D01*
Y76250D02*
X-89050Y57510D01*
X-202600Y-25401D02*
X-103599D01*
X-199000Y-64700D02*
X-160700D01*
X-202600Y-51400D02*
Y-25401D01*
X-201600Y-58800D02*
Y-52400D01*
Y-58800D02*
X-199000Y-61400D01*
Y-64700D02*
Y-61400D01*
X-160700Y-64700D02*
X-84400Y-141000D01*
X63000Y-75000D02*
Y155000D01*
X59000Y-79000D02*
X63000Y-75000D01*
X-50000Y-79000D02*
X59000D01*
X-84400Y-141000D02*
X-54000D01*
X78000Y-116700D02*
Y111650D01*
X53700Y-141000D02*
X78000Y-116700D01*
X-60000Y-141000D02*
X53700D01*
X-45033Y-207967D02*
Y-185560D01*
X185212Y77212D02*
X194000Y86000D01*
X170618Y77212D02*
X185212D01*
D82*
X191000Y-14000D02*
D03*
D83*
X-91700Y-162200D02*
D03*
X123000Y141700D02*
D03*
D84*
X126000Y1000D02*
D03*
X-46000Y-33000D02*
D03*
M02*
