G04*
G04 #@! TF.GenerationSoftware,Altium Limited,Altium Designer,20.0.7 (75)*
G04*
G04 Layer_Color=128*
%FSLAX44Y44*%
%MOMM*%
G71*
G01*
G75*
%ADD21R,0.8636X0.9652*%
%ADD23R,0.9652X0.8636*%
%ADD35C,1.5240*%
%ADD85R,1.4732X0.2286*%
%ADD86R,0.2286X1.4732*%
G04:AMPARAMS|DCode=88|XSize=0.8636mm|YSize=0.9652mm|CornerRadius=0mm|HoleSize=0mm|Usage=FLASHONLY|Rotation=135.000|XOffset=0mm|YOffset=0mm|HoleType=Round|Shape=Rectangle|*
%AMROTATEDRECTD88*
4,1,4,0.6466,0.0359,-0.0359,-0.6466,-0.6466,-0.0359,0.0359,0.6466,0.6466,0.0359,0.0*
%
%ADD88ROTATEDRECTD88*%

G04:AMPARAMS|DCode=89|XSize=0.8636mm|YSize=0.9652mm|CornerRadius=0mm|HoleSize=0mm|Usage=FLASHONLY|Rotation=125.000|XOffset=0mm|YOffset=0mm|HoleType=Round|Shape=Rectangle|*
%AMROTATEDRECTD89*
4,1,4,0.6430,-0.0769,-0.1477,-0.6305,-0.6430,0.0769,0.1477,0.6305,0.6430,-0.0769,0.0*
%
%ADD89ROTATEDRECTD89*%

G04:AMPARAMS|DCode=90|XSize=2.8mm|YSize=1mm|CornerRadius=0mm|HoleSize=0mm|Usage=FLASHONLY|Rotation=42.000|XOffset=0mm|YOffset=0mm|HoleType=Round|Shape=Rectangle|*
%AMROTATEDRECTD90*
4,1,4,-0.7058,-1.3084,-1.3750,-0.5652,0.7058,1.3084,1.3750,0.5652,-0.7058,-1.3084,0.0*
%
%ADD90ROTATEDRECTD90*%

%ADD91R,0.6500X1.2500*%
%ADD97R,0.0254X0.0254*%
G36*
X-97981Y29340D02*
X-112660D01*
Y44019D01*
X-97981D01*
Y29340D01*
D02*
G37*
G36*
X-114660D02*
X-129340D01*
Y44019D01*
X-114660D01*
Y29340D01*
D02*
G37*
G36*
X-131340D02*
X-146019D01*
Y44019D01*
X-131340D01*
Y29340D01*
D02*
G37*
G36*
X-97981Y12660D02*
X-112660D01*
Y27340D01*
X-97981D01*
Y12660D01*
D02*
G37*
G36*
X-114660D02*
X-129340D01*
Y27340D01*
X-114660D01*
Y12660D01*
D02*
G37*
G36*
X-131340D02*
X-146019D01*
Y27340D01*
X-131340D01*
Y12660D01*
D02*
G37*
G36*
X-97981Y-4019D02*
X-112660D01*
Y10660D01*
X-97981D01*
Y-4019D01*
D02*
G37*
G36*
X-114660D02*
X-129340D01*
Y10660D01*
X-114660D01*
Y-4019D01*
D02*
G37*
G36*
X-131340D02*
X-146019D01*
Y10660D01*
X-131340D01*
Y-4019D01*
D02*
G37*
D21*
X30001Y38000D02*
D03*
X13999D02*
D03*
X82001Y22000D02*
D03*
X65999D02*
D03*
X64000Y38000D02*
D03*
X47998D02*
D03*
X154999Y57000D02*
D03*
X171001D02*
D03*
X-104001Y-128000D02*
D03*
X-87999D02*
D03*
X-115999Y-94000D02*
D03*
X-132001D02*
D03*
X-35000Y-28000D02*
D03*
X-18998D02*
D03*
X-67999Y-30000D02*
D03*
X-84001D02*
D03*
X-18998Y2000D02*
D03*
X-35000D02*
D03*
X-122101Y-110700D02*
D03*
X-106099D02*
D03*
X-35001Y-43000D02*
D03*
X-18999D02*
D03*
X-35000Y-13000D02*
D03*
X-18998D02*
D03*
X143001Y-45000D02*
D03*
X126999D02*
D03*
D23*
X-62000Y-47999D02*
D03*
Y-64001D02*
D03*
X-94000D02*
D03*
Y-47999D02*
D03*
X-120000Y-75001D02*
D03*
Y-58999D02*
D03*
X-149600Y-52699D02*
D03*
Y-68701D02*
D03*
X-165100D02*
D03*
Y-52699D02*
D03*
X-78000Y-47999D02*
D03*
Y-64001D02*
D03*
X169000Y38001D02*
D03*
Y21999D02*
D03*
Y3001D02*
D03*
Y-13001D02*
D03*
X66000Y6001D02*
D03*
Y-10001D02*
D03*
X-135000Y-58999D02*
D03*
Y-75001D02*
D03*
X-185000Y70001D02*
D03*
Y53999D02*
D03*
X130000Y63001D02*
D03*
Y46999D02*
D03*
Y17999D02*
D03*
Y34001D02*
D03*
X99000Y-2001D02*
D03*
Y14001D02*
D03*
D35*
X150000Y38000D02*
D03*
Y18000D02*
D03*
D85*
X-163148Y-7500D02*
D03*
Y-2500D02*
D03*
Y2500D02*
D03*
Y7500D02*
D03*
Y12500D02*
D03*
Y17500D02*
D03*
Y22500D02*
D03*
Y27500D02*
D03*
Y32500D02*
D03*
Y37500D02*
D03*
Y42500D02*
D03*
Y47500D02*
D03*
X-80852D02*
D03*
Y42500D02*
D03*
Y37500D02*
D03*
Y32500D02*
D03*
Y27500D02*
D03*
Y22500D02*
D03*
Y17500D02*
D03*
Y12500D02*
D03*
Y7500D02*
D03*
Y2500D02*
D03*
Y-2500D02*
D03*
Y-7500D02*
D03*
D86*
X-149500Y61148D02*
D03*
X-144500D02*
D03*
X-139500D02*
D03*
X-134500D02*
D03*
X-129500D02*
D03*
X-124500D02*
D03*
X-119500D02*
D03*
X-114500D02*
D03*
X-109500D02*
D03*
X-104500D02*
D03*
X-99500D02*
D03*
X-94500D02*
D03*
Y-21148D02*
D03*
X-99500D02*
D03*
X-104500D02*
D03*
X-109500D02*
D03*
X-114500D02*
D03*
X-119500D02*
D03*
X-124500D02*
D03*
X-129500D02*
D03*
X-134500D02*
D03*
X-139500D02*
D03*
X-144500D02*
D03*
X-149500D02*
D03*
D88*
X126342Y-77342D02*
D03*
X137658Y-88658D02*
D03*
X148658Y-77658D02*
D03*
X137342Y-66342D02*
D03*
D89*
X150589Y83446D02*
D03*
X141411Y96554D02*
D03*
D90*
X-113800Y165236D02*
D03*
X-146498Y135794D02*
D03*
X-101087Y151116D02*
D03*
X-133785Y121674D02*
D03*
X-88373Y136996D02*
D03*
X-121072Y107554D02*
D03*
D91*
X47400Y-4500D02*
D03*
X38000D02*
D03*
X28600D02*
D03*
Y20500D02*
D03*
X47400D02*
D03*
D97*
X-122000Y20000D02*
D03*
M02*
