G04*
G04 #@! TF.GenerationSoftware,Altium Limited,Altium Designer,20.0.7 (75)*
G04*
G04 Layer_Physical_Order=1*
G04 Layer_Color=255*
%FSLAX44Y44*%
%MOMM*%
G71*
G01*
G75*
%ADD15C,0.2000*%
%ADD19R,1.4732X0.2794*%
%ADD20R,0.2794X1.4732*%
%ADD21R,0.8636X0.9652*%
G04:AMPARAMS|DCode=22|XSize=0.8636mm|YSize=0.9652mm|CornerRadius=0mm|HoleSize=0mm|Usage=FLASHONLY|Rotation=225.000|XOffset=0mm|YOffset=0mm|HoleType=Round|Shape=Rectangle|*
%AMROTATEDRECTD22*
4,1,4,-0.0359,0.6466,0.6466,-0.0359,0.0359,-0.6466,-0.6466,0.0359,-0.0359,0.6466,0.0*
%
%ADD22ROTATEDRECTD22*%

%ADD23R,0.9652X0.8636*%
%ADD24R,2.7000X1.0000*%
%ADD25R,2.7000X3.3000*%
%ADD35C,1.5240*%
%ADD49C,0.4000*%
%ADD50C,0.2290*%
%ADD51C,0.8000*%
%ADD52C,0.2300*%
%ADD53C,0.6000*%
%ADD54C,0.2400*%
%ADD55C,0.2790*%
%ADD56R,1.0000X1.2700*%
%ADD57O,1.0000X1.2700*%
%ADD58C,1.3208*%
%ADD59R,1.3208X1.3208*%
%ADD60C,1.5000*%
%ADD61R,1.5000X1.5000*%
%ADD62R,1.6500X1.6500*%
%ADD63C,1.6500*%
%ADD64P,1.4142X4X385.0*%
%ADD65C,1.0000*%
%ADD66C,4.0000*%
%ADD67P,2.1213X4X90.0*%
%ADD68C,1.2700*%
%ADD69C,0.4500*%
%ADD70C,0.6000*%
G36*
X20804Y211224D02*
X34574Y209411D01*
X48196Y206701D01*
X61612Y203106D01*
X74763Y198642D01*
X87595Y193327D01*
X100052Y187184D01*
X112080Y180240D01*
X123628Y172523D01*
X134647Y164068D01*
X145090Y154910D01*
X154910Y145090D01*
X164068Y134647D01*
X172523Y123628D01*
X180240Y112080D01*
X187184Y100052D01*
X193327Y87595D01*
X198642Y74763D01*
X203106Y61612D01*
X206701Y48196D01*
X209411Y34574D01*
X211224Y20804D01*
X212132Y6945D01*
Y-0D01*
Y-6945D01*
X211224Y-20804D01*
X209411Y-34574D01*
X206701Y-48196D01*
X203106Y-61612D01*
X198642Y-74764D01*
X193327Y-87595D01*
X187184Y-100052D01*
X180240Y-112080D01*
X172523Y-123628D01*
X164068Y-134647D01*
X154910Y-145090D01*
X145090Y-154910D01*
X134647Y-164068D01*
X123628Y-172523D01*
X112080Y-180240D01*
X100052Y-187184D01*
X87595Y-193327D01*
X74763Y-198642D01*
X61612Y-203106D01*
X48196Y-206701D01*
X34574Y-209411D01*
X20804Y-211224D01*
X6945Y-212132D01*
X-6945D01*
X-20804Y-211224D01*
X-34574Y-209411D01*
X-48196Y-206701D01*
X-61612Y-203106D01*
X-74764Y-198642D01*
X-87595Y-193327D01*
X-100052Y-187184D01*
X-112080Y-180240D01*
X-123628Y-172523D01*
X-134647Y-164068D01*
X-145090Y-154910D01*
X-154910Y-145090D01*
X-164068Y-134647D01*
X-172523Y-123628D01*
X-180240Y-112080D01*
X-187184Y-100052D01*
X-193327Y-87595D01*
X-198642Y-74764D01*
X-203106Y-61612D01*
X-206701Y-48196D01*
X-209411Y-34574D01*
X-211224Y-20804D01*
X-212132Y-6945D01*
Y0D01*
Y6945D01*
X-211224Y20804D01*
X-209411Y34574D01*
X-206701Y48196D01*
X-203106Y61612D01*
X-198642Y74763D01*
X-193327Y87595D01*
X-187184Y100052D01*
X-180240Y112080D01*
X-172523Y123628D01*
X-164068Y134647D01*
X-154910Y145090D01*
X-145090Y154910D01*
X-134647Y164068D01*
X-123628Y172523D01*
X-112080Y180240D01*
X-100052Y187184D01*
X-87595Y193327D01*
X-74764Y198642D01*
X-61612Y203106D01*
X-48196Y206701D01*
X-34574Y209411D01*
X-20804Y211224D01*
X-6945Y212132D01*
X6945D01*
X20804Y211224D01*
D02*
G37*
%LPC*%
G36*
X51540Y200540D02*
X36770D01*
Y194270D01*
X51540D01*
Y200540D01*
D02*
G37*
G36*
X34230D02*
X19460D01*
Y194270D01*
X34230D01*
Y200540D01*
D02*
G37*
G36*
X51540Y191730D02*
X36770D01*
Y185460D01*
X51540D01*
Y191730D01*
D02*
G37*
G36*
X34230D02*
X19460D01*
Y185460D01*
X34230D01*
Y191730D01*
D02*
G37*
G36*
X-98000Y181333D02*
X-99658Y181003D01*
X-101064Y180064D01*
X-101893Y178823D01*
X-103193Y178327D01*
X-104606Y179740D01*
X-105268Y180182D01*
X-106048Y180337D01*
X-106828Y180182D01*
X-107490Y179740D01*
X-107490Y179740D01*
X-127480Y159750D01*
X-127501Y159719D01*
X-127820Y159506D01*
X-127820Y159506D01*
X-128701Y158624D01*
X-129172Y158820D01*
X-131000Y159060D01*
X-132827Y158820D01*
X-134530Y158114D01*
X-135992Y156992D01*
X-137114Y155530D01*
X-137819Y153827D01*
X-138060Y152000D01*
X-137819Y150172D01*
X-137114Y148469D01*
X-135992Y147007D01*
X-134530Y145885D01*
X-132827Y145180D01*
X-131000Y144939D01*
X-129172Y145180D01*
X-127470Y145885D01*
X-126007Y147007D01*
X-124885Y148469D01*
X-124180Y150172D01*
X-123994Y151584D01*
X-122765Y152151D01*
X-90480Y119866D01*
X-89819Y119424D01*
X-89038Y119269D01*
X-88258Y119424D01*
X-87596Y119866D01*
X-87596Y119866D01*
X-67606Y139856D01*
X-67164Y140518D01*
X-67009Y141298D01*
X-67164Y142079D01*
X-67606Y142740D01*
X-69365Y144498D01*
X-68946Y145876D01*
X-68342Y145997D01*
X-66936Y146936D01*
X-65997Y148342D01*
X-65667Y150000D01*
X-65997Y151658D01*
X-66936Y153064D01*
X-68342Y154003D01*
X-70000Y154333D01*
X-71658Y154003D01*
X-73064Y153064D01*
X-74003Y151658D01*
X-74124Y151053D01*
X-75502Y150635D01*
X-83364Y158498D01*
X-82946Y159876D01*
X-82342Y159997D01*
X-80936Y160936D01*
X-79997Y162342D01*
X-79667Y164000D01*
X-79997Y165658D01*
X-80936Y167064D01*
X-82342Y168003D01*
X-84000Y168333D01*
X-85658Y168003D01*
X-87064Y167064D01*
X-88003Y165658D01*
X-88124Y165054D01*
X-89502Y164636D01*
X-96673Y171807D01*
X-96177Y173107D01*
X-94936Y173936D01*
X-93997Y175342D01*
X-93667Y177000D01*
X-93997Y178658D01*
X-94936Y180064D01*
X-96342Y181003D01*
X-98000Y181333D01*
D02*
G37*
G36*
X-8000Y188500D02*
X-39000D01*
Y151675D01*
X-39000Y151500D01*
X-39422Y150405D01*
X-41859D01*
X-42639Y150250D01*
X-43301Y149808D01*
X-43743Y149146D01*
X-43898Y148366D01*
Y134174D01*
X-43743Y133394D01*
X-43301Y132732D01*
X-42639Y132290D01*
X-41859Y132135D01*
X-12681D01*
X-11901Y132290D01*
X-11239Y132732D01*
X-10797Y133394D01*
X-10642Y134174D01*
Y135657D01*
X-9468Y136143D01*
X-4059Y130733D01*
Y125968D01*
X-5329Y125537D01*
X-6690Y127311D01*
X-8831Y128954D01*
X-11324Y129986D01*
X-14000Y130339D01*
X-16676Y129986D01*
X-19169Y128954D01*
X-21310Y127311D01*
X-22953Y125169D01*
X-23986Y122676D01*
X-24339Y120000D01*
X-24129Y118411D01*
X-24141Y118283D01*
X-24101Y117922D01*
X-24109Y117684D01*
X-24157Y117407D01*
X-24254Y117082D01*
X-24412Y116709D01*
X-24639Y116289D01*
X-24940Y115826D01*
X-25294Y115357D01*
X-27577Y113075D01*
X-28750Y113561D01*
Y130250D01*
X-49250D01*
Y122144D01*
X-49254Y122128D01*
X-49250Y122095D01*
Y118208D01*
X-49490Y117789D01*
X-50304Y116625D01*
X-52437Y114114D01*
X-63976Y102576D01*
X-65146Y103202D01*
X-65067Y103600D01*
X-65397Y105258D01*
X-66336Y106664D01*
X-67742Y107603D01*
X-69400Y107933D01*
X-71058Y107603D01*
X-72464Y106664D01*
X-73575Y107101D01*
X-73637Y107163D01*
X-74629Y107826D01*
X-75800Y108059D01*
X-75800Y108059D01*
X-143000D01*
X-144170Y107826D01*
X-145163Y107163D01*
X-145163Y107163D01*
X-145986Y106339D01*
X-145996Y106332D01*
X-146000Y106333D01*
X-147658Y106003D01*
X-149064Y105064D01*
X-149586Y104283D01*
X-151126Y104027D01*
X-156941Y109843D01*
Y111792D01*
X-156940Y111804D01*
X-156936Y111806D01*
X-155997Y113212D01*
X-155667Y114870D01*
X-155997Y116528D01*
X-156936Y117934D01*
X-158342Y118874D01*
X-160000Y119203D01*
X-161658Y118874D01*
X-163064Y117934D01*
X-164003Y116528D01*
X-164333Y114870D01*
X-164003Y113212D01*
X-163064Y111806D01*
X-163060Y111804D01*
X-163059Y111792D01*
Y108576D01*
X-163059Y108575D01*
X-162826Y107405D01*
X-162163Y106413D01*
X-135337Y79587D01*
X-135337Y79587D01*
X-134345Y78924D01*
X-133174Y78691D01*
X-127450D01*
X-127450Y78691D01*
X-126279Y78924D01*
X-125287Y79587D01*
X-115203Y89671D01*
X-99256D01*
X-98825Y88401D01*
X-99575Y87825D01*
X-100914Y86081D01*
X-101755Y84050D01*
X-102042Y81870D01*
X-101755Y79690D01*
X-100914Y77659D01*
X-99575Y75915D01*
X-97831Y74576D01*
X-95800Y73735D01*
X-94608Y73578D01*
X-93991Y72216D01*
X-94622Y71271D01*
X-95087Y68930D01*
Y68293D01*
X-95118Y68142D01*
Y42992D01*
X-96388Y42739D01*
X-96414Y42803D01*
X-97622Y44378D01*
X-99198Y45586D01*
X-101032Y46346D01*
X-101730Y46438D01*
Y39000D01*
Y31562D01*
X-101032Y31654D01*
X-99198Y32414D01*
X-97622Y33622D01*
X-96414Y35198D01*
X-96388Y35261D01*
X-95118Y35008D01*
Y23992D01*
X-96388Y23739D01*
X-96414Y23802D01*
X-97622Y25378D01*
X-99198Y26586D01*
X-101032Y27346D01*
X-101730Y27438D01*
Y20000D01*
Y12562D01*
X-101032Y12654D01*
X-99198Y13414D01*
X-97622Y14622D01*
X-96414Y16198D01*
X-96388Y16261D01*
X-95118Y16008D01*
Y4992D01*
X-96388Y4739D01*
X-96414Y4803D01*
X-97622Y6378D01*
X-99198Y7586D01*
X-101032Y8346D01*
X-101730Y8438D01*
Y1000D01*
Y-6438D01*
X-101032Y-6346D01*
X-99198Y-5586D01*
X-97622Y-4378D01*
X-96414Y-2803D01*
X-96388Y-2739D01*
X-95118Y-2992D01*
Y-8484D01*
X-106016Y-19382D01*
X-128500D01*
X-130841Y-19848D01*
X-132826Y-21174D01*
X-140835Y-29183D01*
X-142530Y-29885D01*
X-143992Y-31008D01*
X-145114Y-32470D01*
X-145820Y-34173D01*
X-146060Y-36000D01*
X-145820Y-37827D01*
X-145727Y-38051D01*
X-146804Y-38770D01*
X-160241Y-25333D01*
Y-21178D01*
X-160240Y-21167D01*
X-160236Y-21164D01*
X-159297Y-19758D01*
X-158967Y-18100D01*
X-159297Y-16442D01*
X-160236Y-15036D01*
X-161642Y-14097D01*
X-163300Y-13767D01*
X-164958Y-14097D01*
X-166364Y-15036D01*
X-167303Y-16442D01*
X-167633Y-18100D01*
X-167303Y-19758D01*
X-166364Y-21164D01*
X-166360Y-21167D01*
X-166359Y-21178D01*
Y-23213D01*
X-167532Y-23699D01*
X-169516Y-21715D01*
X-169197Y-21237D01*
X-168867Y-19578D01*
X-169197Y-17920D01*
X-170136Y-16514D01*
X-171542Y-15575D01*
X-173200Y-15245D01*
X-174858Y-15575D01*
X-176264Y-16514D01*
X-176556Y-16951D01*
X-177826D01*
X-177836Y-16936D01*
X-179241Y-15997D01*
X-180900Y-15667D01*
X-182558Y-15997D01*
X-183964Y-16936D01*
X-185304Y-16656D01*
X-185841Y-16297D01*
X-187500Y-15967D01*
X-189158Y-16297D01*
X-189672Y-16640D01*
X-190936Y-17036D01*
X-192341Y-16097D01*
X-194000Y-15767D01*
X-195658Y-16097D01*
X-197064Y-17036D01*
X-198235Y-16503D01*
X-199142Y-15897D01*
X-200800Y-15567D01*
X-202458Y-15897D01*
X-203864Y-16836D01*
X-204803Y-18242D01*
X-205133Y-19900D01*
X-204803Y-21558D01*
X-203864Y-22964D01*
X-203218Y-23396D01*
X-203148Y-23749D01*
X-202485Y-24741D01*
X-177213Y-50013D01*
X-176221Y-50676D01*
X-175050Y-50909D01*
X-174117D01*
X-85912Y-139114D01*
X-86564Y-140204D01*
X-87281Y-139986D01*
X-90430Y-139676D01*
Y-160930D01*
X-69176D01*
X-69486Y-157781D01*
X-69704Y-157064D01*
X-68614Y-156412D01*
X-58307Y-166719D01*
X-57315Y-167382D01*
X-56144Y-167615D01*
X-56144Y-167615D01*
X55385D01*
X55385Y-167615D01*
X56556Y-167382D01*
X57548Y-166719D01*
X157541Y-66725D01*
X158559Y-66603D01*
X159329Y-67308D01*
X160964Y-68159D01*
X162763Y-68558D01*
X164605Y-68478D01*
X165686Y-68137D01*
X166665Y-69159D01*
X166341Y-70052D01*
X179496Y-74840D01*
X184285Y-61684D01*
X183392Y-61360D01*
X183238Y-59952D01*
X184195Y-59343D01*
X185440Y-57984D01*
X186291Y-56349D01*
X186690Y-54549D01*
X186609Y-52708D01*
X186055Y-50950D01*
X185864Y-50650D01*
X186411Y-49146D01*
X187214Y-48892D01*
X188888Y-47826D01*
X190230Y-46362D01*
X190555Y-45737D01*
X183566Y-43193D01*
X184000Y-42000D01*
X182807Y-41566D01*
X185350Y-34576D01*
X184663Y-34424D01*
X182679Y-34511D01*
X180786Y-35108D01*
X180319Y-35405D01*
X179125Y-34971D01*
X178958Y-34442D01*
X177892Y-32768D01*
X176428Y-31427D01*
X175803Y-31101D01*
X173259Y-38091D01*
X172066Y-37656D01*
X171632Y-38850D01*
X164642Y-36306D01*
X164490Y-36994D01*
X164576Y-38977D01*
X165173Y-40870D01*
X165626Y-41580D01*
X165078Y-43085D01*
X164738Y-43192D01*
X163184Y-44182D01*
X161939Y-45541D01*
X161088Y-47176D01*
X160689Y-48975D01*
X160769Y-50816D01*
X161323Y-52574D01*
X161827Y-53365D01*
X161289Y-54844D01*
X160395Y-55126D01*
X159707Y-55564D01*
X158437Y-54867D01*
Y89621D01*
X158437Y89621D01*
X158204Y90792D01*
X157541Y91784D01*
X134339Y114986D01*
X134332Y114996D01*
X134333Y115000D01*
X134003Y116658D01*
X133064Y118064D01*
X131658Y119003D01*
X130779Y119178D01*
X130715Y120486D01*
X131667Y120775D01*
X135583Y122868D01*
X139015Y125685D01*
X141832Y129117D01*
X143925Y133033D01*
X145214Y137281D01*
X145524Y140430D01*
X124270D01*
Y119176D01*
X126668Y119412D01*
X127109Y118180D01*
X126936Y118064D01*
X125997Y116658D01*
X125667Y115000D01*
X125997Y113342D01*
X126936Y111936D01*
X128340Y110997D01*
X128342Y110991D01*
X128339Y109702D01*
X127842Y109603D01*
X126436Y108664D01*
X125497Y107258D01*
X125226Y105896D01*
X124380Y105470D01*
X123930Y105396D01*
X118195Y111131D01*
X118603Y111742D01*
X118933Y113400D01*
X118603Y115058D01*
X117664Y116464D01*
X116258Y117403D01*
X114600Y117733D01*
X112942Y117403D01*
X111536Y116464D01*
X110597Y115058D01*
X110392Y114030D01*
X109032Y113594D01*
X107339Y115287D01*
X107332Y115296D01*
X107333Y115300D01*
X107003Y116958D01*
X106064Y118364D01*
X104658Y119303D01*
X103000Y119633D01*
X101439Y119323D01*
X101144Y119346D01*
X100169Y119867D01*
Y128510D01*
X100014Y129290D01*
X99572Y129952D01*
X98910Y130394D01*
X98130Y130549D01*
X69390D01*
X68610Y130394D01*
X68508Y130326D01*
X67781D01*
Y129702D01*
X67506Y129290D01*
X67351Y128510D01*
Y126400D01*
X66081Y125721D01*
X65658Y126003D01*
X64000Y126333D01*
X62342Y126003D01*
X60936Y125064D01*
X60933Y125060D01*
X60922Y125059D01*
X55000D01*
X55000Y125059D01*
X53829Y124826D01*
X52837Y124163D01*
X52837Y124163D01*
X47459Y118785D01*
X46256Y119378D01*
X46338Y120000D01*
X45986Y122676D01*
X44953Y125169D01*
X43310Y127311D01*
X41169Y128954D01*
X38676Y129986D01*
X36000Y130339D01*
X33324Y129986D01*
X30831Y128954D01*
X28690Y127311D01*
X27047Y125169D01*
X26014Y122676D01*
X25661Y120000D01*
X26014Y117325D01*
X27047Y114831D01*
X28690Y112690D01*
X30464Y111329D01*
X30032Y110059D01*
X16968D01*
X16536Y111329D01*
X18310Y112690D01*
X19953Y114831D01*
X20986Y117325D01*
X21338Y120000D01*
X20986Y122676D01*
X19953Y125169D01*
X18310Y127311D01*
X16169Y128954D01*
X13676Y129986D01*
X11000Y130339D01*
X8324Y129986D01*
X5831Y128954D01*
X3690Y127311D01*
X3261Y126753D01*
X2059Y127161D01*
Y132000D01*
X2059Y132000D01*
X1826Y133170D01*
X1163Y134163D01*
X1163Y134163D01*
X-7346Y142671D01*
X-6820Y143941D01*
X20000D01*
Y140000D01*
X51000D01*
Y154000D01*
X20000D01*
Y150059D01*
X-10645D01*
X-10794Y150230D01*
X-10216Y151500D01*
X-8000D01*
Y166942D01*
X20000D01*
Y163000D01*
X51000D01*
Y168941D01*
X54862D01*
X55027Y168728D01*
X55192Y167312D01*
X54750Y166650D01*
X54595Y165870D01*
Y141726D01*
X54750Y140945D01*
X55192Y140284D01*
X55854Y139842D01*
X56634Y139687D01*
X57174D01*
Y139681D01*
X70826D01*
Y139687D01*
X71606Y139842D01*
X72268Y140284D01*
X72710Y140945D01*
X72865Y141726D01*
Y141921D01*
X74500D01*
Y137100D01*
X93500D01*
Y156100D01*
X74500D01*
Y150077D01*
X72865D01*
Y165870D01*
X72710Y166650D01*
X72305Y167256D01*
X72385Y167859D01*
X72840Y168222D01*
X73499Y168409D01*
X73812Y168222D01*
X74385Y167826D01*
X74997Y167350D01*
X76432Y166071D01*
X77029Y165479D01*
X77225Y165225D01*
X79209Y163702D01*
X81520Y162745D01*
X84000Y162418D01*
X86480Y162745D01*
X88791Y163702D01*
X90775Y165225D01*
X92298Y167209D01*
X93256Y169520D01*
X93582Y172000D01*
X93256Y174480D01*
X92298Y176791D01*
X90775Y178776D01*
X88791Y180298D01*
X86480Y181255D01*
X84000Y181582D01*
X81520Y181255D01*
X79209Y180298D01*
X77225Y178776D01*
X77029Y178521D01*
X76432Y177929D01*
X74997Y176650D01*
X74385Y176174D01*
X73812Y175778D01*
X73302Y175473D01*
X72863Y175257D01*
X72507Y175124D01*
X72242Y175061D01*
X72211Y175059D01*
X51000D01*
Y177000D01*
X20000D01*
Y173059D01*
X-8000D01*
Y188500D01*
D02*
G37*
G36*
X124270Y164224D02*
Y142970D01*
X145524D01*
X145214Y146119D01*
X143925Y150367D01*
X141832Y154283D01*
X139015Y157715D01*
X135583Y160532D01*
X131667Y162625D01*
X127419Y163914D01*
X124270Y164224D01*
D02*
G37*
G36*
X121730D02*
X118581Y163914D01*
X114333Y162625D01*
X110417Y160532D01*
X106985Y157715D01*
X104168Y154283D01*
X102075Y150367D01*
X100786Y146119D01*
X100476Y142970D01*
X121730D01*
Y164224D01*
D02*
G37*
G36*
Y140430D02*
X100476D01*
X100786Y137281D01*
X102075Y133033D01*
X104168Y129117D01*
X106985Y125685D01*
X110417Y122868D01*
X114333Y120775D01*
X118581Y119486D01*
X121730Y119176D01*
Y140430D01*
D02*
G37*
G36*
X154266Y121390D02*
X152120Y120914D01*
X150169Y119899D01*
X148548Y118414D01*
X147367Y116559D01*
X146706Y114462D01*
X146610Y112266D01*
X147086Y110119D01*
X148101Y108169D01*
X149586Y106548D01*
X151441Y105367D01*
X153538Y104706D01*
X155734Y104610D01*
X157880Y105086D01*
X158184Y105244D01*
X159335Y104707D01*
X159593Y103545D01*
X160082Y102605D01*
X167290Y107652D01*
X174498Y112699D01*
X173782Y113481D01*
X171808Y114738D01*
X169576Y115442D01*
X167237Y115544D01*
X164952Y115038D01*
X164218Y114656D01*
X163067Y115192D01*
X162914Y115880D01*
X161899Y117831D01*
X160414Y119452D01*
X158559Y120633D01*
X156462Y121294D01*
X154266Y121390D01*
D02*
G37*
G36*
X175955Y110619D02*
X168747Y105571D01*
X161539Y100524D01*
X162255Y99743D01*
X163259Y99103D01*
X163369Y97838D01*
X163117Y97607D01*
X161936Y95753D01*
X161275Y93656D01*
X161179Y91460D01*
X161655Y89313D01*
X162670Y87363D01*
X164155Y85742D01*
X166010Y84561D01*
X168106Y83899D01*
X170303Y83804D01*
X172449Y84279D01*
X174400Y85295D01*
X176021Y86780D01*
X177202Y88634D01*
X177863Y90731D01*
X177959Y92928D01*
X177483Y95074D01*
X176468Y97024D01*
X174982Y98645D01*
X174388Y99024D01*
X174277Y100289D01*
X174887Y100848D01*
X176145Y102822D01*
X176849Y105055D01*
X176951Y107393D01*
X176444Y109679D01*
X175955Y110619D01*
D02*
G37*
G36*
X183270Y87438D02*
Y81270D01*
X189438D01*
X189346Y81968D01*
X188586Y83802D01*
X187378Y85378D01*
X185802Y86586D01*
X183968Y87346D01*
X183270Y87438D01*
D02*
G37*
G36*
X180730D02*
X180032Y87346D01*
X178197Y86586D01*
X176622Y85378D01*
X175414Y83802D01*
X174654Y81968D01*
X174562Y81270D01*
X180730D01*
Y87438D01*
D02*
G37*
G36*
X189438Y78730D02*
X183270D01*
Y72562D01*
X183968Y72654D01*
X185802Y73414D01*
X187378Y74622D01*
X188586Y76198D01*
X189346Y78032D01*
X189438Y78730D01*
D02*
G37*
G36*
X180730D02*
X174562D01*
X174654Y78032D01*
X175414Y76198D01*
X176622Y74622D01*
X178197Y73414D01*
X180032Y72654D01*
X180730Y72562D01*
Y78730D01*
D02*
G37*
G36*
X-162730Y70438D02*
Y64270D01*
X-156562D01*
X-156654Y64968D01*
X-157414Y66803D01*
X-158622Y68378D01*
X-160198Y69586D01*
X-162032Y70346D01*
X-162730Y70438D01*
D02*
G37*
G36*
X-165270D02*
X-165968Y70346D01*
X-167803Y69586D01*
X-169378Y68378D01*
X-170586Y66803D01*
X-171346Y64968D01*
X-171438Y64270D01*
X-165270D01*
Y70438D01*
D02*
G37*
G36*
X-156562Y61730D02*
X-162730D01*
Y55562D01*
X-162032Y55654D01*
X-160198Y56414D01*
X-158622Y57622D01*
X-157414Y59198D01*
X-156654Y61032D01*
X-156562Y61730D01*
D02*
G37*
G36*
X-165270D02*
X-171438D01*
X-171346Y61032D01*
X-170586Y59198D01*
X-169378Y57622D01*
X-167803Y56414D01*
X-165968Y55654D01*
X-165270Y55562D01*
Y61730D01*
D02*
G37*
G36*
X191000Y70878D02*
X188754Y70583D01*
X186661Y69716D01*
X184863Y68337D01*
X183484Y66539D01*
X182617Y64446D01*
X182322Y62200D01*
X182617Y59954D01*
X183484Y57861D01*
X184863Y56064D01*
X186661Y54685D01*
X188754Y53818D01*
X191000Y53522D01*
X193246Y53818D01*
X195339Y54685D01*
X197136Y56064D01*
X198515Y57861D01*
X199382Y59954D01*
X199678Y62200D01*
X199382Y64446D01*
X198515Y66539D01*
X197136Y68337D01*
X195339Y69716D01*
X193246Y70583D01*
X191000Y70878D01*
D02*
G37*
G36*
X-104270Y46438D02*
X-104968Y46346D01*
X-106803Y45586D01*
X-108378Y44378D01*
X-109586Y42803D01*
X-110346Y40968D01*
X-110438Y40270D01*
X-104270D01*
Y46438D01*
D02*
G37*
G36*
X-139730D02*
Y40270D01*
X-133562D01*
X-133654Y40968D01*
X-134414Y42803D01*
X-135622Y44378D01*
X-137198Y45586D01*
X-139032Y46346D01*
X-139730Y46438D01*
D02*
G37*
G36*
X-142270D02*
X-142968Y46346D01*
X-144803Y45586D01*
X-146378Y44378D01*
X-147586Y42803D01*
X-148346Y40968D01*
X-148438Y40270D01*
X-142270D01*
Y46438D01*
D02*
G37*
G36*
X-120430Y45938D02*
Y39770D01*
X-114262D01*
X-114354Y40468D01*
X-115114Y42302D01*
X-116322Y43878D01*
X-117898Y45086D01*
X-119732Y45846D01*
X-120430Y45938D01*
D02*
G37*
G36*
X-122970D02*
X-123668Y45846D01*
X-125503Y45086D01*
X-127078Y43878D01*
X-128286Y42302D01*
X-129046Y40468D01*
X-129138Y39770D01*
X-122970D01*
Y45938D01*
D02*
G37*
G36*
X-104270Y37730D02*
X-110438D01*
X-110346Y37032D01*
X-109586Y35198D01*
X-108378Y33622D01*
X-106803Y32414D01*
X-104968Y31654D01*
X-104270Y31562D01*
Y37730D01*
D02*
G37*
G36*
X-133562D02*
X-139730D01*
Y31562D01*
X-139032Y31654D01*
X-137198Y32414D01*
X-135622Y33622D01*
X-134414Y35198D01*
X-133654Y37032D01*
X-133562Y37730D01*
D02*
G37*
G36*
X-142270D02*
X-148438D01*
X-148346Y37032D01*
X-147586Y35198D01*
X-146378Y33622D01*
X-144803Y32414D01*
X-142968Y31654D01*
X-142270Y31562D01*
Y37730D01*
D02*
G37*
G36*
X-114262Y37230D02*
X-120430D01*
Y31062D01*
X-119732Y31154D01*
X-117898Y31914D01*
X-116322Y33122D01*
X-115114Y34697D01*
X-114354Y36532D01*
X-114262Y37230D01*
D02*
G37*
G36*
X-122970D02*
X-129138D01*
X-129046Y36532D01*
X-128286Y34697D01*
X-127078Y33122D01*
X-125503Y31914D01*
X-123668Y31154D01*
X-122970Y31062D01*
Y37230D01*
D02*
G37*
G36*
X191000Y45478D02*
X188754Y45183D01*
X186661Y44316D01*
X184863Y42937D01*
X183484Y41139D01*
X182617Y39046D01*
X182322Y36800D01*
X182617Y34554D01*
X183484Y32461D01*
X184863Y30664D01*
X186661Y29285D01*
X188754Y28418D01*
X191000Y28122D01*
X193246Y28418D01*
X195339Y29285D01*
X197136Y30664D01*
X198515Y32461D01*
X199382Y34554D01*
X199678Y36800D01*
X199382Y39046D01*
X198515Y41139D01*
X197136Y42937D01*
X195339Y44316D01*
X193246Y45183D01*
X191000Y45478D01*
D02*
G37*
G36*
X-196000Y42422D02*
X-198180Y42135D01*
X-200211Y41294D01*
X-201955Y39955D01*
X-203294Y38211D01*
X-204135Y36180D01*
X-204422Y34000D01*
X-204135Y31820D01*
X-203294Y29789D01*
X-201955Y28045D01*
X-200211Y26706D01*
X-198180Y25865D01*
X-196000Y25578D01*
X-193820Y25865D01*
X-191789Y26706D01*
X-190045Y28045D01*
X-188706Y29789D01*
X-187865Y31820D01*
X-187578Y34000D01*
X-187865Y36180D01*
X-188706Y38211D01*
X-190045Y39955D01*
X-191789Y41294D01*
X-193820Y42135D01*
X-196000Y42422D01*
D02*
G37*
G36*
X-104270Y27438D02*
X-104968Y27346D01*
X-106803Y26586D01*
X-108378Y25378D01*
X-109586Y23802D01*
X-110346Y21968D01*
X-110438Y21270D01*
X-104270D01*
Y27438D01*
D02*
G37*
G36*
X-139730D02*
Y21270D01*
X-133562D01*
X-133654Y21968D01*
X-134414Y23802D01*
X-135622Y25378D01*
X-137198Y26586D01*
X-139032Y27346D01*
X-139730Y27438D01*
D02*
G37*
G36*
X-142270D02*
X-142968Y27346D01*
X-144803Y26586D01*
X-146378Y25378D01*
X-147586Y23802D01*
X-148346Y21968D01*
X-148438Y21270D01*
X-142270D01*
Y27438D01*
D02*
G37*
G36*
X-120830Y27238D02*
Y21070D01*
X-114662D01*
X-114754Y21768D01*
X-115514Y23602D01*
X-116722Y25178D01*
X-118298Y26386D01*
X-120132Y27146D01*
X-120830Y27238D01*
D02*
G37*
G36*
X-123370D02*
X-124068Y27146D01*
X-125903Y26386D01*
X-127478Y25178D01*
X-128686Y23602D01*
X-129446Y21768D01*
X-129538Y21070D01*
X-123370D01*
Y27238D01*
D02*
G37*
G36*
X-104270Y18730D02*
X-110438D01*
X-110346Y18032D01*
X-109586Y16198D01*
X-108378Y14622D01*
X-106803Y13414D01*
X-104968Y12654D01*
X-104270Y12562D01*
Y18730D01*
D02*
G37*
G36*
X-133562D02*
X-139730D01*
Y12562D01*
X-139032Y12654D01*
X-137198Y13414D01*
X-135622Y14622D01*
X-134414Y16198D01*
X-133654Y18032D01*
X-133562Y18730D01*
D02*
G37*
G36*
X-142270D02*
X-148438D01*
X-148346Y18032D01*
X-147586Y16198D01*
X-146378Y14622D01*
X-144803Y13414D01*
X-142968Y12654D01*
X-142270Y12562D01*
Y18730D01*
D02*
G37*
G36*
X-114662Y18530D02*
X-120830D01*
Y12362D01*
X-120132Y12454D01*
X-118298Y13214D01*
X-116722Y14422D01*
X-115514Y15998D01*
X-114754Y17832D01*
X-114662Y18530D01*
D02*
G37*
G36*
X-123370D02*
X-129538D01*
X-129446Y17832D01*
X-128686Y15998D01*
X-127478Y14422D01*
X-125903Y13214D01*
X-124068Y12454D01*
X-123370Y12362D01*
Y18530D01*
D02*
G37*
G36*
X191000Y20078D02*
X188754Y19783D01*
X186661Y18916D01*
X184863Y17536D01*
X183484Y15739D01*
X182617Y13646D01*
X182322Y11400D01*
X182617Y9154D01*
X183484Y7061D01*
X184863Y5264D01*
X186661Y3884D01*
X188754Y3018D01*
X191000Y2722D01*
X193246Y3018D01*
X195339Y3884D01*
X197136Y5264D01*
X198515Y7061D01*
X199382Y9154D01*
X199678Y11400D01*
X199382Y13646D01*
X198515Y15739D01*
X197136Y17536D01*
X195339Y18916D01*
X193246Y19783D01*
X191000Y20078D01*
D02*
G37*
G36*
X-120930Y8638D02*
Y2470D01*
X-114762D01*
X-114854Y3168D01*
X-115614Y5002D01*
X-116822Y6578D01*
X-118398Y7786D01*
X-120232Y8546D01*
X-120930Y8638D01*
D02*
G37*
G36*
X-123470D02*
X-124168Y8546D01*
X-126003Y7786D01*
X-127578Y6578D01*
X-128786Y5002D01*
X-129546Y3168D01*
X-129638Y2470D01*
X-123470D01*
Y8638D01*
D02*
G37*
G36*
X-104270Y8438D02*
X-104968Y8346D01*
X-106803Y7586D01*
X-108378Y6378D01*
X-109586Y4803D01*
X-110346Y2968D01*
X-110438Y2270D01*
X-104270D01*
Y8438D01*
D02*
G37*
G36*
X-139730D02*
Y2270D01*
X-133562D01*
X-133654Y2968D01*
X-134414Y4803D01*
X-135622Y6378D01*
X-137198Y7586D01*
X-139032Y8346D01*
X-139730Y8438D01*
D02*
G37*
G36*
X-142270D02*
X-142968Y8346D01*
X-144803Y7586D01*
X-146378Y6378D01*
X-147586Y4803D01*
X-148346Y2968D01*
X-148438Y2270D01*
X-142270D01*
Y8438D01*
D02*
G37*
G36*
X-114762Y-70D02*
X-120930D01*
Y-6238D01*
X-120232Y-6146D01*
X-118398Y-5386D01*
X-116822Y-4178D01*
X-115614Y-2603D01*
X-114854Y-768D01*
X-114762Y-70D01*
D02*
G37*
G36*
X-123470D02*
X-129638D01*
X-129546Y-768D01*
X-128786Y-2603D01*
X-127578Y-4178D01*
X-126003Y-5386D01*
X-124168Y-6146D01*
X-123470Y-6238D01*
Y-70D01*
D02*
G37*
G36*
X-104270Y-270D02*
X-110438D01*
X-110346Y-968D01*
X-109586Y-2803D01*
X-108378Y-4378D01*
X-106803Y-5586D01*
X-104968Y-6346D01*
X-104270Y-6438D01*
Y-270D01*
D02*
G37*
G36*
X-133562D02*
X-139730D01*
Y-6438D01*
X-139032Y-6346D01*
X-137198Y-5586D01*
X-135622Y-4378D01*
X-134414Y-2803D01*
X-133654Y-968D01*
X-133562Y-270D01*
D02*
G37*
G36*
X-142270D02*
X-148438D01*
X-148346Y-968D01*
X-147586Y-2803D01*
X-146378Y-4378D01*
X-144803Y-5586D01*
X-142968Y-6346D01*
X-142270Y-6438D01*
Y-270D01*
D02*
G37*
G36*
X192270Y-4944D02*
Y-12730D01*
X200056D01*
X199908Y-11613D01*
X198987Y-9388D01*
X197521Y-7478D01*
X195611Y-6013D01*
X193387Y-5091D01*
X192270Y-4944D01*
D02*
G37*
G36*
X189730D02*
X188613Y-5091D01*
X186388Y-6013D01*
X184478Y-7478D01*
X183013Y-9388D01*
X182091Y-11613D01*
X181944Y-12730D01*
X189730D01*
Y-4944D01*
D02*
G37*
G36*
X200056Y-15270D02*
X192270D01*
Y-23056D01*
X193387Y-22908D01*
X195611Y-21987D01*
X197521Y-20522D01*
X198987Y-18611D01*
X199908Y-16387D01*
X200056Y-15270D01*
D02*
G37*
G36*
X189730D02*
X181944D01*
X182091Y-16387D01*
X183013Y-18611D01*
X184478Y-20522D01*
X186388Y-21987D01*
X188613Y-22908D01*
X189730Y-23056D01*
Y-15270D01*
D02*
G37*
G36*
X172729Y-30080D02*
X170745Y-30167D01*
X168852Y-30764D01*
X167177Y-31830D01*
X165836Y-33294D01*
X165511Y-33919D01*
X171307Y-36029D01*
X173416Y-30233D01*
X172729Y-30080D01*
D02*
G37*
G36*
X187737Y-35445D02*
X185628Y-41241D01*
X191424Y-43351D01*
X191576Y-42663D01*
X191490Y-40679D01*
X190893Y-38786D01*
X189826Y-37112D01*
X188362Y-35770D01*
X187737Y-35445D01*
D02*
G37*
G36*
X-191600Y-44640D02*
X-193427Y-44880D01*
X-195130Y-45585D01*
X-196592Y-46708D01*
X-197715Y-48170D01*
X-198420Y-49873D01*
X-198660Y-51700D01*
X-198420Y-53527D01*
X-197715Y-55230D01*
X-196592Y-56692D01*
X-195130Y-57814D01*
X-193427Y-58520D01*
X-191600Y-58760D01*
X-189773Y-58520D01*
X-188070Y-57814D01*
X-186608Y-56692D01*
X-185485Y-55230D01*
X-184780Y-53527D01*
X-184540Y-51700D01*
X-184780Y-49873D01*
X-185485Y-48170D01*
X-186608Y-46708D01*
X-188070Y-45585D01*
X-189773Y-44880D01*
X-191600Y-44640D01*
D02*
G37*
G36*
X-182730Y-69201D02*
Y-76730D01*
X-175201D01*
X-175339Y-75679D01*
X-176235Y-73517D01*
X-177660Y-71660D01*
X-179517Y-70235D01*
X-181679Y-69339D01*
X-182730Y-69201D01*
D02*
G37*
G36*
X-185270D02*
X-186321Y-69339D01*
X-188483Y-70235D01*
X-190340Y-71660D01*
X-191765Y-73517D01*
X-192661Y-75679D01*
X-192799Y-76730D01*
X-185270D01*
Y-69201D01*
D02*
G37*
G36*
X-175201Y-79270D02*
X-182730D01*
Y-86799D01*
X-181679Y-86661D01*
X-179517Y-85765D01*
X-177660Y-84340D01*
X-176235Y-82483D01*
X-175339Y-80321D01*
X-175201Y-79270D01*
D02*
G37*
G36*
X-185270D02*
X-192799D01*
X-192661Y-80321D01*
X-191765Y-82483D01*
X-190340Y-84340D01*
X-188483Y-85765D01*
X-186321Y-86661D01*
X-185270Y-86799D01*
Y-79270D01*
D02*
G37*
G36*
X-162504Y-76199D02*
X-164967Y-76791D01*
X-167192Y-77999D01*
X-169030Y-79743D01*
X-170353Y-81903D01*
X-171073Y-84331D01*
X-171139Y-86863D01*
X-170548Y-89326D01*
X-169339Y-91552D01*
X-167596Y-93390D01*
X-165436Y-94713D01*
X-163007Y-95433D01*
X-160475Y-95499D01*
X-158012Y-94908D01*
X-155786Y-93699D01*
X-153949Y-91955D01*
X-152625Y-89796D01*
X-151906Y-87367D01*
X-151839Y-84835D01*
X-152431Y-82372D01*
X-153639Y-80146D01*
X-155383Y-78309D01*
X-157543Y-76985D01*
X-159971Y-76266D01*
X-162504Y-76199D01*
D02*
G37*
G36*
X162882Y-83537D02*
X160402Y-83863D01*
X158091Y-84820D01*
X156106Y-86343D01*
X154583Y-88328D01*
X153626Y-90639D01*
X153300Y-93118D01*
X153626Y-95598D01*
X154583Y-97909D01*
X156106Y-99894D01*
X158091Y-101417D01*
X160402Y-102374D01*
X162882Y-102700D01*
X165361Y-102374D01*
X167673Y-101417D01*
X169657Y-99894D01*
X171180Y-97909D01*
X172137Y-95598D01*
X172463Y-93118D01*
X172137Y-90639D01*
X171180Y-88328D01*
X169657Y-86343D01*
X167673Y-84820D01*
X165361Y-83863D01*
X162882Y-83537D01*
D02*
G37*
G36*
X144921Y-101497D02*
X142441Y-101824D01*
X140130Y-102781D01*
X138146Y-104304D01*
X136623Y-106288D01*
X135666Y-108599D01*
X135339Y-111079D01*
X135666Y-113559D01*
X136623Y-115870D01*
X138146Y-117854D01*
X140130Y-119377D01*
X142441Y-120334D01*
X144921Y-120661D01*
X147401Y-120334D01*
X149712Y-119377D01*
X151697Y-117854D01*
X153219Y-115870D01*
X154177Y-113559D01*
X154503Y-111079D01*
X154177Y-108599D01*
X153219Y-106288D01*
X151697Y-104304D01*
X149712Y-102781D01*
X147401Y-101824D01*
X144921Y-101497D01*
D02*
G37*
G36*
X-133114Y-116650D02*
X-135577Y-117241D01*
X-137803Y-118450D01*
X-139641Y-120194D01*
X-140964Y-122353D01*
X-141684Y-124782D01*
X-141750Y-127314D01*
X-141159Y-129777D01*
X-139950Y-132003D01*
X-138206Y-133841D01*
X-136047Y-135164D01*
X-133618Y-135884D01*
X-131086Y-135950D01*
X-128623Y-135358D01*
X-126397Y-134150D01*
X-124559Y-132406D01*
X-123236Y-130247D01*
X-122516Y-127818D01*
X-122450Y-125286D01*
X-123041Y-122823D01*
X-124250Y-120597D01*
X-125994Y-118759D01*
X-128153Y-117436D01*
X-130582Y-116716D01*
X-133114Y-116650D01*
D02*
G37*
G36*
X126960Y-119458D02*
X124480Y-119784D01*
X122170Y-120741D01*
X120185Y-122264D01*
X118662Y-124249D01*
X117705Y-126559D01*
X117379Y-129039D01*
X117705Y-131519D01*
X118662Y-133830D01*
X120185Y-135815D01*
X122170Y-137338D01*
X124480Y-138295D01*
X126960Y-138621D01*
X129440Y-138295D01*
X131751Y-137338D01*
X133736Y-135815D01*
X135259Y-133830D01*
X136216Y-131519D01*
X136542Y-129039D01*
X136216Y-126559D01*
X135259Y-124249D01*
X133736Y-122264D01*
X131751Y-120741D01*
X129440Y-119784D01*
X126960Y-119458D01*
D02*
G37*
G36*
X109000Y-132801D02*
X102799Y-139003D01*
X109000Y-145204D01*
X115201Y-139003D01*
X109000Y-132801D01*
D02*
G37*
G36*
X116997Y-140799D02*
X110796Y-147000D01*
X116997Y-153201D01*
X123199Y-147000D01*
X116997Y-140799D01*
D02*
G37*
G36*
X101003Y-140799D02*
X94801Y-147000D01*
X101003Y-153201D01*
X107204Y-147000D01*
X101003Y-140799D01*
D02*
G37*
G36*
X-92970Y-139676D02*
X-96119Y-139986D01*
X-100367Y-141275D01*
X-104283Y-143368D01*
X-107715Y-146185D01*
X-110532Y-149617D01*
X-112625Y-153533D01*
X-113914Y-157781D01*
X-114224Y-160930D01*
X-92970D01*
Y-139676D01*
D02*
G37*
G36*
X109000Y-148796D02*
X102799Y-154997D01*
X109000Y-161199D01*
X115201Y-154997D01*
X109000Y-148796D01*
D02*
G37*
G36*
X-69176Y-163470D02*
X-90430D01*
Y-184724D01*
X-87281Y-184414D01*
X-83033Y-183125D01*
X-79117Y-181032D01*
X-75685Y-178215D01*
X-72868Y-174783D01*
X-70775Y-170867D01*
X-69486Y-166619D01*
X-69176Y-163470D01*
D02*
G37*
G36*
X-92970D02*
X-114224D01*
X-113914Y-166619D01*
X-112625Y-170867D01*
X-110532Y-174783D01*
X-107715Y-178215D01*
X-104283Y-181032D01*
X-100367Y-183125D01*
X-96119Y-184414D01*
X-92970Y-184724D01*
Y-163470D01*
D02*
G37*
G36*
X-20000Y-190940D02*
X-21827Y-191180D01*
X-23530Y-191886D01*
X-24992Y-193008D01*
X-26114Y-194470D01*
X-26820Y-196173D01*
X-27060Y-198000D01*
X-26820Y-199827D01*
X-26114Y-201530D01*
X-24992Y-202992D01*
X-23530Y-204114D01*
X-21827Y-204820D01*
X-20000Y-205060D01*
X-18173Y-204820D01*
X-16470Y-204114D01*
X-15008Y-202992D01*
X-13886Y-201530D01*
X-13180Y-199827D01*
X-12940Y-198000D01*
X-13180Y-196173D01*
X-13886Y-194470D01*
X-15008Y-193008D01*
X-16470Y-191886D01*
X-18173Y-191180D01*
X-20000Y-190940D01*
D02*
G37*
%LPD*%
G36*
X-84022Y161750D02*
X-84184Y161743D01*
X-84346Y161719D01*
X-84509Y161678D01*
X-84673Y161620D01*
X-84838Y161545D01*
X-85003Y161453D01*
X-85169Y161343D01*
X-85336Y161217D01*
X-85504Y161073D01*
X-85673Y160913D01*
X-87087Y162327D01*
X-86926Y162496D01*
X-86783Y162664D01*
X-86657Y162831D01*
X-86547Y162997D01*
X-86455Y163162D01*
X-86380Y163327D01*
X-86322Y163491D01*
X-86281Y163654D01*
X-86257Y163816D01*
X-86250Y163977D01*
X-84022Y161750D01*
D02*
G37*
G36*
X-70022Y147750D02*
X-70184Y147743D01*
X-70346Y147719D01*
X-70509Y147678D01*
X-70673Y147620D01*
X-70838Y147545D01*
X-71003Y147453D01*
X-71169Y147343D01*
X-71336Y147217D01*
X-71504Y147074D01*
X-71673Y146913D01*
X-73087Y148327D01*
X-72926Y148496D01*
X-72783Y148664D01*
X-72657Y148831D01*
X-72547Y148997D01*
X-72455Y149162D01*
X-72380Y149327D01*
X-72322Y149491D01*
X-72281Y149654D01*
X-72257Y149816D01*
X-72250Y149978D01*
X-70022Y147750D01*
D02*
G37*
G36*
X48959Y173810D02*
X49020Y173640D01*
X49121Y173490D01*
X49264Y173360D01*
X49446Y173250D01*
X49670Y173160D01*
X49934Y173090D01*
X50238Y173040D01*
X50584Y173010D01*
X50969Y173000D01*
Y171000D01*
X50584Y170990D01*
X50238Y170960D01*
X49934Y170910D01*
X49670Y170840D01*
X49446Y170750D01*
X49264Y170640D01*
X49121Y170510D01*
X49020Y170360D01*
X48959Y170190D01*
X48939Y170000D01*
Y174000D01*
X48959Y173810D01*
D02*
G37*
G36*
X22030Y168000D02*
X22010Y168190D01*
X21950Y168360D01*
X21850Y168510D01*
X21710Y168640D01*
X21530Y168750D01*
X21310Y168840D01*
X21050Y168910D01*
X20750Y168960D01*
X20410Y168990D01*
X20030Y169000D01*
Y171000D01*
X20410Y171010D01*
X20750Y171040D01*
X21050Y171090D01*
X21310Y171160D01*
X21530Y171250D01*
X21710Y171360D01*
X21850Y171490D01*
X21950Y171640D01*
X22010Y171810D01*
X22030Y172000D01*
Y168000D01*
D02*
G37*
G36*
X-10041Y171810D02*
X-9980Y171640D01*
X-9878Y171490D01*
X-9736Y171360D01*
X-9553Y171250D01*
X-9330Y171160D01*
X-9066Y171090D01*
X-8761Y171040D01*
X-8416Y171010D01*
X-8030Y171000D01*
Y169000D01*
X-8416Y168990D01*
X-8761Y168960D01*
X-9066Y168910D01*
X-9330Y168840D01*
X-9553Y168750D01*
X-9736Y168640D01*
X-9878Y168510D01*
X-9980Y168360D01*
X-10041Y168190D01*
X-10061Y168000D01*
Y172000D01*
X-10041Y171810D01*
D02*
G37*
G36*
X78644Y166750D02*
X77828Y167558D01*
X76302Y168918D01*
X75592Y169470D01*
X74917Y169937D01*
X74277Y170320D01*
X73672Y170618D01*
X73102Y170830D01*
X72567Y170958D01*
X72067Y171000D01*
Y173000D01*
X72567Y173043D01*
X73102Y173170D01*
X73672Y173382D01*
X74277Y173680D01*
X74917Y174062D01*
X75592Y174530D01*
X76302Y175082D01*
X77828Y176443D01*
X78644Y177250D01*
Y166750D01*
D02*
G37*
G36*
X22030Y145000D02*
X22010Y145190D01*
X21950Y145360D01*
X21850Y145510D01*
X21710Y145640D01*
X21530Y145750D01*
X21310Y145840D01*
X21050Y145910D01*
X20750Y145960D01*
X20410Y145990D01*
X20030Y146000D01*
Y148000D01*
X20410Y148010D01*
X20750Y148040D01*
X21050Y148090D01*
X21310Y148160D01*
X21530Y148250D01*
X21710Y148360D01*
X21850Y148490D01*
X21950Y148640D01*
X22010Y148810D01*
X22030Y149000D01*
Y145000D01*
D02*
G37*
G36*
X62393Y120425D02*
X62274Y120534D01*
X62143Y120632D01*
X61998Y120718D01*
X61841Y120793D01*
X61672Y120856D01*
X61490Y120908D01*
X61295Y120948D01*
X61087Y120977D01*
X60867Y120994D01*
X60634Y121000D01*
Y123000D01*
X60867Y123006D01*
X61087Y123023D01*
X61295Y123052D01*
X61490Y123092D01*
X61672Y123144D01*
X61841Y123207D01*
X61998Y123282D01*
X62143Y123368D01*
X62274Y123466D01*
X62393Y123575D01*
Y120425D01*
D02*
G37*
G36*
X56726Y115466D02*
X56858Y115368D01*
X57002Y115282D01*
X57159Y115207D01*
X57328Y115144D01*
X57510Y115092D01*
X57705Y115052D01*
X57913Y115023D01*
X58133Y115006D01*
X58366Y115000D01*
Y113000D01*
X58133Y112994D01*
X57913Y112977D01*
X57705Y112948D01*
X57510Y112908D01*
X57328Y112856D01*
X57159Y112793D01*
X57002Y112718D01*
X56858Y112632D01*
X56726Y112534D01*
X56607Y112425D01*
Y115575D01*
X56726Y115466D01*
D02*
G37*
G36*
X105257Y115116D02*
X105281Y114954D01*
X105322Y114791D01*
X105380Y114627D01*
X105455Y114462D01*
X105547Y114297D01*
X105657Y114131D01*
X105783Y113964D01*
X105926Y113796D01*
X106087Y113627D01*
X104673Y112213D01*
X104504Y112374D01*
X104336Y112517D01*
X104169Y112643D01*
X104003Y112753D01*
X103838Y112845D01*
X103673Y112920D01*
X103509Y112978D01*
X103346Y113019D01*
X103184Y113043D01*
X103022Y113050D01*
X105250Y115278D01*
X105257Y115116D01*
D02*
G37*
G36*
X132257Y114816D02*
X132281Y114654D01*
X132322Y114491D01*
X132380Y114327D01*
X132455Y114162D01*
X132547Y113997D01*
X132657Y113831D01*
X132783Y113664D01*
X132926Y113496D01*
X133087Y113327D01*
X131673Y111913D01*
X131504Y112074D01*
X131336Y112217D01*
X131169Y112343D01*
X131003Y112453D01*
X130838Y112545D01*
X130673Y112620D01*
X130509Y112678D01*
X130346Y112719D01*
X130184Y112743D01*
X130022Y112750D01*
X132250Y114978D01*
X132257Y114816D01*
D02*
G37*
G36*
X-34806Y111781D02*
X-35477Y112184D01*
X-36251Y112372D01*
X-37127Y112344D01*
X-38105Y112101D01*
X-39186Y111643D01*
X-40368Y110970D01*
X-41653Y110081D01*
X-43039Y108977D01*
X-44528Y107658D01*
X-46119Y106124D01*
X-52876Y110680D01*
X-51243Y112370D01*
X-48688Y115378D01*
X-47766Y116696D01*
X-47082Y117889D01*
X-46635Y118958D01*
X-46425Y119903D01*
X-46453Y120724D01*
X-46718Y121421D01*
X-47220Y121994D01*
X-34806Y111781D01*
D02*
G37*
G36*
X-158534Y113144D02*
X-158632Y113013D01*
X-158718Y112868D01*
X-158793Y112711D01*
X-158856Y112542D01*
X-158908Y112360D01*
X-158948Y112165D01*
X-158977Y111957D01*
X-158994Y111737D01*
X-159000Y111504D01*
X-161000D01*
X-161006Y111737D01*
X-161023Y111957D01*
X-161052Y112165D01*
X-161092Y112360D01*
X-161144Y112542D01*
X-161207Y112711D01*
X-161282Y112868D01*
X-161368Y113013D01*
X-161466Y113144D01*
X-161575Y113263D01*
X-158425D01*
X-158534Y113144D01*
D02*
G37*
G36*
X-12667Y111859D02*
X-13112Y111759D01*
X-13579Y111601D01*
X-14066Y111386D01*
X-14575Y111114D01*
X-15105Y110784D01*
X-15656Y110396D01*
X-16822Y109448D01*
X-17437Y108888D01*
X-18073Y108270D01*
X-24868Y112789D01*
X-24262Y113425D01*
X-23729Y114046D01*
X-23270Y114654D01*
X-22884Y115247D01*
X-22572Y115826D01*
X-22333Y116390D01*
X-22168Y116940D01*
X-22076Y117476D01*
X-22058Y117997D01*
X-22113Y118505D01*
X-12667Y111859D01*
D02*
G37*
G36*
X131750Y105345D02*
X131770Y105182D01*
X131807Y105019D01*
X131862Y104855D01*
X131934Y104690D01*
X132024Y104524D01*
X132132Y104358D01*
X132257Y104190D01*
X132400Y104022D01*
X132561Y103854D01*
X131097Y102489D01*
X130928Y102650D01*
X130594Y102921D01*
X130428Y103032D01*
X130263Y103127D01*
X130099Y103204D01*
X129936Y103266D01*
X129774Y103311D01*
X129612Y103339D01*
X129452Y103350D01*
X131748Y105507D01*
X131750Y105345D01*
D02*
G37*
G36*
X-71007Y102025D02*
X-71126Y102134D01*
X-71258Y102232D01*
X-71402Y102318D01*
X-71559Y102393D01*
X-71728Y102456D01*
X-71911Y102508D01*
X-72105Y102548D01*
X-72313Y102577D01*
X-72533Y102594D01*
X-72765Y102600D01*
Y104600D01*
X-72533Y104606D01*
X-72313Y104623D01*
X-72105Y104652D01*
X-71911Y104692D01*
X-71728Y104744D01*
X-71559Y104807D01*
X-71402Y104882D01*
X-71258Y104968D01*
X-71126Y105066D01*
X-71007Y105175D01*
Y102025D01*
D02*
G37*
G36*
X-142913Y103673D02*
X-143073Y103504D01*
X-143217Y103336D01*
X-143343Y103169D01*
X-143453Y103003D01*
X-143545Y102838D01*
X-143620Y102673D01*
X-143678Y102509D01*
X-143719Y102346D01*
X-143743Y102184D01*
X-143750Y102022D01*
X-145977Y104250D01*
X-145816Y104257D01*
X-145654Y104281D01*
X-145491Y104322D01*
X-145327Y104380D01*
X-145162Y104455D01*
X-144997Y104547D01*
X-144831Y104657D01*
X-144664Y104783D01*
X-144496Y104927D01*
X-144327Y105087D01*
X-142913Y103673D01*
D02*
G37*
G36*
X111617Y100934D02*
X111624Y100773D01*
X111650Y100610D01*
X111695Y100447D01*
X111760Y100282D01*
X111843Y100117D01*
X111946Y99950D01*
X112068Y99782D01*
X112209Y99614D01*
X112370Y99445D01*
X110754Y98231D01*
X110587Y98392D01*
X110255Y98670D01*
X110091Y98786D01*
X109929Y98887D01*
X109768Y98973D01*
X109609Y99043D01*
X109451Y99099D01*
X109294Y99140D01*
X109139Y99165D01*
X111629Y101095D01*
X111617Y100934D01*
D02*
G37*
G36*
X-76707Y95725D02*
X-76826Y95834D01*
X-76958Y95932D01*
X-77102Y96018D01*
X-77259Y96093D01*
X-77428Y96156D01*
X-77611Y96208D01*
X-77805Y96248D01*
X-78013Y96277D01*
X-78233Y96294D01*
X-78466Y96300D01*
Y98300D01*
X-78233Y98306D01*
X-78013Y98323D01*
X-77805Y98352D01*
X-77611Y98392D01*
X-77428Y98444D01*
X-77259Y98507D01*
X-77102Y98582D01*
X-76958Y98668D01*
X-76826Y98766D01*
X-76707Y98875D01*
Y95725D01*
D02*
G37*
G36*
X31950Y94000D02*
X31533Y93986D01*
X31122Y93936D01*
X30717Y93849D01*
X30318Y93726D01*
X29925Y93567D01*
X29539Y93371D01*
X29158Y93139D01*
X28784Y92870D01*
X28415Y92565D01*
X28052Y92224D01*
X26000Y94277D01*
Y91000D01*
X25289Y90983D01*
X24653Y90931D01*
X24092Y90846D01*
X23605Y90726D01*
X23194Y90572D01*
X22857Y90384D01*
X22595Y90161D01*
X22408Y89905D01*
X22296Y89614D01*
X22258Y89289D01*
Y96711D01*
X22296Y96386D01*
X22408Y96095D01*
X22595Y95838D01*
X22857Y95616D01*
X23194Y95428D01*
X23605Y95274D01*
X24092Y95154D01*
X24653Y95068D01*
X25257Y95020D01*
X25224Y95052D01*
X25565Y95415D01*
X25870Y95784D01*
X26139Y96158D01*
X26371Y96539D01*
X26567Y96925D01*
X26726Y97318D01*
X26849Y97717D01*
X26936Y98122D01*
X26986Y98533D01*
X27000Y98950D01*
X31950Y94000D01*
D02*
G37*
G36*
X81393Y94425D02*
X81274Y94534D01*
X81143Y94632D01*
X80998Y94718D01*
X80841Y94793D01*
X80672Y94856D01*
X80490Y94908D01*
X80295Y94948D01*
X80087Y94977D01*
X79867Y94994D01*
X79634Y95000D01*
Y97000D01*
X79867Y97006D01*
X80087Y97023D01*
X80295Y97052D01*
X80490Y97092D01*
X80672Y97144D01*
X80841Y97207D01*
X80998Y97282D01*
X81143Y97368D01*
X81274Y97466D01*
X81393Y97575D01*
Y94425D01*
D02*
G37*
G36*
X81393Y87425D02*
X81274Y87534D01*
X81142Y87632D01*
X80998Y87718D01*
X80841Y87793D01*
X80671Y87856D01*
X80489Y87908D01*
X80294Y87948D01*
X80087Y87977D01*
X79867Y87994D01*
X79634Y88000D01*
Y90000D01*
X79867Y90006D01*
X80087Y90023D01*
X80294Y90052D01*
X80489Y90092D01*
X80671Y90144D01*
X80841Y90207D01*
X80998Y90282D01*
X81142Y90368D01*
X81274Y90466D01*
X81393Y90575D01*
Y87425D01*
D02*
G37*
G36*
X50978Y87750D02*
X50816Y87743D01*
X50654Y87719D01*
X50491Y87678D01*
X50327Y87620D01*
X50162Y87545D01*
X49997Y87453D01*
X49831Y87343D01*
X49664Y87217D01*
X49496Y87074D01*
X49327Y86913D01*
X47913Y88327D01*
X48074Y88496D01*
X48217Y88664D01*
X48343Y88831D01*
X48453Y88997D01*
X48545Y89162D01*
X48620Y89327D01*
X48678Y89491D01*
X48719Y89654D01*
X48743Y89816D01*
X48750Y89978D01*
X50978Y87750D01*
D02*
G37*
G36*
X6176Y91358D02*
X6161Y91138D01*
X6212Y90879D01*
X6329Y90583D01*
X6511Y90248D01*
X6759Y89876D01*
X7073Y89465D01*
X7897Y88530D01*
X8408Y88005D01*
X6795Y86790D01*
X6359Y87212D01*
X5590Y87870D01*
X5256Y88107D01*
X4956Y88282D01*
X4691Y88396D01*
X4459Y88448D01*
X4261Y88439D01*
X4096Y88368D01*
X3966Y88235D01*
X6256Y91541D01*
X6176Y91358D01*
D02*
G37*
G36*
X19582Y88211D02*
X19386Y88142D01*
X19214Y88025D01*
X19064Y87862D01*
X18938Y87652D01*
X18834Y87396D01*
X18754Y87093D01*
X18696Y86743D01*
X18662Y86347D01*
X18650Y85904D01*
X16350D01*
X16339Y86347D01*
X16304Y86743D01*
X16247Y87093D01*
X16166Y87396D01*
X16063Y87652D01*
X15936Y87862D01*
X15787Y88025D01*
X15614Y88142D01*
X15419Y88211D01*
X15200Y88235D01*
X19800D01*
X19582Y88211D01*
D02*
G37*
G36*
X11006Y83133D02*
X11023Y82913D01*
X11052Y82705D01*
X11092Y82510D01*
X11144Y82328D01*
X11207Y82159D01*
X11282Y82002D01*
X11368Y81858D01*
X11466Y81726D01*
X11575Y81607D01*
X8425D01*
X8534Y81726D01*
X8632Y81858D01*
X8718Y82002D01*
X8793Y82159D01*
X8856Y82328D01*
X8908Y82510D01*
X8948Y82705D01*
X8977Y82913D01*
X8994Y83133D01*
X9000Y83365D01*
X11000D01*
X11006Y83133D01*
D02*
G37*
G36*
X82052Y79959D02*
X82032Y79959D01*
X82000Y79943D01*
X81954Y79913D01*
X81897Y79868D01*
X81743Y79735D01*
X81285Y79293D01*
X79871Y80707D01*
X80782Y81621D01*
X82052Y79959D01*
D02*
G37*
G36*
X12248Y79739D02*
X12268Y79599D01*
X12306Y79454D01*
X12363Y79306D01*
X12438Y79153D01*
X12531Y78996D01*
X12643Y78835D01*
X12772Y78670D01*
X12921Y78501D01*
X13087Y78327D01*
X11673Y76913D01*
X11499Y77080D01*
X11165Y77357D01*
X11004Y77469D01*
X10847Y77562D01*
X10694Y77637D01*
X10546Y77694D01*
X10401Y77732D01*
X10261Y77752D01*
X10125Y77754D01*
X12247Y79875D01*
X12248Y79739D01*
D02*
G37*
G36*
X-35267Y73319D02*
X-35578Y72994D01*
X-35833Y72696D01*
X-36033Y72426D01*
X-36176Y72184D01*
X-36263Y71970D01*
X-36295Y71784D01*
X-36271Y71625D01*
X-36191Y71494D01*
X-36054Y71390D01*
X-35863Y71315D01*
X-40301Y72561D01*
X-40064Y72523D01*
X-39805Y72536D01*
X-39524Y72600D01*
X-39222Y72714D01*
X-38897Y72879D01*
X-38551Y73095D01*
X-38182Y73362D01*
X-37792Y73680D01*
X-36946Y74468D01*
X-35267Y73319D01*
D02*
G37*
G36*
X58504Y74120D02*
X58592Y73000D01*
X58632Y72819D01*
X58680Y72680D01*
X58735Y72579D01*
X58797Y72519D01*
X58867Y72499D01*
X56134D01*
X56203Y72519D01*
X56266Y72579D01*
X56321Y72680D01*
X56368Y72819D01*
X56409Y73000D01*
X56442Y73219D01*
X56486Y73780D01*
X56500Y74500D01*
X58500D01*
X58504Y74120D01*
D02*
G37*
G36*
X53504D02*
X53592Y73000D01*
X53632Y72819D01*
X53680Y72680D01*
X53735Y72579D01*
X53797Y72519D01*
X53867Y72499D01*
X51134D01*
X51203Y72519D01*
X51266Y72579D01*
X51321Y72680D01*
X51368Y72819D01*
X51409Y73000D01*
X51441Y73219D01*
X51485Y73780D01*
X51500Y74500D01*
X53500D01*
X53504Y74120D01*
D02*
G37*
G36*
X48504D02*
X48592Y73000D01*
X48632Y72819D01*
X48680Y72680D01*
X48735Y72579D01*
X48797Y72519D01*
X48867Y72499D01*
X46134D01*
X46203Y72519D01*
X46266Y72579D01*
X46321Y72680D01*
X46368Y72819D01*
X46409Y73000D01*
X46442Y73219D01*
X46486Y73780D01*
X46500Y74500D01*
X48500D01*
X48504Y74120D01*
D02*
G37*
G36*
X43504D02*
X43592Y73000D01*
X43632Y72819D01*
X43680Y72680D01*
X43735Y72579D01*
X43797Y72519D01*
X43867Y72499D01*
X41134D01*
X41203Y72519D01*
X41266Y72579D01*
X41321Y72680D01*
X41368Y72819D01*
X41409Y73000D01*
X41441Y73219D01*
X41486Y73780D01*
X41500Y74500D01*
X43500D01*
X43504Y74120D01*
D02*
G37*
G36*
X28504Y73654D02*
X28559Y73013D01*
X28592Y72856D01*
X28632Y72728D01*
X28680Y72628D01*
X28735Y72557D01*
X28797Y72514D01*
X28867Y72499D01*
X26134D01*
X26203Y72514D01*
X26266Y72557D01*
X26321Y72628D01*
X26369Y72728D01*
X26409Y72856D01*
X26442Y73013D01*
X26467Y73198D01*
X26497Y73654D01*
X26500Y73925D01*
X28500D01*
X28504Y73654D01*
D02*
G37*
G36*
X23504Y74120D02*
X23592Y73000D01*
X23632Y72819D01*
X23680Y72680D01*
X23735Y72579D01*
X23797Y72519D01*
X23867Y72499D01*
X21134D01*
X21203Y72519D01*
X21266Y72579D01*
X21321Y72680D01*
X21368Y72819D01*
X21409Y73000D01*
X21442Y73219D01*
X21486Y73780D01*
X21500Y74500D01*
X23500D01*
X23504Y74120D01*
D02*
G37*
G36*
X18653Y74363D02*
X18757Y72706D01*
X18789Y72592D01*
X18826Y72523D01*
X18867Y72499D01*
X16134D01*
X16175Y72523D01*
X16212Y72592D01*
X16244Y72706D01*
X16272Y72867D01*
X16296Y73074D01*
X16342Y73972D01*
X16350Y74799D01*
X18650D01*
X18653Y74363D01*
D02*
G37*
G36*
X13504Y74120D02*
X13592Y73000D01*
X13632Y72819D01*
X13680Y72680D01*
X13735Y72579D01*
X13797Y72519D01*
X13867Y72499D01*
X11134D01*
X11203Y72519D01*
X11266Y72579D01*
X11321Y72680D01*
X11368Y72819D01*
X11409Y73000D01*
X11442Y73219D01*
X11486Y73780D01*
X11500Y74500D01*
X13500D01*
X13504Y74120D01*
D02*
G37*
G36*
X63867Y72499D02*
X61500Y72469D01*
X61575Y72484D01*
X61643Y72528D01*
X61702Y72600D01*
X61754Y72700D01*
X61798Y72829D01*
X61834Y72986D01*
X61861Y73171D01*
X61881Y73385D01*
X61897Y73897D01*
X63897D01*
X63867Y72499D01*
D02*
G37*
G36*
X68857Y70810D02*
X68918Y70640D01*
X69019Y70490D01*
X69161Y70360D01*
X69344Y70250D01*
X69567Y70160D01*
X69831Y70090D01*
X70136Y70040D01*
X70481Y70010D01*
X70867Y70000D01*
Y68000D01*
X70481Y67990D01*
X70136Y67960D01*
X69831Y67910D01*
X69567Y67840D01*
X69344Y67750D01*
X69161Y67640D01*
X69019Y67510D01*
X68918Y67360D01*
X68857Y67190D01*
X68836Y67000D01*
Y71000D01*
X68857Y70810D01*
D02*
G37*
G36*
X79417Y69582D02*
X79550Y69478D01*
X79681Y69395D01*
X79810Y69333D01*
X79937Y69292D01*
X80063Y69272D01*
X80187Y69273D01*
X80308Y69295D01*
X80428Y69338D01*
X80547Y69401D01*
X79762Y66445D01*
X77898Y68263D01*
X79282Y69707D01*
X79417Y69582D01*
D02*
G37*
G36*
X-59743Y60816D02*
X-59719Y60654D01*
X-59678Y60491D01*
X-59620Y60327D01*
X-59545Y60162D01*
X-59453Y59997D01*
X-59343Y59831D01*
X-59217Y59664D01*
X-59074Y59496D01*
X-58913Y59327D01*
X-60327Y57913D01*
X-60496Y58074D01*
X-60664Y58217D01*
X-60831Y58343D01*
X-60997Y58453D01*
X-61162Y58545D01*
X-61327Y58620D01*
X-61491Y58678D01*
X-61654Y58719D01*
X-61816Y58743D01*
X-61978Y58750D01*
X-59750Y60978D01*
X-59743Y60816D01*
D02*
G37*
G36*
X33798Y57812D02*
X33736Y57762D01*
X33681Y57678D01*
X33634Y57562D01*
X33594Y57412D01*
X33561Y57228D01*
X33536Y57011D01*
X33507Y56478D01*
X33503Y56161D01*
X31503D01*
X31499Y56478D01*
X31444Y57228D01*
X31411Y57412D01*
X31370Y57562D01*
X31322Y57678D01*
X31267Y57762D01*
X31204Y57812D01*
X31134Y57828D01*
X33867D01*
X33798Y57812D01*
D02*
G37*
G36*
X-15050Y56048D02*
X-14935Y56016D01*
X-14804Y55988D01*
X-14494Y55943D01*
X-14121Y55914D01*
X-13440Y55897D01*
X-12402Y53897D01*
X-12638Y53890D01*
X-12855Y53869D01*
X-13053Y53834D01*
X-13231Y53785D01*
X-13390Y53722D01*
X-13530Y53645D01*
X-13651Y53554D01*
X-13753Y53449D01*
X-13835Y53329D01*
X-13899Y53196D01*
X-15149Y56083D01*
X-15050Y56048D01*
D02*
G37*
G36*
X83466Y55274D02*
X83368Y55142D01*
X83282Y54998D01*
X83207Y54841D01*
X83144Y54672D01*
X83092Y54489D01*
X83052Y54295D01*
X83023Y54087D01*
X83006Y53867D01*
X83003Y53753D01*
X83010Y53481D01*
X83040Y53136D01*
X83090Y52831D01*
X83160Y52567D01*
X83250Y52344D01*
X83360Y52161D01*
X83490Y52019D01*
X83640Y51917D01*
X83810Y51856D01*
X84000Y51836D01*
X80000D01*
X80190Y51856D01*
X80360Y51917D01*
X80510Y52019D01*
X80640Y52161D01*
X80750Y52344D01*
X80840Y52567D01*
X80910Y52831D01*
X80960Y53136D01*
X80990Y53481D01*
X80997Y53753D01*
X80994Y53867D01*
X80977Y54087D01*
X80948Y54295D01*
X80908Y54489D01*
X80856Y54672D01*
X80793Y54841D01*
X80718Y54998D01*
X80632Y55142D01*
X80534Y55274D01*
X80425Y55393D01*
X83575D01*
X83466Y55274D01*
D02*
G37*
G36*
X58393Y51425D02*
X58274Y51534D01*
X58142Y51632D01*
X57998Y51718D01*
X57841Y51793D01*
X57672Y51856D01*
X57490Y51908D01*
X57295Y51948D01*
X57087Y51977D01*
X56867Y51994D01*
X56634Y52000D01*
Y54000D01*
X56867Y54006D01*
X57087Y54023D01*
X57295Y54052D01*
X57490Y54092D01*
X57672Y54144D01*
X57841Y54207D01*
X57998Y54282D01*
X58142Y54368D01*
X58274Y54466D01*
X58393Y54575D01*
Y51425D01*
D02*
G37*
G36*
X123048Y48634D02*
X122821Y48404D01*
X121646Y47073D01*
X121580Y46969D01*
X120792Y50906D01*
X120988Y50779D01*
X121187Y50689D01*
X121388Y50635D01*
X121591Y50617D01*
X121798Y50637D01*
X122006Y50692D01*
X122217Y50785D01*
X122431Y50913D01*
X122647Y51079D01*
X122866Y51280D01*
X123048Y48634D01*
D02*
G37*
G36*
X-60741Y53124D02*
X-60699Y52968D01*
X-60643Y52811D01*
X-60571Y52652D01*
X-60485Y52491D01*
X-60383Y52329D01*
X-60267Y52166D01*
X-60135Y52001D01*
X-59828Y51666D01*
X-61028Y50038D01*
X-61198Y50199D01*
X-61366Y50340D01*
X-61534Y50462D01*
X-61700Y50564D01*
X-61866Y50647D01*
X-62030Y50711D01*
X-62193Y50756D01*
X-62356Y50781D01*
X-62517Y50787D01*
X-62677Y50773D01*
X-60767Y53278D01*
X-60741Y53124D01*
D02*
G37*
G36*
X28240Y52345D02*
X28302Y52230D01*
X28386Y52129D01*
X28492Y52041D01*
X28620Y51967D01*
X28770Y51906D01*
X28942Y51859D01*
X29137Y51825D01*
X29353Y51805D01*
X29591Y51798D01*
X29252Y49798D01*
X26647Y49845D01*
X28200Y52473D01*
X28240Y52345D01*
D02*
G37*
G36*
X5192Y51797D02*
X5252Y51735D01*
X5352Y51680D01*
X5492Y51632D01*
X5672Y51592D01*
X5892Y51559D01*
X6452Y51515D01*
X7172Y51500D01*
Y49500D01*
X6792Y49496D01*
X5672Y49408D01*
X5492Y49368D01*
X5352Y49320D01*
X5252Y49265D01*
X5192Y49203D01*
X5172Y49134D01*
Y51866D01*
X5192Y51797D01*
D02*
G37*
G36*
X11048Y50717D02*
X11217Y50577D01*
X11384Y50458D01*
X11550Y50359D01*
X11714Y50280D01*
X11876Y50222D01*
X12038Y50185D01*
X12197Y50168D01*
X12356Y50172D01*
X12512Y50196D01*
X10794Y47556D01*
X10758Y47702D01*
X10708Y47850D01*
X10644Y48001D01*
X10566Y48154D01*
X10474Y48310D01*
X10367Y48468D01*
X10113Y48792D01*
X9964Y48957D01*
X9802Y49125D01*
X10878Y50878D01*
X11048Y50717D01*
D02*
G37*
G36*
X-9499Y44133D02*
X-9519Y44139D01*
X-9579Y44144D01*
X-9999Y44156D01*
X-11499Y44164D01*
Y46164D01*
X-11119Y46171D01*
X-10479Y46227D01*
X-10219Y46276D01*
X-9999Y46340D01*
X-9819Y46417D01*
X-9679Y46508D01*
X-9579Y46613D01*
X-9519Y46733D01*
X-9499Y46866D01*
Y44133D01*
D02*
G37*
G36*
Y39133D02*
X-9519Y39139D01*
X-9579Y39144D01*
X-9999Y39156D01*
X-11499Y39164D01*
Y41164D01*
X-11119Y41171D01*
X-10479Y41227D01*
X-10219Y41276D01*
X-9999Y41340D01*
X-9819Y41417D01*
X-9679Y41508D01*
X-9579Y41613D01*
X-9519Y41733D01*
X-9499Y41866D01*
Y39133D01*
D02*
G37*
G36*
X71789Y37645D02*
X72089Y37405D01*
X72401Y37193D01*
X72725Y37009D01*
X73061Y36853D01*
X73408Y36726D01*
X73767Y36627D01*
X74063Y36571D01*
X74329Y36591D01*
X74509Y36632D01*
X74649Y36679D01*
X74749Y36734D01*
X74809Y36797D01*
X74829Y36866D01*
Y36503D01*
X74914Y36500D01*
X74829Y36429D01*
Y34133D01*
X74809Y34203D01*
X74749Y34265D01*
X74649Y34320D01*
X74509Y34368D01*
X74329Y34408D01*
X74109Y34441D01*
X73549Y34485D01*
X72829Y34500D01*
Y34772D01*
X72500Y34500D01*
X68086Y36500D01*
X68452Y36514D01*
X68749Y36556D01*
X68979Y36627D01*
X69140Y36726D01*
X69232Y36853D01*
X69257Y37009D01*
X69213Y37193D01*
X69101Y37405D01*
X68920Y37645D01*
X68672Y37914D01*
X71500D01*
X71789Y37645D01*
D02*
G37*
G36*
X-9499Y34133D02*
X-9519Y34203D01*
X-9579Y34265D01*
X-9679Y34320D01*
X-9819Y34368D01*
X-9999Y34408D01*
X-10219Y34441D01*
X-10779Y34485D01*
X-11499Y34500D01*
Y36500D01*
X-11119Y36504D01*
X-9999Y36591D01*
X-9819Y36632D01*
X-9679Y36679D01*
X-9579Y36734D01*
X-9519Y36797D01*
X-9499Y36866D01*
Y34133D01*
D02*
G37*
G36*
X-50655Y36818D02*
X-50515Y36751D01*
X-50364Y36692D01*
X-50200Y36641D01*
X-50025Y36598D01*
X-49838Y36563D01*
X-49429Y36516D01*
X-49207Y36504D01*
X-48973Y36500D01*
X-48456Y34500D01*
X-48690Y34493D01*
X-48909Y34473D01*
X-49111Y34439D01*
X-49297Y34391D01*
X-49468Y34330D01*
X-49623Y34255D01*
X-49762Y34167D01*
X-49885Y34065D01*
X-49992Y33950D01*
X-50083Y33821D01*
X-50783Y36893D01*
X-50655Y36818D01*
D02*
G37*
G36*
X120157Y40811D02*
X121495Y39661D01*
X122121Y39194D01*
X122718Y38798D01*
X123287Y38475D01*
X123826Y38223D01*
X124338Y38044D01*
X124820Y37936D01*
X125274Y37900D01*
X125305Y35900D01*
X124843Y35863D01*
X124357Y35754D01*
X123846Y35571D01*
X123311Y35316D01*
X122751Y34987D01*
X122167Y34586D01*
X121558Y34111D01*
X120267Y32943D01*
X119585Y32249D01*
X119446Y41494D01*
X120157Y40811D01*
D02*
G37*
G36*
X8602Y47414D02*
X8717Y47267D01*
X8748Y47221D01*
X8779Y47170D01*
X8795Y47137D01*
X8800Y47126D01*
X8815Y47066D01*
X8880Y46927D01*
X8997Y46342D01*
X9936Y44936D01*
X11342Y43997D01*
X13000Y43667D01*
X14658Y43997D01*
X16064Y44936D01*
X17003Y46342D01*
X17092Y46786D01*
X18470Y47204D01*
X23337Y42337D01*
X23337Y42337D01*
X24329Y41674D01*
X25500Y41441D01*
X36676D01*
X37342Y40997D01*
X39000Y40667D01*
X40658Y40997D01*
X42064Y41936D01*
X42771Y42993D01*
X44203Y43357D01*
X54223Y33337D01*
X54223Y33337D01*
X55216Y32674D01*
X56386Y32441D01*
X56386Y32441D01*
X72258D01*
Y31770D01*
X74679D01*
X74737Y31786D01*
X74806Y31824D01*
X74829Y31866D01*
Y31770D01*
X82164D01*
Y29230D01*
X74829D01*
Y29133D01*
X74806Y29175D01*
X74737Y29213D01*
X74679Y29230D01*
X72258D01*
Y26563D01*
X72798D01*
Y22103D01*
Y12103D01*
Y2103D01*
Y-7897D01*
X79106D01*
Y-13999D01*
X79106Y-14000D01*
X79338Y-15170D01*
X79375Y-15225D01*
X79230Y-15964D01*
X78857Y-16736D01*
X78822Y-16755D01*
X78580Y-16857D01*
X78381Y-16918D01*
X78261Y-16941D01*
X70897D01*
Y-11872D01*
X70906Y-11829D01*
X70897Y-11785D01*
Y-9798D01*
X70559D01*
Y-6500D01*
X70326Y-5330D01*
X69663Y-4337D01*
X69663Y-4337D01*
X67663Y-2337D01*
X66671Y-1674D01*
X65500Y-1441D01*
X65500Y-1441D01*
X7742D01*
Y-770D01*
X5321D01*
X5263Y-787D01*
X5195Y-825D01*
X5172Y-867D01*
Y-770D01*
X-2164D01*
Y1770D01*
X5172D01*
Y1866D01*
X5195Y1824D01*
X5263Y1786D01*
X5321Y1770D01*
X7742D01*
Y4437D01*
X7202D01*
Y17103D01*
Y25175D01*
X8472Y25428D01*
X8914Y24362D01*
X10123Y22786D01*
X11698Y21578D01*
X13532Y20818D01*
X14230Y20726D01*
Y21213D01*
X14143Y21518D01*
X13979Y21939D01*
X13766Y22365D01*
X13507Y22798D01*
X13201Y23237D01*
X12848Y23683D01*
X12448Y24135D01*
X12000Y24593D01*
X14230D01*
Y28164D01*
Y35602D01*
X13532Y35510D01*
X11698Y34750D01*
X10123Y33542D01*
X8914Y31967D01*
X8472Y30900D01*
X7202Y31153D01*
Y37102D01*
Y47441D01*
X8575D01*
X8602Y47414D01*
D02*
G37*
G36*
X-35022Y23750D02*
X-35184Y23743D01*
X-35346Y23719D01*
X-35509Y23678D01*
X-35673Y23620D01*
X-35838Y23545D01*
X-36003Y23453D01*
X-36169Y23343D01*
X-36336Y23217D01*
X-36504Y23074D01*
X-36673Y22913D01*
X-38087Y24327D01*
X-37926Y24496D01*
X-37783Y24664D01*
X-37657Y24831D01*
X-37547Y24997D01*
X-37455Y25162D01*
X-37380Y25327D01*
X-37322Y25491D01*
X-37281Y25654D01*
X-37257Y25816D01*
X-37250Y25977D01*
X-35022Y23750D01*
D02*
G37*
G36*
X-14994Y23133D02*
X-14977Y22913D01*
X-14948Y22705D01*
X-14908Y22510D01*
X-14856Y22328D01*
X-14793Y22159D01*
X-14718Y22002D01*
X-14632Y21858D01*
X-14534Y21726D01*
X-14425Y21607D01*
X-17575D01*
X-17466Y21726D01*
X-17368Y21858D01*
X-17282Y22002D01*
X-17207Y22159D01*
X-17144Y22328D01*
X-17092Y22510D01*
X-17052Y22705D01*
X-17023Y22913D01*
X-17006Y23133D01*
X-17000Y23366D01*
X-15000D01*
X-14994Y23133D01*
D02*
G37*
G36*
X-60274Y21466D02*
X-60142Y21368D01*
X-59998Y21282D01*
X-59841Y21207D01*
X-59672Y21144D01*
X-59489Y21092D01*
X-59295Y21052D01*
X-59087Y21023D01*
X-58867Y21006D01*
X-58635Y21000D01*
Y19000D01*
X-58867Y18994D01*
X-59087Y18977D01*
X-59295Y18948D01*
X-59489Y18908D01*
X-59672Y18856D01*
X-59841Y18793D01*
X-59998Y18718D01*
X-60142Y18632D01*
X-60274Y18534D01*
X-60393Y18425D01*
Y21575D01*
X-60274Y21466D01*
D02*
G37*
G36*
X-28607Y15425D02*
X-28726Y15534D01*
X-28858Y15632D01*
X-29002Y15718D01*
X-29159Y15793D01*
X-29328Y15856D01*
X-29511Y15908D01*
X-29705Y15948D01*
X-29913Y15977D01*
X-30133Y15994D01*
X-30366Y16000D01*
Y18000D01*
X-30133Y18006D01*
X-29913Y18023D01*
X-29705Y18052D01*
X-29511Y18092D01*
X-29328Y18144D01*
X-29159Y18207D01*
X-29002Y18282D01*
X-28858Y18368D01*
X-28726Y18466D01*
X-28607Y18575D01*
Y15425D01*
D02*
G37*
G36*
X-47274Y18466D02*
X-47143Y18368D01*
X-46998Y18282D01*
X-46841Y18207D01*
X-46672Y18144D01*
X-46490Y18092D01*
X-46295Y18052D01*
X-46087Y18023D01*
X-45867Y18006D01*
X-45634Y18000D01*
Y16000D01*
X-45867Y15994D01*
X-46087Y15977D01*
X-46295Y15948D01*
X-46490Y15908D01*
X-46672Y15856D01*
X-46841Y15793D01*
X-46998Y15718D01*
X-47143Y15632D01*
X-47274Y15534D01*
X-47393Y15425D01*
Y18575D01*
X-47274Y18466D01*
D02*
G37*
G36*
X89520Y16797D02*
X89580Y16734D01*
X89680Y16679D01*
X89820Y16632D01*
X90000Y16592D01*
X90220Y16559D01*
X90780Y16515D01*
X91500Y16500D01*
Y14500D01*
X91120Y14496D01*
X90000Y14408D01*
X89820Y14368D01*
X89680Y14320D01*
X89580Y14265D01*
X89520Y14203D01*
X89500Y14133D01*
Y16866D01*
X89520Y16797D01*
D02*
G37*
G36*
X-9499Y9133D02*
X-9519Y9203D01*
X-9579Y9265D01*
X-9679Y9320D01*
X-9819Y9368D01*
X-9999Y9408D01*
X-10219Y9441D01*
X-10779Y9485D01*
X-11499Y9500D01*
Y11500D01*
X-11119Y11503D01*
X-9999Y11591D01*
X-9819Y11631D01*
X-9679Y11679D01*
X-9579Y11734D01*
X-9519Y11796D01*
X-9499Y11866D01*
Y9133D01*
D02*
G37*
G36*
Y4133D02*
X-9519Y4128D01*
X-9579Y4122D01*
X-9999Y4110D01*
X-11499Y4103D01*
Y6103D01*
X-11119Y6111D01*
X-10479Y6172D01*
X-10219Y6225D01*
X-9999Y6294D01*
X-9819Y6378D01*
X-9679Y6477D01*
X-9579Y6592D01*
X-9519Y6721D01*
X-9499Y6866D01*
Y4133D01*
D02*
G37*
G36*
Y-867D02*
X-9522Y-825D01*
X-9591Y-787D01*
X-9705Y-754D01*
X-9866Y-725D01*
X-10072Y-701D01*
X-10621Y-665D01*
X-11789Y-645D01*
Y1645D01*
X-11354Y1647D01*
X-9705Y1753D01*
X-9591Y1786D01*
X-9522Y1824D01*
X-9499Y1866D01*
Y-867D01*
D02*
G37*
G36*
X5192Y-3203D02*
X5252Y-3266D01*
X5352Y-3320D01*
X5492Y-3368D01*
X5672Y-3408D01*
X5892Y-3442D01*
X6452Y-3485D01*
X7172Y-3500D01*
Y-4052D01*
X8000Y-3500D01*
X11000Y-5500D01*
X10620Y-5520D01*
X10280Y-5580D01*
X9980Y-5680D01*
X9720Y-5820D01*
X9500Y-6000D01*
X9320Y-6220D01*
X9180Y-6480D01*
X9080Y-6780D01*
X9020Y-7120D01*
X9000Y-7500D01*
X7000D01*
X6980Y-7120D01*
X6920Y-6780D01*
X6820Y-6480D01*
X6680Y-6220D01*
X6500Y-6000D01*
X6280Y-5820D01*
X6020Y-5680D01*
X5739Y-5587D01*
X5672Y-5592D01*
X5492Y-5632D01*
X5352Y-5680D01*
X5252Y-5735D01*
X5192Y-5797D01*
X5172Y-5867D01*
Y-5509D01*
X5000Y-5500D01*
X5172Y-5386D01*
Y-3134D01*
X5192Y-3203D01*
D02*
G37*
G36*
X83974Y-5857D02*
X83804Y-5917D01*
X83654Y-6019D01*
X83524Y-6161D01*
X83414Y-6344D01*
X83324Y-6567D01*
X83254Y-6831D01*
X83204Y-7136D01*
X83174Y-7481D01*
X83164Y-7867D01*
X81164D01*
X81154Y-7481D01*
X81124Y-7136D01*
X81074Y-6831D01*
X81004Y-6567D01*
X80914Y-6344D01*
X80804Y-6161D01*
X80674Y-6019D01*
X80524Y-5917D01*
X80354Y-5857D01*
X80164Y-5836D01*
X84164D01*
X83974Y-5857D01*
D02*
G37*
G36*
X-16845Y-9355D02*
X-16810Y-9750D01*
X-16753Y-10098D01*
X-16673Y-10400D01*
X-16570Y-10655D01*
X-16444Y-10864D01*
X-16295Y-11026D01*
X-16123Y-11142D01*
X-15929Y-11212D01*
X-15711Y-11235D01*
X-20291D01*
X-20073Y-11212D01*
X-19879Y-11142D01*
X-19707Y-11026D01*
X-19558Y-10864D01*
X-19432Y-10655D01*
X-19329Y-10400D01*
X-19249Y-10098D01*
X-19192Y-9750D01*
X-19157Y-9355D01*
X-19146Y-8914D01*
X-16856D01*
X-16845Y-9355D01*
D02*
G37*
G36*
X68504Y-10208D02*
X68592Y-11329D01*
X68632Y-11509D01*
X68680Y-11648D01*
X68735Y-11748D01*
X68797Y-11809D01*
X68867Y-11829D01*
X66134D01*
X66203Y-11809D01*
X66266Y-11748D01*
X66321Y-11648D01*
X66368Y-11509D01*
X66409Y-11329D01*
X66442Y-11108D01*
X66486Y-10548D01*
X66500Y-9829D01*
X68500D01*
X68504Y-10208D01*
D02*
G37*
G36*
X2277Y-13157D02*
X2334Y-13303D01*
X2428Y-13432D01*
X2560Y-13543D01*
X2730Y-13638D01*
X2938Y-13715D01*
X3184Y-13775D01*
X3467Y-13818D01*
X3788Y-13844D01*
X4147Y-13853D01*
Y-15853D01*
X3788Y-15861D01*
X3467Y-15887D01*
X3184Y-15930D01*
X2938Y-15990D01*
X2730Y-16067D01*
X2560Y-16162D01*
X2428Y-16273D01*
X2334Y-16402D01*
X2277Y-16548D01*
X2258Y-16711D01*
Y-12994D01*
X2277Y-13157D01*
D02*
G37*
G36*
X127006Y-18867D02*
X127023Y-19087D01*
X127052Y-19295D01*
X127092Y-19490D01*
X127144Y-19672D01*
X127207Y-19841D01*
X127282Y-19998D01*
X127368Y-20143D01*
X127466Y-20274D01*
X127575Y-20393D01*
X124425D01*
X124534Y-20274D01*
X124632Y-20143D01*
X124718Y-19998D01*
X124793Y-19841D01*
X124856Y-19672D01*
X124908Y-19490D01*
X124948Y-19295D01*
X124977Y-19087D01*
X124994Y-18867D01*
X125000Y-18635D01*
X127000D01*
X127006Y-18867D01*
D02*
G37*
G36*
X-161834Y-19826D02*
X-161932Y-19957D01*
X-162018Y-20102D01*
X-162093Y-20259D01*
X-162156Y-20428D01*
X-162208Y-20610D01*
X-162248Y-20805D01*
X-162277Y-21013D01*
X-162294Y-21233D01*
X-162300Y-21465D01*
X-164300D01*
X-164306Y-21233D01*
X-164323Y-21013D01*
X-164352Y-20805D01*
X-164392Y-20610D01*
X-164444Y-20428D01*
X-164507Y-20259D01*
X-164582Y-20102D01*
X-164668Y-19957D01*
X-164766Y-19826D01*
X-164875Y-19707D01*
X-161725D01*
X-161834Y-19826D01*
D02*
G37*
G36*
X68857Y-18190D02*
X68918Y-18360D01*
X69019Y-18510D01*
X69161Y-18640D01*
X69344Y-18750D01*
X69567Y-18840D01*
X69831Y-18910D01*
X70136Y-18960D01*
X70481Y-18990D01*
X70867Y-19000D01*
Y-21000D01*
X70481Y-21010D01*
X70136Y-21040D01*
X69831Y-21090D01*
X69567Y-21160D01*
X69344Y-21250D01*
X69161Y-21360D01*
X69019Y-21490D01*
X68918Y-21640D01*
X68857Y-21810D01*
X68836Y-22000D01*
Y-18000D01*
X68857Y-18190D01*
D02*
G37*
G36*
X-171618Y-21192D02*
X-171640Y-21254D01*
X-171659Y-21341D01*
X-171676Y-21452D01*
X-171701Y-21746D01*
X-171720Y-22369D01*
X-171722Y-22624D01*
X-173722Y-22835D01*
X-173724Y-22635D01*
X-173767Y-22148D01*
X-173793Y-22023D01*
X-173824Y-21916D01*
X-173861Y-21829D01*
X-173904Y-21760D01*
X-173953Y-21710D01*
X-174007Y-21679D01*
X-171594Y-21154D01*
X-171618Y-21192D01*
D02*
G37*
G36*
X-185324Y-20934D02*
X-185327Y-21092D01*
X-185310Y-21252D01*
X-185273Y-21414D01*
X-185214Y-21576D01*
X-185135Y-21741D01*
X-185036Y-21907D01*
X-184917Y-22074D01*
X-184776Y-22243D01*
X-184616Y-22413D01*
X-186360Y-23497D01*
X-186528Y-23335D01*
X-186857Y-23052D01*
X-187018Y-22932D01*
X-187332Y-22734D01*
X-187486Y-22657D01*
X-187637Y-22593D01*
X-187786Y-22543D01*
X-187932Y-22508D01*
X-185301Y-20777D01*
X-185324Y-20934D01*
D02*
G37*
G36*
X83194Y-13598D02*
X83521Y-13873D01*
X83854Y-14119D01*
X84191Y-14335D01*
X84533Y-14522D01*
X84880Y-14679D01*
X85232Y-14806D01*
X85589Y-14904D01*
X85951Y-14972D01*
X86318Y-15010D01*
X82429Y-17006D01*
Y-23500D01*
X81945Y-23025D01*
X81011Y-22225D01*
X80561Y-21900D01*
X80122Y-21625D01*
X79695Y-21400D01*
X79279Y-21225D01*
X78875Y-21100D01*
X78482Y-21025D01*
X78101Y-21000D01*
Y-19000D01*
X78482Y-18975D01*
X78875Y-18900D01*
X79279Y-18775D01*
X79695Y-18600D01*
X80122Y-18375D01*
X80561Y-18100D01*
X81011Y-17775D01*
X81472Y-17400D01*
X81977Y-16925D01*
X82036Y-16783D01*
X82111Y-16507D01*
X82144Y-16236D01*
X82135Y-15969D01*
X82083Y-15707D01*
X81990Y-15450D01*
X81854Y-15197D01*
X81677Y-14950D01*
X81457Y-14707D01*
X82871Y-13292D01*
X83194Y-13598D01*
D02*
G37*
G36*
X89252Y-23809D02*
X89247Y-23844D01*
X89256Y-23889D01*
X89279Y-23943D01*
X89316Y-24006D01*
X89366Y-24079D01*
X89431Y-24160D01*
X89601Y-24349D01*
X89707Y-24458D01*
X88293Y-25872D01*
X87167Y-24862D01*
X89271Y-23782D01*
X89252Y-23809D01*
D02*
G37*
G36*
X58829Y-26520D02*
X58794Y-26580D01*
X58764Y-26680D01*
X58738Y-26820D01*
X58716Y-27000D01*
X58684Y-27480D01*
X58665Y-28500D01*
X56665D01*
X56660Y-28120D01*
X56580Y-27220D01*
X56533Y-27000D01*
X56474Y-26820D01*
X56405Y-26680D01*
X56325Y-26580D01*
X56235Y-26520D01*
X56134Y-26500D01*
X58867D01*
X58829Y-26520D01*
D02*
G37*
G36*
X53797D02*
X53735Y-26580D01*
X53680Y-26680D01*
X53632Y-26820D01*
X53592Y-27000D01*
X53559Y-27220D01*
X53515Y-27780D01*
X53500Y-28500D01*
X51500D01*
X51496Y-28120D01*
X51409Y-27000D01*
X51368Y-26820D01*
X51321Y-26680D01*
X51266Y-26580D01*
X51203Y-26520D01*
X51134Y-26500D01*
X53867D01*
X53797Y-26520D01*
D02*
G37*
G36*
X48797D02*
X48735Y-26580D01*
X48680Y-26680D01*
X48632Y-26820D01*
X48592Y-27000D01*
X48559Y-27220D01*
X48515Y-27780D01*
X48500Y-28500D01*
X46500D01*
X46497Y-28120D01*
X46409Y-27000D01*
X46368Y-26820D01*
X46321Y-26680D01*
X46266Y-26580D01*
X46203Y-26520D01*
X46134Y-26500D01*
X48867D01*
X48797Y-26520D01*
D02*
G37*
G36*
X43682D02*
X43518Y-26580D01*
X43372Y-26680D01*
X43246Y-26820D01*
X43140Y-27000D01*
X43053Y-27220D01*
X42985Y-27480D01*
X42936Y-27780D01*
X42907Y-28120D01*
X42897Y-28500D01*
X40897D01*
X40900Y-28120D01*
X40982Y-26820D01*
X41013Y-26680D01*
X41049Y-26580D01*
X41089Y-26520D01*
X41134Y-26500D01*
X43867D01*
X43682Y-26520D01*
D02*
G37*
G36*
X38797D02*
X38735Y-26580D01*
X38680Y-26680D01*
X38632Y-26820D01*
X38592Y-27000D01*
X38559Y-27220D01*
X38515Y-27780D01*
X38500Y-28500D01*
X36500D01*
X36497Y-28120D01*
X36409Y-27000D01*
X36368Y-26820D01*
X36321Y-26680D01*
X36266Y-26580D01*
X36203Y-26520D01*
X36134Y-26500D01*
X38867D01*
X38797Y-26520D01*
D02*
G37*
G36*
X13797D02*
X13735Y-26580D01*
X13680Y-26680D01*
X13632Y-26820D01*
X13592Y-27000D01*
X13559Y-27220D01*
X13515Y-27780D01*
X13500Y-28500D01*
X11500D01*
X11496Y-28120D01*
X11409Y-27000D01*
X11368Y-26820D01*
X11321Y-26680D01*
X11266Y-26580D01*
X11203Y-26520D01*
X11134Y-26500D01*
X13867D01*
X13797Y-26520D01*
D02*
G37*
G36*
X90010Y-33097D02*
X90040Y-33442D01*
X90090Y-33747D01*
X90160Y-34011D01*
X90250Y-34234D01*
X90360Y-34417D01*
X90490Y-34559D01*
X90640Y-34661D01*
X90810Y-34722D01*
X91000Y-34742D01*
X87000D01*
X87190Y-34722D01*
X87360Y-34661D01*
X87510Y-34559D01*
X87640Y-34417D01*
X87750Y-34234D01*
X87840Y-34011D01*
X87910Y-33747D01*
X87960Y-33442D01*
X87990Y-33097D01*
X88000Y-32711D01*
X90000D01*
X90010Y-33097D01*
D02*
G37*
G36*
X-4534Y-33726D02*
X-4632Y-33858D01*
X-4718Y-34002D01*
X-4793Y-34159D01*
X-4856Y-34328D01*
X-4908Y-34511D01*
X-4948Y-34705D01*
X-4977Y-34913D01*
X-4994Y-35133D01*
X-5000Y-35366D01*
X-7000D01*
X-7006Y-35133D01*
X-7023Y-34913D01*
X-7052Y-34705D01*
X-7092Y-34511D01*
X-7144Y-34328D01*
X-7207Y-34159D01*
X-7282Y-34002D01*
X-7368Y-33858D01*
X-7466Y-33726D01*
X-7575Y-33607D01*
X-4425D01*
X-4534Y-33726D01*
D02*
G37*
G36*
X21726Y-32534D02*
X21858Y-32632D01*
X22002Y-32718D01*
X22159Y-32793D01*
X22328Y-32856D01*
X22510Y-32908D01*
X22705Y-32948D01*
X22913Y-32977D01*
X23133Y-32994D01*
X23366Y-33000D01*
Y-35000D01*
X23133Y-35006D01*
X22913Y-35023D01*
X22705Y-35052D01*
X22510Y-35092D01*
X22328Y-35144D01*
X22159Y-35207D01*
X22002Y-35282D01*
X21858Y-35368D01*
X21726Y-35466D01*
X21607Y-35575D01*
Y-32425D01*
X21726Y-32534D01*
D02*
G37*
G36*
X53087Y-38327D02*
X52920Y-38501D01*
X52643Y-38835D01*
X52531Y-38996D01*
X52438Y-39153D01*
X52363Y-39306D01*
X52306Y-39454D01*
X52268Y-39599D01*
X52248Y-39739D01*
X52246Y-39875D01*
X50125Y-37754D01*
X50261Y-37752D01*
X50401Y-37732D01*
X50546Y-37694D01*
X50694Y-37637D01*
X50847Y-37562D01*
X51004Y-37469D01*
X51165Y-37357D01*
X51330Y-37228D01*
X51499Y-37080D01*
X51673Y-36913D01*
X53087Y-38327D01*
D02*
G37*
G36*
X36703Y-41630D02*
X36542Y-41801D01*
X36403Y-41969D01*
X36287Y-42135D01*
X36193Y-42298D01*
X36123Y-42457D01*
X36075Y-42614D01*
X36049Y-42769D01*
X36046Y-42920D01*
X36066Y-43068D01*
X36108Y-43214D01*
X33256Y-41876D01*
X33374Y-41830D01*
X33497Y-41770D01*
X33626Y-41696D01*
X33761Y-41610D01*
X34048Y-41397D01*
X34201Y-41270D01*
X34694Y-40811D01*
X36703Y-41630D01*
D02*
G37*
G36*
X1466Y-43726D02*
X1368Y-43857D01*
X1282Y-44002D01*
X1207Y-44159D01*
X1144Y-44328D01*
X1092Y-44510D01*
X1052Y-44705D01*
X1023Y-44913D01*
X1006Y-45133D01*
X1000Y-45366D01*
X-1000D01*
X-1006Y-45133D01*
X-1023Y-44913D01*
X-1052Y-44705D01*
X-1092Y-44510D01*
X-1144Y-44328D01*
X-1207Y-44159D01*
X-1282Y-44002D01*
X-1368Y-43857D01*
X-1466Y-43726D01*
X-1575Y-43607D01*
X1575D01*
X1466Y-43726D01*
D02*
G37*
G36*
X57500Y-46973D02*
X57211Y-49581D01*
X54897Y-47752D01*
X55012Y-47734D01*
X55114Y-47692D01*
X55205Y-47624D01*
X55283Y-47532D01*
X55349Y-47415D01*
X55404Y-47273D01*
X55446Y-47106D01*
X55476Y-46914D01*
X55494Y-46698D01*
X55500Y-46456D01*
X57500Y-46973D01*
D02*
G37*
G36*
X22087Y-48664D02*
X21926Y-48832D01*
X21783Y-49000D01*
X21657Y-49167D01*
X21547Y-49333D01*
X21455Y-49499D01*
X21380Y-49663D01*
X21322Y-49827D01*
X21281Y-49990D01*
X21257Y-50152D01*
X21250Y-50314D01*
X19023Y-48086D01*
X19184Y-48080D01*
X19346Y-48056D01*
X19509Y-48014D01*
X19673Y-47956D01*
X19838Y-47881D01*
X20003Y-47789D01*
X20169Y-47680D01*
X20336Y-47553D01*
X20504Y-47410D01*
X20673Y-47249D01*
X22087Y-48664D01*
D02*
G37*
G36*
X-69662Y8337D02*
X-68670Y7674D01*
X-67500Y7441D01*
X-67499Y7441D01*
X-28681D01*
X-28155Y6171D01*
X-34163Y163D01*
X-34826Y-830D01*
X-35059Y-2000D01*
X-35059Y-2000D01*
Y-20000D01*
X-35059Y-20000D01*
X-34826Y-21170D01*
X-34163Y-22163D01*
X-27163Y-29163D01*
X-27163Y-29163D01*
X-26170Y-29826D01*
X-25000Y-30059D01*
X-25000Y-30059D01*
X-11226D01*
X-10200Y-31329D01*
X-10333Y-32000D01*
X-10003Y-33658D01*
X-9064Y-35064D01*
X-9060Y-35066D01*
X-9059Y-35078D01*
Y-52733D01*
X-12986Y-56661D01*
X-12996Y-56668D01*
X-13000Y-56667D01*
X-14658Y-56997D01*
X-16064Y-57936D01*
X-17003Y-59342D01*
X-17333Y-61000D01*
X-17332Y-61004D01*
X-17339Y-61013D01*
X-25663Y-69337D01*
X-26326Y-70329D01*
X-26559Y-71500D01*
X-26559Y-71500D01*
Y-109731D01*
X-28982Y-115598D01*
X-29244Y-116138D01*
X-29298Y-116209D01*
X-29415Y-116492D01*
X-29570Y-116810D01*
X-29571Y-116816D01*
X-29575Y-116821D01*
X-29612Y-116967D01*
X-30255Y-118520D01*
X-30582Y-121000D01*
X-30255Y-123480D01*
X-29298Y-125791D01*
X-27775Y-127775D01*
X-25791Y-129298D01*
X-23480Y-130255D01*
X-21000Y-130582D01*
X-18520Y-130255D01*
X-16209Y-129298D01*
X-14225Y-127775D01*
X-12702Y-125791D01*
X-11745Y-123480D01*
X-11418Y-121000D01*
X-11745Y-118520D01*
X-12702Y-116209D01*
X-14225Y-114225D01*
X-16209Y-112702D01*
X-16844Y-112439D01*
X-16927Y-112375D01*
X-17759Y-111960D01*
X-18438Y-111571D01*
X-19009Y-111188D01*
X-19472Y-110818D01*
X-19831Y-110470D01*
X-20092Y-110152D01*
X-20268Y-109868D01*
X-20376Y-109617D01*
X-20435Y-109385D01*
X-20441Y-109307D01*
Y-103865D01*
X-19171Y-103239D01*
X-17791Y-104298D01*
X-15480Y-105255D01*
X-13000Y-105582D01*
X-12682Y-105540D01*
X-11841Y-105544D01*
X-9922Y-105655D01*
X-9153Y-105751D01*
X-8467Y-105875D01*
X-7891Y-106020D01*
X-7429Y-106178D01*
X-7082Y-106336D01*
X-6851Y-106479D01*
X-6827Y-106499D01*
X-2163Y-111163D01*
X-2163Y-111163D01*
X-1424Y-111657D01*
X-1258Y-112667D01*
X-1303Y-113095D01*
X-2776Y-114225D01*
X-4298Y-116209D01*
X-5256Y-118520D01*
X-5582Y-121000D01*
X-5256Y-123480D01*
X-4298Y-125791D01*
X-2776Y-127775D01*
X-791Y-129298D01*
X1520Y-130255D01*
X4000Y-130582D01*
X4793Y-130478D01*
X4917Y-130494D01*
X6961Y-130358D01*
X7775Y-130359D01*
X8515Y-130402D01*
X9155Y-130483D01*
X9692Y-130594D01*
X10122Y-130726D01*
X10448Y-130869D01*
X10676Y-131008D01*
X10714Y-131040D01*
X17661Y-137986D01*
X17668Y-137996D01*
X17667Y-138000D01*
X17997Y-139658D01*
X18377Y-140227D01*
X17698Y-141497D01*
X-44077D01*
X-141770Y-43804D01*
X-141051Y-42727D01*
X-140827Y-42820D01*
X-139000Y-43060D01*
X-137173Y-42820D01*
X-135470Y-42115D01*
X-134008Y-40992D01*
X-132886Y-39530D01*
X-132183Y-37835D01*
X-126732Y-32383D01*
X-125775Y-33222D01*
X-125965Y-33470D01*
X-126670Y-35173D01*
X-126911Y-37000D01*
X-126670Y-38827D01*
X-125965Y-40530D01*
X-124843Y-41992D01*
X-123380Y-43115D01*
X-121678Y-43820D01*
X-119850Y-44060D01*
X-118023Y-43820D01*
X-116320Y-43115D01*
X-115581Y-42547D01*
X-114240D01*
X-113614Y-43818D01*
X-114115Y-44470D01*
X-114820Y-46173D01*
X-115060Y-48000D01*
X-114820Y-49827D01*
X-114115Y-51530D01*
X-112992Y-52993D01*
X-111530Y-54114D01*
X-109827Y-54820D01*
X-108000Y-55060D01*
X-106173Y-54820D01*
X-104470Y-54114D01*
X-103007Y-52993D01*
X-101885Y-51530D01*
X-101180Y-49827D01*
X-100940Y-48000D01*
X-101180Y-46173D01*
X-101885Y-44470D01*
X-102386Y-43818D01*
X-101760Y-42547D01*
X-100270D01*
X-97929Y-42082D01*
X-95944Y-40756D01*
X-74674Y-19486D01*
X-73348Y-17501D01*
X-72882Y-15160D01*
Y9761D01*
X-71613Y10287D01*
X-69662Y8337D01*
D02*
G37*
G36*
X-9913Y-59327D02*
X-10074Y-59496D01*
X-10217Y-59664D01*
X-10343Y-59831D01*
X-10453Y-59997D01*
X-10545Y-60162D01*
X-10620Y-60327D01*
X-10678Y-60491D01*
X-10719Y-60654D01*
X-10743Y-60816D01*
X-10750Y-60978D01*
X-12977Y-58750D01*
X-12816Y-58743D01*
X-12654Y-58719D01*
X-12491Y-58678D01*
X-12327Y-58620D01*
X-12162Y-58545D01*
X-11997Y-58453D01*
X-11831Y-58343D01*
X-11664Y-58217D01*
X-11496Y-58074D01*
X-11327Y-57913D01*
X-9913Y-59327D01*
D02*
G37*
G36*
X62256Y-60790D02*
X62311Y-60901D01*
X62388Y-60999D01*
X62488Y-61084D01*
X62612Y-61156D01*
X62759Y-61214D01*
X62929Y-61260D01*
X63122Y-61293D01*
X63338Y-61312D01*
X63577Y-61319D01*
X63173Y-63319D01*
X60562Y-63179D01*
X62225Y-60666D01*
X62256Y-60790D01*
D02*
G37*
G36*
X-13023Y-63250D02*
X-13184Y-63257D01*
X-13346Y-63281D01*
X-13509Y-63322D01*
X-13673Y-63380D01*
X-13838Y-63455D01*
X-14003Y-63547D01*
X-14169Y-63657D01*
X-14336Y-63783D01*
X-14504Y-63926D01*
X-14673Y-64087D01*
X-16087Y-62673D01*
X-15926Y-62504D01*
X-15783Y-62336D01*
X-15657Y-62169D01*
X-15547Y-62003D01*
X-15455Y-61838D01*
X-15380Y-61673D01*
X-15322Y-61509D01*
X-15281Y-61346D01*
X-15257Y-61184D01*
X-15250Y-61023D01*
X-13023Y-63250D01*
D02*
G37*
G36*
X707Y-62707D02*
X552Y-62872D01*
X419Y-63035D01*
X307Y-63196D01*
X216Y-63356D01*
X148Y-63513D01*
X101Y-63669D01*
X75Y-63822D01*
X71Y-63974D01*
X89Y-64124D01*
X129Y-64272D01*
X-2686Y-62857D01*
X-2561Y-62811D01*
X-2432Y-62752D01*
X-2298Y-62680D01*
X-2158Y-62595D01*
X-1864Y-62384D01*
X-1710Y-62258D01*
X-1216Y-61802D01*
X707Y-62707D01*
D02*
G37*
G36*
X45257Y-62184D02*
X45281Y-62346D01*
X45322Y-62509D01*
X45380Y-62673D01*
X45455Y-62838D01*
X45547Y-63003D01*
X45657Y-63169D01*
X45783Y-63336D01*
X45926Y-63504D01*
X46087Y-63673D01*
X44673Y-65087D01*
X44504Y-64926D01*
X44336Y-64783D01*
X44169Y-64657D01*
X44003Y-64547D01*
X43838Y-64455D01*
X43673Y-64380D01*
X43509Y-64322D01*
X43346Y-64281D01*
X43184Y-64257D01*
X43022Y-64250D01*
X45250Y-62023D01*
X45257Y-62184D01*
D02*
G37*
G36*
X-3059Y-57181D02*
Y-60727D01*
X-3103Y-60763D01*
X-3287Y-60895D01*
X-3314Y-60912D01*
X-3337Y-60924D01*
X-3388Y-60943D01*
X-3389Y-60943D01*
X-3658Y-60997D01*
X-5064Y-61936D01*
X-6003Y-63342D01*
X-6333Y-65000D01*
X-6003Y-66658D01*
X-5064Y-68064D01*
X-3658Y-69003D01*
X-2000Y-69333D01*
X-342Y-69003D01*
X1064Y-68064D01*
X2003Y-66658D01*
X2150Y-65923D01*
X3498Y-65655D01*
X3837Y-66163D01*
X18837Y-81163D01*
X18837Y-81163D01*
X19829Y-81826D01*
X21000Y-82059D01*
X65733D01*
X77088Y-93414D01*
X77109Y-93448D01*
X77124Y-93479D01*
X77132Y-93503D01*
X77137Y-93525D01*
X77140Y-93555D01*
X77139Y-93602D01*
X77132Y-93671D01*
X77094Y-93852D01*
X77093Y-94039D01*
X76902Y-95000D01*
X77290Y-96951D01*
X78395Y-98605D01*
X80049Y-99710D01*
X82000Y-100098D01*
X83951Y-99710D01*
X85605Y-98605D01*
X86710Y-96951D01*
X87098Y-95000D01*
X86710Y-93049D01*
X85605Y-91395D01*
X85234Y-91147D01*
X85502Y-89799D01*
X85951Y-89710D01*
X87605Y-88605D01*
X88710Y-86951D01*
X89098Y-85000D01*
X88710Y-83049D01*
X87605Y-81395D01*
X86009Y-80329D01*
X85991Y-80234D01*
X86420Y-79059D01*
X93093D01*
X93771Y-80329D01*
X93290Y-81049D01*
X92902Y-83000D01*
X93290Y-84951D01*
X94395Y-86605D01*
X96049Y-87710D01*
X97530Y-88005D01*
X98046Y-89285D01*
X65189Y-122142D01*
X64050Y-121580D01*
X64127Y-121000D01*
X63782Y-118379D01*
X62770Y-115937D01*
X61161Y-113839D01*
X59063Y-112230D01*
X56621Y-111218D01*
X55270Y-111041D01*
Y-121000D01*
X54000D01*
Y-122270D01*
X44041D01*
X44218Y-123621D01*
X45230Y-126063D01*
X46839Y-128161D01*
X48937Y-129770D01*
X51379Y-130782D01*
X54000Y-131127D01*
X54580Y-131050D01*
X55142Y-132189D01*
X45834Y-141497D01*
X26302D01*
X25623Y-140227D01*
X26003Y-139658D01*
X26333Y-138000D01*
X26003Y-136342D01*
X25064Y-134936D01*
X23658Y-133997D01*
X22000Y-133667D01*
X21996Y-133668D01*
X21986Y-133661D01*
X14911Y-126585D01*
X14908Y-126581D01*
X14765Y-126351D01*
X14592Y-125989D01*
X14409Y-125499D01*
X14226Y-124889D01*
X14061Y-124201D01*
X13613Y-121310D01*
X13503Y-120172D01*
X13449Y-119994D01*
X13255Y-118520D01*
X12298Y-116209D01*
X10775Y-114225D01*
X9608Y-113329D01*
X10039Y-112059D01*
X15733D01*
X18501Y-114827D01*
X18521Y-114851D01*
X18664Y-115083D01*
X18822Y-115429D01*
X18980Y-115891D01*
X19125Y-116468D01*
X19249Y-117153D01*
X19345Y-117922D01*
X19456Y-119841D01*
X19460Y-120682D01*
X19418Y-121000D01*
X19744Y-123480D01*
X20702Y-125791D01*
X22225Y-127775D01*
X24209Y-129298D01*
X26520Y-130255D01*
X29000Y-130582D01*
X31480Y-130255D01*
X33791Y-129298D01*
X35775Y-127775D01*
X37298Y-125791D01*
X38255Y-123480D01*
X38582Y-121000D01*
X38255Y-118520D01*
X37298Y-116209D01*
X35775Y-114225D01*
X33791Y-112702D01*
X31480Y-111744D01*
X29000Y-111418D01*
X28682Y-111460D01*
X27841Y-111456D01*
X25922Y-111345D01*
X25153Y-111249D01*
X24467Y-111125D01*
X23891Y-110979D01*
X23429Y-110822D01*
X23082Y-110664D01*
X22851Y-110521D01*
X22827Y-110501D01*
X19163Y-106837D01*
X18171Y-106174D01*
X17000Y-105941D01*
X16692Y-105714D01*
X16791Y-104298D01*
X18776Y-102775D01*
X20298Y-100791D01*
X21256Y-98480D01*
X21582Y-96000D01*
X21256Y-93520D01*
X20298Y-91209D01*
X18776Y-89225D01*
X16791Y-87702D01*
X14480Y-86744D01*
X12000Y-86418D01*
X9520Y-86744D01*
X7209Y-87702D01*
X5225Y-89225D01*
X3702Y-91209D01*
X2745Y-93520D01*
X2418Y-96000D01*
X2745Y-98480D01*
X3702Y-100791D01*
X5225Y-102775D01*
X7209Y-104298D01*
X8110Y-104671D01*
X7857Y-105941D01*
X1267D01*
X-2501Y-102173D01*
X-2521Y-102149D01*
X-2664Y-101917D01*
X-2822Y-101571D01*
X-2979Y-101109D01*
X-3125Y-100532D01*
X-3249Y-99847D01*
X-3345Y-99078D01*
X-3456Y-97159D01*
X-3460Y-96318D01*
X-3418Y-96000D01*
X-3744Y-93520D01*
X-4702Y-91209D01*
X-6224Y-89225D01*
X-8209Y-87702D01*
X-10520Y-86744D01*
X-13000Y-86418D01*
X-15480Y-86744D01*
X-17791Y-87702D01*
X-19171Y-88761D01*
X-20441Y-88135D01*
Y-72767D01*
X-13013Y-65339D01*
X-13004Y-65332D01*
X-13000Y-65333D01*
X-11342Y-65003D01*
X-9936Y-64064D01*
X-8997Y-62658D01*
X-8667Y-61000D01*
X-8668Y-60996D01*
X-8661Y-60986D01*
X-4329Y-56655D01*
X-3059Y-57181D01*
D02*
G37*
G36*
X168392Y-61410D02*
X168437Y-61546D01*
X168506Y-61665D01*
X168599Y-61769D01*
X168716Y-61856D01*
X168858Y-61928D01*
X169023Y-61984D01*
X169213Y-62023D01*
X169427Y-62047D01*
X169665Y-62055D01*
Y-63055D01*
X170372Y-62348D01*
X170509Y-62478D01*
X170634Y-62585D01*
X170749Y-62667D01*
X170852Y-62727D01*
X170945Y-62763D01*
X171028Y-62776D01*
X171099Y-62765D01*
X171160Y-62731D01*
X171210Y-62674D01*
X171249Y-62593D01*
X170167Y-65566D01*
X170183Y-65469D01*
X170169Y-65354D01*
X170125Y-65220D01*
X170049Y-65068D01*
X169944Y-64897D01*
X169808Y-64707D01*
X169444Y-64272D01*
X169247Y-64065D01*
X168650Y-64109D01*
X168368Y-64151D01*
X168115Y-64204D01*
X167891Y-64270D01*
X167696Y-64347D01*
X167529Y-64436D01*
X167390Y-64538D01*
X167281Y-64651D01*
X168372Y-61259D01*
X168392Y-61410D01*
D02*
G37*
G36*
X80496Y-66074D02*
X80664Y-66217D01*
X80831Y-66343D01*
X80997Y-66453D01*
X81162Y-66545D01*
X81327Y-66620D01*
X81491Y-66678D01*
X81654Y-66719D01*
X81816Y-66743D01*
X81978Y-66750D01*
X79750Y-68977D01*
X79743Y-68816D01*
X79719Y-68654D01*
X79678Y-68491D01*
X79620Y-68327D01*
X79545Y-68162D01*
X79453Y-67997D01*
X79343Y-67831D01*
X79217Y-67664D01*
X79074Y-67496D01*
X78913Y-67327D01*
X80327Y-65913D01*
X80496Y-66074D01*
D02*
G37*
G36*
X80550Y-82118D02*
X80767Y-82282D01*
X80986Y-82412D01*
X81207Y-82508D01*
X81429Y-82570D01*
X81652Y-82598D01*
X81877Y-82592D01*
X82103Y-82552D01*
X82331Y-82477D01*
X82559Y-82368D01*
X81296Y-86300D01*
X81183Y-86074D01*
X80929Y-85632D01*
X80789Y-85415D01*
X80315Y-84782D01*
X80139Y-84577D01*
X79761Y-84175D01*
X80333Y-81919D01*
X80550Y-82118D01*
D02*
G37*
G36*
X80385Y-90959D02*
X80591Y-91130D01*
X80810Y-91289D01*
X81041Y-91437D01*
X81284Y-91573D01*
X81538Y-91697D01*
X81805Y-91810D01*
X82375Y-92000D01*
X82678Y-92078D01*
X79092Y-94264D01*
X79149Y-93987D01*
X79178Y-93717D01*
X79179Y-93455D01*
X79153Y-93200D01*
X79099Y-92952D01*
X79016Y-92712D01*
X78906Y-92479D01*
X78768Y-92253D01*
X78603Y-92034D01*
X78409Y-91823D01*
X80190Y-90776D01*
X80385Y-90959D01*
D02*
G37*
G36*
X-5495Y-97223D02*
X-5377Y-99263D01*
X-5266Y-100156D01*
X-5119Y-100964D01*
X-4937Y-101687D01*
X-4719Y-102326D01*
X-4466Y-102879D01*
X-4178Y-103347D01*
X-3855Y-103731D01*
X-5269Y-105145D01*
X-5653Y-104822D01*
X-6121Y-104534D01*
X-6674Y-104281D01*
X-7312Y-104063D01*
X-8036Y-103881D01*
X-8844Y-103734D01*
X-9737Y-103623D01*
X-11777Y-103505D01*
X-12925Y-103500D01*
X-5500Y-96075D01*
X-5495Y-97223D01*
D02*
G37*
G36*
X-22453Y-109720D02*
X-22313Y-110274D01*
X-22080Y-110815D01*
X-21754Y-111341D01*
X-21334Y-111853D01*
X-20821Y-112351D01*
X-20215Y-112834D01*
X-19515Y-113304D01*
X-18722Y-113759D01*
X-17836Y-114200D01*
X-27735Y-117700D01*
X-27120Y-116433D01*
X-24532Y-110167D01*
X-24500Y-109867D01*
X-22500Y-109151D01*
X-22453Y-109720D01*
D02*
G37*
G36*
X21653Y-112178D02*
X22121Y-112466D01*
X22674Y-112719D01*
X23312Y-112937D01*
X24036Y-113119D01*
X24844Y-113266D01*
X25737Y-113377D01*
X27777Y-113495D01*
X28925Y-113500D01*
X21500Y-120925D01*
X21495Y-119777D01*
X21377Y-117737D01*
X21266Y-116844D01*
X21119Y-116036D01*
X20937Y-115312D01*
X20719Y-114674D01*
X20466Y-114121D01*
X20178Y-113653D01*
X19855Y-113269D01*
X21269Y-111855D01*
X21653Y-112178D01*
D02*
G37*
G36*
X11589Y-121565D02*
X12059Y-124595D01*
X12256Y-125419D01*
X12475Y-126150D01*
X12713Y-126787D01*
X12973Y-127331D01*
X13253Y-127782D01*
X13553Y-128139D01*
X12274Y-129688D01*
X11871Y-129348D01*
X11391Y-129056D01*
X10834Y-128812D01*
X10200Y-128617D01*
X9489Y-128469D01*
X8702Y-128371D01*
X7837Y-128320D01*
X6895Y-128318D01*
X4782Y-128459D01*
X11473Y-120368D01*
X11589Y-121565D01*
D02*
G37*
G36*
X20496Y-135074D02*
X20664Y-135217D01*
X20831Y-135343D01*
X20997Y-135453D01*
X21162Y-135545D01*
X21327Y-135620D01*
X21491Y-135678D01*
X21654Y-135719D01*
X21816Y-135743D01*
X21978Y-135750D01*
X19750Y-137978D01*
X19743Y-137816D01*
X19719Y-137654D01*
X19678Y-137491D01*
X19620Y-137327D01*
X19545Y-137162D01*
X19453Y-136997D01*
X19343Y-136831D01*
X19217Y-136664D01*
X19074Y-136496D01*
X18913Y-136327D01*
X20327Y-134913D01*
X20496Y-135074D01*
D02*
G37*
%LPC*%
G36*
X16770Y35602D02*
Y29434D01*
X18921D01*
X17169Y32877D01*
X17845Y32643D01*
X21042Y31755D01*
X21432Y31694D01*
X22090Y31645D01*
X22607Y30709D01*
X22086Y31967D01*
X20878Y33542D01*
X19303Y34750D01*
X17469Y35510D01*
X16770Y35602D01*
D02*
G37*
G36*
X22938Y26894D02*
X20346D01*
X20292Y26737D01*
X20213Y26894D01*
X16770D01*
Y24593D01*
X19000D01*
X18553Y24135D01*
X17799Y23237D01*
X17493Y22798D01*
X17234Y22365D01*
X17022Y21939D01*
X16857Y21518D01*
X16770Y21213D01*
Y20726D01*
X17469Y20818D01*
X19303Y21578D01*
X20878Y22786D01*
X22086Y24362D01*
X22846Y26196D01*
X22938Y26894D01*
D02*
G37*
G36*
X-44730Y-28369D02*
Y-31730D01*
X-41369D01*
X-41488Y-31131D01*
X-42547Y-29547D01*
X-44131Y-28488D01*
X-44730Y-28369D01*
D02*
G37*
G36*
X-47270D02*
X-47869Y-28488D01*
X-49453Y-29547D01*
X-50512Y-31131D01*
X-50631Y-31730D01*
X-47270D01*
Y-28369D01*
D02*
G37*
G36*
X-41369Y-34270D02*
X-44730D01*
Y-37631D01*
X-44131Y-37512D01*
X-42547Y-36453D01*
X-41488Y-34869D01*
X-41369Y-34270D01*
D02*
G37*
G36*
X-47270D02*
X-50631D01*
X-50512Y-34869D01*
X-49453Y-36453D01*
X-47869Y-37512D01*
X-47270Y-37631D01*
Y-34270D01*
D02*
G37*
G36*
X-43730Y-56562D02*
Y-62730D01*
X-37562D01*
X-37654Y-62032D01*
X-38414Y-60198D01*
X-39622Y-58622D01*
X-41198Y-57414D01*
X-43032Y-56654D01*
X-43730Y-56562D01*
D02*
G37*
G36*
X-46270D02*
X-46968Y-56654D01*
X-48802Y-57414D01*
X-50378Y-58622D01*
X-51586Y-60198D01*
X-52346Y-62032D01*
X-52438Y-62730D01*
X-46270D01*
Y-56562D01*
D02*
G37*
G36*
X-37562Y-65270D02*
X-43730D01*
Y-71438D01*
X-43032Y-71346D01*
X-41198Y-70586D01*
X-39622Y-69378D01*
X-38414Y-67803D01*
X-37654Y-65968D01*
X-37562Y-65270D01*
D02*
G37*
G36*
X-46270D02*
X-52438D01*
X-52346Y-65968D01*
X-51586Y-67803D01*
X-50378Y-69378D01*
X-48802Y-70586D01*
X-46968Y-71346D01*
X-46270Y-71438D01*
Y-65270D01*
D02*
G37*
G36*
X-36730Y-86041D02*
Y-94730D01*
X-28041D01*
X-28218Y-93379D01*
X-29230Y-90937D01*
X-30839Y-88839D01*
X-32937Y-87230D01*
X-35379Y-86218D01*
X-36730Y-86041D01*
D02*
G37*
G36*
X-39270D02*
X-40621Y-86218D01*
X-43063Y-87230D01*
X-45161Y-88839D01*
X-46770Y-90937D01*
X-47782Y-93379D01*
X-47959Y-94730D01*
X-39270D01*
Y-86041D01*
D02*
G37*
G36*
X-28041Y-97270D02*
X-36730D01*
Y-105959D01*
X-35379Y-105782D01*
X-32937Y-104770D01*
X-30839Y-103161D01*
X-29230Y-101063D01*
X-28218Y-98621D01*
X-28041Y-97270D01*
D02*
G37*
G36*
X-39270D02*
X-47959D01*
X-47782Y-98621D01*
X-46770Y-101063D01*
X-45161Y-103161D01*
X-43063Y-104770D01*
X-40621Y-105782D01*
X-39270Y-105959D01*
Y-97270D01*
D02*
G37*
G36*
X-46000Y-111418D02*
X-48480Y-111744D01*
X-50791Y-112702D01*
X-52776Y-114225D01*
X-54298Y-116209D01*
X-55255Y-118520D01*
X-55582Y-121000D01*
X-55255Y-123480D01*
X-54298Y-125791D01*
X-52776Y-127775D01*
X-50791Y-129298D01*
X-48480Y-130255D01*
X-46000Y-130582D01*
X-43520Y-130255D01*
X-41209Y-129298D01*
X-39225Y-127775D01*
X-37702Y-125791D01*
X-36745Y-123480D01*
X-36418Y-121000D01*
X-36745Y-118520D01*
X-37702Y-116209D01*
X-39225Y-114225D01*
X-41209Y-112702D01*
X-43520Y-111744D01*
X-46000Y-111418D01*
D02*
G37*
G36*
X62000Y-86418D02*
X59520Y-86744D01*
X57209Y-87702D01*
X55225Y-89225D01*
X53702Y-91209D01*
X52744Y-93520D01*
X52418Y-96000D01*
X52744Y-98480D01*
X53702Y-100791D01*
X55225Y-102775D01*
X57209Y-104298D01*
X59520Y-105255D01*
X62000Y-105582D01*
X64480Y-105255D01*
X66791Y-104298D01*
X68776Y-102775D01*
X70298Y-100791D01*
X71255Y-98480D01*
X71582Y-96000D01*
X71255Y-93520D01*
X70298Y-91209D01*
X68776Y-89225D01*
X66791Y-87702D01*
X64480Y-86744D01*
X62000Y-86418D01*
D02*
G37*
G36*
X37000D02*
X34520Y-86744D01*
X32209Y-87702D01*
X30225Y-89225D01*
X28702Y-91209D01*
X27745Y-93520D01*
X27418Y-96000D01*
X27745Y-98480D01*
X28702Y-100791D01*
X30225Y-102775D01*
X32209Y-104298D01*
X34520Y-105255D01*
X37000Y-105582D01*
X39480Y-105255D01*
X41791Y-104298D01*
X43776Y-102775D01*
X45298Y-100791D01*
X46255Y-98480D01*
X46582Y-96000D01*
X46255Y-93520D01*
X45298Y-91209D01*
X43776Y-89225D01*
X41791Y-87702D01*
X39480Y-86744D01*
X37000Y-86418D01*
D02*
G37*
G36*
X52730Y-111041D02*
X51379Y-111218D01*
X48937Y-112230D01*
X46839Y-113839D01*
X45230Y-115937D01*
X44218Y-118379D01*
X44041Y-119730D01*
X52730D01*
Y-111041D01*
D02*
G37*
%LPD*%
D15*
X-127450Y81750D02*
X-116470Y92730D01*
X-79792Y90900D02*
X-79200D01*
X-78342Y141657D02*
X-70000Y150000D01*
Y150000D01*
X-92343Y155657D02*
X-84000Y164000D01*
Y164000D01*
X-106342Y168657D02*
X-98000Y177000D01*
Y177000D01*
X-116470Y92730D02*
X-81622D01*
X-133174Y81750D02*
X-127450D01*
X-120409Y97300D02*
X-75100D01*
X-129709Y88000D02*
X-120409Y97300D01*
X-143000Y105000D02*
X-75800D01*
X-74400Y103600D01*
X-69400D01*
X27202Y50798D02*
X41088D01*
X26000Y52000D02*
X27202Y50798D01*
X-200800Y-19900D02*
X-200322Y-20378D01*
Y-22578D02*
Y-20378D01*
Y-22578D02*
X-175050Y-47850D01*
X-172850D01*
X-193521Y-22779D02*
X-172450Y-43850D01*
X-194000Y-20100D02*
X-193521Y-20578D01*
Y-22779D02*
Y-20578D01*
X-172450Y-43850D02*
X-170250D01*
X-187500Y-20977D02*
X-187466D01*
X-51887Y-156556D02*
X52071D01*
X-187466Y-20977D02*
X-51887Y-156556D01*
X-163300Y-26600D02*
Y-18100D01*
X-172722Y-22835D02*
Y-20057D01*
X-47001Y-148556D02*
X48758D01*
X-49044Y-152556D02*
X50415D01*
X-187500Y-20977D02*
Y-20300D01*
X-170250Y-43850D02*
X-53544Y-160556D01*
X-172850Y-47850D02*
X-56144Y-164556D01*
X55385D01*
X-53544Y-160556D02*
X53728D01*
X-180900Y-20677D02*
Y-20000D01*
Y-20677D02*
X-179650Y-21927D01*
X-173200Y-19578D02*
X-172722Y-20057D01*
X-45344Y-144556D02*
X47101D01*
X-172722Y-22835D02*
X-47001Y-148556D01*
X-179650Y-21950D02*
X-49044Y-152556D01*
X109400Y101000D02*
Y101400D01*
Y101000D02*
X139379Y71021D01*
X103000Y115300D02*
X143379Y74921D01*
Y-59592D02*
Y74921D01*
X139379Y-57935D02*
Y71021D01*
X129500Y105500D02*
Y105600D01*
Y105500D02*
X151379Y83621D01*
X90101Y111199D02*
Y123500D01*
X114600Y110400D02*
Y113400D01*
Y110400D02*
X147379Y77621D01*
X73200Y122601D02*
X74099Y123500D01*
X73200Y116600D02*
Y122601D01*
X55000Y114000D02*
X70600D01*
X73200Y116600D01*
X28000Y60000D02*
Y72000D01*
X112725Y74000D02*
Y76700D01*
X128000Y55000D02*
Y67081D01*
X86732Y108349D02*
X128000Y67081D01*
X90101Y111199D02*
X133600Y67700D01*
X54349Y108349D02*
X86732D01*
X128700Y36900D02*
X133600Y41800D01*
Y67700D01*
X114900Y36900D02*
X128700D01*
X119000Y48500D02*
X120500D01*
X121000Y48000D02*
X128000Y55000D01*
X120500Y48500D02*
X121000Y48000D01*
X114800Y36800D02*
X114900Y36900D01*
X82164Y25500D02*
X93157D01*
X104000Y14657D01*
X94650Y41250D02*
X97700Y44300D01*
X90920Y41250D02*
X94650D01*
X91475Y45500D02*
X98975Y53000D01*
X82164Y45500D02*
X91475D01*
X98975Y53000D02*
X99000D01*
X92900Y35900D02*
X93100D01*
X92719Y35719D02*
X92900Y35900D01*
X90773Y41103D02*
X90920Y41250D01*
X90678Y41103D02*
X90773D01*
X90472Y40897D02*
X90678Y41103D01*
X82383Y35719D02*
X92719D01*
X82164Y35500D02*
X82383Y35719D01*
X82561Y40897D02*
X90472D01*
X82164Y45500D02*
X82500Y45164D01*
X-160000Y108575D02*
Y114870D01*
Y108575D02*
X-133174Y81750D01*
X-146000Y102000D02*
X-143000Y105000D01*
X-132130Y89000D02*
X-131652Y88522D01*
X-130230D01*
X-129709Y88000D01*
X-118017Y157702D02*
X-117658Y157343D01*
X-122709Y157702D02*
X-118017D01*
X-123069Y157343D02*
X-122709Y157702D01*
X-125657Y157343D02*
X-123069D01*
X-131000Y152000D02*
X-125657Y157343D01*
X-103658Y144342D02*
X-89658Y130342D01*
X-89658D01*
X-117658Y157343D02*
X-116658D01*
X-103658Y144342D01*
X-78342Y141657D02*
Y141657D01*
X-131000Y152000D02*
Y154000D01*
X-130297Y154702D01*
X-64000Y31000D02*
X-61000D01*
X-63000Y53425D02*
X-49739Y40164D01*
X-63000Y53000D02*
Y53425D01*
X-62000Y61000D02*
X-46164Y45164D01*
X-2500D01*
X82164Y40500D02*
X82561Y40897D01*
X72500Y35500D02*
X82164D01*
X56386D02*
X72500D01*
X68000Y40000D02*
X72500Y35500D01*
X68000Y40000D02*
Y50425D01*
X79825Y62250D02*
X84250D01*
X68000Y50425D02*
X79825Y62250D01*
X84250D02*
X87000Y65000D01*
X80075Y67500D02*
X81750D01*
X78575Y69000D02*
X80075Y67500D01*
X87000Y65000D02*
Y71001D01*
X94492Y79001D02*
X95000D01*
X91174Y75683D02*
X94492Y79001D01*
X91174Y75175D02*
Y75683D01*
X87000Y71001D02*
X91174Y75175D01*
X44543Y53000D02*
X60000D01*
X42745Y54798D02*
X44543Y53000D01*
X81323Y74000D02*
X82000D01*
X79794Y75530D02*
X81323Y74000D01*
X64530Y75530D02*
X79794D01*
X67897Y69000D02*
X78575D01*
X80578Y80000D02*
X82578Y82000D01*
X63000Y80000D02*
X80578D01*
X57500Y74500D02*
X63000Y80000D01*
X82578Y82000D02*
X83000D01*
X66343Y89000D02*
X83000D01*
X67000Y96000D02*
X83000D01*
X82000Y50664D02*
X82164Y50500D01*
X82000Y50664D02*
Y57000D01*
X8000Y-4500D02*
X65500D01*
X-2164D02*
X8000D01*
X4147Y-14853D02*
X8000Y-11000D01*
Y-4500D01*
X-852Y-14853D02*
X4147D01*
X-1999Y-16000D02*
X-852Y-14853D01*
X-1999Y-16000D02*
X-1852Y-16147D01*
X-24897Y5103D02*
X-2561D01*
X-32000Y-20000D02*
X-25000Y-27000D01*
X-3250Y-26750D02*
X6000Y-36000D01*
X-32000Y-20000D02*
Y-2000D01*
X-25000Y-27000D02*
X-8425D01*
X27500Y65164D02*
Y73925D01*
X135000Y-56657D02*
Y5000D01*
X116000Y23000D02*
X116676D01*
X117888Y21788D01*
X118212D02*
X135000Y5000D01*
X117888Y21788D02*
X118212D01*
X147379Y-61249D02*
Y77621D01*
X151379Y-62906D02*
Y83621D01*
X155379Y-64563D02*
Y89621D01*
X130000Y115000D02*
X155379Y89621D01*
X106950Y19250D02*
Y26950D01*
X107000Y27000D02*
Y29000D01*
X106950Y26950D02*
X107000Y27000D01*
X106950Y19250D02*
X114800Y11400D01*
X107000Y29000D02*
X114800Y36800D01*
X-81622Y92730D02*
X-79792Y90900D01*
X-40000Y91000D02*
X-26000D01*
X42500Y65164D02*
Y81500D01*
X51000Y90000D01*
X55000Y122000D02*
X64000D01*
X40000Y107000D02*
X55000Y122000D01*
X-3000Y107000D02*
X40000D01*
X-37769Y72231D02*
X-3000Y107000D01*
X-39300Y66300D02*
X-37769Y67831D01*
Y72231D01*
X-18999Y141000D02*
X-10000D01*
X-1000Y132000D01*
X-13507Y147000D02*
X35500D01*
X-18999Y141508D02*
X-13507Y147000D01*
X-18999Y141000D02*
Y141508D01*
X-23500Y170000D02*
X35500D01*
X37499Y172000D01*
X79000D01*
X105809Y-2809D02*
X121324D01*
X126000Y-22000D02*
Y-7485D01*
X121324Y-2809D02*
X126000Y-7485D01*
X104000Y-1000D02*
X105809Y-2809D01*
X47101Y-144556D02*
X135000Y-56657D01*
X104000Y-1000D02*
Y14657D01*
X191000Y10400D02*
X192000D01*
X48758Y-148556D02*
X139379Y-57935D01*
X50415Y-152556D02*
X143379Y-59592D01*
X52071Y-156556D02*
X147379Y-61249D01*
X53728Y-160556D02*
X151379Y-62906D01*
X55385Y-164556D02*
X155379Y-64563D01*
X22500Y76500D02*
X54349Y108349D01*
X54825Y101250D02*
X88175D01*
X27500Y73925D02*
X54825Y101250D01*
X22500Y65164D02*
Y76500D01*
X-51500Y35500D02*
X-2164D01*
X-52000Y35000D02*
X-51500Y35500D01*
X-49739Y40164D02*
X-2499D01*
X12500Y65164D02*
X12897Y64767D01*
X12500Y65164D02*
Y77500D01*
X10000Y80000D02*
X12500Y77500D01*
X10000Y80000D02*
Y84999D01*
X-23500Y-118500D02*
X-21000Y-121000D01*
X-23500Y-118500D02*
Y-71500D01*
X-13000Y-61000D01*
X41088Y50798D02*
X56386Y35500D01*
X-3000Y-65000D02*
X0Y-62000D01*
X163379Y-61525D02*
X164909Y-63055D01*
X169665D01*
X172478Y-65868D01*
X175313D01*
X-1000Y116000D02*
Y132000D01*
X-70000Y13000D02*
Y61000D01*
X-26000Y91000D02*
X-1000Y116000D01*
X9761Y54897D02*
X9861Y54798D01*
X-15103Y54897D02*
X9761D01*
X15202Y54798D02*
X25500Y44500D01*
X9861Y54798D02*
X15202D01*
X-16000Y54000D02*
X-15103Y54897D01*
X-163300Y-26600D02*
X-45344Y-144556D01*
X-179650Y-21950D02*
Y-21927D01*
X22000Y-138000D02*
X22000D01*
X5000Y-121000D02*
X22000Y-138000D01*
X4000Y-121000D02*
X5000D01*
X82000Y-85000D02*
X84000D01*
X72000Y-75000D02*
X82000Y-85000D01*
X21000Y-79000D02*
X67000D01*
X82000Y-95000D02*
Y-94000D01*
X67000Y-79000D02*
X82000Y-94000D01*
X88175Y101250D02*
X112725Y76700D01*
X108902Y-71098D02*
X113000Y-67000D01*
X110000Y-76000D02*
X118750Y-67250D01*
X113000Y-67000D02*
Y-33612D01*
X80000Y-76000D02*
X110000D01*
X118750Y-67250D02*
Y-33705D01*
X93098Y-71098D02*
X108902D01*
X92500Y20500D02*
X100000Y13000D01*
Y-14955D02*
Y13000D01*
Y-14955D02*
X118750Y-33705D01*
X91500Y15500D02*
X95194Y11806D01*
Y-15806D02*
Y11806D01*
Y-15806D02*
X113000Y-33612D01*
X74625Y-70625D02*
X80000Y-76000D01*
X84319Y-62319D02*
X93098Y-71098D01*
X43000Y-62000D02*
X51625Y-70625D01*
X79319Y-66319D02*
X82000Y-69000D01*
X56500Y-48500D02*
Y-38835D01*
X55000Y-50000D02*
X56500Y-48500D01*
X52500Y-37500D02*
Y-19164D01*
X50000Y-40000D02*
X52500Y-37500D01*
X44750Y-53750D02*
X57319Y-66319D01*
X34000Y-42919D02*
X41897Y-35021D01*
X34000Y-44000D02*
Y-42919D01*
X47500Y-35075D02*
Y-19164D01*
X44750Y-37825D02*
X47500Y-35075D01*
X44750Y-53750D02*
Y-37825D01*
X41897Y-35021D02*
Y-19767D01*
X50000Y-40000D02*
X51000D01*
X57665Y-37669D02*
Y-19329D01*
X56500Y-38835D02*
X57665Y-37669D01*
X57500Y-19164D02*
X57665Y-19329D01*
X38522Y44522D02*
X39000Y45000D01*
X36754Y44522D02*
X38522D01*
X36732Y44500D02*
X36754Y44522D01*
X25500Y44500D02*
X36732D01*
X1999Y92492D02*
Y93000D01*
Y92492D02*
X5317Y89174D01*
X5825D01*
X10000Y84999D01*
X32500Y65164D02*
X32503Y65161D01*
Y56161D02*
Y65161D01*
Y56161D02*
X33866Y54798D01*
X42745D01*
X12342Y48000D02*
X13000D01*
X9841Y50500D02*
X12342Y48000D01*
X-2164Y50500D02*
X9841D01*
X-62000Y20000D02*
X-53425D01*
X-51175Y22250D01*
X-38750D01*
X-35000Y26000D01*
X82164Y15500D02*
X91500D01*
X-6000Y-54000D02*
Y-32000D01*
X-13000Y-61000D02*
X-6000Y-54000D01*
X0Y-62000D02*
Y-42000D01*
X6000Y-64000D02*
Y-36000D01*
Y-64000D02*
X21000Y-79000D01*
X-16000Y20000D02*
Y24000D01*
X-23500Y31500D02*
X-16000Y24000D01*
X-49000Y17000D02*
X-27000D01*
X-44500Y31500D02*
X-23500D01*
X-57000Y27000D02*
X-49000D01*
X-44500Y31500D01*
X-61000Y31000D02*
X-57000Y27000D01*
X-67500Y10500D02*
X-2164D01*
X-70000Y61000D02*
X-40000Y91000D01*
X179656Y-53934D02*
X180674Y-54952D01*
X51625Y-70625D02*
X74625D01*
X82164Y20500D02*
X92500D01*
X27000Y-75000D02*
X72000D01*
X12500Y-60500D02*
X27000Y-75000D01*
X52500Y-19164D02*
X52897Y-19561D01*
X57319Y-66319D02*
X79319D01*
X60000Y-61000D02*
X61319Y-62319D01*
X84319D01*
X89000Y-38999D02*
Y-25165D01*
X86000Y-22165D02*
X89000Y-25165D01*
X86000Y-22165D02*
Y-20000D01*
X89000Y-38999D02*
X105000D01*
X73000D02*
X89000D01*
X73000Y-38999D02*
X73000Y-38999D01*
X82164Y-14000D02*
Y-4500D01*
Y-14000D02*
X86000Y-17835D01*
Y-20000D02*
Y-17835D01*
X67500Y-19603D02*
Y-19164D01*
Y-19603D02*
X67897Y-20000D01*
X86000D01*
X124552Y-126552D02*
X126828Y-128828D01*
X47500Y65164D02*
Y76500D01*
X67000Y96000D01*
X57500Y65164D02*
Y74500D01*
X62897Y65561D02*
Y73897D01*
X52500Y75157D02*
X66343Y89000D01*
X62897Y73897D02*
X64530Y75530D01*
X52500Y65164D02*
Y75157D01*
X67500Y65164D02*
Y68603D01*
X67897Y69000D01*
X62500Y65164D02*
X62897Y65561D01*
X67500Y-19164D02*
Y-6500D01*
X65500Y-4500D02*
X67500Y-6500D01*
X25670Y-34000D02*
X32500Y-27170D01*
X20000Y-34000D02*
X25670D01*
X32500Y-27170D02*
Y-19164D01*
X41897Y-19767D02*
X42500Y-19164D01*
X37500Y-31836D02*
Y-19164D01*
X19000Y-50336D02*
X37500Y-31836D01*
X12500Y-60500D02*
Y-19164D01*
X-8425Y-27000D02*
X-8175Y-26750D01*
X160394Y-90631D02*
X162882Y-93118D01*
X-70000Y13000D02*
X-67500Y10500D01*
X-2561Y5103D02*
X-2164Y5500D01*
X-32000Y-2000D02*
X-24897Y5103D01*
X-8175Y-26750D02*
X-3250D01*
X-2500Y45164D02*
X-2164Y45500D01*
X-2499Y40164D02*
X-2164Y40500D01*
X42500Y-19164D02*
X42500Y-19164D01*
X37500D02*
X37500Y-19164D01*
X32500D02*
X32500Y-19164D01*
X191000Y10400D02*
Y11400D01*
X187800Y32800D02*
X188000D01*
X12000Y-96000D02*
X13328Y-94672D01*
X17000Y-109000D02*
X29000Y-121000D01*
X0Y-109000D02*
X17000D01*
X-13000Y-96000D02*
X0Y-109000D01*
X-103658Y144342D02*
X-103658D01*
X35500Y147000D02*
X38498Y149999D01*
D19*
X82164Y-4500D02*
D03*
Y500D02*
D03*
Y5500D02*
D03*
Y10500D02*
D03*
Y15500D02*
D03*
Y20500D02*
D03*
Y25500D02*
D03*
Y30500D02*
D03*
Y35500D02*
D03*
Y40500D02*
D03*
Y45500D02*
D03*
Y50500D02*
D03*
X-2164D02*
D03*
Y45500D02*
D03*
Y40500D02*
D03*
Y35500D02*
D03*
Y30500D02*
D03*
Y25500D02*
D03*
Y20500D02*
D03*
Y15500D02*
D03*
Y10500D02*
D03*
Y5500D02*
D03*
Y500D02*
D03*
Y-4500D02*
D03*
D20*
X67500Y65164D02*
D03*
X62500D02*
D03*
X57500D02*
D03*
X52500D02*
D03*
X47500D02*
D03*
X42500D02*
D03*
X37500D02*
D03*
X32500D02*
D03*
X27500D02*
D03*
X22500D02*
D03*
X17500D02*
D03*
X12500D02*
D03*
Y-19164D02*
D03*
X17500D02*
D03*
X22500D02*
D03*
X27500D02*
D03*
X32500D02*
D03*
X37500D02*
D03*
X42500D02*
D03*
X47500D02*
D03*
X52500D02*
D03*
X57500D02*
D03*
X62500D02*
D03*
X67500D02*
D03*
D21*
X18001Y93000D02*
D03*
X1999D02*
D03*
X-18999Y141000D02*
D03*
X-35001D02*
D03*
X74099Y123500D02*
D03*
X90101D02*
D03*
X-1999Y-16000D02*
D03*
X-18001D02*
D03*
D22*
X-78342Y141658D02*
D03*
X-89658Y130342D02*
D03*
X-103658Y144342D02*
D03*
X-92342Y155658D02*
D03*
X-106342Y168658D02*
D03*
X-117658Y157342D02*
D03*
D23*
X89000Y-38999D02*
D03*
Y-55001D02*
D03*
X105000D02*
D03*
Y-38999D02*
D03*
X73000Y-38999D02*
D03*
Y-55001D02*
D03*
X95000Y62999D02*
D03*
Y79001D02*
D03*
X64000Y162001D02*
D03*
Y145999D02*
D03*
D24*
X35500Y147000D02*
D03*
Y170000D02*
D03*
Y193000D02*
D03*
D25*
X-23500Y170000D02*
D03*
D35*
X-161489Y-85849D02*
D03*
X-132100Y-126300D02*
D03*
D49*
X98148Y-61345D02*
X104492Y-55001D01*
X98148Y-63099D02*
Y-61345D01*
X61729Y159730D02*
X64000Y162001D01*
X49790Y159730D02*
X61729D01*
X-51090Y141000D02*
X-35001D01*
X-51280Y141190D02*
X-51090Y141000D01*
X-35001D02*
Y141508D01*
X35500Y193000D02*
X36156Y192343D01*
X64000Y162001D02*
X65001Y161000D01*
X64000Y145999D02*
X83399D01*
X84000Y146600D01*
X167777Y106612D02*
X168018D01*
X89000Y-55001D02*
X104492D01*
X73000Y-55001D02*
X73000Y-55001D01*
X89000D01*
X26000Y93000D02*
X32000Y99000D01*
X-38000Y-96000D02*
X-35023D01*
X18001Y93000D02*
X26000D01*
D50*
X100100Y62300D02*
X105051Y57349D01*
X95699Y62300D02*
X100100D01*
X105051Y37951D02*
Y57349D01*
X97600Y30500D02*
X105051Y37951D01*
X82164Y30500D02*
X97600D01*
X95000Y62999D02*
X95699Y62300D01*
X-18001Y-3001D02*
X-14500Y500D01*
X-18001Y-16000D02*
Y-3001D01*
X-14500Y500D02*
X-2164D01*
X15500Y28164D02*
X17836Y30500D01*
X82164D01*
X-2164Y500D02*
X13157D01*
X15500Y2843D02*
Y28164D01*
X13157Y500D02*
X15500Y2843D01*
D51*
X-100270Y-36430D02*
X-79000Y-15160D01*
X-119850Y-37000D02*
X-119467Y-36617D01*
X-88970Y68930D02*
X-43250Y114650D01*
X-128500Y-25500D02*
X-103482D01*
X-89000Y-11018D02*
Y68142D01*
X-43250Y114650D02*
Y115750D01*
X-31000Y101000D02*
X-14000Y118000D01*
X-79000Y-15160D02*
Y64000D01*
X-42000Y101000D01*
X-31000D01*
X-118053Y-36617D02*
X-117866Y-36430D01*
X-119467Y-36617D02*
X-118053D01*
X-117866Y-36430D02*
X-100270D01*
X-43250Y115750D02*
X-39000Y120000D01*
X-89000Y68142D02*
X-88970Y68172D01*
Y68930D01*
X-103482Y-25500D02*
X-89000Y-11018D01*
X-139000Y-36000D02*
X-128500Y-25500D01*
D52*
X17500Y92499D02*
X18001Y93000D01*
X17500Y65164D02*
Y92499D01*
D53*
X-14000Y118000D02*
Y120000D01*
D54*
X72492Y-55001D02*
X73000D01*
X69374Y-51883D02*
Y-51375D01*
X62500Y-19164D02*
X62665Y-19329D01*
D55*
X69374Y-51883D02*
X72492Y-55001D01*
X62665Y-44666D02*
X69374Y-51375D01*
X62665Y-44666D02*
Y-19329D01*
D56*
X-26600Y66300D02*
D03*
D57*
X-39300D02*
D03*
X-52000D02*
D03*
D58*
X191000Y62200D02*
D03*
Y36800D02*
D03*
Y11400D02*
D03*
Y-14000D02*
D03*
X114800D02*
D03*
Y11400D02*
D03*
Y36800D02*
D03*
D59*
Y62200D02*
D03*
D60*
X84000Y172000D02*
D03*
X54000Y-121000D02*
D03*
X29000D02*
D03*
X4000D02*
D03*
X-21000D02*
D03*
X-46000D02*
D03*
X162882Y-93118D02*
D03*
X144921Y-111079D02*
D03*
X126960Y-129039D02*
D03*
X62000Y-96000D02*
D03*
X37000D02*
D03*
X12000D02*
D03*
X-13000D02*
D03*
X-38000D02*
D03*
D61*
X84000Y146600D02*
D03*
D62*
X-39000Y120000D02*
D03*
D63*
X-14000D02*
D03*
X11000D02*
D03*
X36000D02*
D03*
D64*
X175313Y-65868D02*
D03*
D65*
X163379Y-61525D02*
D03*
X179656Y-53934D02*
D03*
X184000Y-42000D02*
D03*
X172066Y-37656D02*
D03*
X167722Y-49591D02*
D03*
X98148Y-63099D02*
D03*
X-191600Y-51700D02*
D03*
X-121700Y38500D02*
D03*
X-122200Y1200D02*
D03*
X-122100Y19800D02*
D03*
X-131000Y152000D02*
D03*
X182000Y80000D02*
D03*
X-103000Y39000D02*
D03*
X-141000D02*
D03*
Y20000D02*
D03*
X-103000D02*
D03*
Y1000D02*
D03*
X-141000D02*
D03*
X-119850Y-37000D02*
D03*
X-108000Y-48000D02*
D03*
X-139000Y-36000D02*
D03*
X-45000Y-64000D02*
D03*
X-20000Y-198000D02*
D03*
X32000Y99000D02*
D03*
X86000Y-20000D02*
D03*
X-164000Y63000D02*
D03*
X15500Y28164D02*
D03*
D66*
X-91700Y-162200D02*
D03*
X123000Y141700D02*
D03*
D67*
X109000Y-147000D02*
D03*
D68*
X155000Y113000D02*
D03*
X168018Y106612D02*
D03*
X169569Y92193D02*
D03*
X-93620Y81870D02*
D03*
X-184000Y-78000D02*
D03*
X-196000Y34000D02*
D03*
D69*
X-79200Y90900D02*
D03*
X-75100Y97300D02*
D03*
X-69400Y103600D02*
D03*
X-163300Y-18100D02*
D03*
X-180900Y-20000D02*
D03*
X-173200Y-19578D02*
D03*
X-200800Y-19900D02*
D03*
X-194000Y-20100D02*
D03*
X-187500Y-20300D02*
D03*
X109400Y101400D02*
D03*
X129500Y105600D02*
D03*
X103000Y115300D02*
D03*
X114600Y113400D02*
D03*
X97700Y44300D02*
D03*
X93100Y35900D02*
D03*
X99000Y53000D02*
D03*
X-64000Y31000D02*
D03*
X-63000Y53000D02*
D03*
X-62000Y61000D02*
D03*
X81750Y67500D02*
D03*
X60000Y53000D02*
D03*
X82000Y74000D02*
D03*
X83000Y82000D02*
D03*
X83000Y89000D02*
D03*
X83000Y96000D02*
D03*
X82000Y57000D02*
D03*
X116000Y23000D02*
D03*
X126000Y1000D02*
D03*
X112725Y74000D02*
D03*
X130000Y115000D02*
D03*
X126000Y-22000D02*
D03*
X55000Y114000D02*
D03*
X-52000Y35000D02*
D03*
X10000Y80000D02*
D03*
X-46000Y-33000D02*
D03*
X22000Y-138000D02*
D03*
X43000Y-62000D02*
D03*
X82000Y-69000D02*
D03*
X55000Y-50000D02*
D03*
X50000Y-40000D02*
D03*
X26000Y52000D02*
D03*
X39000Y45000D02*
D03*
X-16000Y54000D02*
D03*
X13000Y48000D02*
D03*
X-35000Y26000D02*
D03*
X-13000Y-61000D02*
D03*
X-6000Y-32000D02*
D03*
X0Y-42000D02*
D03*
X-2000Y-65000D02*
D03*
X-16000Y20000D02*
D03*
X-27000Y17000D02*
D03*
X-49000D02*
D03*
X-62000Y20000D02*
D03*
X60000Y-61000D02*
D03*
X51000Y90000D02*
D03*
X19000Y-50336D02*
D03*
X34000Y-44000D02*
D03*
X20000Y-34000D02*
D03*
X-132130Y89000D02*
D03*
X-146000Y102000D02*
D03*
X-160000Y114870D02*
D03*
X-98000Y177000D02*
D03*
X-84000Y164000D02*
D03*
X-70000Y150000D02*
D03*
X64000Y122000D02*
D03*
D70*
X119000Y48500D02*
D03*
X98000Y-83000D02*
D03*
X84000Y-85000D02*
D03*
X82000Y-95000D02*
D03*
M02*
