G04*
G04 #@! TF.GenerationSoftware,Altium Limited,Altium Designer,20.0.7 (75)*
G04*
G04 Layer_Color=16711935*
%FSLAX44Y44*%
%MOMM*%
G71*
G01*
G75*
%ADD26R,1.1684X1.0668*%
%ADD27R,1.0668X1.1684*%
%ADD33R,1.2032X1.4732*%
%ADD34O,1.2032X1.4732*%
%ADD35C,1.7032*%
%ADD36R,1.7032X1.7032*%
%ADD37C,1.7272*%
%ADD38R,1.8532X1.8532*%
%ADD39C,1.8532*%
%ADD40P,1.7016X4X385.0*%
%ADD41C,1.2032*%
%ADD42R,1.5240X1.5240*%
%ADD43C,1.5240*%
%ADD44C,4.2032*%
%ADD45P,2.4087X4X90.0*%
%ADD46C,1.4732*%
%ADD47C,0.6532*%
%ADD48C,0.8032*%
%ADD88R,1.4732X0.2286*%
%ADD89R,0.2286X1.4732*%
%ADD90R,5.0038X5.0038*%
G04:AMPARAMS|DCode=93|XSize=3.0032mm|YSize=1.2032mm|CornerRadius=0mm|HoleSize=0mm|Usage=FLASHONLY|Rotation=42.000|XOffset=0mm|YOffset=0mm|HoleType=Round|Shape=Rectangle|*
%AMROTATEDRECTD93*
4,1,4,-0.7134,-1.4518,-1.5185,-0.5577,0.7134,1.4518,1.5185,0.5577,-0.7134,-1.4518,0.0*
%
%ADD93ROTATEDRECTD93*%

G04:AMPARAMS|DCode=94|XSize=1.0668mm|YSize=1.1684mm|CornerRadius=0mm|HoleSize=0mm|Usage=FLASHONLY|Rotation=135.000|XOffset=0mm|YOffset=0mm|HoleType=Round|Shape=Rectangle|*
%AMROTATEDRECTD94*
4,1,4,0.7903,0.0359,-0.0359,-0.7903,-0.7903,-0.0359,0.0359,0.7903,0.7903,0.0359,0.0*
%
%ADD94ROTATEDRECTD94*%

G04:AMPARAMS|DCode=95|XSize=1.0668mm|YSize=1.1684mm|CornerRadius=0mm|HoleSize=0mm|Usage=FLASHONLY|Rotation=125.000|XOffset=0mm|YOffset=0mm|HoleType=Round|Shape=Rectangle|*
%AMROTATEDRECTD95*
4,1,4,0.7845,-0.1018,-0.1726,-0.7720,-0.7845,0.1018,0.1726,0.7720,0.7845,-0.1018,0.0*
%
%ADD95ROTATEDRECTD95*%

%ADD96R,0.8532X1.4532*%
D26*
X99000Y14001D02*
D03*
Y-2001D02*
D03*
X130000Y46999D02*
D03*
Y63001D02*
D03*
Y17999D02*
D03*
Y34001D02*
D03*
X-185000Y70001D02*
D03*
Y53999D02*
D03*
X-135000Y-58999D02*
D03*
Y-75001D02*
D03*
X66000Y-10001D02*
D03*
Y6001D02*
D03*
X169000Y3001D02*
D03*
Y-13001D02*
D03*
X169000Y21999D02*
D03*
Y38001D02*
D03*
X-78000Y-47999D02*
D03*
Y-64001D02*
D03*
X-165100Y-52699D02*
D03*
Y-68701D02*
D03*
X-149600Y-52699D02*
D03*
Y-68701D02*
D03*
X-120000Y-58999D02*
D03*
Y-75001D02*
D03*
X-94000Y-64001D02*
D03*
Y-47999D02*
D03*
X-62000Y-47999D02*
D03*
Y-64001D02*
D03*
D27*
X126999Y-45000D02*
D03*
X143001Y-45000D02*
D03*
X-35000Y2000D02*
D03*
X-18998D02*
D03*
X-115999Y-94000D02*
D03*
X-132001D02*
D03*
X-106099Y-110700D02*
D03*
X-122101D02*
D03*
X-87999Y-128000D02*
D03*
X-104001D02*
D03*
X-35000Y-13000D02*
D03*
X-18998D02*
D03*
X-18999Y-43000D02*
D03*
X-35001D02*
D03*
X-67999Y-30000D02*
D03*
X-84001D02*
D03*
X-18998Y-28000D02*
D03*
X-35000D02*
D03*
X171001Y57000D02*
D03*
X154999D02*
D03*
X64000Y38000D02*
D03*
X47998D02*
D03*
X65999Y22000D02*
D03*
X82001D02*
D03*
X30001Y38000D02*
D03*
X13999D02*
D03*
D33*
X-26600Y66300D02*
D03*
D34*
X-39300D02*
D03*
X-52000D02*
D03*
D35*
X84000Y172000D02*
D03*
X54000Y-121000D02*
D03*
X29000D02*
D03*
X4000D02*
D03*
X-21000D02*
D03*
X-46000D02*
D03*
X162882Y-93118D02*
D03*
X144921Y-111079D02*
D03*
X126960Y-129039D02*
D03*
X62000Y-96000D02*
D03*
X37000D02*
D03*
X12000D02*
D03*
X-13000D02*
D03*
X-38000D02*
D03*
D36*
X84000Y146600D02*
D03*
D37*
X150000Y38000D02*
D03*
Y18000D02*
D03*
X-161489Y-85849D02*
D03*
X-132100Y-126300D02*
D03*
D38*
X-39000Y120000D02*
D03*
D39*
X-14000D02*
D03*
X11000D02*
D03*
X36000D02*
D03*
D40*
X175313Y-65868D02*
D03*
D41*
X163379Y-61525D02*
D03*
X179656Y-53934D02*
D03*
X184000Y-42000D02*
D03*
X172066Y-37656D02*
D03*
X167722Y-49591D02*
D03*
X98148Y-63099D02*
D03*
X-191600Y-51700D02*
D03*
X-121700Y38500D02*
D03*
X-122200Y1200D02*
D03*
X-122100Y19800D02*
D03*
X-131000Y152000D02*
D03*
X182000Y80000D02*
D03*
X-103000Y39000D02*
D03*
X-141000D02*
D03*
Y20000D02*
D03*
X-103000D02*
D03*
Y1000D02*
D03*
X-141000D02*
D03*
X-119850Y-37000D02*
D03*
X-108000Y-48000D02*
D03*
X-139000Y-36000D02*
D03*
X-45000Y-64000D02*
D03*
X-20000Y-198000D02*
D03*
X32000Y99000D02*
D03*
X86000Y-20000D02*
D03*
X-164000Y63000D02*
D03*
X15500Y28164D02*
D03*
D42*
X114800Y62200D02*
D03*
D43*
Y36800D02*
D03*
Y11400D02*
D03*
Y-14000D02*
D03*
X191000D02*
D03*
Y11400D02*
D03*
Y36800D02*
D03*
Y62200D02*
D03*
D44*
X-91700Y-162200D02*
D03*
X123000Y141700D02*
D03*
D45*
X109000Y-147000D02*
D03*
D46*
X155000Y113000D02*
D03*
X168018Y106612D02*
D03*
X169569Y92193D02*
D03*
X-93620Y81870D02*
D03*
X-184000Y-78000D02*
D03*
X-196000Y34000D02*
D03*
D47*
X-79200Y90900D02*
D03*
X-75100Y97300D02*
D03*
X-69400Y103600D02*
D03*
X-163300Y-18100D02*
D03*
X-180900Y-20000D02*
D03*
X-173200Y-19578D02*
D03*
X-200800Y-19900D02*
D03*
X-194000Y-20100D02*
D03*
X-187500Y-20300D02*
D03*
X109400Y101400D02*
D03*
X129500Y105600D02*
D03*
X103000Y115300D02*
D03*
X114600Y113400D02*
D03*
X97700Y44300D02*
D03*
X93100Y35900D02*
D03*
X99000Y53000D02*
D03*
X-64000Y31000D02*
D03*
X-63000Y53000D02*
D03*
X-62000Y61000D02*
D03*
X81750Y67500D02*
D03*
X60000Y53000D02*
D03*
X82000Y74000D02*
D03*
X83000Y82000D02*
D03*
X83000Y89000D02*
D03*
X83000Y96000D02*
D03*
X82000Y57000D02*
D03*
X116000Y23000D02*
D03*
X126000Y1000D02*
D03*
X112725Y74000D02*
D03*
X130000Y115000D02*
D03*
X126000Y-22000D02*
D03*
X55000Y114000D02*
D03*
X-52000Y35000D02*
D03*
X10000Y80000D02*
D03*
X-46000Y-33000D02*
D03*
X22000Y-138000D02*
D03*
X43000Y-62000D02*
D03*
X82000Y-69000D02*
D03*
X55000Y-50000D02*
D03*
X50000Y-40000D02*
D03*
X26000Y52000D02*
D03*
X39000Y45000D02*
D03*
X-16000Y54000D02*
D03*
X13000Y48000D02*
D03*
X-35000Y26000D02*
D03*
X-13000Y-61000D02*
D03*
X-6000Y-32000D02*
D03*
X0Y-42000D02*
D03*
X-2000Y-65000D02*
D03*
X-16000Y20000D02*
D03*
X-27000Y17000D02*
D03*
X-49000D02*
D03*
X-62000Y20000D02*
D03*
X60000Y-61000D02*
D03*
X51000Y90000D02*
D03*
X19000Y-50336D02*
D03*
X34000Y-44000D02*
D03*
X20000Y-34000D02*
D03*
X-132130Y89000D02*
D03*
X-146000Y102000D02*
D03*
X-160000Y114870D02*
D03*
X-98000Y177000D02*
D03*
X-84000Y164000D02*
D03*
X-70000Y150000D02*
D03*
X64000Y122000D02*
D03*
D48*
X119000Y48500D02*
D03*
X98000Y-83000D02*
D03*
X84000Y-85000D02*
D03*
X82000Y-95000D02*
D03*
D88*
X-163148Y-7500D02*
D03*
Y-2500D02*
D03*
Y2500D02*
D03*
Y7500D02*
D03*
Y12500D02*
D03*
Y17500D02*
D03*
Y22500D02*
D03*
Y27500D02*
D03*
Y32500D02*
D03*
Y37500D02*
D03*
Y42500D02*
D03*
Y47500D02*
D03*
X-80852D02*
D03*
Y42500D02*
D03*
Y37500D02*
D03*
Y32500D02*
D03*
Y27500D02*
D03*
Y22500D02*
D03*
Y17500D02*
D03*
Y12500D02*
D03*
Y7500D02*
D03*
Y2500D02*
D03*
Y-2500D02*
D03*
Y-7500D02*
D03*
D89*
X-149500Y61148D02*
D03*
X-144500D02*
D03*
X-139500D02*
D03*
X-134500D02*
D03*
X-129500D02*
D03*
X-124500D02*
D03*
X-119500D02*
D03*
X-114500D02*
D03*
X-109500D02*
D03*
X-104500D02*
D03*
X-99500D02*
D03*
X-94500D02*
D03*
Y-21148D02*
D03*
X-99500D02*
D03*
X-104500D02*
D03*
X-109500D02*
D03*
X-114500D02*
D03*
X-119500D02*
D03*
X-124500D02*
D03*
X-129500D02*
D03*
X-134500D02*
D03*
X-139500D02*
D03*
X-144500D02*
D03*
X-149500D02*
D03*
D90*
X-122000Y20000D02*
D03*
D93*
X-113800Y165236D02*
D03*
X-146498Y135794D02*
D03*
X-101087Y151116D02*
D03*
X-133785Y121674D02*
D03*
X-88373Y136996D02*
D03*
X-121072Y107554D02*
D03*
D94*
X137658Y-88658D02*
D03*
X126343Y-77342D02*
D03*
X137343Y-66342D02*
D03*
X148657Y-77658D02*
D03*
D95*
X141411Y96554D02*
D03*
X150589Y83446D02*
D03*
D96*
X47400Y-4500D02*
D03*
X38000D02*
D03*
X28600D02*
D03*
Y20500D02*
D03*
X47400D02*
D03*
M02*
