G04*
G04 #@! TF.GenerationSoftware,Altium Limited,Altium Designer,20.0.7 (75)*
G04*
G04 Layer_Color=65535*
%FSLAX44Y44*%
%MOMM*%
G71*
G01*
G75*
%ADD10C,0.2500*%
%ADD11C,0.2540*%
%ADD12C,0.0254*%
%ADD13C,0.1270*%
%ADD14C,0.2000*%
%ADD15C,0.1000*%
%ADD16C,0.1524*%
%ADD17C,0.0762*%
%ADD18C,0.1530*%
G36*
X25595Y-29070D02*
X29405D01*
Y-31610D01*
X25595D01*
Y-29070D01*
D02*
G37*
G36*
X-12070Y23595D02*
X-14610D01*
Y27405D01*
X-12070D01*
Y23595D01*
D02*
G37*
G36*
X30595Y75070D02*
X34405D01*
Y77610D01*
X30595D01*
Y75070D01*
D02*
G37*
G36*
X92070Y38595D02*
X94610D01*
Y42405D01*
X92070D01*
Y38595D01*
D02*
G37*
D10*
X36750Y136500D02*
G03*
X36750Y136500I-1250J0D01*
G01*
D11*
X-144929Y-151856D02*
G03*
X-103831Y-121996I18119J18274D01*
G01*
X-148787Y-60119D02*
G03*
X-189886Y-89978I-17992J-18449D01*
G01*
X-189973Y-89857D02*
X-145184Y-151504D01*
X-148875Y-59998D02*
X-104086Y-121645D01*
D12*
X-118798Y92382D02*
X-118544D01*
X-125402Y92128D02*
X-124894D01*
X-119306D02*
X-118798D01*
X-125402Y91874D02*
X-124640D01*
X-119306D02*
X-118798D01*
X-125402Y91620D02*
X-124640D01*
X-119306D02*
X-118798D01*
X-125402Y91366D02*
X-124640D01*
X-119560D02*
X-118798D01*
X-125148Y91112D02*
X-124640D01*
X-119560D02*
X-118798D01*
X-125148Y90858D02*
X-124640D01*
X-119560D02*
X-118798D01*
X-125148Y90604D02*
X-124386D01*
X-119814D02*
X-119052D01*
X-125148Y90350D02*
X-124386D01*
X-119814D02*
X-119052D01*
X-124894Y90096D02*
X-124386D01*
X-119814D02*
X-119052D01*
X-124894Y89842D02*
X-124132D01*
X-119814D02*
X-119052D01*
X-127180Y89588D02*
X-126672D01*
X-124894D02*
X-124132D01*
X-119814D02*
X-119052D01*
X-117020D02*
X-116766D01*
X-127180Y89334D02*
X-126418D01*
X-124894D02*
X-124132D01*
X-120068D02*
X-119052D01*
X-117528D02*
X-116766D01*
X-127180Y89080D02*
X-126418D01*
X-124894D02*
X-124132D01*
X-120068D02*
X-119306D01*
X-117528D02*
X-116766D01*
X-126926Y88826D02*
X-126164D01*
X-124640D02*
X-123878D01*
X-120068D02*
X-119306D01*
X-117782D02*
X-117020D01*
X-126926Y88572D02*
X-126164D01*
X-124640D02*
X-123878D01*
X-120068D02*
X-119306D01*
X-117782D02*
X-117020D01*
X-126672Y88318D02*
X-125910D01*
X-124640D02*
X-123878D01*
X-120322D02*
X-119306D01*
X-117782D02*
X-117274D01*
X-126672Y88064D02*
X-125910D01*
X-124640D02*
X-123624D01*
X-120322D02*
X-119560D01*
X-118036D02*
X-117274D01*
X-126418Y87810D02*
X-125656D01*
X-124640D02*
X-123624D01*
X-120322D02*
X-119560D01*
X-118290D02*
X-117528D01*
X-126418Y87556D02*
X-125656D01*
X-124386D02*
X-123624D01*
X-120322D02*
X-119560D01*
X-118290D02*
X-117528D01*
X-126164Y87302D02*
X-125402D01*
X-124386D02*
X-123624D01*
X-120576D02*
X-119560D01*
X-118544D02*
X-117782D01*
X-126164Y87048D02*
X-125402D01*
X-124386D02*
X-123624D01*
X-120576D02*
X-119814D01*
X-118544D02*
X-117782D01*
X-126164Y86794D02*
X-125148D01*
X-124386D02*
X-123370D01*
X-120576D02*
X-119814D01*
X-118798D02*
X-117782D01*
X-125910Y86540D02*
X-125148D01*
X-124132D02*
X-123370D01*
X-120576D02*
X-119814D01*
X-119052D02*
X-118036D01*
X-125910Y86286D02*
X-124894D01*
X-124132D02*
X-123370D01*
X-120830D02*
X-120068D01*
X-119052D02*
X-118036D01*
X-125656Y86032D02*
X-124894D01*
X-124132D02*
X-123370D01*
X-120830D02*
X-120068D01*
X-119052D02*
X-118290D01*
X-125656Y85778D02*
X-124640D01*
X-124132D02*
X-123116D01*
X-120830D02*
X-120068D01*
X-119306D02*
X-118544D01*
X-125402Y85524D02*
X-124640D01*
X-124132D02*
X-123116D01*
X-120830D02*
X-120068D01*
X-119306D02*
X-118544D01*
X-125148Y85270D02*
X-124386D01*
X-123878D02*
X-123116D01*
X-122100D02*
X-121846D01*
X-121084D02*
X-120068D01*
X-119560D02*
X-118798D01*
X-125148Y85016D02*
X-124132D01*
X-123878D02*
X-122862D01*
X-122608D02*
X-121338D01*
X-121084D02*
X-120322D01*
X-119814D02*
X-118798D01*
X-124894Y84762D02*
X-124132D01*
X-123624D02*
X-122862D01*
X-122608D02*
X-122100D01*
X-121846D02*
X-121338D01*
X-121084D02*
X-120322D01*
X-119814D02*
X-119052D01*
X-124894Y84508D02*
X-123878D01*
X-123624D02*
X-120322D01*
X-120068D02*
X-119052D01*
X-124640Y84254D02*
X-123624D01*
X-123370D02*
X-120576D01*
X-120322D02*
X-119306D01*
X-124386Y84000D02*
X-123624D01*
X-123370D02*
X-119560D01*
X-124132Y83746D02*
X-123370D01*
X-123116D02*
X-119560D01*
X-123878Y83492D02*
X-120068D01*
X-123624Y83238D02*
X-120322D01*
X-123370Y82984D02*
X-120576D01*
X-123116Y82730D02*
X-120830D01*
X-124132Y82476D02*
X-120068D01*
X-119306D02*
X-119052D01*
X-124640Y82222D02*
X-119560D01*
X-124894Y81968D02*
X-123370D01*
X-123116D02*
X-119052D01*
X-125148Y81714D02*
X-123878D01*
X-123370D02*
X-120576D01*
X-120068D02*
X-118798D01*
X-125656Y81460D02*
X-124386D01*
X-123624D02*
X-120068D01*
X-119814D02*
X-118544D01*
X-125910Y81206D02*
X-124894D01*
X-123878D02*
X-119814D01*
X-119052D02*
X-118036D01*
X-126418Y80952D02*
X-125148D01*
X-124386D02*
X-119560D01*
X-118798D02*
X-117782D01*
X-126418Y80698D02*
X-125402D01*
X-124640D02*
X-119306D01*
X-118544D02*
X-117528D01*
X-126672Y80444D02*
X-125656D01*
X-124894D02*
X-119052D01*
X-118290D02*
X-117528D01*
X-126926Y80190D02*
X-126164D01*
X-125656D02*
X-125402D01*
X-124894D02*
X-118798D01*
X-118036D02*
X-117020D01*
X-127180Y79936D02*
X-126418D01*
X-125656D02*
X-124386D01*
X-124132D02*
X-119814D01*
X-119560D02*
X-118544D01*
X-117782D02*
X-116766D01*
X-127434Y79682D02*
X-126672D01*
X-125402D02*
X-124640D01*
X-124132D02*
X-119814D01*
X-119306D02*
X-118290D01*
X-117528D02*
X-116512D01*
X-127688Y79428D02*
X-126926D01*
X-125402D02*
X-124640D01*
X-124132D02*
X-119560D01*
X-119052D02*
X-118290D01*
X-117274D02*
X-116258D01*
X-127942Y79174D02*
X-127180D01*
X-125656D02*
X-124894D01*
X-124132D02*
X-119560D01*
X-119052D02*
X-118290D01*
X-116766D02*
X-116004D01*
X-128450Y78920D02*
X-127434D01*
X-125656D02*
X-124894D01*
X-124132D02*
X-119814D01*
X-118798D02*
X-118290D01*
X-116512D02*
X-115750D01*
X-128450Y78666D02*
X-127688D01*
X-125910D02*
X-125148D01*
X-124132D02*
X-119814D01*
X-118798D02*
X-118036D01*
X-116258D02*
X-115496D01*
X-128450Y78412D02*
X-127942D01*
X-125910D02*
X-125148D01*
X-123878D02*
X-120068D01*
X-118798D02*
X-118036D01*
X-116004D02*
X-115496D01*
X-126164Y78158D02*
X-125148D01*
X-123878D02*
X-120068D01*
X-118798D02*
X-117782D01*
X-126164Y77904D02*
X-125402D01*
X-123624D02*
X-120322D01*
X-118544D02*
X-117782D01*
X-126164Y77650D02*
X-125402D01*
X-123370D02*
X-120576D01*
X-118544D02*
X-117782D01*
X-126164Y77396D02*
X-125402D01*
X-123116D02*
X-120830D01*
X-118544D02*
X-117782D01*
X-126164Y77142D02*
X-125656D01*
X-122608D02*
X-121084D01*
X-118290D02*
X-117782D01*
X-126418Y76888D02*
X-125656D01*
X-122100D02*
X-121592D01*
X-118290D02*
X-117528D01*
X-126418Y76634D02*
X-125656D01*
X-118290D02*
X-117528D01*
X-126418Y76380D02*
X-125656D01*
X-118290D02*
X-117528D01*
X-126672Y76126D02*
X-125910D01*
X-118290D02*
X-117528D01*
X-126672Y75872D02*
X-125910D01*
X-118036D02*
X-117274D01*
X-126672Y75618D02*
X-125910D01*
X-118036D02*
X-117274D01*
X-126926Y75364D02*
X-125910D01*
X-118036D02*
X-117274D01*
X-126926Y75110D02*
X-126164D01*
X-117782D02*
X-117020D01*
X-126926Y74856D02*
X-126164D01*
X-117782D02*
X-117020D01*
X-126926Y74602D02*
X-126672D01*
X-117528D02*
X-117020D01*
D13*
X57400Y168100D02*
X70700D01*
X57400Y139800D02*
Y168100D01*
Y139800D02*
X70700D01*
Y168100D01*
X-24100Y-22600D02*
Y-9300D01*
Y-22600D02*
X4200D01*
Y-9300D01*
X-24100D02*
X4200D01*
X88300Y56900D02*
X101600D01*
Y85200D01*
X88300D02*
X101600D01*
X88300Y56900D02*
Y85200D01*
X68000Y116900D02*
Y130200D01*
Y116900D02*
X96300D01*
Y130200D01*
X68000D02*
X96300D01*
X179487Y-74821D02*
X192953Y-37825D01*
X167891Y-28704D02*
X192953Y-37825D01*
X154426Y-65699D02*
X167891Y-28704D01*
X154426Y-65699D02*
X179487Y-74821D01*
X66300Y-61100D02*
X79600D01*
Y-32800D01*
X66300D02*
X79600D01*
X66300Y-61100D02*
Y-32800D01*
X98300Y-61100D02*
X111600D01*
Y-32800D01*
X98300D02*
X111600D01*
X98300Y-61100D02*
Y-32800D01*
X82300Y-61100D02*
X95600D01*
Y-32800D01*
X82300D02*
X95600D01*
X82300Y-61100D02*
Y-32800D01*
X-41100Y147700D02*
X-12800D01*
Y134400D02*
Y147700D01*
X-41100Y134400D02*
X-12800D01*
X-41100D02*
Y147700D01*
X-117303Y148222D02*
X-97292Y168233D01*
X-126708Y157626D02*
X-117303Y148222D01*
X-126708Y157626D02*
X-106697Y177637D01*
X-97292Y168233D01*
X-103303Y135222D02*
X-83292Y155233D01*
X-112708Y144626D02*
X-103303Y135222D01*
X-112708Y144626D02*
X-92697Y164637D01*
X-83292Y155233D01*
X-89303Y121222D02*
X-69292Y141233D01*
X-98708Y130626D02*
X-89303Y121222D01*
X-98708Y130626D02*
X-78697Y150637D01*
X-69292Y141233D01*
X-4200Y86300D02*
X24100D01*
X-4200D02*
Y99600D01*
X24100D01*
Y86300D02*
Y99600D01*
X175372Y-75759D02*
X174574Y-77951D01*
X174973Y-76855D01*
X168398Y-74462D01*
X169892Y-73765D01*
X157202Y-69212D02*
X155834Y-72969D01*
X160960Y-70579D01*
X161899Y-70921D01*
X162496Y-72203D01*
X161813Y-74081D01*
X160531Y-74679D01*
X179941Y-26131D02*
X178318Y-27668D01*
X175755Y-28863D01*
X173876Y-28179D01*
X173279Y-26898D01*
X173963Y-25019D01*
X175244Y-24421D01*
X176183Y-24763D01*
X176781Y-26045D01*
X175755Y-28863D01*
X191875Y-30475D02*
X190507Y-34232D01*
X187689Y-33206D01*
X189312Y-31669D01*
X189654Y-30730D01*
X189057Y-29449D01*
X187178Y-28765D01*
X185897Y-29362D01*
X185213Y-31241D01*
X185810Y-32522D01*
D14*
X19000Y136500D02*
Y203500D01*
X-7000Y136500D02*
Y203500D01*
Y136500D02*
X19000D01*
X-7000Y203500D02*
X19000D01*
X-127436Y59400D02*
X-134100D01*
X-127436Y66065D01*
Y67731D01*
X-129102Y69397D01*
X-132434D01*
X-134100Y67731D01*
X-124103D02*
X-122437Y69397D01*
X-119105D01*
X-117439Y67731D01*
Y61066D01*
X-119105Y59400D01*
X-122437D01*
X-124103Y61066D01*
Y67731D01*
X-107442Y59400D02*
X-114107D01*
X-107442Y66065D01*
Y67731D01*
X-109108Y69397D01*
X-112440D01*
X-114107Y67731D01*
X-104110D02*
X-102444Y69397D01*
X-99111D01*
X-97445Y67731D01*
Y61066D01*
X-99111Y59400D01*
X-102444D01*
X-104110Y61066D01*
Y67731D01*
X-101139Y85297D02*
X-107803D01*
Y75300D01*
X-101139D01*
X-107803Y80298D02*
X-104471D01*
X-97806Y75300D02*
Y81965D01*
X-96140D01*
X-94474Y80298D01*
Y75300D01*
Y80298D01*
X-92808Y81965D01*
X-91142Y80298D01*
Y75300D01*
X-87810D02*
X-84477D01*
X-86144D01*
Y81965D01*
X-87810D01*
X-79479Y75300D02*
X-76147D01*
X-77813D01*
Y85297D01*
X-79479D01*
X-66150Y75300D02*
X-69482D01*
X-71148Y76966D01*
Y80298D01*
X-69482Y81965D01*
X-66150D01*
X-64484Y80298D01*
Y78632D01*
X-71148D01*
X-88600Y69397D02*
Y62732D01*
X-85268Y59400D01*
X-81936Y62732D01*
Y69397D01*
X-78603Y59400D02*
X-75271D01*
X-76937D01*
Y69397D01*
X-78603Y67731D01*
X-168400Y69397D02*
X-161735D01*
X-165068D01*
Y59400D01*
X-151739Y67731D02*
X-153405Y69397D01*
X-156737D01*
X-158403Y67731D01*
Y66065D01*
X-156737Y64398D01*
X-153405D01*
X-151739Y62732D01*
Y61066D01*
X-153405Y59400D01*
X-156737D01*
X-158403Y61066D01*
X-143408Y69397D02*
X-146740D01*
X-148406Y67731D01*
Y61066D01*
X-146740Y59400D01*
X-143408D01*
X-141742Y61066D01*
Y67731D01*
X-143408Y69397D01*
X-173800Y85697D02*
Y75700D01*
X-167136D01*
X-163803Y82365D02*
Y77366D01*
X-162137Y75700D01*
X-157139D01*
Y82365D01*
X-153806Y75700D02*
Y85697D01*
Y79032D02*
X-148808Y82365D01*
X-153806Y79032D02*
X-148808Y75700D01*
X-142143Y82365D02*
X-138811D01*
X-137145Y80698D01*
Y75700D01*
X-142143D01*
X-143810Y77366D01*
X-142143Y79032D01*
X-137145D01*
D15*
X78500Y-210000D02*
Y-96000D01*
X-70500D02*
X78500D01*
X-70500Y-210000D02*
Y-96000D01*
Y-210000D02*
X78500D01*
D16*
X112260Y-26700D02*
X193540D01*
Y-23601D01*
X112260Y74900D02*
X193540D01*
X112260Y72132D02*
Y74900D01*
Y46401D02*
Y52269D01*
Y21001D02*
Y27199D01*
Y-4399D02*
Y1799D01*
Y-26700D02*
Y-23601D01*
X193540Y-4399D02*
Y1799D01*
Y21001D02*
Y27199D01*
Y46401D02*
Y52599D01*
Y71801D02*
Y74900D01*
X72225Y60338D02*
X77338D01*
X2662Y55224D02*
Y60338D01*
Y-14338D02*
X7776D01*
X77338D02*
Y-9225D01*
Y55224D02*
Y60338D01*
X2662D02*
X7776D01*
X2662Y-14338D02*
Y-9225D01*
X72225Y-14338D02*
X77338D01*
D17*
X111625Y80654D02*
X120089Y72190D01*
X111625D02*
X120089Y80654D01*
X111625Y76422D02*
X120089D01*
X115857Y72190D02*
Y80654D01*
X99055Y-15040D02*
X90591Y-6576D01*
X99055D02*
X90591Y-15040D01*
X99055Y-10808D02*
X90591D01*
X94823Y-6576D02*
Y-15040D01*
D18*
X66233Y186365D02*
X67599Y187731D01*
Y190464D01*
X66233Y191830D01*
X60767D01*
X59401Y190464D01*
Y187731D01*
X60767Y186365D01*
X59401Y178167D02*
Y183632D01*
X64866Y178167D01*
X66233D01*
X67599Y179534D01*
Y182266D01*
X66233Y183632D01*
Y175435D02*
X67599Y174069D01*
Y171336D01*
X66233Y169970D01*
X64866D01*
X63500Y171336D01*
Y172703D01*
Y171336D01*
X62134Y169970D01*
X60767D01*
X59401Y171336D01*
Y174069D01*
X60767Y175435D01*
X-42365Y-12767D02*
X-43731Y-11401D01*
X-46464D01*
X-47830Y-12767D01*
Y-18233D01*
X-46464Y-19599D01*
X-43731D01*
X-42365Y-18233D01*
X-34167Y-19599D02*
X-39632D01*
X-34167Y-14134D01*
Y-12767D01*
X-35534Y-11401D01*
X-38266D01*
X-39632Y-12767D01*
X-25970Y-19599D02*
X-31435D01*
X-25970Y-14134D01*
Y-12767D01*
X-27336Y-11401D01*
X-30069D01*
X-31435Y-12767D01*
X90767Y91901D02*
X89401Y90535D01*
Y87803D01*
X90767Y86436D01*
X96232D01*
X97599Y87803D01*
Y90535D01*
X96232Y91901D01*
X97599Y100099D02*
Y94634D01*
X92134Y100099D01*
X90767D01*
X89401Y98733D01*
Y96000D01*
X90767Y94634D01*
X97599Y102831D02*
Y105564D01*
Y104197D01*
X89401D01*
X90767Y102831D01*
X98553Y119901D02*
Y128099D01*
X102652D01*
X104018Y126733D01*
Y124000D01*
X102652Y122634D01*
X98553D01*
X101286D02*
X104018Y119901D01*
X106751D02*
X109483D01*
X108117D01*
Y128099D01*
X106751Y126733D01*
X113582D02*
X114948Y128099D01*
X117681D01*
X119047Y126733D01*
Y125366D01*
X117681Y124000D01*
X119047Y122634D01*
Y121268D01*
X117681Y119901D01*
X114948D01*
X113582Y121268D01*
Y122634D01*
X114948Y124000D01*
X113582Y125366D01*
Y126733D01*
X114948Y124000D02*
X117681D01*
X-32300Y191168D02*
Y196632D01*
X-33666Y197999D01*
X-36399D01*
X-37765Y196632D01*
Y191168D01*
X-36399Y189801D01*
X-33666D01*
X-35032Y192534D02*
X-32300Y189801D01*
X-33666D02*
X-32300Y191168D01*
X-29568Y189801D02*
X-26835D01*
X-28201D01*
Y197999D01*
X-29568Y196632D01*
X-142298Y-50379D02*
X-143404Y-51182D01*
X-144008Y-54999D01*
X-140192Y-55603D01*
X-139086Y-54800D01*
X-144008Y-54999D02*
X-147324Y-57408D01*
X-144112Y-61829D02*
X-142506Y-64040D01*
X-143309Y-62934D01*
X-136677Y-58116D01*
X-138586Y-57814D01*
X-65366Y-86601D02*
X-68099D01*
X-66733D01*
Y-93433D01*
X-68099Y-94799D01*
X-69465D01*
X-70831Y-93433D01*
X-62634Y-87968D02*
X-61267Y-86601D01*
X-58535D01*
X-57169Y-87968D01*
Y-89334D01*
X-58535Y-90700D01*
X-59901D01*
X-58535D01*
X-57169Y-92066D01*
Y-93433D01*
X-58535Y-94799D01*
X-61267D01*
X-62634Y-93433D01*
X110169Y87099D02*
Y80268D01*
X111535Y78901D01*
X114268D01*
X115634Y80268D01*
Y87099D01*
X118366Y85732D02*
X119733Y87099D01*
X122465D01*
X123831Y85732D01*
Y84366D01*
X122465Y83000D01*
X121099D01*
X122465D01*
X123831Y81634D01*
Y80268D01*
X122465Y78901D01*
X119733D01*
X118366Y80268D01*
X76432Y-68234D02*
X77799Y-66867D01*
Y-64135D01*
X76432Y-62769D01*
X70967D01*
X69601Y-64135D01*
Y-66867D01*
X70967Y-68234D01*
X69601Y-75065D02*
X77799D01*
X73700Y-70966D01*
Y-76431D01*
X108232Y-68234D02*
X109599Y-66867D01*
Y-64135D01*
X108232Y-62769D01*
X102767D01*
X101401Y-64135D01*
Y-66867D01*
X102767Y-68234D01*
X108232Y-70966D02*
X109599Y-72332D01*
Y-75065D01*
X108232Y-76431D01*
X106866D01*
X105500Y-75065D01*
Y-73699D01*
Y-75065D01*
X104134Y-76431D01*
X102767D01*
X101401Y-75065D01*
Y-72332D01*
X102767Y-70966D01*
X91632Y-68234D02*
X92999Y-66867D01*
Y-64135D01*
X91632Y-62769D01*
X86167D01*
X84801Y-64135D01*
Y-66867D01*
X86167Y-68234D01*
X84801Y-76431D02*
Y-70966D01*
X90266Y-76431D01*
X91632D01*
X92999Y-75065D01*
Y-72332D01*
X91632Y-70966D01*
X-3965Y70699D02*
Y63868D01*
X-2599Y62501D01*
X134D01*
X1500Y63868D01*
Y70699D01*
X4232Y62501D02*
X6965D01*
X5599D01*
Y70699D01*
X4232Y69332D01*
X-63647Y137301D02*
Y145499D01*
X-59548D01*
X-58182Y144132D01*
Y141400D01*
X-59548Y140034D01*
X-63647D01*
X-60914D02*
X-58182Y137301D01*
X-55449D02*
X-52717D01*
X-54083D01*
Y145499D01*
X-55449Y144132D01*
X-48618D02*
X-47252Y145499D01*
X-44520D01*
X-43153Y144132D01*
Y138667D01*
X-44520Y137301D01*
X-47252D01*
X-48618Y138667D01*
Y144132D01*
X-93768Y186929D02*
X-87971Y181132D01*
X-90870Y178234D01*
X-92802D01*
X-94734Y180166D01*
X-94734Y182098D01*
X-91836Y184996D01*
X-93768Y183064D02*
X-97632D01*
X-93768Y175336D02*
X-97632Y171471D01*
X-98598Y172437D01*
Y180166D01*
X-99564Y181132D01*
X-80268Y174629D02*
X-74472Y168832D01*
X-77370Y165934D01*
X-79302D01*
X-81234Y167866D01*
X-81234Y169798D01*
X-78336Y172696D01*
X-80268Y170764D02*
X-84132D01*
Y159171D02*
X-83166Y162070D01*
Y165934D01*
X-85098Y167866D01*
X-87030D01*
X-88962Y165934D01*
Y164002D01*
X-87996Y163036D01*
X-86064Y163036D01*
X-83166Y165934D01*
X-66268Y160728D02*
X-60472Y154932D01*
X-63370Y152034D01*
X-65302D01*
X-67234Y153966D01*
X-67234Y155898D01*
X-64336Y158796D01*
X-66268Y156864D02*
X-70132D01*
Y145271D02*
X-66268Y149136D01*
X-69166Y152034D01*
X-70132Y149136D01*
X-71098Y148170D01*
X-73030D01*
X-74963Y150102D01*
Y152034D01*
X-73030Y153966D01*
X-71098D01*
X-366Y105732D02*
X-1733Y107099D01*
X-4465D01*
X-5831Y105732D01*
Y100267D01*
X-4465Y98901D01*
X-1733D01*
X-366Y100267D01*
X7831Y107099D02*
X5099Y105732D01*
X2366Y103000D01*
Y100267D01*
X3733Y98901D01*
X6465D01*
X7831Y100267D01*
Y101634D01*
X6465Y103000D01*
X2366D01*
M02*
