G04*
G04 #@! TF.GenerationSoftware,Altium Limited,Altium Designer,20.0.7 (75)*
G04*
G04 Layer_Color=32896*
%FSLAX44Y44*%
%MOMM*%
G71*
G01*
G75*
%ADD11C,0.2540*%
%ADD12C,0.2000*%
%ADD13C,0.1000*%
%ADD14C,0.1270*%
%ADD15C,0.1524*%
%ADD16C,0.0762*%
G36*
X-173054Y35595D02*
X-175594D01*
Y39405D01*
X-173054D01*
Y35595D01*
D02*
G37*
G36*
X-112595Y71054D02*
X-116405D01*
Y73594D01*
X-112595D01*
Y71054D01*
D02*
G37*
G36*
X-107595Y-31054D02*
X-111405D01*
Y-33594D01*
X-107595D01*
Y-31054D01*
D02*
G37*
G36*
X-70946Y20595D02*
X-68406D01*
Y24405D01*
X-70946D01*
Y20595D01*
D02*
G37*
D11*
X97460Y125618D02*
X87303D01*
X92382Y130697D02*
Y120540D01*
X-146497Y-44001D02*
Y-49999D01*
X-143498D01*
X-142499Y-48999D01*
Y-47000D01*
X-143498Y-46000D01*
X-146497D01*
X-144498D02*
X-142499Y-44001D01*
X-140499D02*
X-138500D01*
X-139500D01*
Y-49999D01*
X-140499Y-48999D01*
X-132502Y-44001D02*
Y-49999D01*
X-135501Y-47000D01*
X-131502D01*
X58502Y-20001D02*
Y-25999D01*
X61501D01*
X62501Y-24999D01*
Y-23000D01*
X61501Y-22000D01*
X58502D01*
X60502D02*
X62501Y-20001D01*
X64500D02*
X66500D01*
X65500D01*
Y-25999D01*
X64500Y-24999D01*
X69499D02*
X70498Y-25999D01*
X72498D01*
X73498Y-24999D01*
Y-24000D01*
X72498Y-23000D01*
X71498D01*
X72498D01*
X73498Y-22000D01*
Y-21001D01*
X72498Y-20001D01*
X70498D01*
X69499Y-21001D01*
D12*
X-126849Y88867D02*
G03*
X-128264Y90281I-707J707D01*
G01*
D02*
G03*
X-126849Y88867I707J-707D01*
G01*
X149073Y122571D02*
G03*
X148500Y123391I-287J410D01*
G01*
D02*
G03*
X149073Y122571I287J-410D01*
G01*
X96700Y133900D02*
Y184700D01*
X71300Y133900D02*
X96700D01*
X71300D02*
Y184700D01*
X96700D01*
X-63500Y120000D02*
Y212000D01*
X-39000D01*
X60500D01*
Y96500D02*
Y212000D01*
X-63500Y96500D02*
X60500D01*
X-63500D02*
Y120000D01*
X91039Y-147000D02*
X109000Y-164960D01*
X180842Y-93118D01*
X91039Y-147000D02*
X162882Y-75158D01*
X180842Y-93118D01*
X52480Y5250D02*
Y10750D01*
X23520D02*
X52480D01*
X23520Y5250D02*
Y10750D01*
Y5250D02*
X52480D01*
X53140Y-10750D02*
Y1750D01*
X183637Y-95466D02*
X182223D01*
X180810Y-96879D01*
X180810Y-98293D01*
X181517Y-99000D01*
X182930D01*
X183637Y-98293D01*
X182930Y-99000D01*
Y-100414D01*
X183637Y-101121D01*
X185051D01*
X186465Y-99707D01*
Y-98293D01*
X182930Y-103241D02*
X182223Y-102534D01*
X181517Y-103241D01*
X182223Y-103948D01*
X182930Y-103241D01*
X175861D02*
X174448Y-103241D01*
X173034Y-104655D01*
Y-106069D01*
X173741Y-106776D01*
X175155D01*
X175861Y-106069D01*
X175155Y-106776D01*
Y-108189D01*
X175861Y-108896D01*
X177275D01*
X178689Y-107483D01*
Y-106069D01*
X172327Y-108189D02*
X173741Y-112431D01*
X169500Y-111017D01*
X144810Y-135293D02*
X144810Y-133879D01*
X146223Y-132466D01*
X147637D01*
X148344Y-133173D01*
Y-134586D01*
X146930Y-136000D01*
Y-137414D01*
X147637Y-138121D01*
X149051D01*
X150465Y-136707D01*
Y-135293D01*
X142689Y-136000D02*
X146930Y-140241D01*
X144103D01*
X144103Y-143069D01*
X139861Y-138827D01*
X136327Y-143776D02*
X136327Y-142362D01*
X137741Y-140948D01*
X139155D01*
X141982Y-143776D01*
Y-145189D01*
X140568Y-146603D01*
X139155D01*
X134206Y-144482D02*
X138448Y-148724D01*
X135620Y-151551D01*
X129965Y-148724D02*
X134206Y-152965D01*
X132793Y-151551D01*
X127138D01*
X131379D01*
Y-155793D01*
X163810Y-116293D02*
X163810Y-114879D01*
X165223Y-113466D01*
X166637D01*
X167344Y-114172D01*
Y-115586D01*
X165930Y-117000D01*
Y-118414D01*
X166637Y-119121D01*
X168051D01*
X169465Y-117707D01*
Y-116293D01*
X161689Y-117000D02*
X165930Y-121241D01*
X163103D01*
X163103Y-124069D01*
X158862Y-119827D01*
X157448Y-121241D02*
X156034Y-122655D01*
X156741Y-121948D01*
X160982Y-126189D01*
X161689Y-125483D01*
X160275Y-126896D01*
X151793Y-126896D02*
X153207Y-125483D01*
X154620Y-125483D01*
X157448Y-128310D01*
Y-129724D01*
X156034Y-131138D01*
X154620D01*
X151793Y-128310D01*
Y-126896D01*
X158000Y-48000D02*
X156001D01*
X157000D01*
Y-42002D01*
X158000Y-43002D01*
X184000Y-70668D02*
X190665D01*
X187332Y-67336D02*
Y-74000D01*
X189000Y-57002D02*
X190000Y-56002D01*
X191999D01*
X192999Y-57002D01*
Y-61000D01*
X191999Y-62000D01*
X190000D01*
X189000Y-61000D01*
Y-57002D01*
X121502Y8999D02*
Y3001D01*
X124501D01*
X125501Y4001D01*
Y6000D01*
X124501Y7000D01*
X121502D01*
X123502D02*
X125501Y8999D01*
X127500D02*
X129500D01*
X128500D01*
Y3001D01*
X127500Y4001D01*
X132499Y3001D02*
X136497D01*
Y4001D01*
X132499Y7999D01*
Y8999D01*
X122502Y77999D02*
Y72001D01*
X125501D01*
X126501Y73001D01*
Y75000D01*
X125501Y76000D01*
X122502D01*
X124502D02*
X126501Y77999D01*
X128500D02*
X130500D01*
X129500D01*
Y72001D01*
X128500Y73001D01*
X137498Y72001D02*
X135498Y73001D01*
X133499Y75000D01*
Y76999D01*
X134499Y77999D01*
X136498D01*
X137498Y76999D01*
Y76000D01*
X136498Y75000D01*
X133499D01*
X137496Y-29679D02*
Y-35677D01*
X140495D01*
X141495Y-34678D01*
Y-32678D01*
X140495Y-31679D01*
X137496D01*
X139496D02*
X141495Y-29679D01*
X143494Y-34678D02*
X144494Y-35677D01*
X146493D01*
X147493Y-34678D01*
Y-33678D01*
X146493Y-32678D01*
X145494D01*
X146493D01*
X147493Y-31679D01*
Y-30679D01*
X146493Y-29679D01*
X144494D01*
X143494Y-30679D01*
X129362Y89853D02*
X127970Y90099D01*
X126823Y91736D01*
X127069Y93129D01*
X130344Y95422D01*
X131736Y95177D01*
X132883Y93539D01*
X132638Y92147D01*
X134603Y91082D02*
X135750Y89445D01*
X135177Y90264D01*
X130264Y86823D01*
X130509Y88215D01*
X-189498Y84999D02*
Y79001D01*
X-186499D01*
X-185499Y80001D01*
Y82000D01*
X-186499Y83000D01*
X-189498D01*
X-187498D02*
X-185499Y84999D01*
X-183500D02*
X-181500D01*
X-182500D01*
Y79001D01*
X-183500Y80001D01*
X-174502Y79001D02*
X-178501D01*
Y82000D01*
X-176502Y81000D01*
X-175502D01*
X-174502Y82000D01*
Y83999D01*
X-175502Y84999D01*
X-177501D01*
X-178501Y83999D01*
X142003Y7999D02*
Y2001D01*
X145002D01*
X146001Y3001D01*
Y5000D01*
X145002Y6000D01*
X142003D01*
X144002D02*
X146001Y7999D01*
X151999Y3001D02*
X151000Y2001D01*
X149000D01*
X148001Y3001D01*
Y4000D01*
X149000Y5000D01*
X151000D01*
X151999Y6000D01*
Y6999D01*
X151000Y7999D01*
X149000D01*
X148001Y6999D01*
X153999Y2001D02*
X157997D01*
X155998D01*
Y7999D01*
X-9498Y-11001D02*
Y-16999D01*
X-6499D01*
X-5499Y-15999D01*
Y-14000D01*
X-6499Y-13000D01*
X-9498D01*
X-7498D02*
X-5499Y-11001D01*
X-3499D02*
X-1500D01*
X-2500D01*
Y-16999D01*
X-3499Y-15999D01*
X5498Y-11001D02*
X1499D01*
X5498Y-15000D01*
Y-15999D01*
X4498Y-16999D01*
X2499D01*
X1499Y-15999D01*
X23002Y-21999D02*
Y-17001D01*
X24001Y-16001D01*
X26001D01*
X27000Y-17001D01*
Y-21999D01*
X31999Y-16001D02*
Y-21999D01*
X29000Y-19000D01*
X32998D01*
X-64000Y89001D02*
X-65999D01*
X-64999D01*
Y93999D01*
X-65999Y94999D01*
X-66999D01*
X-67998Y93999D01*
X-58002Y89001D02*
X-60001Y90001D01*
X-62000Y92000D01*
Y93999D01*
X-61001Y94999D01*
X-59001D01*
X-58002Y93999D01*
Y93000D01*
X-59001Y92000D01*
X-62000D01*
X81000Y-68999D02*
X79001D01*
X80001D01*
Y-64001D01*
X79001Y-63001D01*
X78001D01*
X77002Y-64001D01*
X86998Y-63001D02*
X83000D01*
X86998Y-67000D01*
Y-67999D01*
X85999Y-68999D01*
X83999D01*
X83000Y-67999D01*
X-8998Y62001D02*
Y66999D01*
X-7999Y67999D01*
X-5999D01*
X-5000Y66999D01*
Y62001D01*
X998D02*
X-1001Y63001D01*
X-3000Y65000D01*
Y66999D01*
X-2001Y67999D01*
X-1D01*
X998Y66999D01*
Y66000D01*
X-1Y65000D01*
X-3000D01*
X131676Y114374D02*
X135771Y117241D01*
X137163Y116996D01*
X138310Y115358D01*
X138064Y113966D01*
X133970Y111099D01*
X137410Y106185D02*
X135117Y109461D01*
X137573Y111181D01*
X137901Y108970D01*
X138475Y108151D01*
X139867Y107906D01*
X141505Y109052D01*
X141750Y110445D01*
X140604Y112082D01*
X139211Y112328D01*
X-87998Y60001D02*
Y64999D01*
X-86999Y65999D01*
X-84999D01*
X-84000Y64999D01*
Y60001D01*
X-78002Y65999D02*
X-82000D01*
X-78002Y62000D01*
Y61001D01*
X-79001Y60001D01*
X-81001D01*
X-82000Y61001D01*
X-10498Y-41001D02*
Y-46999D01*
X-7499D01*
X-6499Y-45999D01*
Y-44000D01*
X-7499Y-43000D01*
X-10498D01*
X-8498D02*
X-6499Y-41001D01*
X-4500D02*
X-2501D01*
X-3500D01*
Y-46999D01*
X-4500Y-45999D01*
X499Y-41001D02*
X2498D01*
X1498D01*
Y-46999D01*
X499Y-45999D01*
X126586Y-52345D02*
X122345Y-56586D01*
X124466Y-58707D01*
X125879Y-58707D01*
X127293Y-57293D01*
Y-55879D01*
X125173Y-53759D01*
X126586Y-55173D02*
X129414Y-55173D01*
X130121Y-57293D02*
X131534D01*
X132948Y-58707D01*
Y-60121D01*
X130121Y-62948D01*
X128707Y-62948D01*
X127293Y-61534D01*
Y-60121D01*
X128000Y-59414D01*
X129414D01*
X131534Y-61534D01*
X-96998Y-108001D02*
Y-113999D01*
X-93999D01*
X-93000Y-112999D01*
Y-111000D01*
X-93999Y-110000D01*
X-96998D01*
X-94999D02*
X-93000Y-108001D01*
X-91000Y-112999D02*
X-90001Y-113999D01*
X-88001D01*
X-87002Y-112999D01*
Y-112000D01*
X-88001Y-111000D01*
X-87002Y-110000D01*
Y-109001D01*
X-88001Y-108001D01*
X-90001D01*
X-91000Y-109001D01*
Y-110000D01*
X-90001Y-111000D01*
X-91000Y-112000D01*
Y-112999D01*
X-90001Y-111000D02*
X-88001D01*
X115586Y-61345D02*
X111345Y-65586D01*
X113466Y-67707D01*
X114879Y-67707D01*
X116293Y-66293D01*
Y-64879D01*
X114172Y-62759D01*
X115586Y-64173D02*
X118414Y-64172D01*
X121948Y-67707D02*
X117707Y-71948D01*
Y-67707D01*
X120534Y-70534D01*
X-7998Y4999D02*
Y-999D01*
X-4999D01*
X-4000Y1D01*
Y2000D01*
X-4999Y3000D01*
X-7998D01*
X-5999D02*
X-4000Y4999D01*
X1998D02*
X-2000D01*
X1998Y1000D01*
Y1D01*
X999Y-999D01*
X-1001D01*
X-2000Y1D01*
X178001Y-16999D02*
X183999D01*
Y-14000D01*
X182999Y-13000D01*
X181000D01*
X180000Y-14000D01*
Y-16999D01*
Y-14999D02*
X178001Y-13000D01*
Y-11001D02*
Y-9001D01*
Y-10001D01*
X183999D01*
X182999Y-11001D01*
X193524Y-45035D02*
X194207Y-43156D01*
X193866Y-44096D01*
X198563Y-45805D01*
X199844Y-45208D01*
X200186Y-44268D01*
X199588Y-42987D01*
X191472Y-50671D02*
X192840Y-46914D01*
X195658Y-47939D01*
X194035Y-49476D01*
X193693Y-50416D01*
X194290Y-51697D01*
X196169Y-52381D01*
X197451Y-51783D01*
X198134Y-49904D01*
X197537Y-48623D01*
X77000Y130999D02*
X78999D01*
X77999D01*
Y126001D01*
X78999Y125001D01*
X79999D01*
X80998Y126001D01*
X72001Y125001D02*
Y130999D01*
X75000Y128000D01*
X71002D01*
X124121Y-163121D02*
X122707Y-164534D01*
X123414Y-163827D01*
X119879Y-160293D01*
X118466D01*
X117759Y-161000D01*
Y-162414D01*
X121293Y-157466D02*
X122707Y-156052D01*
X122000Y-156759D01*
X126241Y-161000D01*
X124827D01*
X-112707Y84625D02*
X-116948Y88867D01*
X-114827Y90987D01*
X-113414D01*
X-110586Y88160D01*
X-110586Y86746D01*
X-112707Y84625D01*
Y93108D02*
X-111293Y94522D01*
X-112000Y93815D01*
X-107759Y89574D01*
X-109172D01*
X182999Y24001D02*
X183999Y23002D01*
Y21002D01*
X182999Y20003D01*
X179001D01*
X178001Y21002D01*
Y23002D01*
X179001Y24001D01*
X178001Y29999D02*
Y26001D01*
X182000Y29999D01*
X182999D01*
X183999Y29000D01*
Y27000D01*
X182999Y26001D01*
Y31999D02*
X183999Y32998D01*
Y34998D01*
X182999Y35997D01*
X179001D01*
X178001Y34998D01*
Y32998D01*
X179001Y31999D01*
X182999D01*
X-79499Y-76999D02*
X-80499Y-77999D01*
X-82498D01*
X-83497Y-76999D01*
Y-73001D01*
X-82498Y-72001D01*
X-80499D01*
X-79499Y-73001D01*
X-77499Y-72001D02*
X-75500D01*
X-76500D01*
Y-77999D01*
X-77499Y-76999D01*
X-72501Y-73001D02*
X-71501Y-72001D01*
X-69502D01*
X-68502Y-73001D01*
Y-76999D01*
X-69502Y-77999D01*
X-71501D01*
X-72501Y-76999D01*
Y-76000D01*
X-71501Y-75000D01*
X-68502D01*
X-179499Y-49999D02*
X-180499Y-50999D01*
X-182498D01*
X-183498Y-49999D01*
Y-46001D01*
X-182498Y-45001D01*
X-180499D01*
X-179499Y-46001D01*
X-177500Y-45001D02*
X-175500D01*
X-176500D01*
Y-50999D01*
X-177500Y-49999D01*
X-172501D02*
X-171502Y-50999D01*
X-169502D01*
X-168502Y-49999D01*
Y-49000D01*
X-169502Y-48000D01*
X-168502Y-47000D01*
Y-46001D01*
X-169502Y-45001D01*
X-171502D01*
X-172501Y-46001D01*
Y-47000D01*
X-171502Y-48000D01*
X-172501Y-49000D01*
Y-49999D01*
X-171502Y-48000D02*
X-169502D01*
X-160499Y-49999D02*
X-161499Y-50999D01*
X-163498D01*
X-164498Y-49999D01*
Y-46001D01*
X-163498Y-45001D01*
X-161499D01*
X-160499Y-46001D01*
X-158499Y-45001D02*
X-156500D01*
X-157500D01*
Y-50999D01*
X-158499Y-49999D01*
X-153501Y-50999D02*
X-149502D01*
Y-49999D01*
X-153501Y-46001D01*
Y-45001D01*
X-125499Y-49999D02*
X-126498Y-50999D01*
X-128498D01*
X-129498Y-49999D01*
Y-46001D01*
X-128498Y-45001D01*
X-126498D01*
X-125499Y-46001D01*
X-123499Y-45001D02*
X-121500D01*
X-122500D01*
Y-50999D01*
X-123499Y-49999D01*
X-114502Y-50999D02*
X-116502Y-49999D01*
X-118501Y-48000D01*
Y-46001D01*
X-117501Y-45001D01*
X-115502D01*
X-114502Y-46001D01*
Y-47000D01*
X-115502Y-48000D01*
X-118501D01*
X-75499Y-19999D02*
X-76498Y-20999D01*
X-78498D01*
X-79498Y-19999D01*
Y-16001D01*
X-78498Y-15001D01*
X-76498D01*
X-75499Y-16001D01*
X-73499Y-15001D02*
X-71500D01*
X-72500D01*
Y-20999D01*
X-73499Y-19999D01*
X-64502Y-20999D02*
X-68501D01*
Y-18000D01*
X-66502Y-19000D01*
X-65502D01*
X-64502Y-18000D01*
Y-16001D01*
X-65502Y-15001D01*
X-67502D01*
X-68501Y-16001D01*
X-6499Y-30999D02*
X-7498Y-31999D01*
X-9498D01*
X-10497Y-30999D01*
Y-27001D01*
X-9498Y-26001D01*
X-7498D01*
X-6499Y-27001D01*
X-4500Y-26001D02*
X-2500D01*
X-3500D01*
Y-31999D01*
X-4500Y-30999D01*
X3498Y-26001D02*
Y-31999D01*
X499Y-29000D01*
X4498D01*
X-99499Y-76999D02*
X-100499Y-77999D01*
X-102498D01*
X-103498Y-76999D01*
Y-73001D01*
X-102498Y-72001D01*
X-100499D01*
X-99499Y-73001D01*
X-97500Y-72001D02*
X-95500D01*
X-96500D01*
Y-77999D01*
X-97500Y-76999D01*
X-92501D02*
X-91502Y-77999D01*
X-89502D01*
X-88502Y-76999D01*
Y-76000D01*
X-89502Y-75000D01*
X-90502D01*
X-89502D01*
X-88502Y-74000D01*
Y-73001D01*
X-89502Y-72001D01*
X-91502D01*
X-92501Y-73001D01*
X-102499Y-94999D02*
X-103498Y-95999D01*
X-105498D01*
X-106498Y-94999D01*
Y-91001D01*
X-105498Y-90001D01*
X-103498D01*
X-102499Y-91001D01*
X-100499Y-90001D02*
X-98500D01*
X-99500D01*
Y-95999D01*
X-100499Y-94999D01*
X-91502Y-90001D02*
X-95501D01*
X-91502Y-94000D01*
Y-94999D01*
X-92502Y-95999D01*
X-94501D01*
X-95501Y-94999D01*
X-75499Y-129999D02*
X-76499Y-130999D01*
X-78498D01*
X-79498Y-129999D01*
Y-126001D01*
X-78498Y-125001D01*
X-76499D01*
X-75499Y-126001D01*
X-73500Y-125001D02*
X-71501D01*
X-72500D01*
Y-130999D01*
X-73500Y-129999D01*
X-68502Y-125001D02*
X-66502D01*
X-67502D01*
Y-130999D01*
X-68502Y-129999D01*
X159501Y67001D02*
X158502Y66001D01*
X156502D01*
X155503Y67001D01*
Y70999D01*
X156502Y71999D01*
X158502D01*
X159501Y70999D01*
X161500Y71999D02*
X163500D01*
X162500D01*
Y66001D01*
X161500Y67001D01*
X166499D02*
X167498Y66001D01*
X169498D01*
X170498Y67001D01*
Y70999D01*
X169498Y71999D01*
X167498D01*
X166499Y70999D01*
Y67001D01*
X62000Y48001D02*
X61001Y47001D01*
X59001D01*
X58002Y48001D01*
Y51999D01*
X59001Y52999D01*
X61001D01*
X62000Y51999D01*
X64000D02*
X64999Y52999D01*
X66999D01*
X67998Y51999D01*
Y48001D01*
X66999Y47001D01*
X64999D01*
X64000Y48001D01*
Y49000D01*
X64999Y50000D01*
X67998D01*
X83000Y8001D02*
X82001Y7001D01*
X80001D01*
X79002Y8001D01*
Y11999D01*
X80001Y12999D01*
X82001D01*
X83000Y11999D01*
X85000Y8001D02*
X85999Y7001D01*
X87999D01*
X88998Y8001D01*
Y9000D01*
X87999Y10000D01*
X88998Y11000D01*
Y11999D01*
X87999Y12999D01*
X85999D01*
X85000Y11999D01*
Y11000D01*
X85999Y10000D01*
X85000Y9000D01*
Y8001D01*
X85999Y10000D02*
X87999D01*
X30000Y49001D02*
X29001Y48001D01*
X27001D01*
X26002Y49001D01*
Y52999D01*
X27001Y53999D01*
X29001D01*
X30000Y52999D01*
X32000Y48001D02*
X35998D01*
Y49001D01*
X32000Y52999D01*
Y53999D01*
X-48000Y-66999D02*
X-48999Y-67999D01*
X-50999D01*
X-51998Y-66999D01*
Y-63001D01*
X-50999Y-62001D01*
X-48999D01*
X-48000Y-63001D01*
X-42002Y-67999D02*
X-46000D01*
Y-65000D01*
X-44001Y-66000D01*
X-43001D01*
X-42002Y-65000D01*
Y-63001D01*
X-43001Y-62001D01*
X-45001D01*
X-46000Y-63001D01*
D13*
X-133920Y145435D02*
X-125435Y153920D01*
X-98565Y110080D02*
X-90080Y118565D01*
X-62500Y-185000D02*
X86500D01*
Y-71000D01*
X-62500D02*
X86500D01*
X-62500Y-185000D02*
Y-71000D01*
D14*
X141000Y10000D02*
Y47000D01*
X159000D01*
Y10000D02*
Y47000D01*
X141000Y10000D02*
X159000D01*
X123300Y40800D02*
Y69100D01*
Y40800D02*
X136600D01*
Y69100D01*
X123300D02*
X136600D01*
X123300Y11800D02*
Y40100D01*
Y11800D02*
X136600D01*
Y40100D01*
X123300D02*
X136600D01*
X137303Y-97637D02*
X146708Y-88232D01*
X117292Y-77626D02*
X137303Y-97637D01*
X117292Y-77626D02*
X126697Y-68222D01*
X146708Y-88232D01*
X137697Y-57221D02*
X157708Y-77232D01*
X128292Y-66626D02*
X137697Y-57221D01*
X128292Y-66626D02*
X148303Y-86637D01*
X157708Y-77232D01*
X120900Y-38400D02*
X120900Y-51700D01*
X120900Y-38400D02*
X149200Y-38400D01*
X149200Y-51700D02*
X149200Y-38400D01*
X120900Y-51700D02*
X149200Y-51700D01*
X143343Y105475D02*
X159576Y82293D01*
X132449Y97846D02*
X143343Y105475D01*
X132449Y97846D02*
X148681Y74664D01*
X159576Y82293D01*
X-41199Y8700D02*
X-12899D01*
X-41199Y-4600D02*
Y8700D01*
Y-4600D02*
X-12899D01*
Y8700D01*
X141943Y113935D02*
X165981Y79604D01*
X185747Y93444D01*
X161709Y127775D02*
X185747Y93444D01*
X141943Y113935D02*
X161709Y127775D01*
X-191700Y76100D02*
X-178400D01*
Y47800D02*
Y76100D01*
X-191700Y47800D02*
X-178400D01*
X-191700D02*
Y76100D01*
X-109900Y-100600D02*
Y-87300D01*
X-138200Y-100600D02*
X-109900D01*
X-138200D02*
Y-87300D01*
X-109900D01*
X-99900Y-118600D02*
Y-105300D01*
X-128200Y-118600D02*
X-99900D01*
X-128200D02*
Y-105300D01*
X-99900D01*
X-81900Y-134600D02*
Y-121300D01*
X-110200Y-134600D02*
X-81900D01*
X-110200D02*
Y-121300D01*
X-81900D01*
X-128300Y-81100D02*
Y-52800D01*
X-141600D02*
X-128300D01*
X-141600Y-81100D02*
Y-52800D01*
Y-81100D02*
X-128300D01*
X59300Y-16200D02*
Y12100D01*
Y-16200D02*
X72600D01*
Y12100D01*
X59300D02*
X72600D01*
X-41199Y-6300D02*
X-12899D01*
X-41199Y-19600D02*
Y-6300D01*
Y-19600D02*
X-12899D01*
Y-6300D01*
X-41100Y-49700D02*
X-12800D01*
Y-36400D01*
X-41100D02*
X-12800D01*
X-41100Y-49700D02*
Y-36400D01*
X175700Y-19100D02*
Y9200D01*
X162400D02*
X175700D01*
X162400Y-19100D02*
Y9200D01*
Y-19100D02*
X175700D01*
X162300Y15800D02*
Y44100D01*
Y15800D02*
X175600D01*
Y44100D01*
X162300D02*
X175600D01*
X-71300Y-70100D02*
Y-41800D01*
X-84600D02*
X-71300D01*
X-84600Y-70100D02*
Y-41800D01*
Y-70100D02*
X-71300D01*
X-159300Y-81100D02*
Y-52800D01*
X-172600D02*
X-159300D01*
X-172600Y-81100D02*
Y-52800D01*
Y-81100D02*
X-159300D01*
X-143300D02*
Y-52800D01*
X-156600D02*
X-143300D01*
X-156600Y-81100D02*
Y-52800D01*
Y-81100D02*
X-143300D01*
X-113300D02*
Y-52800D01*
X-126600D02*
X-113300D01*
X-126600Y-81100D02*
Y-52800D01*
Y-81100D02*
X-113300D01*
X-90100Y-36700D02*
X-61800D01*
Y-23400D01*
X-90100D02*
X-61800D01*
X-90100Y-36700D02*
Y-23400D01*
X-41099Y-34700D02*
X-12799D01*
Y-21400D01*
X-41099D02*
X-12799D01*
X-41099Y-34700D02*
Y-21400D01*
X-100700Y-70200D02*
Y-41900D01*
Y-70200D02*
X-87400D01*
Y-41900D01*
X-100700D02*
X-87400D01*
X148900Y50300D02*
X177200D01*
Y63600D01*
X148900D02*
X177200D01*
X148900Y50300D02*
Y63600D01*
X41899Y31300D02*
X70199D01*
Y44600D01*
X41899D02*
X70199D01*
X41899Y31300D02*
Y44600D01*
X59800Y28700D02*
X88100D01*
X59800Y15400D02*
Y28700D01*
Y15400D02*
X88100D01*
Y28700D01*
X7900Y31300D02*
X36200D01*
Y44600D01*
X7900D02*
X36200D01*
X7900Y31300D02*
Y44600D01*
X-55300Y-70100D02*
Y-41800D01*
X-68600D02*
X-55300D01*
X-68600Y-70100D02*
Y-41800D01*
Y-70100D02*
X-55300D01*
D15*
X7055Y53600D02*
G03*
X7055Y53600I-1270J0D01*
G01*
X-66605Y66300D02*
G03*
X-60942Y49651I27305J0D01*
G01*
X-16923Y50653D02*
G03*
X-66605Y66300I-22377J15647D01*
G01*
X-43404Y49155D02*
X-36277D01*
X-158322Y-16322D02*
X-153970D01*
X-158322Y56322D02*
X-153970D01*
X-85678Y51971D02*
Y56322D01*
X-90030Y-16322D02*
X-85678D01*
X-158322D02*
Y-11970D01*
Y51971D02*
Y56322D01*
X-90030D02*
X-85678D01*
Y-16322D02*
Y-11970D01*
D16*
X-180039Y-18040D02*
X-171575Y-9576D01*
X-180039D02*
X-171575Y-18040D01*
X-180039Y-13808D02*
X-171575D01*
X-175807Y-9576D02*
Y-18040D01*
M02*
