M48
;Layer_Color=9474304
;FILE_FORMAT=4:4
METRIC,TZ
;TYPE=PLATED
T1F00S00C0.2000
T2F00S00C0.3000
T3F00S00C0.4000
T4F00S00C0.4500
T5F00S00C0.6000
T6F00S00C0.7112
T7F00S00C0.7620
T8F00S00C0.8128
T9F00S00C0.9000
T10F00S00C1.0000
T11F00S00C1.1000
T12F00S00C2.2500
%
T01
X22000Y-138000
X19000Y-50336
X20000Y-34000
X34000Y-44000
X50000Y-40000
X55000Y-50000
X60000Y-61000
X43000Y-62000
X82000Y-69000
X-2000Y-65000
X-13000Y-61000
X0Y-42000
X-6000Y-32000
X-46000Y-33000
X-49000Y17000
X-62000Y20000
X-67000Y31000
X-52000Y35000
X-35000Y26000
X-27000Y17000
X-16000Y20000
Y54000
X13000Y48000
X26000Y52000
X39000Y45000
X74683Y56683
X86000Y63000
X95000
X105000Y52000
X100250Y41250
X95000Y32000
X120000Y24000
X126000Y1000
Y-22000
X-71000Y57000
X-173000Y-36000
X-180000Y-31000
X-186000Y-26000
X-193000Y-22000
X-199000Y-18000
X-205000Y-14000
X-158000Y112870
X-144000Y100000
X-130130Y87000
X-88022Y85478
X-82000Y95000
X-70000Y97000
X-65000Y68000
X-68000Y148000
X-82000Y162000
X-96000Y175000
X10000Y80000
X51000Y90000
X55000Y114000
X64000Y122000
X100712Y114000
X113000Y112000
X106000Y102000
X85575Y96000
X86000Y89000
Y81000
Y72000
X112725Y74000
X128000Y107000
X130000Y115000
T02
X82000Y-95000
X84000Y-85000
X98000Y-83000
X119000Y48000
T03
X163379Y-61525
X175313Y-65868
X179656Y-53934
X184000Y-42000
X172066Y-37656
X167722Y-49591
T04
X-52000Y66300
X-39300
X-26600
T05
X-20000Y-198000
X-45000Y-64000
X-108000Y-48000
X-103000Y1000
Y20000
Y39000
X15500Y28164
X86000Y-20000
X98148Y-63099
X-119850Y-37000
X-139000Y-36000
X-156000Y-42000
X-141000Y1000
Y20000
Y39000
X-120000
Y20000
Y1000
X-164000Y63000
X-165462Y-93300
X-133996Y-132157
X-131000Y154000
X32000Y99000
X182000Y80000
T06
X-74000Y-113000
X-184000Y-78000
X-196000Y34000
T07
X169569Y92193
X168018Y106612
X155000Y113000
T08
X114800Y-14000
Y11400
Y36800
Y62200
X191000
Y36800
Y11400
Y-14000
T09
X109000Y-147000
X126960Y-129039
X144921Y-111079
X162882Y-93118
X84000Y146600
Y172000
T10
X-46000Y-121000
X-21000
X4000
X29000
X54000
X62000Y-96000
X37000
X12000
X-13000
X-38000
T11
X-39000Y120000
X-14000
X11000
X36000
T12
X-91000Y-168000
X123000Y146000
M30
