G04*
G04 #@! TF.GenerationSoftware,Altium Limited,Altium Designer,20.0.7 (75)*
G04*
G04 Layer_Color=65535*
%FSLAX44Y44*%
%MOMM*%
G71*
G01*
G75*
%ADD10C,0.2500*%
%ADD11C,0.2540*%
%ADD12C,0.2000*%
%ADD13C,0.1000*%
%ADD14C,0.1270*%
%ADD15C,0.1524*%
%ADD16C,0.0762*%
G36*
X25595Y-29070D02*
X29405D01*
Y-31610D01*
X25595D01*
Y-29070D01*
D02*
G37*
G36*
X-12070Y23595D02*
X-14610D01*
Y27405D01*
X-12070D01*
Y23595D01*
D02*
G37*
G36*
X30595Y75070D02*
X34405D01*
Y77610D01*
X30595D01*
Y75070D01*
D02*
G37*
G36*
X92070Y38595D02*
X94610D01*
Y42405D01*
X92070D01*
Y38595D01*
D02*
G37*
D10*
X36750Y136500D02*
G03*
X36750Y136500I-1250J0D01*
G01*
D11*
X-145470Y-158349D02*
G03*
X-105991Y-126379I17138J19198D01*
G01*
X-154124Y-66940D02*
G03*
X-193603Y-98909I-17002J-19366D01*
G01*
X-193697Y-98793D02*
X-145743Y-158012D01*
X-154218Y-66824D02*
X-106264Y-126042D01*
X-129300Y76236D02*
X-137764D01*
Y63540D01*
X-129300D01*
X-137764Y69888D02*
X-133532D01*
X-125068Y63540D02*
Y72004D01*
X-122952D01*
X-120836Y69888D01*
Y63540D01*
Y69888D01*
X-118720Y72004D01*
X-116604Y69888D01*
Y63540D01*
X-112372D02*
X-108140D01*
X-110256D01*
Y72004D01*
X-112372D01*
X-101792Y63540D02*
X-97561D01*
X-99677D01*
Y76236D01*
X-101792D01*
X-84865Y63540D02*
X-89096D01*
X-91213Y65656D01*
Y69888D01*
X-89096Y72004D01*
X-84865D01*
X-82749Y69888D01*
Y67772D01*
X-91213D01*
X-160460Y59236D02*
X-151996D01*
X-156228D01*
Y46540D01*
X-139300Y57120D02*
X-141416Y59236D01*
X-145648D01*
X-147764Y57120D01*
Y55004D01*
X-145648Y52888D01*
X-141416D01*
X-139300Y50772D01*
Y48656D01*
X-141416Y46540D01*
X-145648D01*
X-147764Y48656D01*
X-128720Y59236D02*
X-132952D01*
X-135068Y57120D01*
Y48656D01*
X-132952Y46540D01*
X-128720D01*
X-126604Y48656D01*
Y57120D01*
X-128720Y59236D01*
X-101213Y46540D02*
X-109677D01*
X-101213Y55004D01*
Y57120D01*
X-103329Y59236D01*
X-107561D01*
X-109677Y57120D01*
X-96981D02*
X-94865Y59236D01*
X-90633D01*
X-88517Y57120D01*
Y48656D01*
X-90633Y46540D01*
X-94865D01*
X-96981Y48656D01*
Y57120D01*
X-75821Y46540D02*
X-84285D01*
X-75821Y55004D01*
Y57120D01*
X-77937Y59236D01*
X-82169D01*
X-84285Y57120D01*
X-71589D02*
X-69473Y59236D01*
X-65241D01*
X-63125Y57120D01*
Y48656D01*
X-65241Y46540D01*
X-69473D01*
X-71589Y48656D01*
Y57120D01*
X-147460Y92236D02*
Y79540D01*
X-138996D01*
X-134764Y88004D02*
Y81656D01*
X-132648Y79540D01*
X-126300D01*
Y88004D01*
X-122068Y79540D02*
Y92236D01*
Y83772D02*
X-115720Y88004D01*
X-122068Y83772D02*
X-115720Y79540D01*
X-107256Y88004D02*
X-103024D01*
X-100908Y85888D01*
Y79540D01*
X-107256D01*
X-109372Y81656D01*
X-107256Y83772D01*
X-100908D01*
X-75517Y79540D02*
X-77633Y81656D01*
X-79749Y79540D01*
X-81865D01*
X-83981Y81656D01*
Y83772D01*
X-81865Y85888D01*
X-83981Y88004D01*
Y90120D01*
X-81865Y92236D01*
X-79749D01*
X-77633Y90120D01*
Y88004D01*
X-79749Y85888D01*
X-77633Y83772D01*
Y81656D01*
X-75517Y85888D02*
X-77633Y83772D01*
X-81865Y85888D02*
X-79749D01*
D12*
X19000Y136500D02*
Y203500D01*
X-7000Y136500D02*
Y203500D01*
Y136500D02*
X19000D01*
X-7000Y203500D02*
X19000D01*
X26000Y130001D02*
Y133999D01*
X25000Y134999D01*
X23001D01*
X22001Y133999D01*
Y130001D01*
X23001Y129001D01*
X25000D01*
X24001Y131000D02*
X26000Y129001D01*
X25000D02*
X26000Y130001D01*
X27999Y129001D02*
X29999D01*
X28999D01*
Y134999D01*
X27999Y133999D01*
X-146186Y-62005D02*
X-146963Y-62634D01*
X-147258Y-65446D01*
X-144446Y-65742D01*
X-143669Y-65113D01*
X-147258Y-65446D02*
X-149589Y-67334D01*
X-147072Y-70441D02*
X-145814Y-71995D01*
X-146443Y-71218D01*
X-141782Y-67443D01*
X-143188Y-67296D01*
X-67000Y-88001D02*
X-68999D01*
X-67999D01*
Y-92999D01*
X-68999Y-93999D01*
X-69999D01*
X-70998Y-92999D01*
X-65000Y-89001D02*
X-64001Y-88001D01*
X-62001D01*
X-61002Y-89001D01*
Y-90000D01*
X-62001Y-91000D01*
X-63001D01*
X-62001D01*
X-61002Y-92000D01*
Y-92999D01*
X-62001Y-93999D01*
X-64001D01*
X-65000Y-92999D01*
X112002Y85999D02*
Y81001D01*
X113001Y80001D01*
X115001D01*
X116000Y81001D01*
Y85999D01*
X118000Y84999D02*
X118999Y85999D01*
X120999D01*
X121998Y84999D01*
Y84000D01*
X120999Y83000D01*
X119999D01*
X120999D01*
X121998Y82000D01*
Y81001D01*
X120999Y80001D01*
X118999D01*
X118000Y81001D01*
X72000Y-65001D02*
X71001Y-64001D01*
X69001D01*
X68002Y-65001D01*
Y-68999D01*
X69001Y-69999D01*
X71001D01*
X72000Y-68999D01*
X76999Y-69999D02*
Y-64001D01*
X74000Y-67000D01*
X77998D01*
X106000Y-67001D02*
X105001Y-66001D01*
X103001D01*
X102002Y-67001D01*
Y-70999D01*
X103001Y-71999D01*
X105001D01*
X106000Y-70999D01*
X108000Y-67001D02*
X108999Y-66001D01*
X110999D01*
X111998Y-67001D01*
Y-68000D01*
X110999Y-69000D01*
X109999D01*
X110999D01*
X111998Y-70000D01*
Y-70999D01*
X110999Y-71999D01*
X108999D01*
X108000Y-70999D01*
X88000Y-66001D02*
X87001Y-65001D01*
X85001D01*
X84002Y-66001D01*
Y-69999D01*
X85001Y-70999D01*
X87001D01*
X88000Y-69999D01*
X93998Y-70999D02*
X90000D01*
X93998Y-67000D01*
Y-66001D01*
X92999Y-65001D01*
X90999D01*
X90000Y-66001D01*
X-8999Y-11001D02*
Y-15999D01*
X-7999Y-16999D01*
X-6000D01*
X-5000Y-15999D01*
Y-11001D01*
X-3001Y-16999D02*
X-1001D01*
X-2001D01*
Y-11001D01*
X-3001Y-12001D01*
X-44001Y132502D02*
X-49999D01*
Y135501D01*
X-48999Y136501D01*
X-47000D01*
X-46000Y135501D01*
Y132502D01*
Y134502D02*
X-44001Y136501D01*
Y138500D02*
Y140500D01*
Y139500D01*
X-49999D01*
X-48999Y138500D01*
Y143499D02*
X-49999Y144499D01*
Y146498D01*
X-48999Y147498D01*
X-45001D01*
X-44001Y146498D01*
Y144499D01*
X-45001Y143499D01*
X-48999D01*
X-97273Y162827D02*
X-93031Y158585D01*
X-95152Y156465D01*
X-96566Y156465D01*
X-97979Y157878D01*
Y159292D01*
X-95859Y161413D01*
X-97273Y159999D02*
X-100100Y159999D01*
X-97273Y154344D02*
X-100100Y151517D01*
X-100807Y152223D01*
Y157878D01*
X-101514Y158585D01*
X-81858Y152241D02*
X-77617Y147999D01*
X-79738Y145879D01*
X-81152Y145879D01*
X-82565Y147293D01*
Y148706D01*
X-80445Y150827D01*
X-81858Y149413D02*
X-84686Y149413D01*
Y140931D02*
X-83979Y143051D01*
Y145879D01*
X-85393Y147293D01*
X-86806D01*
X-88220Y145879D01*
Y144465D01*
X-87513Y143758D01*
X-86100D01*
X-83979Y145879D01*
X-67858Y138241D02*
X-63617Y134000D01*
X-65738Y131879D01*
X-67151Y131879D01*
X-68565Y133293D01*
Y134706D01*
X-66445Y136827D01*
X-67858Y135413D02*
X-70686Y135413D01*
Y126931D02*
X-67858Y129758D01*
X-69979Y131879D01*
X-70686Y129758D01*
X-71393Y129051D01*
X-72807D01*
X-74220Y130465D01*
Y131879D01*
X-72807Y133293D01*
X-71393D01*
X0Y104999D02*
X-999Y105999D01*
X-2999D01*
X-3998Y104999D01*
Y101001D01*
X-2999Y100001D01*
X-999D01*
X0Y101001D01*
X5998Y105999D02*
X3999Y104999D01*
X2000Y103000D01*
Y101001D01*
X2999Y100001D01*
X4999D01*
X5998Y101001D01*
Y102000D01*
X4999Y103000D01*
X2000D01*
D13*
X78500Y-210000D02*
Y-96000D01*
X-70500D02*
X78500D01*
X-70500Y-210000D02*
Y-96000D01*
Y-210000D02*
X78500D01*
D14*
X179487Y-74821D02*
X192953Y-37825D01*
X167891Y-28704D02*
X192953Y-37825D01*
X154426Y-65699D02*
X167891Y-28704D01*
X154426Y-65699D02*
X179487Y-74821D01*
X66300Y-61100D02*
X79600D01*
Y-32800D01*
X66300D02*
X79600D01*
X66300Y-61100D02*
Y-32800D01*
X98300Y-61100D02*
X111600D01*
Y-32800D01*
X98300D02*
X111600D01*
X98300Y-61100D02*
Y-32800D01*
X82300Y-61100D02*
X95600D01*
Y-32800D01*
X82300D02*
X95600D01*
X82300Y-61100D02*
Y-32800D01*
X-41100Y147700D02*
X-12800D01*
Y134400D02*
Y147700D01*
X-41100Y134400D02*
X-12800D01*
X-41100D02*
Y147700D01*
X-115303Y145222D02*
X-95292Y165233D01*
X-124708Y154626D02*
X-115303Y145222D01*
X-124708Y154626D02*
X-104697Y174637D01*
X-95292Y165233D01*
X-101303Y133222D02*
X-81292Y153233D01*
X-110708Y142626D02*
X-101303Y133222D01*
X-110708Y142626D02*
X-90697Y162637D01*
X-81292Y153233D01*
X-87303Y119222D02*
X-67292Y139233D01*
X-96708Y128626D02*
X-87303Y119222D01*
X-96708Y128626D02*
X-76697Y148637D01*
X-67292Y139233D01*
X-4200Y86300D02*
X24100D01*
X-4200D02*
Y99600D01*
X24100D01*
Y86300D02*
Y99600D01*
X175372Y-75759D02*
X174574Y-77951D01*
X174973Y-76855D01*
X168398Y-74462D01*
X169892Y-73765D01*
X157202Y-69212D02*
X155834Y-72969D01*
X160960Y-70579D01*
X161899Y-70921D01*
X162496Y-72203D01*
X161813Y-74081D01*
X160531Y-74679D01*
X179941Y-26131D02*
X178318Y-27668D01*
X175755Y-28863D01*
X173876Y-28179D01*
X173279Y-26898D01*
X173963Y-25019D01*
X175244Y-24421D01*
X176183Y-24763D01*
X176781Y-26045D01*
X175755Y-28863D01*
X191875Y-30475D02*
X190507Y-34232D01*
X187689Y-33206D01*
X189312Y-31669D01*
X189654Y-30730D01*
X189057Y-29449D01*
X187178Y-28765D01*
X185897Y-29362D01*
X185213Y-31241D01*
X185810Y-32522D01*
D15*
X112260Y-26700D02*
X193540D01*
Y-23601D01*
X112260Y74900D02*
X193540D01*
X112260Y72132D02*
Y74900D01*
Y46401D02*
Y52269D01*
Y21001D02*
Y27199D01*
Y-4399D02*
Y1799D01*
Y-26700D02*
Y-23601D01*
X193540Y-4399D02*
Y1799D01*
Y21001D02*
Y27199D01*
Y46401D02*
Y52599D01*
Y71801D02*
Y74900D01*
X72225Y60338D02*
X77338D01*
X2662Y55224D02*
Y60338D01*
Y-14338D02*
X7776D01*
X77338D02*
Y-9225D01*
Y55224D02*
Y60338D01*
X2662D02*
X7776D01*
X2662Y-14338D02*
Y-9225D01*
X72225Y-14338D02*
X77338D01*
D16*
X111625Y80654D02*
X120089Y72190D01*
X111625D02*
X120089Y80654D01*
X111625Y76422D02*
X120089D01*
X115857Y72190D02*
Y80654D01*
X99055Y-15040D02*
X90591Y-6576D01*
X99055D02*
X90591Y-15040D01*
X99055Y-10808D02*
X90591D01*
X94823Y-6576D02*
Y-15040D01*
M02*
