M48
;Layer_Color=9474304
;FILE_FORMAT=4:4
METRIC,TZ
;TYPE=PLATED
T1F00S00C0.2000
T2F00S00C0.6000
T3F00S00C0.8128
T4F00S00C1.0000
T5F00S00C2.2500
%
T01
X22000Y-138000
X19000Y-50336
X20000Y-34000
X34000Y-44000
X50000Y-40000
X55000Y-50000
X60000Y-61000
X43000Y-62000
X82000Y-69000
X84000Y-85000
X82000Y-95000
X98000Y-83000
X126000Y-22000
Y1000
X116000Y23000
X119000Y48500
X99000Y53000
X97700Y44300
X93100Y35900
X82000Y57000
X60000Y53000
X39000Y45000
X26000Y52000
X13000Y48000
X-16000Y54000
Y20000
X-27000Y17000
X-35000Y26000
X-49000Y17000
X-62000Y20000
X-64000Y31000
X-52000Y35000
X-63000Y53000
X-62000Y61000
X-46000Y-33000
X-6000Y-32000
X0Y-42000
X-2000Y-65000
X-13000Y-61000
X-163300Y-18100
X-173200Y-19578
X-180900Y-20000
X-187500Y-20300
X-194000Y-20100
X-200800Y-19900
X-160000Y114870
X-146000Y102000
X-132130Y89000
X-79200Y90900
X-75100Y97300
X-69400Y103600
X-70000Y150000
X-84000Y164000
X-98000Y177000
X10000Y80000
X51000Y90000
X55000Y114000
X64000Y122000
X83000Y96000
X83000Y89000
X83000Y82000
X82000Y74000
X81750Y67500
X112725Y74000
X109400Y101400
X114600Y113400
X103000Y115300
X130000Y115000
X129500Y105600
T02
X-20000Y-198000
X-45000Y-64000
X-108000Y-48000
X-103000Y1000
Y20000
Y39000
X15500Y28164
X86000Y-20000
X98148Y-63099
X163379Y-61525
X175313Y-65868
X179656Y-53934
X184000Y-42000
X172066Y-37656
X167722Y-49591
X-119850Y-37000
X-139000Y-36000
X-141000Y1000
X-122200Y1200
X-122100Y19800
X-121700Y38500
X-141000Y39000
Y20000
X-164000Y63000
X-191600Y-51700
X-161489Y-85849
X-132100Y-126300
X-131000Y152000
X-52000Y66300
X-39300
X-26600
X32000Y99000
X182000Y80000
T03
X114800Y-14000
Y11400
Y36800
Y62200
X191000
Y36800
Y11400
Y-14000
T04
X-46000Y-121000
X-21000
X4000
X29000
X54000
X62000Y-96000
X37000
X12000
X-13000
X-38000
X144921Y-111079
X162882Y-93118
X126960Y-129039
X109000Y-147000
X-184000Y-78000
X-196000Y34000
X-93620Y81870
X-39000Y120000
X-14000
X11000
X36000
X84000Y146600
Y172000
X155000Y113000
X168018Y106612
X169569Y92193
T05
X-91700Y-162200
X123000Y141700
M30
