G04*
G04 #@! TF.GenerationSoftware,Altium Limited,Altium Designer,20.0.7 (75)*
G04*
G04 Layer_Color=8421504*
%FSLAX44Y44*%
%MOMM*%
G71*
G01*
G75*
%ADD17R,2.7000X3.3000*%
%ADD18R,2.7000X1.0000*%
%ADD19R,0.9652X0.8636*%
G04:AMPARAMS|DCode=20|XSize=0.8636mm|YSize=0.9652mm|CornerRadius=0mm|HoleSize=0mm|Usage=FLASHONLY|Rotation=225.000|XOffset=0mm|YOffset=0mm|HoleType=Round|Shape=Rectangle|*
%AMROTATEDRECTD20*
4,1,4,-0.0359,0.6466,0.6466,-0.0359,0.0359,-0.6466,-0.6466,0.0359,-0.0359,0.6466,0.0*
%
%ADD20ROTATEDRECTD20*%

%ADD21R,0.8636X0.9652*%
%ADD22R,1.4732X0.2794*%
%ADD23R,0.2794X1.4732*%
D17*
X-23500Y170000D02*
D03*
D18*
X35500Y193000D02*
D03*
Y170000D02*
D03*
Y147000D02*
D03*
D19*
X73000Y-55001D02*
D03*
Y-38999D02*
D03*
X105000Y-55001D02*
D03*
Y-38999D02*
D03*
X89000Y-55001D02*
D03*
Y-38999D02*
D03*
X58000Y149999D02*
D03*
Y166001D02*
D03*
D20*
X-115658Y154343D02*
D03*
X-104342Y165657D02*
D03*
X-101658Y142342D02*
D03*
X-90343Y153657D02*
D03*
X-87658Y128342D02*
D03*
X-76343Y139657D02*
D03*
D21*
X1999Y93000D02*
D03*
X18001D02*
D03*
D22*
X82164Y-4500D02*
D03*
Y500D02*
D03*
Y5500D02*
D03*
Y10500D02*
D03*
Y15500D02*
D03*
Y20500D02*
D03*
Y25500D02*
D03*
Y30500D02*
D03*
Y35500D02*
D03*
Y40500D02*
D03*
Y45500D02*
D03*
Y50500D02*
D03*
X-2164D02*
D03*
Y45500D02*
D03*
Y40500D02*
D03*
Y35500D02*
D03*
Y30500D02*
D03*
Y25500D02*
D03*
Y20500D02*
D03*
Y15500D02*
D03*
Y10500D02*
D03*
Y5500D02*
D03*
Y500D02*
D03*
Y-4500D02*
D03*
D23*
X67500Y65164D02*
D03*
X62500D02*
D03*
X57500D02*
D03*
X52500D02*
D03*
X47500D02*
D03*
X42500D02*
D03*
X37500D02*
D03*
X32500D02*
D03*
X27500D02*
D03*
X22500D02*
D03*
X17500D02*
D03*
X12500D02*
D03*
Y-19164D02*
D03*
X17500D02*
D03*
X22500D02*
D03*
X27500D02*
D03*
X32500D02*
D03*
X37500D02*
D03*
X42500D02*
D03*
X47500D02*
D03*
X52500D02*
D03*
X57500D02*
D03*
X62500D02*
D03*
X67500D02*
D03*
M02*
