G04*
G04 #@! TF.GenerationSoftware,Altium Limited,Altium Designer,20.0.7 (75)*
G04*
G04 Layer_Color=65535*
%FSLAX44Y44*%
%MOMM*%
G71*
G01*
G75*
%ADD10C,0.2540*%
%ADD11C,0.2500*%
%ADD12C,0.1000*%
%ADD13C,0.1270*%
%ADD14C,0.2000*%
%ADD15C,0.1524*%
%ADD16C,0.0762*%
G36*
X25595Y-29070D02*
X29405D01*
Y-31610D01*
X25595D01*
Y-29070D01*
D02*
G37*
G36*
X-12070Y23595D02*
X-14610D01*
Y27405D01*
X-12070D01*
Y23595D01*
D02*
G37*
G36*
X30595Y75070D02*
X34405D01*
Y77610D01*
X30595D01*
Y75070D01*
D02*
G37*
G36*
X92070Y38595D02*
X94610D01*
Y42405D01*
X92070D01*
Y38595D01*
D02*
G37*
D10*
X-145470Y-158349D02*
G03*
X-105991Y-126379I17138J19198D01*
G01*
X-154124Y-66940D02*
G03*
X-193603Y-98909I-17002J-19366D01*
G01*
X-193697Y-98793D02*
X-145743Y-158012D01*
X-154218Y-66824D02*
X-106264Y-126042D01*
D11*
X36750Y136500D02*
G03*
X36750Y136500I-1250J0D01*
G01*
D12*
X78500Y-210000D02*
Y-96000D01*
X-70500D02*
X78500D01*
X-70500Y-210000D02*
Y-96000D01*
Y-210000D02*
X78500D01*
D13*
X179487Y-74821D02*
X192953Y-37825D01*
X167891Y-28704D02*
X192953Y-37825D01*
X154426Y-65699D02*
X167891Y-28704D01*
X154426Y-65699D02*
X179487Y-74821D01*
X66300Y-61100D02*
X79600D01*
Y-32800D01*
X66300D02*
X79600D01*
X66300Y-61100D02*
Y-32800D01*
X98300Y-61100D02*
X111600D01*
Y-32800D01*
X98300D02*
X111600D01*
X98300Y-61100D02*
Y-32800D01*
X82300Y-61100D02*
X95600D01*
Y-32800D01*
X82300D02*
X95600D01*
X82300Y-61100D02*
Y-32800D01*
X64700Y143800D02*
Y172100D01*
X51400Y143800D02*
X64700D01*
X51400D02*
Y172100D01*
X64700D01*
X-115303Y145222D02*
X-95292Y165233D01*
X-124708Y154626D02*
X-115303Y145222D01*
X-124708Y154626D02*
X-104697Y174637D01*
X-95292Y165233D01*
X-101303Y133222D02*
X-81292Y153233D01*
X-110708Y142626D02*
X-101303Y133222D01*
X-110708Y142626D02*
X-90697Y162637D01*
X-81292Y153233D01*
X-87303Y119222D02*
X-67292Y139233D01*
X-96708Y128626D02*
X-87303Y119222D01*
X-96708Y128626D02*
X-76697Y148637D01*
X-67292Y139233D01*
X-4200Y86300D02*
X24100D01*
X-4200D02*
Y99600D01*
X24100D01*
Y86300D02*
Y99600D01*
X168203Y-76120D02*
X169000Y-73928D01*
X168602Y-75024D01*
X175177Y-77417D01*
X173682Y-78114D01*
X157202Y-69212D02*
X155834Y-72969D01*
X160960Y-70579D01*
X161899Y-70921D01*
X162496Y-72203D01*
X161813Y-74081D01*
X160531Y-74679D01*
X179941Y-26131D02*
X178318Y-27668D01*
X175755Y-28863D01*
X173876Y-28179D01*
X173279Y-26898D01*
X173963Y-25019D01*
X175244Y-24421D01*
X176183Y-24763D01*
X176781Y-26045D01*
X175755Y-28863D01*
X191875Y-30475D02*
X190507Y-34232D01*
X187689Y-33206D01*
X189312Y-31669D01*
X189654Y-30730D01*
X189057Y-29449D01*
X187178Y-28765D01*
X185897Y-29362D01*
X185213Y-31241D01*
X185810Y-32522D01*
D14*
X-7000Y203500D02*
X19000D01*
X-7000Y136500D02*
X19000D01*
X-7000D02*
Y203500D01*
X19000Y136500D02*
Y203500D01*
X71300Y182700D02*
X96700D01*
Y131900D02*
Y182700D01*
X71300Y131900D02*
X96700D01*
X71300D02*
Y182700D01*
X-139398Y-157592D02*
X-138621Y-156962D01*
X-138326Y-154150D01*
X-141138Y-153855D01*
X-141914Y-154484D01*
X-138326Y-154150D02*
X-135995Y-152263D01*
X-138511Y-149156D02*
X-139769Y-147602D01*
X-139140Y-148379D01*
X-143802Y-152153D01*
X-142396Y-152301D01*
X-67000Y-88001D02*
X-68999D01*
X-67999D01*
Y-92999D01*
X-68999Y-93999D01*
X-69999D01*
X-70998Y-92999D01*
X-65000Y-89001D02*
X-64001Y-88001D01*
X-62001D01*
X-61002Y-89001D01*
Y-90000D01*
X-62001Y-91000D01*
X-63001D01*
X-62001D01*
X-61002Y-92000D01*
Y-92999D01*
X-62001Y-93999D01*
X-64001D01*
X-65000Y-92999D01*
X21001Y129000D02*
Y125001D01*
X22001Y124002D01*
X24000D01*
X25000Y125001D01*
Y129000D01*
X24000Y130000D01*
X22001D01*
X23001Y128000D02*
X21001Y130000D01*
X22001D02*
X21001Y129000D01*
X19002Y130000D02*
X17002D01*
X18002D01*
Y124002D01*
X19002Y125001D01*
X106002Y88999D02*
Y84001D01*
X107001Y83001D01*
X109001D01*
X110000Y84001D01*
Y88999D01*
X112000Y87999D02*
X112999Y88999D01*
X114999D01*
X115998Y87999D01*
Y87000D01*
X114999Y86000D01*
X113999D01*
X114999D01*
X115998Y85000D01*
Y84001D01*
X114999Y83001D01*
X112999D01*
X112000Y84001D01*
X61001Y-56000D02*
X60001Y-56999D01*
Y-58999D01*
X61001Y-59998D01*
X64999D01*
X65999Y-58999D01*
Y-56999D01*
X64999Y-56000D01*
X65999Y-51001D02*
X60001D01*
X63000Y-54000D01*
Y-50002D01*
X93001Y-56000D02*
X92001Y-56999D01*
Y-58999D01*
X93001Y-59998D01*
X96999D01*
X97999Y-58999D01*
Y-56999D01*
X96999Y-56000D01*
X93001Y-54000D02*
X92001Y-53001D01*
Y-51001D01*
X93001Y-50002D01*
X94000D01*
X95000Y-51001D01*
Y-52001D01*
Y-51001D01*
X96000Y-50002D01*
X96999D01*
X97999Y-51001D01*
Y-53001D01*
X96999Y-54000D01*
X77001Y-56000D02*
X76001Y-56999D01*
Y-58999D01*
X77001Y-59998D01*
X80999D01*
X81999Y-58999D01*
Y-56999D01*
X80999Y-56000D01*
X81999Y-50002D02*
Y-54000D01*
X78000Y-50002D01*
X77001D01*
X76001Y-51001D01*
Y-53001D01*
X77001Y-54000D01*
X-18999Y-16999D02*
X-14001D01*
X-13001Y-15999D01*
Y-14000D01*
X-14001Y-13000D01*
X-18999D01*
X-13001Y-11001D02*
Y-9001D01*
Y-10001D01*
X-18999D01*
X-17999Y-11001D01*
X45001Y169498D02*
X50999D01*
Y166499D01*
X49999Y165499D01*
X48000D01*
X47000Y166499D01*
Y169498D01*
Y167498D02*
X45001Y165499D01*
Y163500D02*
Y161500D01*
Y162500D01*
X50999D01*
X49999Y163500D01*
Y158501D02*
X50999Y157501D01*
Y155502D01*
X49999Y154502D01*
X46001D01*
X45001Y155502D01*
Y157501D01*
X46001Y158501D01*
X49999D01*
X-97273Y162827D02*
X-93031Y158585D01*
X-95152Y156465D01*
X-96566Y156465D01*
X-97979Y157878D01*
Y159292D01*
X-95859Y161413D01*
X-97273Y159999D02*
X-100100Y159999D01*
X-97273Y154344D02*
X-100100Y151517D01*
X-100807Y152223D01*
Y157878D01*
X-101514Y158585D01*
X-81858Y152241D02*
X-77617Y147999D01*
X-79738Y145879D01*
X-81152Y145879D01*
X-82565Y147293D01*
Y148706D01*
X-80445Y150827D01*
X-81858Y149413D02*
X-84686Y149413D01*
Y140931D02*
X-83979Y143051D01*
Y145879D01*
X-85393Y147293D01*
X-86806D01*
X-88220Y145879D01*
Y144465D01*
X-87513Y143758D01*
X-86100D01*
X-83979Y145879D01*
X-67858Y138241D02*
X-63617Y134000D01*
X-65738Y131879D01*
X-67151Y131879D01*
X-68565Y133293D01*
Y134706D01*
X-66445Y136827D01*
X-67858Y135413D02*
X-70686Y135413D01*
Y126931D02*
X-67858Y129758D01*
X-69979Y131879D01*
X-70686Y129758D01*
X-71393Y129051D01*
X-72807D01*
X-74220Y130465D01*
Y131879D01*
X-72807Y133293D01*
X-71393D01*
X93000Y123001D02*
X94999D01*
X93999D01*
Y127999D01*
X94999Y128999D01*
X95999D01*
X96998Y127999D01*
X88001Y128999D02*
Y123001D01*
X91000Y126000D01*
X87002D01*
X17000Y81001D02*
X17999Y80001D01*
X19999D01*
X20998Y81001D01*
Y84999D01*
X19999Y85999D01*
X17999D01*
X17000Y84999D01*
X11002Y80001D02*
X13001Y81001D01*
X15000Y83000D01*
Y84999D01*
X14001Y85999D01*
X12001D01*
X11002Y84999D01*
Y84000D01*
X12001Y83000D01*
X15000D01*
D15*
X112260Y-26700D02*
X193540D01*
Y-23601D01*
X112260Y74900D02*
X193540D01*
X112260Y72132D02*
Y74900D01*
Y46401D02*
Y52269D01*
Y21001D02*
Y27199D01*
Y-4399D02*
Y1799D01*
Y-26700D02*
Y-23601D01*
X193540Y-4399D02*
Y1799D01*
Y21001D02*
Y27199D01*
Y46401D02*
Y52599D01*
Y71801D02*
Y74900D01*
X72225Y60338D02*
X77338D01*
X2662Y55224D02*
Y60338D01*
Y-14338D02*
X7776D01*
X77338D02*
Y-9225D01*
Y55224D02*
Y60338D01*
X2662D02*
X7776D01*
X2662Y-14338D02*
Y-9225D01*
X72225Y-14338D02*
X77338D01*
D16*
X111625Y80654D02*
X120089Y72190D01*
X111625D02*
X120089Y80654D01*
X111625Y76422D02*
X120089D01*
X115857Y72190D02*
Y80654D01*
X99055Y-15040D02*
X90591Y-6576D01*
X99055D02*
X90591Y-15040D01*
X99055Y-10808D02*
X90591D01*
X94823Y-6576D02*
Y-15040D01*
M02*
