G04*
G04 #@! TF.GenerationSoftware,Altium Limited,Altium Designer,20.0.7 (75)*
G04*
G04 Layer_Color=8388736*
%FSLAX44Y44*%
%MOMM*%
G71*
G01*
G75*
%ADD15R,1.9032X1.3032*%
%ADD16R,1.3032X1.9032*%
%ADD17C,1.7272*%
%ADD18R,1.7272X1.7272*%
%ADD19C,1.7032*%
%ADD20R,1.7032X1.7032*%
%ADD21C,1.5240*%
%ADD22R,2.7432X2.7432*%
%ADD23C,2.7432*%
%ADD24R,1.5240X1.5240*%
%ADD25C,4.6482*%
%ADD26C,1.2032*%
D15*
X552450Y579920D02*
D03*
Y552920D02*
D03*
X577850D02*
D03*
Y579920D02*
D03*
X755650D02*
D03*
Y552920D02*
D03*
X730250Y579920D02*
D03*
Y552920D02*
D03*
X628650Y579920D02*
D03*
Y552920D02*
D03*
X603250D02*
D03*
Y579920D02*
D03*
X628650Y448780D02*
D03*
Y475780D02*
D03*
X603250D02*
D03*
Y448780D02*
D03*
X577850Y475780D02*
D03*
Y448780D02*
D03*
X505460Y83020D02*
D03*
Y110020D02*
D03*
X459740D02*
D03*
Y83020D02*
D03*
X482600D02*
D03*
Y110020D02*
D03*
X406400Y224320D02*
D03*
Y197320D02*
D03*
D16*
X559600Y177800D02*
D03*
X532600D02*
D03*
Y154940D02*
D03*
X559600D02*
D03*
D17*
X755650Y44450D02*
D03*
Y19050D02*
D03*
X730250Y44450D02*
D03*
Y19050D02*
D03*
X704850Y44450D02*
D03*
Y19050D02*
D03*
X679450Y44450D02*
D03*
Y19050D02*
D03*
X654050Y44450D02*
D03*
Y19050D02*
D03*
X628650Y44450D02*
D03*
Y19050D02*
D03*
X603250Y44450D02*
D03*
Y19050D02*
D03*
X577850Y44450D02*
D03*
Y19050D02*
D03*
X552450Y44450D02*
D03*
Y19050D02*
D03*
X527050Y44450D02*
D03*
Y19050D02*
D03*
X501650Y44450D02*
D03*
Y19050D02*
D03*
X476250Y44450D02*
D03*
Y19050D02*
D03*
X450850Y44450D02*
D03*
Y19050D02*
D03*
X425450Y44450D02*
D03*
Y19050D02*
D03*
X400050Y44450D02*
D03*
Y19050D02*
D03*
X374650Y44450D02*
D03*
Y19050D02*
D03*
X349250Y44450D02*
D03*
Y19050D02*
D03*
X323850Y44450D02*
D03*
Y19050D02*
D03*
X298450Y44450D02*
D03*
Y19050D02*
D03*
X273050Y44450D02*
D03*
Y19050D02*
D03*
X247650Y44450D02*
D03*
Y19050D02*
D03*
X222250Y44450D02*
D03*
Y19050D02*
D03*
X196850Y44450D02*
D03*
Y527050D02*
D03*
X222250Y501650D02*
D03*
Y527050D02*
D03*
X247650Y501650D02*
D03*
Y527050D02*
D03*
X273050Y501650D02*
D03*
Y527050D02*
D03*
X298450Y501650D02*
D03*
Y527050D02*
D03*
X323850Y501650D02*
D03*
Y527050D02*
D03*
X349250Y501650D02*
D03*
Y527050D02*
D03*
X374650Y501650D02*
D03*
Y527050D02*
D03*
X400050Y501650D02*
D03*
Y527050D02*
D03*
X425450Y501650D02*
D03*
Y527050D02*
D03*
X450850Y501650D02*
D03*
Y527050D02*
D03*
X476250Y501650D02*
D03*
Y527050D02*
D03*
X501650Y501650D02*
D03*
Y527050D02*
D03*
X527050Y501650D02*
D03*
Y527050D02*
D03*
X552450Y501650D02*
D03*
Y527050D02*
D03*
X577850Y501650D02*
D03*
Y527050D02*
D03*
X603250Y501650D02*
D03*
Y527050D02*
D03*
X628650Y501650D02*
D03*
Y527050D02*
D03*
X654050Y501650D02*
D03*
Y527050D02*
D03*
X679450Y501650D02*
D03*
Y527050D02*
D03*
X704850Y501650D02*
D03*
Y527050D02*
D03*
X730250Y501650D02*
D03*
Y527050D02*
D03*
X755650Y501650D02*
D03*
Y527050D02*
D03*
D18*
X196850Y19050D02*
D03*
Y501650D02*
D03*
D19*
X717550Y647700D02*
D03*
Y622300D02*
D03*
X692150Y647700D02*
D03*
Y622300D02*
D03*
X666750Y647700D02*
D03*
Y622300D02*
D03*
X641350Y647700D02*
D03*
Y622300D02*
D03*
X615950Y647700D02*
D03*
Y622300D02*
D03*
X590550Y647700D02*
D03*
Y622300D02*
D03*
X565150Y647700D02*
D03*
Y622300D02*
D03*
X539750Y647700D02*
D03*
Y622300D02*
D03*
X514350Y647700D02*
D03*
Y622300D02*
D03*
X488950Y647700D02*
D03*
Y622300D02*
D03*
X463550Y647700D02*
D03*
Y622300D02*
D03*
X438150Y647700D02*
D03*
Y622300D02*
D03*
X412750Y647700D02*
D03*
Y622300D02*
D03*
X387350Y647700D02*
D03*
Y622300D02*
D03*
X361950Y647700D02*
D03*
Y622300D02*
D03*
X336550Y647700D02*
D03*
Y622300D02*
D03*
X311150Y647700D02*
D03*
Y622300D02*
D03*
X285750Y647700D02*
D03*
Y622300D02*
D03*
X260350Y647700D02*
D03*
Y622300D02*
D03*
X234950Y647700D02*
D03*
X770890Y371710D02*
D03*
Y346710D02*
D03*
Y296710D02*
D03*
Y321710D02*
D03*
Y396710D02*
D03*
D20*
X234950Y622300D02*
D03*
D21*
X459740Y226060D02*
D03*
X485140D02*
D03*
X459740Y149860D02*
D03*
X485140D02*
D03*
X510540D02*
D03*
Y226060D02*
D03*
X434340D02*
D03*
D22*
X805180Y130810D02*
D03*
D23*
Y181610D02*
D03*
Y232410D02*
D03*
D24*
X434340Y149860D02*
D03*
D25*
X146050Y514350D02*
D03*
X806450Y482600D02*
D03*
Y63500D02*
D03*
X146050Y31750D02*
D03*
D26*
X349250Y588010D02*
D03*
X473710Y608330D02*
D03*
M02*
