M48
;Layer_Color=9474304
;FILE_FORMAT=2:5
INCH,LZ
;TYPE=PLATED
T1F00S00C0.00787
T2F00S00C0.02362
T3F00S00C0.03200
T4F00S00C0.03937
T5F00S00C0.08858
%
T01
X0008661Y-0054331
X000748Y-0019817
X0007874Y-0013386
X0013386Y-0017323
X0019685Y-0015748
X0021654Y-0019685
X0023622Y-0024016
X0016929Y-0024409
X0032283Y-0027165
X0033071Y-0033465
X0032283Y-0037402
X0038583Y-0032677
X0049606Y-0008661
Y0000394
X0045669Y0009055
X004685Y0019094
X0038976Y0020866
X0038465Y0017441
X0036654Y0014134
X0032283Y0022441
X0023622Y0020866
X0015354Y0017717
X0010236Y0020472
X0005118Y0018898
X-0006299Y002126
Y0007874
X-001063Y0006693
X-001378Y0010236
X-0019291Y0006693
X-0024409Y0007874
X-0025197Y0012205
X-0020472Y001378
X-0024803Y0020866
X-0024409Y0024016
X-001811Y-0012992
X-0002362Y-0012598
X0Y-0016535
X-0000787Y-0025591
X-0005118Y-0024016
X-0064291Y-0007126
X-0068189Y-0007708
X-007122Y-0007874
X-0073819Y-0007992
X-0076378Y-0007913
X-0079055Y-0007835
X-0062992Y0045224
X-005748Y0040157
X-005202Y0035039
X-0031181Y0035787
X-0029567Y0038307
X-0027323Y0040787
X-0027559Y0059055
X-0033071Y0064567
X-0038583Y0069685
X0003937Y0031496
X0020079Y0035433
X0021654Y0044882
X0025197Y0048031
X0032677Y0037795
X0032677Y0035039
X0032677Y0032283
X0032283Y0029134
X0032185Y0026575
X004438Y0029134
X0043071Y0039921
X0045118Y0044646
X0040551Y0045394
X0051181Y0045276
X0050984Y0041575
T02
X-0007874Y-0077953
X-0017717Y-0025197
X-004252Y-0018898
X-0040551Y0000394
Y0007874
Y0015354
X0006103Y0011088
X0033858Y-0007874
X0038641Y-0024842
X0064322Y-0024222
X0069021Y-0025932
X0070731Y-0021234
X0072441Y-0016535
X0067743Y-0014825
X0066032Y-0019524
X-0047185Y-0014567
X-0054724Y-0014173
X-0055512Y0000394
X-004811Y0000472
X-0048071Y0007795
X-0047913Y0015157
X-0055512Y0015354
Y0007874
X-0064567Y0024803
X-0075433Y-0020354
X-0063578Y-0033799
X-0052008Y-0049724
X-0051575Y0059842
X-0020472Y0026102
X-0015472
X-0010472
X0012598Y0038976
X0071653Y0031496
T03
X0045197Y-0005512
Y0004488
Y0014488
Y0024488
X0075197
Y0014488
Y0004488
Y-0005512
T04
X-001811Y-0047638
X-0008268
X0001575
X0011417
X002126
X0024409Y-0037795
X0014567
X0004724
X-0005118
X-0014961
X0057055Y-0043732
X0064127Y-0036661
X0049984Y-0050803
X0042913Y-0057874
X-0072441Y-0030709
X-0077165Y0013386
X-0036858Y0032232
X-0015354Y0047244
X-0005512
X0004331
X0014173
X0033071Y0057717
Y0067716
X0061024Y0044488
X0066149Y0041973
X0066759Y0036297
T05
X-0036102Y-0063858
X0048425Y0055787
M30
