G04*
G04 #@! TF.GenerationSoftware,Altium Limited,Altium Designer,20.0.7 (75)*
G04*
G04 Layer_Physical_Order=4*
G04 Layer_Color=16711680*
%FSLAX44Y44*%
%MOMM*%
G71*
G01*
G75*
%ADD14C,0.2000*%
%ADD19R,0.9652X0.8636*%
%ADD21R,0.8636X0.9652*%
%ADD38C,1.5240*%
%ADD47C,0.4000*%
%ADD50C,0.2790*%
%ADD51C,0.2290*%
%ADD52R,1.6500X1.6500*%
%ADD53C,1.6500*%
%ADD54C,1.5000*%
%ADD55P,1.4142X4X385.0*%
%ADD56C,1.0000*%
%ADD57R,1.3208X1.3208*%
%ADD58C,1.3208*%
%ADD59C,4.0000*%
%ADD60P,2.1213X4X90.0*%
%ADD61C,1.2700*%
%ADD62R,1.0000X1.2700*%
%ADD63O,1.0000X1.2700*%
%ADD64R,1.5000X1.5000*%
%ADD65C,0.4500*%
%ADD66C,0.6000*%
G04:AMPARAMS|DCode=96|XSize=2.8mm|YSize=1mm|CornerRadius=0mm|HoleSize=0mm|Usage=FLASHONLY|Rotation=45.000|XOffset=0mm|YOffset=0mm|HoleType=Round|Shape=Rectangle|*
%AMROTATEDRECTD96*
4,1,4,-0.6364,-1.3435,-1.3435,-0.6364,0.6364,1.3435,1.3435,0.6364,-0.6364,-1.3435,0.0*
%
%ADD96ROTATEDRECTD96*%

G04:AMPARAMS|DCode=97|XSize=0.8636mm|YSize=0.9652mm|CornerRadius=0mm|HoleSize=0mm|Usage=FLASHONLY|Rotation=135.000|XOffset=0mm|YOffset=0mm|HoleType=Round|Shape=Rectangle|*
%AMROTATEDRECTD97*
4,1,4,0.6466,0.0359,-0.0359,-0.6466,-0.6466,-0.0359,0.0359,0.6466,0.6466,0.0359,0.0*
%
%ADD97ROTATEDRECTD97*%

G04:AMPARAMS|DCode=98|XSize=0.8636mm|YSize=0.9652mm|CornerRadius=0mm|HoleSize=0mm|Usage=FLASHONLY|Rotation=125.000|XOffset=0mm|YOffset=0mm|HoleType=Round|Shape=Rectangle|*
%AMROTATEDRECTD98*
4,1,4,0.6430,-0.0769,-0.1477,-0.6305,-0.6430,0.0769,0.1477,0.6305,0.6430,-0.0769,0.0*
%
%ADD98ROTATEDRECTD98*%

%ADD99R,1.4732X0.2286*%
%ADD100R,0.2286X1.4732*%
%ADD101R,5.0038X5.0038*%
%ADD102R,0.6500X1.2500*%
G36*
X20804Y211224D02*
X34574Y209411D01*
X48196Y206701D01*
X61612Y203106D01*
X74763Y198642D01*
X87595Y193327D01*
X100052Y187184D01*
X112080Y180240D01*
X123628Y172523D01*
X128794Y168559D01*
X128204Y167411D01*
X127313Y167682D01*
X123000Y168106D01*
X118687Y167682D01*
X114540Y166424D01*
X110718Y164381D01*
X107368Y161632D01*
X104619Y158282D01*
X102576Y154460D01*
X101318Y150313D01*
X100894Y146000D01*
X101318Y141687D01*
X102576Y137540D01*
X104619Y133718D01*
X107368Y130368D01*
X110718Y127619D01*
X114540Y125576D01*
X118687Y124318D01*
X123000Y123894D01*
X127313Y124318D01*
X131460Y125576D01*
X135282Y127619D01*
X138632Y130368D01*
X141381Y133718D01*
X143424Y137540D01*
X144682Y141687D01*
X145106Y146000D01*
X144682Y150313D01*
X143424Y154460D01*
X143173Y154930D01*
X144167Y155719D01*
X145090Y154910D01*
X154910Y145090D01*
X164068Y134647D01*
X172523Y123628D01*
X180240Y112080D01*
X187184Y100052D01*
X193327Y87595D01*
X198642Y74763D01*
X203106Y61612D01*
X206701Y48196D01*
X209411Y34574D01*
X211224Y20804D01*
X212132Y6945D01*
Y-0D01*
Y-6945D01*
X211224Y-20804D01*
X209411Y-34574D01*
X206701Y-48196D01*
X203106Y-61612D01*
X198642Y-74764D01*
X193327Y-87595D01*
X187184Y-100052D01*
X180240Y-112080D01*
X172523Y-123628D01*
X164068Y-134647D01*
X154910Y-145090D01*
X145090Y-154910D01*
X134647Y-164068D01*
X123628Y-172523D01*
X112080Y-180240D01*
X100052Y-187184D01*
X87595Y-193327D01*
X74763Y-198642D01*
X61612Y-203106D01*
X48196Y-206701D01*
X34574Y-209411D01*
X20804Y-211224D01*
X6945Y-212132D01*
X-6945D01*
X-20804Y-211224D01*
X-34574Y-209411D01*
X-48196Y-206701D01*
X-61612Y-203106D01*
X-74764Y-198642D01*
X-87595Y-193327D01*
X-91725Y-191291D01*
X-91376Y-190069D01*
X-91000Y-190106D01*
X-86687Y-189682D01*
X-82540Y-188424D01*
X-78718Y-186381D01*
X-75368Y-183632D01*
X-72619Y-180282D01*
X-70576Y-176460D01*
X-69318Y-172313D01*
X-68894Y-168000D01*
X-69318Y-163687D01*
X-70576Y-159540D01*
X-72619Y-155718D01*
X-75368Y-152368D01*
X-78718Y-149619D01*
X-82540Y-147576D01*
X-86687Y-146318D01*
X-91000Y-145894D01*
X-95313Y-146318D01*
X-99460Y-147576D01*
X-103282Y-149619D01*
X-106632Y-152368D01*
X-109381Y-155718D01*
X-111424Y-159540D01*
X-112682Y-163687D01*
X-113106Y-168000D01*
X-112682Y-172313D01*
X-111424Y-176460D01*
X-109381Y-180282D01*
X-109266Y-180421D01*
X-110088Y-181390D01*
X-112080Y-180240D01*
X-123628Y-172523D01*
X-134647Y-164068D01*
X-145090Y-154910D01*
X-154910Y-145090D01*
X-164068Y-134647D01*
X-172523Y-123628D01*
X-180240Y-112080D01*
X-187184Y-100052D01*
X-193327Y-87595D01*
X-198642Y-74764D01*
X-203106Y-61612D01*
X-206701Y-48196D01*
X-209411Y-34574D01*
X-211224Y-20804D01*
X-212132Y-6945D01*
Y0D01*
Y6945D01*
X-211224Y20804D01*
X-209411Y34574D01*
X-206701Y48196D01*
X-203106Y61612D01*
X-198642Y74763D01*
X-193327Y87595D01*
X-187184Y100052D01*
X-180240Y112080D01*
X-172523Y123628D01*
X-164068Y134647D01*
X-154910Y145090D01*
X-145090Y154910D01*
X-134647Y164068D01*
X-123628Y172523D01*
X-112080Y180240D01*
X-100052Y187184D01*
X-87595Y193327D01*
X-74764Y198642D01*
X-61612Y203106D01*
X-48196Y206701D01*
X-34574Y209411D01*
X-20804Y211224D01*
X-6945Y212132D01*
X6945D01*
X20804Y211224D01*
D02*
G37*
%LPC*%
G36*
X-22730Y201438D02*
Y195270D01*
X-16562D01*
X-16654Y195968D01*
X-17414Y197803D01*
X-18622Y199378D01*
X-20198Y200586D01*
X-22032Y201346D01*
X-22730Y201438D01*
D02*
G37*
G36*
X-25270D02*
X-25968Y201346D01*
X-27803Y200586D01*
X-29378Y199378D01*
X-30586Y197803D01*
X-31346Y195968D01*
X-31438Y195270D01*
X-25270D01*
Y201438D01*
D02*
G37*
G36*
X-16562Y192730D02*
X-22730D01*
Y186562D01*
X-22032Y186654D01*
X-20198Y187414D01*
X-18622Y188622D01*
X-17414Y190198D01*
X-16654Y192032D01*
X-16562Y192730D01*
D02*
G37*
G36*
X-25270D02*
X-31438D01*
X-31346Y192032D01*
X-30586Y190198D01*
X-29378Y188622D01*
X-27803Y187414D01*
X-25968Y186654D01*
X-25270Y186562D01*
Y192730D01*
D02*
G37*
G36*
X-96000Y179333D02*
X-97658Y179003D01*
X-99064Y178064D01*
X-100003Y176658D01*
X-100189Y175725D01*
X-101567Y175307D01*
X-103515Y177255D01*
X-123595Y157175D01*
X-124644Y157383D01*
X-124951Y157615D01*
X-126007Y158992D01*
X-127470Y160114D01*
X-129172Y160819D01*
X-131000Y161060D01*
X-132827Y160819D01*
X-134530Y160114D01*
X-135992Y158992D01*
X-137114Y157530D01*
X-137819Y155827D01*
X-138060Y154000D01*
X-137819Y152172D01*
X-137114Y150470D01*
X-135992Y149007D01*
X-134530Y147885D01*
X-132827Y147180D01*
X-131000Y146939D01*
X-129172Y147180D01*
X-127470Y147885D01*
X-126007Y149007D01*
X-124885Y150470D01*
X-124562Y151251D01*
X-123064Y151549D01*
X-116243Y144728D01*
X-93615Y167355D01*
X-95967Y169707D01*
X-94761Y170913D01*
X-94342Y170997D01*
X-92936Y171936D01*
X-91997Y173342D01*
X-91667Y175000D01*
X-91997Y176658D01*
X-92936Y178064D01*
X-94342Y179003D01*
X-96000Y179333D01*
D02*
G37*
G36*
X14270Y176438D02*
Y170270D01*
X20438D01*
X20346Y170968D01*
X19586Y172803D01*
X18378Y174378D01*
X16803Y175586D01*
X14968Y176346D01*
X14270Y176438D01*
D02*
G37*
G36*
X11730D02*
X11032Y176346D01*
X9197Y175586D01*
X7622Y174378D01*
X6414Y172803D01*
X5654Y170968D01*
X5562Y170270D01*
X11730D01*
Y176438D01*
D02*
G37*
G36*
X20438Y167730D02*
X14270D01*
Y161562D01*
X14968Y161654D01*
X16803Y162414D01*
X18378Y163622D01*
X19586Y165198D01*
X20346Y167032D01*
X20438Y167730D01*
D02*
G37*
G36*
X11730D02*
X5562D01*
X5654Y167032D01*
X6414Y165198D01*
X7622Y163622D01*
X9197Y162414D01*
X11032Y161654D01*
X11730Y161562D01*
Y167730D01*
D02*
G37*
G36*
X-82000Y166333D02*
X-83658Y166003D01*
X-85064Y165064D01*
X-86003Y163658D01*
X-86333Y162000D01*
X-86332Y161994D01*
X-87293Y161033D01*
X-90080Y163820D01*
X-112707Y141192D01*
X-102808Y131293D01*
X-80180Y153920D01*
X-82967Y156707D01*
X-82006Y157668D01*
X-82000Y157667D01*
X-80342Y157997D01*
X-78936Y158936D01*
X-77997Y160342D01*
X-77667Y162000D01*
X-77997Y163658D01*
X-78936Y165064D01*
X-80342Y166003D01*
X-82000Y166333D01*
D02*
G37*
G36*
X84000Y179582D02*
X81520Y179255D01*
X79209Y178298D01*
X77225Y176775D01*
X75702Y174791D01*
X74745Y172480D01*
X74418Y170000D01*
X74745Y167520D01*
X75702Y165209D01*
X77225Y163225D01*
X79209Y161702D01*
X81520Y160744D01*
X84000Y160418D01*
X86480Y160744D01*
X88791Y161702D01*
X90775Y163225D01*
X92298Y165209D01*
X93256Y167520D01*
X93582Y170000D01*
X93256Y172480D01*
X92298Y174791D01*
X90775Y176775D01*
X88791Y178298D01*
X86480Y179255D01*
X84000Y179582D01*
D02*
G37*
G36*
X-68000Y152333D02*
X-69658Y152003D01*
X-71064Y151064D01*
X-72003Y149658D01*
X-72333Y148000D01*
X-72332Y147994D01*
X-73293Y147033D01*
X-76645Y150385D01*
X-99272Y127757D01*
X-89373Y117858D01*
X-66745Y140485D01*
X-68967Y142707D01*
X-68006Y143668D01*
X-68000Y143667D01*
X-66342Y143997D01*
X-64936Y144936D01*
X-63997Y146342D01*
X-63667Y148000D01*
X-63997Y149658D01*
X-64936Y151064D01*
X-66342Y152003D01*
X-68000Y152333D01*
D02*
G37*
G36*
X93500Y154100D02*
X74500D01*
Y135100D01*
X93500D01*
Y154100D01*
D02*
G37*
G36*
X-134627Y146142D02*
X-157255Y123515D01*
X-154468Y120728D01*
X-157994Y117202D01*
X-158000Y117203D01*
X-159658Y116874D01*
X-161064Y115934D01*
X-162003Y114528D01*
X-162333Y112870D01*
X-162003Y111212D01*
X-161064Y109806D01*
X-159658Y108867D01*
X-158000Y108537D01*
X-156342Y108867D01*
X-154936Y109806D01*
X-153997Y111212D01*
X-153667Y112870D01*
X-153668Y112876D01*
X-150142Y116402D01*
X-147355Y113615D01*
X-124728Y136243D01*
X-134627Y146142D01*
D02*
G37*
G36*
X-121192Y132707D02*
X-143820Y110080D01*
X-141033Y107293D01*
X-143994Y104332D01*
X-144000Y104333D01*
X-145658Y104003D01*
X-147064Y103064D01*
X-148003Y101658D01*
X-148333Y100000D01*
X-148003Y98342D01*
X-147064Y96936D01*
X-145658Y95997D01*
X-144000Y95667D01*
X-142342Y95997D01*
X-140936Y96936D01*
X-139996Y98342D01*
X-139667Y100000D01*
X-139668Y100006D01*
X-136707Y102967D01*
X-133920Y100180D01*
X-111293Y122808D01*
X-121192Y132707D01*
D02*
G37*
G36*
X55000Y118333D02*
X53342Y118003D01*
X51936Y117064D01*
X50997Y115658D01*
X50667Y114000D01*
X50997Y112342D01*
X51936Y110936D01*
X51941Y110932D01*
Y109267D01*
X40767Y98092D01*
X39564Y98686D01*
X39605Y99000D01*
X39346Y100968D01*
X38586Y102802D01*
X37378Y104378D01*
X35803Y105586D01*
X33968Y106346D01*
X33270Y106438D01*
Y99000D01*
X32000D01*
Y97730D01*
X24562D01*
X24654Y97032D01*
X25414Y95197D01*
X26622Y93622D01*
X28198Y92414D01*
X30032Y91654D01*
X32000Y91395D01*
X32315Y91436D01*
X32908Y90233D01*
X10837Y68163D01*
X10174Y67171D01*
X9941Y66000D01*
X9941Y66000D01*
Y51068D01*
X9936Y51064D01*
X8997Y49658D01*
X8667Y48000D01*
X8938Y46636D01*
X8237Y45366D01*
X7141D01*
Y39270D01*
X20857D01*
Y45366D01*
X17763D01*
X17062Y46636D01*
X17333Y48000D01*
X17003Y49658D01*
X16064Y51064D01*
X16059Y51068D01*
Y64733D01*
X57163Y105837D01*
X57163Y105837D01*
X57826Y106830D01*
X58059Y108000D01*
Y110932D01*
X58064Y110936D01*
X59003Y112342D01*
X59333Y114000D01*
X59003Y115658D01*
X58064Y117064D01*
X56658Y118003D01*
X55000Y118333D01*
D02*
G37*
G36*
X64000Y126333D02*
X62342Y126003D01*
X60936Y125064D01*
X59997Y123658D01*
X59667Y122000D01*
X59997Y120342D01*
X60936Y118936D01*
X60941Y118932D01*
Y104267D01*
X51006Y94332D01*
X51000Y94333D01*
X49342Y94003D01*
X47936Y93064D01*
X46997Y91658D01*
X46667Y90000D01*
X46997Y88342D01*
X47936Y86936D01*
X49342Y85997D01*
X51000Y85667D01*
X52658Y85997D01*
X54064Y86936D01*
X55003Y88342D01*
X55333Y90000D01*
X55332Y90006D01*
X66163Y100837D01*
X66826Y101830D01*
X67059Y103000D01*
Y118932D01*
X67064Y118936D01*
X68003Y120342D01*
X68333Y122000D01*
X68003Y123658D01*
X67064Y125064D01*
X65658Y126003D01*
X64000Y126333D01*
D02*
G37*
G36*
X-107757Y119272D02*
X-130385Y96645D01*
X-127598Y93858D01*
X-130124Y91332D01*
X-130130Y91333D01*
X-131789Y91003D01*
X-133194Y90064D01*
X-134134Y88658D01*
X-134463Y87000D01*
X-134134Y85342D01*
X-133194Y83936D01*
X-131789Y82997D01*
X-130130Y82667D01*
X-128472Y82997D01*
X-127066Y83936D01*
X-126127Y85342D01*
X-125797Y87000D01*
X-125798Y87006D01*
X-123272Y89532D01*
X-120485Y86745D01*
X-97858Y109373D01*
X-107757Y119272D01*
D02*
G37*
G36*
X8657Y143078D02*
X8657Y143078D01*
X-59985D01*
X-61546Y142768D01*
X-62869Y141884D01*
X-124675Y80078D01*
X-136000D01*
X-136000Y80078D01*
X-137561Y79768D01*
X-138884Y78884D01*
X-142384Y75384D01*
X-143268Y74061D01*
X-143579Y72500D01*
X-143579Y72500D01*
Y70514D01*
X-145817D01*
Y71054D01*
X-146404D01*
X-146538Y71727D01*
X-147233Y72768D01*
X-149733Y75267D01*
X-150773Y75963D01*
X-152000Y76207D01*
X-160000D01*
X-161227Y75963D01*
X-162267Y75267D01*
X-164638Y72896D01*
X-165333Y71856D01*
X-165578Y70629D01*
Y70397D01*
X-165968Y70346D01*
X-167803Y69586D01*
X-169378Y68378D01*
X-170586Y66803D01*
X-170833Y66207D01*
X-176671D01*
X-177634Y67170D01*
Y68731D01*
X-183730D01*
Y63143D01*
X-182677D01*
X-181121Y61587D01*
X-181647Y60317D01*
X-191826D01*
Y47681D01*
X-178174D01*
Y50941D01*
X-173661D01*
X-172514Y50643D01*
Y40559D01*
X-189604D01*
X-189604Y40559D01*
X-190579Y40365D01*
X-191789Y41294D01*
X-193820Y42135D01*
X-196000Y42422D01*
X-198180Y42135D01*
X-200211Y41294D01*
X-201955Y39955D01*
X-203294Y38211D01*
X-204135Y36180D01*
X-204422Y34000D01*
X-204135Y31820D01*
X-203294Y29789D01*
X-201955Y28045D01*
X-200211Y26706D01*
X-198180Y25865D01*
X-196000Y25578D01*
X-193820Y25865D01*
X-191789Y26706D01*
X-190045Y28045D01*
X-188706Y29789D01*
X-187865Y31820D01*
X-187578Y34000D01*
X-187191Y34441D01*
X-182544D01*
X-182058Y33268D01*
X-207163Y8163D01*
X-207826Y7171D01*
X-208059Y6000D01*
X-208059Y6000D01*
Y-10932D01*
X-208064Y-10936D01*
X-209003Y-12342D01*
X-209333Y-14000D01*
X-209003Y-15658D01*
X-208064Y-17064D01*
X-206658Y-18003D01*
X-205000Y-18333D01*
X-203342Y-18003D01*
X-203104Y-19152D01*
X-203003Y-19658D01*
X-202064Y-21064D01*
X-200658Y-22003D01*
X-199000Y-22333D01*
X-197342Y-22003D01*
X-197104Y-23152D01*
X-197003Y-23658D01*
X-196064Y-25064D01*
X-194658Y-26003D01*
X-193000Y-26333D01*
X-191522Y-26039D01*
X-191298Y-26032D01*
X-190183Y-26757D01*
X-190003Y-27658D01*
X-189064Y-29064D01*
X-187658Y-30003D01*
X-186000Y-30333D01*
X-185475Y-30229D01*
X-184333Y-31000D01*
X-184003Y-32658D01*
X-183064Y-34064D01*
X-181658Y-35003D01*
X-180000Y-35333D01*
X-178342Y-35003D01*
X-177300Y-35835D01*
X-177333Y-36000D01*
X-177003Y-37658D01*
X-176064Y-39064D01*
X-174658Y-40003D01*
X-173000Y-40333D01*
X-171342Y-40003D01*
X-169936Y-39064D01*
X-168997Y-37658D01*
X-168667Y-36000D01*
X-168997Y-34342D01*
X-169936Y-32936D01*
X-170455Y-32589D01*
Y-11183D01*
X-166610D01*
Y-15761D01*
X-166610Y-15761D01*
X-166584Y-15891D01*
X-167586Y-17198D01*
X-168346Y-19032D01*
X-168438Y-19730D01*
X-161000D01*
Y-21000D01*
X-159730D01*
Y-28438D01*
X-159032Y-28346D01*
X-157198Y-27586D01*
X-155622Y-26378D01*
X-154453Y-24854D01*
X-154326Y-24843D01*
X-153183Y-25247D01*
Y-31054D01*
X-150770D01*
Y-21148D01*
Y-11242D01*
X-151996D01*
X-153186Y-11186D01*
X-153242Y-9996D01*
Y-8770D01*
X-163148D01*
Y-6230D01*
X-153242D01*
Y-3770D01*
X-163148D01*
Y-1230D01*
X-153242D01*
Y1183D01*
X-153782D01*
Y14357D01*
Y24357D01*
Y34357D01*
Y47124D01*
X-153396Y47441D01*
X-149559D01*
Y21270D01*
X-122000D01*
Y20000D01*
X-120730D01*
Y-7559D01*
X-106271D01*
X-105785Y-8732D01*
X-106911Y-9858D01*
X-107606Y-10898D01*
X-107782Y-11782D01*
X-145817D01*
Y-11242D01*
X-148230D01*
Y-21148D01*
Y-31054D01*
X-145817D01*
X-145817Y-31054D01*
X-145817Y-31054D01*
X-145674Y-31112D01*
X-145205Y-32249D01*
X-145198Y-32672D01*
X-145820Y-34173D01*
X-146060Y-36000D01*
X-145820Y-37827D01*
X-145114Y-39530D01*
X-143992Y-40992D01*
X-142530Y-42115D01*
X-140827Y-42820D01*
X-139000Y-43060D01*
X-137173Y-42820D01*
X-135470Y-42115D01*
X-134008Y-40992D01*
X-133829Y-40760D01*
X-132559Y-41191D01*
Y-52681D01*
X-141826D01*
Y-65317D01*
X-128174D01*
Y-58271D01*
X-128096Y-58219D01*
X-126826Y-58898D01*
Y-65317D01*
X-113174D01*
Y-63077D01*
X-101200D01*
X-100826Y-63451D01*
Y-70319D01*
X-87174D01*
Y-57683D01*
X-95058D01*
X-96626Y-56115D01*
X-97416Y-55587D01*
X-97031Y-54317D01*
X-87174D01*
Y-41681D01*
X-96441D01*
Y-32682D01*
X-96219Y-32576D01*
X-95171Y-32281D01*
X-94356Y-32826D01*
X-93185Y-33059D01*
X-93185Y-33059D01*
X-90319D01*
Y-36826D01*
X-77683D01*
Y-23174D01*
X-90319D01*
X-91298Y-22471D01*
Y-21291D01*
X-91298Y-21291D01*
X-91357Y-20995D01*
Y-11782D01*
X-91357D01*
X-91177Y-10823D01*
X-90218Y-10643D01*
Y-10643D01*
X-71486D01*
X-71058Y-11736D01*
Y-23174D01*
X-74317D01*
Y-36826D01*
X-63059D01*
Y-41681D01*
X-68826D01*
Y-44940D01*
X-71174D01*
Y-41681D01*
X-84826D01*
Y-54317D01*
X-71174D01*
Y-51058D01*
X-68826D01*
Y-54317D01*
X-55932D01*
X-55171Y-54826D01*
X-54000Y-55059D01*
X-38267D01*
X-30163Y-63163D01*
X-30163Y-63163D01*
X-29170Y-63826D01*
X-28000Y-64059D01*
X-28000Y-64059D01*
X-16068D01*
X-16064Y-64064D01*
X-14658Y-65003D01*
X-13000Y-65333D01*
X-11342Y-65003D01*
X-9936Y-64064D01*
X-8997Y-62658D01*
X-8667Y-61000D01*
X-8883Y-59915D01*
X-8051Y-58645D01*
X29233D01*
X29759Y-59915D01*
X27733Y-61941D01*
X1068D01*
X1064Y-61936D01*
X-342Y-60997D01*
X-2000Y-60667D01*
X-3658Y-60997D01*
X-5064Y-61936D01*
X-6003Y-63342D01*
X-6333Y-65000D01*
X-6003Y-66658D01*
X-5064Y-68064D01*
X-3658Y-69003D01*
X-2000Y-69333D01*
X-342Y-69003D01*
X1064Y-68064D01*
X1068Y-68059D01*
X28819D01*
X29141Y-68487D01*
X29400Y-69274D01*
X23733Y-74941D01*
X-66000D01*
X-66000Y-74941D01*
X-67171Y-75174D01*
X-68163Y-75837D01*
X-68163Y-75837D01*
X-92267Y-99941D01*
X-109141D01*
Y-95270D01*
X-115999D01*
X-122857D01*
Y-101366D01*
X-117860D01*
X-117374Y-102540D01*
X-120009Y-105174D01*
X-128319D01*
X-128942Y-104162D01*
Y-100826D01*
X-125683D01*
Y-87174D01*
X-138319D01*
Y-89698D01*
X-156496D01*
X-156598Y-89353D01*
X-157921Y-87193D01*
X-159759Y-85450D01*
X-161985Y-84241D01*
X-164448Y-83650D01*
X-166980Y-83716D01*
X-169408Y-84436D01*
X-171568Y-85759D01*
X-173312Y-87596D01*
X-174520Y-89822D01*
X-175112Y-92285D01*
X-175046Y-94818D01*
X-174326Y-97246D01*
X-173003Y-99406D01*
X-171165Y-101150D01*
X-168939Y-102358D01*
X-166476Y-102949D01*
X-163944Y-102883D01*
X-161515Y-102164D01*
X-159356Y-100840D01*
X-157612Y-99003D01*
X-156403Y-96777D01*
X-156173Y-95816D01*
X-138319D01*
Y-100826D01*
X-135060D01*
Y-110001D01*
X-135060Y-110001D01*
X-134827Y-111172D01*
X-134164Y-112164D01*
X-132165Y-114163D01*
X-131173Y-114826D01*
X-130002Y-115059D01*
X-128319D01*
Y-118826D01*
X-115683D01*
Y-109500D01*
X-113490Y-107307D01*
X-112317Y-107793D01*
Y-118826D01*
X-109058D01*
Y-121174D01*
X-110319D01*
Y-124941D01*
X-126417D01*
X-127415Y-125140D01*
X-128293Y-124307D01*
X-130519Y-123098D01*
X-132982Y-122507D01*
X-135514Y-122573D01*
X-137942Y-123293D01*
X-140102Y-124616D01*
X-141846Y-126454D01*
X-143054Y-128680D01*
X-143646Y-131143D01*
X-143579Y-133675D01*
X-142860Y-136103D01*
X-141537Y-138263D01*
X-139699Y-140007D01*
X-137473Y-141215D01*
X-135010Y-141807D01*
X-132478Y-141741D01*
X-130049Y-141021D01*
X-127890Y-139698D01*
X-126146Y-137860D01*
X-124937Y-135634D01*
X-124346Y-133171D01*
X-124378Y-131969D01*
X-123491Y-131059D01*
X-110319D01*
Y-134826D01*
X-97683D01*
Y-125500D01*
X-96030Y-123847D01*
X-94857Y-124333D01*
Y-126730D01*
X-87999D01*
X-80961D01*
X-75942Y-121711D01*
X-75270Y-121799D01*
Y-113000D01*
X-74000D01*
Y-111730D01*
X-65201D01*
X-65339Y-110679D01*
X-66235Y-108517D01*
X-67660Y-106660D01*
X-69517Y-105235D01*
X-71679Y-104339D01*
X-74000Y-104033D01*
X-74484Y-104097D01*
X-75077Y-102894D01*
X-60742Y-88559D01*
X-46546D01*
X-45920Y-89829D01*
X-46770Y-90937D01*
X-47782Y-93379D01*
X-47959Y-94730D01*
X-28041D01*
X-28218Y-93379D01*
X-29230Y-90937D01*
X-30080Y-89829D01*
X-29454Y-88559D01*
X-20865D01*
X-20239Y-89829D01*
X-21298Y-91209D01*
X-22255Y-93520D01*
X-22582Y-96000D01*
X-22255Y-98480D01*
X-21298Y-100791D01*
X-19775Y-102775D01*
X-17791Y-104298D01*
X-15480Y-105255D01*
X-13000Y-105582D01*
X-10520Y-105255D01*
X-8209Y-104298D01*
X-6224Y-102775D01*
X-4702Y-100791D01*
X-3744Y-98480D01*
X-3418Y-96000D01*
X-3744Y-93520D01*
X-4702Y-91209D01*
X-5761Y-89829D01*
X-5135Y-88559D01*
X4135D01*
X4761Y-89829D01*
X3702Y-91209D01*
X2745Y-93520D01*
X2418Y-96000D01*
X2745Y-98480D01*
X3702Y-100791D01*
X5225Y-102775D01*
X5974Y-103350D01*
X6057Y-104618D01*
X1837Y-108837D01*
X1174Y-109830D01*
X941Y-111000D01*
X941Y-111000D01*
Y-111984D01*
X-791Y-112702D01*
X-2776Y-114225D01*
X-4298Y-116209D01*
X-5256Y-118520D01*
X-5582Y-121000D01*
X-5256Y-123480D01*
X-4298Y-125791D01*
X-2776Y-127775D01*
X-1608Y-128671D01*
X-2039Y-129941D01*
X-7733D01*
X-12462Y-125212D01*
X-11745Y-123480D01*
X-11418Y-121000D01*
X-11745Y-118520D01*
X-12702Y-116209D01*
X-14225Y-114225D01*
X-16209Y-112702D01*
X-18520Y-111744D01*
X-21000Y-111418D01*
X-23480Y-111744D01*
X-25791Y-112702D01*
X-27775Y-114225D01*
X-29298Y-116209D01*
X-30255Y-118520D01*
X-30582Y-121000D01*
X-30255Y-123480D01*
X-29298Y-125791D01*
X-27775Y-127775D01*
X-25791Y-129298D01*
X-23480Y-130255D01*
X-23059Y-130311D01*
Y-191690D01*
X-23530Y-191886D01*
X-24992Y-193008D01*
X-26114Y-194470D01*
X-26820Y-196173D01*
X-27060Y-198000D01*
X-26820Y-199827D01*
X-26114Y-201530D01*
X-24992Y-202992D01*
X-23530Y-204114D01*
X-21827Y-204820D01*
X-20000Y-205060D01*
X-18173Y-204820D01*
X-16470Y-204114D01*
X-15008Y-202992D01*
X-13886Y-201530D01*
X-13180Y-199827D01*
X-12940Y-198000D01*
X-13180Y-196173D01*
X-13886Y-194470D01*
X-15008Y-193008D01*
X-16470Y-191886D01*
X-16941Y-191690D01*
Y-131181D01*
X-15671Y-130654D01*
X-11163Y-135163D01*
X-10171Y-135826D01*
X-9000Y-136059D01*
X-9000Y-136059D01*
X12000D01*
X12000Y-136059D01*
X13170Y-135826D01*
X14163Y-135163D01*
X18163Y-131163D01*
X18163Y-131163D01*
X18826Y-130171D01*
X19059Y-129000D01*
Y-125143D01*
X20329Y-124890D01*
X20702Y-125791D01*
X22225Y-127775D01*
X24209Y-129298D01*
X26520Y-130255D01*
X29000Y-130582D01*
X31480Y-130255D01*
X33791Y-129298D01*
X35775Y-127775D01*
X37298Y-125791D01*
X38255Y-123480D01*
X38582Y-121000D01*
X38255Y-118520D01*
X37538Y-116788D01*
X51163Y-103163D01*
X51163Y-103163D01*
X51826Y-102170D01*
X52059Y-101000D01*
X52286Y-100692D01*
X53702Y-100791D01*
X55225Y-102775D01*
X57209Y-104298D01*
X59520Y-105255D01*
X62000Y-105582D01*
X64480Y-105255D01*
X66791Y-104298D01*
X68776Y-102775D01*
X70298Y-100791D01*
X71255Y-98480D01*
X71582Y-96000D01*
X71255Y-93520D01*
X70298Y-91209D01*
X68776Y-89225D01*
X66791Y-87702D01*
X64480Y-86744D01*
X62000Y-86418D01*
X59520Y-86744D01*
X57569Y-87553D01*
X56850Y-86476D01*
X77446Y-65880D01*
X78433Y-66689D01*
X77997Y-67342D01*
X77667Y-69000D01*
X77997Y-70658D01*
X78936Y-72064D01*
X80342Y-73003D01*
X82000Y-73333D01*
X82006Y-73332D01*
X85837Y-77163D01*
X86830Y-77826D01*
X88000Y-78059D01*
X88000Y-78059D01*
X94109D01*
X94495Y-79329D01*
X94395Y-79395D01*
X93290Y-81049D01*
X92902Y-83000D01*
X93290Y-84951D01*
X94395Y-86605D01*
X96049Y-87710D01*
X98000Y-88098D01*
X98644Y-87970D01*
X105837Y-95163D01*
X106830Y-95826D01*
X108000Y-96059D01*
X108000Y-96059D01*
X121034D01*
X121034Y-96059D01*
X122205Y-95826D01*
X123197Y-95163D01*
X128853Y-89507D01*
X137298Y-97952D01*
X139962Y-95288D01*
X144969Y-100295D01*
X144439Y-101561D01*
X142441Y-101824D01*
X140130Y-102781D01*
X138146Y-104304D01*
X136623Y-106288D01*
X135666Y-108599D01*
X135339Y-111079D01*
X135666Y-113559D01*
X136623Y-115870D01*
X138146Y-117854D01*
X140130Y-119377D01*
X141862Y-120095D01*
Y-124661D01*
X137784Y-128740D01*
X136443Y-128284D01*
X136216Y-126559D01*
X135259Y-124249D01*
X133736Y-122264D01*
X131751Y-120741D01*
X129440Y-119784D01*
X126960Y-119458D01*
X124480Y-119784D01*
X123130Y-120344D01*
X88880Y-86094D01*
X89098Y-85000D01*
X88710Y-83049D01*
X87605Y-81395D01*
X85951Y-80290D01*
X84000Y-79902D01*
X82049Y-80290D01*
X80395Y-81395D01*
X79290Y-83049D01*
X78902Y-85000D01*
X79290Y-86951D01*
X80395Y-88605D01*
X80766Y-88853D01*
X80498Y-90201D01*
X80049Y-90290D01*
X78395Y-91395D01*
X77290Y-93049D01*
X76902Y-95000D01*
X77290Y-96951D01*
X78395Y-98605D01*
X78941Y-98970D01*
Y-101000D01*
X78941Y-101000D01*
X79174Y-102170D01*
X79837Y-103163D01*
X108438Y-131764D01*
X108340Y-133462D01*
X102799Y-139003D01*
X109898Y-146102D01*
X109000Y-147000D01*
X109898Y-147898D01*
X102799Y-154997D01*
X105569Y-157768D01*
X105083Y-158941D01*
X47267D01*
X26332Y-138006D01*
X26333Y-138000D01*
X26003Y-136342D01*
X25064Y-134936D01*
X23658Y-133997D01*
X22000Y-133667D01*
X20342Y-133997D01*
X18936Y-134936D01*
X17997Y-136342D01*
X17667Y-138000D01*
X17997Y-139658D01*
X18936Y-141064D01*
X20342Y-142003D01*
X22000Y-142333D01*
X22006Y-142332D01*
X43837Y-164163D01*
X44830Y-164826D01*
X46000Y-165059D01*
X46000Y-165059D01*
X114000D01*
X114000Y-165059D01*
X115170Y-164826D01*
X116163Y-164163D01*
X132663Y-147662D01*
X132884Y-147619D01*
X133876Y-146955D01*
X183163Y-97669D01*
X183826Y-96677D01*
X184059Y-95506D01*
Y-80744D01*
X191163Y-73640D01*
X191826Y-72648D01*
X192059Y-71477D01*
Y-51267D01*
X197163Y-46163D01*
X197163Y-46163D01*
X197826Y-45170D01*
X198059Y-44000D01*
X198059Y-44000D01*
Y-28267D01*
X205163Y-21163D01*
X205826Y-20171D01*
X206059Y-19000D01*
Y24800D01*
X205826Y25970D01*
X205163Y26963D01*
X205163Y26963D01*
X198852Y33274D01*
X199382Y34554D01*
X199678Y36800D01*
X199382Y39046D01*
X198515Y41139D01*
X197136Y42937D01*
X195339Y44316D01*
X193246Y45183D01*
X191000Y45478D01*
X188754Y45183D01*
X186661Y44316D01*
X184863Y42937D01*
X183484Y41139D01*
X182617Y39046D01*
X182322Y36800D01*
X182617Y34554D01*
X183484Y32461D01*
X184863Y30664D01*
X186275Y29580D01*
X186344Y28163D01*
X167500Y9319D01*
X158174D01*
Y-3317D01*
X169207D01*
X169693Y-4490D01*
X167500Y-6683D01*
X158174D01*
Y-19319D01*
X161941D01*
Y-23733D01*
X154733Y-30941D01*
X138000D01*
X138000Y-30941D01*
X136830Y-31174D01*
X135837Y-31837D01*
X135837Y-31837D01*
X132837Y-34837D01*
X132174Y-35830D01*
X131941Y-37000D01*
X131828Y-38174D01*
X120681D01*
Y-41941D01*
X110397D01*
X98059Y-29603D01*
Y24575D01*
X97826Y25746D01*
X97163Y26738D01*
X97163Y26738D01*
X97027Y26874D01*
X97283Y28414D01*
X98064Y28936D01*
X98416Y29462D01*
X100051Y29623D01*
X107837Y21837D01*
X108829Y21174D01*
X110000Y20941D01*
X110000Y20941D01*
X112032D01*
X112285Y19671D01*
X110461Y18916D01*
X108663Y17536D01*
X107284Y15739D01*
X106417Y13646D01*
X106122Y11400D01*
X106417Y9154D01*
X107284Y7061D01*
X108663Y5264D01*
X110461Y3884D01*
X112554Y3018D01*
X114800Y2722D01*
X117046Y3018D01*
X119139Y3884D01*
X120936Y5264D01*
X122315Y7061D01*
X123182Y9154D01*
X123478Y11400D01*
X123182Y13646D01*
X122315Y15739D01*
X120936Y17536D01*
X119139Y18916D01*
X117315Y19671D01*
X117568Y20941D01*
X122932D01*
X122936Y20936D01*
X124342Y19997D01*
X126000Y19667D01*
X127658Y19997D01*
X129064Y20936D01*
X129671Y21845D01*
X130941Y21459D01*
Y11267D01*
X114285Y-5390D01*
X112554Y-5617D01*
X110461Y-6484D01*
X108663Y-7864D01*
X107284Y-9661D01*
X106417Y-11754D01*
X106122Y-14000D01*
X106417Y-16246D01*
X107284Y-18339D01*
X108663Y-20136D01*
X110461Y-21516D01*
X112554Y-22382D01*
X114800Y-22678D01*
X117046Y-22382D01*
X119139Y-21516D01*
X120936Y-20136D01*
X122315Y-18339D01*
X123182Y-16246D01*
X123478Y-14000D01*
X123182Y-11754D01*
X122315Y-9661D01*
X120936Y-7864D01*
X120907Y-7419D01*
X122778Y-5548D01*
X124184Y-5938D01*
X124936Y-7064D01*
X126342Y-8003D01*
X128000Y-8333D01*
X129658Y-8003D01*
X131064Y-7064D01*
X132003Y-5658D01*
X132333Y-4000D01*
X132332Y-3994D01*
X144163Y7837D01*
X144163Y7837D01*
X144513Y8361D01*
X145000Y8297D01*
X147511Y8628D01*
X149851Y9597D01*
X151861Y11139D01*
X153403Y13149D01*
X154372Y15489D01*
X154571Y16998D01*
X155962Y17831D01*
X156174Y17751D01*
Y15681D01*
X169826D01*
Y28317D01*
X156174D01*
Y25058D01*
X152582D01*
X152582Y25058D01*
X151806Y24904D01*
X149851Y26403D01*
X148361Y27020D01*
Y28395D01*
X150124Y29125D01*
X152246Y30754D01*
X153875Y32876D01*
X154308Y33922D01*
X155634D01*
Y31143D01*
X161730D01*
Y38001D01*
Y44859D01*
X159239D01*
X158560Y46129D01*
X158767Y46438D01*
X159078Y47999D01*
X159078Y47999D01*
Y49634D01*
X161857D01*
Y55730D01*
X148141D01*
Y49634D01*
X149207D01*
X149693Y48461D01*
X148698Y47466D01*
X147652Y47899D01*
X146270Y48081D01*
Y38000D01*
X143730D01*
Y48081D01*
X142348Y47899D01*
X139876Y46875D01*
X138329Y45687D01*
X137059Y46314D01*
Y60451D01*
X136826Y61621D01*
X136163Y62613D01*
X136163Y62614D01*
X134008Y64768D01*
X134494Y65941D01*
X151000D01*
X151000Y65941D01*
X152170Y66174D01*
X153163Y66837D01*
X157339Y71013D01*
X158698Y70576D01*
X158714Y70481D01*
X154433Y66201D01*
X153549Y64878D01*
X153447Y64366D01*
X148141D01*
Y58270D01*
X161857D01*
Y62089D01*
X163188Y63421D01*
X163197Y63414D01*
X164683Y62799D01*
Y61122D01*
X164624Y60826D01*
X164683Y60531D01*
Y50174D01*
X177319D01*
Y53941D01*
X186800D01*
X186800Y53941D01*
X187918Y54164D01*
X188754Y53818D01*
X191000Y53522D01*
X193246Y53818D01*
X195339Y54685D01*
X197136Y56064D01*
X198515Y57861D01*
X199382Y59954D01*
X199678Y62200D01*
X199382Y64446D01*
X198515Y66539D01*
X197136Y68337D01*
X195339Y69716D01*
X193246Y70583D01*
X191000Y70878D01*
X188754Y70583D01*
X186661Y69716D01*
X184863Y68337D01*
X183484Y66539D01*
X182617Y64446D01*
X182322Y62200D01*
X182478Y61014D01*
X181640Y60059D01*
X177319D01*
Y63826D01*
X173345D01*
X172741Y65096D01*
X173586Y66198D01*
X174346Y68032D01*
X174438Y68730D01*
X167000D01*
Y70000D01*
X165730D01*
Y77438D01*
X165534Y77412D01*
X164941Y78615D01*
X170137Y83811D01*
X170303Y83804D01*
X172449Y84279D01*
X174400Y85295D01*
X176021Y86780D01*
X177202Y88634D01*
X177863Y90731D01*
X177959Y92928D01*
X177483Y95074D01*
X176468Y97024D01*
X174982Y98645D01*
X174388Y99024D01*
X174277Y100289D01*
X174887Y100848D01*
X176145Y102822D01*
X176849Y105055D01*
X176951Y107393D01*
X176444Y109679D01*
X175955Y110619D01*
X168747Y105571D01*
X167290Y107652D01*
X174498Y112699D01*
X173782Y113481D01*
X171808Y114738D01*
X169576Y115442D01*
X167237Y115544D01*
X164952Y115038D01*
X164218Y114656D01*
X163067Y115192D01*
X162914Y115880D01*
X161899Y117831D01*
X160414Y119452D01*
X158559Y120633D01*
X156462Y121294D01*
X154266Y121390D01*
X152120Y120914D01*
X150169Y119899D01*
X148548Y118414D01*
X147367Y116559D01*
X146706Y114462D01*
X146610Y112266D01*
X147086Y110119D01*
X148101Y108169D01*
X148388Y107857D01*
X145229Y104698D01*
X143964Y104809D01*
X143378Y105645D01*
X132196Y97814D01*
X134728Y94197D01*
X129590Y89059D01*
X112125D01*
X111639Y90232D01*
X122348Y100941D01*
X124932D01*
X124936Y100936D01*
X126342Y99997D01*
X128000Y99667D01*
X129658Y99997D01*
X131064Y100936D01*
X132003Y102342D01*
X132333Y104000D01*
X132003Y105658D01*
X131064Y107064D01*
X129658Y108003D01*
X128000Y108333D01*
X126342Y108003D01*
X125642Y107536D01*
X125197Y107651D01*
X124813Y109063D01*
X126868Y111118D01*
X127000Y111091D01*
X128658Y111421D01*
X130064Y112361D01*
X131003Y113766D01*
X131333Y115425D01*
X131003Y117083D01*
X130064Y118489D01*
X128658Y119428D01*
X127000Y119758D01*
X125342Y119428D01*
X123936Y118489D01*
X122997Y117083D01*
X122702Y115604D01*
X117263Y110164D01*
X116093Y110790D01*
X116333Y112000D01*
X116003Y113658D01*
X115064Y115064D01*
X113658Y116003D01*
X112000Y116333D01*
X110342Y116003D01*
X108936Y115064D01*
X108613Y114580D01*
X108097D01*
X108097Y114580D01*
X106926Y114348D01*
X106433Y114018D01*
X105290Y114781D01*
X105333Y115000D01*
X105003Y116658D01*
X104064Y118064D01*
X102658Y119003D01*
X101000Y119333D01*
X99342Y119003D01*
X97936Y118064D01*
X96997Y116658D01*
X96667Y115000D01*
X96668Y114994D01*
X83837Y102163D01*
X83174Y101171D01*
X82941Y100000D01*
X82941Y100000D01*
Y99351D01*
X82511Y99064D01*
X81572Y97658D01*
X81242Y96000D01*
X81572Y94342D01*
X82511Y92936D01*
X82936Y92652D01*
Y92064D01*
X81997Y90658D01*
X81667Y89000D01*
X81997Y87342D01*
X82936Y85936D01*
X83386Y85635D01*
Y84365D01*
X82936Y84064D01*
X81997Y82658D01*
X81667Y81000D01*
X81997Y79342D01*
X82936Y77936D01*
X84029Y77206D01*
X84108Y76904D01*
Y76096D01*
X84029Y75794D01*
X82936Y75064D01*
X81997Y73658D01*
X81667Y72000D01*
X81997Y70342D01*
X82936Y68936D01*
X83856Y68321D01*
X84114Y67579D01*
X84110Y67105D01*
X84029Y66794D01*
X82936Y66064D01*
X82184Y64938D01*
X80778Y64548D01*
X78163Y67163D01*
X77171Y67826D01*
X76000Y68059D01*
X76000Y68059D01*
X59000D01*
X57829Y67826D01*
X56837Y67163D01*
X39006Y49332D01*
X39000Y49333D01*
X37342Y49003D01*
X35936Y48064D01*
X34997Y46658D01*
X34667Y45000D01*
X34524Y44826D01*
X23683D01*
Y32400D01*
X23683Y32380D01*
X23683Y32380D01*
X23683Y32135D01*
X22413Y31462D01*
X22272Y31519D01*
X22086Y31967D01*
X20878Y33542D01*
X20857Y33558D01*
Y36730D01*
X7141D01*
Y30634D01*
X7141D01*
X8003Y29434D01*
X15500D01*
Y26894D01*
X8062D01*
X8154Y26196D01*
X8914Y24362D01*
X10123Y22786D01*
X11698Y21578D01*
X11922Y21485D01*
Y16000D01*
X11922Y16000D01*
X12128Y14965D01*
X11539Y14510D01*
X10957Y14339D01*
X1059Y24237D01*
Y85000D01*
X1059Y85000D01*
X826Y86171D01*
X163Y87163D01*
X-11837Y99163D01*
X-12569Y99652D01*
X-12324Y100922D01*
X21000D01*
X21000Y100922D01*
X22561Y101232D01*
X23705Y101997D01*
X24227Y101756D01*
X24753Y101206D01*
X24654Y100968D01*
X24562Y100270D01*
X30730D01*
Y106438D01*
X30032Y106346D01*
X29823Y106260D01*
X29104Y107336D01*
X32234Y110466D01*
X33324Y110014D01*
X36000Y109662D01*
X38676Y110014D01*
X41169Y111047D01*
X43310Y112690D01*
X44953Y114831D01*
X45986Y117325D01*
X46338Y120000D01*
X45986Y122676D01*
X44953Y125169D01*
X43310Y127311D01*
X41169Y128954D01*
X38676Y129986D01*
X36000Y130339D01*
X33324Y129986D01*
X30831Y128954D01*
X28690Y127311D01*
X27047Y125169D01*
X26014Y122676D01*
X25661Y120000D01*
X26014Y117325D01*
X26466Y116233D01*
X19311Y109078D01*
X14735D01*
X14483Y110348D01*
X16169Y111047D01*
X18310Y112690D01*
X19953Y114831D01*
X20986Y117325D01*
X21338Y120000D01*
X20986Y122676D01*
X19953Y125169D01*
X18310Y127311D01*
X16169Y128954D01*
X15079Y129405D01*
Y136657D01*
X14768Y138218D01*
X13884Y139541D01*
X13884Y139541D01*
X11541Y141884D01*
X10218Y142768D01*
X9959Y142819D01*
X8657Y143078D01*
D02*
G37*
G36*
X10000Y84333D02*
X8342Y84003D01*
X6936Y83064D01*
X5997Y81658D01*
X5667Y80000D01*
X5997Y78342D01*
X6936Y76936D01*
X8342Y75997D01*
X10000Y75667D01*
X11658Y75997D01*
X13064Y76936D01*
X14003Y78342D01*
X14333Y80000D01*
X14003Y81658D01*
X13064Y83064D01*
X11658Y84003D01*
X10000Y84333D01*
D02*
G37*
G36*
X-177634Y76859D02*
X-183730D01*
Y71271D01*
X-177634D01*
Y76859D01*
D02*
G37*
G36*
X-186270D02*
X-192366D01*
Y71271D01*
X-186270D01*
Y76859D01*
D02*
G37*
G36*
X168270Y77438D02*
Y71270D01*
X174438D01*
X174346Y71968D01*
X173586Y73802D01*
X172378Y75378D01*
X170802Y76586D01*
X168968Y77346D01*
X168270Y77438D01*
D02*
G37*
G36*
X-186270Y68731D02*
X-192366D01*
Y63143D01*
X-186270D01*
Y68731D01*
D02*
G37*
G36*
X26000Y56333D02*
X24342Y56003D01*
X22936Y55064D01*
X21997Y53658D01*
X21667Y52000D01*
X21997Y50342D01*
X22936Y48936D01*
X24342Y47997D01*
X26000Y47667D01*
X27658Y47997D01*
X29064Y48936D01*
X30003Y50342D01*
X30333Y52000D01*
X30003Y53658D01*
X29064Y55064D01*
X27658Y56003D01*
X26000Y56333D01*
D02*
G37*
G36*
X170366Y44859D02*
X164270D01*
Y39271D01*
X170366D01*
Y44859D01*
D02*
G37*
G36*
Y36731D02*
X164270D01*
Y31143D01*
X170366D01*
Y36731D01*
D02*
G37*
G36*
X-123270Y18730D02*
X-149559D01*
Y-7559D01*
X-123270D01*
Y18730D01*
D02*
G37*
G36*
X-162270Y-22270D02*
X-168438D01*
X-168346Y-22968D01*
X-167586Y-24802D01*
X-166378Y-26378D01*
X-164802Y-27586D01*
X-162968Y-28346D01*
X-162270Y-28438D01*
Y-22270D01*
D02*
G37*
G36*
X-156000Y-34940D02*
X-157827Y-35180D01*
X-159530Y-35886D01*
X-160992Y-37008D01*
X-162115Y-38470D01*
X-162735Y-39967D01*
X-168884Y-46116D01*
X-169768Y-47439D01*
X-170078Y-49000D01*
X-170078Y-49000D01*
Y-52681D01*
X-172826D01*
Y-65317D01*
X-159174D01*
Y-63077D01*
X-156826D01*
Y-65317D01*
X-143174D01*
Y-52681D01*
X-156826D01*
Y-54920D01*
X-159174D01*
Y-52681D01*
X-161922D01*
Y-50689D01*
X-159401Y-48168D01*
X-157827Y-48820D01*
X-156000Y-49060D01*
X-154173Y-48820D01*
X-152470Y-48115D01*
X-151007Y-46992D01*
X-149886Y-45530D01*
X-149180Y-43827D01*
X-148940Y-42000D01*
X-149180Y-40173D01*
X-149886Y-38470D01*
X-151007Y-37008D01*
X-152470Y-35886D01*
X-154173Y-35180D01*
X-156000Y-34940D01*
D02*
G37*
G36*
X-46270Y-56562D02*
X-46968Y-56654D01*
X-48802Y-57414D01*
X-50378Y-58622D01*
X-51375Y-59922D01*
X-54634D01*
Y-57143D01*
X-60730D01*
Y-64001D01*
Y-70859D01*
X-54634D01*
Y-68079D01*
X-51374D01*
X-50378Y-69378D01*
X-48802Y-70586D01*
X-46968Y-71346D01*
X-46270Y-71438D01*
Y-64000D01*
Y-56562D01*
D02*
G37*
G36*
X-43730D02*
Y-62730D01*
X-37562D01*
X-37654Y-62032D01*
X-38414Y-60198D01*
X-39622Y-58622D01*
X-41198Y-57414D01*
X-43032Y-56654D01*
X-43730Y-56562D01*
D02*
G37*
G36*
X-79270Y-57143D02*
X-85366D01*
Y-62731D01*
X-79270D01*
Y-57143D01*
D02*
G37*
G36*
Y-65271D02*
X-85366D01*
Y-70859D01*
X-79270D01*
Y-65271D01*
D02*
G37*
G36*
X-70634Y-57143D02*
Y-57143D01*
X-76730D01*
Y-64001D01*
Y-70859D01*
X-70634D01*
Y-70859D01*
X-69366D01*
Y-70859D01*
X-63270D01*
Y-64001D01*
Y-57143D01*
X-69366D01*
Y-57143D01*
X-70634D01*
D02*
G37*
G36*
X-37562Y-65270D02*
X-43730D01*
Y-71438D01*
X-43032Y-71346D01*
X-41198Y-70586D01*
X-39622Y-69378D01*
X-38414Y-67803D01*
X-37654Y-65968D01*
X-37562Y-65270D01*
D02*
G37*
G36*
X-112634Y-68143D02*
X-118730D01*
Y-73731D01*
X-112634D01*
Y-68143D01*
D02*
G37*
G36*
X-167270D02*
X-173366D01*
Y-73922D01*
X-176067D01*
X-176235Y-73517D01*
X-177660Y-71660D01*
X-179517Y-70235D01*
X-181679Y-69339D01*
X-182730Y-69201D01*
Y-78000D01*
Y-86799D01*
X-181679Y-86661D01*
X-179517Y-85765D01*
X-177660Y-84340D01*
X-176235Y-82483D01*
X-176067Y-82078D01*
X-171169D01*
X-171169Y-82078D01*
X-170065Y-81859D01*
X-167270D01*
Y-75001D01*
Y-68143D01*
D02*
G37*
G36*
X-185270Y-69201D02*
X-186321Y-69339D01*
X-188483Y-70235D01*
X-190340Y-71660D01*
X-191765Y-73517D01*
X-192661Y-75679D01*
X-192799Y-76730D01*
X-185270D01*
Y-69201D01*
D02*
G37*
G36*
X-158634Y-68143D02*
Y-68143D01*
X-164730D01*
Y-75001D01*
Y-81859D01*
X-158634D01*
Y-81859D01*
X-157366D01*
Y-81859D01*
X-151270D01*
Y-75001D01*
Y-68143D01*
X-157366D01*
Y-68143D01*
X-158634D01*
D02*
G37*
G36*
X-142634D02*
Y-68143D01*
X-148730D01*
Y-75001D01*
Y-81859D01*
X-142634D01*
Y-81859D01*
X-142366Y-81859D01*
Y-81859D01*
X-136270D01*
Y-75001D01*
Y-68143D01*
X-142366D01*
Y-68143D01*
X-142634Y-68143D01*
D02*
G37*
G36*
X-185270Y-79270D02*
X-192799D01*
X-192661Y-80321D01*
X-191765Y-82483D01*
X-190340Y-84340D01*
X-188483Y-85765D01*
X-186321Y-86661D01*
X-185270Y-86799D01*
Y-79270D01*
D02*
G37*
G36*
X-127366Y-68143D02*
X-127634Y-68143D01*
Y-68143D01*
X-133730D01*
Y-75001D01*
Y-81859D01*
X-127634D01*
Y-81859D01*
X-127366Y-81859D01*
Y-81859D01*
X-124078D01*
Y-89999D01*
X-124079Y-89999D01*
X-123768Y-91560D01*
X-122986Y-92730D01*
X-115999D01*
X-109141D01*
Y-86634D01*
X-115922D01*
Y-81859D01*
X-112634D01*
Y-76271D01*
X-120000D01*
Y-75001D01*
X-121270D01*
Y-68143D01*
X-127366D01*
Y-68143D01*
D02*
G37*
G36*
X-28041Y-97270D02*
X-36730D01*
Y-105959D01*
X-35379Y-105782D01*
X-32937Y-104770D01*
X-30839Y-103161D01*
X-29230Y-101063D01*
X-28218Y-98621D01*
X-28041Y-97270D01*
D02*
G37*
G36*
X-39270D02*
X-47959D01*
X-47782Y-98621D01*
X-46770Y-101063D01*
X-45161Y-103161D01*
X-43063Y-104770D01*
X-40621Y-105782D01*
X-39270Y-105959D01*
Y-97270D01*
D02*
G37*
G36*
X55270Y-111041D02*
Y-119730D01*
X63959D01*
X63782Y-118379D01*
X62770Y-115937D01*
X61161Y-113839D01*
X59063Y-112230D01*
X56621Y-111218D01*
X55270Y-111041D01*
D02*
G37*
G36*
X52730D02*
X51379Y-111218D01*
X48937Y-112230D01*
X46839Y-113839D01*
X45230Y-115937D01*
X44218Y-118379D01*
X44041Y-119730D01*
X52730D01*
Y-111041D01*
D02*
G37*
G36*
X-65201Y-114270D02*
X-72730D01*
Y-121799D01*
X-71679Y-121661D01*
X-69517Y-120765D01*
X-67660Y-119340D01*
X-66235Y-117483D01*
X-65339Y-115321D01*
X-65201Y-114270D01*
D02*
G37*
G36*
X-46000Y-111418D02*
X-48480Y-111744D01*
X-50791Y-112702D01*
X-52776Y-114225D01*
X-54298Y-116209D01*
X-55255Y-118520D01*
X-55582Y-121000D01*
X-55255Y-123480D01*
X-54298Y-125791D01*
X-52776Y-127775D01*
X-50791Y-129298D01*
X-48480Y-130255D01*
X-46000Y-130582D01*
X-43520Y-130255D01*
X-41209Y-129298D01*
X-39225Y-127775D01*
X-37702Y-125791D01*
X-36745Y-123480D01*
X-36418Y-121000D01*
X-36745Y-118520D01*
X-37702Y-116209D01*
X-39225Y-114225D01*
X-41209Y-112702D01*
X-43520Y-111744D01*
X-46000Y-111418D01*
D02*
G37*
G36*
X63959Y-122270D02*
X55270D01*
Y-130959D01*
X56621Y-130782D01*
X59063Y-129770D01*
X61161Y-128161D01*
X62770Y-126063D01*
X63782Y-123621D01*
X63959Y-122270D01*
D02*
G37*
G36*
X52730D02*
X44041D01*
X44218Y-123621D01*
X45230Y-126063D01*
X46839Y-128161D01*
X48937Y-129770D01*
X51379Y-130782D01*
X52730Y-130959D01*
Y-122270D01*
D02*
G37*
G36*
X-81141Y-129270D02*
X-86729D01*
Y-135366D01*
X-81141D01*
Y-129270D01*
D02*
G37*
G36*
X-89269D02*
X-94857D01*
Y-135366D01*
X-89269D01*
Y-129270D01*
D02*
G37*
G36*
X101003Y-140799D02*
X94801Y-147000D01*
X101003Y-153201D01*
X107204Y-147000D01*
X101003Y-140799D01*
D02*
G37*
%LPD*%
G36*
X6922Y129406D02*
X5831Y128954D01*
X3690Y127311D01*
X2047Y125169D01*
X1014Y122676D01*
X662Y120000D01*
X1014Y117325D01*
X2047Y114831D01*
X3690Y112690D01*
X5831Y111047D01*
X7517Y110348D01*
X7265Y109078D01*
X-10265D01*
X-10517Y110348D01*
X-8831Y111047D01*
X-6690Y112690D01*
X-5047Y114831D01*
X-4014Y117325D01*
X-3662Y120000D01*
X-4014Y122676D01*
X-5047Y125169D01*
X-6690Y127311D01*
X-8831Y128954D01*
X-11324Y129986D01*
X-14000Y130339D01*
X-16676Y129986D01*
X-19169Y128954D01*
X-21310Y127311D01*
X-22953Y125169D01*
X-23986Y122676D01*
X-24339Y120000D01*
X-23986Y117325D01*
X-22953Y114831D01*
X-21310Y112690D01*
X-19169Y111047D01*
X-17483Y110348D01*
X-17735Y109078D01*
X-27758D01*
X-28750Y109750D01*
X-28750Y110348D01*
Y130250D01*
X-49250D01*
Y110348D01*
X-49250Y109750D01*
X-50242Y109078D01*
X-82480D01*
X-82966Y110252D01*
X-58296Y134922D01*
X6922D01*
Y129406D01*
D02*
G37*
G36*
X-85450Y97487D02*
X-86003Y96658D01*
X-86333Y95000D01*
X-86003Y93342D01*
X-85064Y91936D01*
X-83658Y90997D01*
X-82839Y90834D01*
X-82527Y90329D01*
X-83236Y89059D01*
X-85730D01*
X-86363Y89482D01*
X-88022Y89812D01*
X-89680Y89482D01*
X-91086Y88542D01*
X-92025Y87137D01*
X-92355Y85478D01*
X-92025Y83820D01*
X-91086Y82414D01*
X-89680Y81475D01*
X-88022Y81145D01*
X-86363Y81475D01*
X-84958Y82414D01*
X-84606Y82941D01*
X-15581D01*
X-13059Y80419D01*
Y58493D01*
X-14179Y57895D01*
X-14342Y58003D01*
X-16000Y58333D01*
X-17658Y58003D01*
X-18556Y57403D01*
X-19600Y58233D01*
Y74650D01*
X-33600D01*
Y73700D01*
X-34870Y73074D01*
X-35770Y73765D01*
X-37473Y74470D01*
X-39300Y74710D01*
X-41127Y74470D01*
X-42830Y73765D01*
X-44292Y72642D01*
X-44509Y72360D01*
X-46110D01*
X-46622Y73028D01*
X-48197Y74236D01*
X-50032Y74996D01*
X-50730Y75088D01*
Y66300D01*
Y57512D01*
X-50032Y57604D01*
X-48197Y58364D01*
X-46622Y59572D01*
X-46329Y59955D01*
X-45059Y59524D01*
Y21000D01*
X-45059Y21000D01*
X-45033Y20872D01*
X-45208Y20716D01*
X-46203Y20243D01*
X-47342Y21003D01*
X-47871Y21109D01*
X-48049Y21375D01*
X-48050Y21375D01*
X-55941Y29267D01*
Y31111D01*
X-55891Y31158D01*
X-54671Y31674D01*
X-53658Y30997D01*
X-52000Y30667D01*
X-50342Y30997D01*
X-48936Y31936D01*
X-47997Y33342D01*
X-47667Y35000D01*
X-47997Y36658D01*
X-48936Y38064D01*
X-50342Y39003D01*
X-52000Y39333D01*
X-53658Y39003D01*
X-53670Y38996D01*
X-64337Y49663D01*
X-65330Y50326D01*
X-66500Y50559D01*
X-66500Y50559D01*
X-71486D01*
Y50643D01*
X-75372D01*
X-75858Y51816D01*
X-73869Y53805D01*
X-72658Y52997D01*
X-71000Y52667D01*
X-69342Y52997D01*
X-67936Y53936D01*
X-66997Y55342D01*
X-66667Y57000D01*
X-66997Y58658D01*
X-67936Y60064D01*
X-69342Y61003D01*
X-71000Y61333D01*
X-72658Y61003D01*
X-74064Y60064D01*
X-74068Y60059D01*
X-75000D01*
X-75000Y60059D01*
X-76171Y59826D01*
X-77163Y59163D01*
X-81267Y55059D01*
X-90733D01*
X-91298Y55624D01*
Y61005D01*
X-91298Y61005D01*
X-91327Y61148D01*
X-91298Y61291D01*
X-91357Y61587D01*
Y68941D01*
X-70267D01*
X-69332Y68006D01*
X-69333Y68000D01*
X-69003Y66342D01*
X-68064Y64936D01*
X-66658Y63997D01*
X-65000Y63667D01*
X-63342Y63997D01*
X-61936Y64936D01*
X-60997Y66342D01*
X-60875Y66953D01*
X-59605Y66828D01*
Y64950D01*
X-59346Y62982D01*
X-58586Y61147D01*
X-57378Y59572D01*
X-55802Y58364D01*
X-53968Y57604D01*
X-53270Y57512D01*
Y66300D01*
Y75088D01*
X-53968Y74996D01*
X-55802Y74236D01*
X-57378Y73028D01*
X-58586Y71452D01*
X-59346Y69618D01*
X-59485Y68566D01*
X-60771Y68524D01*
X-60997Y69658D01*
X-61936Y71064D01*
X-63342Y72003D01*
X-65000Y72333D01*
X-65006Y72332D01*
X-66837Y74163D01*
X-67829Y74826D01*
X-69000Y75059D01*
X-69000Y75059D01*
X-98000D01*
X-99171Y74826D01*
X-100163Y74163D01*
X-101663Y72663D01*
X-102326Y71670D01*
X-102556Y70514D01*
X-112559D01*
X-113045Y71687D01*
X-86436Y98296D01*
X-85450Y97487D01*
D02*
G37*
G36*
X147647Y91658D02*
X147469Y91391D01*
X147272Y90398D01*
X151629Y84174D01*
X150589Y83446D01*
X151318Y82406D01*
X145284Y78181D01*
X148489Y73603D01*
X151822Y75937D01*
X152639Y74964D01*
X149733Y72059D01*
X133267D01*
X123913Y81413D01*
X123526Y81671D01*
X123911Y82941D01*
X130857D01*
X130857Y82941D01*
X132027Y83174D01*
X133020Y83837D01*
X137593Y88410D01*
X138858Y88299D01*
X139443Y87463D01*
X146724Y92561D01*
X147647Y91658D01*
D02*
G37*
G36*
X73025Y60686D02*
X71619Y59747D01*
X70680Y58341D01*
X70350Y56683D01*
X70680Y55025D01*
X71619Y53619D01*
X73025Y52680D01*
X73404Y52604D01*
Y49575D01*
X72793Y49322D01*
X72134Y49166D01*
X71202Y49788D01*
X69975Y50033D01*
X56316D01*
X55089Y49788D01*
X54049Y49093D01*
X50321Y45366D01*
X49268D01*
Y38000D01*
X46728D01*
Y45366D01*
X45351D01*
X44865Y46539D01*
X60267Y61941D01*
X72823D01*
X73025Y60686D01*
D02*
G37*
G36*
X130941Y59184D02*
Y26541D01*
X129671Y26155D01*
X129064Y27064D01*
X127658Y28003D01*
X126000Y28333D01*
X124342Y28003D01*
X122936Y27064D01*
X122932Y27059D01*
X116455D01*
X116371Y28329D01*
X117046Y28418D01*
X119139Y29285D01*
X120936Y30664D01*
X122315Y32461D01*
X123182Y34554D01*
X123478Y36800D01*
X123182Y39046D01*
X122315Y41139D01*
X120936Y42937D01*
X119139Y44316D01*
X117046Y45183D01*
X114800Y45478D01*
X112554Y45183D01*
X110461Y44316D01*
X108663Y42937D01*
X107284Y41139D01*
X106417Y39046D01*
X106122Y36800D01*
X106417Y34554D01*
X107018Y33104D01*
X105941Y32385D01*
X103309Y35017D01*
Y38182D01*
X103314Y38186D01*
X104253Y39592D01*
X104583Y41250D01*
X104253Y42908D01*
X103314Y44314D01*
X101908Y45253D01*
X100250Y45583D01*
X99329Y45400D01*
X98059Y46308D01*
Y51733D01*
X99631Y53306D01*
X100802Y52680D01*
X100667Y52000D01*
X100996Y50342D01*
X101936Y48936D01*
X103342Y47997D01*
X105000Y47667D01*
X106658Y47997D01*
X108064Y48936D01*
X109003Y50342D01*
X109333Y52000D01*
X109211Y52614D01*
X110016Y53596D01*
X123404D01*
Y65062D01*
X124577Y65548D01*
X130941Y59184D01*
D02*
G37*
G36*
X81837Y54837D02*
X82830Y54174D01*
X84000Y53941D01*
X89000D01*
X89000Y53941D01*
X90170Y54174D01*
X91163Y54837D01*
X91787Y54426D01*
X92145Y54023D01*
X91941Y53000D01*
X91941Y53000D01*
Y43425D01*
X91941Y43424D01*
X91941Y43424D01*
Y39075D01*
X91941Y39075D01*
X91941Y39074D01*
Y35068D01*
X91936Y35064D01*
X91414Y34283D01*
X89874Y34027D01*
X79522Y44379D01*
Y54903D01*
X79409Y55469D01*
X80580Y56094D01*
X81837Y54837D01*
D02*
G37*
G36*
X-33600Y58900D02*
Y57950D01*
X-19883D01*
X-19796Y57856D01*
X-19214Y56840D01*
X-20003Y55658D01*
X-20333Y54000D01*
X-20003Y52342D01*
X-19064Y50936D01*
X-19059Y50932D01*
Y46267D01*
X-34994Y30332D01*
X-35000Y30333D01*
X-36658Y30003D01*
X-37671Y29327D01*
X-38941Y29863D01*
Y57937D01*
X-37473Y58130D01*
X-35770Y58836D01*
X-34870Y59526D01*
X-33600Y58900D01*
D02*
G37*
G36*
X-13059Y41819D02*
Y24493D01*
X-14179Y23895D01*
X-14342Y24003D01*
X-16000Y24333D01*
X-17658Y24003D01*
X-19064Y23064D01*
X-20003Y21658D01*
X-20333Y20000D01*
X-20003Y18342D01*
X-19064Y16936D01*
X-17658Y15997D01*
X-16000Y15667D01*
X-15994Y15668D01*
X-3059Y2733D01*
Y-12819D01*
X-4329Y-13346D01*
X-6837Y-10837D01*
X-7829Y-10174D01*
X-9000Y-9941D01*
X-9000Y-9941D01*
X-12680D01*
Y-6174D01*
X-15939D01*
Y-4826D01*
X-12680D01*
Y8826D01*
X-23941D01*
Y13932D01*
X-23936Y13936D01*
X-22997Y15342D01*
X-22667Y17000D01*
X-22997Y18658D01*
X-23936Y20064D01*
X-25342Y21003D01*
X-27000Y21333D01*
X-28658Y21003D01*
X-30064Y20064D01*
X-31003Y18658D01*
X-31333Y17000D01*
X-31057Y15610D01*
X-32174Y15171D01*
X-32837Y16163D01*
X-38120Y21446D01*
X-37311Y22433D01*
X-36658Y21997D01*
X-35000Y21667D01*
X-33342Y21997D01*
X-31936Y22936D01*
X-30997Y24342D01*
X-30667Y26000D01*
X-30668Y26006D01*
X-14329Y42345D01*
X-13059Y41819D01*
D02*
G37*
G36*
X199941Y7185D02*
Y-8546D01*
X198671Y-8977D01*
X197521Y-7478D01*
X195611Y-6013D01*
X193387Y-5091D01*
X192270Y-4944D01*
Y-14000D01*
Y-23056D01*
X192906Y-22972D01*
X193500Y-24175D01*
X192837Y-24837D01*
X192174Y-25830D01*
X191941Y-27000D01*
X191941Y-27000D01*
Y-38068D01*
X190671Y-38439D01*
X189826Y-37112D01*
X188362Y-35770D01*
X187737Y-35445D01*
X185193Y-42434D01*
X182807Y-41566D01*
X185350Y-34576D01*
X184663Y-34424D01*
X182679Y-34511D01*
X180786Y-35108D01*
X180319Y-35405D01*
X179125Y-34971D01*
X178958Y-34442D01*
X177892Y-32768D01*
X176428Y-31427D01*
X175803Y-31101D01*
X173259Y-38091D01*
X172066Y-37656D01*
X171632Y-38850D01*
X164642Y-36306D01*
X164490Y-36994D01*
X164576Y-38977D01*
X165173Y-40870D01*
X164482Y-42148D01*
X164013Y-42299D01*
X163826Y-42174D01*
X162656Y-41941D01*
X162656Y-41941D01*
X149319D01*
Y-38174D01*
X149319D01*
X149693Y-37059D01*
X156000D01*
X156000Y-37059D01*
X157170Y-36826D01*
X158163Y-36163D01*
X167163Y-27163D01*
X167163Y-27163D01*
X167826Y-26170D01*
X168059Y-25000D01*
X168059Y-25000D01*
Y-19319D01*
X171826D01*
Y-11009D01*
X186702Y3867D01*
X188754Y3018D01*
X191000Y2722D01*
X193246Y3018D01*
X195339Y3884D01*
X197136Y5264D01*
X198515Y7061D01*
X198671Y7437D01*
X199941Y7185D01*
D02*
G37*
G36*
X-53166Y17840D02*
X-53333Y17000D01*
X-53003Y15342D01*
X-52064Y13936D01*
X-50658Y12997D01*
X-49000Y12667D01*
X-47342Y12997D01*
X-45936Y13936D01*
X-44997Y15342D01*
X-44667Y17000D01*
X-44802Y17680D01*
X-43632Y18306D01*
X-38059Y12733D01*
Y8826D01*
X-41318D01*
Y-4826D01*
X-30059D01*
Y-6174D01*
X-41318D01*
Y-9415D01*
X-42588Y-10093D01*
X-42941Y-9858D01*
Y-4000D01*
X-43174Y-2830D01*
X-43837Y-1837D01*
X-43837Y-1837D01*
X-60452Y14778D01*
X-60062Y16184D01*
X-58936Y16936D01*
X-57997Y18342D01*
X-57667Y20000D01*
X-57802Y20680D01*
X-56632Y21306D01*
X-53166Y17840D01*
D02*
G37*
G36*
X75143Y24831D02*
Y23270D01*
X82001D01*
X88859D01*
Y24731D01*
X90032Y25217D01*
X91941Y23308D01*
Y-14304D01*
X90671Y-14761D01*
X89530Y-13886D01*
X87827Y-13180D01*
X86000Y-12940D01*
X84173Y-13180D01*
X82470Y-13886D01*
X81008Y-15008D01*
X79886Y-16470D01*
X79655Y-17026D01*
X78157Y-17324D01*
X72826Y-11993D01*
Y-3683D01*
X59174D01*
X58728Y-2598D01*
Y-1402D01*
X59174Y-317D01*
X72826D01*
Y12319D01*
X69059D01*
Y15174D01*
X72317D01*
Y25998D01*
X73490Y26484D01*
X75143Y24831D01*
D02*
G37*
G36*
X24941Y-13648D02*
Y-16000D01*
X24941Y-16000D01*
X25174Y-17170D01*
X25837Y-18163D01*
X29837Y-22163D01*
X29837Y-22163D01*
X30830Y-22826D01*
X32000Y-23059D01*
X32000Y-23059D01*
X62733D01*
X72941Y-33267D01*
Y-55733D01*
X64554Y-64120D01*
X63567Y-63311D01*
X64003Y-62658D01*
X64333Y-61000D01*
X64003Y-59342D01*
X63064Y-57936D01*
X61658Y-56997D01*
X60000Y-56667D01*
X58342Y-56997D01*
X56936Y-57936D01*
X56932Y-57941D01*
X53000D01*
X51830Y-58174D01*
X50837Y-58837D01*
X50837Y-58837D01*
X48470Y-61204D01*
X47092Y-60786D01*
X47003Y-60342D01*
X46064Y-58936D01*
X44658Y-57997D01*
X43000Y-57667D01*
X42320Y-57802D01*
X41694Y-56632D01*
X45267Y-53059D01*
X51932D01*
X51936Y-53064D01*
X53342Y-54003D01*
X55000Y-54333D01*
X56658Y-54003D01*
X58064Y-53064D01*
X59003Y-51658D01*
X59333Y-50000D01*
X59003Y-48342D01*
X58064Y-46936D01*
X56658Y-45997D01*
X55000Y-45667D01*
X53342Y-45997D01*
X51936Y-46936D01*
X51932Y-46941D01*
X45181D01*
X44654Y-45671D01*
X47131Y-43194D01*
X48342Y-44003D01*
X50000Y-44333D01*
X51658Y-44003D01*
X53064Y-43064D01*
X54003Y-41658D01*
X54333Y-40000D01*
X54003Y-38342D01*
X53064Y-36936D01*
X51658Y-35997D01*
X50000Y-35667D01*
X48342Y-35997D01*
X46936Y-36936D01*
X46932Y-36941D01*
X46000D01*
X44830Y-37174D01*
X43837Y-37837D01*
X39222Y-42453D01*
X37816Y-42062D01*
X37064Y-40936D01*
X35658Y-39997D01*
X34000Y-39667D01*
X32342Y-39997D01*
X30936Y-40936D01*
X30932Y-40941D01*
X23267D01*
X21548Y-39222D01*
X21938Y-37816D01*
X23064Y-37064D01*
X24003Y-35658D01*
X24333Y-34000D01*
X24003Y-32342D01*
X23064Y-30936D01*
X23059Y-30932D01*
Y-13899D01*
X23131Y-13614D01*
X24536Y-13242D01*
X24941Y-13648D01*
D02*
G37*
G36*
X7691Y-2360D02*
Y-42086D01*
X7691Y-42086D01*
X7924Y-43257D01*
X8587Y-44249D01*
X14668Y-50330D01*
X14667Y-50336D01*
X14850Y-51258D01*
X13942Y-52527D01*
X-21147D01*
X-22675Y-50999D01*
X-22189Y-49826D01*
X-12681D01*
Y-36174D01*
X-15940D01*
Y-34826D01*
X-12680D01*
Y-21174D01*
X-23941D01*
Y-19826D01*
X-12680D01*
Y-16059D01*
X-10267D01*
X-9059Y-17267D01*
Y-28932D01*
X-9064Y-28936D01*
X-10003Y-30342D01*
X-10333Y-32000D01*
X-10003Y-33658D01*
X-9064Y-35064D01*
X-7658Y-36003D01*
X-6000Y-36333D01*
X-4342Y-36003D01*
X-4179Y-35895D01*
X-3059Y-36493D01*
Y-38932D01*
X-3064Y-38936D01*
X-4003Y-40342D01*
X-4333Y-42000D01*
X-4003Y-43658D01*
X-3064Y-45064D01*
X-1658Y-46003D01*
X0Y-46333D01*
X1658Y-46003D01*
X3064Y-45064D01*
X4003Y-43658D01*
X4333Y-42000D01*
X4003Y-40342D01*
X3064Y-38936D01*
X3059Y-38932D01*
Y613D01*
X4232Y1099D01*
X7691Y-2360D01*
D02*
G37*
G36*
X75344Y-23163D02*
X76337Y-23826D01*
X77507Y-24059D01*
X77507Y-24059D01*
X80291D01*
X81008Y-24992D01*
X82470Y-26114D01*
X84173Y-26820D01*
X86000Y-27060D01*
X87827Y-26820D01*
X89530Y-26114D01*
X90671Y-25239D01*
X91941Y-25696D01*
Y-30870D01*
X91941Y-30870D01*
X92174Y-32040D01*
X92837Y-33033D01*
X106967Y-47163D01*
X107959Y-47826D01*
X109130Y-48059D01*
X109130Y-48059D01*
X120681D01*
Y-50941D01*
X85000D01*
X83829Y-51174D01*
X82837Y-51837D01*
X82837Y-51837D01*
X80232Y-54442D01*
X79059Y-53956D01*
Y-32000D01*
X78826Y-30830D01*
X78163Y-29837D01*
X78163Y-29837D01*
X66163Y-17837D01*
X65791Y-17589D01*
X66177Y-16319D01*
X68500D01*
X75344Y-23163D01*
D02*
G37*
G36*
X160689Y-48975D02*
X160769Y-50816D01*
X161323Y-52574D01*
X161827Y-53365D01*
X161289Y-54844D01*
X160395Y-55126D01*
X158840Y-56116D01*
X157595Y-57475D01*
X156744Y-59110D01*
X156345Y-60909D01*
X156393Y-62019D01*
X155488Y-62924D01*
X143578D01*
X137702Y-57048D01*
X128048Y-66702D01*
X133785Y-72438D01*
X133689Y-73295D01*
X132433Y-73779D01*
X126702Y-68048D01*
X122414Y-72337D01*
X122170Y-72174D01*
X121000Y-71941D01*
X121000Y-71941D01*
X98476D01*
X98393Y-70671D01*
X100116Y-70444D01*
X101951Y-69685D01*
X103526Y-68476D01*
X104734Y-66901D01*
X105494Y-65067D01*
X105586Y-64369D01*
X98148D01*
Y-61828D01*
X105586D01*
X105494Y-61130D01*
X104734Y-59296D01*
X103992Y-58329D01*
X104618Y-57059D01*
X132000D01*
X132000Y-57059D01*
X133170Y-56826D01*
X134163Y-56163D01*
X137163Y-53163D01*
X137826Y-52171D01*
X137894Y-51826D01*
X149319D01*
Y-48059D01*
X159953D01*
X160689Y-48975D01*
D02*
G37*
G36*
X160964Y-68159D02*
X162763Y-68558D01*
X164605Y-68478D01*
X165686Y-68137D01*
X166665Y-69159D01*
X166341Y-70052D01*
X175569Y-73411D01*
X175844Y-74651D01*
X174837Y-75658D01*
X174174Y-76650D01*
X173941Y-77820D01*
X173941Y-77821D01*
Y-91558D01*
X173574Y-91821D01*
X172215Y-91232D01*
X172137Y-90639D01*
X171180Y-88328D01*
X169657Y-86343D01*
X167673Y-84820D01*
X165361Y-83863D01*
X162882Y-83537D01*
X160402Y-83863D01*
X158669Y-84580D01*
X154669Y-80581D01*
X157952Y-77298D01*
X150869Y-70215D01*
X151355Y-69042D01*
X156755D01*
X156755Y-69042D01*
X157926Y-68809D01*
X158918Y-68146D01*
X159610Y-67454D01*
X160964Y-68159D01*
D02*
G37*
G36*
X41081Y-66797D02*
X41471Y-68204D01*
X27233Y-82441D01*
X-62009D01*
X-62009Y-82441D01*
X-63179Y-82674D01*
X-64172Y-83337D01*
X-64172Y-83337D01*
X-98411Y-117576D01*
X-99681Y-117050D01*
Y-106059D01*
X-91000D01*
X-91000Y-106059D01*
X-89830Y-105826D01*
X-88837Y-105163D01*
X-64733Y-81059D01*
X25000D01*
X25000Y-81059D01*
X26170Y-80826D01*
X27163Y-80163D01*
X40640Y-66686D01*
X41081Y-66797D01*
D02*
G37*
G36*
X56936Y-64064D02*
X58342Y-65003D01*
X60000Y-65333D01*
X61658Y-65003D01*
X62311Y-64567D01*
X63120Y-65554D01*
X41212Y-87462D01*
X39480Y-86744D01*
X37000Y-86418D01*
X34520Y-86744D01*
X32569Y-87553D01*
X31850Y-86476D01*
X54267Y-64059D01*
X56932D01*
X56936Y-64064D01*
D02*
G37*
G36*
X124528Y-85181D02*
X119767Y-89941D01*
X109267D01*
X102970Y-83644D01*
X103098Y-83000D01*
X102710Y-81049D01*
X101605Y-79395D01*
X101505Y-79329D01*
X101891Y-78059D01*
X117406D01*
X124528Y-85181D01*
D02*
G37*
G36*
X118581Y-124446D02*
X117705Y-126559D01*
X117379Y-129039D01*
X117563Y-130441D01*
X116360Y-131034D01*
X85420Y-100094D01*
X85527Y-98657D01*
X85605Y-98605D01*
X86710Y-96951D01*
X87098Y-95000D01*
X87038Y-94699D01*
X88209Y-94074D01*
X118581Y-124446D01*
D02*
G37*
%LPC*%
G36*
X145615Y88335D02*
X140622Y84839D01*
X143827Y80261D01*
X148820Y83758D01*
X145615Y88335D01*
D02*
G37*
G36*
X189730Y-4944D02*
X188613Y-5091D01*
X186388Y-6013D01*
X184478Y-7478D01*
X183013Y-9388D01*
X182091Y-11613D01*
X181944Y-12730D01*
X189730D01*
Y-4944D01*
D02*
G37*
G36*
Y-15270D02*
X181944D01*
X182091Y-16387D01*
X183013Y-18611D01*
X184478Y-20522D01*
X186388Y-21987D01*
X188613Y-22908D01*
X189730Y-23056D01*
Y-15270D01*
D02*
G37*
G36*
X172729Y-30080D02*
X170745Y-30167D01*
X168852Y-30764D01*
X167177Y-31830D01*
X165836Y-33294D01*
X165511Y-33919D01*
X171307Y-36029D01*
X173416Y-30233D01*
X172729Y-30080D01*
D02*
G37*
G36*
X88859Y20730D02*
X83271D01*
Y14634D01*
X88859D01*
Y20730D01*
D02*
G37*
G36*
X80731D02*
X75143D01*
Y14634D01*
X80731D01*
Y20730D01*
D02*
G37*
%LPD*%
D14*
X111522Y111522D02*
X112000Y112000D01*
X189000Y-71477D02*
Y-50000D01*
X181000Y-79477D02*
X189000Y-71477D01*
X92000Y80575D02*
X126849Y115425D01*
X127000D01*
X98000Y-83000D02*
X108000Y-93000D01*
X136983Y-66702D02*
X137343Y-66342D01*
X136983Y-77051D02*
Y-66702D01*
X121034Y-93000D02*
X136983Y-77051D01*
X108000Y-93000D02*
X121034D01*
X-68500Y42500D02*
X-59000Y33000D01*
Y28000D02*
Y33000D01*
Y28000D02*
X-50212Y19212D01*
X-54000Y35000D02*
X-52000D01*
X-66500Y47500D02*
X-54000Y35000D01*
X74683Y56683D02*
X76463Y54903D01*
Y43112D02*
X95000Y24575D01*
X76463Y43112D02*
Y54903D01*
X95000Y-30870D02*
Y24575D01*
Y-30870D02*
X109130Y-45000D01*
X33507Y4750D02*
X42493D01*
X28000Y-5100D02*
X30850Y-2250D01*
X42493Y4750D02*
X45150Y2093D01*
X30850D02*
X33507Y4750D01*
X45150Y-2250D02*
Y2093D01*
X86000Y81000D02*
Y81500D01*
X95321Y98745D02*
X108097Y111522D01*
X86000Y89000D02*
X95321Y98321D01*
X108097Y111522D02*
X111522D01*
X86000Y81500D02*
X106000Y101500D01*
Y102000D01*
X95321Y98321D02*
Y98745D01*
X86000Y100000D02*
X101000Y115000D01*
X86000Y96425D02*
Y100000D01*
X110000Y24000D02*
X126000D01*
X100250Y33750D02*
X110000Y24000D01*
X-87522Y85478D02*
X-87000Y86000D01*
X-14314D01*
X-88022Y85478D02*
X-87522D01*
X-77223Y90000D02*
X-12657D01*
X-82000Y94777D02*
X-77223Y90000D01*
X-82000Y94777D02*
Y95000D01*
X-14314Y86000D02*
X-10000Y81686D01*
X0Y-42000D02*
Y4000D01*
X-16000Y20000D02*
X0Y4000D01*
X10750Y-42086D02*
Y-1093D01*
X-10000Y19657D02*
X10750Y-1093D01*
X14750Y-36175D02*
Y564D01*
X-6000Y21314D02*
X14750Y564D01*
X20000Y-34000D02*
Y971D01*
X-2000Y22970D02*
X20000Y971D01*
X4000Y-121000D02*
Y-111000D01*
X12000Y-103000D01*
Y-96000D01*
X77507Y-21000D02*
X82078D01*
X66508Y-10001D02*
X77507Y-21000D01*
X59000Y65000D02*
X76000D01*
X39000Y45000D02*
X59000Y65000D01*
X13000Y48000D02*
Y66000D01*
X55000Y108000D01*
X10750Y-42086D02*
X19000Y-50336D01*
X-22414Y-55586D02*
X30414D01*
X-27000Y-51000D02*
X-22414Y-55586D01*
X-27000Y-51000D02*
Y17000D01*
X-42000Y61993D02*
X-39300Y64693D01*
X-42000Y21000D02*
Y61993D01*
Y21000D02*
X-35000Y14000D01*
X-184999Y54000D02*
X-156896D01*
X-153396Y50500D01*
X-54000Y-52000D02*
X-37000D01*
X-58000Y-48000D02*
X-54000Y-52000D01*
X-61999Y-48000D02*
X-58000D01*
X169569Y87569D02*
Y92193D01*
X151000Y69000D02*
X169569Y87569D01*
X132000Y69000D02*
X151000D01*
X191000Y36800D02*
X203000Y24800D01*
Y-19000D02*
Y24800D01*
X195000Y-44000D02*
Y-27000D01*
X203000Y-19000D01*
X189000Y-50000D02*
X195000Y-44000D01*
X177000Y-77820D02*
X184721Y-70099D01*
Y-60183D01*
X181000Y-95506D02*
Y-79477D01*
X177000Y-93849D02*
Y-77820D01*
X114000Y-162000D02*
X131208Y-144792D01*
X131714D01*
X181000Y-95506D01*
X167231Y-103618D02*
X177000Y-93849D01*
X152618Y-103618D02*
X167231D01*
X22000Y-138000D02*
X46000Y-162000D01*
X114000D01*
X-20000Y-198000D02*
Y-122000D01*
X126960Y-129039D02*
Y-128500D01*
X84000Y-85540D02*
X126960Y-128500D01*
X84000Y-85540D02*
Y-85000D01*
X82000Y-101000D02*
Y-95000D01*
Y-101000D02*
X121172Y-140172D01*
X144921Y-125928D02*
Y-111079D01*
X130678Y-140172D02*
X144921Y-125928D01*
X121172Y-140172D02*
X130678D01*
X121081Y104000D02*
X128000D01*
X96000Y78918D02*
X121081Y104000D01*
X85575Y96000D02*
X86000Y96425D01*
X92000Y78000D02*
Y80575D01*
X86000Y72000D02*
X92000Y78000D01*
X86478Y63478D02*
Y64822D01*
X96000Y74343D01*
X155000Y110143D02*
Y113000D01*
X141411Y96554D02*
X155000Y110143D01*
X130857Y86000D02*
X141411Y96554D01*
X108738Y86000D02*
X130857D01*
X109250Y79250D02*
X121750D01*
X132000Y69000D01*
X105000Y75000D02*
X109250Y79250D01*
X134000Y10000D02*
Y60451D01*
X112725Y74000D02*
X120451D01*
X101000Y78261D02*
X108738Y86000D01*
X128000Y-4000D02*
X142000Y10000D01*
Y15000D01*
X145000Y18000D01*
X114800Y-9200D02*
X134000Y10000D01*
X114800Y-14000D02*
Y-9200D01*
X-134000Y-132000D02*
X-130417D01*
X88000Y-75000D02*
X121000D01*
X123342Y-77342D02*
X126343D01*
X121000Y-75000D02*
X123342Y-77342D01*
X82000Y-69000D02*
X88000Y-75000D01*
X137658Y-88658D02*
X137658D01*
X152618Y-103618D01*
X179656Y-55118D02*
Y-53934D01*
Y-55118D02*
X184721Y-60183D01*
X148657Y-78894D02*
Y-77658D01*
Y-78894D02*
X162882Y-93118D01*
X137343Y-66342D02*
X137702Y-65983D01*
X156755D01*
X161214Y-61525D01*
X163379D01*
X125334Y-78435D02*
X125480Y-78289D01*
X145854Y-80146D02*
X146000Y-80000D01*
X147997Y-78275D02*
X148143Y-78129D01*
X44000Y-50000D02*
X55000D01*
X29000Y-65000D02*
X44000Y-50000D01*
X30414Y-55586D02*
X46000Y-40000D01*
X50000D01*
X12522Y48478D02*
X13000Y48000D01*
X95000Y63000D02*
Y63000D01*
X89000Y57000D02*
X95000Y63000D01*
X84000Y57000D02*
X89000D01*
X76000Y65000D02*
X84000Y57000D01*
X55000Y108000D02*
Y114000D01*
X-35000Y26000D02*
X-16000Y45000D01*
Y54000D01*
X95000Y32000D02*
Y39075D01*
Y43425D02*
Y53000D01*
X95000Y43424D02*
X95000Y43425D01*
X95000Y39075D02*
Y43424D01*
Y39075D02*
X95000Y39075D01*
Y53000D02*
X101000Y59000D01*
Y78261D01*
X105000Y52000D02*
Y75000D01*
X100250Y33750D02*
Y41250D01*
X-62000Y-47999D02*
X-60000Y-45999D01*
X-62000Y-47999D02*
X-61999Y-48000D01*
X-37000Y-52000D02*
X-28000Y-61000D01*
X-13000D01*
X-6000Y-32000D02*
Y-16000D01*
X-9000Y-13000D02*
X-6000Y-16000D01*
X-18998Y-13000D02*
X-9000D01*
X-10000Y19657D02*
Y81686D01*
X15000Y-37000D02*
X22000Y-44000D01*
X15000Y-37000D02*
Y-36425D01*
X14750Y-36175D02*
X15000Y-36425D01*
X-2000Y22970D02*
Y85000D01*
Y-65000D02*
X29000D01*
X-12657Y90000D02*
X-6000Y83343D01*
Y21314D02*
Y83343D01*
X41000Y-62000D02*
X43000D01*
X25000Y-78000D02*
X41000Y-62000D01*
X28500Y-85500D02*
X53000Y-61000D01*
X-62009Y-85500D02*
X28500D01*
X-35000Y2000D02*
Y14000D01*
X-39300Y64693D02*
Y66300D01*
X86000Y63000D02*
X86478Y63478D01*
X96000Y74343D02*
Y78918D01*
X85000Y-54000D02*
X132000D01*
X167246Y-49591D02*
X167722D01*
X162656Y-45000D02*
X167246Y-49591D01*
X143001Y-45000D02*
X162656D01*
X152582Y21999D02*
X163000D01*
X145000Y18000D02*
X148583D01*
X152582Y21999D01*
X165000Y-13001D02*
X165000Y-13001D01*
X165000Y-25000D02*
Y-13001D01*
X156000Y-34000D02*
X165000Y-25000D01*
X138000Y-34000D02*
X156000D01*
X135000Y-51000D02*
Y-37000D01*
X138000Y-34000D01*
X132000Y-54000D02*
X135000Y-51000D01*
X49000Y-90000D02*
X85000Y-54000D01*
X49000Y-101000D02*
Y-90000D01*
X29000Y-121000D02*
X49000Y-101000D01*
X-80852Y47500D02*
X-66500D01*
X-50212Y18889D02*
Y19212D01*
Y18889D02*
X-49000Y17677D01*
Y17000D02*
Y17677D01*
X-80852Y42500D02*
X-68500D01*
X-67000Y31000D02*
Y31676D01*
X-71700Y27357D02*
X-64884Y20541D01*
X-80709Y27357D02*
X-71700D01*
X-72357Y22357D02*
X-46000Y-4000D01*
X-80709Y22357D02*
X-72357D01*
X-62478Y20478D02*
X-62000Y20000D01*
X-64822Y20478D02*
X-62478D01*
X-64884Y20541D02*
X-64822Y20478D01*
X-64884Y20541D02*
X-64884D01*
X-80852Y27500D02*
X-80709Y27357D01*
X-68212Y32889D02*
X-67000Y31676D01*
X-68212Y32889D02*
Y33212D01*
X-80852Y37500D02*
X-80709Y37357D01*
X-72357D01*
X-68212Y33212D01*
X-99500Y61148D02*
Y70500D01*
X-98000Y72000D01*
X-99643Y61291D02*
X-99500Y61148D01*
X-69000Y72000D02*
X-65000Y68000D01*
X-98000Y72000D02*
X-69000D01*
X-75000Y57000D02*
X-71000D01*
X-80000Y52000D02*
X-75000Y57000D01*
X-92000Y52000D02*
X-80000D01*
X-94357Y54357D02*
X-92000Y52000D01*
X-94500Y61148D02*
X-94357Y61005D01*
Y54357D02*
Y61005D01*
X-70000Y97000D02*
X-14000D01*
X-37000Y-15000D02*
X-35000Y-13000D01*
X-43000Y-15000D02*
X-37000D01*
X-46000Y-12000D02*
X-43000Y-15000D01*
X-46000Y-12000D02*
Y-4000D01*
X-18998Y-13000D02*
Y2000D01*
X-18998Y-13000D02*
X-18998Y-13000D01*
X-18998Y-42999D02*
Y-28000D01*
X-18999Y-43000D02*
X-18998Y-42999D01*
X-35001Y-43000D02*
X-35001Y-43000D01*
X-49000Y-43000D02*
X-35001D01*
X-55000Y-37000D02*
X-49000Y-43000D01*
X-55000Y-37000D02*
Y-9071D01*
X-71571Y7500D02*
X-55000Y-9071D01*
X-164779Y-92757D02*
X-133244D01*
X-132001Y-94000D01*
X-129500Y-54007D02*
Y-21148D01*
X-134492Y-58999D02*
X-129500Y-54007D01*
X-80852Y22500D02*
X-80709Y22357D01*
X-80852Y7500D02*
X-71571D01*
X-60000Y-45999D02*
Y-9728D01*
X-72085Y2357D02*
X-60000Y-9728D01*
X-80709Y2357D02*
X-72085D01*
X-80852Y2500D02*
X-80709Y2357D01*
X-66000Y-78000D02*
X25000D01*
X-91000Y-103000D02*
X-66000Y-78000D01*
X-104001Y-127492D02*
X-62009Y-85500D01*
X-113509Y-103000D02*
X-91000D01*
X-122001Y-112000D02*
Y-111492D01*
X-113509Y-103000D01*
X53000Y-61000D02*
X60000D01*
X-132001Y-110001D02*
Y-94000D01*
X-104001Y-128000D02*
Y-127492D01*
X37000Y-96000D02*
X76000Y-57000D01*
X16000Y-114000D02*
X34000Y-96000D01*
X76000Y-57000D02*
Y-32000D01*
X34000Y-96000D02*
X37000D01*
X32000Y-20000D02*
X64000D01*
X76000Y-32000D01*
X120451Y74000D02*
X134000Y60451D01*
X64000Y103000D02*
Y122000D01*
X51000Y90000D02*
X64000Y103000D01*
X-20000Y-122000D02*
X-9000Y-133000D01*
X-21000Y-121000D02*
X-20000Y-122000D01*
X186800Y57000D02*
X188000Y58200D01*
X171001Y57000D02*
X186800D01*
X28000Y-16000D02*
X32000Y-20000D01*
X22000Y-44000D02*
X34000D01*
X28000Y-16000D02*
Y-5100D01*
X-14000Y97000D02*
X-2000Y85000D01*
X109130Y-45000D02*
X126999D01*
X189909Y11400D02*
X191000D01*
X165508Y-13001D02*
X189909Y11400D01*
X165000Y-13001D02*
X165508D01*
X189703Y35503D02*
X191000Y36800D01*
X189703Y27196D02*
Y35503D01*
X165508Y3001D02*
X189703Y27196D01*
X165000Y3001D02*
X165508D01*
X-130130Y87000D02*
X-114121Y103009D01*
X-144000Y100000D02*
X-127556Y116443D01*
X-158000Y112870D02*
X-140992Y129878D01*
X-96000Y174000D02*
Y175000D01*
X-109009Y160991D02*
X-96000Y174000D01*
X-96444Y147556D02*
X-82000Y162000D01*
X-81879Y134121D02*
X-68000Y148000D01*
X-173514Y-35486D02*
Y-115D01*
Y-35486D02*
X-173000Y-36000D01*
X-180000Y0D02*
X-172500Y7500D01*
X-180000Y-31000D02*
Y0D01*
X-186000Y-343D02*
X-173157Y12500D01*
X-186000Y-26000D02*
Y-343D01*
X-193000Y344D02*
X-173514Y19829D01*
X-193000Y-22000D02*
Y344D01*
X-199000Y1571D02*
X-173071Y27500D01*
X-199000Y-18000D02*
Y1571D01*
X-205000Y6000D02*
X-178500Y32500D01*
X-205000Y-14000D02*
Y6000D01*
X-173071Y27500D02*
X-163148D01*
X-173514Y-115D02*
X-171042Y2357D01*
X-178500Y32500D02*
X-163148D01*
X-171700Y21643D02*
X-170843Y22500D01*
X-171757Y21643D02*
X-171700D01*
X-173514Y19886D02*
X-171757Y21643D01*
X-173514Y19829D02*
Y19886D01*
X-170843Y22500D02*
X-163148D01*
X-173157Y12500D02*
X-163148D01*
X-172500Y7500D02*
X-163148D01*
X-171042Y2357D02*
X-163291D01*
X-94500Y61148D02*
X-94357Y61291D01*
X-163291Y2357D02*
X-163148Y2500D01*
X171001Y57000D02*
Y57508D01*
X167683Y60826D02*
X171001Y57508D01*
X45150Y-2250D02*
X47400Y-4500D01*
X-185000Y53999D02*
X-184999Y54000D01*
X-189604Y37500D02*
X-163148D01*
X-193105Y34000D02*
X-189604Y37500D01*
X-196000Y34000D02*
X-193105D01*
X-196000D02*
Y37777D01*
X-194777Y39000D01*
X-9000Y-133000D02*
X12000D01*
X16000Y-129000D01*
Y-114000D01*
X-126417Y-128000D02*
X-104001D01*
X-130417Y-132000D02*
X-126417Y-128000D01*
X-67999Y-30000D02*
Y-7601D01*
X-72957Y-2643D02*
X-67999Y-7601D01*
X-80852Y-2500D02*
X-80709Y-2643D01*
X-72957D01*
X-78000Y-47999D02*
X-62000D01*
X-93185Y-30000D02*
X-84001D01*
X-94357Y-28828D02*
Y-21291D01*
Y-28828D02*
X-93185Y-30000D01*
X-94500Y-21148D02*
X-94357Y-21291D01*
X-99500Y-43007D02*
X-94508Y-47999D01*
X-99500Y-43007D02*
Y-21148D01*
X-94508Y-47999D02*
X-94000D01*
X-135000Y-58999D02*
X-134492D01*
X47400Y20500D02*
Y23242D01*
X49650Y25492D01*
X52000D01*
X64000Y37492D02*
Y38000D01*
X52000Y25492D02*
X64000Y37492D01*
X30850Y-2250D02*
Y2093D01*
X-129500Y51671D02*
Y61148D01*
X-130672Y50500D02*
X-129500Y51671D01*
X-153396Y50500D02*
X-130672D01*
X-105999Y-126002D02*
Y-112000D01*
Y-126002D02*
X-104001Y-128000D01*
X-130002Y-112000D02*
X-122001D01*
X-132001Y-110001D02*
X-130002Y-112000D01*
X-83009Y134121D02*
X-81879D01*
X-96444Y147556D02*
Y147556D01*
X-109879Y160991D02*
X-109009D01*
X66000Y-10001D02*
X66508D01*
X66000Y6001D02*
Y21999D01*
X65999Y22000D02*
X66000Y21999D01*
X47400Y20500D02*
X64499D01*
X65999Y22000D01*
X28600Y20500D02*
Y36599D01*
X30001Y38000D01*
D19*
X-185000Y70001D02*
D03*
Y53999D02*
D03*
X-135000Y-58999D02*
D03*
Y-75001D02*
D03*
X66000Y-10001D02*
D03*
Y6001D02*
D03*
X165000Y3001D02*
D03*
Y-13001D02*
D03*
X163000Y21999D02*
D03*
Y38001D02*
D03*
X-78000Y-47999D02*
D03*
Y-64001D02*
D03*
X-166000Y-58999D02*
D03*
Y-75001D02*
D03*
X-150000Y-58999D02*
D03*
Y-75001D02*
D03*
X-120000Y-58999D02*
D03*
Y-75001D02*
D03*
X-94000Y-64001D02*
D03*
Y-47999D02*
D03*
X-62000Y-47999D02*
D03*
Y-64001D02*
D03*
D21*
X126999Y-45000D02*
D03*
X143001Y-45000D02*
D03*
X-35000Y2000D02*
D03*
X-18998D02*
D03*
X-115999Y-94000D02*
D03*
X-132001D02*
D03*
X-105999Y-112000D02*
D03*
X-122001D02*
D03*
X-87999Y-128000D02*
D03*
X-104001D02*
D03*
X-35000Y-13000D02*
D03*
X-18998D02*
D03*
X-18999Y-43000D02*
D03*
X-35001D02*
D03*
X-67999Y-30000D02*
D03*
X-84001D02*
D03*
X-18998Y-28000D02*
D03*
X-35000D02*
D03*
X171001Y57000D02*
D03*
X154999D02*
D03*
X64000Y38000D02*
D03*
X47998D02*
D03*
X65999Y22000D02*
D03*
X82001D02*
D03*
X30001Y38000D02*
D03*
X13999D02*
D03*
D38*
X145000Y38000D02*
D03*
Y18000D02*
D03*
X-165462Y-93300D02*
D03*
X-133996Y-132157D02*
D03*
D47*
X-85500Y105000D02*
X21000D01*
X-119500Y71000D02*
X-85500Y105000D01*
X-59985Y139000D02*
X8657D01*
X-136000Y76000D02*
X-122985D01*
X-59985Y139000D01*
X47998Y38000D02*
Y38508D01*
Y37492D02*
Y38000D01*
X82001Y22000D02*
Y22508D01*
X38000Y-10535D02*
Y-4500D01*
Y-10535D02*
X42215Y-14750D01*
X54650Y-12407D02*
Y3407D01*
X52307Y-14750D02*
X54650Y-12407D01*
X47807Y10250D02*
X54650Y3407D01*
X42215Y-14750D02*
X52307D01*
X33507Y10250D02*
X47807D01*
X-35000Y-28508D02*
Y-28000D01*
X-37318Y-30826D02*
X-35000Y-28508D01*
X16000Y16000D02*
X21750Y10250D01*
X-119850Y-37000D02*
X-119500Y-36650D01*
Y-36500D01*
X-108000Y-48000D02*
Y-45646D01*
Y-48000D02*
X-107000Y-49000D01*
X-109500Y-46500D02*
X-108000Y-48000D01*
X151237Y89831D02*
X168018Y106612D01*
X151237Y84094D02*
Y89831D01*
X150589Y83446D02*
X151237Y84094D01*
X-87999Y-128000D02*
Y-127492D01*
X-85681Y-125174D01*
X-85173D01*
X-74000Y-114001D01*
Y-113000D01*
X-168318Y-77319D02*
X-166000Y-75001D01*
X-170488Y-77319D02*
X-168318D01*
X-171169Y-78000D02*
X-170488Y-77319D01*
X-184000Y-78000D02*
X-171169D01*
X164000Y70000D02*
X167000D01*
X157317Y63317D02*
X164000Y70000D01*
X154999Y56492D02*
X157317Y58810D01*
Y63317D01*
X145000Y38000D02*
X154999Y47999D01*
Y56492D01*
X-159000Y-42000D02*
X-156000D01*
X-166000Y-49000D02*
X-159000Y-42000D01*
X-139500Y-35500D02*
X-139000Y-36000D01*
X-45000Y-64000D02*
X-45000Y-64000D01*
X-62000Y-64001D02*
X-62000Y-64000D01*
X-45000D01*
X-120000Y-89999D02*
X-115999Y-94000D01*
X-139500Y72500D02*
X-136000Y76000D01*
X-139500Y70500D02*
Y72500D01*
X-166000Y-58999D02*
Y-49000D01*
X162999Y38000D02*
X163000Y38001D01*
X145000Y38000D02*
X162999D01*
X191000Y-14947D02*
Y-14000D01*
X167612Y106612D02*
X168018D01*
X191000Y-14000D02*
X192657D01*
X62000Y-96843D02*
Y-96000D01*
X-107000Y-58999D02*
X-99510D01*
X-120000D02*
X-107000D01*
Y-49000D01*
X-99510Y-58999D02*
X-94508Y-64001D01*
X-94000D01*
X-166000Y-58999D02*
X-150000D01*
X-120000Y-89999D02*
Y-75001D01*
X-150000D02*
X-135000D01*
X-135000Y-75001D01*
X-166000Y-75001D02*
X-150000D01*
X-135000D02*
X-120000D01*
X-135000Y-75001D02*
X-135000Y-75001D01*
X38000Y27494D02*
X47998Y37492D01*
X38000Y14743D02*
Y27494D01*
X33507Y10250D02*
X38000Y14743D01*
X21750Y10250D02*
X33507D01*
X16000Y16000D02*
Y35999D01*
X13999Y38000D02*
X16000Y35999D01*
X-78000Y-64001D02*
X-62000D01*
X21000Y105000D02*
X36000Y120000D01*
X11000D02*
Y136657D01*
X8657Y139000D02*
X11000Y136657D01*
D50*
X-162380Y-19620D02*
X-161000Y-21000D01*
X-162380Y-19620D02*
Y-16529D01*
X-163148Y-15761D02*
X-162380Y-16529D01*
X-163148Y-15761D02*
Y-7500D01*
Y-2500D01*
X-161000Y-21000D02*
X-149648D01*
D51*
X-119500Y61148D02*
Y71000D01*
X72318Y32191D02*
X82001Y22508D01*
X47998Y38508D02*
X56316Y46826D01*
X69975D02*
X72318Y44483D01*
Y32191D02*
Y44483D01*
X56316Y46826D02*
X69975D01*
X-47513Y-28000D02*
X-46000Y-33000D01*
X-109500Y-46500D02*
Y-21148D01*
X-119500Y-36500D02*
Y-21148D01*
X-47855Y-28000D02*
X-35000D01*
X-50855Y-25000D02*
X-47855Y-28000D01*
X-50855Y-25000D02*
Y-6145D01*
X-69500Y12500D02*
X-50855Y-6145D01*
X-139500Y-35500D02*
Y-21148D01*
X-80852Y12500D02*
X-69500D01*
X-104643Y-42289D02*
Y-12125D01*
X-108019Y49019D02*
X-95324D01*
X-109500Y50500D02*
X-108019Y49019D01*
X-109500Y50500D02*
Y61148D01*
X-104643Y-12125D02*
X-102300Y-9782D01*
X-95782D01*
X-92981Y-6981D01*
Y46676D01*
X-95324Y49019D02*
X-92981Y46676D01*
X-177999Y63000D02*
X-164000D01*
X-185000Y70001D02*
X-184492D01*
X-181319Y66828D01*
Y66320D02*
Y66828D01*
Y66320D02*
X-177999Y63000D01*
X-149500Y61148D02*
Y70500D01*
X-152000Y73000D02*
X-149500Y70500D01*
X-160000Y73000D02*
X-152000D01*
X-164000Y63000D02*
X-162371Y64629D01*
Y70629D01*
X-160000Y73000D01*
X-108000Y-45646D02*
X-104643Y-42289D01*
X-149648Y-21000D02*
X-149500Y-21148D01*
X-139500Y61148D02*
Y70500D01*
D52*
X-39000Y120000D02*
D03*
D53*
X-14000D02*
D03*
X11000D02*
D03*
X36000D02*
D03*
D54*
X54000Y-121000D02*
D03*
X29000D02*
D03*
X4000D02*
D03*
X-21000D02*
D03*
X-46000D02*
D03*
X162882Y-93118D02*
D03*
X144921Y-111079D02*
D03*
X126960Y-129039D02*
D03*
X62000Y-96000D02*
D03*
X37000D02*
D03*
X12000D02*
D03*
X-13000D02*
D03*
X-38000D02*
D03*
X84000Y170000D02*
D03*
D55*
X175313Y-65868D02*
D03*
D56*
X163379Y-61525D02*
D03*
X179656Y-53934D02*
D03*
X184000Y-42000D02*
D03*
X172066Y-37656D02*
D03*
X167722Y-49591D02*
D03*
X-103000Y39000D02*
D03*
X-120000D02*
D03*
X-141000D02*
D03*
Y20000D02*
D03*
X-103000D02*
D03*
X-120000D02*
D03*
Y1000D02*
D03*
X-103000D02*
D03*
X-141000D02*
D03*
X-119850Y-37000D02*
D03*
X-108000Y-48000D02*
D03*
X98148Y-63099D02*
D03*
X-161000Y-21000D02*
D03*
X167000Y70000D02*
D03*
X-156000Y-42000D02*
D03*
X-139000Y-36000D02*
D03*
X-45000Y-64000D02*
D03*
X-20000Y-198000D02*
D03*
X32000Y99000D02*
D03*
X-131000Y154000D02*
D03*
X86000Y-20000D02*
D03*
X13000Y169000D02*
D03*
X-164000Y63000D02*
D03*
X15500Y28164D02*
D03*
X-24000Y194000D02*
D03*
D57*
X114800Y62200D02*
D03*
D58*
Y36800D02*
D03*
Y11400D02*
D03*
Y-14000D02*
D03*
X191000D02*
D03*
Y11400D02*
D03*
Y36800D02*
D03*
Y62200D02*
D03*
D59*
X-91000Y-168000D02*
D03*
X123000Y146000D02*
D03*
D60*
X109000Y-147000D02*
D03*
D61*
X155000Y113000D02*
D03*
X168018Y106612D02*
D03*
X169569Y92193D02*
D03*
X-74000Y-113000D02*
D03*
X-184000Y-78000D02*
D03*
X-196000Y34000D02*
D03*
D62*
X-26600Y66300D02*
D03*
D63*
X-39300D02*
D03*
X-52000D02*
D03*
D64*
X84000Y144600D02*
D03*
D65*
X112000Y112000D02*
D03*
X127000Y115425D02*
D03*
X-52000Y35000D02*
D03*
X10000Y80000D02*
D03*
X-46000Y-33000D02*
D03*
X126000Y24000D02*
D03*
X-88022Y85478D02*
D03*
X22000Y-138000D02*
D03*
X128000Y104000D02*
D03*
X85575Y96000D02*
D03*
X106000Y102000D02*
D03*
X112725Y74000D02*
D03*
X86000Y89000D02*
D03*
X128000Y-4000D02*
D03*
X43000Y-62000D02*
D03*
X82000Y-69000D02*
D03*
X55000Y-50000D02*
D03*
X50000Y-40000D02*
D03*
X26000Y52000D02*
D03*
X39000Y45000D02*
D03*
X74683Y56683D02*
D03*
X-16000Y54000D02*
D03*
X13000Y48000D02*
D03*
X-35000Y26000D02*
D03*
X95000Y32000D02*
D03*
X100250Y41250D02*
D03*
X105000Y52000D02*
D03*
X-13000Y-61000D02*
D03*
X-6000Y-32000D02*
D03*
X0Y-42000D02*
D03*
X-2000Y-65000D02*
D03*
X-16000Y20000D02*
D03*
X-27000Y17000D02*
D03*
X101000Y115000D02*
D03*
X-67000Y31000D02*
D03*
X-49000Y17000D02*
D03*
X-65000Y68000D02*
D03*
X-71000Y57000D02*
D03*
X-70000Y97000D02*
D03*
X-62000Y20000D02*
D03*
X60000Y-61000D02*
D03*
X95000Y63000D02*
D03*
X51000Y90000D02*
D03*
X86000Y81000D02*
D03*
Y72000D02*
D03*
Y63000D02*
D03*
X55000Y114000D02*
D03*
X19000Y-50336D02*
D03*
X34000Y-44000D02*
D03*
X20000Y-34000D02*
D03*
X-130130Y87000D02*
D03*
X-144000Y100000D02*
D03*
X-158000Y112870D02*
D03*
X-96000Y175000D02*
D03*
X-82000Y162000D02*
D03*
X-68000Y148000D02*
D03*
X-173000Y-36000D02*
D03*
X-180000Y-31000D02*
D03*
X-186000Y-26000D02*
D03*
X-193000Y-22000D02*
D03*
X-199000Y-18000D02*
D03*
X-205000Y-14000D02*
D03*
X-82000Y95000D02*
D03*
X64000Y122000D02*
D03*
D66*
X98000Y-83000D02*
D03*
X84000Y-85000D02*
D03*
X82000Y-95000D02*
D03*
D96*
X-109879Y160991D02*
D03*
X-140991Y129879D02*
D03*
X-96444Y147556D02*
D03*
X-127556Y116444D02*
D03*
X-83009Y134121D02*
D03*
X-114121Y103009D02*
D03*
D97*
X137658Y-88658D02*
D03*
X126343Y-77342D02*
D03*
X137343Y-66342D02*
D03*
X148657Y-77658D02*
D03*
D98*
X141411Y96554D02*
D03*
X150589Y83446D02*
D03*
D99*
X-163148Y-7500D02*
D03*
Y-2500D02*
D03*
Y2500D02*
D03*
Y7500D02*
D03*
Y12500D02*
D03*
Y17500D02*
D03*
Y22500D02*
D03*
Y27500D02*
D03*
Y32500D02*
D03*
Y37500D02*
D03*
Y42500D02*
D03*
Y47500D02*
D03*
X-80852D02*
D03*
Y42500D02*
D03*
Y37500D02*
D03*
Y32500D02*
D03*
Y27500D02*
D03*
Y22500D02*
D03*
Y17500D02*
D03*
Y12500D02*
D03*
Y7500D02*
D03*
Y2500D02*
D03*
Y-2500D02*
D03*
Y-7500D02*
D03*
D100*
X-149500Y61148D02*
D03*
X-144500D02*
D03*
X-139500D02*
D03*
X-134500D02*
D03*
X-129500D02*
D03*
X-124500D02*
D03*
X-119500D02*
D03*
X-114500D02*
D03*
X-109500D02*
D03*
X-104500D02*
D03*
X-99500D02*
D03*
X-94500D02*
D03*
Y-21148D02*
D03*
X-99500D02*
D03*
X-104500D02*
D03*
X-109500D02*
D03*
X-114500D02*
D03*
X-119500D02*
D03*
X-124500D02*
D03*
X-129500D02*
D03*
X-134500D02*
D03*
X-139500D02*
D03*
X-144500D02*
D03*
X-149500D02*
D03*
D101*
X-122000Y20000D02*
D03*
D102*
X47400Y-4500D02*
D03*
X38000D02*
D03*
X28600D02*
D03*
Y20500D02*
D03*
X47400D02*
D03*
M02*
