G04*
G04 #@! TF.GenerationSoftware,Altium Limited,Altium Designer,20.0.7 (75)*
G04*
G04 Layer_Color=32896*
%FSLAX44Y44*%
%MOMM*%
G71*
G01*
G75*
%ADD10C,0.2540*%
%ADD12C,0.1000*%
%ADD13C,0.1270*%
%ADD14C,0.2000*%
%ADD15C,0.1524*%
%ADD16C,0.0762*%
G36*
X-173054Y35595D02*
X-175594D01*
Y39405D01*
X-173054D01*
Y35595D01*
D02*
G37*
G36*
X-112595Y71054D02*
X-116405D01*
Y73594D01*
X-112595D01*
Y71054D01*
D02*
G37*
G36*
X-107595Y-31054D02*
X-111405D01*
Y-33594D01*
X-107595D01*
Y-31054D01*
D02*
G37*
G36*
X-70946Y20595D02*
X-68406D01*
Y24405D01*
X-70946D01*
Y20595D01*
D02*
G37*
D10*
X-177999Y50503D02*
X-172001D01*
Y53502D01*
X-173001Y54501D01*
X-175000D01*
X-176000Y53502D01*
Y50503D01*
Y52502D02*
X-177999Y54501D01*
Y56501D02*
Y58500D01*
Y57500D01*
X-172001D01*
X-173001Y56501D01*
X-172001Y65498D02*
Y61499D01*
X-175000D01*
X-174000Y63498D01*
Y64498D01*
X-175000Y65498D01*
X-176999D01*
X-177999Y64498D01*
Y62499D01*
X-176999Y61499D01*
X-127502Y-51999D02*
Y-46001D01*
X-130501D01*
X-131501Y-47001D01*
Y-49000D01*
X-130501Y-50000D01*
X-127502D01*
X-129502D02*
X-131501Y-51999D01*
X-133500D02*
X-135500D01*
X-134500D01*
Y-46001D01*
X-133500Y-47001D01*
X-141498Y-51999D02*
Y-46001D01*
X-138499Y-49000D01*
X-142498D01*
X73001Y-13498D02*
X78999D01*
Y-10498D01*
X77999Y-9499D01*
X76000D01*
X75000Y-10498D01*
Y-13498D01*
Y-11498D02*
X73001Y-9499D01*
Y-7499D02*
Y-5500D01*
Y-6500D01*
X78999D01*
X77999Y-7499D01*
Y-2501D02*
X78999Y-1502D01*
Y498D01*
X77999Y1498D01*
X77000D01*
X76000Y498D01*
Y-502D01*
Y498D01*
X75000Y1498D01*
X74001D01*
X73001Y498D01*
Y-1502D01*
X74001Y-2501D01*
D12*
X-133920Y145435D02*
X-125435Y153920D01*
X-98565Y110080D02*
X-90080Y118565D01*
X-62500Y-185000D02*
X86500D01*
Y-71000D01*
X-62500D02*
X86500D01*
X-62500Y-185000D02*
Y-71000D01*
D13*
X137303Y-97637D02*
X146708Y-88232D01*
X117292Y-77626D02*
X137303Y-97637D01*
X117292Y-77626D02*
X126697Y-68222D01*
X146708Y-88232D01*
X137697Y-57221D02*
X157708Y-77232D01*
X128292Y-66626D02*
X137697Y-57221D01*
X128292Y-66626D02*
X148303Y-86637D01*
X157708Y-77232D01*
X120900Y-38400D02*
X120900Y-51700D01*
X120900Y-38400D02*
X149200Y-38400D01*
X149200Y-51700D02*
X149200Y-38400D01*
X120900Y-51700D02*
X149200Y-51700D01*
X143343Y105475D02*
X159576Y82293D01*
X132449Y97846D02*
X143343Y105475D01*
X132449Y97846D02*
X148681Y74664D01*
X159576Y82293D01*
X-41199Y8700D02*
X-12899D01*
X-41199Y-4600D02*
Y8700D01*
Y-4600D02*
X-12899D01*
Y8700D01*
X141943Y113935D02*
X165981Y79604D01*
X185747Y93444D01*
X161709Y127775D02*
X185747Y93444D01*
X141943Y113935D02*
X161709Y127775D01*
X-191700Y76100D02*
X-178400D01*
Y47800D02*
Y76100D01*
X-191700Y47800D02*
X-178400D01*
X-191700D02*
Y76100D01*
X-109900Y-100600D02*
Y-87300D01*
X-138200Y-100600D02*
X-109900D01*
X-138200D02*
Y-87300D01*
X-109900D01*
X-99900Y-118600D02*
Y-105300D01*
X-128200Y-118600D02*
X-99900D01*
X-128200D02*
Y-105300D01*
X-99900D01*
X-81900Y-134600D02*
Y-121300D01*
X-110200Y-134600D02*
X-81900D01*
X-110200D02*
Y-121300D01*
X-81900D01*
X-128300Y-81100D02*
Y-52800D01*
X-141600D02*
X-128300D01*
X-141600Y-81100D02*
Y-52800D01*
Y-81100D02*
X-128300D01*
X59300Y-16200D02*
Y12100D01*
Y-16200D02*
X72600D01*
Y12100D01*
X59300D02*
X72600D01*
X-41199Y-6300D02*
X-12899D01*
X-41199Y-19600D02*
Y-6300D01*
Y-19600D02*
X-12899D01*
Y-6300D01*
X-41100Y-49700D02*
X-12800D01*
Y-36400D01*
X-41100D02*
X-12800D01*
X-41100Y-49700D02*
Y-36400D01*
X171700Y-19100D02*
Y9200D01*
X158400D02*
X171700D01*
X158400Y-19100D02*
Y9200D01*
Y-19100D02*
X171700D01*
X156300Y15800D02*
Y44100D01*
Y15800D02*
X169600D01*
Y44100D01*
X156300D02*
X169600D01*
X-71300Y-70100D02*
Y-41800D01*
X-84600D02*
X-71300D01*
X-84600Y-70100D02*
Y-41800D01*
Y-70100D02*
X-71300D01*
X-159300Y-81100D02*
Y-52800D01*
X-172600D02*
X-159300D01*
X-172600Y-81100D02*
Y-52800D01*
Y-81100D02*
X-159300D01*
X-143300D02*
Y-52800D01*
X-156600D02*
X-143300D01*
X-156600Y-81100D02*
Y-52800D01*
Y-81100D02*
X-143300D01*
X-113300D02*
Y-52800D01*
X-126600D02*
X-113300D01*
X-126600Y-81100D02*
Y-52800D01*
Y-81100D02*
X-113300D01*
X-90100Y-36700D02*
X-61800D01*
Y-23400D01*
X-90100D02*
X-61800D01*
X-90100Y-36700D02*
Y-23400D01*
X-41099Y-34700D02*
X-12799D01*
Y-21400D01*
X-41099D02*
X-12799D01*
X-41099Y-34700D02*
Y-21400D01*
X-100700Y-70200D02*
Y-41900D01*
Y-70200D02*
X-87400D01*
Y-41900D01*
X-100700D02*
X-87400D01*
X148900Y50300D02*
X177200D01*
Y63600D01*
X148900D02*
X177200D01*
X148900Y50300D02*
Y63600D01*
X41899Y31300D02*
X70199D01*
Y44600D01*
X41899D02*
X70199D01*
X41899Y31300D02*
Y44600D01*
X59800Y28700D02*
X88100D01*
X59800Y15400D02*
Y28700D01*
Y15400D02*
X88100D01*
Y28700D01*
X7900Y31300D02*
X36200D01*
Y44600D01*
X7900D02*
X36200D01*
X7900Y31300D02*
Y44600D01*
X-55300Y-70100D02*
Y-41800D01*
X-68600D02*
X-55300D01*
X-68600Y-70100D02*
Y-41800D01*
Y-70100D02*
X-55300D01*
D14*
X-126849Y88867D02*
G03*
X-128264Y90281I-707J707D01*
G01*
D02*
G03*
X-126849Y88867I707J-707D01*
G01*
X149073Y122571D02*
G03*
X148500Y123391I-287J410D01*
G01*
D02*
G03*
X149073Y122571I287J-410D01*
G01*
X-63500Y120000D02*
Y212000D01*
X-39000D01*
X60500D01*
Y96500D02*
Y212000D01*
X-63500Y96500D02*
X60500D01*
X-63500D02*
Y120000D01*
X91039Y-147000D02*
X109000Y-164960D01*
X180842Y-93118D01*
X91039Y-147000D02*
X162882Y-75158D01*
X180842Y-93118D01*
X52480Y5250D02*
Y10750D01*
X23520D02*
X52480D01*
X23520Y5250D02*
Y10750D01*
Y5250D02*
X52480D01*
X53140Y-10750D02*
Y1750D01*
X147493Y-35677D02*
Y-29679D01*
X144494D01*
X143494Y-30679D01*
Y-32678D01*
X144494Y-33678D01*
X147493D01*
X145494D02*
X143494Y-35677D01*
X141495Y-30679D02*
X140495Y-29679D01*
X138496D01*
X137496Y-30679D01*
Y-31679D01*
X138496Y-32678D01*
X139496D01*
X138496D01*
X137496Y-33678D01*
Y-34678D01*
X138496Y-35677D01*
X140495D01*
X141495Y-34678D01*
X162384Y89265D02*
X163776Y89019D01*
X164923Y87381D01*
X164678Y85989D01*
X161402Y83695D01*
X160010Y83941D01*
X158863Y85579D01*
X159109Y86971D01*
X157143Y88035D02*
X155996Y89673D01*
X156570Y88854D01*
X161483Y92295D01*
X161237Y90902D01*
X133999Y25997D02*
X128001D01*
Y22998D01*
X129001Y21999D01*
X131000D01*
X132000Y22998D01*
Y25997D01*
Y23998D02*
X133999Y21999D01*
X129001Y16001D02*
X128001Y17000D01*
Y19000D01*
X129001Y19999D01*
X130000D01*
X131000Y19000D01*
Y17000D01*
X132000Y16001D01*
X132999D01*
X133999Y17000D01*
Y19000D01*
X132999Y19999D01*
X128001Y14001D02*
Y10003D01*
Y12002D01*
X133999D01*
X-15502Y-5999D02*
Y-1D01*
X-18500D01*
X-19500Y-1001D01*
Y-3000D01*
X-18500Y-4000D01*
X-15502D01*
X-17501D02*
X-19500Y-5999D01*
X-21500D02*
X-23499D01*
X-22499D01*
Y-1D01*
X-21500Y-1001D01*
X-30497Y-5999D02*
X-26498D01*
X-30497Y-2001D01*
Y-1001D01*
X-29497Y-1D01*
X-27498D01*
X-26498Y-1001D01*
X63999Y-12998D02*
X59001D01*
X58001Y-11999D01*
Y-9999D01*
X59001Y-9000D01*
X63999D01*
X58001Y-4001D02*
X63999D01*
X61000Y-7000D01*
Y-3002D01*
X-58000Y89001D02*
X-59999D01*
X-58999D01*
Y94000D01*
X-59999Y94999D01*
X-60999D01*
X-61998Y94000D01*
X-52002Y89001D02*
X-54001Y90001D01*
X-56000Y92000D01*
Y94000D01*
X-55001Y94999D01*
X-53001D01*
X-52002Y94000D01*
Y93000D01*
X-53001Y92000D01*
X-56000D01*
X83000Y-63001D02*
X84999D01*
X83999D01*
Y-67999D01*
X84999Y-68999D01*
X85999D01*
X86998Y-67999D01*
X77002Y-68999D02*
X81000D01*
X77002Y-65000D01*
Y-64001D01*
X78001Y-63001D01*
X80001D01*
X81000Y-64001D01*
X-52187Y75587D02*
Y70589D01*
X-53187Y69589D01*
X-55186D01*
X-56186Y70589D01*
Y75587D01*
X-62184D02*
X-60184Y74587D01*
X-58185Y72588D01*
Y70589D01*
X-59185Y69589D01*
X-61184D01*
X-62184Y70589D01*
Y71589D01*
X-61184Y72588D01*
X-58185D01*
X126491Y110127D02*
X130585Y112994D01*
X131978Y112749D01*
X133124Y111111D01*
X132879Y109719D01*
X128785Y106852D01*
X132225Y101939D02*
X129931Y105214D01*
X132388Y106934D01*
X132716Y104723D01*
X133289Y103904D01*
X134682Y103659D01*
X136319Y104806D01*
X136565Y106198D01*
X135418Y107836D01*
X134026Y108081D01*
X-65001Y39002D02*
X-69999D01*
X-70999Y40001D01*
Y42001D01*
X-69999Y43000D01*
X-65001D01*
X-70999Y48998D02*
Y45000D01*
X-67000Y48998D01*
X-66000D01*
X-65001Y47999D01*
Y45999D01*
X-66000Y45000D01*
X-39498Y-50001D02*
Y-55999D01*
X-36499D01*
X-35499Y-54999D01*
Y-53000D01*
X-36499Y-52000D01*
X-39498D01*
X-37499D02*
X-35499Y-50001D01*
X-33500D02*
X-31500D01*
X-32500D01*
Y-55999D01*
X-33500Y-54999D01*
X-28501Y-50001D02*
X-26502D01*
X-27502D01*
Y-55999D01*
X-28501Y-54999D01*
X127574Y-69758D02*
X123333Y-74000D01*
X125453Y-76120D01*
X126867Y-76120D01*
X128281Y-74707D01*
Y-73293D01*
X126160Y-71172D01*
X127574Y-72586D02*
X130401Y-72586D01*
X131108Y-74707D02*
X132522D01*
X133936Y-76120D01*
Y-77534D01*
X131108Y-80361D01*
X129694Y-80361D01*
X128281Y-78948D01*
Y-77534D01*
X128988Y-76827D01*
X130401D01*
X132522Y-78948D01*
X-103002Y-104999D02*
Y-99001D01*
X-106001D01*
X-107000Y-100001D01*
Y-102000D01*
X-106001Y-103000D01*
X-103002D01*
X-105001D02*
X-107000Y-104999D01*
X-109000Y-100001D02*
X-109999Y-99001D01*
X-111999D01*
X-112998Y-100001D01*
Y-101000D01*
X-111999Y-102000D01*
X-112998Y-103000D01*
Y-103999D01*
X-111999Y-104999D01*
X-109999D01*
X-109000Y-103999D01*
Y-103000D01*
X-109999Y-102000D01*
X-109000Y-101000D01*
Y-100001D01*
X-109999Y-102000D02*
X-111999D01*
X145547Y-84558D02*
X149788Y-80316D01*
X147668Y-78196D01*
X146254Y-78196D01*
X144840Y-79609D01*
Y-81023D01*
X146961Y-83144D01*
X145547Y-81730D02*
X142719Y-81730D01*
X139185Y-78196D02*
X143426Y-73955D01*
Y-78196D01*
X140599Y-75368D01*
X-39997Y-5001D02*
Y-10999D01*
X-36998D01*
X-35999Y-9999D01*
Y-8000D01*
X-36998Y-7000D01*
X-39997D01*
X-37998D02*
X-35999Y-5001D01*
X-30001D02*
X-33999D01*
X-30001Y-9000D01*
Y-9999D01*
X-31000Y-10999D01*
X-33000D01*
X-33999Y-9999D01*
X172001Y-16999D02*
X177999D01*
Y-14000D01*
X176999Y-13000D01*
X175000D01*
X174000Y-14000D01*
Y-16999D01*
Y-14999D02*
X172001Y-13000D01*
Y-11001D02*
Y-9001D01*
Y-10001D01*
X177999D01*
X176999Y-11001D01*
X200736Y-46966D02*
X201358Y-45066D01*
X201047Y-46016D01*
X196296Y-44461D01*
X195657Y-43200D01*
X195968Y-42250D01*
X197229Y-41611D01*
X198870Y-52667D02*
X200114Y-48866D01*
X197264Y-47934D01*
X197592Y-50145D01*
X197281Y-51095D01*
X196020Y-51734D01*
X194120Y-51112D01*
X193480Y-49851D01*
X194102Y-47951D01*
X195363Y-47312D01*
X120214Y-159257D02*
X118800Y-160671D01*
X119507Y-159964D01*
X115973Y-156430D01*
X114559D01*
X113852Y-157136D01*
Y-158550D01*
X117387Y-153602D02*
X118800Y-152188D01*
X118094Y-152895D01*
X122335Y-157136D01*
X120921D01*
X-112707Y84625D02*
X-116948Y88867D01*
X-114827Y90987D01*
X-113414D01*
X-110586Y88160D01*
X-110586Y86746D01*
X-112707Y84625D01*
Y93108D02*
X-111293Y94522D01*
X-112000Y93815D01*
X-107759Y89574D01*
X-109172D01*
X174999Y22001D02*
X175999Y21002D01*
Y19002D01*
X174999Y18003D01*
X171001D01*
X170001Y19002D01*
Y21002D01*
X171001Y22001D01*
X170001Y27999D02*
Y24001D01*
X174000Y27999D01*
X174999D01*
X175999Y27000D01*
Y25000D01*
X174999Y24001D01*
Y29999D02*
X175999Y30998D01*
Y32998D01*
X174999Y33997D01*
X171001D01*
X170001Y32998D01*
Y30998D01*
X171001Y29999D01*
X174999D01*
X-66001Y-63499D02*
X-65001Y-64499D01*
Y-66498D01*
X-66001Y-67498D01*
X-69999D01*
X-70999Y-66498D01*
Y-64499D01*
X-69999Y-63499D01*
X-70999Y-61500D02*
Y-59500D01*
Y-60500D01*
X-65001D01*
X-66001Y-61500D01*
X-69999Y-56501D02*
X-70999Y-55501D01*
Y-53502D01*
X-69999Y-52502D01*
X-66001D01*
X-65001Y-53502D01*
Y-55501D01*
X-66001Y-56501D01*
X-67000D01*
X-68000Y-55501D01*
Y-52502D01*
X-154001Y-66499D02*
X-153001Y-67498D01*
Y-69498D01*
X-154001Y-70497D01*
X-157999D01*
X-158999Y-69498D01*
Y-67498D01*
X-157999Y-66499D01*
X-158999Y-64499D02*
Y-62500D01*
Y-63500D01*
X-153001D01*
X-154001Y-64499D01*
Y-59501D02*
X-153001Y-58501D01*
Y-56502D01*
X-154001Y-55502D01*
X-155000D01*
X-156000Y-56502D01*
X-157000Y-55502D01*
X-157999D01*
X-158999Y-56502D01*
Y-58501D01*
X-157999Y-59501D01*
X-157000D01*
X-156000Y-58501D01*
X-155000Y-59501D01*
X-154001D01*
X-156000Y-58501D02*
Y-56502D01*
X-138001Y-62499D02*
X-137001Y-63499D01*
Y-65498D01*
X-138001Y-66498D01*
X-141999D01*
X-142999Y-65498D01*
Y-63499D01*
X-141999Y-62499D01*
X-142999Y-60500D02*
Y-58500D01*
Y-59500D01*
X-137001D01*
X-138001Y-60500D01*
X-137001Y-55501D02*
Y-51502D01*
X-138001D01*
X-141999Y-55501D01*
X-142999D01*
X-101000Y-85499D02*
X-100000Y-86499D01*
Y-88498D01*
X-101000Y-89498D01*
X-104999D01*
X-105998Y-88498D01*
Y-86499D01*
X-104999Y-85499D01*
X-105998Y-83500D02*
Y-81501D01*
Y-82500D01*
X-100000D01*
X-101000Y-83500D01*
X-100000Y-74503D02*
X-101000Y-76502D01*
X-102999Y-78502D01*
X-104999D01*
X-105998Y-77502D01*
Y-75503D01*
X-104999Y-74503D01*
X-103999D01*
X-102999Y-75503D01*
Y-78502D01*
X-68501Y-38001D02*
X-67502Y-37001D01*
X-65502D01*
X-64503Y-38001D01*
Y-41999D01*
X-65502Y-42999D01*
X-67502D01*
X-68501Y-41999D01*
X-70501Y-42999D02*
X-72500D01*
X-71500D01*
Y-37001D01*
X-70501Y-38001D01*
X-79498Y-37001D02*
X-75499D01*
Y-40000D01*
X-77498Y-39000D01*
X-78498D01*
X-79498Y-40000D01*
Y-41999D01*
X-78498Y-42999D01*
X-76499D01*
X-75499Y-41999D01*
X-17500Y-16001D02*
X-16501Y-15001D01*
X-14501D01*
X-13501Y-16001D01*
Y-20000D01*
X-14501Y-20999D01*
X-16501D01*
X-17500Y-20000D01*
X-19499Y-20999D02*
X-21499D01*
X-20499D01*
Y-15001D01*
X-19499Y-16001D01*
X-27497Y-20999D02*
Y-15001D01*
X-24498Y-18000D01*
X-28497D01*
X-85999Y-46501D02*
X-86999Y-45501D01*
Y-43502D01*
X-85999Y-42502D01*
X-82001D01*
X-81001Y-43502D01*
Y-45501D01*
X-82001Y-46501D01*
X-81001Y-48500D02*
Y-50500D01*
Y-49500D01*
X-86999D01*
X-85999Y-48500D01*
Y-53499D02*
X-86999Y-54499D01*
Y-56498D01*
X-85999Y-57498D01*
X-85000D01*
X-84000Y-56498D01*
Y-55498D01*
Y-56498D01*
X-83000Y-57498D01*
X-82001D01*
X-81001Y-56498D01*
Y-54499D01*
X-82001Y-53499D01*
X-116501Y-82001D02*
X-115501Y-81001D01*
X-113502D01*
X-112502Y-82001D01*
Y-85999D01*
X-113502Y-86999D01*
X-115501D01*
X-116501Y-85999D01*
X-118500Y-86999D02*
X-120500D01*
X-119500D01*
Y-81001D01*
X-118500Y-82001D01*
X-127498Y-86999D02*
X-123499D01*
X-127498Y-83000D01*
Y-82001D01*
X-126498Y-81001D01*
X-124499D01*
X-123499Y-82001D01*
X-87501Y-116001D02*
X-86501Y-115001D01*
X-84502D01*
X-83502Y-116001D01*
Y-119999D01*
X-84502Y-120999D01*
X-86501D01*
X-87501Y-119999D01*
X-89500Y-120999D02*
X-91500D01*
X-90500D01*
Y-115001D01*
X-89500Y-116001D01*
X-94499Y-120999D02*
X-96498D01*
X-95498D01*
Y-115001D01*
X-94499Y-116001D01*
X155501Y45001D02*
X154501Y44001D01*
X152502D01*
X151502Y45001D01*
Y48999D01*
X152502Y49999D01*
X154501D01*
X155501Y48999D01*
X157500Y49999D02*
X159500D01*
X158500D01*
Y44001D01*
X157500Y45001D01*
X162499D02*
X163498Y44001D01*
X165498D01*
X166498Y45001D01*
Y48999D01*
X165498Y49999D01*
X163498D01*
X162499Y48999D01*
Y45001D01*
X64999Y49999D02*
X65998Y50999D01*
X67998D01*
X68997Y49999D01*
Y46001D01*
X67998Y45001D01*
X65998D01*
X64999Y46001D01*
X62999D02*
X62000Y45001D01*
X60000D01*
X59001Y46001D01*
Y49999D01*
X60000Y50999D01*
X62000D01*
X62999Y49999D01*
Y49000D01*
X62000Y48000D01*
X59001D01*
X83000Y13999D02*
X83999Y14999D01*
X85999D01*
X86998Y13999D01*
Y10001D01*
X85999Y9001D01*
X83999D01*
X83000Y10001D01*
X81000Y13999D02*
X80001Y14999D01*
X78001D01*
X77002Y13999D01*
Y13000D01*
X78001Y12000D01*
X77002Y11000D01*
Y10001D01*
X78001Y9001D01*
X80001D01*
X81000Y10001D01*
Y11000D01*
X80001Y12000D01*
X81000Y13000D01*
Y13999D01*
X80001Y12000D02*
X78001D01*
X31000Y49999D02*
X31999Y50999D01*
X33999D01*
X34998Y49999D01*
Y46001D01*
X33999Y45001D01*
X31999D01*
X31000Y46001D01*
X29000Y50999D02*
X25002D01*
Y49999D01*
X29000Y46001D01*
Y45001D01*
X-70001Y-65000D02*
X-69001Y-65999D01*
Y-67999D01*
X-70001Y-68998D01*
X-73999D01*
X-74999Y-67999D01*
Y-65999D01*
X-73999Y-65000D01*
X-69001Y-59002D02*
Y-63000D01*
X-72000D01*
X-71000Y-61001D01*
Y-60001D01*
X-72000Y-59002D01*
X-73999D01*
X-74999Y-60001D01*
Y-62001D01*
X-73999Y-63000D01*
D15*
X7055Y53600D02*
G03*
X7055Y53600I-1270J0D01*
G01*
X-66605Y66300D02*
G03*
X-60942Y49651I27305J0D01*
G01*
X-16923Y50653D02*
G03*
X-66605Y66300I-22377J15647D01*
G01*
X-43404Y49155D02*
X-36277D01*
X-158322Y-16322D02*
X-153970D01*
X-158322Y56322D02*
X-153970D01*
X-85678Y51971D02*
Y56322D01*
X-90030Y-16322D02*
X-85678D01*
X-158322D02*
Y-11970D01*
Y51971D02*
Y56322D01*
X-90030D02*
X-85678D01*
Y-16322D02*
Y-11970D01*
D16*
X-180039Y-18040D02*
X-171575Y-9576D01*
X-180039D02*
X-171575Y-18040D01*
X-180039Y-13808D02*
X-171575D01*
X-175807Y-9576D02*
Y-18040D01*
M02*
